M48
; DRILL file {KiCad 9.0.7-9.0.7~ubuntu22.04.1} date 2026-04-17T10:10:23+0300
; FORMAT={-:-/ absolute / metric / decimal}
; #@! TF.CreationDate,2026-04-17T10:10:23+03:00
; #@! TF.GenerationSoftware,Kicad,Pcbnew,9.0.7-9.0.7~ubuntu22.04.1
; #@! TF.FileFunction,Plated,1,2,PTH
FMAT,2
METRIC
; #@! TA.AperFunction,Plated,PTH,ViaDrill
T1C0.300
; #@! TA.AperFunction,Plated,PTH,ViaDrill
T2C0.700
; #@! TA.AperFunction,Plated,PTH,ViaDrill
T3C0.800
; #@! TA.AperFunction,Plated,PTH,ComponentDrill
T4C0.800
; #@! TA.AperFunction,Plated,PTH,ComponentDrill
T5C0.900
; #@! TA.AperFunction,Plated,PTH,ComponentDrill
T6C1.000
; #@! TA.AperFunction,Plated,PTH,ComponentDrill
T7C1.100
%
G90
G05
T1
X216.0Y-53.5
T2
X169.46Y-82.54
X202.0Y-48.0
X205.0Y-46.0
T3
X160.25Y-73.25
X182.0Y-95.5
X197.0Y-95.5
T4
X208.75Y-86.5
X211.25Y-86.5
X212.75Y-80.5
X215.25Y-80.5
T5
X177.45Y-50.35
X177.45Y-52.89
X177.45Y-55.43
X177.45Y-57.97
X177.45Y-60.51
X177.45Y-63.05
X177.45Y-65.59
X177.45Y-68.13
X177.45Y-70.67
X177.45Y-73.21
X177.45Y-75.75
X177.45Y-78.29
X177.45Y-80.83
X177.45Y-83.37
X177.45Y-85.91
X200.31Y-50.35
X200.31Y-52.89
X200.31Y-55.43
X200.31Y-57.97
X200.31Y-60.51
X200.31Y-63.05
X200.31Y-65.59
X200.31Y-68.13
X200.31Y-70.67
X200.31Y-73.21
X200.31Y-75.75
X200.31Y-78.29
X200.31Y-80.83
X200.31Y-83.37
X200.31Y-85.91
T6
X163.5Y-63.88
X163.5Y-66.42
X163.5Y-68.96
X163.5Y-71.5
X163.5Y-74.04
X163.5Y-76.58
X206.46Y-53.0
X209.0Y-53.0
X210.0Y-57.0
X210.0Y-59.54
X210.0Y-62.08
X210.0Y-64.62
X210.0Y-67.16
X210.0Y-69.7
X211.54Y-53.0
X215.8Y-71.0
X215.8Y-73.5
T7
X204.96Y-75.0
X207.5Y-75.0
X210.04Y-75.0
M30
