999
"DXF R12 Output" (www.mydxf.blogspot.com)
 0 
SECTION
 2 
HEADER
 9 
$ACADVER
 1 
AC1009
 9 
$EXTMIN
 10 
 0 
 20 
 0 
 9 
$EXTMAX
 10 
 8.5 
 20 
 11 
 0 
ENDSEC
 0 
SECTION
 2 
ENTITIES
0
POLYLINE
8
Layer 1
62
7
70
0
10
0.000000
20
0.000000
66
1
0
VERTEX
8
Layer 1
10
189.500000
20
171.507000
70
0
0
VERTEX
8
Layer 1
10
187.127154
20
171.417935
70
0
0
VERTEX
8
Layer 1
10
184.791556
20
171.154237
70
0
0
VERTEX
8
Layer 1
10
182.501052
20
170.721146
70
0
0
VERTEX
8
Layer 1
10
180.263488
20
170.123906
70
0
0
VERTEX
8
Layer 1
10
178.086709
20
169.367758
70
0
0
VERTEX
8
Layer 1
10
175.978560
20
168.457945
70
0
0
VERTEX
8
Layer 1
10
173.946888
20
167.399709
70
0
0
VERTEX
8
Layer 1
10
171.999538
20
166.198293
70
0
0
VERTEX
8
Layer 1
10
170.144355
20
164.858938
70
0
0
VERTEX
8
Layer 1
10
168.389185
20
163.386887
70
0
0
VERTEX
8
Layer 1
10
166.741874
20
161.787382
70
0
0
VERTEX
8
Layer 1
10
165.210267
20
160.065665
70
0
0
VERTEX
8
Layer 1
10
163.802210
20
158.226980
70
0
0
VERTEX
8
Layer 1
10
162.525549
20
156.276566
70
0
0
VERTEX
8
Layer 1
10
161.388129
20
154.219669
70
0
0
VERTEX
8
Layer 1
10
160.397795
20
152.061528
70
0
0
VERTEX
8
Layer 1
10
159.572031
20
149.835221
70
0
0
VERTEX
8
Layer 1
10
158.921862
20
147.576496
70
0
0
VERTEX
8
Layer 1
10
158.445448
20
145.294610
70
0
0
VERTEX
8
Layer 1
10
158.140947
20
142.998816
70
0
0
VERTEX
8
Layer 1
10
158.006519
20
140.698369
70
0
0
VERTEX
8
Layer 1
10
158.040323
20
138.402524
70
0
0
VERTEX
8
Layer 1
10
158.240518
20
136.120534
70
0
0
VERTEX
8
Layer 1
10
158.605264
20
133.861655
70
0
0
VERTEX
8
Layer 1
10
159.132719
20
131.635141
70
0
0
VERTEX
8
Layer 1
10
159.821042
20
129.450246
70
0
0
VERTEX
8
Layer 1
10
160.668393
20
127.316225
70
0
0
VERTEX
8
Layer 1
10
161.672931
20
125.242332
70
0
0
VERTEX
8
Layer 1
10
162.832816
20
123.237822
70
0
0
VERTEX
8
Layer 1
10
164.146205
20
121.311950
70
0
0
VERTEX
8
Layer 1
10
165.611259
20
119.473970
70
0
0
VERTEX
8
Layer 1
10
167.226136
20
117.733136
70
0
0
VERTEX
8
Layer 1
10
168.966970
20
116.118259
70
0
0
VERTEX
8
Layer 1
10
170.804950
20
114.653205
70
0
0
VERTEX
8
Layer 1
10
172.730822
20
113.339816
70
0
0
VERTEX
8
Layer 1
10
174.735332
20
112.179931
70
0
0
VERTEX
8
Layer 1
10
176.809225
20
111.175393
70
0
0
VERTEX
8
Layer 1
10
178.943246
20
110.328042
70
0
0
VERTEX
8
Layer 1
10
181.128141
20
109.639719
70
0
0
VERTEX
8
Layer 1
10
183.354655
20
109.112264
70
0
0
VERTEX
8
Layer 1
10
185.613534
20
108.747518
70
0
0
VERTEX
8
Layer 1
10
187.895524
20
108.547323
70
0
0
VERTEX
8
Layer 1
10
190.191369
20
108.513519
70
0
0
VERTEX
8
Layer 1
10
192.491816
20
108.647947
70
0
0
VERTEX
8
Layer 1
10
194.787610
20
108.952448
70
0
0
VERTEX
8
Layer 1
10
197.069496
20
109.428862
70
0
0
VERTEX
8
Layer 1
10
199.328221
20
110.079031
70
0
0
VERTEX
8
Layer 1
10
201.554528
20
110.904795
70
0
0
VERTEX
8
Layer 1
10
203.712669
20
111.895129
70
0
0
VERTEX
8
Layer 1
10
205.769566
20
113.032549
70
0
0
VERTEX
8
Layer 1
10
207.719980
20
114.309210
70
0
0
VERTEX
8
Layer 1
10
209.558665
20
115.717267
70
0
0
VERTEX
8
Layer 1
10
211.280382
20
117.248874
70
0
0
VERTEX
8
Layer 1
10
212.879887
20
118.896185
70
0
0
VERTEX
8
Layer 1
10
214.351938
20
120.651355
70
0
0
VERTEX
8
Layer 1
10
215.691293
20
122.506538
70
0
0
VERTEX
8
Layer 1
10
216.892709
20
124.453888
70
0
0
VERTEX
8
Layer 1
10
217.950945
20
126.485560
70
0
0
VERTEX
8
Layer 1
10
218.860758
20
128.593709
70
0
0
VERTEX
8
Layer 1
10
219.616906
20
130.770488
70
0
0
VERTEX
8
Layer 1
10
220.214146
20
133.008052
70
0
0
VERTEX
8
Layer 1
10
220.647237
20
135.298556
70
0
0
VERTEX
8
Layer 1
10
220.910935
20
137.634154
70
0
0
VERTEX
8
Layer 1
10
221.000000
20
140.007000
70
0
0
VERTEX
8
Layer 1
10
220.845860
20
143.120388
70
0
0
VERTEX
8
Layer 1
10
220.389144
20
146.181042
70
0
0
VERTEX
8
Layer 1
10
219.638407
20
149.168307
70
0
0
VERTEX
8
Layer 1
10
218.602205
20
152.061528
70
0
0
VERTEX
8
Layer 1
10
217.289094
20
154.840049
70
0
0
VERTEX
8
Layer 1
10
215.707630
20
157.483216
70
0
0
VERTEX
8
Layer 1
10
213.866368
20
159.970372
70
0
0
VERTEX
8
Layer 1
10
211.773864
20
162.280864
70
0
0
VERTEX
8
Layer 1
10
209.463372
20
164.373368
70
0
0
VERTEX
8
Layer 1
10
206.976216
20
166.214630
70
0
0
VERTEX
8
Layer 1
10
204.333049
20
167.796094
70
0
0
VERTEX
8
Layer 1
10
201.554528
20
169.109205
70
0
0
VERTEX
8
Layer 1
10
198.661307
20
170.145407
70
0
0
VERTEX
8
Layer 1
10
195.674042
20
170.896144
70
0
0
VERTEX
8
Layer 1
10
192.613388
20
171.352860
70
0
0
VERTEX
8
Layer 1
10
189.500000
20
171.507000
70
0
0
VERTEX
8
Layer 1
10
189.500000
20
171.507000
70
0
0
SEQEND
8
Layer 1
0
POLYLINE
8
Layer 1
62
7
70
1
10
0.000000
20
0.000000
66
1
0
VERTEX
8
Layer 1
10
188.762500
20
143.107000
70
0
0
VERTEX
8
Layer 1
10
188.770100
20
143.145300
70
0
0
VERTEX
8
Layer 1
10
188.791800
20
143.177700
70
0
0
VERTEX
8
Layer 1
10
188.824200
20
143.199400
70
0
0
VERTEX
8
Layer 1
10
188.862500
20
143.207000
70
0
0
VERTEX
8
Layer 1
10
190.137500
20
143.207000
70
0
0
VERTEX
8
Layer 1
10
190.175800
20
143.199400
70
0
0
VERTEX
8
Layer 1
10
190.208200
20
143.177700
70
0
0
VERTEX
8
Layer 1
10
190.229900
20
143.145300
70
0
0
VERTEX
8
Layer 1
10
190.237500
20
143.107000
70
0
0
VERTEX
8
Layer 1
10
190.237500
20
142.907000
70
0
0
VERTEX
8
Layer 1
10
190.229900
20
142.868700
70
0
0
VERTEX
8
Layer 1
10
190.208200
20
142.836300
70
0
0
VERTEX
8
Layer 1
10
190.175800
20
142.814600
70
0
0
VERTEX
8
Layer 1
10
190.137500
20
142.807000
70
0
0
VERTEX
8
Layer 1
10
188.862500
20
142.807000
70
0
0
VERTEX
8
Layer 1
10
188.824200
20
142.814600
70
0
0
VERTEX
8
Layer 1
10
188.791800
20
142.836300
70
0
0
VERTEX
8
Layer 1
10
188.770100
20
142.868700
70
0
0
VERTEX
8
Layer 1
10
188.762500
20
142.907000
70
0
0
VERTEX
8
Layer 1
10
188.762500
20
143.107000
70
0
0
SEQEND
8
Layer 1
0
POLYLINE
8
Layer 1
62
7
70
1
10
0.000000
20
0.000000
66
1
0
VERTEX
8
Layer 1
10
188.762500
20
142.457000
70
0
0
VERTEX
8
Layer 1
10
188.770100
20
142.495300
70
0
0
VERTEX
8
Layer 1
10
188.791800
20
142.527700
70
0
0
VERTEX
8
Layer 1
10
188.824200
20
142.549400
70
0
0
VERTEX
8
Layer 1
10
188.862500
20
142.557000
70
0
0
VERTEX
8
Layer 1
10
190.137500
20
142.557000
70
0
0
VERTEX
8
Layer 1
10
190.175800
20
142.549400
70
0
0
VERTEX
8
Layer 1
10
190.208200
20
142.527700
70
0
0
VERTEX
8
Layer 1
10
190.229900
20
142.495300
70
0
0
VERTEX
8
Layer 1
10
190.237500
20
142.457000
70
0
0
VERTEX
8
Layer 1
10
190.237500
20
142.257000
70
0
0
VERTEX
8
Layer 1
10
190.229900
20
142.218700
70
0
0
VERTEX
8
Layer 1
10
190.208200
20
142.186300
70
0
0
VERTEX
8
Layer 1
10
190.175800
20
142.164600
70
0
0
VERTEX
8
Layer 1
10
190.137500
20
142.157000
70
0
0
VERTEX
8
Layer 1
10
188.862500
20
142.157000
70
0
0
VERTEX
8
Layer 1
10
188.824200
20
142.164600
70
0
0
VERTEX
8
Layer 1
10
188.791800
20
142.186300
70
0
0
VERTEX
8
Layer 1
10
188.770100
20
142.218700
70
0
0
VERTEX
8
Layer 1
10
188.762500
20
142.257000
70
0
0
VERTEX
8
Layer 1
10
188.762500
20
142.457000
70
0
0
SEQEND
8
Layer 1
0
POLYLINE
8
Layer 1
62
7
70
1
10
0.000000
20
0.000000
66
1
0
VERTEX
8
Layer 1
10
188.762500
20
141.807000
70
0
0
VERTEX
8
Layer 1
10
188.770100
20
141.845300
70
0
0
VERTEX
8
Layer 1
10
188.791800
20
141.877700
70
0
0
VERTEX
8
Layer 1
10
188.824200
20
141.899400
70
0
0
VERTEX
8
Layer 1
10
188.862500
20
141.907000
70
0
0
VERTEX
8
Layer 1
10
190.137500
20
141.907000
70
0
0
VERTEX
8
Layer 1
10
190.175800
20
141.899400
70
0
0
VERTEX
8
Layer 1
10
190.208200
20
141.877700
70
0
0
VERTEX
8
Layer 1
10
190.229900
20
141.845300
70
0
0
VERTEX
8
Layer 1
10
190.237500
20
141.807000
70
0
0
VERTEX
8
Layer 1
10
190.237500
20
141.607000
70
0
0
VERTEX
8
Layer 1
10
190.229900
20
141.568700
70
0
0
VERTEX
8
Layer 1
10
190.208200
20
141.536300
70
0
0
VERTEX
8
Layer 1
10
190.175800
20
141.514600
70
0
0
VERTEX
8
Layer 1
10
190.137500
20
141.507000
70
0
0
VERTEX
8
Layer 1
10
188.862500
20
141.507000
70
0
0
VERTEX
8
Layer 1
10
188.824200
20
141.514600
70
0
0
VERTEX
8
Layer 1
10
188.791800
20
141.536300
70
0
0
VERTEX
8
Layer 1
10
188.770100
20
141.568700
70
0
0
VERTEX
8
Layer 1
10
188.762500
20
141.607000
70
0
0
VERTEX
8
Layer 1
10
188.762500
20
141.807000
70
0
0
SEQEND
8
Layer 1
0
POLYLINE
8
Layer 1
62
7
70
1
10
0.000000
20
0.000000
66
1
0
VERTEX
8
Layer 1
10
188.762500
20
141.157000
70
0
0
VERTEX
8
Layer 1
10
188.770100
20
141.195300
70
0
0
VERTEX
8
Layer 1
10
188.791800
20
141.227700
70
0
0
VERTEX
8
Layer 1
10
188.824200
20
141.249400
70
0
0
VERTEX
8
Layer 1
10
188.862500
20
141.257000
70
0
0
VERTEX
8
Layer 1
10
190.137500
20
141.257000
70
0
0
VERTEX
8
Layer 1
10
190.175800
20
141.249400
70
0
0
VERTEX
8
Layer 1
10
190.208200
20
141.227700
70
0
0
VERTEX
8
Layer 1
10
190.229900
20
141.195300
70
0
0
VERTEX
8
Layer 1
10
190.237500
20
141.157000
70
0
0
VERTEX
8
Layer 1
10
190.237500
20
140.957000
70
0
0
VERTEX
8
Layer 1
10
190.229900
20
140.918700
70
0
0
VERTEX
8
Layer 1
10
190.208200
20
140.886300
70
0
0
VERTEX
8
Layer 1
10
190.175800
20
140.864600
70
0
0
VERTEX
8
Layer 1
10
190.137500
20
140.857000
70
0
0
VERTEX
8
Layer 1
10
188.862500
20
140.857000
70
0
0
VERTEX
8
Layer 1
10
188.824200
20
140.864600
70
0
0
VERTEX
8
Layer 1
10
188.791800
20
140.886300
70
0
0
VERTEX
8
Layer 1
10
188.770100
20
140.918700
70
0
0
VERTEX
8
Layer 1
10
188.762500
20
140.957000
70
0
0
VERTEX
8
Layer 1
10
188.762500
20
141.157000
70
0
0
SEQEND
8
Layer 1
0
POLYLINE
8
Layer 1
62
7
70
1
10
0.000000
20
0.000000
66
1
0
VERTEX
8
Layer 1
10
188.762500
20
140.507000
70
0
0
VERTEX
8
Layer 1
10
188.770100
20
140.545300
70
0
0
VERTEX
8
Layer 1
10
188.791800
20
140.577700
70
0
0
VERTEX
8
Layer 1
10
188.824200
20
140.599400
70
0
0
VERTEX
8
Layer 1
10
188.862500
20
140.607000
70
0
0
VERTEX
8
Layer 1
10
190.137500
20
140.607000
70
0
0
VERTEX
8
Layer 1
10
190.175800
20
140.599400
70
0
0
VERTEX
8
Layer 1
10
190.208200
20
140.577700
70
0
0
VERTEX
8
Layer 1
10
190.229900
20
140.545300
70
0
0
VERTEX
8
Layer 1
10
190.237500
20
140.507000
70
0
0
VERTEX
8
Layer 1
10
190.237500
20
140.307000
70
0
0
VERTEX
8
Layer 1
10
190.229900
20
140.268700
70
0
0
VERTEX
8
Layer 1
10
190.208200
20
140.236300
70
0
0
VERTEX
8
Layer 1
10
190.175800
20
140.214600
70
0
0
VERTEX
8
Layer 1
10
190.137500
20
140.207000
70
0
0
VERTEX
8
Layer 1
10
188.862500
20
140.207000
70
0
0
VERTEX
8
Layer 1
10
188.824200
20
140.214600
70
0
0
VERTEX
8
Layer 1
10
188.791800
20
140.236300
70
0
0
VERTEX
8
Layer 1
10
188.770100
20
140.268700
70
0
0
VERTEX
8
Layer 1
10
188.762500
20
140.307000
70
0
0
VERTEX
8
Layer 1
10
188.762500
20
140.507000
70
0
0
SEQEND
8
Layer 1
0
POLYLINE
8
Layer 1
62
7
70
1
10
0.000000
20
0.000000
66
1
0
VERTEX
8
Layer 1
10
188.762500
20
139.857000
70
0
0
VERTEX
8
Layer 1
10
188.770100
20
139.895300
70
0
0
VERTEX
8
Layer 1
10
188.791800
20
139.927700
70
0
0
VERTEX
8
Layer 1
10
188.824200
20
139.949400
70
0
0
VERTEX
8
Layer 1
10
188.862500
20
139.957000
70
0
0
VERTEX
8
Layer 1
10
190.137500
20
139.957000
70
0
0
VERTEX
8
Layer 1
10
190.175800
20
139.949400
70
0
0
VERTEX
8
Layer 1
10
190.208200
20
139.927700
70
0
0
VERTEX
8
Layer 1
10
190.229900
20
139.895300
70
0
0
VERTEX
8
Layer 1
10
190.237500
20
139.857000
70
0
0
VERTEX
8
Layer 1
10
190.237500
20
139.657000
70
0
0
VERTEX
8
Layer 1
10
190.229900
20
139.618700
70
0
0
VERTEX
8
Layer 1
10
190.208200
20
139.586300
70
0
0
VERTEX
8
Layer 1
10
190.175800
20
139.564600
70
0
0
VERTEX
8
Layer 1
10
190.137500
20
139.557000
70
0
0
VERTEX
8
Layer 1
10
188.862500
20
139.557000
70
0
0
VERTEX
8
Layer 1
10
188.824200
20
139.564600
70
0
0
VERTEX
8
Layer 1
10
188.791800
20
139.586300
70
0
0
VERTEX
8
Layer 1
10
188.770100
20
139.618700
70
0
0
VERTEX
8
Layer 1
10
188.762500
20
139.657000
70
0
0
VERTEX
8
Layer 1
10
188.762500
20
139.857000
70
0
0
SEQEND
8
Layer 1
0
POLYLINE
8
Layer 1
62
7
70
1
10
0.000000
20
0.000000
66
1
0
VERTEX
8
Layer 1
10
188.762500
20
139.207000
70
0
0
VERTEX
8
Layer 1
10
188.770100
20
139.245300
70
0
0
VERTEX
8
Layer 1
10
188.791800
20
139.277700
70
0
0
VERTEX
8
Layer 1
10
188.824200
20
139.299400
70
0
0
VERTEX
8
Layer 1
10
188.862500
20
139.307000
70
0
0
VERTEX
8
Layer 1
10
190.137500
20
139.307000
70
0
0
VERTEX
8
Layer 1
10
190.175800
20
139.299400
70
0
0
VERTEX
8
Layer 1
10
190.208200
20
139.277700
70
0
0
VERTEX
8
Layer 1
10
190.229900
20
139.245300
70
0
0
VERTEX
8
Layer 1
10
190.237500
20
139.207000
70
0
0
VERTEX
8
Layer 1
10
190.237500
20
139.007000
70
0
0
VERTEX
8
Layer 1
10
190.229900
20
138.968700
70
0
0
VERTEX
8
Layer 1
10
190.208200
20
138.936300
70
0
0
VERTEX
8
Layer 1
10
190.175800
20
138.914600
70
0
0
VERTEX
8
Layer 1
10
190.137500
20
138.907000
70
0
0
VERTEX
8
Layer 1
10
188.862500
20
138.907000
70
0
0
VERTEX
8
Layer 1
10
188.824200
20
138.914600
70
0
0
VERTEX
8
Layer 1
10
188.791800
20
138.936300
70
0
0
VERTEX
8
Layer 1
10
188.770100
20
138.968700
70
0
0
VERTEX
8
Layer 1
10
188.762500
20
139.007000
70
0
0
VERTEX
8
Layer 1
10
188.762500
20
139.207000
70
0
0
SEQEND
8
Layer 1
0
POLYLINE
8
Layer 1
62
7
70
1
10
0.000000
20
0.000000
66
1
0
VERTEX
8
Layer 1
10
188.762500
20
138.557000
70
0
0
VERTEX
8
Layer 1
10
188.770100
20
138.595300
70
0
0
VERTEX
8
Layer 1
10
188.791800
20
138.627700
70
0
0
VERTEX
8
Layer 1
10
188.824200
20
138.649400
70
0
0
VERTEX
8
Layer 1
10
188.862500
20
138.657000
70
0
0
VERTEX
8
Layer 1
10
190.137500
20
138.657000
70
0
0
VERTEX
8
Layer 1
10
190.175800
20
138.649400
70
0
0
VERTEX
8
Layer 1
10
190.208200
20
138.627700
70
0
0
VERTEX
8
Layer 1
10
190.229900
20
138.595300
70
0
0
VERTEX
8
Layer 1
10
190.237500
20
138.557000
70
0
0
VERTEX
8
Layer 1
10
190.237500
20
138.357000
70
0
0
VERTEX
8
Layer 1
10
190.229900
20
138.318700
70
0
0
VERTEX
8
Layer 1
10
190.208200
20
138.286300
70
0
0
VERTEX
8
Layer 1
10
190.175800
20
138.264600
70
0
0
VERTEX
8
Layer 1
10
190.137500
20
138.257000
70
0
0
VERTEX
8
Layer 1
10
188.862500
20
138.257000
70
0
0
VERTEX
8
Layer 1
10
188.824200
20
138.264600
70
0
0
VERTEX
8
Layer 1
10
188.791800
20
138.286300
70
0
0
VERTEX
8
Layer 1
10
188.770100
20
138.318700
70
0
0
VERTEX
8
Layer 1
10
188.762500
20
138.357000
70
0
0
VERTEX
8
Layer 1
10
188.762500
20
138.557000
70
0
0
SEQEND
8
Layer 1
0
POLYLINE
8
Layer 1
62
7
70
1
10
0.000000
20
0.000000
66
1
0
VERTEX
8
Layer 1
10
194.487500
20
138.557000
70
0
0
VERTEX
8
Layer 1
10
194.495100
20
138.595300
70
0
0
VERTEX
8
Layer 1
10
194.516800
20
138.627700
70
0
0
VERTEX
8
Layer 1
10
194.549200
20
138.649400
70
0
0
VERTEX
8
Layer 1
10
194.587500
20
138.657000
70
0
0
VERTEX
8
Layer 1
10
195.862500
20
138.657000
70
0
0
VERTEX
8
Layer 1
10
195.900800
20
138.649400
70
0
0
VERTEX
8
Layer 1
10
195.933200
20
138.627700
70
0
0
VERTEX
8
Layer 1
10
195.954900
20
138.595300
70
0
0
VERTEX
8
Layer 1
10
195.962500
20
138.557000
70
0
0
VERTEX
8
Layer 1
10
195.962500
20
138.357000
70
0
0
VERTEX
8
Layer 1
10
195.954900
20
138.318700
70
0
0
VERTEX
8
Layer 1
10
195.933200
20
138.286300
70
0
0
VERTEX
8
Layer 1
10
195.900800
20
138.264600
70
0
0
VERTEX
8
Layer 1
10
195.862500
20
138.257000
70
0
0
VERTEX
8
Layer 1
10
194.587500
20
138.257000
70
0
0
VERTEX
8
Layer 1
10
194.549200
20
138.264600
70
0
0
VERTEX
8
Layer 1
10
194.516800
20
138.286300
70
0
0
VERTEX
8
Layer 1
10
194.495100
20
138.318700
70
0
0
VERTEX
8
Layer 1
10
194.487500
20
138.357000
70
0
0
VERTEX
8
Layer 1
10
194.487500
20
138.557000
70
0
0
SEQEND
8
Layer 1
0
POLYLINE
8
Layer 1
62
7
70
1
10
0.000000
20
0.000000
66
1
0
VERTEX
8
Layer 1
10
194.487500
20
139.207000
70
0
0
VERTEX
8
Layer 1
10
194.495100
20
139.245300
70
0
0
VERTEX
8
Layer 1
10
194.516800
20
139.277700
70
0
0
VERTEX
8
Layer 1
10
194.549200
20
139.299400
70
0
0
VERTEX
8
Layer 1
10
194.587500
20
139.307000
70
0
0
VERTEX
8
Layer 1
10
195.862500
20
139.307000
70
0
0
VERTEX
8
Layer 1
10
195.900800
20
139.299400
70
0
0
VERTEX
8
Layer 1
10
195.933200
20
139.277700
70
0
0
VERTEX
8
Layer 1
10
195.954900
20
139.245300
70
0
0
VERTEX
8
Layer 1
10
195.962500
20
139.207000
70
0
0
VERTEX
8
Layer 1
10
195.962500
20
139.007000
70
0
0
VERTEX
8
Layer 1
10
195.954900
20
138.968700
70
0
0
VERTEX
8
Layer 1
10
195.933200
20
138.936300
70
0
0
VERTEX
8
Layer 1
10
195.900800
20
138.914600
70
0
0
VERTEX
8
Layer 1
10
195.862500
20
138.907000
70
0
0
VERTEX
8
Layer 1
10
194.587500
20
138.907000
70
0
0
VERTEX
8
Layer 1
10
194.549200
20
138.914600
70
0
0
VERTEX
8
Layer 1
10
194.516800
20
138.936300
70
0
0
VERTEX
8
Layer 1
10
194.495100
20
138.968700
70
0
0
VERTEX
8
Layer 1
10
194.487500
20
139.007000
70
0
0
VERTEX
8
Layer 1
10
194.487500
20
139.207000
70
0
0
SEQEND
8
Layer 1
0
POLYLINE
8
Layer 1
62
7
70
1
10
0.000000
20
0.000000
66
1
0
VERTEX
8
Layer 1
10
194.487500
20
139.857000
70
0
0
VERTEX
8
Layer 1
10
194.495100
20
139.895300
70
0
0
VERTEX
8
Layer 1
10
194.516800
20
139.927700
70
0
0
VERTEX
8
Layer 1
10
194.549200
20
139.949400
70
0
0
VERTEX
8
Layer 1
10
194.587500
20
139.957000
70
0
0
VERTEX
8
Layer 1
10
195.862500
20
139.957000
70
0
0
VERTEX
8
Layer 1
10
195.900800
20
139.949400
70
0
0
VERTEX
8
Layer 1
10
195.933200
20
139.927700
70
0
0
VERTEX
8
Layer 1
10
195.954900
20
139.895300
70
0
0
VERTEX
8
Layer 1
10
195.962500
20
139.857000
70
0
0
VERTEX
8
Layer 1
10
195.962500
20
139.657000
70
0
0
VERTEX
8
Layer 1
10
195.954900
20
139.618700
70
0
0
VERTEX
8
Layer 1
10
195.933200
20
139.586300
70
0
0
VERTEX
8
Layer 1
10
195.900800
20
139.564600
70
0
0
VERTEX
8
Layer 1
10
195.862500
20
139.557000
70
0
0
VERTEX
8
Layer 1
10
194.587500
20
139.557000
70
0
0
VERTEX
8
Layer 1
10
194.549200
20
139.564600
70
0
0
VERTEX
8
Layer 1
10
194.516800
20
139.586300
70
0
0
VERTEX
8
Layer 1
10
194.495100
20
139.618700
70
0
0
VERTEX
8
Layer 1
10
194.487500
20
139.657000
70
0
0
VERTEX
8
Layer 1
10
194.487500
20
139.857000
70
0
0
SEQEND
8
Layer 1
0
POLYLINE
8
Layer 1
62
7
70
1
10
0.000000
20
0.000000
66
1
0
VERTEX
8
Layer 1
10
194.487500
20
140.507000
70
0
0
VERTEX
8
Layer 1
10
194.495100
20
140.545300
70
0
0
VERTEX
8
Layer 1
10
194.516800
20
140.577700
70
0
0
VERTEX
8
Layer 1
10
194.549200
20
140.599400
70
0
0
VERTEX
8
Layer 1
10
194.587500
20
140.607000
70
0
0
VERTEX
8
Layer 1
10
195.862500
20
140.607000
70
0
0
VERTEX
8
Layer 1
10
195.900800
20
140.599400
70
0
0
VERTEX
8
Layer 1
10
195.933200
20
140.577700
70
0
0
VERTEX
8
Layer 1
10
195.954900
20
140.545300
70
0
0
VERTEX
8
Layer 1
10
195.962500
20
140.507000
70
0
0
VERTEX
8
Layer 1
10
195.962500
20
140.307000
70
0
0
VERTEX
8
Layer 1
10
195.954900
20
140.268700
70
0
0
VERTEX
8
Layer 1
10
195.933200
20
140.236300
70
0
0
VERTEX
8
Layer 1
10
195.900800
20
140.214600
70
0
0
VERTEX
8
Layer 1
10
195.862500
20
140.207000
70
0
0
VERTEX
8
Layer 1
10
194.587500
20
140.207000
70
0
0
VERTEX
8
Layer 1
10
194.549200
20
140.214600
70
0
0
VERTEX
8
Layer 1
10
194.516800
20
140.236300
70
0
0
VERTEX
8
Layer 1
10
194.495100
20
140.268700
70
0
0
VERTEX
8
Layer 1
10
194.487500
20
140.307000
70
0
0
VERTEX
8
Layer 1
10
194.487500
20
140.507000
70
0
0
SEQEND
8
Layer 1
0
POLYLINE
8
Layer 1
62
7
70
1
10
0.000000
20
0.000000
66
1
0
VERTEX
8
Layer 1
10
194.487500
20
141.157000
70
0
0
VERTEX
8
Layer 1
10
194.495100
20
141.195300
70
0
0
VERTEX
8
Layer 1
10
194.516800
20
141.227700
70
0
0
VERTEX
8
Layer 1
10
194.549200
20
141.249400
70
0
0
VERTEX
8
Layer 1
10
194.587500
20
141.257000
70
0
0
VERTEX
8
Layer 1
10
195.862500
20
141.257000
70
0
0
VERTEX
8
Layer 1
10
195.900800
20
141.249400
70
0
0
VERTEX
8
Layer 1
10
195.933200
20
141.227700
70
0
0
VERTEX
8
Layer 1
10
195.954900
20
141.195300
70
0
0
VERTEX
8
Layer 1
10
195.962500
20
141.157000
70
0
0
VERTEX
8
Layer 1
10
195.962500
20
140.957000
70
0
0
VERTEX
8
Layer 1
10
195.954900
20
140.918700
70
0
0
VERTEX
8
Layer 1
10
195.933200
20
140.886300
70
0
0
VERTEX
8
Layer 1
10
195.900800
20
140.864600
70
0
0
VERTEX
8
Layer 1
10
195.862500
20
140.857000
70
0
0
VERTEX
8
Layer 1
10
194.587500
20
140.857000
70
0
0
VERTEX
8
Layer 1
10
194.549200
20
140.864600
70
0
0
VERTEX
8
Layer 1
10
194.516800
20
140.886300
70
0
0
VERTEX
8
Layer 1
10
194.495100
20
140.918700
70
0
0
VERTEX
8
Layer 1
10
194.487500
20
140.957000
70
0
0
VERTEX
8
Layer 1
10
194.487500
20
141.157000
70
0
0
SEQEND
8
Layer 1
0
POLYLINE
8
Layer 1
62
7
70
1
10
0.000000
20
0.000000
66
1
0
VERTEX
8
Layer 1
10
194.487500
20
141.807000
70
0
0
VERTEX
8
Layer 1
10
194.495100
20
141.845300
70
0
0
VERTEX
8
Layer 1
10
194.516800
20
141.877700
70
0
0
VERTEX
8
Layer 1
10
194.549200
20
141.899400
70
0
0
VERTEX
8
Layer 1
10
194.587500
20
141.907000
70
0
0
VERTEX
8
Layer 1
10
195.862500
20
141.907000
70
0
0
VERTEX
8
Layer 1
10
195.900800
20
141.899400
70
0
0
VERTEX
8
Layer 1
10
195.933200
20
141.877700
70
0
0
VERTEX
8
Layer 1
10
195.954900
20
141.845300
70
0
0
VERTEX
8
Layer 1
10
195.962500
20
141.807000
70
0
0
VERTEX
8
Layer 1
10
195.962500
20
141.607000
70
0
0
VERTEX
8
Layer 1
10
195.954900
20
141.568700
70
0
0
VERTEX
8
Layer 1
10
195.933200
20
141.536300
70
0
0
VERTEX
8
Layer 1
10
195.900800
20
141.514600
70
0
0
VERTEX
8
Layer 1
10
195.862500
20
141.507000
70
0
0
VERTEX
8
Layer 1
10
194.587500
20
141.507000
70
0
0
VERTEX
8
Layer 1
10
194.549200
20
141.514600
70
0
0
VERTEX
8
Layer 1
10
194.516800
20
141.536300
70
0
0
VERTEX
8
Layer 1
10
194.495100
20
141.568700
70
0
0
VERTEX
8
Layer 1
10
194.487500
20
141.607000
70
0
0
VERTEX
8
Layer 1
10
194.487500
20
141.807000
70
0
0
SEQEND
8
Layer 1
0
POLYLINE
8
Layer 1
62
7
70
1
10
0.000000
20
0.000000
66
1
0
VERTEX
8
Layer 1
10
194.487500
20
142.457000
70
0
0
VERTEX
8
Layer 1
10
194.495100
20
142.495300
70
0
0
VERTEX
8
Layer 1
10
194.516800
20
142.527700
70
0
0
VERTEX
8
Layer 1
10
194.549200
20
142.549400
70
0
0
VERTEX
8
Layer 1
10
194.587500
20
142.557000
70
0
0
VERTEX
8
Layer 1
10
195.862500
20
142.557000
70
0
0
VERTEX
8
Layer 1
10
195.900800
20
142.549400
70
0
0
VERTEX
8
Layer 1
10
195.933200
20
142.527700
70
0
0
VERTEX
8
Layer 1
10
195.954900
20
142.495300
70
0
0
VERTEX
8
Layer 1
10
195.962500
20
142.457000
70
0
0
VERTEX
8
Layer 1
10
195.962500
20
142.257000
70
0
0
VERTEX
8
Layer 1
10
195.954900
20
142.218700
70
0
0
VERTEX
8
Layer 1
10
195.933200
20
142.186300
70
0
0
VERTEX
8
Layer 1
10
195.900800
20
142.164600
70
0
0
VERTEX
8
Layer 1
10
195.862500
20
142.157000
70
0
0
VERTEX
8
Layer 1
10
194.587500
20
142.157000
70
0
0
VERTEX
8
Layer 1
10
194.549200
20
142.164600
70
0
0
VERTEX
8
Layer 1
10
194.516800
20
142.186300
70
0
0
VERTEX
8
Layer 1
10
194.495100
20
142.218700
70
0
0
VERTEX
8
Layer 1
10
194.487500
20
142.257000
70
0
0
VERTEX
8
Layer 1
10
194.487500
20
142.457000
70
0
0
SEQEND
8
Layer 1
0
POLYLINE
8
Layer 1
62
7
70
1
10
0.000000
20
0.000000
66
1
0
VERTEX
8
Layer 1
10
194.487500
20
143.107000
70
0
0
VERTEX
8
Layer 1
10
194.495100
20
143.145300
70
0
0
VERTEX
8
Layer 1
10
194.516800
20
143.177700
70
0
0
VERTEX
8
Layer 1
10
194.549200
20
143.199400
70
0
0
VERTEX
8
Layer 1
10
194.587500
20
143.207000
70
0
0
VERTEX
8
Layer 1
10
195.862500
20
143.207000
70
0
0
VERTEX
8
Layer 1
10
195.900800
20
143.199400
70
0
0
VERTEX
8
Layer 1
10
195.933200
20
143.177700
70
0
0
VERTEX
8
Layer 1
10
195.954900
20
143.145300
70
0
0
VERTEX
8
Layer 1
10
195.962500
20
143.107000
70
0
0
VERTEX
8
Layer 1
10
195.962500
20
142.907000
70
0
0
VERTEX
8
Layer 1
10
195.954900
20
142.868700
70
0
0
VERTEX
8
Layer 1
10
195.933200
20
142.836300
70
0
0
VERTEX
8
Layer 1
10
195.900800
20
142.814600
70
0
0
VERTEX
8
Layer 1
10
195.862500
20
142.807000
70
0
0
VERTEX
8
Layer 1
10
194.587500
20
142.807000
70
0
0
VERTEX
8
Layer 1
10
194.549200
20
142.814600
70
0
0
VERTEX
8
Layer 1
10
194.516800
20
142.836300
70
0
0
VERTEX
8
Layer 1
10
194.495100
20
142.868700
70
0
0
VERTEX
8
Layer 1
10
194.487500
20
142.907000
70
0
0
VERTEX
8
Layer 1
10
194.487500
20
143.107000
70
0
0
SEQEND
8
Layer 1
0
POLYLINE
8
Layer 1
62
170
70
0
10
0.000000
20
0.000000
66
1
0
VERTEX
8
Layer 1
10
53.181250
20
46.394500
70
0
0
VERTEX
8
Layer 1
10
53.188850
20
46.432800
70
0
0
VERTEX
8
Layer 1
10
53.210550
20
46.465200
70
0
0
VERTEX
8
Layer 1
10
53.242950
20
46.486900
70
0
0
VERTEX
8
Layer 1
10
53.281250
20
46.494500
70
0
0
VERTEX
8
Layer 1
10
54.556250
20
46.494500
70
0
0
VERTEX
8
Layer 1
10
54.594550
20
46.486900
70
0
0
VERTEX
8
Layer 1
10
54.626950
20
46.465200
70
0
0
VERTEX
8
Layer 1
10
54.648650
20
46.432800
70
0
0
VERTEX
8
Layer 1
10
54.656250
20
46.394500
70
0
0
VERTEX
8
Layer 1
10
54.656250
20
46.194500
70
0
0
VERTEX
8
Layer 1
10
54.648650
20
46.156200
70
0
0
VERTEX
8
Layer 1
10
54.626950
20
46.123800
70
0
0
VERTEX
8
Layer 1
10
54.594550
20
46.102100
70
0
0
VERTEX
8
Layer 1
10
54.556250
20
46.094500
70
0
0
VERTEX
8
Layer 1
10
53.281250
20
46.094500
70
0
0
VERTEX
8
Layer 1
10
53.242950
20
46.102100
70
0
0
VERTEX
8
Layer 1
10
53.210550
20
46.123800
70
0
0
VERTEX
8
Layer 1
10
53.188850
20
46.156200
70
0
0
VERTEX
8
Layer 1
10
53.181250
20
46.194500
70
0
0
VERTEX
8
Layer 1
10
53.181250
20
46.394500
70
0
0
SEQEND
8
Layer 1
0
POLYLINE
8
Layer 1
62
170
70
0
10
0.000000
20
0.000000
66
1
0
VERTEX
8
Layer 1
10
53.181250
20
45.744500
70
0
0
VERTEX
8
Layer 1
10
53.188850
20
45.782800
70
0
0
VERTEX
8
Layer 1
10
53.210550
20
45.815200
70
0
0
VERTEX
8
Layer 1
10
53.242950
20
45.836900
70
0
0
VERTEX
8
Layer 1
10
53.281250
20
45.844500
70
0
0
VERTEX
8
Layer 1
10
54.556250
20
45.844500
70
0
0
VERTEX
8
Layer 1
10
54.594550
20
45.836900
70
0
0
VERTEX
8
Layer 1
10
54.626950
20
45.815200
70
0
0
VERTEX
8
Layer 1
10
54.648650
20
45.782800
70
0
0
VERTEX
8
Layer 1
10
54.656250
20
45.744500
70
0
0
VERTEX
8
Layer 1
10
54.656250
20
45.544500
70
0
0
VERTEX
8
Layer 1
10
54.648650
20
45.506200
70
0
0
VERTEX
8
Layer 1
10
54.626950
20
45.473800
70
0
0
VERTEX
8
Layer 1
10
54.594550
20
45.452100
70
0
0
VERTEX
8
Layer 1
10
54.556250
20
45.444500
70
0
0
VERTEX
8
Layer 1
10
53.281250
20
45.444500
70
0
0
VERTEX
8
Layer 1
10
53.242950
20
45.452100
70
0
0
VERTEX
8
Layer 1
10
53.210550
20
45.473800
70
0
0
VERTEX
8
Layer 1
10
53.188850
20
45.506200
70
0
0
VERTEX
8
Layer 1
10
53.181250
20
45.544500
70
0
0
VERTEX
8
Layer 1
10
53.181250
20
45.744500
70
0
0
SEQEND
8
Layer 1
0
POLYLINE
8
Layer 1
62
170
70
0
10
0.000000
20
0.000000
66
1
0
VERTEX
8
Layer 1
10
53.181250
20
45.094500
70
0
0
VERTEX
8
Layer 1
10
53.188850
20
45.132800
70
0
0
VERTEX
8
Layer 1
10
53.210550
20
45.165200
70
0
0
VERTEX
8
Layer 1
10
53.242950
20
45.186900
70
0
0
VERTEX
8
Layer 1
10
53.281250
20
45.194500
70
0
0
VERTEX
8
Layer 1
10
54.556250
20
45.194500
70
0
0
VERTEX
8
Layer 1
10
54.594550
20
45.186900
70
0
0
VERTEX
8
Layer 1
10
54.626950
20
45.165200
70
0
0
VERTEX
8
Layer 1
10
54.648650
20
45.132800
70
0
0
VERTEX
8
Layer 1
10
54.656250
20
45.094500
70
0
0
VERTEX
8
Layer 1
10
54.656250
20
44.894500
70
0
0
VERTEX
8
Layer 1
10
54.648650
20
44.856200
70
0
0
VERTEX
8
Layer 1
10
54.626950
20
44.823800
70
0
0
VERTEX
8
Layer 1
10
54.594550
20
44.802100
70
0
0
VERTEX
8
Layer 1
10
54.556250
20
44.794500
70
0
0
VERTEX
8
Layer 1
10
53.281250
20
44.794500
70
0
0
VERTEX
8
Layer 1
10
53.242950
20
44.802100
70
0
0
VERTEX
8
Layer 1
10
53.210550
20
44.823800
70
0
0
VERTEX
8
Layer 1
10
53.188850
20
44.856200
70
0
0
VERTEX
8
Layer 1
10
53.181250
20
44.894500
70
0
0
VERTEX
8
Layer 1
10
53.181250
20
45.094500
70
0
0
SEQEND
8
Layer 1
0
POLYLINE
8
Layer 1
62
170
70
0
10
0.000000
20
0.000000
66
1
0
VERTEX
8
Layer 1
10
53.181250
20
44.444500
70
0
0
VERTEX
8
Layer 1
10
53.188850
20
44.482800
70
0
0
VERTEX
8
Layer 1
10
53.210550
20
44.515200
70
0
0
VERTEX
8
Layer 1
10
53.242950
20
44.536900
70
0
0
VERTEX
8
Layer 1
10
53.281250
20
44.544500
70
0
0
VERTEX
8
Layer 1
10
54.556250
20
44.544500
70
0
0
VERTEX
8
Layer 1
10
54.594550
20
44.536900
70
0
0
VERTEX
8
Layer 1
10
54.626950
20
44.515200
70
0
0
VERTEX
8
Layer 1
10
54.648650
20
44.482800
70
0
0
VERTEX
8
Layer 1
10
54.656250
20
44.444500
70
0
0
VERTEX
8
Layer 1
10
54.656250
20
44.244500
70
0
0
VERTEX
8
Layer 1
10
54.648650
20
44.206200
70
0
0
VERTEX
8
Layer 1
10
54.626950
20
44.173800
70
0
0
VERTEX
8
Layer 1
10
54.594550
20
44.152100
70
0
0
VERTEX
8
Layer 1
10
54.556250
20
44.144500
70
0
0
VERTEX
8
Layer 1
10
53.281250
20
44.144500
70
0
0
VERTEX
8
Layer 1
10
53.242950
20
44.152100
70
0
0
VERTEX
8
Layer 1
10
53.210550
20
44.173800
70
0
0
VERTEX
8
Layer 1
10
53.188850
20
44.206200
70
0
0
VERTEX
8
Layer 1
10
53.181250
20
44.244500
70
0
0
VERTEX
8
Layer 1
10
53.181250
20
44.444500
70
0
0
SEQEND
8
Layer 1
0
POLYLINE
8
Layer 1
62
170
70
0
10
0.000000
20
0.000000
66
1
0
VERTEX
8
Layer 1
10
53.181250
20
43.794500
70
0
0
VERTEX
8
Layer 1
10
53.188850
20
43.832800
70
0
0
VERTEX
8
Layer 1
10
53.210550
20
43.865200
70
0
0
VERTEX
8
Layer 1
10
53.242950
20
43.886900
70
0
0
VERTEX
8
Layer 1
10
53.281250
20
43.894500
70
0
0
VERTEX
8
Layer 1
10
54.556250
20
43.894500
70
0
0
VERTEX
8
Layer 1
10
54.594550
20
43.886900
70
0
0
VERTEX
8
Layer 1
10
54.626950
20
43.865200
70
0
0
VERTEX
8
Layer 1
10
54.648650
20
43.832800
70
0
0
VERTEX
8
Layer 1
10
54.656250
20
43.794500
70
0
0
VERTEX
8
Layer 1
10
54.656250
20
43.594500
70
0
0
VERTEX
8
Layer 1
10
54.648650
20
43.556200
70
0
0
VERTEX
8
Layer 1
10
54.626950
20
43.523800
70
0
0
VERTEX
8
Layer 1
10
54.594550
20
43.502100
70
0
0
VERTEX
8
Layer 1
10
54.556250
20
43.494500
70
0
0
VERTEX
8
Layer 1
10
53.281250
20
43.494500
70
0
0
VERTEX
8
Layer 1
10
53.242950
20
43.502100
70
0
0
VERTEX
8
Layer 1
10
53.210550
20
43.523800
70
0
0
VERTEX
8
Layer 1
10
53.188850
20
43.556200
70
0
0
VERTEX
8
Layer 1
10
53.181250
20
43.594500
70
0
0
VERTEX
8
Layer 1
10
53.181250
20
43.794500
70
0
0
SEQEND
8
Layer 1
0
POLYLINE
8
Layer 1
62
170
70
0
10
0.000000
20
0.000000
66
1
0
VERTEX
8
Layer 1
10
53.181250
20
43.144500
70
0
0
VERTEX
8
Layer 1
10
53.188850
20
43.182800
70
0
0
VERTEX
8
Layer 1
10
53.210550
20
43.215200
70
0
0
VERTEX
8
Layer 1
10
53.242950
20
43.236900
70
0
0
VERTEX
8
Layer 1
10
53.281250
20
43.244500
70
0
0
VERTEX
8
Layer 1
10
54.556250
20
43.244500
70
0
0
VERTEX
8
Layer 1
10
54.594550
20
43.236900
70
0
0
VERTEX
8
Layer 1
10
54.626950
20
43.215200
70
0
0
VERTEX
8
Layer 1
10
54.648650
20
43.182800
70
0
0
VERTEX
8
Layer 1
10
54.656250
20
43.144500
70
0
0
VERTEX
8
Layer 1
10
54.656250
20
42.944500
70
0
0
VERTEX
8
Layer 1
10
54.648650
20
42.906200
70
0
0
VERTEX
8
Layer 1
10
54.626950
20
42.873800
70
0
0
VERTEX
8
Layer 1
10
54.594550
20
42.852100
70
0
0
VERTEX
8
Layer 1
10
54.556250
20
42.844500
70
0
0
VERTEX
8
Layer 1
10
53.281250
20
42.844500
70
0
0
VERTEX
8
Layer 1
10
53.242950
20
42.852100
70
0
0
VERTEX
8
Layer 1
10
53.210550
20
42.873800
70
0
0
VERTEX
8
Layer 1
10
53.188850
20
42.906200
70
0
0
VERTEX
8
Layer 1
10
53.181250
20
42.944500
70
0
0
VERTEX
8
Layer 1
10
53.181250
20
43.144500
70
0
0
SEQEND
8
Layer 1
0
POLYLINE
8
Layer 1
62
170
70
0
10
0.000000
20
0.000000
66
1
0
VERTEX
8
Layer 1
10
53.181250
20
42.494500
70
0
0
VERTEX
8
Layer 1
10
53.188850
20
42.532800
70
0
0
VERTEX
8
Layer 1
10
53.210550
20
42.565200
70
0
0
VERTEX
8
Layer 1
10
53.242950
20
42.586900
70
0
0
VERTEX
8
Layer 1
10
53.281250
20
42.594500
70
0
0
VERTEX
8
Layer 1
10
54.556250
20
42.594500
70
0
0
VERTEX
8
Layer 1
10
54.594550
20
42.586900
70
0
0
VERTEX
8
Layer 1
10
54.626950
20
42.565200
70
0
0
VERTEX
8
Layer 1
10
54.648650
20
42.532800
70
0
0
VERTEX
8
Layer 1
10
54.656250
20
42.494500
70
0
0
VERTEX
8
Layer 1
10
54.656250
20
42.294500
70
0
0
VERTEX
8
Layer 1
10
54.648650
20
42.256200
70
0
0
VERTEX
8
Layer 1
10
54.626950
20
42.223800
70
0
0
VERTEX
8
Layer 1
10
54.594550
20
42.202100
70
0
0
VERTEX
8
Layer 1
10
54.556250
20
42.194500
70
0
0
VERTEX
8
Layer 1
10
53.281250
20
42.194500
70
0
0
VERTEX
8
Layer 1
10
53.242950
20
42.202100
70
0
0
VERTEX
8
Layer 1
10
53.210550
20
42.223800
70
0
0
VERTEX
8
Layer 1
10
53.188850
20
42.256200
70
0
0
VERTEX
8
Layer 1
10
53.181250
20
42.294500
70
0
0
VERTEX
8
Layer 1
10
53.181250
20
42.494500
70
0
0
SEQEND
8
Layer 1
0
POLYLINE
8
Layer 1
62
170
70
0
10
0.000000
20
0.000000
66
1
0
VERTEX
8
Layer 1
10
53.181250
20
41.844500
70
0
0
VERTEX
8
Layer 1
10
53.188850
20
41.882800
70
0
0
VERTEX
8
Layer 1
10
53.210550
20
41.915200
70
0
0
VERTEX
8
Layer 1
10
53.242950
20
41.936900
70
0
0
VERTEX
8
Layer 1
10
53.281250
20
41.944500
70
0
0
VERTEX
8
Layer 1
10
54.556250
20
41.944500
70
0
0
VERTEX
8
Layer 1
10
54.594550
20
41.936900
70
0
0
VERTEX
8
Layer 1
10
54.626950
20
41.915200
70
0
0
VERTEX
8
Layer 1
10
54.648650
20
41.882800
70
0
0
VERTEX
8
Layer 1
10
54.656250
20
41.844500
70
0
0
VERTEX
8
Layer 1
10
54.656250
20
41.644500
70
0
0
VERTEX
8
Layer 1
10
54.648650
20
41.606200
70
0
0
VERTEX
8
Layer 1
10
54.626950
20
41.573800
70
0
0
VERTEX
8
Layer 1
10
54.594550
20
41.552100
70
0
0
VERTEX
8
Layer 1
10
54.556250
20
41.544500
70
0
0
VERTEX
8
Layer 1
10
53.281250
20
41.544500
70
0
0
VERTEX
8
Layer 1
10
53.242950
20
41.552100
70
0
0
VERTEX
8
Layer 1
10
53.210550
20
41.573800
70
0
0
VERTEX
8
Layer 1
10
53.188850
20
41.606200
70
0
0
VERTEX
8
Layer 1
10
53.181250
20
41.644500
70
0
0
VERTEX
8
Layer 1
10
53.181250
20
41.844500
70
0
0
SEQEND
8
Layer 1
0
POLYLINE
8
Layer 1
62
170
70
0
10
0.000000
20
0.000000
66
1
0
VERTEX
8
Layer 1
10
58.906250
20
41.844500
70
0
0
VERTEX
8
Layer 1
10
58.913850
20
41.882800
70
0
0
VERTEX
8
Layer 1
10
58.935550
20
41.915200
70
0
0
VERTEX
8
Layer 1
10
58.967950
20
41.936900
70
0
0
VERTEX
8
Layer 1
10
59.006250
20
41.944500
70
0
0
VERTEX
8
Layer 1
10
60.281250
20
41.944500
70
0
0
VERTEX
8
Layer 1
10
60.319550
20
41.936900
70
0
0
VERTEX
8
Layer 1
10
60.351950
20
41.915200
70
0
0
VERTEX
8
Layer 1
10
60.373650
20
41.882800
70
0
0
VERTEX
8
Layer 1
10
60.381250
20
41.844500
70
0
0
VERTEX
8
Layer 1
10
60.381250
20
41.644500
70
0
0
VERTEX
8
Layer 1
10
60.373650
20
41.606200
70
0
0
VERTEX
8
Layer 1
10
60.351950
20
41.573800
70
0
0
VERTEX
8
Layer 1
10
60.319550
20
41.552100
70
0
0
VERTEX
8
Layer 1
10
60.281250
20
41.544500
70
0
0
VERTEX
8
Layer 1
10
59.006250
20
41.544500
70
0
0
VERTEX
8
Layer 1
10
58.967950
20
41.552100
70
0
0
VERTEX
8
Layer 1
10
58.935550
20
41.573800
70
0
0
VERTEX
8
Layer 1
10
58.913850
20
41.606200
70
0
0
VERTEX
8
Layer 1
10
58.906250
20
41.644500
70
0
0
VERTEX
8
Layer 1
10
58.906250
20
41.844500
70
0
0
SEQEND
8
Layer 1
0
POLYLINE
8
Layer 1
62
170
70
0
10
0.000000
20
0.000000
66
1
0
VERTEX
8
Layer 1
10
58.906250
20
42.494500
70
0
0
VERTEX
8
Layer 1
10
58.913850
20
42.532800
70
0
0
VERTEX
8
Layer 1
10
58.935550
20
42.565200
70
0
0
VERTEX
8
Layer 1
10
58.967950
20
42.586900
70
0
0
VERTEX
8
Layer 1
10
59.006250
20
42.594500
70
0
0
VERTEX
8
Layer 1
10
60.281250
20
42.594500
70
0
0
VERTEX
8
Layer 1
10
60.319550
20
42.586900
70
0
0
VERTEX
8
Layer 1
10
60.351950
20
42.565200
70
0
0
VERTEX
8
Layer 1
10
60.373650
20
42.532800
70
0
0
VERTEX
8
Layer 1
10
60.381250
20
42.494500
70
0
0
VERTEX
8
Layer 1
10
60.381250
20
42.294500
70
0
0
VERTEX
8
Layer 1
10
60.373650
20
42.256200
70
0
0
VERTEX
8
Layer 1
10
60.351950
20
42.223800
70
0
0
VERTEX
8
Layer 1
10
60.319550
20
42.202100
70
0
0
VERTEX
8
Layer 1
10
60.281250
20
42.194500
70
0
0
VERTEX
8
Layer 1
10
59.006250
20
42.194500
70
0
0
VERTEX
8
Layer 1
10
58.967950
20
42.202100
70
0
0
VERTEX
8
Layer 1
10
58.935550
20
42.223800
70
0
0
VERTEX
8
Layer 1
10
58.913850
20
42.256200
70
0
0
VERTEX
8
Layer 1
10
58.906250
20
42.294500
70
0
0
VERTEX
8
Layer 1
10
58.906250
20
42.494500
70
0
0
SEQEND
8
Layer 1
0
POLYLINE
8
Layer 1
62
170
70
0
10
0.000000
20
0.000000
66
1
0
VERTEX
8
Layer 1
10
58.906250
20
43.144500
70
0
0
VERTEX
8
Layer 1
10
58.913850
20
43.182800
70
0
0
VERTEX
8
Layer 1
10
58.935550
20
43.215200
70
0
0
VERTEX
8
Layer 1
10
58.967950
20
43.236900
70
0
0
VERTEX
8
Layer 1
10
59.006250
20
43.244500
70
0
0
VERTEX
8
Layer 1
10
60.281250
20
43.244500
70
0
0
VERTEX
8
Layer 1
10
60.319550
20
43.236900
70
0
0
VERTEX
8
Layer 1
10
60.351950
20
43.215200
70
0
0
VERTEX
8
Layer 1
10
60.373650
20
43.182800
70
0
0
VERTEX
8
Layer 1
10
60.381250
20
43.144500
70
0
0
VERTEX
8
Layer 1
10
60.381250
20
42.944500
70
0
0
VERTEX
8
Layer 1
10
60.373650
20
42.906200
70
0
0
VERTEX
8
Layer 1
10
60.351950
20
42.873800
70
0
0
VERTEX
8
Layer 1
10
60.319550
20
42.852100
70
0
0
VERTEX
8
Layer 1
10
60.281250
20
42.844500
70
0
0
VERTEX
8
Layer 1
10
59.006250
20
42.844500
70
0
0
VERTEX
8
Layer 1
10
58.967950
20
42.852100
70
0
0
VERTEX
8
Layer 1
10
58.935550
20
42.873800
70
0
0
VERTEX
8
Layer 1
10
58.913850
20
42.906200
70
0
0
VERTEX
8
Layer 1
10
58.906250
20
42.944500
70
0
0
VERTEX
8
Layer 1
10
58.906250
20
43.144500
70
0
0
SEQEND
8
Layer 1
0
POLYLINE
8
Layer 1
62
170
70
0
10
0.000000
20
0.000000
66
1
0
VERTEX
8
Layer 1
10
58.906250
20
43.794500
70
0
0
VERTEX
8
Layer 1
10
58.913850
20
43.832800
70
0
0
VERTEX
8
Layer 1
10
58.935550
20
43.865200
70
0
0
VERTEX
8
Layer 1
10
58.967950
20
43.886900
70
0
0
VERTEX
8
Layer 1
10
59.006250
20
43.894500
70
0
0
VERTEX
8
Layer 1
10
60.281250
20
43.894500
70
0
0
VERTEX
8
Layer 1
10
60.319550
20
43.886900
70
0
0
VERTEX
8
Layer 1
10
60.351950
20
43.865200
70
0
0
VERTEX
8
Layer 1
10
60.373650
20
43.832800
70
0
0
VERTEX
8
Layer 1
10
60.381250
20
43.794500
70
0
0
VERTEX
8
Layer 1
10
60.381250
20
43.594500
70
0
0
VERTEX
8
Layer 1
10
60.373650
20
43.556200
70
0
0
VERTEX
8
Layer 1
10
60.351950
20
43.523800
70
0
0
VERTEX
8
Layer 1
10
60.319550
20
43.502100
70
0
0
VERTEX
8
Layer 1
10
60.281250
20
43.494500
70
0
0
VERTEX
8
Layer 1
10
59.006250
20
43.494500
70
0
0
VERTEX
8
Layer 1
10
58.967950
20
43.502100
70
0
0
VERTEX
8
Layer 1
10
58.935550
20
43.523800
70
0
0
VERTEX
8
Layer 1
10
58.913850
20
43.556200
70
0
0
VERTEX
8
Layer 1
10
58.906250
20
43.594500
70
0
0
VERTEX
8
Layer 1
10
58.906250
20
43.794500
70
0
0
SEQEND
8
Layer 1
0
POLYLINE
8
Layer 1
62
170
70
0
10
0.000000
20
0.000000
66
1
0
VERTEX
8
Layer 1
10
58.906250
20
44.444500
70
0
0
VERTEX
8
Layer 1
10
58.913850
20
44.482800
70
0
0
VERTEX
8
Layer 1
10
58.935550
20
44.515200
70
0
0
VERTEX
8
Layer 1
10
58.967950
20
44.536900
70
0
0
VERTEX
8
Layer 1
10
59.006250
20
44.544500
70
0
0
VERTEX
8
Layer 1
10
60.281250
20
44.544500
70
0
0
VERTEX
8
Layer 1
10
60.319550
20
44.536900
70
0
0
VERTEX
8
Layer 1
10
60.351950
20
44.515200
70
0
0
VERTEX
8
Layer 1
10
60.373650
20
44.482800
70
0
0
VERTEX
8
Layer 1
10
60.381250
20
44.444500
70
0
0
VERTEX
8
Layer 1
10
60.381250
20
44.244500
70
0
0
VERTEX
8
Layer 1
10
60.373650
20
44.206200
70
0
0
VERTEX
8
Layer 1
10
60.351950
20
44.173800
70
0
0
VERTEX
8
Layer 1
10
60.319550
20
44.152100
70
0
0
VERTEX
8
Layer 1
10
60.281250
20
44.144500
70
0
0
VERTEX
8
Layer 1
10
59.006250
20
44.144500
70
0
0
VERTEX
8
Layer 1
10
58.967950
20
44.152100
70
0
0
VERTEX
8
Layer 1
10
58.935550
20
44.173800
70
0
0
VERTEX
8
Layer 1
10
58.913850
20
44.206200
70
0
0
VERTEX
8
Layer 1
10
58.906250
20
44.244500
70
0
0
VERTEX
8
Layer 1
10
58.906250
20
44.444500
70
0
0
SEQEND
8
Layer 1
0
POLYLINE
8
Layer 1
62
170
70
0
10
0.000000
20
0.000000
66
1
0
VERTEX
8
Layer 1
10
58.906250
20
45.094500
70
0
0
VERTEX
8
Layer 1
10
58.913850
20
45.132800
70
0
0
VERTEX
8
Layer 1
10
58.935550
20
45.165200
70
0
0
VERTEX
8
Layer 1
10
58.967950
20
45.186900
70
0
0
VERTEX
8
Layer 1
10
59.006250
20
45.194500
70
0
0
VERTEX
8
Layer 1
10
60.281250
20
45.194500
70
0
0
VERTEX
8
Layer 1
10
60.319550
20
45.186900
70
0
0
VERTEX
8
Layer 1
10
60.351950
20
45.165200
70
0
0
VERTEX
8
Layer 1
10
60.373650
20
45.132800
70
0
0
VERTEX
8
Layer 1
10
60.381250
20
45.094500
70
0
0
VERTEX
8
Layer 1
10
60.381250
20
44.894500
70
0
0
VERTEX
8
Layer 1
10
60.373650
20
44.856200
70
0
0
VERTEX
8
Layer 1
10
60.351950
20
44.823800
70
0
0
VERTEX
8
Layer 1
10
60.319550
20
44.802100
70
0
0
VERTEX
8
Layer 1
10
60.281250
20
44.794500
70
0
0
VERTEX
8
Layer 1
10
59.006250
20
44.794500
70
0
0
VERTEX
8
Layer 1
10
58.967950
20
44.802100
70
0
0
VERTEX
8
Layer 1
10
58.935550
20
44.823800
70
0
0
VERTEX
8
Layer 1
10
58.913850
20
44.856200
70
0
0
VERTEX
8
Layer 1
10
58.906250
20
44.894500
70
0
0
VERTEX
8
Layer 1
10
58.906250
20
45.094500
70
0
0
SEQEND
8
Layer 1
0
POLYLINE
8
Layer 1
62
170
70
0
10
0.000000
20
0.000000
66
1
0
VERTEX
8
Layer 1
10
58.906250
20
45.744500
70
0
0
VERTEX
8
Layer 1
10
58.913850
20
45.782800
70
0
0
VERTEX
8
Layer 1
10
58.935550
20
45.815200
70
0
0
VERTEX
8
Layer 1
10
58.967950
20
45.836900
70
0
0
VERTEX
8
Layer 1
10
59.006250
20
45.844500
70
0
0
VERTEX
8
Layer 1
10
60.281250
20
45.844500
70
0
0
VERTEX
8
Layer 1
10
60.319550
20
45.836900
70
0
0
VERTEX
8
Layer 1
10
60.351950
20
45.815200
70
0
0
VERTEX
8
Layer 1
10
60.373650
20
45.782800
70
0
0
VERTEX
8
Layer 1
10
60.381250
20
45.744500
70
0
0
VERTEX
8
Layer 1
10
60.381250
20
45.544500
70
0
0
VERTEX
8
Layer 1
10
60.373650
20
45.506200
70
0
0
VERTEX
8
Layer 1
10
60.351950
20
45.473800
70
0
0
VERTEX
8
Layer 1
10
60.319550
20
45.452100
70
0
0
VERTEX
8
Layer 1
10
60.281250
20
45.444500
70
0
0
VERTEX
8
Layer 1
10
59.006250
20
45.444500
70
0
0
VERTEX
8
Layer 1
10
58.967950
20
45.452100
70
0
0
VERTEX
8
Layer 1
10
58.935550
20
45.473800
70
0
0
VERTEX
8
Layer 1
10
58.913850
20
45.506200
70
0
0
VERTEX
8
Layer 1
10
58.906250
20
45.544500
70
0
0
VERTEX
8
Layer 1
10
58.906250
20
45.744500
70
0
0
SEQEND
8
Layer 1
0
POLYLINE
8
Layer 1
62
170
70
0
10
0.000000
20
0.000000
66
1
0
VERTEX
8
Layer 1
10
58.906250
20
46.394500
70
0
0
VERTEX
8
Layer 1
10
58.913850
20
46.432800
70
0
0
VERTEX
8
Layer 1
10
58.935550
20
46.465200
70
0
0
VERTEX
8
Layer 1
10
58.967950
20
46.486900
70
0
0
VERTEX
8
Layer 1
10
59.006250
20
46.494500
70
0
0
VERTEX
8
Layer 1
10
60.281250
20
46.494500
70
0
0
VERTEX
8
Layer 1
10
60.319550
20
46.486900
70
0
0
VERTEX
8
Layer 1
10
60.351950
20
46.465200
70
0
0
VERTEX
8
Layer 1
10
60.373650
20
46.432800
70
0
0
VERTEX
8
Layer 1
10
60.381250
20
46.394500
70
0
0
VERTEX
8
Layer 1
10
60.381250
20
46.194500
70
0
0
VERTEX
8
Layer 1
10
60.373650
20
46.156200
70
0
0
VERTEX
8
Layer 1
10
60.351950
20
46.123800
70
0
0
VERTEX
8
Layer 1
10
60.319550
20
46.102100
70
0
0
VERTEX
8
Layer 1
10
60.281250
20
46.094500
70
0
0
VERTEX
8
Layer 1
10
59.006250
20
46.094500
70
0
0
VERTEX
8
Layer 1
10
58.967950
20
46.102100
70
0
0
VERTEX
8
Layer 1
10
58.935550
20
46.123800
70
0
0
VERTEX
8
Layer 1
10
58.913850
20
46.156200
70
0
0
VERTEX
8
Layer 1
10
58.906250
20
46.194500
70
0
0
VERTEX
8
Layer 1
10
58.906250
20
46.394500
70
0
0
SEQEND
8
Layer 1
0
POLYLINE
8
Layer 1
62
7
70
1
10
0.000000
20
0.000000
66
1
0
VERTEX
8
Layer 1
10
187.540000
20
131.564500
70
0
0
VERTEX
8
Layer 1
10
187.540000
20
132.074500
70
0
0
VERTEX
8
Layer 1
10
188.240000
20
132.074500
70
0
0
VERTEX
8
Layer 1
10
188.240000
20
131.564500
70
0
0
VERTEX
8
Layer 1
10
187.540000
20
131.564500
70
0
0
SEQEND
8
Layer 1
0
POLYLINE
8
Layer 1
62
7
70
1
10
0.000000
20
0.000000
66
1
0
VERTEX
8
Layer 1
10
187.540000
20
130.614500
70
0
0
VERTEX
8
Layer 1
10
187.540000
20
131.124500
70
0
0
VERTEX
8
Layer 1
10
188.240000
20
131.124500
70
0
0
VERTEX
8
Layer 1
10
188.240000
20
130.614500
70
0
0
VERTEX
8
Layer 1
10
187.540000
20
130.614500
70
0
0
SEQEND
8
Layer 1
0
POLYLINE
8
Layer 1
62
7
70
1
10
0.000000
20
0.000000
66
1
0
VERTEX
8
Layer 1
10
187.540000
20
129.664500
70
0
0
VERTEX
8
Layer 1
10
187.540000
20
130.174500
70
0
0
VERTEX
8
Layer 1
10
188.240000
20
130.174500
70
0
0
VERTEX
8
Layer 1
10
188.240000
20
129.664500
70
0
0
VERTEX
8
Layer 1
10
187.540000
20
129.664500
70
0
0
SEQEND
8
Layer 1
0
POLYLINE
8
Layer 1
62
7
70
1
10
0.000000
20
0.000000
66
1
0
VERTEX
8
Layer 1
10
189.860000
20
129.664500
70
0
0
VERTEX
8
Layer 1
10
189.860000
20
130.174500
70
0
0
VERTEX
8
Layer 1
10
190.560000
20
130.174500
70
0
0
VERTEX
8
Layer 1
10
190.560000
20
129.664500
70
0
0
VERTEX
8
Layer 1
10
189.860000
20
129.664500
70
0
0
SEQEND
8
Layer 1
0
POLYLINE
8
Layer 1
62
7
70
1
10
0.000000
20
0.000000
66
1
0
VERTEX
8
Layer 1
10
189.860000
20
131.564500
70
0
0
VERTEX
8
Layer 1
10
189.860000
20
132.074500
70
0
0
VERTEX
8
Layer 1
10
190.560000
20
132.074500
70
0
0
VERTEX
8
Layer 1
10
190.560000
20
131.564500
70
0
0
VERTEX
8
Layer 1
10
189.860000
20
131.564500
70
0
0
SEQEND
8
Layer 1
 0 
ENDSEC
 0 
EOF