<?xml version="1.0" encoding="UTF-8" standalone="no"?>
<svg
   version="1.1"
   width="297.0022mm"
   height="210.0072mm"
   viewBox="0.0000 0.0000 297.0022 210.0072"
   id="svg246"
   sodipodi:docname="CanSat_2026-F_Cu.svg"
   xmlns:inkscape="http://www.inkscape.org/namespaces/inkscape"
   xmlns:sodipodi="http://sodipodi.sourceforge.net/DTD/sodipodi-0.dtd"
   xmlns="http://www.w3.org/2000/svg"
   xmlns:svg="http://www.w3.org/2000/svg">
  <defs
     id="defs246" />
  <sodipodi:namedview
     id="namedview246"
     pagecolor="#ffffff"
     bordercolor="#000000"
     borderopacity="0.25"
     inkscape:showpageshadow="2"
     inkscape:pageopacity="0.0"
     inkscape:pagecheckerboard="0"
     inkscape:deskcolor="#d1d1d1"
     inkscape:document-units="mm" />
  <title
     id="title1">SVG Image created as CanSat_2026-F_Cu.svg date 2026/04/09 00:33:47 </title>
  <desc
     id="desc1">Image generated by PCBNEW </desc>
  <g
     style="fill:#000000; fill-opacity:1.0000;stroke:#000000; stroke-opacity:1.0000; stroke-linecap:round; stroke-linejoin:round;"
     transform="translate(0 0) scale(1 1)"
     id="g1" />
  <g
     style="fill:#000000; fill-opacity:1.0000;  stroke:#000000; stroke-width:0.0212; stroke-opacity:1;  stroke-linecap:round; stroke-linejoin:round;"
     id="g2">
    <path
       id="rect1"
       d="m 118,-1.5 h 143 v 143 H 118 Z" />
    <path
       style="fill:#FFFFFF; fill-opacity:1.0000;  stroke:#FFFFFF; stroke-width:0.2000; stroke-opacity:1;  stroke-linecap:round; stroke-linejoin:round;fill-rule:evenodd;"
       d="M 173.0000,52.0000 175.0000,52.5000 174.5000,97.5000 169.5000,94.0000 164.0000,88.5000 160.5000,81.5000 158.0000,73.5000 158.0000,66.0000 161.0000,56.0000 164.7614,50.5000 Z"
       id="path1" />
    <path
       style="fill:#FFFFFF; fill-opacity:1.0000;  stroke:#FFFFFF; stroke-width:0.2000; stroke-opacity:1;  stroke-linecap:round; stroke-linejoin:round;fill-rule:evenodd;"
       d="M 220.0000,77.0000 218.0000,84.0000 214.0000,89.5000 210.0000,94.0000 205.5000,97.0000 198.5000,100.0000 207.0000,90.0000 211.0000,89.0000 211.2500,86.0000 214.5000,84.0000 214.5000,80.5000 215.2500,73.0000 220.5000,73.0000 Z"
       id="path2" />
  </g>
  <g
     style="fill:none;  stroke:#FFFFFF; stroke-width:33.0000; stroke-opacity:1;  stroke-linecap:round; stroke-linejoin:round;"
     id="g3">
    <path
       id="circle2"
       d="m 239.5,70 a 50,50 0 0 1 -50,50 50,50 0 0 1 -50,-50 50,50 0 0 1 50,-50 50,50 0 0 1 50,50 z" />
  </g>
  <g
     style="fill:none;  stroke:#FFFFFF; stroke-width:2.0000; stroke-opacity:1;  stroke-linecap:round; stroke-linejoin:round;"
     id="g23">
    <circle
       cx="189.5000"
       cy="70.0000"
       r="31.5000"
       id="circle3" />
    <path
       style="fill:#FFFFFF; fill-opacity:1.0000; stroke:none;fill-rule:evenodd;"
       d="M 188.7625,66.9000 188.7701,66.8617 188.7918,66.8293 188.8242,66.8076 188.8625,66.8000 190.1375,66.8000 190.1758,66.8076 190.2082,66.8293 190.2299,66.8617 190.2375,66.9000 190.2375,67.1000 190.2299,67.1383 190.2082,67.1707 190.1758,67.1924 190.1375,67.2000 188.8625,67.2000 188.8242,67.1924 188.7918,67.1707 188.7701,67.1383 188.7625,67.1000 Z"
       id="path3" />
    <path
       style="fill:#FFFFFF; fill-opacity:1.0000; stroke:none;fill-rule:evenodd;"
       d="M 188.7625,67.5500 188.7701,67.5117 188.7918,67.4793 188.8242,67.4576 188.8625,67.4500 190.1375,67.4500 190.1758,67.4576 190.2082,67.4793 190.2299,67.5117 190.2375,67.5500 190.2375,67.7500 190.2299,67.7883 190.2082,67.8207 190.1758,67.8424 190.1375,67.8500 188.8625,67.8500 188.8242,67.8424 188.7918,67.8207 188.7701,67.7883 188.7625,67.7500 Z"
       id="path4" />
    <path
       style="fill:#FFFFFF; fill-opacity:1.0000; stroke:none;fill-rule:evenodd;"
       d="M 188.7625,68.2000 188.7701,68.1617 188.7918,68.1293 188.8242,68.1076 188.8625,68.1000 190.1375,68.1000 190.1758,68.1076 190.2082,68.1293 190.2299,68.1617 190.2375,68.2000 190.2375,68.4000 190.2299,68.4383 190.2082,68.4707 190.1758,68.4924 190.1375,68.5000 188.8625,68.5000 188.8242,68.4924 188.7918,68.4707 188.7701,68.4383 188.7625,68.4000 Z"
       id="path5" />
    <path
       style="fill:#FFFFFF; fill-opacity:1.0000; stroke:none;fill-rule:evenodd;"
       d="M 188.7625,68.8500 188.7701,68.8117 188.7918,68.7793 188.8242,68.7576 188.8625,68.7500 190.1375,68.7500 190.1758,68.7576 190.2082,68.7793 190.2299,68.8117 190.2375,68.8500 190.2375,69.0500 190.2299,69.0883 190.2082,69.1207 190.1758,69.1424 190.1375,69.1500 188.8625,69.1500 188.8242,69.1424 188.7918,69.1207 188.7701,69.0883 188.7625,69.0500 Z"
       id="path6" />
    <path
       style="fill:#FFFFFF; fill-opacity:1.0000; stroke:none;fill-rule:evenodd;"
       d="M 188.7625,69.5000 188.7701,69.4617 188.7918,69.4293 188.8242,69.4076 188.8625,69.4000 190.1375,69.4000 190.1758,69.4076 190.2082,69.4293 190.2299,69.4617 190.2375,69.5000 190.2375,69.7000 190.2299,69.7383 190.2082,69.7707 190.1758,69.7924 190.1375,69.8000 188.8625,69.8000 188.8242,69.7924 188.7918,69.7707 188.7701,69.7383 188.7625,69.7000 Z"
       id="path7" />
    <path
       style="fill:#FFFFFF; fill-opacity:1.0000; stroke:none;fill-rule:evenodd;"
       d="M 188.7625,70.1500 188.7701,70.1117 188.7918,70.0793 188.8242,70.0576 188.8625,70.0500 190.1375,70.0500 190.1758,70.0576 190.2082,70.0793 190.2299,70.1117 190.2375,70.1500 190.2375,70.3500 190.2299,70.3883 190.2082,70.4207 190.1758,70.4424 190.1375,70.4500 188.8625,70.4500 188.8242,70.4424 188.7918,70.4207 188.7701,70.3883 188.7625,70.3500 Z"
       id="path8" />
    <path
       style="fill:#FFFFFF; fill-opacity:1.0000; stroke:none;fill-rule:evenodd;"
       d="M 188.7625,70.8000 188.7701,70.7617 188.7918,70.7293 188.8242,70.7076 188.8625,70.7000 190.1375,70.7000 190.1758,70.7076 190.2082,70.7293 190.2299,70.7617 190.2375,70.8000 190.2375,71.0000 190.2299,71.0383 190.2082,71.0707 190.1758,71.0924 190.1375,71.1000 188.8625,71.1000 188.8242,71.0924 188.7918,71.0707 188.7701,71.0383 188.7625,71.0000 Z"
       id="path9" />
    <path
       style="fill:#FFFFFF; fill-opacity:1.0000; stroke:none;fill-rule:evenodd;"
       d="M 188.7625,71.4500 188.7701,71.4117 188.7918,71.3793 188.8242,71.3576 188.8625,71.3500 190.1375,71.3500 190.1758,71.3576 190.2082,71.3793 190.2299,71.4117 190.2375,71.4500 190.2375,71.6500 190.2299,71.6883 190.2082,71.7207 190.1758,71.7424 190.1375,71.7500 188.8625,71.7500 188.8242,71.7424 188.7918,71.7207 188.7701,71.6883 188.7625,71.6500 Z"
       id="path10" />
    <path
       style="fill:#FFFFFF; fill-opacity:1.0000; stroke:none;fill-rule:evenodd;"
       d="M 194.4875,71.4500 194.4951,71.4117 194.5168,71.3793 194.5492,71.3576 194.5875,71.3500 195.8625,71.3500 195.9008,71.3576 195.9332,71.3793 195.9549,71.4117 195.9625,71.4500 195.9625,71.6500 195.9549,71.6883 195.9332,71.7207 195.9008,71.7424 195.8625,71.7500 194.5875,71.7500 194.5492,71.7424 194.5168,71.7207 194.4951,71.6883 194.4875,71.6500 Z"
       id="path11" />
    <path
       style="fill:#FFFFFF; fill-opacity:1.0000; stroke:none;fill-rule:evenodd;"
       d="M 194.4875,70.8000 194.4951,70.7617 194.5168,70.7293 194.5492,70.7076 194.5875,70.7000 195.8625,70.7000 195.9008,70.7076 195.9332,70.7293 195.9549,70.7617 195.9625,70.8000 195.9625,71.0000 195.9549,71.0383 195.9332,71.0707 195.9008,71.0924 195.8625,71.1000 194.5875,71.1000 194.5492,71.0924 194.5168,71.0707 194.4951,71.0383 194.4875,71.0000 Z"
       id="path12" />
    <path
       style="fill:#FFFFFF; fill-opacity:1.0000; stroke:none;fill-rule:evenodd;"
       d="M 194.4875,70.1500 194.4951,70.1117 194.5168,70.0793 194.5492,70.0576 194.5875,70.0500 195.8625,70.0500 195.9008,70.0576 195.9332,70.0793 195.9549,70.1117 195.9625,70.1500 195.9625,70.3500 195.9549,70.3883 195.9332,70.4207 195.9008,70.4424 195.8625,70.4500 194.5875,70.4500 194.5492,70.4424 194.5168,70.4207 194.4951,70.3883 194.4875,70.3500 Z"
       id="path13" />
    <path
       style="fill:#FFFFFF; fill-opacity:1.0000; stroke:none;fill-rule:evenodd;"
       d="M 194.4875,69.5000 194.4951,69.4617 194.5168,69.4293 194.5492,69.4076 194.5875,69.4000 195.8625,69.4000 195.9008,69.4076 195.9332,69.4293 195.9549,69.4617 195.9625,69.5000 195.9625,69.7000 195.9549,69.7383 195.9332,69.7707 195.9008,69.7924 195.8625,69.8000 194.5875,69.8000 194.5492,69.7924 194.5168,69.7707 194.4951,69.7383 194.4875,69.7000 Z"
       id="path14" />
    <path
       style="fill:#FFFFFF; fill-opacity:1.0000; stroke:none;fill-rule:evenodd;"
       d="M 194.4875,68.8500 194.4951,68.8117 194.5168,68.7793 194.5492,68.7576 194.5875,68.7500 195.8625,68.7500 195.9008,68.7576 195.9332,68.7793 195.9549,68.8117 195.9625,68.8500 195.9625,69.0500 195.9549,69.0883 195.9332,69.1207 195.9008,69.1424 195.8625,69.1500 194.5875,69.1500 194.5492,69.1424 194.5168,69.1207 194.4951,69.0883 194.4875,69.0500 Z"
       id="path15" />
    <path
       style="fill:#FFFFFF; fill-opacity:1.0000; stroke:none;fill-rule:evenodd;"
       d="M 194.4875,68.2000 194.4951,68.1617 194.5168,68.1293 194.5492,68.1076 194.5875,68.1000 195.8625,68.1000 195.9008,68.1076 195.9332,68.1293 195.9549,68.1617 195.9625,68.2000 195.9625,68.4000 195.9549,68.4383 195.9332,68.4707 195.9008,68.4924 195.8625,68.5000 194.5875,68.5000 194.5492,68.4924 194.5168,68.4707 194.4951,68.4383 194.4875,68.4000 Z"
       id="path16" />
    <path
       style="fill:#FFFFFF; fill-opacity:1.0000; stroke:none;fill-rule:evenodd;"
       d="M 194.4875,67.5500 194.4951,67.5117 194.5168,67.4793 194.5492,67.4576 194.5875,67.4500 195.8625,67.4500 195.9008,67.4576 195.9332,67.4793 195.9549,67.5117 195.9625,67.5500 195.9625,67.7500 195.9549,67.7883 195.9332,67.8207 195.9008,67.8424 195.8625,67.8500 194.5875,67.8500 194.5492,67.8424 194.5168,67.8207 194.4951,67.7883 194.4875,67.7500 Z"
       id="path17" />
    <path
       style="fill:#FFFFFF; fill-opacity:1.0000; stroke:none;fill-rule:evenodd;"
       d="M 194.4875,66.9000 194.4951,66.8617 194.5168,66.8293 194.5492,66.8076 194.5875,66.8000 195.8625,66.8000 195.9008,66.8076 195.9332,66.8293 195.9549,66.8617 195.9625,66.9000 195.9625,67.1000 195.9549,67.1383 195.9332,67.1707 195.9008,67.1924 195.8625,67.2000 194.5875,67.2000 194.5492,67.1924 194.5168,67.1707 194.4951,67.1383 194.4875,67.1000 Z"
       id="path18" />
    <path
       style="fill:#FFFFFF; fill-opacity:1.0000; stroke:none;fill-rule:evenodd;"
       d="M 187.5400,78.4425 187.5400,77.9325 188.2400,77.9325 188.2400,78.4425 Z"
       id="path19" />
    <path
       style="fill:#FFFFFF; fill-opacity:1.0000; stroke:none;fill-rule:evenodd;"
       d="M 187.5400,79.3925 187.5400,78.8825 188.2400,78.8825 188.2400,79.3925 Z"
       id="path20" />
    <path
       style="fill:#FFFFFF; fill-opacity:1.0000; stroke:none;fill-rule:evenodd;"
       d="M 187.5400,80.3425 187.5400,79.8325 188.2400,79.8325 188.2400,80.3425 Z"
       id="path21" />
    <path
       style="fill:#FFFFFF; fill-opacity:1.0000; stroke:none;fill-rule:evenodd;"
       d="M 189.8600,80.3425 189.8600,79.8325 190.5600,79.8325 190.5600,80.3425 Z"
       id="path22" />
    <path
       style="fill:#FFFFFF; fill-opacity:1.0000; stroke:none;fill-rule:evenodd;"
       d="M 189.8600,78.4425 189.8600,77.9325 190.5600,77.9325 190.5600,78.4425 Z"
       id="path23" />
  </g>
  <g
     style="fill:#FFFFFF; fill-opacity:1.0000; stroke:none;"
     id="g24">
    <circle
       cx="173.0000"
       cy="48.0000"
       r="0.8000"
       id="circle23" />
  </g>
  <g
     style="fill:#FFFFFF; fill-opacity:1.0000; stroke:none;"
     id="g25">
    <circle
       cx="173.0000"
       cy="53.0000"
       r="0.8000"
       id="circle24" />
  </g>
  <g
     style="fill:#FFFFFF; fill-opacity:1.0000; stroke:none;"
     id="g26">
    <circle
       cx="177.4500"
       cy="83.3700"
       r="0.7500"
       id="circle25" />
  </g>
  <g
     style="fill:#FFFFFF; fill-opacity:1.0000; stroke:none;"
     id="g27">
    <circle
       cx="182.2225"
       cy="87.7700"
       r="0.8500"
       id="circle26" />
  </g>
  <g
     style="fill:#FFFFFF; fill-opacity:1.0000; stroke:none;"
     id="g28">
    <circle
       cx="182.2225"
       cy="85.2300"
       r="0.8500"
       id="circle27" />
  </g>
  <g
     style="fill:#FFFFFF; fill-opacity:1.0000; stroke:none;"
     id="g29">
    <circle
       cx="182.2225"
       cy="82.6900"
       r="0.8500"
       id="circle28" />
  </g>
  <g
     style="fill:#FFFFFF; fill-opacity:1.0000; stroke:none;"
     id="g30">
    <circle
       cx="182.2225"
       cy="80.1500"
       r="0.8500"
       id="circle29" />
    <path
       style="fill:#FFFFFF; fill-opacity:1.0000; stroke:none;fill-rule:evenodd;"
       d="M 181.5275,76.5500 181.5275,74.8500 183.2275,74.8500 183.2275,76.5500 Z"
       id="path29" />
  </g>
  <g
     style="fill:#FFFFFF; fill-opacity:1.0000; stroke:none;"
     id="g31">
    <circle
       cx="182.3775"
       cy="73.1600"
       r="0.8500"
       id="circle30" />
  </g>
  <g
     style="fill:#FFFFFF; fill-opacity:1.0000; stroke:none;"
     id="g32">
    <circle
       cx="182.3775"
       cy="70.6200"
       r="0.8500"
       id="circle31" />
  </g>
  <g
     style="fill:#FFFFFF; fill-opacity:1.0000; stroke:none;"
     id="g33">
    <circle
       cx="182.3775"
       cy="68.0800"
       r="0.8500"
       id="circle32" />
  </g>
  <g
     style="fill:#FFFFFF; fill-opacity:1.0000; stroke:none;"
     id="g34">
    <circle
       cx="182.3775"
       cy="63.0000"
       r="0.8500"
       id="circle33" />
  </g>
  <g
     style="fill:#FFFFFF; fill-opacity:1.0000; stroke:none;"
     id="g35">
    <circle
       cx="167.5000"
       cy="75.0000"
       r="0.7500"
       id="circle34" />
  </g>
  <g
     style="fill:#FFFFFF; fill-opacity:1.0000; stroke:none;"
     id="g36">
    <circle
       cx="168.0000"
       cy="59.0000"
       r="0.7500"
       id="circle35" />
  </g>
  <g
     style="fill:#FFFFFF; fill-opacity:1.0000; stroke:none;"
     id="g37">
    <circle
       cx="189.8750"
       cy="38.6250"
       r="0.3000"
       id="circle36" />
  </g>
  <g
     style="fill:#FFFFFF; fill-opacity:1.0000; stroke:none;"
     id="g38">
    <circle
       cx="216.0000"
       cy="53.5000"
       r="0.3000"
       id="circle37" />
  </g>
  <g
     style="fill:#FFFFFF; fill-opacity:1.0000; stroke:none;"
     id="g39">
    <circle
       cx="193.0000"
       cy="78.0000"
       r="0.7500"
       id="circle38" />
  </g>
  <g
     style="fill:#FFFFFF; fill-opacity:1.0000; stroke:none;"
     id="g40">
    <circle
       cx="203.0000"
       cy="47.5000"
       r="0.7500"
       id="circle39" />
  </g>
  <g
     style="fill:#FFFFFF; fill-opacity:1.0000; stroke:none;"
     id="g41">
    <circle
       cx="205.0000"
       cy="46.0000"
       r="0.7500"
       id="circle40" />
  </g>
  <g
     style="fill:none;  stroke:#FFFFFF; stroke-width:1.5000; stroke-opacity:1;  stroke-linecap:round; stroke-linejoin:round;"
     id="g42">
    <path
       d="M202.5000 80.0000 L202.5000 65.0000 "
       id="path41" />
  </g>
  <g
     style="fill:none;  stroke:#FFFFFF; stroke-width:2.0000; stroke-opacity:1;  stroke-linecap:round; stroke-linejoin:round;"
     id="g43">
    <path
       d="M196.5000 96.5000 L180.5000 96.5000 "
       id="path42" />
  </g>
  <g
     style="fill:none;  stroke:#FFFFFF; stroke-width:1.5000; stroke-opacity:1;  stroke-linecap:round; stroke-linejoin:round;"
     id="g44">
    <path
       d="M202.5000 65.0000 L203.0000 64.5000 "
       id="path43" />
    <path
       d="M202.5000 80.0000 L203.5000 81.0000 "
       id="path44" />
  </g>
  <g
     style="fill:none;  stroke:#FFFFFF; stroke-width:2.0000; stroke-opacity:1;  stroke-linecap:round; stroke-linejoin:round;"
     id="g48">
    <path
       d="M203.5000 81.0000 L203.5000 89.5000 "
       id="path45" />
    <path
       d="M203.5000 89.5000 L196.5000 96.5000 "
       id="path46" />
    <path
       d="M180.5000 96.5000 L178.5000 94.5000 "
       id="path47" />
    <path
       d="M178.5000 94.5000 L178.5000 88.0000 "
       id="path48" />
  </g>
  <g
     style="fill:none;  stroke:#FFFFFF; stroke-width:1.5000; stroke-opacity:1;  stroke-linecap:round; stroke-linejoin:round;"
     id="g52">
    <path
       d="M205.0000 46.0000 L204.0000 45.0000 "
       id="path49" />
    <path
       d="M204.0000 45.0000 L196.5000 45.0000 "
       id="path50" />
    <path
       d="M196.5000 45.0000 L195.0000 46.5000 "
       id="path51" />
    <path
       d="M195.0000 46.5000 L195.0000 63.0000 "
       id="path52" />
  </g>
  <g
     style="fill:none;  stroke:#FFFFFF; stroke-width:1.0000; stroke-opacity:1;  stroke-linecap:round; stroke-linejoin:round;"
     id="g53">
    <path
       d="M171.5000 91.5000 L171.5000 96.0000 "
       id="path53" />
  </g>
  <g
     style="fill:none;  stroke:#FFFFFF; stroke-width:2.0000; stroke-opacity:1;  stroke-linecap:round; stroke-linejoin:round;"
     id="g56">
    <path
       d="M166.5000 63.0000 L166.5000 59.5000 "
       id="path54" />
    <path
       d="M166.5000 74.0000 L166.5000 63.0000 "
       id="path55" />
    <path
       d="M166.5000 59.5000 L173.0000 53.0000 "
       id="path56" />
  </g>
  <g
     style="fill:none;  stroke:#FFFFFF; stroke-width:1.0000; stroke-opacity:1;  stroke-linecap:round; stroke-linejoin:round;"
     id="g59">
    <path
       d="M177.4500 83.3700 L176.1300 83.3700 "
       id="path57" />
    <path
       d="M176.1300 83.3700 L171.5000 88.0000 "
       id="path58" />
    <path
       d="M171.5000 88.0000 L171.5000 91.5000 "
       id="path59" />
  </g>
  <g
     style="fill:none;  stroke:#FFFFFF; stroke-width:0.6000; stroke-opacity:1;  stroke-linecap:round; stroke-linejoin:round;"
     id="g67">
    <path
       d="M192.9865 79.0135 L192.4865 79.0135 "
       id="path60" />
    <path
       d="M189.0000 78.5135 L188.6740 78.1875 "
       id="path61" />
    <path
       d="M192.4865 79.0135 L192.4730 79.0000 "
       id="path62" />
    <path
       d="M192.4730 79.0000 L191.5000 79.0000 "
       id="path63" />
    <path
       d="M191.5000 79.0000 L191.1685 79.3315 "
       id="path64" />
    <path
       d="M191.1685 79.3315 L189.3315 79.3315 "
       id="path65" />
    <path
       d="M189.0000 79.0000 L189.0000 78.5135 "
       id="path66" />
    <path
       d="M189.3315 79.3315 L189.0000 79.0000 "
       id="path67" />
  </g>
  <g
     style="fill:none;  stroke:#FFFFFF; stroke-width:1.0000; stroke-opacity:1;  stroke-linecap:round; stroke-linejoin:round;"
     id="g68">
    <path
       d="M187.8900 80.3900 L188.0000 80.5000 "
       id="path68" />
  </g>
  <g
     style="fill:none;  stroke:#FFFFFF; stroke-width:0.2000; stroke-opacity:1;  stroke-linecap:round; stroke-linejoin:round;"
     id="g69">
    <path
       d="M187.8900 80.0875 L187.8900 80.3900 "
       id="path69" />
  </g>
  <g
     style="fill:none;  stroke:#FFFFFF; stroke-width:1.0000; stroke-opacity:1;  stroke-linecap:round; stroke-linejoin:round;"
     id="g70">
    <path
       d="M188.0000 80.5000 L187.5000 81.0000 "
       id="path70" />
  </g>
  <g
     style="fill:none;  stroke:#FFFFFF; stroke-width:0.2000; stroke-opacity:1;  stroke-linecap:round; stroke-linejoin:round;"
     id="g71">
    <path
       d="M187.5000 81.0000 L187.0000 81.0000 "
       id="path71" />
  </g>
  <g
     style="fill:none;  stroke:#FFFFFF; stroke-width:1.0000; stroke-opacity:1;  stroke-linecap:round; stroke-linejoin:round;"
     id="g76">
    <path
       d="M197.0000 72.5000 L197.0000 84.0000 "
       id="path72" />
    <path
       d="M197.0000 84.0000 L194.0000 87.0000 "
       id="path73" />
    <path
       d="M194.0000 87.0000 L186.0000 87.0000 "
       id="path74" />
    <path
       d="M186.0000 87.0000 L184.5000 85.5000 "
       id="path75" />
    <path
       d="M184.5000 85.5000 L182.4925 85.5000 "
       id="path76" />
  </g>
  <g
     style="fill:none;  stroke:#FFFFFF; stroke-width:0.4000; stroke-opacity:1;  stroke-linecap:round; stroke-linejoin:round;"
     id="g77">
    <path
       d="M189.5000 69.6000 L187.6000 69.6000 "
       id="path77" />
  </g>
  <g
     style="fill:none;  stroke:#FFFFFF; stroke-width:0.2000; stroke-opacity:1;  stroke-linecap:round; stroke-linejoin:round;"
     id="g78">
    <path
       d="M187.6000 69.6000 L187.5000 69.5000 "
       id="path78" />
  </g>
  <g
     style="fill:none;  stroke:#FFFFFF; stroke-width:0.4000; stroke-opacity:1;  stroke-linecap:round; stroke-linejoin:round;"
     id="g79">
    <path
       d="M195.2250 69.6000 L197.4000 69.6000 "
       id="path79" />
  </g>
  <g
     style="fill:none;  stroke:#FFFFFF; stroke-width:0.2000; stroke-opacity:1;  stroke-linecap:round; stroke-linejoin:round;"
     id="g80">
    <path
       d="M197.4000 69.6000 L197.5000 69.5000 "
       id="path80" />
  </g>
  <g
     style="fill:none;  stroke:#FFFFFF; stroke-width:0.4000; stroke-opacity:1;  stroke-linecap:round; stroke-linejoin:round;"
     id="g81">
    <path
       d="M189.5000 71.5500 L189.5000 72.0000 "
       id="path81" />
  </g>
  <g
     style="fill:none;  stroke:#FFFFFF; stroke-width:1.0000; stroke-opacity:1;  stroke-linecap:round; stroke-linejoin:round;"
     id="g87">
    <path
       d="M189.5000 72.0000 L189.1600 72.0000 "
       id="path82" />
    <path
       d="M189.1600 72.0000 L188.0000 73.1600 "
       id="path83" />
    <path
       d="M191.0000 67.0000 L189.5000 67.0000 "
       id="path84" />
    <path
       d="M191.0000 67.0000 L191.2990 67.2990 "
       id="path85" />
    <path
       d="M191.2990 67.2990 L191.2990 75.2010 "
       id="path86" />
    <path
       d="M191.2990 75.2010 L191.0000 75.5000 "
       id="path87" />
  </g>
  <g
     style="fill:none;  stroke:#FFFFFF; stroke-width:0.4000; stroke-opacity:1;  stroke-linecap:round; stroke-linejoin:round;"
     id="g88">
    <path
       d="M189.5000 67.6500 L189.5000 67.0000 "
       id="path88" />
  </g>
  <g
     style="fill:none;  stroke:#FFFFFF; stroke-width:1.0000; stroke-opacity:1;  stroke-linecap:round; stroke-linejoin:round;"
     id="g89">
    <path
       d="M195.2250 66.7250 L195.0000 66.5000 "
       id="path89" />
  </g>
  <g
     style="fill:none;  stroke:#FFFFFF; stroke-width:0.4000; stroke-opacity:1;  stroke-linecap:round; stroke-linejoin:round;"
     id="g90">
    <path
       d="M195.2250 67.0000 L195.2250 66.7250 "
       id="path90" />
  </g>
  <g
     style="fill:none;  stroke:#FFFFFF; stroke-width:1.0000; stroke-opacity:1;  stroke-linecap:round; stroke-linejoin:round;"
     id="g91">
    <path
       d="M195.0000 66.5000 L193.5000 66.5000 "
       id="path91" />
  </g>
  <g
     style="fill:none;  stroke:#FFFFFF; stroke-width:0.8000; stroke-opacity:1;  stroke-linecap:round; stroke-linejoin:round;"
     id="g98">
    <path
       d="M193.5000 66.5000 L192.5000 67.5000 "
       id="path92" />
    <path
       d="M192.5000 67.5000 L192.5000 78.0000 "
       id="path93" />
    <path
       d="M195.2250 68.0000 L194.0000 68.0000 "
       id="path94" />
    <path
       d="M193.5000 71.5000 L194.0000 72.0000 "
       id="path95" />
    <path
       d="M194.0000 68.0000 L193.5000 68.5000 "
       id="path96" />
    <path
       d="M194.0000 72.0000 L195.0000 72.0000 "
       id="path97" />
    <path
       d="M193.5000 68.5000 L193.5000 71.5000 "
       id="path98" />
  </g>
  <g
     style="fill:none;  stroke:#FFFFFF; stroke-width:0.4000; stroke-opacity:1;  stroke-linecap:round; stroke-linejoin:round;"
     id="g99">
    <path
       d="M195.2250 68.0000 L195.2250 68.3000 "
       id="path99" />
  </g>
  <g
     style="fill:none;  stroke:#FFFFFF; stroke-width:1.0000; stroke-opacity:1;  stroke-linecap:round; stroke-linejoin:round;"
     id="g105">
    <path
       d="M195.0000 72.0000 L195.0000 82.0000 "
       id="path100" />
    <path
       d="M195.0000 82.0000 L192.0000 85.0000 "
       id="path101" />
    <path
       d="M192.0000 85.0000 L188.5000 85.0000 "
       id="path102" />
    <path
       d="M188.5000 85.0000 L186.0000 82.5000 "
       id="path103" />
    <path
       d="M186.0000 82.5000 L182.4125 82.5000 "
       id="path104" />
    <path
       d="M182.4125 82.5000 L182.2225 82.6900 "
       id="path105" />
  </g>
  <g
     style="fill:none;  stroke:#FFFFFF; stroke-width:0.4000; stroke-opacity:1;  stroke-linecap:round; stroke-linejoin:round;"
     id="g106">
    <path
       d="M195.2250 72.0000 L195.2250 71.5500 "
       id="path106" />
  </g>
  <g
     style="fill:none;  stroke:#FFFFFF; stroke-width:0.5000; stroke-opacity:1;  stroke-linecap:round; stroke-linejoin:round;"
     id="g108">
    <path
       d="M197.0000 72.5000 L197.0000 71.5000 "
       id="path107" />
    <path
       d="M197.0000 71.5000 L196.5000 71.0000 "
       id="path108" />
  </g>
  <g
     style="fill:none;  stroke:#FFFFFF; stroke-width:1.0000; stroke-opacity:1;  stroke-linecap:round; stroke-linejoin:round;"
     id="g115">
    <path
       d="M182.2225 87.7700 L183.7700 87.7700 "
       id="path109" />
    <path
       d="M185.0000 89.0000 L195.0000 89.0000 "
       id="path110" />
    <path
       d="M183.7700 87.7700 L185.0000 89.0000 "
       id="path111" />
    <path
       d="M195.0000 89.0000 L198.5000 85.5000 "
       id="path112" />
    <path
       d="M198.5000 85.5000 L198.5000 70.5000 "
       id="path113" />
    <path
       d="M198.5000 70.5000 L197.5000 69.5000 "
       id="path114" />
    <path
       d="M197.5000 69.5000 L197.5000 67.0000 "
       id="path115" />
  </g>
  <g
     style="fill:none;  stroke:#FFFFFF; stroke-width:2.0000; stroke-opacity:1;  stroke-linecap:round; stroke-linejoin:round;"
     id="g117">
    <path
       d="M203.0000 47.5000 L203.0000 64.5000 "
       id="path116" />
    <path
       d="M181.2700 85.2300 L182.2225 85.2300 "
       id="path117" />
  </g>
  <g
     style="fill:none;  stroke:#FFFFFF; stroke-width:1.5000; stroke-opacity:1;  stroke-linecap:round; stroke-linejoin:round;"
     id="g118">
    <path
       d="M178.5000 88.0000 L181.2700 85.2300 "
       id="path118" />
  </g>
  <g
     style="fill:none;  stroke:#FFFFFF; stroke-width:1.0000; stroke-opacity:1;  stroke-linecap:round; stroke-linejoin:round;"
     id="g121">
    <path
       d="M182.2225 82.6900 L180.3100 82.6900 "
       id="path119" />
    <path
       d="M180.3100 82.6900 L179.6300 83.3700 "
       id="path120" />
    <path
       d="M179.6300 83.3700 L177.4500 83.3700 "
       id="path121" />
  </g>
  <g
     style="fill:none;  stroke:#FFFFFF; stroke-width:1.5000; stroke-opacity:1;  stroke-linecap:round; stroke-linejoin:round;"
     id="g122">
    <path
       d="M175.0000 48.0000 L173.0000 48.0000 "
       id="path122" />
  </g>
  <g
     style="fill:none;  stroke:#FFFFFF; stroke-width:0.8000; stroke-opacity:1;  stroke-linecap:round; stroke-linejoin:round;"
     id="g123">
    <path
       d="M184.3000 75.7000 L182.3775 75.7000 "
       id="path123" />
  </g>
  <g
     style="fill:none;  stroke:#FFFFFF; stroke-width:0.2000; stroke-opacity:1;  stroke-linecap:round; stroke-linejoin:round;"
     id="g124">
    <path
       d="M188.1000 74.6000 L188.0000 74.5000 "
       id="path124" />
  </g>
  <g
     style="fill:none;  stroke:#FFFFFF; stroke-width:0.6000; stroke-opacity:1;  stroke-linecap:round; stroke-linejoin:round;"
     id="g125">
    <path
       d="M190.1875 78.1875 L190.1875 75.7125 "
       id="path125" />
  </g>
  <g
     style="fill:none;  stroke:#FFFFFF; stroke-width:0.8000; stroke-opacity:1;  stroke-linecap:round; stroke-linejoin:round;"
     id="g126">
    <path
       d="M190.8000 75.7000 L190.2000 75.7000 "
       id="path126" />
  </g>
  <g
     style="fill:none;  stroke:#FFFFFF; stroke-width:1.5000; stroke-opacity:1;  stroke-linecap:round; stroke-linejoin:round;"
     id="g129">
    <path
       d="M176.5000 46.5000 L175.0000 48.0000 "
       id="path127" />
    <path
       d="M186.0000 46.5000 L176.5000 46.5000 "
       id="path128" />
    <path
       d="M189.5000 67.0000 L189.5000 50.0000 "
       id="path129" />
  </g>
  <g
     style="fill:none;  stroke:#FFFFFF; stroke-width:0.2000; stroke-opacity:1;  stroke-linecap:round; stroke-linejoin:round;"
     id="g130">
    <path
       d="M190.1875 75.7125 L190.2000 75.7000 "
       id="path130" />
  </g>
  <g
     style="fill:none;  stroke:#FFFFFF; stroke-width:0.8000; stroke-opacity:1;  stroke-linecap:round; stroke-linejoin:round;"
     id="g133">
    <path
       d="M185.5000 74.5000 L184.3000 75.7000 "
       id="path131" />
    <path
       d="M189.0000 74.5000 L188.0000 74.5000 "
       id="path132" />
    <path
       d="M188.0000 74.5000 L185.5000 74.5000 "
       id="path133" />
  </g>
  <g
     style="fill:none;  stroke:#FFFFFF; stroke-width:1.5000; stroke-opacity:1;  stroke-linecap:round; stroke-linejoin:round;"
     id="g134">
    <path
       d="M189.5000 50.0000 L186.0000 46.5000 "
       id="path134" />
  </g>
  <g
     style="fill:none;  stroke:#FFFFFF; stroke-width:0.8000; stroke-opacity:1;  stroke-linecap:round; stroke-linejoin:round;"
     id="g135">
    <path
       d="M190.2000 75.7000 L189.0000 74.5000 "
       id="path135" />
  </g>
  <g
     style="fill:none;  stroke:#FFFFFF; stroke-width:1.0000; stroke-opacity:1;  stroke-linecap:round; stroke-linejoin:round;"
     id="g137">
    <path
       d="M179.5000 77.5000 L179.5000 64.5000 "
       id="path136" />
    <path
       d="M179.5000 64.5000 L181.0000 63.0000 "
       id="path137" />
  </g>
  <g
     style="fill:none;  stroke:#FFFFFF; stroke-width:0.4000; stroke-opacity:1;  stroke-linecap:round; stroke-linejoin:round;"
     id="g138">
    <path
       d="M195.2250 67.6500 L195.2250 68.0000 "
       id="path138" />
  </g>
  <g
     style="fill:none;  stroke:#FFFFFF; stroke-width:1.0000; stroke-opacity:1;  stroke-linecap:round; stroke-linejoin:round;"
     id="g140">
    <path
       d="M184.0000 77.5000 L185.5000 79.0000 "
       id="path139" />
    <path
       d="M179.5000 77.5000 L184.0000 77.5000 "
       id="path140" />
  </g>
  <g
     style="fill:none;  stroke:#FFFFFF; stroke-width:0.6000; stroke-opacity:1;  stroke-linecap:round; stroke-linejoin:round;"
     id="g141">
    <path
       d="M187.9125 79.1375 L185.6375 79.1375 "
       id="path141" />
  </g>
  <g
     style="fill:none;  stroke:#FFFFFF; stroke-width:0.2000; stroke-opacity:1;  stroke-linecap:round; stroke-linejoin:round;"
     id="g142">
    <path
       d="M188.0000 73.0500 L188.0000 73.1600 "
       id="path142" />
  </g>
  <g
     style="fill:none;  stroke:#FFFFFF; stroke-width:1.0000; stroke-opacity:1;  stroke-linecap:round; stroke-linejoin:round;"
     id="g146">
    <path
       d="M181.0000 63.0000 L182.3775 63.0000 "
       id="path143" />
    <path
       d="M189.5000 101.7500 L186.7500 101.7500 "
       id="path144" />
    <path
       d="M179.5000 73.1600 L182.3775 73.1600 "
       id="path145" />
    <path
       d="M179.5000 81.5000 L179.5000 77.5000 "
       id="path146" />
  </g>
  <g
     style="fill:none;  stroke:#FFFFFF; stroke-width:0.2000; stroke-opacity:1;  stroke-linecap:round; stroke-linejoin:round;"
     id="g147">
    <path
       d="M185.6375 79.1375 L185.5000 79.0000 "
       id="path147" />
  </g>
  <g
     style="fill:none;  stroke:#FFFFFF; stroke-width:1.0000; stroke-opacity:1;  stroke-linecap:round; stroke-linejoin:round;"
     id="g151">
    <path
       d="M182.3775 73.1600 L188.0000 73.1600 "
       id="path148" />
    <path
       d="M182.2225 82.6900 L180.6900 82.6900 "
       id="path149" />
    <path
       d="M180.6900 82.6900 L179.5000 81.5000 "
       id="path150" />
    <path
       d="M182.2225 80.1500 L183.0725 81.0000 "
       id="path151" />
  </g>
  <g
     style="fill:none;  stroke:#FFFFFF; stroke-width:0.2000; stroke-opacity:1;  stroke-linecap:round; stroke-linejoin:round;"
     id="g152">
    <path
       d="M192.5000 78.0000 L193.0000 78.0000 "
       id="path152" />
  </g>
  <g
     style="fill:none;  stroke:#FFFFFF; stroke-width:1.0000; stroke-opacity:1;  stroke-linecap:round; stroke-linejoin:round;"
     id="g156">
    <path
       d="M191.5000 83.0000 L193.0000 81.5000 "
       id="path153" />
    <path
       d="M193.0000 79.0000 L193.0000 78.0000 "
       id="path154" />
    <path
       d="M189.0000 83.0000 L191.5000 83.0000 "
       id="path155" />
    <path
       d="M187.0000 81.0000 L189.0000 83.0000 "
       id="path156" />
  </g>
  <g
     style="fill:none;  stroke:#FFFFFF; stroke-width:0.2000; stroke-opacity:1;  stroke-linecap:round; stroke-linejoin:round;"
     id="g157">
    <path
       d="M192.9865 79.0135 L193.0000 79.0000 "
       id="path157" />
  </g>
  <g
     style="fill:none;  stroke:#FFFFFF; stroke-width:1.0000; stroke-opacity:1;  stroke-linecap:round; stroke-linejoin:round;"
     id="g159">
    <path
       d="M193.0000 81.5000 L193.0000 79.0000 "
       id="path158" />
    <path
       d="M183.0725 81.0000 L187.0000 81.0000 "
       id="path159" />
  </g>
  <g
     style="fill:none;  stroke:#FFFFFF; stroke-width:0.5000; stroke-opacity:1;  stroke-linecap:round; stroke-linejoin:round;"
     id="g161">
    <path
       d="M188.6740 78.1875 L187.9125 78.1875 "
       id="path160" />
    <path
       d="M182.4925 85.5000 L182.2225 85.2300 "
       id="path161" />
  </g>
  <g
     style="fill:none;  stroke:#FFFFFF; stroke-width:0.2000; stroke-opacity:1;  stroke-linecap:round; stroke-linejoin:round;"
     id="g162">
    <path
       d="M196.4000 70.9000 L196.5000 71.0000 "
       id="path162" />
  </g>
  <g
     style="fill:none;  stroke:#FFFFFF; stroke-width:0.4000; stroke-opacity:1;  stroke-linecap:round; stroke-linejoin:round;"
     id="g163">
    <path
       d="M195.2250 70.9000 L196.4000 70.9000 "
       id="path163" />
  </g>
  <g
     style="fill:none;  stroke:#FFFFFF; stroke-width:1.0000; stroke-opacity:1;  stroke-linecap:round; stroke-linejoin:round;"
     id="g166">
    <path
       d="M197.5000 67.0000 L197.5000 69.0000 "
       id="path164" />
    <path
       d="M197.5000 67.0000 L197.5000 65.5000 "
       id="path165" />
    <path
       d="M197.5000 65.5000 L197.0000 65.0000 "
       id="path166" />
  </g>
  <g
     style="fill:none;  stroke:#FFFFFF; stroke-width:1.4000; stroke-opacity:1;  stroke-linecap:round; stroke-linejoin:round;"
     id="g167">
    <path
       d="M197.0000 65.0000 L195.0000 63.0000 "
       id="path167" />
  </g>
  <g
     style="fill:none;  stroke:#FFFFFF; stroke-width:1.0000; stroke-opacity:1;  stroke-linecap:round; stroke-linejoin:round;"
     id="g168">
    <path
       d="M182.6575 70.9000 L187.5000 70.9000 "
       id="path168" />
  </g>
  <g
     style="fill:none;  stroke:#FFFFFF; stroke-width:0.4000; stroke-opacity:1;  stroke-linecap:round; stroke-linejoin:round;"
     id="g169">
    <path
       d="M187.5000 70.9000 L189.5000 70.9000 "
       id="path169" />
  </g>
  <g
     style="fill:none;  stroke:#FFFFFF; stroke-width:0.2000; stroke-opacity:1;  stroke-linecap:round; stroke-linejoin:round;"
     id="g170">
    <path
       d="M182.3775 70.6200 L182.6575 70.9000 "
       id="path170" />
  </g>
  <g
     style="fill:none;  stroke:#FFFFFF; stroke-width:1.0000; stroke-opacity:1;  stroke-linecap:round; stroke-linejoin:round;"
     id="g172">
    <path
       d="M186.0000 68.0000 L187.5000 69.5000 "
       id="path171" />
    <path
       d="M182.4575 68.0000 L186.0000 68.0000 "
       id="path172" />
  </g>
  <g
     style="fill:none;  stroke:#FFFFFF; stroke-width:0.4000; stroke-opacity:1;  stroke-linecap:round; stroke-linejoin:round;"
     id="g174">
    <path
       d="M182.3775 68.0800 L182.4575 68.0000 "
       id="path173" />
    <path
       d="M194.5000 72.0000 L195.0000 72.0000 "
       id="path174" />
  </g>
  <g
     style="fill:#000000; fill-opacity:1.0000; stroke:none;"
     id="g175">
    <circle
       cx="167.5000"
       cy="75.0000"
       r="0.1750"
       id="circle174" />
  </g>
  <g
     style="fill:#000000; fill-opacity:1.0000; stroke:none;"
     id="g176">
    <circle
       cx="168.0000"
       cy="59.0000"
       r="0.1750"
       id="circle175" />
  </g>
  <g
     style="fill:#000000; fill-opacity:1.0000; stroke:none;"
     id="g177">
    <circle
       cx="189.8750"
       cy="38.6250"
       r="0.1500"
       id="circle176" />
  </g>
  <g
     style="fill:#000000; fill-opacity:1.0000; stroke:none;"
     id="g178">
    <circle
       cx="216.0000"
       cy="53.5000"
       r="0.1500"
       id="circle177" />
  </g>
  <g
     style="fill:#000000; fill-opacity:1.0000; stroke:none;"
     id="g179">
    <circle
       cx="193.0000"
       cy="78.0000"
       r="0.1750"
       id="circle178" />
  </g>
  <g
     style="fill:#000000; fill-opacity:1.0000; stroke:none;"
     id="g180">
    <circle
       cx="203.0000"
       cy="47.5000"
       r="0.1750"
       id="circle179" />
  </g>
  <g
     style="fill:#000000; fill-opacity:1.0000; stroke:none;"
     id="g181">
    <circle
       cx="205.0000"
       cy="46.0000"
       r="0.1750"
       id="circle180" />
  </g>
  <g
     style="fill:#000000; fill-opacity:1.0000; stroke:none;"
     id="g182">
    <circle
       cx="210.0400"
       cy="75.0000"
       r="0.1750"
       id="circle181" />
  </g>
  <g
     style="fill:#000000; fill-opacity:1.0000; stroke:none;"
     id="g183">
    <circle
       cx="207.5000"
       cy="75.0000"
       r="0.1750"
       id="circle182" />
  </g>
  <g
     style="fill:#000000; fill-opacity:1.0000; stroke:none;"
     id="g184">
    <circle
       cx="204.9600"
       cy="75.0000"
       r="0.1750"
       id="circle183" />
  </g>
  <g
     style="fill:#000000; fill-opacity:1.0000; stroke:none;"
     id="g185">
    <circle
       cx="215.5400"
       cy="65.5000"
       r="0.1750"
       id="circle184" />
  </g>
  <g
     style="fill:#000000; fill-opacity:1.0000; stroke:none;"
     id="g186">
    <circle
       cx="213.0000"
       cy="65.5000"
       r="0.1750"
       id="circle185" />
  </g>
  <g
     style="fill:#000000; fill-opacity:1.0000; stroke:none;"
     id="g187">
    <circle
       cx="210.4600"
       cy="65.5000"
       r="0.1750"
       id="circle186" />
  </g>
  <g
     style="fill:#000000; fill-opacity:1.0000; stroke:none;"
     id="g188">
    <circle
       cx="207.9200"
       cy="65.5000"
       r="0.1750"
       id="circle187" />
  </g>
  <g
     style="fill:#000000; fill-opacity:1.0000; stroke:none;"
     id="g189">
    <circle
       cx="215.2500"
       cy="80.5000"
       r="0.1750"
       id="circle188" />
  </g>
  <g
     style="fill:#000000; fill-opacity:1.0000; stroke:none;"
     id="g190">
    <circle
       cx="212.7500"
       cy="80.5000"
       r="0.1750"
       id="circle189" />
  </g>
  <g
     style="fill:#000000; fill-opacity:1.0000; stroke:none;"
     id="g191">
    <circle
       cx="211.5400"
       cy="53.0000"
       r="0.1750"
       id="circle190" />
  </g>
  <g
     style="fill:#000000; fill-opacity:1.0000; stroke:none;"
     id="g192">
    <circle
       cx="209.0000"
       cy="53.0000"
       r="0.1750"
       id="circle191" />
  </g>
  <g
     style="fill:#000000; fill-opacity:1.0000; stroke:none;"
     id="g193">
    <circle
       cx="206.4600"
       cy="53.0000"
       r="0.1750"
       id="circle192" />
  </g>
  <g
     style="fill:#000000; fill-opacity:1.0000; stroke:none;"
     id="g194">
    <circle
       cx="211.2500"
       cy="86.5000"
       r="0.1750"
       id="circle193" />
  </g>
  <g
     style="fill:#000000; fill-opacity:1.0000; stroke:none;"
     id="g195">
    <circle
       cx="208.7500"
       cy="86.5000"
       r="0.1750"
       id="circle194" />
  </g>
  <g
     style="fill:#000000; fill-opacity:1.0000; stroke:none;"
     id="g196">
    <circle
       cx="173.0000"
       cy="48.0000"
       r="0.1750"
       id="circle195" />
  </g>
  <g
     style="fill:#000000; fill-opacity:1.0000; stroke:none;"
     id="g197">
    <circle
       cx="173.0000"
       cy="53.0000"
       r="0.1750"
       id="circle196" />
  </g>
  <g
     style="fill:#000000; fill-opacity:1.0000; stroke:none;"
     id="g198">
    <circle
       cx="215.8000"
       cy="71.0000"
       r="0.1750"
       id="circle197" />
  </g>
  <g
     style="fill:#000000; fill-opacity:1.0000; stroke:none;"
     id="g199">
    <circle
       cx="215.8000"
       cy="73.5000"
       r="0.1750"
       id="circle198" />
  </g>
  <g
     style="fill:#000000; fill-opacity:1.0000; stroke:none;"
     id="g200">
    <circle
       cx="177.4500"
       cy="65.5900"
       r="0.1750"
       id="circle199" />
  </g>
  <g
     style="fill:#000000; fill-opacity:1.0000; stroke:none;"
     id="g201">
    <circle
       cx="177.4500"
       cy="83.3700"
       r="0.1750"
       id="circle200" />
  </g>
  <g
     style="fill:#000000; fill-opacity:1.0000; stroke:none;"
     id="g202">
    <circle
       cx="200.3100"
       cy="83.3700"
       r="0.1750"
       id="circle201" />
  </g>
  <g
     style="fill:#000000; fill-opacity:1.0000; stroke:none;"
     id="g203">
    <circle
       cx="200.3100"
       cy="85.9100"
       r="0.1750"
       id="circle202" />
  </g>
  <g
     style="fill:#000000; fill-opacity:1.0000; stroke:none;"
     id="g204">
    <circle
       cx="177.4500"
       cy="50.3500"
       r="0.1750"
       id="circle203" />
  </g>
  <g
     style="fill:#000000; fill-opacity:1.0000; stroke:none;"
     id="g205">
    <circle
       cx="177.4500"
       cy="57.9700"
       r="0.1750"
       id="circle204" />
  </g>
  <g
     style="fill:#000000; fill-opacity:1.0000; stroke:none;"
     id="g206">
    <circle
       cx="177.4500"
       cy="60.5100"
       r="0.1750"
       id="circle205" />
  </g>
  <g
     style="fill:#000000; fill-opacity:1.0000; stroke:none;"
     id="g207">
    <circle
       cx="177.4500"
       cy="63.0500"
       r="0.1750"
       id="circle206" />
  </g>
  <g
     style="fill:#000000; fill-opacity:1.0000; stroke:none;"
     id="g208">
    <circle
       cx="177.4500"
       cy="68.1300"
       r="0.1750"
       id="circle207" />
  </g>
  <g
     style="fill:#000000; fill-opacity:1.0000; stroke:none;"
     id="g209">
    <circle
       cx="177.4500"
       cy="70.6700"
       r="0.1750"
       id="circle208" />
  </g>
  <g
     style="fill:#000000; fill-opacity:1.0000; stroke:none;"
     id="g210">
    <circle
       cx="177.4500"
       cy="73.2100"
       r="0.1750"
       id="circle209" />
  </g>
  <g
     style="fill:#000000; fill-opacity:1.0000; stroke:none;"
     id="g211">
    <circle
       cx="177.4500"
       cy="75.7500"
       r="0.1750"
       id="circle210" />
  </g>
  <g
     style="fill:#000000; fill-opacity:1.0000; stroke:none;"
     id="g212">
    <circle
       cx="177.4500"
       cy="78.2900"
       r="0.1750"
       id="circle211" />
  </g>
  <g
     style="fill:#000000; fill-opacity:1.0000; stroke:none;"
     id="g213">
    <circle
       cx="177.4500"
       cy="80.8300"
       r="0.1750"
       id="circle212" />
  </g>
  <g
     style="fill:#000000; fill-opacity:1.0000; stroke:none;"
     id="g214">
    <circle
       cx="200.3100"
       cy="80.8300"
       r="0.1750"
       id="circle213" />
  </g>
  <g
     style="fill:#000000; fill-opacity:1.0000; stroke:none;"
     id="g215">
    <circle
       cx="200.3100"
       cy="78.2900"
       r="0.1750"
       id="circle214" />
  </g>
  <g
     style="fill:#000000; fill-opacity:1.0000; stroke:none;"
     id="g216">
    <circle
       cx="200.3100"
       cy="75.7500"
       r="0.1750"
       id="circle215" />
  </g>
  <g
     style="fill:#000000; fill-opacity:1.0000; stroke:none;"
     id="g217">
    <circle
       cx="200.3100"
       cy="73.2100"
       r="0.1750"
       id="circle216" />
  </g>
  <g
     style="fill:#000000; fill-opacity:1.0000; stroke:none;"
     id="g218">
    <circle
       cx="200.3100"
       cy="70.6700"
       r="0.1750"
       id="circle217" />
  </g>
  <g
     style="fill:#000000; fill-opacity:1.0000; stroke:none;"
     id="g219">
    <circle
       cx="200.3100"
       cy="68.1300"
       r="0.1750"
       id="circle218" />
  </g>
  <g
     style="fill:#000000; fill-opacity:1.0000; stroke:none;"
     id="g220">
    <circle
       cx="200.3100"
       cy="65.5900"
       r="0.1750"
       id="circle219" />
  </g>
  <g
     style="fill:#000000; fill-opacity:1.0000; stroke:none;"
     id="g221">
    <circle
       cx="200.3100"
       cy="63.0500"
       r="0.1750"
       id="circle220" />
  </g>
  <g
     style="fill:#000000; fill-opacity:1.0000; stroke:none;"
     id="g222">
    <circle
       cx="200.3100"
       cy="60.5100"
       r="0.1750"
       id="circle221" />
  </g>
  <g
     style="fill:#000000; fill-opacity:1.0000; stroke:none;"
     id="g223">
    <circle
       cx="200.3100"
       cy="57.9700"
       r="0.1750"
       id="circle222" />
  </g>
  <g
     style="fill:#000000; fill-opacity:1.0000; stroke:none;"
     id="g224">
    <circle
       cx="200.3100"
       cy="55.4300"
       r="0.1750"
       id="circle223" />
  </g>
  <g
     style="fill:#000000; fill-opacity:1.0000; stroke:none;"
     id="g225">
    <circle
       cx="200.3100"
       cy="52.8900"
       r="0.1750"
       id="circle224" />
  </g>
  <g
     style="fill:#000000; fill-opacity:1.0000; stroke:none;"
     id="g226">
    <circle
       cx="200.3100"
       cy="50.3500"
       r="0.1750"
       id="circle225" />
  </g>
  <g
     style="fill:#000000; fill-opacity:1.0000; stroke:none;"
     id="g227">
    <circle
       cx="177.4500"
       cy="85.9100"
       r="0.1750"
       id="circle226" />
  </g>
  <g
     style="fill:#000000; fill-opacity:1.0000; stroke:none;"
     id="g228">
    <circle
       cx="177.4500"
       cy="55.4300"
       r="0.1750"
       id="circle227" />
  </g>
  <g
     style="fill:#000000; fill-opacity:1.0000; stroke:none;"
     id="g229">
    <circle
       cx="177.4500"
       cy="52.8900"
       r="0.1750"
       id="circle228" />
  </g>
  <g
     style="fill:#000000; fill-opacity:1.0000; stroke:none;"
     id="g230">
    <circle
       cx="182.2225"
       cy="92.8500"
       r="0.1750"
       id="circle229" />
  </g>
  <g
     style="fill:#000000; fill-opacity:1.0000; stroke:none;"
     id="g231">
    <circle
       cx="182.2225"
       cy="90.3100"
       r="0.1750"
       id="circle230" />
  </g>
  <g
     style="fill:#000000; fill-opacity:1.0000; stroke:none;"
     id="g232">
    <circle
       cx="182.2225"
       cy="87.7700"
       r="0.1750"
       id="circle231" />
  </g>
  <g
     style="fill:#000000; fill-opacity:1.0000; stroke:none;"
     id="g233">
    <circle
       cx="182.2225"
       cy="85.2300"
       r="0.1750"
       id="circle232" />
  </g>
  <g
     style="fill:#000000; fill-opacity:1.0000; stroke:none;"
     id="g234">
    <circle
       cx="182.2225"
       cy="82.6900"
       r="0.1750"
       id="circle233" />
  </g>
  <g
     style="fill:#000000; fill-opacity:1.0000; stroke:none;"
     id="g235">
    <circle
       cx="182.2225"
       cy="80.1500"
       r="0.1750"
       id="circle234" />
  </g>
  <g
     style="fill:#000000; fill-opacity:1.0000; stroke:none;"
     id="g236">
    <circle
       cx="182.3775"
       cy="75.7000"
       r="0.1750"
       id="circle235" />
  </g>
  <g
     style="fill:#000000; fill-opacity:1.0000; stroke:none;"
     id="g237">
    <circle
       cx="182.3775"
       cy="73.1600"
       r="0.1750"
       id="circle236" />
  </g>
  <g
     style="fill:#000000; fill-opacity:1.0000; stroke:none;"
     id="g238">
    <circle
       cx="182.3775"
       cy="70.6200"
       r="0.1750"
       id="circle237" />
  </g>
  <g
     style="fill:#000000; fill-opacity:1.0000; stroke:none;"
     id="g239">
    <circle
       cx="182.3775"
       cy="68.0800"
       r="0.1750"
       id="circle238" />
  </g>
  <g
     style="fill:#000000; fill-opacity:1.0000; stroke:none;"
     id="g240">
    <circle
       cx="182.3775"
       cy="65.5400"
       r="0.1750"
       id="circle239" />
  </g>
  <g
     style="fill:#000000; fill-opacity:1.0000; stroke:none;"
     id="g241">
    <circle
       cx="182.3775"
       cy="63.0000"
       r="0.1750"
       id="circle240" />
  </g>
  <g
     style="fill:#000000; fill-opacity:1.0000; stroke:none;"
     id="g242">
    <circle
       cx="182.3775"
       cy="60.4600"
       r="0.1750"
       id="circle241" />
  </g>
  <g
     style="fill:#000000; fill-opacity:1.0000; stroke:none;"
     id="g243">
    <circle
       cx="182.3775"
       cy="57.9200"
       r="0.1750"
       id="circle242" />
  </g>
  <g
     style="fill:#000000; fill-opacity:1.0000; stroke:none;"
     id="g244">
    <circle
       cx="182.3775"
       cy="55.3800"
       r="0.1750"
       id="circle243" />
  </g>
  <g
     style="fill:#000000; fill-opacity:1.0000; stroke:none;"
     id="g245">
    <circle
       cx="182.3775"
       cy="52.8400"
       r="0.1750"
       id="circle244" />
  </g>
  <g
     style="fill:#000000; fill-opacity:1.0000; stroke:none;"
     id="g246">
    <circle
       cx="182.3775"
       cy="50.3000"
       r="0.1750"
       id="circle245" />
  </g>
</svg>
