  0
SECTION
  2
HEADER
  9
$ANGBASE
  50
0.0
  9
$ANGDIR
  70
1
  9
$MEASUREMENT
  70
1
  0
ENDSEC
  0
SECTION
  2
TABLES
  0
TABLE
  2
LTYPE
  70
4
  0
LTYPE
  5
40F
  2
CONTINUOUS
  70
0
  3
Solid line
  72
65
  73
0
  40
0.0
  0
LTYPE
  5
410
  2
DASHDOT
 70
0
  3
Dash Dot ____ _ ____ _
 72
65
 73
4
 40
2.0
 49
1.25
 49
-0.25
 49
0.25
 49
-0.25
  0
LTYPE
  5
411
  2
DASHED
 70
0
  3
Dashed __ __ __ __ __
 72
65
 73
2
 40
0.75
 49
0.5
 49
-0.25
  0
LTYPE
  5
43B
  2
DOTTED
 70
0
  3
Dotted .  .  .  .
 72
65
 73
2
 40
0.2
 49
0.0
 49
-0.2
  0
ENDTAB
  0
TABLE
  2
STYLE
  70
4
  0
STYLE
  2
KICAD
  70
0
  40
0
  41
1
  42
1
  50
0
  71
0
  3
isocp.shx
  0
STYLE
  2
KICADB
  70
0
  40
0
  41
1
  42
1
  50
0
  71
0
  3
isocp.shx
  0
STYLE
  2
KICADI
  70
0
  40
0
  41
1
  42
1
  50
15
  71
0
  3
isocp.shx
  0
STYLE
  2
KICADBI
  70
0
  40
0
  41
1
  42
1
  50
15
  71
0
  3
isocp.shx
  0
ENDTAB
  0
TABLE
  2
LAYER
  70
1
  0
LAYER
  2
BLACK
  70
0
  62
7
  6
CONTINUOUS
  0
ENDTAB
  0
ENDSEC
  0
SECTION
  2
ENTITIES
0
LINE
8
BLACK
6
CONTINUOUS
10
163.7902839999999856
20
-75.6230599999999953
11
163.9713959999999986
21
-75.6980789999999928
0
LINE
8
BLACK
6
CONTINUOUS
10
163.9713959999999986
20
-75.6980789999999928
11
164.1343939999999861
21
-75.8069890000000015
0
LINE
8
BLACK
6
CONTINUOUS
10
164.1343939999999861
20
-75.8069890000000015
11
164.2071069999999793
21
-75.8728929999999906
0
LINE
8
BLACK
6
CONTINUOUS
10
164.2071069999999793
20
-75.8728929999999906
11
170.1671069999999872
21
-81.8328929999999986
0
LINE
8
BLACK
6
CONTINUOUS
10
170.1671069999999872
20
-81.8328929999999986
11
170.2071069999999793
21
-81.8728940000000023
0
LINE
8
BLACK
6
CONTINUOUS
10
170.2071069999999793
20
-81.8728940000000023
11
170.2730109999999968
21
-81.9456069999999954
0
LINE
8
BLACK
6
CONTINUOUS
10
170.2730109999999968
20
-81.9456069999999954
11
170.381922000000003
21
-82.1086039999999997
0
LINE
8
BLACK
6
CONTINUOUS
10
170.381922000000003
20
-82.1086039999999997
11
170.4569410000000005
21
-82.2897159999999985
0
LINE
8
BLACK
6
CONTINUOUS
10
170.4569410000000005
20
-82.2897159999999985
11
170.4951849999999922
21
-82.4819829999999996
0
LINE
8
BLACK
6
CONTINUOUS
10
170.4951849999999922
20
-82.4819829999999996
11
170.4951849999999922
21
-82.678016999999997
0
LINE
8
BLACK
6
CONTINUOUS
10
170.4951849999999922
20
-82.678016999999997
11
170.4569410000000005
21
-82.8702849999999955
0
LINE
8
BLACK
6
CONTINUOUS
10
170.4569410000000005
20
-82.8702849999999955
11
170.381922000000003
21
-83.0513969999999944
0
LINE
8
BLACK
6
CONTINUOUS
10
170.381922000000003
20
-83.0513969999999944
11
170.2730109999999968
21
-83.2143939999999986
0
LINE
8
BLACK
6
CONTINUOUS
10
170.2730109999999968
20
-83.2143939999999986
11
170.1343939999999861
21
-83.3530109999999951
0
LINE
8
BLACK
6
CONTINUOUS
10
170.1343939999999861
20
-83.3530109999999951
11
169.9713969999999961
21
-83.4619220000000013
0
LINE
8
BLACK
6
CONTINUOUS
10
169.9713969999999961
20
-83.4619220000000013
11
169.790284999999983
21
-83.5369409999999988
0
LINE
8
BLACK
6
CONTINUOUS
10
169.790284999999983
20
-83.5369409999999988
11
169.5980169999999987
21
-83.5751849999999905
0
LINE
8
BLACK
6
CONTINUOUS
10
169.5980169999999987
20
-83.5751849999999905
11
169.4019830000000013
21
-83.5751849999999905
0
LINE
8
BLACK
6
CONTINUOUS
10
169.4019830000000013
20
-83.5751849999999905
11
169.209715999999986
21
-83.5369409999999988
0
LINE
8
BLACK
6
CONTINUOUS
10
169.209715999999986
20
-83.5369409999999988
11
169.0286040000000014
21
-83.4619220000000013
0
LINE
8
BLACK
6
CONTINUOUS
10
169.0286040000000014
20
-83.4619220000000013
11
168.8656069999999829
21
-83.3530109999999951
0
LINE
8
BLACK
6
CONTINUOUS
10
168.8656069999999829
20
-83.3530109999999951
11
168.7928939999999898
21
-83.2871069999999918
0
LINE
8
BLACK
6
CONTINUOUS
10
168.7928939999999898
20
-83.2871069999999918
11
168.7528930000000003
21
-83.2471069999999997
0
LINE
8
BLACK
6
CONTINUOUS
10
168.7528930000000003
20
-83.2471069999999997
11
162.7928929999999923
21
-77.2871069999999918
0
LINE
8
BLACK
6
CONTINUOUS
10
162.7928929999999923
20
-77.2871069999999918
11
162.7269890000000032
21
-77.2143939999999986
0
LINE
8
BLACK
6
CONTINUOUS
10
162.7269890000000032
20
-77.2143939999999986
11
162.6180789999999945
21
-77.0513959999999969
0
LINE
8
BLACK
6
CONTINUOUS
10
162.6180789999999945
20
-77.0513959999999969
11
162.543059999999997
21
-76.8702839999999981
0
LINE
8
BLACK
6
CONTINUOUS
10
162.543059999999997
20
-76.8702839999999981
11
162.5048160000000053
21
-76.678016999999997
0
LINE
8
BLACK
6
CONTINUOUS
10
162.5048160000000053
20
-76.678016999999997
11
162.5048160000000053
21
-76.4819829999999996
0
LINE
8
BLACK
6
CONTINUOUS
10
162.5048160000000053
20
-76.4819829999999996
11
162.543059999999997
21
-76.2897159999999985
0
LINE
8
BLACK
6
CONTINUOUS
10
162.543059999999997
20
-76.2897159999999985
11
162.6180789999999945
21
-76.1086039999999997
0
LINE
8
BLACK
6
CONTINUOUS
10
162.6180789999999945
20
-76.1086039999999997
11
162.7269890000000032
21
-75.9456059999999979
0
LINE
8
BLACK
6
CONTINUOUS
10
162.7269890000000032
20
-75.9456059999999979
11
162.8656059999999854
21
-75.8069890000000015
0
LINE
8
BLACK
6
CONTINUOUS
10
162.8656059999999854
20
-75.8069890000000015
11
163.0286040000000014
21
-75.6980789999999928
0
LINE
8
BLACK
6
CONTINUOUS
10
163.0286040000000014
20
-75.6980789999999928
11
163.209715999999986
21
-75.6230599999999953
0
LINE
8
BLACK
6
CONTINUOUS
10
163.209715999999986
20
-75.6230599999999953
11
163.4019830000000013
21
-75.5848160000000036
0
LINE
8
BLACK
6
CONTINUOUS
10
163.4019830000000013
20
-75.5848160000000036
11
163.5980169999999987
21
-75.5848160000000036
0
LINE
8
BLACK
6
CONTINUOUS
10
163.5980169999999987
20
-75.5848160000000036
11
163.7902839999999856
21
-75.6230599999999953
0
LINE
8
BLACK
6
CONTINUOUS
10
197.0980169999999987
20
-45.0048150000000007
11
197.290284999999983
21
-45.043059999999997
0
LINE
8
BLACK
6
CONTINUOUS
10
197.290284999999983
20
-45.043059999999997
11
197.4713969999999961
21
-45.1180789999999945
0
LINE
8
BLACK
6
CONTINUOUS
10
197.4713969999999961
20
-45.1180789999999945
11
197.4958139999999958
21
-45.1343940000000003
0
LINE
8
BLACK
6
CONTINUOUS
10
197.4958139999999958
20
-45.1343940000000003
11
197.6343939999999861
21
-45.2269889999999961
0
LINE
8
BLACK
6
CONTINUOUS
10
197.6343939999999861
20
-45.2269889999999961
11
197.7071069999999793
21
-45.2928929999999994
0
LINE
8
BLACK
6
CONTINUOUS
10
197.7071069999999793
20
-45.2928929999999994
11
199.414213999999987
21
-47.
0
LINE
8
BLACK
6
CONTINUOUS
10
199.414213999999987
20
-47.
11
202.
21
-47.
0
LINE
8
BLACK
6
CONTINUOUS
10
202.
20
-47.
11
202.0980169999999987
21
-47.0048150000000007
0
LINE
8
BLACK
6
CONTINUOUS
10
202.0980169999999987
20
-47.0048150000000007
11
202.290284999999983
21
-47.043059999999997
0
LINE
8
BLACK
6
CONTINUOUS
10
202.290284999999983
20
-47.043059999999997
11
202.4713969999999961
21
-47.1180789999999945
0
LINE
8
BLACK
6
CONTINUOUS
10
202.4713969999999961
20
-47.1180789999999945
11
202.6343929999999887
21
-47.2269900000000007
0
LINE
8
BLACK
6
CONTINUOUS
10
202.6343929999999887
20
-47.2269900000000007
11
202.7730099999999993
21
-47.3656069999999971
0
LINE
8
BLACK
6
CONTINUOUS
10
202.7730099999999993
20
-47.3656069999999971
11
202.8819209999999771
21
-47.5286029999999968
0
LINE
8
BLACK
6
CONTINUOUS
10
202.8819209999999771
20
-47.5286029999999968
11
202.956940000000003
21
-47.7097149999999957
0
LINE
8
BLACK
6
CONTINUOUS
10
202.956940000000003
20
-47.7097149999999957
11
202.9951849999999922
21
-47.9019830000000013
0
LINE
8
BLACK
6
CONTINUOUS
10
202.9951849999999922
20
-47.9019830000000013
11
202.9951849999999922
21
-48.0980169999999987
0
LINE
8
BLACK
6
CONTINUOUS
10
202.9951849999999922
20
-48.0980169999999987
11
202.956940000000003
21
-48.2902849999999972
0
LINE
8
BLACK
6
CONTINUOUS
10
202.956940000000003
20
-48.2902849999999972
11
202.8819209999999771
21
-48.4713969999999961
0
LINE
8
BLACK
6
CONTINUOUS
10
202.8819209999999771
20
-48.4713969999999961
11
202.7730099999999993
21
-48.6343929999999958
0
LINE
8
BLACK
6
CONTINUOUS
10
202.7730099999999993
20
-48.6343929999999958
11
202.6343929999999887
21
-48.7730099999999993
0
LINE
8
BLACK
6
CONTINUOUS
10
202.6343929999999887
20
-48.7730099999999993
11
202.4713969999999961
21
-48.8819209999999984
0
LINE
8
BLACK
6
CONTINUOUS
10
202.4713969999999961
20
-48.8819209999999984
11
202.290284999999983
21
-48.9569399999999959
0
LINE
8
BLACK
6
CONTINUOUS
10
202.290284999999983
20
-48.9569399999999959
11
202.0980169999999987
21
-48.9951849999999993
0
LINE
8
BLACK
6
CONTINUOUS
10
202.0980169999999987
20
-48.9951849999999993
11
202.
21
-49.
0
LINE
8
BLACK
6
CONTINUOUS
10
202.
20
-49.
11
199.
21
-49.
0
LINE
8
BLACK
6
CONTINUOUS
10
199.
20
-49.
11
198.9019830000000013
21
-48.9951849999999993
0
LINE
8
BLACK
6
CONTINUOUS
10
198.9019830000000013
20
-48.9951849999999993
11
198.7097149999999885
21
-48.9569399999999959
0
LINE
8
BLACK
6
CONTINUOUS
10
198.7097149999999885
20
-48.9569399999999959
11
198.5286030000000039
21
-48.8819209999999984
0
LINE
8
BLACK
6
CONTINUOUS
10
198.5286030000000039
20
-48.8819209999999984
11
198.4333129999999983
21
-48.818249999999999
0
LINE
8
BLACK
6
CONTINUOUS
10
198.4333129999999983
20
-48.818249999999999
11
198.3656059999999854
21
-48.7730099999999993
0
LINE
8
BLACK
6
CONTINUOUS
10
198.3656059999999854
20
-48.7730099999999993
11
198.2928929999999923
21
-48.7071070000000006
0
LINE
8
BLACK
6
CONTINUOUS
10
198.2928929999999923
20
-48.7071070000000006
11
196.5857859999999846
21
-47.
0
LINE
8
BLACK
6
CONTINUOUS
10
196.5857859999999846
20
-47.
11
183.414213999999987
21
-47.
0
LINE
8
BLACK
6
CONTINUOUS
10
183.414213999999987
20
-47.
11
182.2071069999999793
21
-48.2071070000000006
0
LINE
8
BLACK
6
CONTINUOUS
10
182.2071069999999793
20
-48.2071070000000006
11
182.1343939999999861
21
-48.2730109999999968
0
LINE
8
BLACK
6
CONTINUOUS
10
182.1343939999999861
20
-48.2730109999999968
11
182.0180119999999988
21
-48.3507729999999967
0
LINE
8
BLACK
6
CONTINUOUS
10
182.0180119999999988
20
-48.3507729999999967
11
181.9713969999999961
21
-48.3819209999999984
0
LINE
8
BLACK
6
CONTINUOUS
10
181.9713969999999961
20
-48.3819209999999984
11
181.790284999999983
21
-48.4569399999999959
0
LINE
8
BLACK
6
CONTINUOUS
10
181.790284999999983
20
-48.4569399999999959
11
181.5980169999999987
21
-48.4951849999999993
0
LINE
8
BLACK
6
CONTINUOUS
10
181.5980169999999987
20
-48.4951849999999993
11
181.5
21
-48.5
0
LINE
8
BLACK
6
CONTINUOUS
10
181.5
20
-48.5
11
177.4142129999999895
21
-48.5
0
LINE
8
BLACK
6
CONTINUOUS
10
177.4142129999999895
20
-48.5
11
172.5
21
-53.4142129999999966
0
LINE
8
BLACK
6
CONTINUOUS
10
172.5
20
-53.4142129999999966
11
172.5
21
-68.
0
LINE
8
BLACK
6
CONTINUOUS
10
172.5
20
-68.
11
172.4951849999999922
21
-68.0980169999999987
0
LINE
8
BLACK
6
CONTINUOUS
10
172.4951849999999922
20
-68.0980169999999987
11
172.4643779999999822
21
-68.2528930000000003
0
LINE
8
BLACK
6
CONTINUOUS
10
172.4643779999999822
20
-68.2528930000000003
11
172.456940000000003
21
-68.2902849999999972
0
LINE
8
BLACK
6
CONTINUOUS
10
172.456940000000003
20
-68.2902849999999972
11
172.3819210000000055
21
-68.4713969999999961
0
LINE
8
BLACK
6
CONTINUOUS
10
172.3819210000000055
20
-68.4713969999999961
11
172.2730099999999993
21
-68.6343940000000003
0
LINE
8
BLACK
6
CONTINUOUS
10
172.2730099999999993
20
-68.6343940000000003
11
172.2071059999999818
21
-68.7071069999999935
0
LINE
8
BLACK
6
CONTINUOUS
10
172.2071059999999818
20
-68.7071069999999935
11
168.7071069999999793
21
-72.2071069999999935
0
LINE
8
BLACK
6
CONTINUOUS
10
168.7071069999999793
20
-72.2071069999999935
11
168.6343939999999861
21
-72.2730109999999968
0
LINE
8
BLACK
6
CONTINUOUS
10
168.6343939999999861
20
-72.2730109999999968
11
168.5180119999999988
21
-72.3507730000000038
0
LINE
8
BLACK
6
CONTINUOUS
10
168.5180119999999988
20
-72.3507730000000038
11
168.4713969999999961
21
-72.3819209999999913
0
LINE
8
BLACK
6
CONTINUOUS
10
168.4713969999999961
20
-72.3819209999999913
11
168.290284999999983
21
-72.456940000000003
0
LINE
8
BLACK
6
CONTINUOUS
10
168.290284999999983
20
-72.456940000000003
11
168.0980169999999987
21
-72.4951849999999922
0
LINE
8
BLACK
6
CONTINUOUS
10
168.0980169999999987
20
-72.4951849999999922
11
168.
21
-72.5
0
LINE
8
BLACK
6
CONTINUOUS
10
168.
20
-72.5
11
163.5
21
-72.5
0
LINE
8
BLACK
6
CONTINUOUS
10
163.5
20
-72.5
11
163.4019830000000013
21
-72.4951849999999922
0
LINE
8
BLACK
6
CONTINUOUS
10
163.4019830000000013
20
-72.4951849999999922
11
163.2097149999999885
21
-72.456940000000003
0
LINE
8
BLACK
6
CONTINUOUS
10
163.2097149999999885
20
-72.456940000000003
11
163.0286030000000039
21
-72.3819209999999913
0
LINE
8
BLACK
6
CONTINUOUS
10
163.0286030000000039
20
-72.3819209999999913
11
162.8656069999999829
21
-72.2730099999999993
0
LINE
8
BLACK
6
CONTINUOUS
10
162.8656069999999829
20
-72.2730099999999993
11
162.7269900000000007
21
-72.1343930000000029
0
LINE
8
BLACK
6
CONTINUOUS
10
162.7269900000000007
20
-72.1343930000000029
11
162.6180789999999945
21
-71.9713969999999961
0
LINE
8
BLACK
6
CONTINUOUS
10
162.6180789999999945
20
-71.9713969999999961
11
162.543059999999997
21
-71.7902849999999972
0
LINE
8
BLACK
6
CONTINUOUS
10
162.543059999999997
20
-71.7902849999999972
11
162.5048149999999794
21
-71.5980169999999987
0
LINE
8
BLACK
6
CONTINUOUS
10
162.5048149999999794
20
-71.5980169999999987
11
162.5048149999999794
21
-71.4019830000000013
0
LINE
8
BLACK
6
CONTINUOUS
10
162.5048149999999794
20
-71.4019830000000013
11
162.543059999999997
21
-71.2097150000000028
0
LINE
8
BLACK
6
CONTINUOUS
10
162.543059999999997
20
-71.2097150000000028
11
162.6180789999999945
21
-71.0286029999999897
0
LINE
8
BLACK
6
CONTINUOUS
10
162.6180789999999945
20
-71.0286029999999897
11
162.7269900000000007
21
-70.8656069999999971
0
LINE
8
BLACK
6
CONTINUOUS
10
162.7269900000000007
20
-70.8656069999999971
11
162.8656069999999829
21
-70.7269900000000007
0
LINE
8
BLACK
6
CONTINUOUS
10
162.8656069999999829
20
-70.7269900000000007
11
163.0286030000000039
21
-70.6180789999999945
0
LINE
8
BLACK
6
CONTINUOUS
10
163.0286030000000039
20
-70.6180789999999945
11
163.2097149999999885
21
-70.543059999999997
0
LINE
8
BLACK
6
CONTINUOUS
10
163.2097149999999885
20
-70.543059999999997
11
163.4019830000000013
21
-70.5048149999999936
0
LINE
8
BLACK
6
CONTINUOUS
10
163.4019830000000013
20
-70.5048149999999936
11
163.5
21
-70.5
0
LINE
8
BLACK
6
CONTINUOUS
10
163.5
20
-70.5
11
167.5857859999999846
21
-70.5
0
LINE
8
BLACK
6
CONTINUOUS
10
167.5857859999999846
20
-70.5
11
170.5
21
-67.5857859999999988
0
LINE
8
BLACK
6
CONTINUOUS
10
170.5
20
-67.5857859999999988
11
170.5
21
-53.
0
LINE
8
BLACK
6
CONTINUOUS
10
170.5
20
-53.
11
170.5048149999999794
21
-52.9019829999999942
0
LINE
8
BLACK
6
CONTINUOUS
10
170.5048149999999794
20
-52.9019829999999942
11
170.543059999999997
21
-52.7097149999999957
0
LINE
8
BLACK
6
CONTINUOUS
10
170.543059999999997
20
-52.7097149999999957
11
170.6180789999999945
21
-52.5286029999999968
0
LINE
8
BLACK
6
CONTINUOUS
10
170.6180789999999945
20
-52.5286029999999968
11
170.6492259999999987
21
-52.4819869999999966
0
LINE
8
BLACK
6
CONTINUOUS
10
170.6492259999999987
20
-52.4819869999999966
11
170.7269890000000032
21
-52.3656059999999997
0
LINE
8
BLACK
6
CONTINUOUS
10
170.7269890000000032
20
-52.3656059999999997
11
170.7928929999999923
21
-52.2928929999999994
0
LINE
8
BLACK
6
CONTINUOUS
10
170.7928929999999923
20
-52.2928929999999994
11
176.2928939999999898
21
-46.7928929999999994
0
LINE
8
BLACK
6
CONTINUOUS
10
176.2928939999999898
20
-46.7928929999999994
11
176.3656069999999829
21
-46.7269889999999961
0
LINE
8
BLACK
6
CONTINUOUS
10
176.3656069999999829
20
-46.7269889999999961
11
176.5286040000000014
21
-46.618077999999997
0
LINE
8
BLACK
6
CONTINUOUS
10
176.5286040000000014
20
-46.618077999999997
11
176.709715999999986
21
-46.5430589999999995
0
LINE
8
BLACK
6
CONTINUOUS
10
176.709715999999986
20
-46.5430589999999995
11
176.7952319999999986
21
-46.5260490000000004
0
LINE
8
BLACK
6
CONTINUOUS
10
176.7952319999999986
20
-46.5260490000000004
11
176.9019830000000013
21
-46.5048150000000007
0
LINE
8
BLACK
6
CONTINUOUS
10
176.9019830000000013
20
-46.5048150000000007
11
177.
21
-46.5
0
LINE
8
BLACK
6
CONTINUOUS
10
177.
20
-46.5
11
181.0857859999999846
21
-46.5
0
LINE
8
BLACK
6
CONTINUOUS
10
181.0857859999999846
20
-46.5
11
182.2928929999999923
21
-45.2928929999999994
0
LINE
8
BLACK
6
CONTINUOUS
10
182.2928929999999923
20
-45.2928929999999994
11
182.3656059999999854
21
-45.2269900000000007
0
LINE
8
BLACK
6
CONTINUOUS
10
182.3656059999999854
20
-45.2269900000000007
11
182.5286030000000039
21
-45.1180789999999945
0
LINE
8
BLACK
6
CONTINUOUS
10
182.5286030000000039
20
-45.1180789999999945
11
182.7097149999999885
21
-45.043059999999997
0
LINE
8
BLACK
6
CONTINUOUS
10
182.7097149999999885
20
-45.043059999999997
11
182.9019830000000013
21
-45.0048150000000007
0
LINE
8
BLACK
6
CONTINUOUS
10
182.9019830000000013
20
-45.0048150000000007
11
183.
21
-45.
0
LINE
8
BLACK
6
CONTINUOUS
10
183.
20
-45.
11
197.
21
-45.
0
LINE
8
BLACK
6
CONTINUOUS
10
197.
20
-45.
11
197.0980169999999987
21
-45.0048150000000007
0
LINE
8
BLACK
6
CONTINUOUS
10
198.5980169999999987
20
-42.0048150000000007
11
198.790284999999983
21
-42.043059999999997
0
LINE
8
BLACK
6
CONTINUOUS
10
198.790284999999983
20
-42.043059999999997
11
198.9713969999999961
21
-42.1180790000000016
0
LINE
8
BLACK
6
CONTINUOUS
10
198.9713969999999961
20
-42.1180790000000016
11
199.0180119999999988
21
-42.1492259999999987
0
LINE
8
BLACK
6
CONTINUOUS
10
199.0180119999999988
20
-42.1492259999999987
11
199.1343939999999861
21
-42.2269889999999961
0
LINE
8
BLACK
6
CONTINUOUS
10
199.1343939999999861
20
-42.2269889999999961
11
199.2071069999999793
21
-42.2928929999999994
0
LINE
8
BLACK
6
CONTINUOUS
10
199.2071069999999793
20
-42.2928929999999994
11
200.914213999999987
21
-44.
0
LINE
8
BLACK
6
CONTINUOUS
10
200.914213999999987
20
-44.
11
204.
21
-44.
0
LINE
8
BLACK
6
CONTINUOUS
10
204.
20
-44.
11
204.0980169999999987
21
-44.0048150000000007
0
LINE
8
BLACK
6
CONTINUOUS
10
204.0980169999999987
20
-44.0048150000000007
11
204.290284999999983
21
-44.043059999999997
0
LINE
8
BLACK
6
CONTINUOUS
10
204.290284999999983
20
-44.043059999999997
11
204.4713969999999961
21
-44.1180789999999945
0
LINE
8
BLACK
6
CONTINUOUS
10
204.4713969999999961
20
-44.1180789999999945
11
204.5180119999999988
21
-44.1492259999999987
0
LINE
8
BLACK
6
CONTINUOUS
10
204.5180119999999988
20
-44.1492259999999987
11
204.6343939999999861
21
-44.2269889999999961
0
LINE
8
BLACK
6
CONTINUOUS
10
204.6343939999999861
20
-44.2269889999999961
11
204.7071069999999793
21
-44.2928929999999994
0
LINE
8
BLACK
6
CONTINUOUS
10
204.7071069999999793
20
-44.2928929999999994
11
205.7071069999999793
21
-45.2928939999999969
0
LINE
8
BLACK
6
CONTINUOUS
10
205.7071069999999793
20
-45.2928939999999969
11
205.7730109999999968
21
-45.3656069999999971
0
LINE
8
BLACK
6
CONTINUOUS
10
205.7730109999999968
20
-45.3656069999999971
11
205.881922000000003
21
-45.5286040000000014
0
LINE
8
BLACK
6
CONTINUOUS
10
205.881922000000003
20
-45.5286040000000014
11
205.9569410000000005
21
-45.7097160000000002
0
LINE
8
BLACK
6
CONTINUOUS
10
205.9569410000000005
20
-45.7097160000000002
11
205.9951849999999922
21
-45.9019830000000013
0
LINE
8
BLACK
6
CONTINUOUS
10
205.9951849999999922
20
-45.9019830000000013
11
205.9951849999999922
21
-46.0980169999999987
0
LINE
8
BLACK
6
CONTINUOUS
10
205.9951849999999922
20
-46.0980169999999987
11
205.9569410000000005
21
-46.2902849999999972
0
LINE
8
BLACK
6
CONTINUOUS
10
205.9569410000000005
20
-46.2902849999999972
11
205.881922000000003
21
-46.4713969999999961
0
LINE
8
BLACK
6
CONTINUOUS
10
205.881922000000003
20
-46.4713969999999961
11
205.7730109999999968
21
-46.6343940000000003
0
LINE
8
BLACK
6
CONTINUOUS
10
205.7730109999999968
20
-46.6343940000000003
11
205.6343939999999861
21
-46.7730109999999968
0
LINE
8
BLACK
6
CONTINUOUS
10
205.6343939999999861
20
-46.7730109999999968
11
205.4713969999999961
21
-46.8819219999999959
0
LINE
8
BLACK
6
CONTINUOUS
10
205.4713969999999961
20
-46.8819219999999959
11
205.290284999999983
21
-46.9569410000000005
0
LINE
8
BLACK
6
CONTINUOUS
10
205.290284999999983
20
-46.9569410000000005
11
205.0980169999999987
21
-46.9951849999999993
0
LINE
8
BLACK
6
CONTINUOUS
10
205.0980169999999987
20
-46.9951849999999993
11
204.9019830000000013
21
-46.9951849999999993
0
LINE
8
BLACK
6
CONTINUOUS
10
204.9019830000000013
20
-46.9951849999999993
11
204.709715999999986
21
-46.9569410000000005
0
LINE
8
BLACK
6
CONTINUOUS
10
204.709715999999986
20
-46.9569410000000005
11
204.5286040000000014
21
-46.8819219999999959
0
LINE
8
BLACK
6
CONTINUOUS
10
204.5286040000000014
20
-46.8819219999999959
11
204.3656069999999829
21
-46.7730109999999968
0
LINE
8
BLACK
6
CONTINUOUS
10
204.3656069999999829
20
-46.7730109999999968
11
204.2928939999999898
21
-46.7071070000000006
0
LINE
8
BLACK
6
CONTINUOUS
10
204.2928939999999898
20
-46.7071070000000006
11
203.5857859999999846
21
-46.
0
LINE
8
BLACK
6
CONTINUOUS
10
203.5857859999999846
20
-46.
11
200.5
21
-46.
0
LINE
8
BLACK
6
CONTINUOUS
10
200.5
20
-46.
11
200.4019830000000013
21
-45.9951849999999993
0
LINE
8
BLACK
6
CONTINUOUS
10
200.4019830000000013
20
-45.9951849999999993
11
200.2097149999999885
21
-45.9569399999999959
0
LINE
8
BLACK
6
CONTINUOUS
10
200.2097149999999885
20
-45.9569399999999959
11
200.0286030000000039
21
-45.8819209999999984
0
LINE
8
BLACK
6
CONTINUOUS
10
200.0286030000000039
20
-45.8819209999999984
11
199.8794889999999782
21
-45.7822859999999991
0
LINE
8
BLACK
6
CONTINUOUS
10
199.8794889999999782
20
-45.7822859999999991
11
199.8656059999999854
21
-45.7730099999999993
0
LINE
8
BLACK
6
CONTINUOUS
10
199.8656059999999854
20
-45.7730099999999993
11
199.7928929999999923
21
-45.7071070000000006
0
LINE
8
BLACK
6
CONTINUOUS
10
199.7928929999999923
20
-45.7071070000000006
11
198.0857859999999846
21
-44.
0
LINE
8
BLACK
6
CONTINUOUS
10
198.0857859999999846
20
-44.
11
180.914213999999987
21
-44.
0
LINE
8
BLACK
6
CONTINUOUS
10
180.914213999999987
20
-44.
11
179.7071069999999793
21
-45.2071070000000006
0
LINE
8
BLACK
6
CONTINUOUS
10
179.7071069999999793
20
-45.2071070000000006
11
179.6343939999999861
21
-45.2730109999999968
0
LINE
8
BLACK
6
CONTINUOUS
10
179.6343939999999861
20
-45.2730109999999968
11
179.5180119999999988
21
-45.3507729999999967
0
LINE
8
BLACK
6
CONTINUOUS
10
179.5180119999999988
20
-45.3507729999999967
11
179.4713969999999961
21
-45.3819209999999984
0
LINE
8
BLACK
6
CONTINUOUS
10
179.4713969999999961
20
-45.3819209999999984
11
179.290284999999983
21
-45.4569399999999959
0
LINE
8
BLACK
6
CONTINUOUS
10
179.290284999999983
20
-45.4569399999999959
11
179.0980169999999987
21
-45.4951849999999993
0
LINE
8
BLACK
6
CONTINUOUS
10
179.0980169999999987
20
-45.4951849999999993
11
179.
21
-45.5
0
LINE
8
BLACK
6
CONTINUOUS
10
179.
20
-45.5
11
176.4142129999999895
21
-45.5
0
LINE
8
BLACK
6
CONTINUOUS
10
176.4142129999999895
20
-45.5
11
169.
21
-52.9142129999999966
0
LINE
8
BLACK
6
CONTINUOUS
10
169.
20
-52.9142129999999966
11
169.
21
-67.
0
LINE
8
BLACK
6
CONTINUOUS
10
169.
20
-67.
11
168.9951849999999922
21
-67.0980169999999987
0
LINE
8
BLACK
6
CONTINUOUS
10
168.9951849999999922
20
-67.0980169999999987
11
168.9569410000000005
21
-67.2902839999999998
0
LINE
8
BLACK
6
CONTINUOUS
10
168.9569410000000005
20
-67.2902839999999998
11
168.881922000000003
21
-67.4713959999999986
0
LINE
8
BLACK
6
CONTINUOUS
10
168.881922000000003
20
-67.4713959999999986
11
168.7730109999999968
21
-67.6343930000000029
0
LINE
8
BLACK
6
CONTINUOUS
10
168.7730109999999968
20
-67.6343930000000029
11
168.7071069999999793
21
-67.707105999999996
0
LINE
8
BLACK
6
CONTINUOUS
10
168.7071069999999793
20
-67.707105999999996
11
166.7471069999999997
21
-69.6671070000000014
0
LINE
8
BLACK
6
CONTINUOUS
10
166.7471069999999997
20
-69.6671070000000014
11
166.6743940000000066
21
-69.7330109999999905
0
LINE
8
BLACK
6
CONTINUOUS
10
166.6743940000000066
20
-69.7330109999999905
11
166.5580119999999908
21
-69.8107729999999975
0
LINE
8
BLACK
6
CONTINUOUS
10
166.5580119999999908
20
-69.8107729999999975
11
166.5113969999999881
21
-69.8419209999999993
0
LINE
8
BLACK
6
CONTINUOUS
10
166.5113969999999881
20
-69.8419209999999993
11
166.3302850000000035
21
-69.9169399999999968
0
LINE
8
BLACK
6
CONTINUOUS
10
166.3302850000000035
20
-69.9169399999999968
11
166.1380169999999907
21
-69.9551850000000002
0
LINE
8
BLACK
6
CONTINUOUS
10
166.1380169999999907
20
-69.9551850000000002
11
166.039999999999992
21
-69.9599999999999937
0
LINE
8
BLACK
6
CONTINUOUS
10
166.039999999999992
20
-69.9599999999999937
11
163.5
21
-69.9599999999999937
0
LINE
8
BLACK
6
CONTINUOUS
10
163.5
20
-69.9599999999999937
11
163.4019830000000013
21
-69.9551850000000002
0
LINE
8
BLACK
6
CONTINUOUS
10
163.4019830000000013
20
-69.9551850000000002
11
163.2097149999999885
21
-69.9169399999999968
0
LINE
8
BLACK
6
CONTINUOUS
10
163.2097149999999885
20
-69.9169399999999968
11
163.0286030000000039
21
-69.8419209999999993
0
LINE
8
BLACK
6
CONTINUOUS
10
163.0286030000000039
20
-69.8419209999999993
11
162.8656069999999829
21
-69.7330099999999931
0
LINE
8
BLACK
6
CONTINUOUS
10
162.8656069999999829
20
-69.7330099999999931
11
162.7269900000000007
21
-69.5943929999999966
0
LINE
8
BLACK
6
CONTINUOUS
10
162.7269900000000007
20
-69.5943929999999966
11
162.6180789999999945
21
-69.4313969999999898
0
LINE
8
BLACK
6
CONTINUOUS
10
162.6180789999999945
20
-69.4313969999999898
11
162.543059999999997
21
-69.250284999999991
0
LINE
8
BLACK
6
CONTINUOUS
10
162.543059999999997
20
-69.250284999999991
11
162.5048149999999794
21
-69.0580169999999924
0
LINE
8
BLACK
6
CONTINUOUS
10
162.5048149999999794
20
-69.0580169999999924
11
162.5048149999999794
21
-68.8619829999999951
0
LINE
8
BLACK
6
CONTINUOUS
10
162.5048149999999794
20
-68.8619829999999951
11
162.543059999999997
21
-68.6697149999999965
0
LINE
8
BLACK
6
CONTINUOUS
10
162.543059999999997
20
-68.6697149999999965
11
162.6180789999999945
21
-68.4886029999999977
0
LINE
8
BLACK
6
CONTINUOUS
10
162.6180789999999945
20
-68.4886029999999977
11
162.7269900000000007
21
-68.3256069999999909
0
LINE
8
BLACK
6
CONTINUOUS
10
162.7269900000000007
20
-68.3256069999999909
11
162.8656069999999829
21
-68.1869899999999944
0
LINE
8
BLACK
6
CONTINUOUS
10
162.8656069999999829
20
-68.1869899999999944
11
163.0286030000000039
21
-68.0780790000000025
0
LINE
8
BLACK
6
CONTINUOUS
10
163.0286030000000039
20
-68.0780790000000025
11
163.2097149999999885
21
-68.0030599999999907
0
LINE
8
BLACK
6
CONTINUOUS
10
163.2097149999999885
20
-68.0030599999999907
11
163.4019830000000013
21
-67.9648150000000015
0
LINE
8
BLACK
6
CONTINUOUS
10
163.4019830000000013
20
-67.9648150000000015
11
163.5
21
-67.9599999999999937
0
LINE
8
BLACK
6
CONTINUOUS
10
163.5
20
-67.9599999999999937
11
165.6257860000000051
21
-67.9599999999999937
0
LINE
8
BLACK
6
CONTINUOUS
10
165.6257860000000051
20
-67.9599999999999937
11
167.
21
-66.5857859999999988
0
LINE
8
BLACK
6
CONTINUOUS
10
167.
20
-66.5857859999999988
11
167.
21
-52.5
0
LINE
8
BLACK
6
CONTINUOUS
10
167.
20
-52.5
11
167.0048149999999794
21
-52.4019829999999942
0
LINE
8
BLACK
6
CONTINUOUS
10
167.0048149999999794
20
-52.4019829999999942
11
167.043059999999997
21
-52.2097149999999957
0
LINE
8
BLACK
6
CONTINUOUS
10
167.043059999999997
20
-52.2097149999999957
11
167.1180789999999945
21
-52.0286029999999968
0
LINE
8
BLACK
6
CONTINUOUS
10
167.1180789999999945
20
-52.0286029999999968
11
167.1492259999999987
21
-51.9819869999999966
0
LINE
8
BLACK
6
CONTINUOUS
10
167.1492259999999987
20
-51.9819869999999966
11
167.2269890000000032
21
-51.8656059999999997
0
LINE
8
BLACK
6
CONTINUOUS
10
167.2269890000000032
20
-51.8656059999999997
11
167.2928929999999923
21
-51.7928929999999994
0
LINE
8
BLACK
6
CONTINUOUS
10
167.2928929999999923
20
-51.7928929999999994
11
175.2928929999999923
21
-43.7928939999999969
0
LINE
8
BLACK
6
CONTINUOUS
10
175.2928929999999923
20
-43.7928939999999969
11
175.3656059999999854
21
-43.7269900000000007
0
LINE
8
BLACK
6
CONTINUOUS
10
175.3656059999999854
20
-43.7269900000000007
11
175.5286030000000039
21
-43.6180789999999945
0
LINE
8
BLACK
6
CONTINUOUS
10
175.5286030000000039
20
-43.6180789999999945
11
175.7097149999999885
21
-43.543059999999997
0
LINE
8
BLACK
6
CONTINUOUS
10
175.7097149999999885
20
-43.543059999999997
11
175.9019830000000013
21
-43.5048150000000007
0
LINE
8
BLACK
6
CONTINUOUS
10
175.9019830000000013
20
-43.5048150000000007
11
176.
21
-43.5
0
LINE
8
BLACK
6
CONTINUOUS
10
176.
20
-43.5
11
178.5857859999999846
21
-43.5
0
LINE
8
BLACK
6
CONTINUOUS
10
178.5857859999999846
20
-43.5
11
179.7928929999999923
21
-42.2928929999999994
0
LINE
8
BLACK
6
CONTINUOUS
10
179.7928929999999923
20
-42.2928929999999994
11
179.8656059999999854
21
-42.2269900000000007
0
LINE
8
BLACK
6
CONTINUOUS
10
179.8656059999999854
20
-42.2269900000000007
11
180.0286030000000039
21
-42.1180790000000016
0
LINE
8
BLACK
6
CONTINUOUS
10
180.0286030000000039
20
-42.1180790000000016
11
180.2097149999999885
21
-42.043059999999997
0
LINE
8
BLACK
6
CONTINUOUS
10
180.2097149999999885
20
-42.043059999999997
11
180.4019830000000013
21
-42.0048150000000007
0
LINE
8
BLACK
6
CONTINUOUS
10
180.4019830000000013
20
-42.0048150000000007
11
180.5
21
-42.
0
LINE
8
BLACK
6
CONTINUOUS
10
180.5
20
-42.
11
198.5
21
-42.
0
LINE
8
BLACK
6
CONTINUOUS
10
198.5
20
-42.
11
198.5980169999999987
21
-42.0048150000000007
0
LINE
8
BLACK
6
CONTINUOUS
10
210.2467419999999834
20
-66.3466009999999926
11
210.4006869999999765
21
-66.4103669999999937
0
LINE
8
BLACK
6
CONTINUOUS
10
210.4006869999999765
20
-66.4103669999999937
11
210.5392339999999933
21
-66.5029409999999928
0
LINE
8
BLACK
6
CONTINUOUS
10
210.5392339999999933
20
-66.5029409999999928
11
210.6570590000000038
21
-66.6207660000000033
0
LINE
8
BLACK
6
CONTINUOUS
10
210.6570590000000038
20
-66.6207660000000033
11
210.7496329999999887
21
-66.7593129999999917
0
LINE
8
BLACK
6
CONTINUOUS
10
210.7496329999999887
20
-66.7593129999999917
11
210.813399000000004
21
-66.913257999999999
0
LINE
8
BLACK
6
CONTINUOUS
10
210.813399000000004
20
-66.913257999999999
11
210.8459069999999826
21
-67.0766849999999977
0
LINE
8
BLACK
6
CONTINUOUS
10
210.8459069999999826
20
-67.0766849999999977
11
210.8459069999999826
21
-67.2433149999999955
0
LINE
8
BLACK
6
CONTINUOUS
10
210.8459069999999826
20
-67.2433149999999955
11
210.813399000000004
21
-67.4067419999999942
0
LINE
8
BLACK
6
CONTINUOUS
10
210.813399000000004
20
-67.4067419999999942
11
210.7496329999999887
21
-67.5606870000000015
0
LINE
8
BLACK
6
CONTINUOUS
10
210.7496329999999887
20
-67.5606870000000015
11
210.6570590000000038
21
-67.6992339999999899
0
LINE
8
BLACK
6
CONTINUOUS
10
210.6570590000000038
20
-67.6992339999999899
11
210.5392339999999933
21
-67.8170590000000004
0
LINE
8
BLACK
6
CONTINUOUS
10
210.5392339999999933
20
-67.8170590000000004
11
210.4006869999999765
21
-67.9096329999999995
0
LINE
8
BLACK
6
CONTINUOUS
10
210.4006869999999765
20
-67.9096329999999995
11
210.2467419999999834
21
-67.9733990000000006
0
LINE
8
BLACK
6
CONTINUOUS
10
210.2467419999999834
20
-67.9733990000000006
11
210.0833149999999989
21
-68.0059069999999934
0
LINE
8
BLACK
6
CONTINUOUS
10
210.0833149999999989
20
-68.0059069999999934
11
209.9166850000000011
21
-68.0059069999999934
0
LINE
8
BLACK
6
CONTINUOUS
10
209.9166850000000011
20
-68.0059069999999934
11
209.7532579999999882
21
-67.9733990000000006
0
LINE
8
BLACK
6
CONTINUOUS
10
209.7532579999999882
20
-67.9733990000000006
11
209.5993129999999951
21
-67.9096329999999995
0
LINE
8
BLACK
6
CONTINUOUS
10
209.5993129999999951
20
-67.9096329999999995
11
209.4607659999999782
21
-67.8170590000000004
0
LINE
8
BLACK
6
CONTINUOUS
10
209.4607659999999782
20
-67.8170590000000004
11
209.3429409999999962
21
-67.6992339999999899
0
LINE
8
BLACK
6
CONTINUOUS
10
209.3429409999999962
20
-67.6992339999999899
11
209.2503669999999829
21
-67.5606870000000015
0
LINE
8
BLACK
6
CONTINUOUS
10
209.2503669999999829
20
-67.5606870000000015
11
209.186600999999996
21
-67.4067419999999942
0
LINE
8
BLACK
6
CONTINUOUS
10
209.186600999999996
20
-67.4067419999999942
11
209.1540929999999889
21
-67.2433149999999955
0
LINE
8
BLACK
6
CONTINUOUS
10
209.1540929999999889
20
-67.2433149999999955
11
209.1540929999999889
21
-67.0766849999999977
0
LINE
8
BLACK
6
CONTINUOUS
10
209.1540929999999889
20
-67.0766849999999977
11
209.186600999999996
21
-66.913257999999999
0
LINE
8
BLACK
6
CONTINUOUS
10
209.186600999999996
20
-66.913257999999999
11
209.2503669999999829
21
-66.7593129999999917
0
LINE
8
BLACK
6
CONTINUOUS
10
209.2503669999999829
20
-66.7593129999999917
11
209.3429409999999962
21
-66.6207660000000033
0
LINE
8
BLACK
6
CONTINUOUS
10
209.3429409999999962
20
-66.6207660000000033
11
209.4607659999999782
21
-66.5029409999999928
0
LINE
8
BLACK
6
CONTINUOUS
10
209.4607659999999782
20
-66.5029409999999928
11
209.5993129999999951
21
-66.4103669999999937
0
LINE
8
BLACK
6
CONTINUOUS
10
209.5993129999999951
20
-66.4103669999999937
11
209.7532579999999882
21
-66.3466009999999926
0
LINE
8
BLACK
6
CONTINUOUS
10
209.7532579999999882
20
-66.3466009999999926
11
209.9166850000000011
21
-66.3140929999999997
0
LINE
8
BLACK
6
CONTINUOUS
10
209.9166850000000011
20
-66.3140929999999997
11
210.0833149999999989
21
-66.3140929999999997
0
LINE
8
BLACK
6
CONTINUOUS
10
210.0833149999999989
20
-66.3140929999999997
11
210.2467419999999834
21
-66.3466009999999926
0
LINE
8
BLACK
6
CONTINUOUS
10
210.2467419999999834
20
-63.8066010000000006
11
210.4006869999999765
21
-63.8703669999999946
0
LINE
8
BLACK
6
CONTINUOUS
10
210.4006869999999765
20
-63.8703669999999946
11
210.5392339999999933
21
-63.9629409999999936
0
LINE
8
BLACK
6
CONTINUOUS
10
210.5392339999999933
20
-63.9629409999999936
11
210.6570590000000038
21
-64.080765999999997
0
LINE
8
BLACK
6
CONTINUOUS
10
210.6570590000000038
20
-64.080765999999997
11
210.7496329999999887
21
-64.2193129999999996
0
LINE
8
BLACK
6
CONTINUOUS
10
210.7496329999999887
20
-64.2193129999999996
11
210.813399000000004
21
-64.3732579999999928
0
LINE
8
BLACK
6
CONTINUOUS
10
210.813399000000004
20
-64.3732579999999928
11
210.8459069999999826
21
-64.5366849999999914
0
LINE
8
BLACK
6
CONTINUOUS
10
210.8459069999999826
20
-64.5366849999999914
11
210.8459069999999826
21
-64.7033150000000035
0
LINE
8
BLACK
6
CONTINUOUS
10
210.8459069999999826
20
-64.7033150000000035
11
210.813399000000004
21
-64.8667420000000021
0
LINE
8
BLACK
6
CONTINUOUS
10
210.813399000000004
20
-64.8667420000000021
11
210.7496329999999887
21
-65.0206869999999952
0
LINE
8
BLACK
6
CONTINUOUS
10
210.7496329999999887
20
-65.0206869999999952
11
210.6570590000000038
21
-65.1592339999999979
0
LINE
8
BLACK
6
CONTINUOUS
10
210.6570590000000038
20
-65.1592339999999979
11
210.5392339999999933
21
-65.2770589999999942
0
LINE
8
BLACK
6
CONTINUOUS
10
210.5392339999999933
20
-65.2770589999999942
11
210.4006869999999765
21
-65.3696329999999932
0
LINE
8
BLACK
6
CONTINUOUS
10
210.4006869999999765
20
-65.3696329999999932
11
210.2467419999999834
21
-65.4333989999999943
0
LINE
8
BLACK
6
CONTINUOUS
10
210.2467419999999834
20
-65.4333989999999943
11
210.0833149999999989
21
-65.4659070000000014
0
LINE
8
BLACK
6
CONTINUOUS
10
210.0833149999999989
20
-65.4659070000000014
11
209.9166850000000011
21
-65.4659070000000014
0
LINE
8
BLACK
6
CONTINUOUS
10
209.9166850000000011
20
-65.4659070000000014
11
209.7532579999999882
21
-65.4333989999999943
0
LINE
8
BLACK
6
CONTINUOUS
10
209.7532579999999882
20
-65.4333989999999943
11
209.5993129999999951
21
-65.3696329999999932
0
LINE
8
BLACK
6
CONTINUOUS
10
209.5993129999999951
20
-65.3696329999999932
11
209.4607659999999782
21
-65.2770589999999942
0
LINE
8
BLACK
6
CONTINUOUS
10
209.4607659999999782
20
-65.2770589999999942
11
209.3429409999999962
21
-65.1592339999999979
0
LINE
8
BLACK
6
CONTINUOUS
10
209.3429409999999962
20
-65.1592339999999979
11
209.2503669999999829
21
-65.0206869999999952
0
LINE
8
BLACK
6
CONTINUOUS
10
209.2503669999999829
20
-65.0206869999999952
11
209.186600999999996
21
-64.8667420000000021
0
LINE
8
BLACK
6
CONTINUOUS
10
209.186600999999996
20
-64.8667420000000021
11
209.1540929999999889
21
-64.7033150000000035
0
LINE
8
BLACK
6
CONTINUOUS
10
209.1540929999999889
20
-64.7033150000000035
11
209.1540929999999889
21
-64.5366849999999914
0
LINE
8
BLACK
6
CONTINUOUS
10
209.1540929999999889
20
-64.5366849999999914
11
209.186600999999996
21
-64.3732579999999928
0
LINE
8
BLACK
6
CONTINUOUS
10
209.186600999999996
20
-64.3732579999999928
11
209.2503669999999829
21
-64.2193129999999996
0
LINE
8
BLACK
6
CONTINUOUS
10
209.2503669999999829
20
-64.2193129999999996
11
209.3429409999999962
21
-64.080765999999997
0
LINE
8
BLACK
6
CONTINUOUS
10
209.3429409999999962
20
-64.080765999999997
11
209.4607659999999782
21
-63.9629409999999936
0
LINE
8
BLACK
6
CONTINUOUS
10
209.4607659999999782
20
-63.9629409999999936
11
209.5993129999999951
21
-63.8703669999999946
0
LINE
8
BLACK
6
CONTINUOUS
10
209.5993129999999951
20
-63.8703669999999946
11
209.7532579999999882
21
-63.8066010000000006
0
LINE
8
BLACK
6
CONTINUOUS
10
209.7532579999999882
20
-63.8066010000000006
11
209.9166850000000011
21
-63.7740930000000006
0
LINE
8
BLACK
6
CONTINUOUS
10
209.9166850000000011
20
-63.7740930000000006
11
210.0833149999999989
21
-63.7740930000000006
0
LINE
8
BLACK
6
CONTINUOUS
10
210.0833149999999989
20
-63.7740930000000006
11
210.2467419999999834
21
-63.8066010000000006
0
LINE
8
BLACK
6
CONTINUOUS
10
210.2467419999999834
20
-61.2666009999999943
11
210.4006869999999765
21
-61.3303669999999954
0
LINE
8
BLACK
6
CONTINUOUS
10
210.4006869999999765
20
-61.3303669999999954
11
210.5392339999999933
21
-61.4229409999999945
0
LINE
8
BLACK
6
CONTINUOUS
10
210.5392339999999933
20
-61.4229409999999945
11
210.6570590000000038
21
-61.5407659999999979
0
LINE
8
BLACK
6
CONTINUOUS
10
210.6570590000000038
20
-61.5407659999999979
11
210.7496329999999887
21
-61.6793130000000005
0
LINE
8
BLACK
6
CONTINUOUS
10
210.7496329999999887
20
-61.6793130000000005
11
210.813399000000004
21
-61.8332580000000007
0
LINE
8
BLACK
6
CONTINUOUS
10
210.813399000000004
20
-61.8332580000000007
11
210.8459069999999826
21
-61.9966849999999994
0
LINE
8
BLACK
6
CONTINUOUS
10
210.8459069999999826
20
-61.9966849999999994
11
210.8459069999999826
21
-62.1633149999999972
0
LINE
8
BLACK
6
CONTINUOUS
10
210.8459069999999826
20
-62.1633149999999972
11
210.813399000000004
21
-62.3267419999999959
0
LINE
8
BLACK
6
CONTINUOUS
10
210.813399000000004
20
-62.3267419999999959
11
210.7496329999999887
21
-62.4806869999999961
0
LINE
8
BLACK
6
CONTINUOUS
10
210.7496329999999887
20
-62.4806869999999961
11
210.6570590000000038
21
-62.6192339999999987
0
LINE
8
BLACK
6
CONTINUOUS
10
210.6570590000000038
20
-62.6192339999999987
11
210.5392339999999933
21
-62.737058999999995
0
LINE
8
BLACK
6
CONTINUOUS
10
210.5392339999999933
20
-62.737058999999995
11
210.4006869999999765
21
-62.8296329999999941
0
LINE
8
BLACK
6
CONTINUOUS
10
210.4006869999999765
20
-62.8296329999999941
11
210.2467419999999834
21
-62.8933989999999952
0
LINE
8
BLACK
6
CONTINUOUS
10
210.2467419999999834
20
-62.8933989999999952
11
210.0833149999999989
21
-62.9259069999999952
0
LINE
8
BLACK
6
CONTINUOUS
10
210.0833149999999989
20
-62.9259069999999952
11
209.9166850000000011
21
-62.9259069999999952
0
LINE
8
BLACK
6
CONTINUOUS
10
209.9166850000000011
20
-62.9259069999999952
11
209.7532579999999882
21
-62.8933989999999952
0
LINE
8
BLACK
6
CONTINUOUS
10
209.7532579999999882
20
-62.8933989999999952
11
209.5993129999999951
21
-62.8296329999999941
0
LINE
8
BLACK
6
CONTINUOUS
10
209.5993129999999951
20
-62.8296329999999941
11
209.4607659999999782
21
-62.737058999999995
0
LINE
8
BLACK
6
CONTINUOUS
10
209.4607659999999782
20
-62.737058999999995
11
209.3429409999999962
21
-62.6192339999999987
0
LINE
8
BLACK
6
CONTINUOUS
10
209.3429409999999962
20
-62.6192339999999987
11
209.2503669999999829
21
-62.4806869999999961
0
LINE
8
BLACK
6
CONTINUOUS
10
209.2503669999999829
20
-62.4806869999999961
11
209.186600999999996
21
-62.3267419999999959
0
LINE
8
BLACK
6
CONTINUOUS
10
209.186600999999996
20
-62.3267419999999959
11
209.1540929999999889
21
-62.1633149999999972
0
LINE
8
BLACK
6
CONTINUOUS
10
209.1540929999999889
20
-62.1633149999999972
11
209.1540929999999889
21
-61.9966849999999994
0
LINE
8
BLACK
6
CONTINUOUS
10
209.1540929999999889
20
-61.9966849999999994
11
209.186600999999996
21
-61.8332580000000007
0
LINE
8
BLACK
6
CONTINUOUS
10
209.186600999999996
20
-61.8332580000000007
11
209.2503669999999829
21
-61.6793130000000005
0
LINE
8
BLACK
6
CONTINUOUS
10
209.2503669999999829
20
-61.6793130000000005
11
209.3429409999999962
21
-61.5407659999999979
0
LINE
8
BLACK
6
CONTINUOUS
10
209.3429409999999962
20
-61.5407659999999979
11
209.4607659999999782
21
-61.4229409999999945
0
LINE
8
BLACK
6
CONTINUOUS
10
209.4607659999999782
20
-61.4229409999999945
11
209.5993129999999951
21
-61.3303669999999954
0
LINE
8
BLACK
6
CONTINUOUS
10
209.5993129999999951
20
-61.3303669999999954
11
209.7532579999999882
21
-61.2666009999999943
0
LINE
8
BLACK
6
CONTINUOUS
10
209.7532579999999882
20
-61.2666009999999943
11
209.9166850000000011
21
-61.2340929999999943
0
LINE
8
BLACK
6
CONTINUOUS
10
209.9166850000000011
20
-61.2340929999999943
11
210.0833149999999989
21
-61.2340929999999943
0
LINE
8
BLACK
6
CONTINUOUS
10
210.0833149999999989
20
-61.2340929999999943
11
210.2467419999999834
21
-61.2666009999999943
0
LINE
8
BLACK
6
CONTINUOUS
10
210.2467419999999834
20
-58.7266009999999952
11
210.4006869999999765
21
-58.7903669999999963
0
LINE
8
BLACK
6
CONTINUOUS
10
210.4006869999999765
20
-58.7903669999999963
11
210.5392339999999933
21
-58.8829409999999953
0
LINE
8
BLACK
6
CONTINUOUS
10
210.5392339999999933
20
-58.8829409999999953
11
210.6570590000000038
21
-59.0007659999999987
0
LINE
8
BLACK
6
CONTINUOUS
10
210.6570590000000038
20
-59.0007659999999987
11
210.7496329999999887
21
-59.1393129999999942
0
LINE
8
BLACK
6
CONTINUOUS
10
210.7496329999999887
20
-59.1393129999999942
11
210.813399000000004
21
-59.2932579999999945
0
LINE
8
BLACK
6
CONTINUOUS
10
210.813399000000004
20
-59.2932579999999945
11
210.8459069999999826
21
-59.4566850000000002
0
LINE
8
BLACK
6
CONTINUOUS
10
210.8459069999999826
20
-59.4566850000000002
11
210.8459069999999826
21
-59.6233149999999981
0
LINE
8
BLACK
6
CONTINUOUS
10
210.8459069999999826
20
-59.6233149999999981
11
210.813399000000004
21
-59.7867419999999967
0
LINE
8
BLACK
6
CONTINUOUS
10
210.813399000000004
20
-59.7867419999999967
11
210.7496329999999887
21
-59.9406869999999969
0
LINE
8
BLACK
6
CONTINUOUS
10
210.7496329999999887
20
-59.9406869999999969
11
210.6570590000000038
21
-60.0792339999999996
0
LINE
8
BLACK
6
CONTINUOUS
10
210.6570590000000038
20
-60.0792339999999996
11
210.5392339999999933
21
-60.1970589999999959
0
LINE
8
BLACK
6
CONTINUOUS
10
210.5392339999999933
20
-60.1970589999999959
11
210.4006869999999765
21
-60.2896329999999949
0
LINE
8
BLACK
6
CONTINUOUS
10
210.4006869999999765
20
-60.2896329999999949
11
210.2467419999999834
21
-60.353398999999996
0
LINE
8
BLACK
6
CONTINUOUS
10
210.2467419999999834
20
-60.353398999999996
11
210.0833149999999989
21
-60.385906999999996
0
LINE
8
BLACK
6
CONTINUOUS
10
210.0833149999999989
20
-60.385906999999996
11
209.9166850000000011
21
-60.385906999999996
0
LINE
8
BLACK
6
CONTINUOUS
10
209.9166850000000011
20
-60.385906999999996
11
209.7532579999999882
21
-60.353398999999996
0
LINE
8
BLACK
6
CONTINUOUS
10
209.7532579999999882
20
-60.353398999999996
11
209.5993129999999951
21
-60.2896329999999949
0
LINE
8
BLACK
6
CONTINUOUS
10
209.5993129999999951
20
-60.2896329999999949
11
209.4607659999999782
21
-60.1970589999999959
0
LINE
8
BLACK
6
CONTINUOUS
10
209.4607659999999782
20
-60.1970589999999959
11
209.3429409999999962
21
-60.0792339999999996
0
LINE
8
BLACK
6
CONTINUOUS
10
209.3429409999999962
20
-60.0792339999999996
11
209.2503669999999829
21
-59.9406869999999969
0
LINE
8
BLACK
6
CONTINUOUS
10
209.2503669999999829
20
-59.9406869999999969
11
209.186600999999996
21
-59.7867419999999967
0
LINE
8
BLACK
6
CONTINUOUS
10
209.186600999999996
20
-59.7867419999999967
11
209.1540929999999889
21
-59.6233149999999981
0
LINE
8
BLACK
6
CONTINUOUS
10
209.1540929999999889
20
-59.6233149999999981
11
209.1540929999999889
21
-59.4566850000000002
0
LINE
8
BLACK
6
CONTINUOUS
10
209.1540929999999889
20
-59.4566850000000002
11
209.186600999999996
21
-59.2932579999999945
0
LINE
8
BLACK
6
CONTINUOUS
10
209.186600999999996
20
-59.2932579999999945
11
209.2503669999999829
21
-59.1393129999999942
0
LINE
8
BLACK
6
CONTINUOUS
10
209.2503669999999829
20
-59.1393129999999942
11
209.3429409999999962
21
-59.0007659999999987
0
LINE
8
BLACK
6
CONTINUOUS
10
209.3429409999999962
20
-59.0007659999999987
11
209.4607659999999782
21
-58.8829409999999953
0
LINE
8
BLACK
6
CONTINUOUS
10
209.4607659999999782
20
-58.8829409999999953
11
209.5993129999999951
21
-58.7903669999999963
0
LINE
8
BLACK
6
CONTINUOUS
10
209.5993129999999951
20
-58.7903669999999963
11
209.7532579999999882
21
-58.7266009999999952
0
LINE
8
BLACK
6
CONTINUOUS
10
209.7532579999999882
20
-58.7266009999999952
11
209.9166850000000011
21
-58.6940929999999952
0
LINE
8
BLACK
6
CONTINUOUS
10
209.9166850000000011
20
-58.6940929999999952
11
210.0833149999999989
21
-58.6940929999999952
0
LINE
8
BLACK
6
CONTINUOUS
10
210.0833149999999989
20
-58.6940929999999952
11
210.2467419999999834
21
-58.7266009999999952
0
LINE
8
BLACK
6
CONTINUOUS
10
210.2467419999999834
20
-56.186600999999996
11
210.4006869999999765
21
-56.2503669999999971
0
LINE
8
BLACK
6
CONTINUOUS
10
210.4006869999999765
20
-56.2503669999999971
11
210.5392339999999933
21
-56.3429409999999962
0
LINE
8
BLACK
6
CONTINUOUS
10
210.5392339999999933
20
-56.3429409999999962
11
210.6570590000000038
21
-56.4607659999999996
0
LINE
8
BLACK
6
CONTINUOUS
10
210.6570590000000038
20
-56.4607659999999996
11
210.7496329999999887
21
-56.5993129999999951
0
LINE
8
BLACK
6
CONTINUOUS
10
210.7496329999999887
20
-56.5993129999999951
11
210.813399000000004
21
-56.7532579999999953
0
LINE
8
BLACK
6
CONTINUOUS
10
210.813399000000004
20
-56.7532579999999953
11
210.8459069999999826
21
-56.916684999999994
0
LINE
8
BLACK
6
CONTINUOUS
10
210.8459069999999826
20
-56.916684999999994
11
210.8459069999999826
21
-57.0833149999999989
0
LINE
8
BLACK
6
CONTINUOUS
10
210.8459069999999826
20
-57.0833149999999989
11
210.813399000000004
21
-57.2467419999999976
0
LINE
8
BLACK
6
CONTINUOUS
10
210.813399000000004
20
-57.2467419999999976
11
210.7496329999999887
21
-57.4006869999999978
0
LINE
8
BLACK
6
CONTINUOUS
10
210.7496329999999887
20
-57.4006869999999978
11
210.6570590000000038
21
-57.5392340000000004
0
LINE
8
BLACK
6
CONTINUOUS
10
210.6570590000000038
20
-57.5392340000000004
11
210.5392339999999933
21
-57.6570589999999967
0
LINE
8
BLACK
6
CONTINUOUS
10
210.5392339999999933
20
-57.6570589999999967
11
210.4006869999999765
21
-57.7496329999999958
0
LINE
8
BLACK
6
CONTINUOUS
10
210.4006869999999765
20
-57.7496329999999958
11
210.2467419999999834
21
-57.8133989999999969
0
LINE
8
BLACK
6
CONTINUOUS
10
210.2467419999999834
20
-57.8133989999999969
11
210.0833149999999989
21
-57.8459069999999969
0
LINE
8
BLACK
6
CONTINUOUS
10
210.0833149999999989
20
-57.8459069999999969
11
209.9166850000000011
21
-57.8459069999999969
0
LINE
8
BLACK
6
CONTINUOUS
10
209.9166850000000011
20
-57.8459069999999969
11
209.7532579999999882
21
-57.8133989999999969
0
LINE
8
BLACK
6
CONTINUOUS
10
209.7532579999999882
20
-57.8133989999999969
11
209.5993129999999951
21
-57.7496329999999958
0
LINE
8
BLACK
6
CONTINUOUS
10
209.5993129999999951
20
-57.7496329999999958
11
209.4607659999999782
21
-57.6570589999999967
0
LINE
8
BLACK
6
CONTINUOUS
10
209.4607659999999782
20
-57.6570589999999967
11
209.3429409999999962
21
-57.5392340000000004
0
LINE
8
BLACK
6
CONTINUOUS
10
209.3429409999999962
20
-57.5392340000000004
11
209.2503669999999829
21
-57.4006869999999978
0
LINE
8
BLACK
6
CONTINUOUS
10
209.2503669999999829
20
-57.4006869999999978
11
209.186600999999996
21
-57.2467419999999976
0
LINE
8
BLACK
6
CONTINUOUS
10
209.186600999999996
20
-57.2467419999999976
11
209.1540929999999889
21
-57.0833149999999989
0
LINE
8
BLACK
6
CONTINUOUS
10
209.1540929999999889
20
-57.0833149999999989
11
209.1540929999999889
21
-56.916684999999994
0
LINE
8
BLACK
6
CONTINUOUS
10
209.1540929999999889
20
-56.916684999999994
11
209.186600999999996
21
-56.7532579999999953
0
LINE
8
BLACK
6
CONTINUOUS
10
209.186600999999996
20
-56.7532579999999953
11
209.2503669999999829
21
-56.5993129999999951
0
LINE
8
BLACK
6
CONTINUOUS
10
209.2503669999999829
20
-56.5993129999999951
11
209.3429409999999962
21
-56.4607659999999996
0
LINE
8
BLACK
6
CONTINUOUS
10
209.3429409999999962
20
-56.4607659999999996
11
209.4607659999999782
21
-56.3429409999999962
0
LINE
8
BLACK
6
CONTINUOUS
10
209.4607659999999782
20
-56.3429409999999962
11
209.5993129999999951
21
-56.2503669999999971
0
LINE
8
BLACK
6
CONTINUOUS
10
209.5993129999999951
20
-56.2503669999999971
11
209.7532579999999882
21
-56.186600999999996
0
LINE
8
BLACK
6
CONTINUOUS
10
209.7532579999999882
20
-56.186600999999996
11
209.9166850000000011
21
-56.154092999999996
0
LINE
8
BLACK
6
CONTINUOUS
10
209.9166850000000011
20
-56.154092999999996
11
210.0833149999999989
21
-56.154092999999996
0
LINE
8
BLACK
6
CONTINUOUS
10
210.0833149999999989
20
-56.154092999999996
11
210.2467419999999834
21
-56.186600999999996
0
LINE
8
BLACK
6
CONTINUOUS
10
191.1639749999999935
20
-37.542625000000001
11
192.2711359999999843
21
-37.618356999999996
0
LINE
8
BLACK
6
CONTINUOUS
10
192.2711359999999843
20
-37.618356999999996
11
193.375064999999978
21
-37.7318439999999953
0
LINE
8
BLACK
6
CONTINUOUS
10
193.375064999999978
20
-37.7318439999999953
11
194.4744769999999789
21
-37.8829549999999955
0
LINE
8
BLACK
6
CONTINUOUS
10
194.4744769999999789
20
-37.8829549999999955
11
195.5680879999999888
21
-38.0715129999999959
0
LINE
8
BLACK
6
CONTINUOUS
10
195.5680879999999888
20
-38.0715129999999959
11
196.6546249999999816
21
-38.2972979999999978
0
LINE
8
BLACK
6
CONTINUOUS
10
196.6546249999999816
20
-38.2972979999999978
11
197.7328189999999779
21
-38.5600459999999998
0
LINE
8
BLACK
6
CONTINUOUS
10
197.7328189999999779
20
-38.5600459999999998
11
198.8014149999999916
21
-38.8594529999999949
0
LINE
8
BLACK
6
CONTINUOUS
10
198.8014149999999916
20
-38.8594529999999949
11
199.8591649999999902
21
-39.1951679999999953
0
LINE
8
BLACK
6
CONTINUOUS
10
199.8591649999999902
20
-39.1951679999999953
11
200.9048369999999863
21
-39.5668000000000006
0
LINE
8
BLACK
6
CONTINUOUS
10
200.9048369999999863
20
-39.5668000000000006
11
201.9372119999999882
21
-39.9739149999999981
0
LINE
8
BLACK
6
CONTINUOUS
10
201.9372119999999882
20
-39.9739149999999981
11
202.9550849999999969
21
-40.4160399999999953
0
LINE
8
BLACK
6
CONTINUOUS
10
202.9550849999999969
20
-40.4160399999999953
11
203.9572699999999941
21
-40.8926579999999973
0
LINE
8
BLACK
6
CONTINUOUS
10
203.9572699999999941
20
-40.8926579999999973
11
204.9425990000000013
21
-41.4032139999999984
0
LINE
8
BLACK
6
CONTINUOUS
10
204.9425990000000013
20
-41.4032139999999984
11
205.9099219999999946
21
-41.9471130000000016
0
LINE
8
BLACK
6
CONTINUOUS
10
205.9099219999999946
20
-41.9471130000000016
11
206.8581119999999771
21
-42.5237199999999973
0
LINE
8
BLACK
6
CONTINUOUS
10
206.8581119999999771
20
-42.5237199999999973
11
207.7860629999999844
21
-43.1323639999999955
0
LINE
8
BLACK
6
CONTINUOUS
10
207.7860629999999844
20
-43.1323639999999955
11
208.6926939999999888
21
-43.7723329999999962
0
LINE
8
BLACK
6
CONTINUOUS
10
208.6926939999999888
20
-43.7723329999999962
11
209.5769469999999899
21
-44.4428829999999948
0
LINE
8
BLACK
6
CONTINUOUS
10
209.5769469999999899
20
-44.4428829999999948
11
210.4377910000000043
21
-45.1432319999999976
0
LINE
8
BLACK
6
CONTINUOUS
10
210.4377910000000043
20
-45.1432319999999976
11
211.2742219999999804
21
-45.872561999999995
0
LINE
8
BLACK
6
CONTINUOUS
10
211.2742219999999804
20
-45.872561999999995
11
212.0852659999999901
21
-46.6300239999999988
0
LINE
8
BLACK
6
CONTINUOUS
10
212.0852659999999901
20
-46.6300239999999988
11
212.8699759999999799
21
-47.4147339999999957
0
LINE
8
BLACK
6
CONTINUOUS
10
212.8699759999999799
20
-47.4147339999999957
11
213.6274379999999837
21
-48.2257779999999983
0
LINE
8
BLACK
6
CONTINUOUS
10
213.6274379999999837
20
-48.2257779999999983
11
214.3567679999999882
21
-49.0622089999999957
0
LINE
8
BLACK
6
CONTINUOUS
10
214.3567679999999882
20
-49.0622089999999957
11
215.0571169999999768
21
-49.9230529999999959
0
LINE
8
BLACK
6
CONTINUOUS
10
215.0571169999999768
20
-49.9230529999999959
11
215.7276669999999967
21
-50.807305999999997
0
LINE
8
BLACK
6
CONTINUOUS
10
215.7276669999999967
20
-50.807305999999997
11
216.3676359999999761
21
-51.7139369999999943
0
LINE
8
BLACK
6
CONTINUOUS
10
216.3676359999999761
20
-51.7139369999999943
11
216.9762800000000027
21
-52.6418879999999945
0
LINE
8
BLACK
6
CONTINUOUS
10
216.9762800000000027
20
-52.6418879999999945
11
217.5528869999999984
21
-53.5900779999999983
0
LINE
8
BLACK
6
CONTINUOUS
10
217.5528869999999984
20
-53.5900779999999983
11
218.0967859999999803
21
-54.5574009999999987
0
LINE
8
BLACK
6
CONTINUOUS
10
218.0967859999999803
20
-54.5574009999999987
11
218.6073419999999885
21
-55.5427299999999988
0
LINE
8
BLACK
6
CONTINUOUS
10
218.6073419999999885
20
-55.5427299999999988
11
219.0839599999999905
21
-56.544914999999996
0
LINE
8
BLACK
6
CONTINUOUS
10
219.0839599999999905
20
-56.544914999999996
11
219.5260849999999948
21
-57.5627879999999976
0
LINE
8
BLACK
6
CONTINUOUS
10
219.5260849999999948
20
-57.5627879999999976
11
219.9331999999999994
21
-58.5951629999999994
0
LINE
8
BLACK
6
CONTINUOUS
10
219.9331999999999994
20
-58.5951629999999994
11
220.3048319999999762
21
-59.6408349999999956
0
LINE
8
BLACK
6
CONTINUOUS
10
220.3048319999999762
20
-59.6408349999999956
11
220.640546999999998
21
-60.6985849999999942
0
LINE
8
BLACK
6
CONTINUOUS
10
220.640546999999998
20
-60.6985849999999942
11
220.9399540000000002
21
-61.7671809999999937
0
LINE
8
BLACK
6
CONTINUOUS
10
220.9399540000000002
20
-61.7671809999999937
11
221.2027019999999879
21
-62.8453749999999971
0
LINE
8
BLACK
6
CONTINUOUS
10
221.2027019999999879
20
-62.8453749999999971
11
221.4284869999999898
21
-63.931911999999997
0
LINE
8
BLACK
6
CONTINUOUS
10
221.4284869999999898
20
-63.931911999999997
11
221.6170449999999903
21
-65.0255229999999926
0
LINE
8
BLACK
6
CONTINUOUS
10
221.6170449999999903
20
-65.0255229999999926
11
221.7681559999999763
21
-66.1249349999999936
0
LINE
8
BLACK
6
CONTINUOUS
10
221.7681559999999763
20
-66.1249349999999936
11
221.8816429999999968
21
-67.2288640000000015
0
LINE
8
BLACK
6
CONTINUOUS
10
221.8816429999999968
20
-67.2288640000000015
11
221.9573749999999848
21
-68.3360249999999922
0
LINE
8
BLACK
6
CONTINUOUS
10
221.9573749999999848
20
-68.3360249999999922
11
221.9952629999999942
21
-69.4451260000000019
0
LINE
8
BLACK
6
CONTINUOUS
10
221.9952629999999942
20
-69.4451260000000019
11
221.9952629999999942
21
-70.5548739999999981
0
LINE
8
BLACK
6
CONTINUOUS
10
221.9952629999999942
20
-70.5548739999999981
11
221.9573749999999848
21
-71.6639749999999935
0
LINE
8
BLACK
6
CONTINUOUS
10
221.9573749999999848
20
-71.6639749999999935
11
221.8816429999999968
21
-72.7711359999999985
0
LINE
8
BLACK
6
CONTINUOUS
10
221.8816429999999968
20
-72.7711359999999985
11
221.7681559999999763
21
-73.8750649999999922
0
LINE
8
BLACK
6
CONTINUOUS
10
221.7681559999999763
20
-73.8750649999999922
11
221.6170449999999903
21
-74.9744769999999932
0
LINE
8
BLACK
6
CONTINUOUS
10
221.6170449999999903
20
-74.9744769999999932
11
221.4284869999999898
21
-76.068088000000003
0
LINE
8
BLACK
6
CONTINUOUS
10
221.4284869999999898
20
-76.068088000000003
11
221.2027019999999879
21
-77.1546249999999958
0
LINE
8
BLACK
6
CONTINUOUS
10
221.2027019999999879
20
-77.1546249999999958
11
220.9399540000000002
21
-78.2328189999999921
0
LINE
8
BLACK
6
CONTINUOUS
10
220.9399540000000002
20
-78.2328189999999921
11
220.640546999999998
21
-79.3014149999999916
0
LINE
8
BLACK
6
CONTINUOUS
10
220.640546999999998
20
-79.3014149999999916
11
220.3048319999999762
21
-80.3591649999999902
0
LINE
8
BLACK
6
CONTINUOUS
10
220.3048319999999762
20
-80.3591649999999902
11
219.9331999999999994
21
-81.4048370000000006
0
LINE
8
BLACK
6
CONTINUOUS
10
219.9331999999999994
20
-81.4048370000000006
11
219.5260849999999948
21
-82.4372120000000024
0
LINE
8
BLACK
6
CONTINUOUS
10
219.5260849999999948
20
-82.4372120000000024
11
219.0839599999999905
21
-83.4550849999999969
0
LINE
8
BLACK
6
CONTINUOUS
10
219.0839599999999905
20
-83.4550849999999969
11
218.6073419999999885
21
-84.4572699999999941
0
LINE
8
BLACK
6
CONTINUOUS
10
218.6073419999999885
20
-84.4572699999999941
11
218.0967859999999803
21
-85.4425990000000013
0
LINE
8
BLACK
6
CONTINUOUS
10
218.0967859999999803
20
-85.4425990000000013
11
217.5528869999999984
21
-86.4099219999999946
0
LINE
8
BLACK
6
CONTINUOUS
10
217.5528869999999984
20
-86.4099219999999946
11
216.9762800000000027
21
-87.3581119999999913
0
LINE
8
BLACK
6
CONTINUOUS
10
216.9762800000000027
20
-87.3581119999999913
11
216.3676359999999761
21
-88.2860629999999986
0
LINE
8
BLACK
6
CONTINUOUS
10
216.3676359999999761
20
-88.2860629999999986
11
215.7276669999999967
21
-89.192694000000003
0
LINE
8
BLACK
6
CONTINUOUS
10
215.7276669999999967
20
-89.192694000000003
11
215.0571169999999768
21
-90.0769469999999899
0
LINE
8
BLACK
6
CONTINUOUS
10
215.0571169999999768
20
-90.0769469999999899
11
214.3567679999999882
21
-90.93779099999999
0
LINE
8
BLACK
6
CONTINUOUS
10
214.3567679999999882
20
-90.93779099999999
11
213.6274379999999837
21
-91.7742219999999946
0
LINE
8
BLACK
6
CONTINUOUS
10
213.6274379999999837
20
-91.7742219999999946
11
212.8699759999999799
21
-92.5852659999999901
0
LINE
8
BLACK
6
CONTINUOUS
10
212.8699759999999799
20
-92.5852659999999901
11
212.0852659999999901
21
-93.3699759999999941
0
LINE
8
BLACK
6
CONTINUOUS
10
212.0852659999999901
20
-93.3699759999999941
11
211.2742219999999804
21
-94.1274379999999979
0
LINE
8
BLACK
6
CONTINUOUS
10
211.2742219999999804
20
-94.1274379999999979
11
210.4377910000000043
21
-94.8567680000000024
0
LINE
8
BLACK
6
CONTINUOUS
10
210.4377910000000043
20
-94.8567680000000024
11
209.5769469999999899
21
-95.557116999999991
0
LINE
8
BLACK
6
CONTINUOUS
10
209.5769469999999899
20
-95.557116999999991
11
208.6926939999999888
21
-96.2276669999999967
0
LINE
8
BLACK
6
CONTINUOUS
10
208.6926939999999888
20
-96.2276669999999967
11
207.7860629999999844
21
-96.8676359999999903
0
LINE
8
BLACK
6
CONTINUOUS
10
207.7860629999999844
20
-96.8676359999999903
11
206.8581119999999771
21
-97.4762799999999885
0
LINE
8
BLACK
6
CONTINUOUS
10
206.8581119999999771
20
-97.4762799999999885
11
205.9099219999999946
21
-98.0528869999999984
0
LINE
8
BLACK
6
CONTINUOUS
10
205.9099219999999946
20
-98.0528869999999984
11
204.9425990000000013
21
-98.5967859999999945
0
LINE
8
BLACK
6
CONTINUOUS
10
204.9425990000000013
20
-98.5967859999999945
11
203.9572699999999941
21
-99.1073419999999885
0
LINE
8
BLACK
6
CONTINUOUS
10
203.9572699999999941
20
-99.1073419999999885
11
202.9550849999999969
21
-99.5839599999999905
0
LINE
8
BLACK
6
CONTINUOUS
10
202.9550849999999969
20
-99.5839599999999905
11
201.9372119999999882
21
-100.0260849999999948
0
LINE
8
BLACK
6
CONTINUOUS
10
201.9372119999999882
20
-100.0260849999999948
11
200.9048369999999863
21
-100.4331999999999994
0
LINE
8
BLACK
6
CONTINUOUS
10
200.9048369999999863
20
-100.4331999999999994
11
199.8591649999999902
21
-100.8048319999999904
0
LINE
8
BLACK
6
CONTINUOUS
10
199.8591649999999902
20
-100.8048319999999904
11
198.8014149999999916
21
-101.140546999999998
0
LINE
8
BLACK
6
CONTINUOUS
10
198.8014149999999916
20
-101.140546999999998
11
197.7328189999999779
21
-101.4399540000000002
0
LINE
8
BLACK
6
CONTINUOUS
10
197.7328189999999779
20
-101.4399540000000002
11
196.6546249999999816
21
-101.7027020000000022
0
LINE
8
BLACK
6
CONTINUOUS
10
196.6546249999999816
20
-101.7027020000000022
11
195.5680879999999888
21
-101.9284869999999898
0
LINE
8
BLACK
6
CONTINUOUS
10
195.5680879999999888
20
-101.9284869999999898
11
194.4744769999999789
21
-102.1170449999999903
0
LINE
8
BLACK
6
CONTINUOUS
10
194.4744769999999789
20
-102.1170449999999903
11
193.375064999999978
21
-102.2681559999999905
0
LINE
8
BLACK
6
CONTINUOUS
10
193.375064999999978
20
-102.2681559999999905
11
192.2711359999999843
21
-102.3816429999999968
0
LINE
8
BLACK
6
CONTINUOUS
10
192.2711359999999843
20
-102.3816429999999968
11
191.1639749999999935
21
-102.457374999999999
0
LINE
8
BLACK
6
CONTINUOUS
10
191.1639749999999935
20
-102.457374999999999
11
190.0548739999999839
21
-102.4952629999999942
0
LINE
8
BLACK
6
CONTINUOUS
10
190.0548739999999839
20
-102.4952629999999942
11
188.9451259999999877
21
-102.4952629999999942
0
LINE
8
BLACK
6
CONTINUOUS
10
188.9451259999999877
20
-102.4952629999999942
11
187.836024999999978
21
-102.457374999999999
0
LINE
8
BLACK
6
CONTINUOUS
10
187.836024999999978
20
-102.457374999999999
11
186.7288639999999873
21
-102.3816429999999968
0
LINE
8
BLACK
6
CONTINUOUS
10
186.7288639999999873
20
-102.3816429999999968
11
185.6249349999999936
21
-102.2681559999999905
0
LINE
8
BLACK
6
CONTINUOUS
10
185.6249349999999936
20
-102.2681559999999905
11
184.5255229999999926
21
-102.1170449999999903
0
LINE
8
BLACK
6
CONTINUOUS
10
184.5255229999999926
20
-102.1170449999999903
11
183.4319119999999828
21
-101.9284869999999898
0
LINE
8
BLACK
6
CONTINUOUS
10
183.4319119999999828
20
-101.9284869999999898
11
182.34537499999999
21
-101.7027020000000022
0
LINE
8
BLACK
6
CONTINUOUS
10
182.34537499999999
20
-101.7027020000000022
11
181.2671809999999937
21
-101.4399540000000002
0
LINE
8
BLACK
6
CONTINUOUS
10
181.2671809999999937
20
-101.4399540000000002
11
180.19858499999998
21
-101.140546999999998
0
LINE
8
BLACK
6
CONTINUOUS
10
180.19858499999998
20
-101.140546999999998
11
179.1408349999999814
21
-100.8048319999999904
0
LINE
8
BLACK
6
CONTINUOUS
10
179.1408349999999814
20
-100.8048319999999904
11
178.0951629999999852
21
-100.4331999999999994
0
LINE
8
BLACK
6
CONTINUOUS
10
178.0951629999999852
20
-100.4331999999999994
11
177.0627879999999834
21
-100.0260849999999948
0
LINE
8
BLACK
6
CONTINUOUS
10
177.0627879999999834
20
-100.0260849999999948
11
176.0449150000000031
21
-99.5839599999999905
0
LINE
8
BLACK
6
CONTINUOUS
10
176.0449150000000031
20
-99.5839599999999905
11
175.0427300000000059
21
-99.1073419999999885
0
LINE
8
BLACK
6
CONTINUOUS
10
175.0427300000000059
20
-99.1073419999999885
11
174.0574009999999987
21
-98.5967859999999945
0
LINE
8
BLACK
6
CONTINUOUS
10
174.0574009999999987
20
-98.5967859999999945
11
173.0900780000000054
21
-98.0528869999999984
0
LINE
8
BLACK
6
CONTINUOUS
10
173.0900780000000054
20
-98.0528869999999984
11
172.1418879999999945
21
-97.4762799999999885
0
LINE
8
BLACK
6
CONTINUOUS
10
172.1418879999999945
20
-97.4762799999999885
11
171.2139369999999872
21
-96.8676359999999903
0
LINE
8
BLACK
6
CONTINUOUS
10
171.2139369999999872
20
-96.8676359999999903
11
170.3073059999999828
21
-96.2276669999999967
0
LINE
8
BLACK
6
CONTINUOUS
10
170.3073059999999828
20
-96.2276669999999967
11
169.4230529999999817
21
-95.557116999999991
0
LINE
8
BLACK
6
CONTINUOUS
10
169.4230529999999817
20
-95.557116999999991
11
168.5622089999999957
21
-94.8567680000000024
0
LINE
8
BLACK
6
CONTINUOUS
10
168.5622089999999957
20
-94.8567680000000024
11
167.7257779999999912
21
-94.1274379999999979
0
LINE
8
BLACK
6
CONTINUOUS
10
167.7257779999999912
20
-94.1274379999999979
11
166.9147339999999815
21
-93.3699759999999941
0
LINE
8
BLACK
6
CONTINUOUS
10
166.9147339999999815
20
-93.3699759999999941
11
166.1300239999999917
21
-92.5852659999999901
0
LINE
8
BLACK
6
CONTINUOUS
10
166.1300239999999917
20
-92.5852659999999901
11
165.3725619999999878
21
-91.7742219999999946
0
LINE
8
BLACK
6
CONTINUOUS
10
165.3725619999999878
20
-91.7742219999999946
11
164.6432319999999834
21
-90.93779099999999
0
LINE
8
BLACK
6
CONTINUOUS
10
164.6432319999999834
20
-90.93779099999999
11
163.9428829999999948
21
-90.0769469999999899
0
LINE
8
BLACK
6
CONTINUOUS
10
163.9428829999999948
20
-90.0769469999999899
11
163.2723330000000033
21
-89.192694000000003
0
LINE
8
BLACK
6
CONTINUOUS
10
163.2723330000000033
20
-89.192694000000003
11
162.6323639999999955
21
-88.2860629999999986
0
LINE
8
BLACK
6
CONTINUOUS
10
162.6323639999999955
20
-88.2860629999999986
11
162.0237199999999973
21
-87.3581119999999913
0
LINE
8
BLACK
6
CONTINUOUS
10
162.0237199999999973
20
-87.3581119999999913
11
161.4471130000000016
21
-86.4099219999999946
0
LINE
8
BLACK
6
CONTINUOUS
10
161.4471130000000016
20
-86.4099219999999946
11
160.9032139999999913
21
-85.4425990000000013
0
LINE
8
BLACK
6
CONTINUOUS
10
160.9032139999999913
20
-85.4425990000000013
11
160.3926579999999831
21
-84.4572699999999941
0
LINE
8
BLACK
6
CONTINUOUS
10
160.3926579999999831
20
-84.4572699999999941
11
159.9160399999999811
21
-83.4550849999999969
0
LINE
8
BLACK
6
CONTINUOUS
10
159.9160399999999811
20
-83.4550849999999969
11
159.4739150000000052
21
-82.4372120000000024
0
LINE
8
BLACK
6
CONTINUOUS
10
159.4739150000000052
20
-82.4372120000000024
11
159.0668000000000006
21
-81.4048370000000006
0
LINE
8
BLACK
6
CONTINUOUS
10
159.0668000000000006
20
-81.4048370000000006
11
158.6951679999999953
21
-80.3591649999999902
0
LINE
8
BLACK
6
CONTINUOUS
10
158.6951679999999953
20
-80.3591649999999902
11
158.359453000000002
21
-79.3014149999999916
0
LINE
8
BLACK
6
CONTINUOUS
10
158.359453000000002
20
-79.3014149999999916
11
158.0600459999999998
21
-78.2328189999999921
0
LINE
8
BLACK
6
CONTINUOUS
10
158.0600459999999998
20
-78.2328189999999921
11
157.7972979999999836
21
-77.1546249999999958
0
LINE
8
BLACK
6
CONTINUOUS
10
157.7972979999999836
20
-77.1546249999999958
11
157.5715129999999817
21
-76.068088000000003
0
LINE
8
BLACK
6
CONTINUOUS
10
157.5715129999999817
20
-76.068088000000003
11
157.3829549999999813
21
-74.9744769999999932
0
LINE
8
BLACK
6
CONTINUOUS
10
157.3829549999999813
20
-74.9744769999999932
11
157.2318439999999953
21
-73.8750649999999922
0
LINE
8
BLACK
6
CONTINUOUS
10
157.2318439999999953
20
-73.8750649999999922
11
157.1183570000000032
21
-72.7711359999999985
0
LINE
8
BLACK
6
CONTINUOUS
10
157.1183570000000032
20
-72.7711359999999985
11
157.0426249999999868
21
-71.6639749999999935
0
LINE
8
BLACK
6
CONTINUOUS
10
157.0426249999999868
20
-71.6639749999999935
11
157.0047370000000058
21
-70.5548739999999981
0
LINE
8
BLACK
6
CONTINUOUS
10
157.0047370000000058
20
-70.5548739999999981
11
157.0047370000000058
21
-69.4555179999999979
0
LINE
8
BLACK
6
CONTINUOUS
10
157.0047370000000058
20
-69.4555179999999979
11
157.0047370000000058
21
-69.4451260000000019
0
LINE
8
BLACK
6
CONTINUOUS
10
157.0047370000000058
20
-69.4451260000000019
11
157.0426249999999868
21
-68.3360249999999922
0
LINE
8
BLACK
6
CONTINUOUS
10
157.0426249999999868
20
-68.3360249999999922
11
157.1183570000000032
21
-67.2288640000000015
0
LINE
8
BLACK
6
CONTINUOUS
10
157.1183570000000032
20
-67.2288640000000015
11
157.2318439999999953
21
-66.1249349999999936
0
LINE
8
BLACK
6
CONTINUOUS
10
157.2318439999999953
20
-66.1249349999999936
11
157.3829549999999813
21
-65.0255229999999926
0
LINE
8
BLACK
6
CONTINUOUS
10
157.3829549999999813
20
-65.0255229999999926
11
157.5715129999999817
21
-63.931911999999997
0
LINE
8
BLACK
6
CONTINUOUS
10
157.5715129999999817
20
-63.931911999999997
11
157.7972979999999836
21
-62.8453749999999971
0
LINE
8
BLACK
6
CONTINUOUS
10
157.7972979999999836
20
-62.8453749999999971
11
158.0600459999999998
21
-61.7671809999999937
0
LINE
8
BLACK
6
CONTINUOUS
10
158.0600459999999998
20
-61.7671809999999937
11
158.359453000000002
21
-60.6985849999999942
0
LINE
8
BLACK
6
CONTINUOUS
10
158.359453000000002
20
-60.6985849999999942
11
158.6951679999999953
21
-59.6408349999999956
0
LINE
8
BLACK
6
CONTINUOUS
10
158.6951679999999953
20
-59.6408349999999956
11
159.0668000000000006
21
-58.5951629999999994
0
LINE
8
BLACK
6
CONTINUOUS
10
159.0668000000000006
20
-58.5951629999999994
11
159.4739150000000052
21
-57.5627879999999976
0
LINE
8
BLACK
6
CONTINUOUS
10
159.4739150000000052
20
-57.5627879999999976
11
159.9160399999999811
21
-56.544914999999996
0
LINE
8
BLACK
6
CONTINUOUS
10
159.9160399999999811
20
-56.544914999999996
11
160.3926579999999831
21
-55.5427299999999988
0
LINE
8
BLACK
6
CONTINUOUS
10
160.3926579999999831
20
-55.5427299999999988
11
160.9032139999999913
21
-54.5574009999999987
0
LINE
8
BLACK
6
CONTINUOUS
10
160.9032139999999913
20
-54.5574009999999987
11
161.4471130000000016
21
-53.5900779999999983
0
LINE
8
BLACK
6
CONTINUOUS
10
161.4471130000000016
20
-53.5900779999999983
11
162.0237199999999973
21
-52.6418879999999945
0
LINE
8
BLACK
6
CONTINUOUS
10
162.0237199999999973
20
-52.6418879999999945
11
162.6323639999999955
21
-51.7139369999999943
0
LINE
8
BLACK
6
CONTINUOUS
10
162.6323639999999955
20
-51.7139369999999943
11
163.2723330000000033
21
-50.807305999999997
0
LINE
8
BLACK
6
CONTINUOUS
10
163.2723330000000033
20
-50.807305999999997
11
163.9428829999999948
21
-49.9230529999999959
0
LINE
8
BLACK
6
CONTINUOUS
10
163.9428829999999948
20
-49.9230529999999959
11
164.6432319999999834
21
-49.0622089999999957
0
LINE
8
BLACK
6
CONTINUOUS
10
164.6432319999999834
20
-49.0622089999999957
11
165.3725619999999878
21
-48.2257779999999983
0
LINE
8
BLACK
6
CONTINUOUS
10
165.3725619999999878
20
-48.2257779999999983
11
166.1300239999999917
21
-47.4147339999999957
0
LINE
8
BLACK
6
CONTINUOUS
10
166.1300239999999917
20
-47.4147339999999957
11
166.9147339999999815
21
-46.6300239999999988
0
LINE
8
BLACK
6
CONTINUOUS
10
166.9147339999999815
20
-46.6300239999999988
11
167.7257779999999912
21
-45.872561999999995
0
LINE
8
BLACK
6
CONTINUOUS
10
167.7257779999999912
20
-45.872561999999995
11
168.5622089999999957
21
-45.1432319999999976
0
LINE
8
BLACK
6
CONTINUOUS
10
168.5622089999999957
20
-45.1432319999999976
11
169.4230529999999817
21
-44.4428829999999948
0
LINE
8
BLACK
6
CONTINUOUS
10
169.4230529999999817
20
-44.4428829999999948
11
170.3073059999999828
21
-43.7723329999999962
0
LINE
8
BLACK
6
CONTINUOUS
10
170.3073059999999828
20
-43.7723329999999962
11
171.2139369999999872
21
-43.1323639999999955
0
LINE
8
BLACK
6
CONTINUOUS
10
171.2139369999999872
20
-43.1323639999999955
11
172.1418879999999945
21
-42.5237199999999973
0
LINE
8
BLACK
6
CONTINUOUS
10
172.1418879999999945
20
-42.5237199999999973
11
173.0900780000000054
21
-41.9471130000000016
0
LINE
8
BLACK
6
CONTINUOUS
10
173.0900780000000054
20
-41.9471130000000016
11
174.0574009999999987
21
-41.4032139999999984
0
LINE
8
BLACK
6
CONTINUOUS
10
174.0574009999999987
20
-41.4032139999999984
11
175.0427300000000059
21
-40.8926579999999973
0
LINE
8
BLACK
6
CONTINUOUS
10
175.0427300000000059
20
-40.8926579999999973
11
176.0449150000000031
21
-40.4160399999999953
0
LINE
8
BLACK
6
CONTINUOUS
10
176.0449150000000031
20
-40.4160399999999953
11
177.0627879999999834
21
-39.9739149999999981
0
LINE
8
BLACK
6
CONTINUOUS
10
177.0627879999999834
20
-39.9739149999999981
11
178.0951629999999852
21
-39.5668000000000006
0
LINE
8
BLACK
6
CONTINUOUS
10
178.0951629999999852
20
-39.5668000000000006
11
179.1408349999999814
21
-39.1951679999999953
0
LINE
8
BLACK
6
CONTINUOUS
10
179.1408349999999814
20
-39.1951679999999953
11
180.19858499999998
21
-38.8594529999999949
0
LINE
8
BLACK
6
CONTINUOUS
10
180.19858499999998
20
-38.8594529999999949
11
181.2671809999999937
21
-38.5600459999999998
0
LINE
8
BLACK
6
CONTINUOUS
10
181.2671809999999937
20
-38.5600459999999998
11
182.34537499999999
21
-38.2972979999999978
0
LINE
8
BLACK
6
CONTINUOUS
10
182.34537499999999
20
-38.2972979999999978
11
183.4319119999999828
21
-38.0715129999999959
0
LINE
8
BLACK
6
CONTINUOUS
10
183.4319119999999828
20
-38.0715129999999959
11
184.5255229999999926
21
-37.8829549999999955
0
LINE
8
BLACK
6
CONTINUOUS
10
184.5255229999999926
20
-37.8829549999999955
11
185.6249349999999936
21
-37.7318439999999953
0
LINE
8
BLACK
6
CONTINUOUS
10
185.6249349999999936
20
-37.7318439999999953
11
186.7288639999999873
21
-37.618356999999996
0
LINE
8
BLACK
6
CONTINUOUS
10
186.7288639999999873
20
-37.618356999999996
11
187.836024999999978
21
-37.542625000000001
0
LINE
8
BLACK
6
CONTINUOUS
10
187.836024999999978
20
-37.542625000000001
11
188.9451259999999877
21
-37.5047369999999987
0
LINE
8
BLACK
6
CONTINUOUS
10
188.9451259999999877
20
-37.5047369999999987
11
190.0548739999999839
21
-37.5047369999999987
0
LINE
8
BLACK
6
CONTINUOUS
10
190.0548739999999839
20
-37.5047369999999987
11
191.1639749999999935
21
-37.542625000000001
0
LINE
8
BLACK
6
CONTINUOUS
10
187.8672489999999868
20
-39.5388669999999962
11
186.781060999999994
21
-39.6165529999999961
0
LINE
8
BLACK
6
CONTINUOUS
10
186.781060999999994
20
-39.6165529999999961
11
185.6983369999999809
21
-39.7329579999999964
0
LINE
8
BLACK
6
CONTINUOUS
10
185.6983369999999809
20
-39.7329579999999964
11
184.6204579999999851
21
-39.8879329999999968
0
LINE
8
BLACK
6
CONTINUOUS
10
184.6204579999999851
20
-39.8879329999999968
11
183.5487969999999791
21
-40.0812820000000016
0
LINE
8
BLACK
6
CONTINUOUS
10
183.5487969999999791
20
-40.0812820000000016
11
182.4847199999999816
21
-40.3127579999999952
0
LINE
8
BLACK
6
CONTINUOUS
10
182.4847199999999816
20
-40.3127579999999952
11
181.4295829999999796
21
-40.5820659999999975
0
LINE
8
BLACK
6
CONTINUOUS
10
181.4295829999999796
20
-40.5820659999999975
11
180.3847309999999879
21
-40.888861999999996
0
LINE
8
BLACK
6
CONTINUOUS
10
180.3847309999999879
20
-40.888861999999996
11
179.3514940000000024
21
-41.2327559999999949
0
LINE
8
BLACK
6
CONTINUOUS
10
179.3514940000000024
20
-41.2327559999999949
11
178.3311909999999898
21
-41.6133099999999985
0
LINE
8
BLACK
6
CONTINUOUS
10
178.3311909999999898
20
-41.6133099999999985
11
177.3251199999999983
21
-42.0300379999999976
0
LINE
8
BLACK
6
CONTINUOUS
10
177.3251199999999983
20
-42.0300379999999976
11
176.3345640000000003
21
-42.4824100000000016
0
LINE
8
BLACK
6
CONTINUOUS
10
176.3345640000000003
20
-42.4824100000000016
11
175.3607859999999903
21
-42.9698479999999989
0
LINE
8
BLACK
6
CONTINUOUS
10
175.3607859999999903
20
-42.9698479999999989
11
174.4050259999999923
21
-43.4917329999999964
0
LINE
8
BLACK
6
CONTINUOUS
10
174.4050259999999923
20
-43.4917329999999964
11
173.4685020000000009
21
-44.0473980000000012
0
LINE
8
BLACK
6
CONTINUOUS
10
173.4685020000000009
20
-44.0473980000000012
11
172.5524079999999856
21
-44.6361360000000005
0
LINE
8
BLACK
6
CONTINUOUS
10
172.5524079999999856
20
-44.6361360000000005
11
171.6579109999999844
21
-45.2571960000000004
0
LINE
8
BLACK
6
CONTINUOUS
10
171.6579109999999844
20
-45.2571960000000004
11
170.7861509999999896
21
-45.9097870000000015
0
LINE
8
BLACK
6
CONTINUOUS
10
170.7861509999999896
20
-45.9097870000000015
11
169.9382389999999816
21
-46.5930779999999984
0
LINE
8
BLACK
6
CONTINUOUS
10
169.9382389999999816
20
-46.5930779999999984
11
169.115255999999988
21
-47.3061969999999974
0
LINE
8
BLACK
6
CONTINUOUS
10
169.115255999999988
20
-47.3061969999999974
11
168.3182500000000061
21
-48.0482359999999957
0
LINE
8
BLACK
6
CONTINUOUS
10
168.3182500000000061
20
-48.0482359999999957
11
167.5482360000000028
21
-48.818249999999999
0
LINE
8
BLACK
6
CONTINUOUS
10
167.5482360000000028
20
-48.818249999999999
11
166.8061969999999974
21
-49.6152559999999951
0
LINE
8
BLACK
6
CONTINUOUS
10
166.8061969999999974
20
-49.6152559999999951
11
166.0930779999999913
21
-50.4382389999999958
0
LINE
8
BLACK
6
CONTINUOUS
10
166.0930779999999913
20
-50.4382389999999958
11
165.4097869999999944
21
-51.2861509999999967
0
LINE
8
BLACK
6
CONTINUOUS
10
165.4097869999999944
20
-51.2861509999999967
11
164.7571959999999933
21
-52.1579109999999986
0
LINE
8
BLACK
6
CONTINUOUS
10
164.7571959999999933
20
-52.1579109999999986
11
164.1361359999999934
21
-53.0524079999999998
0
LINE
8
BLACK
6
CONTINUOUS
10
164.1361359999999934
20
-53.0524079999999998
11
163.547397999999987
21
-53.9685020000000009
0
LINE
8
BLACK
6
CONTINUOUS
10
163.547397999999987
20
-53.9685020000000009
11
162.9917329999999822
21
-54.9050259999999994
0
LINE
8
BLACK
6
CONTINUOUS
10
162.9917329999999822
20
-54.9050259999999994
11
162.4698479999999847
21
-55.8607859999999974
0
LINE
8
BLACK
6
CONTINUOUS
10
162.4698479999999847
20
-55.8607859999999974
11
161.9824099999999873
21
-56.8345640000000003
0
LINE
8
BLACK
6
CONTINUOUS
10
161.9824099999999873
20
-56.8345640000000003
11
161.5300379999999905
21
-57.8251199999999983
0
LINE
8
BLACK
6
CONTINUOUS
10
161.5300379999999905
20
-57.8251199999999983
11
161.1133099999999843
21
-58.8311909999999969
0
LINE
8
BLACK
6
CONTINUOUS
10
161.1133099999999843
20
-58.8311909999999969
11
160.7327559999999949
21
-59.8514939999999953
0
LINE
8
BLACK
6
CONTINUOUS
10
160.7327559999999949
20
-59.8514939999999953
11
160.3888619999999889
21
-60.884730999999995
0
LINE
8
BLACK
6
CONTINUOUS
10
160.3888619999999889
20
-60.884730999999995
11
160.0820659999999975
21
-61.9295829999999938
0
LINE
8
BLACK
6
CONTINUOUS
10
160.0820659999999975
20
-61.9295829999999938
11
159.8127580000000023
21
-62.9847199999999958
0
LINE
8
BLACK
6
CONTINUOUS
10
159.8127580000000023
20
-62.9847199999999958
11
159.5812819999999874
21
-64.0487969999999933
0
LINE
8
BLACK
6
CONTINUOUS
10
159.5812819999999874
20
-64.0487969999999933
11
159.3879330000000039
21
-65.1204579999999993
0
LINE
8
BLACK
6
CONTINUOUS
10
159.3879330000000039
20
-65.1204579999999993
11
159.2329579999999964
21
-66.1983369999999951
0
LINE
8
BLACK
6
CONTINUOUS
10
159.2329579999999964
20
-66.1983369999999951
11
159.1165529999999819
21
-67.281060999999994
0
LINE
8
BLACK
6
CONTINUOUS
10
159.1165529999999819
20
-67.281060999999994
11
159.038866999999982
21
-68.367249000000001
0
LINE
8
BLACK
6
CONTINUOUS
10
159.038866999999982
20
-68.367249000000001
11
159.
21
-69.4555179999999979
0
LINE
8
BLACK
6
CONTINUOUS
10
159.
20
-69.4555179999999979
11
159.
21
-69.5857859999999988
0
LINE
8
BLACK
6
CONTINUOUS
10
159.
20
-69.5857859999999988
11
159.7071069999999793
21
-70.2928939999999898
0
LINE
8
BLACK
6
CONTINUOUS
10
159.7071069999999793
20
-70.2928939999999898
11
159.7730109999999968
21
-70.3656069999999971
0
LINE
8
BLACK
6
CONTINUOUS
10
159.7730109999999968
20
-70.3656069999999971
11
159.881922000000003
21
-70.5286040000000014
0
LINE
8
BLACK
6
CONTINUOUS
10
159.881922000000003
20
-70.5286040000000014
11
159.9569410000000005
21
-70.7097160000000002
0
LINE
8
BLACK
6
CONTINUOUS
10
159.9569410000000005
20
-70.7097160000000002
11
159.9780930000000012
21
-70.8160570000000007
0
LINE
8
BLACK
6
CONTINUOUS
10
159.9780930000000012
20
-70.8160570000000007
11
159.9951849999999922
21
-70.9019830000000013
0
LINE
8
BLACK
6
CONTINUOUS
10
159.9951849999999922
20
-70.9019830000000013
11
160.
21
-71.
0
LINE
8
BLACK
6
CONTINUOUS
10
160.
20
-71.
11
160.
21
-71.5857859999999988
0
LINE
8
BLACK
6
CONTINUOUS
10
160.
20
-71.5857859999999988
11
161.454213999999979
21
-73.039999999999992
0
LINE
8
BLACK
6
CONTINUOUS
10
161.454213999999979
20
-73.039999999999992
11
163.5
21
-73.039999999999992
0
LINE
8
BLACK
6
CONTINUOUS
10
163.5
20
-73.039999999999992
11
163.5980169999999987
21
-73.0448149999999998
0
LINE
8
BLACK
6
CONTINUOUS
10
163.5980169999999987
20
-73.0448149999999998
11
163.790284999999983
21
-73.0830600000000032
0
LINE
8
BLACK
6
CONTINUOUS
10
163.790284999999983
20
-73.0830600000000032
11
163.9713969999999961
21
-73.1580790000000007
0
LINE
8
BLACK
6
CONTINUOUS
10
163.9713969999999961
20
-73.1580790000000007
11
164.1343929999999887
21
-73.2669899999999927
0
LINE
8
BLACK
6
CONTINUOUS
10
164.1343929999999887
20
-73.2669899999999927
11
164.2730099999999993
21
-73.4056070000000034
0
LINE
8
BLACK
6
CONTINUOUS
10
164.2730099999999993
20
-73.4056070000000034
11
164.3819210000000055
21
-73.568602999999996
0
LINE
8
BLACK
6
CONTINUOUS
10
164.3819210000000055
20
-73.568602999999996
11
164.456940000000003
21
-73.7497149999999948
0
LINE
8
BLACK
6
CONTINUOUS
10
164.456940000000003
20
-73.7497149999999948
11
164.4951849999999922
21
-73.9419829999999934
0
LINE
8
BLACK
6
CONTINUOUS
10
164.4951849999999922
20
-73.9419829999999934
11
164.4951849999999922
21
-74.1380169999999907
0
LINE
8
BLACK
6
CONTINUOUS
10
164.4951849999999922
20
-74.1380169999999907
11
164.456940000000003
21
-74.3302850000000035
0
LINE
8
BLACK
6
CONTINUOUS
10
164.456940000000003
20
-74.3302850000000035
11
164.3819210000000055
21
-74.5113970000000023
0
LINE
8
BLACK
6
CONTINUOUS
10
164.3819210000000055
20
-74.5113970000000023
11
164.2730099999999993
21
-74.6743929999999949
0
LINE
8
BLACK
6
CONTINUOUS
10
164.2730099999999993
20
-74.6743929999999949
11
164.1343929999999887
21
-74.8130099999999914
0
LINE
8
BLACK
6
CONTINUOUS
10
164.1343929999999887
20
-74.8130099999999914
11
163.9713969999999961
21
-74.9219209999999975
0
LINE
8
BLACK
6
CONTINUOUS
10
163.9713969999999961
20
-74.9219209999999975
11
163.790284999999983
21
-74.9969399999999951
0
LINE
8
BLACK
6
CONTINUOUS
10
163.790284999999983
20
-74.9969399999999951
11
163.5980169999999987
21
-75.0351849999999985
0
LINE
8
BLACK
6
CONTINUOUS
10
163.5980169999999987
20
-75.0351849999999985
11
163.5
21
-75.039999999999992
0
LINE
8
BLACK
6
CONTINUOUS
10
163.5
20
-75.039999999999992
11
161.039999999999992
21
-75.039999999999992
0
LINE
8
BLACK
6
CONTINUOUS
10
161.039999999999992
20
-75.039999999999992
11
160.9419829999999934
21
-75.0351849999999985
0
LINE
8
BLACK
6
CONTINUOUS
10
160.9419829999999934
20
-75.0351849999999985
11
160.8352319999999906
21
-75.0139499999999941
0
LINE
8
BLACK
6
CONTINUOUS
10
160.8352319999999906
20
-75.0139499999999941
11
160.7497160000000065
21
-74.9969409999999925
0
LINE
8
BLACK
6
CONTINUOUS
10
160.7497160000000065
20
-74.9969409999999925
11
160.643622999999991
21
-74.9529950000000014
0
LINE
8
BLACK
6
CONTINUOUS
10
160.643622999999991
20
-74.9529950000000014
11
160.568602999999996
21
-74.9219209999999975
0
LINE
8
BLACK
6
CONTINUOUS
10
160.568602999999996
20
-74.9219209999999975
11
160.4660529999999881
21
-74.853398999999996
0
LINE
8
BLACK
6
CONTINUOUS
10
160.4660529999999881
20
-74.853398999999996
11
160.4056070000000034
21
-74.813011000000003
0
LINE
8
BLACK
6
CONTINUOUS
10
160.4056070000000034
20
-74.813011000000003
11
160.3328929999999843
21
-74.7471069999999997
0
LINE
8
BLACK
6
CONTINUOUS
10
160.3328929999999843
20
-74.7471069999999997
11
159.2143470000000036
21
-73.6285609999999906
0
LINE
8
BLACK
6
CONTINUOUS
10
159.2143470000000036
20
-73.6285609999999906
11
159.2329579999999964
21
-73.8016629999999907
0
LINE
8
BLACK
6
CONTINUOUS
10
159.2329579999999964
20
-73.8016629999999907
11
159.3879330000000039
21
-74.8795420000000007
0
LINE
8
BLACK
6
CONTINUOUS
10
159.3879330000000039
20
-74.8795420000000007
11
159.5812819999999874
21
-75.9512029999999925
0
LINE
8
BLACK
6
CONTINUOUS
10
159.5812819999999874
20
-75.9512029999999925
11
159.8127580000000023
21
-77.01527999999999
0
LINE
8
BLACK
6
CONTINUOUS
10
159.8127580000000023
20
-77.01527999999999
11
160.0820659999999975
21
-78.070416999999992
0
LINE
8
BLACK
6
CONTINUOUS
10
160.0820659999999975
20
-78.070416999999992
11
160.3888619999999889
21
-79.1152689999999978
0
LINE
8
BLACK
6
CONTINUOUS
10
160.3888619999999889
20
-79.1152689999999978
11
160.7327559999999949
21
-80.1485059999999976
0
LINE
8
BLACK
6
CONTINUOUS
10
160.7327559999999949
20
-80.1485059999999976
11
161.1133099999999843
21
-81.168808999999996
0
LINE
8
BLACK
6
CONTINUOUS
10
161.1133099999999843
20
-81.168808999999996
11
161.5300379999999905
21
-82.1748800000000017
0
LINE
8
BLACK
6
CONTINUOUS
10
161.5300379999999905
20
-82.1748800000000017
11
161.9824099999999873
21
-83.1654359999999997
0
LINE
8
BLACK
6
CONTINUOUS
10
161.9824099999999873
20
-83.1654359999999997
11
162.4698479999999847
21
-84.1392139999999955
0
LINE
8
BLACK
6
CONTINUOUS
10
162.4698479999999847
20
-84.1392139999999955
11
162.9917329999999822
21
-85.0949739999999935
0
LINE
8
BLACK
6
CONTINUOUS
10
162.9917329999999822
20
-85.0949739999999935
11
163.547397999999987
21
-86.0314979999999991
0
LINE
8
BLACK
6
CONTINUOUS
10
163.547397999999987
20
-86.0314979999999991
11
164.1361359999999934
21
-86.9475920000000002
0
LINE
8
BLACK
6
CONTINUOUS
10
164.1361359999999934
20
-86.9475920000000002
11
164.7571959999999933
21
-87.8420890000000014
0
LINE
8
BLACK
6
CONTINUOUS
10
164.7571959999999933
20
-87.8420890000000014
11
165.4097869999999944
21
-88.7138489999999962
0
LINE
8
BLACK
6
CONTINUOUS
10
165.4097869999999944
20
-88.7138489999999962
11
166.0930779999999913
21
-89.56176099999999
0
LINE
8
BLACK
6
CONTINUOUS
10
166.0930779999999913
20
-89.56176099999999
11
166.8061969999999974
21
-90.3847439999999978
0
LINE
8
BLACK
6
CONTINUOUS
10
166.8061969999999974
20
-90.3847439999999978
11
167.5482360000000028
21
-91.1817499999999939
0
LINE
8
BLACK
6
CONTINUOUS
10
167.5482360000000028
20
-91.1817499999999939
11
168.3182500000000061
21
-91.9517639999999972
0
LINE
8
BLACK
6
CONTINUOUS
10
168.3182500000000061
20
-91.9517639999999972
11
169.115255999999988
21
-92.6938030000000026
0
LINE
8
BLACK
6
CONTINUOUS
10
169.115255999999988
20
-92.6938030000000026
11
169.8266249999999786
21
-93.3102079999999887
0
LINE
8
BLACK
6
CONTINUOUS
10
169.8266249999999786
20
-93.3102079999999887
11
199.9585779999999886
21
-93.3102079999999887
0
LINE
8
BLACK
6
CONTINUOUS
10
199.9585779999999886
20
-93.3102079999999887
11
203.4292889999999829
21
-89.8394969999999944
0
LINE
8
BLACK
6
CONTINUOUS
10
203.4292889999999829
20
-89.8394969999999944
11
203.4751629999999807
21
-89.8133409999999941
0
LINE
8
BLACK
6
CONTINUOUS
10
203.4751629999999807
20
-89.8133409999999941
11
208.9486459999999965
21
-88.4099310000000003
0
LINE
8
BLACK
6
CONTINUOUS
10
208.9486459999999965
20
-88.4099310000000003
11
210.3999999999999773
21
-86.9585780000000028
0
LINE
8
BLACK
6
CONTINUOUS
10
210.3999999999999773
20
-86.9585780000000028
11
210.3999999999999773
21
-86.
0
LINE
8
BLACK
6
CONTINUOUS
10
210.3999999999999773
20
-86.
11
210.4190979999999911
21
-85.9412209999999988
0
LINE
8
BLACK
6
CONTINUOUS
10
210.4190979999999911
20
-85.9412209999999988
11
210.4292889999999829
21
-85.9292889999999971
0
LINE
8
BLACK
6
CONTINUOUS
10
210.4292889999999829
20
-85.9292889999999971
11
210.9292889999999829
21
-85.4292889999999971
0
LINE
8
BLACK
6
CONTINUOUS
10
210.9292889999999829
20
-85.4292889999999971
11
210.9843569999999886
21
-85.4012309999999957
0
LINE
8
BLACK
6
CONTINUOUS
10
210.9843569999999886
20
-85.4012309999999957
11
211.
21
-85.3999999999999915
0
LINE
8
BLACK
6
CONTINUOUS
10
211.
20
-85.3999999999999915
11
212.8300359999999785
21
-85.3999999999999915
0
LINE
8
BLACK
6
CONTINUOUS
10
212.8300359999999785
20
-85.3999999999999915
11
214.2726339999999823
21
-83.9574009999999902
0
LINE
8
BLACK
6
CONTINUOUS
10
214.2726339999999823
20
-83.9574009999999902
11
214.3999999999999773
21
-79.4985799999999898
0
LINE
8
BLACK
6
CONTINUOUS
10
214.3999999999999773
20
-79.4985799999999898
11
214.3999999999999773
21
-74.5
0
LINE
8
BLACK
6
CONTINUOUS
10
214.3999999999999773
20
-74.5
11
214.
21
-74.5
0
LINE
8
BLACK
6
CONTINUOUS
10
214.
20
-74.5
11
212.5
21
-74.5
0
LINE
8
BLACK
6
CONTINUOUS
10
212.5
20
-74.5
11
212.4019830000000013
21
-74.4951849999999922
0
LINE
8
BLACK
6
CONTINUOUS
10
212.4019830000000013
20
-74.4951849999999922
11
212.2097149999999885
21
-74.456940000000003
0
LINE
8
BLACK
6
CONTINUOUS
10
212.2097149999999885
20
-74.456940000000003
11
212.0286030000000039
21
-74.3819209999999913
0
LINE
8
BLACK
6
CONTINUOUS
10
212.0286030000000039
20
-74.3819209999999913
11
211.9808299999999974
21
-74.3499999999999943
0
LINE
8
BLACK
6
CONTINUOUS
10
211.9808299999999974
20
-74.3499999999999943
11
211.8656059999999854
21
-74.2730109999999968
0
LINE
8
BLACK
6
CONTINUOUS
10
211.8656059999999854
20
-74.2730109999999968
11
211.7928929999999923
21
-74.2071069999999935
0
LINE
8
BLACK
6
CONTINUOUS
10
211.7928929999999923
20
-74.2071069999999935
11
209.2928929999999923
21
-71.7071069999999935
0
LINE
8
BLACK
6
CONTINUOUS
10
209.2928929999999923
20
-71.7071069999999935
11
209.2269890000000032
21
-71.6343940000000003
0
LINE
8
BLACK
6
CONTINUOUS
10
209.2269890000000032
20
-71.6343940000000003
11
209.1492259999999987
21
-71.5180119999999988
0
LINE
8
BLACK
6
CONTINUOUS
10
209.1492259999999987
20
-71.5180119999999988
11
209.1180789999999945
21
-71.4713969999999961
0
LINE
8
BLACK
6
CONTINUOUS
10
209.1180789999999945
20
-71.4713969999999961
11
209.043059999999997
21
-71.2902849999999972
0
LINE
8
BLACK
6
CONTINUOUS
10
209.043059999999997
20
-71.2902849999999972
11
209.0048149999999794
21
-71.0980169999999987
0
LINE
8
BLACK
6
CONTINUOUS
10
209.0048149999999794
20
-71.0980169999999987
11
209.
21
-71.
0
LINE
8
BLACK
6
CONTINUOUS
10
209.
20
-71.
11
209.
21
-69.7000000000000028
0
LINE
8
BLACK
6
CONTINUOUS
10
209.
20
-69.7000000000000028
11
209.0048149999999794
21
-69.6019829999999899
0
LINE
8
BLACK
6
CONTINUOUS
10
209.0048149999999794
20
-69.6019829999999899
11
209.043059999999997
21
-69.4097149999999914
0
LINE
8
BLACK
6
CONTINUOUS
10
209.043059999999997
20
-69.4097149999999914
11
209.1180789999999945
21
-69.2286029999999926
0
LINE
8
BLACK
6
CONTINUOUS
10
209.1180789999999945
20
-69.2286029999999926
11
209.1499999999999773
21
-69.1808300000000003
0
LINE
8
BLACK
6
CONTINUOUS
10
209.1499999999999773
20
-69.1808300000000003
11
209.1499999999999773
21
-68.8499999999999943
0
LINE
8
BLACK
6
CONTINUOUS
10
209.1499999999999773
20
-68.8499999999999943
11
209.4808299999999974
21
-68.8499999999999943
0
LINE
8
BLACK
6
CONTINUOUS
10
209.4808299999999974
20
-68.8499999999999943
11
209.5286030000000039
21
-68.8180789999999973
0
LINE
8
BLACK
6
CONTINUOUS
10
209.5286030000000039
20
-68.8180789999999973
11
209.7097149999999885
21
-68.7430599999999998
0
LINE
8
BLACK
6
CONTINUOUS
10
209.7097149999999885
20
-68.7430599999999998
11
209.9019830000000013
21
-68.7048149999999964
0
LINE
8
BLACK
6
CONTINUOUS
10
209.9019830000000013
20
-68.7048149999999964
11
210.0980169999999987
21
-68.7048149999999964
0
LINE
8
BLACK
6
CONTINUOUS
10
210.0980169999999987
20
-68.7048149999999964
11
210.290284999999983
21
-68.7430599999999998
0
LINE
8
BLACK
6
CONTINUOUS
10
210.290284999999983
20
-68.7430599999999998
11
210.4713969999999961
21
-68.8180789999999973
0
LINE
8
BLACK
6
CONTINUOUS
10
210.4713969999999961
20
-68.8180789999999973
11
210.5191700000000026
21
-68.8499999999999943
0
LINE
8
BLACK
6
CONTINUOUS
10
210.5191700000000026
20
-68.8499999999999943
11
210.8499999999999943
21
-68.8499999999999943
0
LINE
8
BLACK
6
CONTINUOUS
10
210.8499999999999943
20
-68.8499999999999943
11
210.8499999999999943
21
-69.1808300000000003
0
LINE
8
BLACK
6
CONTINUOUS
10
210.8499999999999943
20
-69.1808300000000003
11
210.8819209999999771
21
-69.2286029999999926
0
LINE
8
BLACK
6
CONTINUOUS
10
210.8819209999999771
20
-69.2286029999999926
11
210.956940000000003
21
-69.4097149999999914
0
LINE
8
BLACK
6
CONTINUOUS
10
210.956940000000003
20
-69.4097149999999914
11
210.9951849999999922
21
-69.6019829999999899
0
LINE
8
BLACK
6
CONTINUOUS
10
210.9951849999999922
20
-69.6019829999999899
11
211.
21
-69.7000000000000028
0
LINE
8
BLACK
6
CONTINUOUS
10
211.
20
-69.7000000000000028
11
211.
21
-70.5857859999999988
0
LINE
8
BLACK
6
CONTINUOUS
10
211.
20
-70.5857859999999988
11
212.914213999999987
21
-72.5
0
LINE
8
BLACK
6
CONTINUOUS
10
212.914213999999987
20
-72.5
11
214.
21
-72.5
0
LINE
8
BLACK
6
CONTINUOUS
10
214.
20
-72.5
11
215.2558059999999784
21
-72.5
0
LINE
8
BLACK
6
CONTINUOUS
10
215.2558059999999784
20
-72.5
11
215.2849909999999909
21
-72.4497649999999993
0
LINE
8
BLACK
6
CONTINUOUS
10
215.2849909999999909
20
-72.4497649999999993
11
215.3310319999999933
21
-72.4085350000000005
0
LINE
8
BLACK
6
CONTINUOUS
10
215.3310319999999933
20
-72.4085350000000005
11
215.3714579999999899
21
-72.3999999999999915
0
LINE
8
BLACK
6
CONTINUOUS
10
215.3714579999999899
20
-72.3999999999999915
11
219.9062579999999798
21
-72.3999999999999915
0
LINE
8
BLACK
6
CONTINUOUS
10
219.9062579999999798
20
-72.3999999999999915
11
219.9611329999999896
21
-71.632750999999999
0
LINE
8
BLACK
6
CONTINUOUS
10
219.9611329999999896
20
-71.632750999999999
11
220.
21
-70.5444820000000021
0
LINE
8
BLACK
6
CONTINUOUS
10
220.
20
-70.5444820000000021
11
220.
21
-69.4555179999999979
0
LINE
8
BLACK
6
CONTINUOUS
10
220.
20
-69.4555179999999979
11
219.9611329999999896
21
-68.367249000000001
0
LINE
8
BLACK
6
CONTINUOUS
10
219.9611329999999896
20
-68.367249000000001
11
219.8834469999999897
21
-67.281060999999994
0
LINE
8
BLACK
6
CONTINUOUS
10
219.8834469999999897
20
-67.281060999999994
11
219.7670420000000036
21
-66.1983369999999951
0
LINE
8
BLACK
6
CONTINUOUS
10
219.7670420000000036
20
-66.1983369999999951
11
219.6120669999999961
21
-65.1204579999999993
0
LINE
8
BLACK
6
CONTINUOUS
10
219.6120669999999961
20
-65.1204579999999993
11
219.4187179999999842
21
-64.0487969999999933
0
LINE
8
BLACK
6
CONTINUOUS
10
219.4187179999999842
20
-64.0487969999999933
11
219.1872419999999977
21
-62.9847199999999958
0
LINE
8
BLACK
6
CONTINUOUS
10
219.1872419999999977
20
-62.9847199999999958
11
218.9179340000000025
21
-61.9295829999999938
0
LINE
8
BLACK
6
CONTINUOUS
10
218.9179340000000025
20
-61.9295829999999938
11
218.6111379999999826
21
-60.884730999999995
0
LINE
8
BLACK
6
CONTINUOUS
10
218.6111379999999826
20
-60.884730999999995
11
218.2672439999999767
21
-59.8514939999999953
0
LINE
8
BLACK
6
CONTINUOUS
10
218.2672439999999767
20
-59.8514939999999953
11
217.8866899999999873
21
-58.8311909999999969
0
LINE
8
BLACK
6
CONTINUOUS
10
217.8866899999999873
20
-58.8311909999999969
11
217.4699619999999811
21
-57.8251199999999983
0
LINE
8
BLACK
6
CONTINUOUS
10
217.4699619999999811
20
-57.8251199999999983
11
217.0175899999999842
21
-56.8345640000000003
0
LINE
8
BLACK
6
CONTINUOUS
10
217.0175899999999842
20
-56.8345640000000003
11
216.5301519999999869
21
-55.8607859999999974
0
LINE
8
BLACK
6
CONTINUOUS
10
216.5301519999999869
20
-55.8607859999999974
11
216.0082669999999894
21
-54.9050259999999994
0
LINE
8
BLACK
6
CONTINUOUS
10
216.0082669999999894
20
-54.9050259999999994
11
215.4526019999999846
21
-53.9685020000000009
0
LINE
8
BLACK
6
CONTINUOUS
10
215.4526019999999846
20
-53.9685020000000009
11
214.8638639999999782
21
-53.0524079999999998
0
LINE
8
BLACK
6
CONTINUOUS
10
214.8638639999999782
20
-53.0524079999999998
11
214.2428039999999783
21
-52.1579109999999986
0
LINE
8
BLACK
6
CONTINUOUS
10
214.2428039999999783
20
-52.1579109999999986
11
213.5902129999999772
21
-51.2861509999999967
0
LINE
8
BLACK
6
CONTINUOUS
10
213.5902129999999772
20
-51.2861509999999967
11
212.9069219999999802
21
-50.4382389999999958
0
LINE
8
BLACK
6
CONTINUOUS
10
212.9069219999999802
20
-50.4382389999999958
11
212.1938030000000026
21
-49.6152559999999951
0
LINE
8
BLACK
6
CONTINUOUS
10
212.1938030000000026
20
-49.6152559999999951
11
211.4517639999999972
21
-48.818249999999999
0
LINE
8
BLACK
6
CONTINUOUS
10
211.4517639999999972
20
-48.818249999999999
11
210.6817499999999939
21
-48.0482359999999957
0
LINE
8
BLACK
6
CONTINUOUS
10
210.6817499999999939
20
-48.0482359999999957
11
209.8847439999999835
21
-47.3061969999999974
0
LINE
8
BLACK
6
CONTINUOUS
10
209.8847439999999835
20
-47.3061969999999974
11
209.06176099999999
21
-46.5930779999999984
0
LINE
8
BLACK
6
CONTINUOUS
10
209.06176099999999
20
-46.5930779999999984
11
208.213848999999982
21
-45.9097870000000015
0
LINE
8
BLACK
6
CONTINUOUS
10
208.213848999999982
20
-45.9097870000000015
11
207.3420889999999872
21
-45.2571960000000004
0
LINE
8
BLACK
6
CONTINUOUS
10
207.3420889999999872
20
-45.2571960000000004
11
206.447591999999986
21
-44.6361360000000005
0
LINE
8
BLACK
6
CONTINUOUS
10
206.447591999999986
20
-44.6361360000000005
11
205.5314979999999991
21
-44.0473980000000012
0
LINE
8
BLACK
6
CONTINUOUS
10
205.5314979999999991
20
-44.0473980000000012
11
204.5949739999999792
21
-43.4917329999999964
0
LINE
8
BLACK
6
CONTINUOUS
10
204.5949739999999792
20
-43.4917329999999964
11
203.6392139999999813
21
-42.9698479999999989
0
LINE
8
BLACK
6
CONTINUOUS
10
203.6392139999999813
20
-42.9698479999999989
11
202.6654359999999997
21
-42.4824100000000016
0
LINE
8
BLACK
6
CONTINUOUS
10
202.6654359999999997
20
-42.4824100000000016
11
201.6748800000000017
21
-42.0300379999999976
0
LINE
8
BLACK
6
CONTINUOUS
10
201.6748800000000017
20
-42.0300379999999976
11
200.6688089999999818
21
-41.6133099999999985
0
LINE
8
BLACK
6
CONTINUOUS
10
200.6688089999999818
20
-41.6133099999999985
11
199.6485059999999976
21
-41.2327559999999949
0
LINE
8
BLACK
6
CONTINUOUS
10
199.6485059999999976
20
-41.2327559999999949
11
198.6152689999999836
21
-40.888861999999996
0
LINE
8
BLACK
6
CONTINUOUS
10
198.6152689999999836
20
-40.888861999999996
11
197.570416999999992
21
-40.5820659999999975
0
LINE
8
BLACK
6
CONTINUOUS
10
197.570416999999992
20
-40.5820659999999975
11
196.51527999999999
21
-40.3127579999999952
0
LINE
8
BLACK
6
CONTINUOUS
10
196.51527999999999
20
-40.3127579999999952
11
195.4512029999999925
21
-40.0812820000000016
0
LINE
8
BLACK
6
CONTINUOUS
10
195.4512029999999925
20
-40.0812820000000016
11
194.3795419999999865
21
-39.8879329999999968
0
LINE
8
BLACK
6
CONTINUOUS
10
194.3795419999999865
20
-39.8879329999999968
11
193.3016629999999907
21
-39.7329579999999964
0
LINE
8
BLACK
6
CONTINUOUS
10
193.3016629999999907
20
-39.7329579999999964
11
192.2189389999999776
21
-39.6165529999999961
0
LINE
8
BLACK
6
CONTINUOUS
10
192.2189389999999776
20
-39.6165529999999961
11
191.1327509999999847
21
-39.5388669999999962
0
LINE
8
BLACK
6
CONTINUOUS
10
191.1327509999999847
20
-39.5388669999999962
11
190.0444819999999879
21
-39.5
0
LINE
8
BLACK
6
CONTINUOUS
10
190.0444819999999879
20
-39.5
11
188.9555179999999837
21
-39.5
0
LINE
8
BLACK
6
CONTINUOUS
10
188.9555179999999837
20
-39.5
11
187.8672489999999868
21
-39.5388669999999962
0
LINE
8
BLACK
6
CONTINUOUS
10
191.9476799999999912
20
-3.545061
11
193.5778289999999799
21
-3.6251449999999998
0
LINE
8
BLACK
6
CONTINUOUS
10
193.5778289999999799
20
-3.6251449999999998
11
195.2055210000000045
21
-3.7452109999999998
0
LINE
8
BLACK
6
CONTINUOUS
10
195.2055210000000045
20
-3.7452109999999998
11
196.8297769999999787
21
-3.9051859999999996
0
LINE
8
BLACK
6
CONTINUOUS
10
196.8297769999999787
20
-3.9051859999999996
11
198.4496169999999893
21
-4.1049749999999996
0
LINE
8
BLACK
6
CONTINUOUS
10
198.4496169999999893
20
-4.1049749999999996
11
200.0640669999999943
21
-4.3444560000000001
0
LINE
8
BLACK
6
CONTINUOUS
10
200.0640669999999943
20
-4.3444560000000001
11
201.6721529999999802
21
-4.6234849999999996
0
LINE
8
BLACK
6
CONTINUOUS
10
201.6721529999999802
20
-4.6234849999999996
11
203.2729070000000036
21
-4.9418949999999997
0
LINE
8
BLACK
6
CONTINUOUS
10
203.2729070000000036
20
-4.9418949999999997
11
204.8653639999999996
21
-5.299493
0
LINE
8
BLACK
6
CONTINUOUS
10
204.8653639999999996
20
-5.299493
11
206.4485659999999996
21
-5.6960649999999999
0
LINE
8
BLACK
6
CONTINUOUS
10
206.4485659999999996
20
-5.6960649999999999
11
208.0215589999999963
21
-6.1313699999999995
0
LINE
8
BLACK
6
CONTINUOUS
10
208.0215589999999963
20
-6.1313699999999995
11
209.5833959999999934
21
-6.6051479999999998
0
LINE
8
BLACK
6
CONTINUOUS
10
209.5833959999999934
20
-6.6051479999999998
11
211.1331339999999841
21
-7.1171129999999998
0
LINE
8
BLACK
6
CONTINUOUS
10
211.1331339999999841
20
-7.1171129999999998
11
212.6698419999999885
21
-7.6669559999999999
0
LINE
8
BLACK
6
CONTINUOUS
10
212.6698419999999885
20
-7.6669559999999999
11
214.192592999999988
21
-8.254346
0
LINE
8
BLACK
6
CONTINUOUS
10
214.192592999999988
20
-8.254346
11
215.7004709999999932
21
-8.8789289999999994
0
LINE
8
BLACK
6
CONTINUOUS
10
215.7004709999999932
20
-8.8789289999999994
11
217.1925659999999993
21
-9.5403289999999998
0
LINE
8
BLACK
6
CONTINUOUS
10
217.1925659999999993
20
-9.5403289999999998
11
218.66798
21
-10.2381479999999989
0
LINE
8
BLACK
6
CONTINUOUS
10
218.66798
20
-10.2381479999999989
11
220.1258239999999944
21
-10.9719649999999991
0
LINE
8
BLACK
6
CONTINUOUS
10
220.1258239999999944
20
-10.9719649999999991
11
221.5652209999999798
21
-11.741339
0
LINE
8
BLACK
6
CONTINUOUS
10
221.5652209999999798
20
-11.741339
11
222.9853029999999876
21
-12.5458049999999997
0
LINE
8
BLACK
6
CONTINUOUS
10
222.9853029999999876
20
-12.5458049999999997
11
224.3852139999999906
21
-13.384879999999999
0
LINE
8
BLACK
6
CONTINUOUS
10
224.3852139999999906
20
-13.384879999999999
11
225.764111999999983
21
-14.2580569999999991
0
LINE
8
BLACK
6
CONTINUOUS
10
225.764111999999983
20
-14.2580569999999991
11
227.1211649999999906
21
-15.1648109999999985
0
LINE
8
BLACK
6
CONTINUOUS
10
227.1211649999999906
20
-15.1648109999999985
11
228.4555579999999964
21
-16.1045960000000008
0
LINE
8
BLACK
6
CONTINUOUS
10
228.4555579999999964
20
-16.1045960000000008
11
229.7664839999999913
21
-17.0768459999999997
0
LINE
8
BLACK
6
CONTINUOUS
10
229.7664839999999913
20
-17.0768459999999997
11
231.0531560000000013
21
-18.0809739999999977
0
LINE
8
BLACK
6
CONTINUOUS
10
231.0531560000000013
20
-18.0809739999999977
11
232.3147979999999961
21
-19.116377
0
LINE
8
BLACK
6
CONTINUOUS
10
232.3147979999999961
20
-19.116377
11
233.5506489999999928
21
-20.1824300000000001
0
LINE
8
BLACK
6
CONTINUOUS
10
233.5506489999999928
20
-20.1824300000000001
11
234.7599659999999915
21
-21.2784909999999989
0
LINE
8
BLACK
6
CONTINUOUS
10
234.7599659999999915
20
-21.2784909999999989
11
235.9420209999999827
21
-22.4039000000000001
0
LINE
8
BLACK
6
CONTINUOUS
10
235.9420209999999827
20
-22.4039000000000001
11
237.0960999999999785
21
-23.5579789999999996
0
LINE
8
BLACK
6
CONTINUOUS
10
237.0960999999999785
20
-23.5579789999999996
11
238.2215089999999975
21
-24.7400339999999979
0
LINE
8
BLACK
6
CONTINUOUS
10
238.2215089999999975
20
-24.7400339999999979
11
239.3175699999999892
21
-25.9493510000000001
0
LINE
8
BLACK
6
CONTINUOUS
10
239.3175699999999892
20
-25.9493510000000001
11
240.383623
21
-27.1852020000000003
0
LINE
8
BLACK
6
CONTINUOUS
10
240.383623
20
-27.1852020000000003
11
241.4190260000000023
21
-28.4468439999999987
0
LINE
8
BLACK
6
CONTINUOUS
10
241.4190260000000023
20
-28.4468439999999987
11
242.4231539999999825
21
-29.7335159999999981
0
LINE
8
BLACK
6
CONTINUOUS
10
242.4231539999999825
20
-29.7335159999999981
11
243.395403999999985
21
-31.0444420000000001
0
LINE
8
BLACK
6
CONTINUOUS
10
243.395403999999985
20
-31.0444420000000001
11
244.3351889999999855
21
-32.3788349999999951
0
LINE
8
BLACK
6
CONTINUOUS
10
244.3351889999999855
20
-32.3788349999999951
11
245.241942999999992
21
-33.7358879999999957
0
LINE
8
BLACK
6
CONTINUOUS
10
245.241942999999992
20
-33.7358879999999957
11
246.1151199999999903
21
-35.1147859999999952
0
LINE
8
BLACK
6
CONTINUOUS
10
246.1151199999999903
20
-35.1147859999999952
11
246.9541949999999986
21
-36.5146969999999982
0
LINE
8
BLACK
6
CONTINUOUS
10
246.9541949999999986
20
-36.5146969999999982
11
247.7586609999999894
21
-37.9347789999999989
0
LINE
8
BLACK
6
CONTINUOUS
10
247.7586609999999894
20
-37.9347789999999989
11
248.5280349999999885
21
-39.3741759999999985
0
LINE
8
BLACK
6
CONTINUOUS
10
248.5280349999999885
20
-39.3741759999999985
11
249.2618519999999762
21
-40.83202
0
LINE
8
BLACK
6
CONTINUOUS
10
249.2618519999999762
20
-40.83202
11
249.959670999999986
21
-42.3074340000000007
0
LINE
8
BLACK
6
CONTINUOUS
10
249.959670999999986
20
-42.3074340000000007
11
250.6210710000000006
21
-43.7995289999999997
0
LINE
8
BLACK
6
CONTINUOUS
10
250.6210710000000006
20
-43.7995289999999997
11
251.2456540000000018
21
-45.3074069999999978
0
LINE
8
BLACK
6
CONTINUOUS
10
251.2456540000000018
20
-45.3074069999999978
11
251.833044000000001
21
-46.8301579999999973
0
LINE
8
BLACK
6
CONTINUOUS
10
251.833044000000001
20
-46.8301579999999973
11
252.3828869999999824
21
-48.3668659999999946
0
LINE
8
BLACK
6
CONTINUOUS
10
252.3828869999999824
20
-48.3668659999999946
11
252.894851999999986
21
-49.9166039999999995
0
LINE
8
BLACK
6
CONTINUOUS
10
252.894851999999986
20
-49.9166039999999995
11
253.368629999999996
21
-51.4784409999999966
0
LINE
8
BLACK
6
CONTINUOUS
10
253.368629999999996
20
-51.4784409999999966
11
253.8039349999999956
21
-53.0514340000000004
0
LINE
8
BLACK
6
CONTINUOUS
10
253.8039349999999956
20
-53.0514340000000004
11
254.2005069999999876
21
-54.6346360000000004
0
LINE
8
BLACK
6
CONTINUOUS
10
254.2005069999999876
20
-54.6346360000000004
11
254.5581049999999834
21
-56.2270929999999964
0
LINE
8
BLACK
6
CONTINUOUS
10
254.5581049999999834
20
-56.2270929999999964
11
254.8765149999999835
21
-57.8278469999999984
0
LINE
8
BLACK
6
CONTINUOUS
10
254.8765149999999835
20
-57.8278469999999984
11
255.1555439999999919
21
-59.4359329999999986
0
LINE
8
BLACK
6
CONTINUOUS
10
255.1555439999999919
20
-59.4359329999999986
11
255.3950249999999755
21
-61.0503829999999965
0
LINE
8
BLACK
6
CONTINUOUS
10
255.3950249999999755
20
-61.0503829999999965
11
255.5948139999999853
21
-62.670223
0
LINE
8
BLACK
6
CONTINUOUS
10
255.5948139999999853
20
-62.670223
11
255.7547889999999882
21
-64.2944789999999955
0
LINE
8
BLACK
6
CONTINUOUS
10
255.7547889999999882
20
-64.2944789999999955
11
255.8748549999999966
21
-65.9221709999999916
0
LINE
8
BLACK
6
CONTINUOUS
10
255.8748549999999966
20
-65.9221709999999916
11
255.954938999999996
21
-67.5523199999999946
0
LINE
8
BLACK
6
CONTINUOUS
10
255.954938999999996
20
-67.5523199999999946
11
255.9949929999999938
21
-69.1839429999999993
0
LINE
8
BLACK
6
CONTINUOUS
10
255.9949929999999938
20
-69.1839429999999993
11
255.9949929999999938
21
-70.8160570000000007
0
LINE
8
BLACK
6
CONTINUOUS
10
255.9949929999999938
20
-70.8160570000000007
11
255.954938999999996
21
-72.4476799999999912
0
LINE
8
BLACK
6
CONTINUOUS
10
255.954938999999996
20
-72.4476799999999912
11
255.8748549999999966
21
-74.0778289999999942
0
LINE
8
BLACK
6
CONTINUOUS
10
255.8748549999999966
20
-74.0778289999999942
11
255.7547889999999882
21
-75.7055209999999903
0
LINE
8
BLACK
6
CONTINUOUS
10
255.7547889999999882
20
-75.7055209999999903
11
255.5948139999999853
21
-77.3297769999999929
0
LINE
8
BLACK
6
CONTINUOUS
10
255.5948139999999853
20
-77.3297769999999929
11
255.3950249999999755
21
-78.9496170000000035
0
LINE
8
BLACK
6
CONTINUOUS
10
255.3950249999999755
20
-78.9496170000000035
11
255.1555439999999919
21
-80.5640669999999943
0
LINE
8
BLACK
6
CONTINUOUS
10
255.1555439999999919
20
-80.5640669999999943
11
254.8765149999999835
21
-82.1721529999999944
0
LINE
8
BLACK
6
CONTINUOUS
10
254.8765149999999835
20
-82.1721529999999944
11
254.5581049999999834
21
-83.7729069999999894
0
LINE
8
BLACK
6
CONTINUOUS
10
254.5581049999999834
20
-83.7729069999999894
11
254.2005069999999876
21
-85.3653639999999996
0
LINE
8
BLACK
6
CONTINUOUS
10
254.2005069999999876
20
-85.3653639999999996
11
253.8039349999999956
21
-86.9485659999999996
0
LINE
8
BLACK
6
CONTINUOUS
10
253.8039349999999956
20
-86.9485659999999996
11
253.368629999999996
21
-88.5215589999999963
0
LINE
8
BLACK
6
CONTINUOUS
10
253.368629999999996
20
-88.5215589999999963
11
252.894851999999986
21
-90.0833959999999934
0
LINE
8
BLACK
6
CONTINUOUS
10
252.894851999999986
20
-90.0833959999999934
11
252.3828869999999824
21
-91.6331339999999983
0
LINE
8
BLACK
6
CONTINUOUS
10
252.3828869999999824
20
-91.6331339999999983
11
251.833044000000001
21
-93.1698420000000027
0
LINE
8
BLACK
6
CONTINUOUS
10
251.833044000000001
20
-93.1698420000000027
11
251.2456540000000018
21
-94.6925930000000022
0
LINE
8
BLACK
6
CONTINUOUS
10
251.2456540000000018
20
-94.6925930000000022
11
250.6210710000000006
21
-96.2004709999999932
0
LINE
8
BLACK
6
CONTINUOUS
10
250.6210710000000006
20
-96.2004709999999932
11
249.959670999999986
21
-97.6925659999999993
0
LINE
8
BLACK
6
CONTINUOUS
10
249.959670999999986
20
-97.6925659999999993
11
249.2618519999999762
21
-99.16798
0
LINE
8
BLACK
6
CONTINUOUS
10
249.2618519999999762
20
-99.16798
11
248.5280349999999885
21
-100.6258239999999944
0
LINE
8
BLACK
6
CONTINUOUS
10
248.5280349999999885
20
-100.6258239999999944
11
247.7586609999999894
21
-102.065220999999994
0
LINE
8
BLACK
6
CONTINUOUS
10
247.7586609999999894
20
-102.065220999999994
11
246.9541949999999986
21
-103.4853030000000018
0
LINE
8
BLACK
6
CONTINUOUS
10
246.9541949999999986
20
-103.4853030000000018
11
246.1151199999999903
21
-104.8852139999999906
0
LINE
8
BLACK
6
CONTINUOUS
10
246.1151199999999903
20
-104.8852139999999906
11
245.241942999999992
21
-106.2641119999999972
0
LINE
8
BLACK
6
CONTINUOUS
10
245.241942999999992
20
-106.2641119999999972
11
244.3351889999999855
21
-107.6211649999999906
0
LINE
8
BLACK
6
CONTINUOUS
10
244.3351889999999855
20
-107.6211649999999906
11
243.395403999999985
21
-108.9555579999999964
0
LINE
8
BLACK
6
CONTINUOUS
10
243.395403999999985
20
-108.9555579999999964
11
242.4231539999999825
21
-110.2664839999999913
0
LINE
8
BLACK
6
CONTINUOUS
10
242.4231539999999825
20
-110.2664839999999913
11
241.4190260000000023
21
-111.5531560000000013
0
LINE
8
BLACK
6
CONTINUOUS
10
241.4190260000000023
20
-111.5531560000000013
11
240.383623
21
-112.8147979999999961
0
LINE
8
BLACK
6
CONTINUOUS
10
240.383623
20
-112.8147979999999961
11
239.3175699999999892
21
-114.0506489999999928
0
LINE
8
BLACK
6
CONTINUOUS
10
239.3175699999999892
20
-114.0506489999999928
11
238.2215089999999975
21
-115.2599659999999915
0
LINE
8
BLACK
6
CONTINUOUS
10
238.2215089999999975
20
-115.2599659999999915
11
237.0960999999999785
21
-116.4420209999999969
0
LINE
8
BLACK
6
CONTINUOUS
10
237.0960999999999785
20
-116.4420209999999969
11
235.9420209999999827
21
-117.5960999999999927
0
LINE
8
BLACK
6
CONTINUOUS
10
235.9420209999999827
20
-117.5960999999999927
11
234.7599659999999915
21
-118.7215089999999975
0
LINE
8
BLACK
6
CONTINUOUS
10
234.7599659999999915
20
-118.7215089999999975
11
233.5506489999999928
21
-119.8175699999999892
0
LINE
8
BLACK
6
CONTINUOUS
10
233.5506489999999928
20
-119.8175699999999892
11
232.3147979999999961
21
-120.883623
0
LINE
8
BLACK
6
CONTINUOUS
10
232.3147979999999961
20
-120.883623
11
231.0531560000000013
21
-121.9190259999999881
0
LINE
8
BLACK
6
CONTINUOUS
10
231.0531560000000013
20
-121.9190259999999881
11
229.7664839999999913
21
-122.9231539999999967
0
LINE
8
BLACK
6
CONTINUOUS
10
229.7664839999999913
20
-122.9231539999999967
11
228.4555579999999964
21
-123.8954039999999992
0
LINE
8
BLACK
6
CONTINUOUS
10
228.4555579999999964
20
-123.8954039999999992
11
227.1211649999999906
21
-124.8351889999999997
0
LINE
8
BLACK
6
CONTINUOUS
10
227.1211649999999906
20
-124.8351889999999997
11
225.764111999999983
21
-125.741942999999992
0
LINE
8
BLACK
6
CONTINUOUS
10
225.764111999999983
20
-125.741942999999992
11
224.3852139999999906
21
-126.6151199999999903
0
LINE
8
BLACK
6
CONTINUOUS
10
224.3852139999999906
20
-126.6151199999999903
11
222.9853029999999876
21
-127.4541949999999986
0
LINE
8
BLACK
6
CONTINUOUS
10
222.9853029999999876
20
-127.4541949999999986
11
221.5652209999999798
21
-128.2586609999999894
0
LINE
8
BLACK
6
CONTINUOUS
10
221.5652209999999798
20
-128.2586609999999894
11
220.1258239999999944
21
-129.0280349999999885
0
LINE
8
BLACK
6
CONTINUOUS
10
220.1258239999999944
20
-129.0280349999999885
11
218.66798
21
-129.7618520000000046
0
LINE
8
BLACK
6
CONTINUOUS
10
218.66798
20
-129.7618520000000046
11
217.1925659999999993
21
-130.459670999999986
0
LINE
8
BLACK
6
CONTINUOUS
10
217.1925659999999993
20
-130.459670999999986
11
215.7004709999999932
21
-131.1210710000000006
0
LINE
8
BLACK
6
CONTINUOUS
10
215.7004709999999932
20
-131.1210710000000006
11
214.192592999999988
21
-131.7456540000000018
0
LINE
8
BLACK
6
CONTINUOUS
10
214.192592999999988
20
-131.7456540000000018
11
212.6698419999999885
21
-132.333044000000001
0
LINE
8
BLACK
6
CONTINUOUS
10
212.6698419999999885
20
-132.333044000000001
11
211.1331339999999841
21
-132.8828869999999824
0
LINE
8
BLACK
6
CONTINUOUS
10
211.1331339999999841
20
-132.8828869999999824
11
209.5833959999999934
21
-133.394851999999986
0
LINE
8
BLACK
6
CONTINUOUS
10
209.5833959999999934
20
-133.394851999999986
11
208.0215589999999963
21
-133.868629999999996
0
LINE
8
BLACK
6
CONTINUOUS
10
208.0215589999999963
20
-133.868629999999996
11
206.4485659999999996
21
-134.3039349999999956
0
LINE
8
BLACK
6
CONTINUOUS
10
206.4485659999999996
20
-134.3039349999999956
11
204.8653639999999996
21
-134.7005069999999876
0
LINE
8
BLACK
6
CONTINUOUS
10
204.8653639999999996
20
-134.7005069999999876
11
203.2729070000000036
21
-135.0581049999999834
0
LINE
8
BLACK
6
CONTINUOUS
10
203.2729070000000036
20
-135.0581049999999834
11
201.6721529999999802
21
-135.3765149999999835
0
LINE
8
BLACK
6
CONTINUOUS
10
201.6721529999999802
20
-135.3765149999999835
11
200.0640669999999943
21
-135.6555439999999919
0
LINE
8
BLACK
6
CONTINUOUS
10
200.0640669999999943
20
-135.6555439999999919
11
198.4496169999999893
21
-135.895025000000004
0
LINE
8
BLACK
6
CONTINUOUS
10
198.4496169999999893
20
-135.895025000000004
11
196.8297769999999787
21
-136.0948139999999853
0
LINE
8
BLACK
6
CONTINUOUS
10
196.8297769999999787
20
-136.0948139999999853
11
195.2055210000000045
21
-136.2547889999999882
0
LINE
8
BLACK
6
CONTINUOUS
10
195.2055210000000045
20
-136.2547889999999882
11
193.5778289999999799
21
-136.3748549999999966
0
LINE
8
BLACK
6
CONTINUOUS
10
193.5778289999999799
20
-136.3748549999999966
11
191.9476799999999912
21
-136.454938999999996
0
LINE
8
BLACK
6
CONTINUOUS
10
191.9476799999999912
20
-136.454938999999996
11
190.3160570000000007
21
-136.4949929999999938
0
LINE
8
BLACK
6
CONTINUOUS
10
190.3160570000000007
20
-136.4949929999999938
11
188.6839429999999993
21
-136.4949929999999938
0
LINE
8
BLACK
6
CONTINUOUS
10
188.6839429999999993
20
-136.4949929999999938
11
187.0523199999999804
21
-136.454938999999996
0
LINE
8
BLACK
6
CONTINUOUS
10
187.0523199999999804
20
-136.454938999999996
11
185.4221709999999916
21
-136.3748549999999966
0
LINE
8
BLACK
6
CONTINUOUS
10
185.4221709999999916
20
-136.3748549999999966
11
183.7944789999999955
21
-136.2547889999999882
0
LINE
8
BLACK
6
CONTINUOUS
10
183.7944789999999955
20
-136.2547889999999882
11
182.1702229999999929
21
-136.0948139999999853
0
LINE
8
BLACK
6
CONTINUOUS
10
182.1702229999999929
20
-136.0948139999999853
11
180.5503829999999823
21
-135.895025000000004
0
LINE
8
BLACK
6
CONTINUOUS
10
180.5503829999999823
20
-135.895025000000004
11
178.9359330000000057
21
-135.6555439999999919
0
LINE
8
BLACK
6
CONTINUOUS
10
178.9359330000000057
20
-135.6555439999999919
11
177.3278469999999913
21
-135.3765149999999835
0
LINE
8
BLACK
6
CONTINUOUS
10
177.3278469999999913
20
-135.3765149999999835
11
175.7270929999999964
21
-135.0581049999999834
0
LINE
8
BLACK
6
CONTINUOUS
10
175.7270929999999964
20
-135.0581049999999834
11
174.1346360000000004
21
-134.7005069999999876
0
LINE
8
BLACK
6
CONTINUOUS
10
174.1346360000000004
20
-134.7005069999999876
11
172.5514340000000004
21
-134.3039349999999956
0
LINE
8
BLACK
6
CONTINUOUS
10
172.5514340000000004
20
-134.3039349999999956
11
170.9784410000000037
21
-133.868629999999996
0
LINE
8
BLACK
6
CONTINUOUS
10
170.9784410000000037
20
-133.868629999999996
11
169.4166039999999782
21
-133.394851999999986
0
LINE
8
BLACK
6
CONTINUOUS
10
169.4166039999999782
20
-133.394851999999986
11
167.8668659999999875
21
-132.8828869999999824
0
LINE
8
BLACK
6
CONTINUOUS
10
167.8668659999999875
20
-132.8828869999999824
11
166.3301579999999831
21
-132.333044000000001
0
LINE
8
BLACK
6
CONTINUOUS
10
166.3301579999999831
20
-132.333044000000001
11
164.8074069999999836
21
-131.7456540000000018
0
LINE
8
BLACK
6
CONTINUOUS
10
164.8074069999999836
20
-131.7456540000000018
11
163.2995290000000068
21
-131.1210710000000006
0
LINE
8
BLACK
6
CONTINUOUS
10
163.2995290000000068
20
-131.1210710000000006
11
161.8074340000000007
21
-130.459670999999986
0
LINE
8
BLACK
6
CONTINUOUS
10
161.8074340000000007
20
-130.459670999999986
11
160.33202
21
-129.7618520000000046
0
LINE
8
BLACK
6
CONTINUOUS
10
160.33202
20
-129.7618520000000046
11
158.8741760000000056
21
-129.0280349999999885
0
LINE
8
BLACK
6
CONTINUOUS
10
158.8741760000000056
20
-129.0280349999999885
11
157.4347789999999918
21
-128.2586609999999894
0
LINE
8
BLACK
6
CONTINUOUS
10
157.4347789999999918
20
-128.2586609999999894
11
156.014696999999984
21
-127.4541949999999986
0
LINE
8
BLACK
6
CONTINUOUS
10
156.014696999999984
20
-127.4541949999999986
11
154.614785999999981
21
-126.6151199999999903
0
LINE
8
BLACK
6
CONTINUOUS
10
154.614785999999981
20
-126.6151199999999903
11
153.2358879999999886
21
-125.741942999999992
0
LINE
8
BLACK
6
CONTINUOUS
10
153.2358879999999886
20
-125.741942999999992
11
151.8788349999999809
21
-124.8351889999999997
0
LINE
8
BLACK
6
CONTINUOUS
10
151.8788349999999809
20
-124.8351889999999997
11
150.5444420000000036
21
-123.8954039999999992
0
LINE
8
BLACK
6
CONTINUOUS
10
150.5444420000000036
20
-123.8954039999999992
11
149.2335159999999803
21
-122.9231539999999967
0
LINE
8
BLACK
6
CONTINUOUS
10
149.2335159999999803
20
-122.9231539999999967
11
147.9468439999999987
21
-121.9190259999999881
0
LINE
8
BLACK
6
CONTINUOUS
10
147.9468439999999987
20
-121.9190259999999881
11
146.6852020000000039
21
-120.883623
0
LINE
8
BLACK
6
CONTINUOUS
10
146.6852020000000039
20
-120.883623
11
145.4493510000000072
21
-119.8175699999999892
0
LINE
8
BLACK
6
CONTINUOUS
10
145.4493510000000072
20
-119.8175699999999892
11
144.2400339999999801
21
-118.7215089999999975
0
LINE
8
BLACK
6
CONTINUOUS
10
144.2400339999999801
20
-118.7215089999999975
11
143.0579789999999889
21
-117.5960999999999927
0
LINE
8
BLACK
6
CONTINUOUS
10
143.0579789999999889
20
-117.5960999999999927
11
141.903899999999993
21
-116.4420209999999969
0
LINE
8
BLACK
6
CONTINUOUS
10
141.903899999999993
20
-116.4420209999999969
11
140.7784910000000025
21
-115.2599659999999915
0
LINE
8
BLACK
6
CONTINUOUS
10
140.7784910000000025
20
-115.2599659999999915
11
139.6824299999999823
21
-114.0506489999999928
0
LINE
8
BLACK
6
CONTINUOUS
10
139.6824299999999823
20
-114.0506489999999928
11
138.616377
21
-112.8147979999999961
0
LINE
8
BLACK
6
CONTINUOUS
10
138.616377
20
-112.8147979999999961
11
137.5809739999999977
21
-111.5531560000000013
0
LINE
8
BLACK
6
CONTINUOUS
10
137.5809739999999977
20
-111.5531560000000013
11
136.5768459999999891
21
-110.2664839999999913
0
LINE
8
BLACK
6
CONTINUOUS
10
136.5768459999999891
20
-110.2664839999999913
11
135.6045959999999866
21
-108.9555579999999964
0
LINE
8
BLACK
6
CONTINUOUS
10
135.6045959999999866
20
-108.9555579999999964
11
134.6648109999999861
21
-107.6211649999999906
0
LINE
8
BLACK
6
CONTINUOUS
10
134.6648109999999861
20
-107.6211649999999906
11
133.758057000000008
21
-106.2641119999999972
0
LINE
8
BLACK
6
CONTINUOUS
10
133.758057000000008
20
-106.2641119999999972
11
132.8848799999999812
21
-104.8852139999999906
0
LINE
8
BLACK
6
CONTINUOUS
10
132.8848799999999812
20
-104.8852139999999906
11
132.0458050000000014
21
-103.4853030000000018
0
LINE
8
BLACK
6
CONTINUOUS
10
132.0458050000000014
20
-103.4853030000000018
11
131.2413389999999822
21
-102.065220999999994
0
LINE
8
BLACK
6
CONTINUOUS
10
131.2413389999999822
20
-102.065220999999994
11
130.4719649999999831
21
-100.6258239999999944
0
LINE
8
BLACK
6
CONTINUOUS
10
130.4719649999999831
20
-100.6258239999999944
11
129.7381479999999954
21
-99.16798
0
LINE
8
BLACK
6
CONTINUOUS
10
129.7381479999999954
20
-99.16798
11
129.0403289999999856
21
-97.6925659999999993
0
LINE
8
BLACK
6
CONTINUOUS
10
129.0403289999999856
20
-97.6925659999999993
11
128.3789289999999994
21
-96.2004709999999932
0
LINE
8
BLACK
6
CONTINUOUS
10
128.3789289999999994
20
-96.2004709999999932
11
127.7543459999999982
21
-94.6925930000000022
0
LINE
8
BLACK
6
CONTINUOUS
10
127.7543459999999982
20
-94.6925930000000022
11
127.166955999999999
21
-93.1698420000000027
0
LINE
8
BLACK
6
CONTINUOUS
10
127.166955999999999
20
-93.1698420000000027
11
126.6171129999999891
21
-91.6331339999999983
0
LINE
8
BLACK
6
CONTINUOUS
10
126.6171129999999891
20
-91.6331339999999983
11
126.1051479999999998
21
-90.0833959999999934
0
LINE
8
BLACK
6
CONTINUOUS
10
126.1051479999999998
20
-90.0833959999999934
11
125.6313699999999898
21
-88.5215589999999963
0
LINE
8
BLACK
6
CONTINUOUS
10
125.6313699999999898
20
-88.5215589999999963
11
125.1960649999999902
21
-86.9485659999999996
0
LINE
8
BLACK
6
CONTINUOUS
10
125.1960649999999902
20
-86.9485659999999996
11
124.7994929999999982
21
-85.3653639999999996
0
LINE
8
BLACK
6
CONTINUOUS
10
124.7994929999999982
20
-85.3653639999999996
11
124.4418949999999882
21
-83.7729069999999894
0
LINE
8
BLACK
6
CONTINUOUS
10
124.4418949999999882
20
-83.7729069999999894
11
124.1234849999999881
21
-82.1721529999999944
0
LINE
8
BLACK
6
CONTINUOUS
10
124.1234849999999881
20
-82.1721529999999944
11
123.8444559999999939
21
-80.5640669999999943
0
LINE
8
BLACK
6
CONTINUOUS
10
123.8444559999999939
20
-80.5640669999999943
11
123.604974999999996
21
-78.9496170000000035
0
LINE
8
BLACK
6
CONTINUOUS
10
123.604974999999996
20
-78.9496170000000035
11
123.4051860000000005
21
-77.3297769999999929
0
LINE
8
BLACK
6
CONTINUOUS
10
123.4051860000000005
20
-77.3297769999999929
11
123.2452109999999976
21
-75.7055209999999903
0
LINE
8
BLACK
6
CONTINUOUS
10
123.2452109999999976
20
-75.7055209999999903
11
123.1251449999999892
21
-74.0778289999999942
0
LINE
8
BLACK
6
CONTINUOUS
10
123.1251449999999892
20
-74.0778289999999942
11
123.0450609999999898
21
-72.4476799999999912
0
LINE
8
BLACK
6
CONTINUOUS
10
123.0450609999999898
20
-72.4476799999999912
11
123.005006999999992
21
-70.8160570000000007
0
LINE
8
BLACK
6
CONTINUOUS
10
123.005006999999992
20
-70.8160570000000007
11
123.005006999999992
21
-69.427970000000002
0
LINE
8
BLACK
6
CONTINUOUS
10
123.005006999999992
20
-69.427970000000002
11
123.005006999999992
21
-69.1839429999999993
0
LINE
8
BLACK
6
CONTINUOUS
10
123.005006999999992
20
-69.1839429999999993
11
123.0450609999999898
21
-67.5523199999999946
0
LINE
8
BLACK
6
CONTINUOUS
10
123.0450609999999898
20
-67.5523199999999946
11
123.1251449999999892
21
-65.9221709999999916
0
LINE
8
BLACK
6
CONTINUOUS
10
123.1251449999999892
20
-65.9221709999999916
11
123.2452109999999976
21
-64.2944789999999955
0
LINE
8
BLACK
6
CONTINUOUS
10
123.2452109999999976
20
-64.2944789999999955
11
123.4051860000000005
21
-62.670223
0
LINE
8
BLACK
6
CONTINUOUS
10
123.4051860000000005
20
-62.670223
11
123.604974999999996
21
-61.0503829999999965
0
LINE
8
BLACK
6
CONTINUOUS
10
123.604974999999996
20
-61.0503829999999965
11
123.8444559999999939
21
-59.4359329999999986
0
LINE
8
BLACK
6
CONTINUOUS
10
123.8444559999999939
20
-59.4359329999999986
11
124.1234849999999881
21
-57.8278469999999984
0
LINE
8
BLACK
6
CONTINUOUS
10
124.1234849999999881
20
-57.8278469999999984
11
124.4418949999999882
21
-56.2270929999999964
0
LINE
8
BLACK
6
CONTINUOUS
10
124.4418949999999882
20
-56.2270929999999964
11
124.7994929999999982
21
-54.6346360000000004
0
LINE
8
BLACK
6
CONTINUOUS
10
124.7994929999999982
20
-54.6346360000000004
11
125.1960649999999902
21
-53.0514340000000004
0
LINE
8
BLACK
6
CONTINUOUS
10
125.1960649999999902
20
-53.0514340000000004
11
125.6313699999999898
21
-51.4784409999999966
0
LINE
8
BLACK
6
CONTINUOUS
10
125.6313699999999898
20
-51.4784409999999966
11
126.1051479999999998
21
-49.9166039999999995
0
LINE
8
BLACK
6
CONTINUOUS
10
126.1051479999999998
20
-49.9166039999999995
11
126.6171129999999891
21
-48.3668659999999946
0
LINE
8
BLACK
6
CONTINUOUS
10
126.6171129999999891
20
-48.3668659999999946
11
127.166955999999999
21
-46.8301579999999973
0
LINE
8
BLACK
6
CONTINUOUS
10
127.166955999999999
20
-46.8301579999999973
11
127.7543459999999982
21
-45.3074069999999978
0
LINE
8
BLACK
6
CONTINUOUS
10
127.7543459999999982
20
-45.3074069999999978
11
128.3789289999999994
21
-43.7995289999999997
0
LINE
8
BLACK
6
CONTINUOUS
10
128.3789289999999994
20
-43.7995289999999997
11
129.0403289999999856
21
-42.3074340000000007
0
LINE
8
BLACK
6
CONTINUOUS
10
129.0403289999999856
20
-42.3074340000000007
11
129.7381479999999954
21
-40.83202
0
LINE
8
BLACK
6
CONTINUOUS
10
129.7381479999999954
20
-40.83202
11
130.4719649999999831
21
-39.3741759999999985
0
LINE
8
BLACK
6
CONTINUOUS
10
130.4719649999999831
20
-39.3741759999999985
11
131.2413389999999822
21
-37.9347789999999989
0
LINE
8
BLACK
6
CONTINUOUS
10
131.2413389999999822
20
-37.9347789999999989
11
132.0458050000000014
21
-36.5146969999999982
0
LINE
8
BLACK
6
CONTINUOUS
10
132.0458050000000014
20
-36.5146969999999982
11
132.8848799999999812
21
-35.1147859999999952
0
LINE
8
BLACK
6
CONTINUOUS
10
132.8848799999999812
20
-35.1147859999999952
11
133.758057000000008
21
-33.7358879999999957
0
LINE
8
BLACK
6
CONTINUOUS
10
133.758057000000008
20
-33.7358879999999957
11
134.6648109999999861
21
-32.3788349999999951
0
LINE
8
BLACK
6
CONTINUOUS
10
134.6648109999999861
20
-32.3788349999999951
11
135.6045959999999866
21
-31.0444420000000001
0
LINE
8
BLACK
6
CONTINUOUS
10
135.6045959999999866
20
-31.0444420000000001
11
136.5768459999999891
21
-29.7335159999999981
0
LINE
8
BLACK
6
CONTINUOUS
10
136.5768459999999891
20
-29.7335159999999981
11
137.5809739999999977
21
-28.4468439999999987
0
LINE
8
BLACK
6
CONTINUOUS
10
137.5809739999999977
20
-28.4468439999999987
11
138.616377
21
-27.1852020000000003
0
LINE
8
BLACK
6
CONTINUOUS
10
138.616377
20
-27.1852020000000003
11
139.6824299999999823
21
-25.9493510000000001
0
LINE
8
BLACK
6
CONTINUOUS
10
139.6824299999999823
20
-25.9493510000000001
11
140.7784910000000025
21
-24.7400339999999979
0
LINE
8
BLACK
6
CONTINUOUS
10
140.7784910000000025
20
-24.7400339999999979
11
141.903899999999993
21
-23.5579789999999996
0
LINE
8
BLACK
6
CONTINUOUS
10
141.903899999999993
20
-23.5579789999999996
11
143.0579789999999889
21
-22.4039000000000001
0
LINE
8
BLACK
6
CONTINUOUS
10
143.0579789999999889
20
-22.4039000000000001
11
144.2400339999999801
21
-21.2784909999999989
0
LINE
8
BLACK
6
CONTINUOUS
10
144.2400339999999801
20
-21.2784909999999989
11
145.4493510000000072
21
-20.1824300000000001
0
LINE
8
BLACK
6
CONTINUOUS
10
145.4493510000000072
20
-20.1824300000000001
11
146.6852020000000039
21
-19.116377
0
LINE
8
BLACK
6
CONTINUOUS
10
146.6852020000000039
20
-19.116377
11
147.9468439999999987
21
-18.0809739999999977
0
LINE
8
BLACK
6
CONTINUOUS
10
147.9468439999999987
20
-18.0809739999999977
11
149.2335159999999803
21
-17.0768459999999997
0
LINE
8
BLACK
6
CONTINUOUS
10
149.2335159999999803
20
-17.0768459999999997
11
150.5444420000000036
21
-16.1045960000000008
0
LINE
8
BLACK
6
CONTINUOUS
10
150.5444420000000036
20
-16.1045960000000008
11
151.8788349999999809
21
-15.1648109999999985
0
LINE
8
BLACK
6
CONTINUOUS
10
151.8788349999999809
20
-15.1648109999999985
11
153.2358879999999886
21
-14.2580569999999991
0
LINE
8
BLACK
6
CONTINUOUS
10
153.2358879999999886
20
-14.2580569999999991
11
154.614785999999981
21
-13.384879999999999
0
LINE
8
BLACK
6
CONTINUOUS
10
154.614785999999981
20
-13.384879999999999
11
156.014696999999984
21
-12.5458049999999997
0
LINE
8
BLACK
6
CONTINUOUS
10
156.014696999999984
20
-12.5458049999999997
11
157.4347789999999918
21
-11.741339
0
LINE
8
BLACK
6
CONTINUOUS
10
157.4347789999999918
20
-11.741339
11
158.8741760000000056
21
-10.9719649999999991
0
LINE
8
BLACK
6
CONTINUOUS
10
158.8741760000000056
20
-10.9719649999999991
11
160.33202
21
-10.2381479999999989
0
LINE
8
BLACK
6
CONTINUOUS
10
160.33202
20
-10.2381479999999989
11
161.8074340000000007
21
-9.5403289999999998
0
LINE
8
BLACK
6
CONTINUOUS
10
161.8074340000000007
20
-9.5403289999999998
11
163.2995290000000068
21
-8.8789289999999994
0
LINE
8
BLACK
6
CONTINUOUS
10
163.2995290000000068
20
-8.8789289999999994
11
164.8074069999999836
21
-8.254346
0
LINE
8
BLACK
6
CONTINUOUS
10
164.8074069999999836
20
-8.254346
11
166.3301579999999831
21
-7.6669559999999999
0
LINE
8
BLACK
6
CONTINUOUS
10
166.3301579999999831
20
-7.6669559999999999
11
167.8668659999999875
21
-7.1171129999999998
0
LINE
8
BLACK
6
CONTINUOUS
10
167.8668659999999875
20
-7.1171129999999998
11
169.4166039999999782
21
-6.6051479999999998
0
LINE
8
BLACK
6
CONTINUOUS
10
169.4166039999999782
20
-6.6051479999999998
11
170.9784410000000037
21
-6.1313699999999995
0
LINE
8
BLACK
6
CONTINUOUS
10
170.9784410000000037
20
-6.1313699999999995
11
172.5514340000000004
21
-5.6960649999999999
0
LINE
8
BLACK
6
CONTINUOUS
10
172.5514340000000004
20
-5.6960649999999999
11
174.1346360000000004
21
-5.299493
0
LINE
8
BLACK
6
CONTINUOUS
10
174.1346360000000004
20
-5.299493
11
175.7270929999999964
21
-4.9418949999999997
0
LINE
8
BLACK
6
CONTINUOUS
10
175.7270929999999964
20
-4.9418949999999997
11
177.3278469999999913
21
-4.6234849999999996
0
LINE
8
BLACK
6
CONTINUOUS
10
177.3278469999999913
20
-4.6234849999999996
11
178.9359330000000057
21
-4.3444560000000001
0
LINE
8
BLACK
6
CONTINUOUS
10
178.9359330000000057
20
-4.3444560000000001
11
180.5503829999999823
21
-4.1049749999999996
0
LINE
8
BLACK
6
CONTINUOUS
10
180.5503829999999823
20
-4.1049749999999996
11
182.1702229999999929
21
-3.9051859999999996
0
LINE
8
BLACK
6
CONTINUOUS
10
182.1702229999999929
20
-3.9051859999999996
11
183.7944789999999955
21
-3.7452109999999998
0
LINE
8
BLACK
6
CONTINUOUS
10
183.7944789999999955
20
-3.7452109999999998
11
185.4221709999999916
21
-3.6251449999999998
0
LINE
8
BLACK
6
CONTINUOUS
10
185.4221709999999916
20
-3.6251449999999998
11
187.0523199999999804
21
-3.545061
0
LINE
8
BLACK
6
CONTINUOUS
10
187.0523199999999804
20
-3.545061
11
188.6839429999999993
21
-3.505007
0
LINE
8
BLACK
6
CONTINUOUS
10
188.6839429999999993
20
-3.505007
11
190.3160570000000007
21
-3.505007
0
LINE
8
BLACK
6
CONTINUOUS
10
190.3160570000000007
20
-3.505007
11
191.9476799999999912
21
-3.545061
0
LINE
8
BLACK
6
CONTINUOUS
10
156.
20
-70.572029999999998
11
156.0390589999999804
21
-71.7154239999999987
0
LINE
8
BLACK
6
CONTINUOUS
10
156.0390589999999804
20
-71.7154239999999987
11
156.117131999999998
21
-72.8568179999999899
0
LINE
8
BLACK
6
CONTINUOUS
10
156.117131999999998
20
-72.8568179999999899
11
156.2341289999999958
21
-73.9948799999999949
0
LINE
8
BLACK
6
CONTINUOUS
10
156.2341289999999958
20
-73.9948799999999949
11
156.3899119999999812
21
-75.1282849999999911
0
LINE
8
BLACK
6
CONTINUOUS
10
156.3899119999999812
20
-75.1282849999999911
11
156.5842999999999847
21
-76.2557109999999909
0
LINE
8
BLACK
6
CONTINUOUS
10
156.5842999999999847
20
-76.2557109999999909
11
156.8170659999999828
21
-77.3758419999999916
0
LINE
8
BLACK
6
CONTINUOUS
10
156.8170659999999828
20
-77.3758419999999916
11
157.0879379999999799
21
-78.4873740000000026
0
LINE
8
BLACK
6
CONTINUOUS
10
157.0879379999999799
20
-78.4873740000000026
11
157.3966020000000015
21
-79.5890100000000018
0
LINE
8
BLACK
6
CONTINUOUS
10
157.3966020000000015
20
-79.5890100000000018
11
157.7426969999999926
21
-80.6794649999999933
0
LINE
8
BLACK
6
CONTINUOUS
10
157.7426969999999926
20
-80.6794649999999933
11
158.1258200000000045
21
-81.7574690000000004
0
LINE
8
BLACK
6
CONTINUOUS
10
158.1258200000000045
20
-81.7574690000000004
11
158.5455230000000029
21
-82.8217640000000017
0
LINE
8
BLACK
6
CONTINUOUS
10
158.5455230000000029
20
-82.8217640000000017
11
159.0013179999999977
21
-83.8711089999999899
0
LINE
8
BLACK
6
CONTINUOUS
10
159.0013179999999977
20
-83.8711089999999899
11
159.4926739999999938
21
-84.9042819999999949
0
LINE
8
BLACK
6
CONTINUOUS
10
159.4926739999999938
20
-84.9042819999999949
11
160.0190159999999935
21
-85.9200759999999946
0
LINE
8
BLACK
6
CONTINUOUS
10
160.0190159999999935
20
-85.9200759999999946
11
160.5797319999999786
21
-86.917309000000003
0
LINE
8
BLACK
6
CONTINUOUS
10
160.5797319999999786
20
-86.917309000000003
11
161.1741669999999829
21
-87.8948159999999916
0
LINE
8
BLACK
6
CONTINUOUS
10
161.1741669999999829
20
-87.8948159999999916
11
161.8016299999999887
21
-88.851460000000003
0
LINE
8
BLACK
6
CONTINUOUS
10
161.8016299999999887
20
-88.851460000000003
11
162.461387000000002
21
-89.7861229999999892
0
LINE
8
BLACK
6
CONTINUOUS
10
162.461387000000002
20
-89.7861229999999892
11
163.1526700000000005
21
-90.6977159999999998
0
LINE
8
BLACK
6
CONTINUOUS
10
163.1526700000000005
20
-90.6977159999999998
11
163.8746730000000014
21
-91.5851770000000016
0
LINE
8
BLACK
6
CONTINUOUS
10
163.8746730000000014
20
-91.5851770000000016
11
164.6265539999999987
21
-92.4474699999999956
0
LINE
8
BLACK
6
CONTINUOUS
10
164.6265539999999987
20
-92.4474699999999956
11
165.4074359999999899
21
-93.2835910000000013
0
LINE
8
BLACK
6
CONTINUOUS
10
165.4074359999999899
20
-93.2835910000000013
11
166.2164089999999987
21
-94.0925639999999959
0
LINE
8
BLACK
6
CONTINUOUS
10
166.2164089999999987
20
-94.0925639999999959
11
167.0525299999999902
21
-94.8734460000000013
0
LINE
8
BLACK
6
CONTINUOUS
10
167.0525299999999902
20
-94.8734460000000013
11
167.9148229999999842
21
-95.6253269999999986
0
LINE
8
BLACK
6
CONTINUOUS
10
167.9148229999999842
20
-95.6253269999999986
11
168.802283999999986
21
-96.3473299999999995
0
LINE
8
BLACK
6
CONTINUOUS
10
168.802283999999986
20
-96.3473299999999995
11
169.7138769999999965
21
-97.038612999999998
0
LINE
8
BLACK
6
CONTINUOUS
10
169.7138769999999965
20
-97.038612999999998
11
170.648539999999997
21
-97.698369999999997
0
LINE
8
BLACK
6
CONTINUOUS
10
170.648539999999997
20
-97.698369999999997
11
171.60518399999998
21
-98.3258329999999887
0
LINE
8
BLACK
6
CONTINUOUS
10
171.60518399999998
20
-98.3258329999999887
11
172.5826909999999828
21
-98.920267999999993
0
LINE
8
BLACK
6
CONTINUOUS
10
172.5826909999999828
20
-98.920267999999993
11
173.5799240000000054
21
-99.4809839999999923
0
LINE
8
BLACK
6
CONTINUOUS
10
173.5799240000000054
20
-99.4809839999999923
11
174.5957180000000051
21
-100.007325999999992
0
LINE
8
BLACK
6
CONTINUOUS
10
174.5957180000000051
20
-100.007325999999992
11
175.6288909999999817
21
-100.4986820000000023
0
LINE
8
BLACK
6
CONTINUOUS
10
175.6288909999999817
20
-100.4986820000000023
11
176.6782359999999983
21
-100.9544769999999971
0
LINE
8
BLACK
6
CONTINUOUS
10
176.6782359999999983
20
-100.9544769999999971
11
177.7425309999999854
21
-101.3741799999999955
0
LINE
8
BLACK
6
CONTINUOUS
10
177.7425309999999854
20
-101.3741799999999955
11
178.8205349999999783
21
-101.7573029999999932
0
LINE
8
BLACK
6
CONTINUOUS
10
178.8205349999999783
20
-101.7573029999999932
11
179.9109899999999982
21
-102.1033979999999985
0
LINE
8
BLACK
6
CONTINUOUS
10
179.9109899999999982
20
-102.1033979999999985
11
181.0126259999999832
21
-102.4120619999999917
0
LINE
8
BLACK
6
CONTINUOUS
10
181.0126259999999832
20
-102.4120619999999917
11
182.1241579999999942
21
-102.6829339999999888
0
LINE
8
BLACK
6
CONTINUOUS
10
182.1241579999999942
20
-102.6829339999999888
11
183.2442889999999807
21
-102.9157000000000011
0
LINE
8
BLACK
6
CONTINUOUS
10
183.2442889999999807
20
-102.9157000000000011
11
184.3717149999999947
21
-103.1100879999999904
0
LINE
8
BLACK
6
CONTINUOUS
10
184.3717149999999947
20
-103.1100879999999904
11
185.5051200000000051
21
-103.26587099999999
0
LINE
8
BLACK
6
CONTINUOUS
10
185.5051200000000051
20
-103.26587099999999
11
186.6431819999999959
21
-103.382868000000002
0
LINE
8
BLACK
6
CONTINUOUS
10
186.6431819999999959
20
-103.382868000000002
11
187.7845759999999871
21
-103.4609409999999912
0
LINE
8
BLACK
6
CONTINUOUS
10
187.7845759999999871
20
-103.4609409999999912
11
188.9279699999999877
21
-103.5
0
LINE
8
BLACK
6
CONTINUOUS
10
188.9279699999999877
20
-103.5
11
190.0720299999999838
21
-103.5
0
LINE
8
BLACK
6
CONTINUOUS
10
190.0720299999999838
20
-103.5
11
191.2154239999999845
21
-103.4609409999999912
0
LINE
8
BLACK
6
CONTINUOUS
10
191.2154239999999845
20
-103.4609409999999912
11
192.3568180000000041
21
-103.382868000000002
0
LINE
8
BLACK
6
CONTINUOUS
10
192.3568180000000041
20
-103.382868000000002
11
193.4948799999999949
21
-103.26587099999999
0
LINE
8
BLACK
6
CONTINUOUS
10
193.4948799999999949
20
-103.26587099999999
11
194.6282850000000053
21
-103.1100879999999904
0
LINE
8
BLACK
6
CONTINUOUS
10
194.6282850000000053
20
-103.1100879999999904
11
195.7557109999999909
21
-102.9157000000000011
0
LINE
8
BLACK
6
CONTINUOUS
10
195.7557109999999909
20
-102.9157000000000011
11
196.8758419999999774
21
-102.6829339999999888
0
LINE
8
BLACK
6
CONTINUOUS
10
196.8758419999999774
20
-102.6829339999999888
11
197.9873739999999884
21
-102.4120619999999917
0
LINE
8
BLACK
6
CONTINUOUS
10
197.9873739999999884
20
-102.4120619999999917
11
199.0890100000000018
21
-102.1033979999999985
0
LINE
8
BLACK
6
CONTINUOUS
10
199.0890100000000018
20
-102.1033979999999985
11
200.1794649999999933
21
-101.7573029999999932
0
LINE
8
BLACK
6
CONTINUOUS
10
200.1794649999999933
20
-101.7573029999999932
11
201.2574689999999862
21
-101.3741799999999955
0
LINE
8
BLACK
6
CONTINUOUS
10
201.2574689999999862
20
-101.3741799999999955
11
202.3217640000000017
21
-100.9544769999999971
0
LINE
8
BLACK
6
CONTINUOUS
10
202.3217640000000017
20
-100.9544769999999971
11
203.3711089999999899
21
-100.4986820000000023
0
LINE
8
BLACK
6
CONTINUOUS
10
203.3711089999999899
20
-100.4986820000000023
11
204.4042819999999949
21
-100.007325999999992
0
LINE
8
BLACK
6
CONTINUOUS
10
204.4042819999999949
20
-100.007325999999992
11
205.4200759999999946
21
-99.4809839999999923
0
LINE
8
BLACK
6
CONTINUOUS
10
205.4200759999999946
20
-99.4809839999999923
11
206.4173089999999888
21
-98.920267999999993
0
LINE
8
BLACK
6
CONTINUOUS
10
206.4173089999999888
20
-98.920267999999993
11
207.3948159999999916
21
-98.3258329999999887
0
LINE
8
BLACK
6
CONTINUOUS
10
207.3948159999999916
20
-98.3258329999999887
11
208.351460000000003
21
-97.698369999999997
0
LINE
8
BLACK
6
CONTINUOUS
10
208.351460000000003
20
-97.698369999999997
11
209.2861230000000035
21
-97.038612999999998
0
LINE
8
BLACK
6
CONTINUOUS
10
209.2861230000000035
20
-97.038612999999998
11
210.1977159999999856
21
-96.3473299999999995
0
LINE
8
BLACK
6
CONTINUOUS
10
210.1977159999999856
20
-96.3473299999999995
11
211.0851769999999874
21
-95.6253269999999986
0
LINE
8
BLACK
6
CONTINUOUS
10
211.0851769999999874
20
-95.6253269999999986
11
211.9474699999999814
21
-94.8734460000000013
0
LINE
8
BLACK
6
CONTINUOUS
10
211.9474699999999814
20
-94.8734460000000013
11
212.7835910000000013
21
-94.0925639999999959
0
LINE
8
BLACK
6
CONTINUOUS
10
212.7835910000000013
20
-94.0925639999999959
11
213.5925639999999817
21
-93.2835910000000013
0
LINE
8
BLACK
6
CONTINUOUS
10
213.5925639999999817
20
-93.2835910000000013
11
214.3734460000000013
21
-92.4474699999999956
0
LINE
8
BLACK
6
CONTINUOUS
10
214.3734460000000013
20
-92.4474699999999956
11
215.1253269999999986
21
-91.5851770000000016
0
LINE
8
BLACK
6
CONTINUOUS
10
215.1253269999999986
20
-91.5851770000000016
11
215.8473299999999995
21
-90.6977159999999998
0
LINE
8
BLACK
6
CONTINUOUS
10
215.8473299999999995
20
-90.6977159999999998
11
216.538612999999998
21
-89.7861229999999892
0
LINE
8
BLACK
6
CONTINUOUS
10
216.538612999999998
20
-89.7861229999999892
11
217.1983699999999828
21
-88.851460000000003
0
LINE
8
BLACK
6
CONTINUOUS
10
217.1983699999999828
20
-88.851460000000003
11
217.8258329999999887
21
-87.8948159999999916
0
LINE
8
BLACK
6
CONTINUOUS
10
217.8258329999999887
20
-87.8948159999999916
11
218.420267999999993
21
-86.917309000000003
0
LINE
8
BLACK
6
CONTINUOUS
10
218.420267999999993
20
-86.917309000000003
11
218.9809839999999781
21
-85.9200759999999946
0
LINE
8
BLACK
6
CONTINUOUS
10
218.9809839999999781
20
-85.9200759999999946
11
219.5073259999999777
21
-84.9042819999999949
0
LINE
8
BLACK
6
CONTINUOUS
10
219.5073259999999777
20
-84.9042819999999949
11
219.9986820000000023
21
-83.8711089999999899
0
LINE
8
BLACK
6
CONTINUOUS
10
219.9986820000000023
20
-83.8711089999999899
11
220.4544769999999971
21
-82.8217640000000017
0
LINE
8
BLACK
6
CONTINUOUS
10
220.4544769999999971
20
-82.8217640000000017
11
220.8741799999999955
21
-81.7574690000000004
0
LINE
8
BLACK
6
CONTINUOUS
10
220.8741799999999955
20
-81.7574690000000004
11
221.257302999999979
21
-80.6794649999999933
0
LINE
8
BLACK
6
CONTINUOUS
10
221.257302999999979
20
-80.6794649999999933
11
221.6033979999999985
21
-79.5890100000000018
0
LINE
8
BLACK
6
CONTINUOUS
10
221.6033979999999985
20
-79.5890100000000018
11
221.9120619999999917
21
-78.4873740000000026
0
LINE
8
BLACK
6
CONTINUOUS
10
221.9120619999999917
20
-78.4873740000000026
11
222.1829339999999888
21
-77.3758419999999916
0
LINE
8
BLACK
6
CONTINUOUS
10
222.1829339999999888
20
-77.3758419999999916
11
222.4156999999999869
21
-76.2557109999999909
0
LINE
8
BLACK
6
CONTINUOUS
10
222.4156999999999869
20
-76.2557109999999909
11
222.6100879999999904
21
-75.1282849999999911
0
LINE
8
BLACK
6
CONTINUOUS
10
222.6100879999999904
20
-75.1282849999999911
11
222.7658709999999758
21
-73.9948799999999949
0
LINE
8
BLACK
6
CONTINUOUS
10
222.7658709999999758
20
-73.9948799999999949
11
222.882868000000002
21
-72.8568179999999899
0
LINE
8
BLACK
6
CONTINUOUS
10
222.882868000000002
20
-72.8568179999999899
11
222.9609409999999912
21
-71.7154239999999987
0
LINE
8
BLACK
6
CONTINUOUS
10
222.9609409999999912
20
-71.7154239999999987
11
223.
21
-70.572029999999998
0
LINE
8
BLACK
6
CONTINUOUS
10
223.
20
-70.572029999999998
11
223.
21
-69.427970000000002
0
LINE
8
BLACK
6
CONTINUOUS
10
223.
20
-69.427970000000002
11
222.9609409999999912
21
-68.2845760000000013
0
LINE
8
BLACK
6
CONTINUOUS
10
222.9609409999999912
20
-68.2845760000000013
11
222.882868000000002
21
-67.1431819999999959
0
LINE
8
BLACK
6
CONTINUOUS
10
222.882868000000002
20
-67.1431819999999959
11
222.7658709999999758
21
-66.0051199999999909
0
LINE
8
BLACK
6
CONTINUOUS
10
222.7658709999999758
20
-66.0051199999999909
11
222.6100879999999904
21
-64.8717149999999947
0
LINE
8
BLACK
6
CONTINUOUS
10
222.6100879999999904
20
-64.8717149999999947
11
222.4156999999999869
21
-63.7442889999999949
0
LINE
8
BLACK
6
CONTINUOUS
10
222.4156999999999869
20
-63.7442889999999949
11
222.1829339999999888
21
-62.6241579999999942
0
LINE
8
BLACK
6
CONTINUOUS
10
222.1829339999999888
20
-62.6241579999999942
11
221.9120619999999917
21
-61.5126259999999974
0
LINE
8
BLACK
6
CONTINUOUS
10
221.9120619999999917
20
-61.5126259999999974
11
221.6033979999999985
21
-60.4109899999999982
0
LINE
8
BLACK
6
CONTINUOUS
10
221.6033979999999985
20
-60.4109899999999982
11
221.257302999999979
21
-59.3205349999999996
0
LINE
8
BLACK
6
CONTINUOUS
10
221.257302999999979
20
-59.3205349999999996
11
220.8741799999999955
21
-58.2425309999999996
0
LINE
8
BLACK
6
CONTINUOUS
10
220.8741799999999955
20
-58.2425309999999996
11
220.4544769999999971
21
-57.1782359999999983
0
LINE
8
BLACK
6
CONTINUOUS
10
220.4544769999999971
20
-57.1782359999999983
11
219.9986820000000023
21
-56.1288909999999959
0
LINE
8
BLACK
6
CONTINUOUS
10
219.9986820000000023
20
-56.1288909999999959
11
219.5073259999999777
21
-55.095717999999998
0
LINE
8
BLACK
6
CONTINUOUS
10
219.5073259999999777
20
-55.095717999999998
11
218.9809839999999781
21
-54.0799239999999983
0
LINE
8
BLACK
6
CONTINUOUS
10
218.9809839999999781
20
-54.0799239999999983
11
218.420267999999993
21
-53.082690999999997
0
LINE
8
BLACK
6
CONTINUOUS
10
218.420267999999993
20
-53.082690999999997
11
217.8258329999999887
21
-52.1051839999999942
0
LINE
8
BLACK
6
CONTINUOUS
10
217.8258329999999887
20
-52.1051839999999942
11
217.1983699999999828
21
-51.148539999999997
0
LINE
8
BLACK
6
CONTINUOUS
10
217.1983699999999828
20
-51.148539999999997
11
216.538612999999998
21
-50.2138769999999965
0
LINE
8
BLACK
6
CONTINUOUS
10
216.538612999999998
20
-50.2138769999999965
11
215.8473299999999995
21
-49.3022840000000002
0
LINE
8
BLACK
6
CONTINUOUS
10
215.8473299999999995
20
-49.3022840000000002
11
215.1253269999999986
21
-48.4148229999999984
0
LINE
8
BLACK
6
CONTINUOUS
10
215.1253269999999986
20
-48.4148229999999984
11
214.3734460000000013
21
-47.5525299999999973
0
LINE
8
BLACK
6
CONTINUOUS
10
214.3734460000000013
20
-47.5525299999999973
11
213.5925639999999817
21
-46.7164089999999987
0
LINE
8
BLACK
6
CONTINUOUS
10
213.5925639999999817
20
-46.7164089999999987
11
212.7835910000000013
21
-45.907435999999997
0
LINE
8
BLACK
6
CONTINUOUS
10
212.7835910000000013
20
-45.907435999999997
11
211.9474699999999814
21
-45.1265539999999987
0
LINE
8
BLACK
6
CONTINUOUS
10
211.9474699999999814
20
-45.1265539999999987
11
211.0851769999999874
21
-44.3746730000000014
0
LINE
8
BLACK
6
CONTINUOUS
10
211.0851769999999874
20
-44.3746730000000014
11
210.1977159999999856
21
-43.6526700000000005
0
LINE
8
BLACK
6
CONTINUOUS
10
210.1977159999999856
20
-43.6526700000000005
11
209.2861230000000035
21
-42.9613869999999949
0
LINE
8
BLACK
6
CONTINUOUS
10
209.2861230000000035
20
-42.9613869999999949
11
208.351460000000003
21
-42.3016299999999958
0
LINE
8
BLACK
6
CONTINUOUS
10
208.351460000000003
20
-42.3016299999999958
11
207.3948159999999916
21
-41.6741669999999971
0
LINE
8
BLACK
6
CONTINUOUS
10
207.3948159999999916
20
-41.6741669999999971
11
206.4173089999999888
21
-41.0797319999999999
0
LINE
8
BLACK
6
CONTINUOUS
10
206.4173089999999888
20
-41.0797319999999999
11
205.4200759999999946
21
-40.5190160000000006
0
LINE
8
BLACK
6
CONTINUOUS
10
205.4200759999999946
20
-40.5190160000000006
11
204.4042819999999949
21
-39.9926740000000009
0
LINE
8
BLACK
6
CONTINUOUS
10
204.4042819999999949
20
-39.9926740000000009
11
203.3711089999999899
21
-39.5013179999999977
0
LINE
8
BLACK
6
CONTINUOUS
10
203.3711089999999899
20
-39.5013179999999977
11
202.3217640000000017
21
-39.0455229999999958
0
LINE
8
BLACK
6
CONTINUOUS
10
202.3217640000000017
20
-39.0455229999999958
11
201.2574689999999862
21
-38.6258199999999974
0
LINE
8
BLACK
6
CONTINUOUS
10
201.2574689999999862
20
-38.6258199999999974
11
200.1794649999999933
21
-38.2426969999999997
0
LINE
8
BLACK
6
CONTINUOUS
10
200.1794649999999933
20
-38.2426969999999997
11
199.0890100000000018
21
-37.8966020000000015
0
LINE
8
BLACK
6
CONTINUOUS
10
199.0890100000000018
20
-37.8966020000000015
11
197.9873739999999884
21
-37.5879380000000012
0
LINE
8
BLACK
6
CONTINUOUS
10
197.9873739999999884
20
-37.5879380000000012
11
196.8758419999999774
21
-37.317065999999997
0
LINE
8
BLACK
6
CONTINUOUS
10
196.8758419999999774
20
-37.317065999999997
11
195.7557109999999909
21
-37.0842999999999989
0
LINE
8
BLACK
6
CONTINUOUS
10
195.7557109999999909
20
-37.0842999999999989
11
194.6282850000000053
21
-36.8899119999999954
0
LINE
8
BLACK
6
CONTINUOUS
10
194.6282850000000053
20
-36.8899119999999954
11
193.4948799999999949
21
-36.7341289999999958
0
LINE
8
BLACK
6
CONTINUOUS
10
193.4948799999999949
20
-36.7341289999999958
11
192.3568180000000041
21
-36.617131999999998
0
LINE
8
BLACK
6
CONTINUOUS
10
192.3568180000000041
20
-36.617131999999998
11
191.2154239999999845
21
-36.5390590000000017
0
LINE
8
BLACK
6
CONTINUOUS
10
191.2154239999999845
20
-36.5390590000000017
11
190.0720299999999838
21
-36.5
0
LINE
8
BLACK
6
CONTINUOUS
10
190.0720299999999838
20
-36.5
11
188.9279699999999877
21
-36.5
0
LINE
8
BLACK
6
CONTINUOUS
10
188.9279699999999877
20
-36.5
11
187.7845759999999871
21
-36.5390590000000017
0
LINE
8
BLACK
6
CONTINUOUS
10
187.7845759999999871
20
-36.5390590000000017
11
186.6431819999999959
21
-36.617131999999998
0
LINE
8
BLACK
6
CONTINUOUS
10
186.6431819999999959
20
-36.617131999999998
11
185.5051200000000051
21
-36.7341289999999958
0
LINE
8
BLACK
6
CONTINUOUS
10
185.5051200000000051
20
-36.7341289999999958
11
184.3717149999999947
21
-36.8899119999999954
0
LINE
8
BLACK
6
CONTINUOUS
10
184.3717149999999947
20
-36.8899119999999954
11
183.2442889999999807
21
-37.0842999999999989
0
LINE
8
BLACK
6
CONTINUOUS
10
183.2442889999999807
20
-37.0842999999999989
11
182.1241579999999942
21
-37.317065999999997
0
LINE
8
BLACK
6
CONTINUOUS
10
182.1241579999999942
20
-37.317065999999997
11
181.0126259999999832
21
-37.5879380000000012
0
LINE
8
BLACK
6
CONTINUOUS
10
181.0126259999999832
20
-37.5879380000000012
11
179.9109899999999982
21
-37.8966020000000015
0
LINE
8
BLACK
6
CONTINUOUS
10
179.9109899999999982
20
-37.8966020000000015
11
178.8205349999999783
21
-38.2426969999999997
0
LINE
8
BLACK
6
CONTINUOUS
10
178.8205349999999783
20
-38.2426969999999997
11
177.7425309999999854
21
-38.6258199999999974
0
LINE
8
BLACK
6
CONTINUOUS
10
177.7425309999999854
20
-38.6258199999999974
11
176.6782359999999983
21
-39.0455229999999958
0
LINE
8
BLACK
6
CONTINUOUS
10
176.6782359999999983
20
-39.0455229999999958
11
175.6288909999999817
21
-39.5013179999999977
0
LINE
8
BLACK
6
CONTINUOUS
10
175.6288909999999817
20
-39.5013179999999977
11
174.5957180000000051
21
-39.9926740000000009
0
LINE
8
BLACK
6
CONTINUOUS
10
174.5957180000000051
20
-39.9926740000000009
11
173.5799240000000054
21
-40.5190160000000006
0
LINE
8
BLACK
6
CONTINUOUS
10
173.5799240000000054
20
-40.5190160000000006
11
172.5826909999999828
21
-41.0797319999999999
0
LINE
8
BLACK
6
CONTINUOUS
10
172.5826909999999828
20
-41.0797319999999999
11
171.60518399999998
21
-41.6741669999999971
0
LINE
8
BLACK
6
CONTINUOUS
10
171.60518399999998
20
-41.6741669999999971
11
170.648539999999997
21
-42.3016299999999958
0
LINE
8
BLACK
6
CONTINUOUS
10
170.648539999999997
20
-42.3016299999999958
11
169.7138769999999965
21
-42.9613869999999949
0
LINE
8
BLACK
6
CONTINUOUS
10
169.7138769999999965
20
-42.9613869999999949
11
168.802283999999986
21
-43.6526700000000005
0
LINE
8
BLACK
6
CONTINUOUS
10
168.802283999999986
20
-43.6526700000000005
11
167.9148229999999842
21
-44.3746730000000014
0
LINE
8
BLACK
6
CONTINUOUS
10
167.9148229999999842
20
-44.3746730000000014
11
167.0525299999999902
21
-45.1265539999999987
0
LINE
8
BLACK
6
CONTINUOUS
10
167.0525299999999902
20
-45.1265539999999987
11
166.2164089999999987
21
-45.907435999999997
0
LINE
8
BLACK
6
CONTINUOUS
10
166.2164089999999987
20
-45.907435999999997
11
165.4074359999999899
21
-46.7164089999999987
0
LINE
8
BLACK
6
CONTINUOUS
10
165.4074359999999899
20
-46.7164089999999987
11
164.6265539999999987
21
-47.5525299999999973
0
LINE
8
BLACK
6
CONTINUOUS
10
164.6265539999999987
20
-47.5525299999999973
11
163.8746730000000014
21
-48.4148229999999984
0
LINE
8
BLACK
6
CONTINUOUS
10
163.8746730000000014
20
-48.4148229999999984
11
163.1526700000000005
21
-49.3022840000000002
0
LINE
8
BLACK
6
CONTINUOUS
10
163.1526700000000005
20
-49.3022840000000002
11
162.461387000000002
21
-50.2138769999999965
0
LINE
8
BLACK
6
CONTINUOUS
10
162.461387000000002
20
-50.2138769999999965
11
161.8016299999999887
21
-51.148539999999997
0
LINE
8
BLACK
6
CONTINUOUS
10
161.8016299999999887
20
-51.148539999999997
11
161.1741669999999829
21
-52.1051839999999942
0
LINE
8
BLACK
6
CONTINUOUS
10
161.1741669999999829
20
-52.1051839999999942
11
160.5797319999999786
21
-53.082690999999997
0
LINE
8
BLACK
6
CONTINUOUS
10
160.5797319999999786
20
-53.082690999999997
11
160.0190159999999935
21
-54.0799239999999983
0
LINE
8
BLACK
6
CONTINUOUS
10
160.0190159999999935
20
-54.0799239999999983
11
159.4926739999999938
21
-55.095717999999998
0
LINE
8
BLACK
6
CONTINUOUS
10
159.4926739999999938
20
-55.095717999999998
11
159.0013179999999977
21
-56.1288909999999959
0
LINE
8
BLACK
6
CONTINUOUS
10
159.0013179999999977
20
-56.1288909999999959
11
158.5455230000000029
21
-57.1782359999999983
0
LINE
8
BLACK
6
CONTINUOUS
10
158.5455230000000029
20
-57.1782359999999983
11
158.1258200000000045
21
-58.2425309999999996
0
LINE
8
BLACK
6
CONTINUOUS
10
158.1258200000000045
20
-58.2425309999999996
11
157.7426969999999926
21
-59.3205349999999996
0
LINE
8
BLACK
6
CONTINUOUS
10
157.7426969999999926
20
-59.3205349999999996
11
157.3966020000000015
21
-60.4109899999999982
0
LINE
8
BLACK
6
CONTINUOUS
10
157.3966020000000015
20
-60.4109899999999982
11
157.0879379999999799
21
-61.5126259999999974
0
LINE
8
BLACK
6
CONTINUOUS
10
157.0879379999999799
20
-61.5126259999999974
11
156.8170659999999828
21
-62.6241579999999942
0
LINE
8
BLACK
6
CONTINUOUS
10
156.8170659999999828
20
-62.6241579999999942
11
156.5842999999999847
21
-63.7442889999999949
0
LINE
8
BLACK
6
CONTINUOUS
10
156.5842999999999847
20
-63.7442889999999949
11
156.3899119999999812
21
-64.8717149999999947
0
LINE
8
BLACK
6
CONTINUOUS
10
156.3899119999999812
20
-64.8717149999999947
11
156.2341289999999958
21
-66.0051199999999909
0
LINE
8
BLACK
6
CONTINUOUS
10
156.2341289999999958
20
-66.0051199999999909
11
156.117131999999998
21
-67.1431819999999959
0
LINE
8
BLACK
6
CONTINUOUS
10
156.117131999999998
20
-67.1431819999999959
11
156.0390589999999804
21
-68.2845760000000013
0
LINE
8
BLACK
6
CONTINUOUS
10
156.0390589999999804
20
-68.2845760000000013
11
156.
21
-69.427970000000002
0
LINE
8
BLACK
6
CONTINUOUS
10
156.
20
-69.427970000000002
11
156.
21
-70.572029999999998
0
CIRCLE
8
BLACK
10
204.9599999999999795
20
-75.
40
0.175
0
CIRCLE
8
BLACK
10
207.5
20
-75.
40
0.175
0
CIRCLE
8
BLACK
10
210.039999999999992
20
-75.
40
0.175
0
CIRCLE
8
BLACK
10
215.25
20
-80.5
40
0.175
0
CIRCLE
8
BLACK
10
212.75
20
-80.5
40
0.175
0
CIRCLE
8
BLACK
10
211.539999999999992
20
-53.
40
0.175
0
CIRCLE
8
BLACK
10
209.
20
-53.
40
0.175
0
CIRCLE
8
BLACK
10
206.4599999999999795
20
-53.
40
0.175
0
CIRCLE
8
BLACK
10
210.
20
-69.7000000000000028
40
0.175
0
CIRCLE
8
BLACK
10
210.
20
-67.1599999999999966
40
0.175
0
CIRCLE
8
BLACK
10
210.
20
-64.6199999999999903
40
0.175
0
CIRCLE
8
BLACK
10
210.
20
-62.0799999999999983
40
0.175
0
CIRCLE
8
BLACK
10
210.
20
-59.5399999999999991
40
0.175
0
CIRCLE
8
BLACK
10
210.
20
-57.
40
0.175
0
CIRCLE
8
BLACK
10
211.25
20
-86.5
40
0.175
0
CIRCLE
8
BLACK
10
208.75
20
-86.5
40
0.175
0
CIRCLE
8
BLACK
10
215.7999999999999829
20
-71.
40
0.175
0
CIRCLE
8
BLACK
10
215.7999999999999829
20
-73.5
40
0.175
0
CIRCLE
8
BLACK
10
177.4499999999999886
20
-65.5900000000000034
40
0.175
0
CIRCLE
8
BLACK
10
177.4499999999999886
20
-83.3699999999999903
40
0.175
0
CIRCLE
8
BLACK
10
200.3100000000000023
20
-83.3699999999999903
40
0.175
0
CIRCLE
8
BLACK
10
200.3100000000000023
20
-85.9099999999999966
40
0.175
0
CIRCLE
8
BLACK
10
177.4499999999999886
20
-50.3499999999999943
40
0.175
0
CIRCLE
8
BLACK
10
177.4499999999999886
20
-57.9699999999999989
40
0.175
0
CIRCLE
8
BLACK
10
177.4499999999999886
20
-60.509999999999998
40
0.175
0
CIRCLE
8
BLACK
10
177.4499999999999886
20
-63.0499999999999972
40
0.175
0
CIRCLE
8
BLACK
10
177.4499999999999886
20
-68.1299999999999955
40
0.175
0
CIRCLE
8
BLACK
10
177.4499999999999886
20
-70.6700000000000017
40
0.175
0
CIRCLE
8
BLACK
10
177.4499999999999886
20
-73.2099999999999937
40
0.175
0
CIRCLE
8
BLACK
10
177.4499999999999886
20
-75.75
40
0.175
0
CIRCLE
8
BLACK
10
177.4499999999999886
20
-78.289999999999992
40
0.175
0
CIRCLE
8
BLACK
10
177.4499999999999886
20
-80.8299999999999983
40
0.175
0
CIRCLE
8
BLACK
10
200.3100000000000023
20
-80.8299999999999983
40
0.175
0
CIRCLE
8
BLACK
10
200.3100000000000023
20
-78.289999999999992
40
0.175
0
CIRCLE
8
BLACK
10
200.3100000000000023
20
-75.75
40
0.175
0
CIRCLE
8
BLACK
10
200.3100000000000023
20
-73.2099999999999937
40
0.175
0
CIRCLE
8
BLACK
10
200.3100000000000023
20
-70.6700000000000017
40
0.175
0
CIRCLE
8
BLACK
10
200.3100000000000023
20
-68.1299999999999955
40
0.175
0
CIRCLE
8
BLACK
10
200.3100000000000023
20
-65.5900000000000034
40
0.175
0
CIRCLE
8
BLACK
10
200.3100000000000023
20
-63.0499999999999972
40
0.175
0
CIRCLE
8
BLACK
10
200.3100000000000023
20
-60.509999999999998
40
0.175
0
CIRCLE
8
BLACK
10
200.3100000000000023
20
-57.9699999999999989
40
0.175
0
CIRCLE
8
BLACK
10
200.3100000000000023
20
-55.4299999999999997
40
0.175
0
CIRCLE
8
BLACK
10
200.3100000000000023
20
-52.8900000000000006
40
0.175
0
CIRCLE
8
BLACK
10
200.3100000000000023
20
-50.3499999999999943
40
0.175
0
CIRCLE
8
BLACK
10
177.4499999999999886
20
-85.9099999999999966
40
0.175
0
CIRCLE
8
BLACK
10
177.4499999999999886
20
-55.4299999999999997
40
0.175
0
CIRCLE
8
BLACK
10
177.4499999999999886
20
-52.8900000000000006
40
0.175
0
CIRCLE
8
BLACK
10
163.5
20
-63.8799999999999955
40
0.175
0
CIRCLE
8
BLACK
10
163.5
20
-66.4200000000000017
40
0.175
0
CIRCLE
8
BLACK
10
163.5
20
-68.9599999999999937
40
0.175
0
CIRCLE
8
BLACK
10
163.5
20
-71.5
40
0.175
0
CIRCLE
8
BLACK
10
163.5
20
-74.039999999999992
40
0.175
0
CIRCLE
8
BLACK
10
163.5
20
-76.5799999999999983
40
0.175
0
CIRCLE
8
BLACK
10
216.
20
-53.5
40
0.15
0
CIRCLE
8
BLACK
10
182.
20
-95.5
40
0.4
0
CIRCLE
8
BLACK
10
197.
20
-95.5
40
0.4
0
CIRCLE
8
BLACK
10
160.25
20
-73.25
40
0.4
0
CIRCLE
8
BLACK
10
169.4599999999999795
20
-82.539999999999992
40
0.35
0
CIRCLE
8
BLACK
10
202.
20
-48.
40
0.35
0
CIRCLE
8
BLACK
10
205.
20
-46.
40
0.35
0
CIRCLE
8
WHITE
10
216.
20
-53.5
40
0.15
0
CIRCLE
8
WHITE
10
182.
20
-95.5
40
0.175
0
CIRCLE
8
WHITE
10
197.
20
-95.5
40
0.175
0
CIRCLE
8
WHITE
10
160.25
20
-73.25
40
0.175
0
CIRCLE
8
WHITE
10
169.4599999999999795
20
-82.539999999999992
40
0.175
0
CIRCLE
8
WHITE
10
202.
20
-48.
40
0.175
0
CIRCLE
8
WHITE
10
205.
20
-46.
40
0.175
0
CIRCLE
8
WHITE
10
204.9599999999999795
20
-75.
40
0.175
0
CIRCLE
8
WHITE
10
207.5
20
-75.
40
0.175
0
CIRCLE
8
WHITE
10
210.039999999999992
20
-75.
40
0.175
0
CIRCLE
8
WHITE
10
215.25
20
-80.5
40
0.175
0
CIRCLE
8
WHITE
10
212.75
20
-80.5
40
0.175
0
CIRCLE
8
WHITE
10
211.539999999999992
20
-53.
40
0.175
0
CIRCLE
8
WHITE
10
209.
20
-53.
40
0.175
0
CIRCLE
8
WHITE
10
206.4599999999999795
20
-53.
40
0.175
0
CIRCLE
8
WHITE
10
210.
20
-69.7000000000000028
40
0.175
0
CIRCLE
8
WHITE
10
210.
20
-67.1599999999999966
40
0.175
0
CIRCLE
8
WHITE
10
210.
20
-64.6199999999999903
40
0.175
0
CIRCLE
8
WHITE
10
210.
20
-62.0799999999999983
40
0.175
0
CIRCLE
8
WHITE
10
210.
20
-59.5399999999999991
40
0.175
0
CIRCLE
8
WHITE
10
210.
20
-57.
40
0.175
0
CIRCLE
8
WHITE
10
211.25
20
-86.5
40
0.175
0
CIRCLE
8
WHITE
10
208.75
20
-86.5
40
0.175
0
CIRCLE
8
WHITE
10
215.7999999999999829
20
-71.
40
0.175
0
CIRCLE
8
WHITE
10
215.7999999999999829
20
-73.5
40
0.175
0
CIRCLE
8
WHITE
10
177.4499999999999886
20
-65.5900000000000034
40
0.175
0
CIRCLE
8
WHITE
10
177.4499999999999886
20
-83.3699999999999903
40
0.175
0
CIRCLE
8
WHITE
10
200.3100000000000023
20
-83.3699999999999903
40
0.175
0
CIRCLE
8
WHITE
10
200.3100000000000023
20
-85.9099999999999966
40
0.175
0
CIRCLE
8
WHITE
10
177.4499999999999886
20
-50.3499999999999943
40
0.175
0
CIRCLE
8
WHITE
10
177.4499999999999886
20
-57.9699999999999989
40
0.175
0
CIRCLE
8
WHITE
10
177.4499999999999886
20
-60.509999999999998
40
0.175
0
CIRCLE
8
WHITE
10
177.4499999999999886
20
-63.0499999999999972
40
0.175
0
CIRCLE
8
WHITE
10
177.4499999999999886
20
-68.1299999999999955
40
0.175
0
CIRCLE
8
WHITE
10
177.4499999999999886
20
-70.6700000000000017
40
0.175
0
CIRCLE
8
WHITE
10
177.4499999999999886
20
-73.2099999999999937
40
0.175
0
CIRCLE
8
WHITE
10
177.4499999999999886
20
-75.75
40
0.175
0
CIRCLE
8
WHITE
10
177.4499999999999886
20
-78.289999999999992
40
0.175
0
CIRCLE
8
WHITE
10
177.4499999999999886
20
-80.8299999999999983
40
0.175
0
CIRCLE
8
WHITE
10
200.3100000000000023
20
-80.8299999999999983
40
0.175
0
CIRCLE
8
WHITE
10
200.3100000000000023
20
-78.289999999999992
40
0.175
0
CIRCLE
8
WHITE
10
200.3100000000000023
20
-75.75
40
0.175
0
CIRCLE
8
WHITE
10
200.3100000000000023
20
-73.2099999999999937
40
0.175
0
CIRCLE
8
WHITE
10
200.3100000000000023
20
-70.6700000000000017
40
0.175
0
CIRCLE
8
WHITE
10
200.3100000000000023
20
-68.1299999999999955
40
0.175
0
CIRCLE
8
WHITE
10
200.3100000000000023
20
-65.5900000000000034
40
0.175
0
CIRCLE
8
WHITE
10
200.3100000000000023
20
-63.0499999999999972
40
0.175
0
CIRCLE
8
WHITE
10
200.3100000000000023
20
-60.509999999999998
40
0.175
0
CIRCLE
8
WHITE
10
200.3100000000000023
20
-57.9699999999999989
40
0.175
0
CIRCLE
8
WHITE
10
200.3100000000000023
20
-55.4299999999999997
40
0.175
0
CIRCLE
8
WHITE
10
200.3100000000000023
20
-52.8900000000000006
40
0.175
0
CIRCLE
8
WHITE
10
200.3100000000000023
20
-50.3499999999999943
40
0.175
0
CIRCLE
8
WHITE
10
177.4499999999999886
20
-85.9099999999999966
40
0.175
0
CIRCLE
8
WHITE
10
177.4499999999999886
20
-55.4299999999999997
40
0.175
0
CIRCLE
8
WHITE
10
177.4499999999999886
20
-52.8900000000000006
40
0.175
0
CIRCLE
8
WHITE
10
163.5
20
-63.8799999999999955
40
0.175
0
CIRCLE
8
WHITE
10
163.5
20
-66.4200000000000017
40
0.175
0
CIRCLE
8
WHITE
10
163.5
20
-68.9599999999999937
40
0.175
0
CIRCLE
8
WHITE
10
163.5
20
-71.5
40
0.175
0
CIRCLE
8
WHITE
10
163.5
20
-74.039999999999992
40
0.175
0
CIRCLE
8
WHITE
10
163.5
20
-76.5799999999999983
40
0.175
  0
ENDSEC
  0
EOF
