  0
SECTION
  2
HEADER
  9
$ANGBASE
  50
0.0
  9
$ANGDIR
  70
1
  9
$MEASUREMENT
  70
1
  0
ENDSEC
  0
SECTION
  2
TABLES
  0
TABLE
  2
LTYPE
  70
4
  0
LTYPE
  5
40F
  2
CONTINUOUS
  70
0
  3
Solid line
  72
65
  73
0
  40
0.0
  0
LTYPE
  5
410
  2
DASHDOT
 70
0
  3
Dash Dot ____ _ ____ _
 72
65
 73
4
 40
2.0
 49
1.25
 49
-0.25
 49
0.25
 49
-0.25
  0
LTYPE
  5
411
  2
DASHED
 70
0
  3
Dashed __ __ __ __ __
 72
65
 73
2
 40
0.75
 49
0.5
 49
-0.25
  0
LTYPE
  5
43B
  2
DOTTED
 70
0
  3
Dotted .  .  .  .
 72
65
 73
2
 40
0.2
 49
0.0
 49
-0.2
  0
ENDTAB
  0
TABLE
  2
STYLE
  70
4
  0
STYLE
  2
KICAD
  70
0
  40
0
  41
1
  42
1
  50
0
  71
0
  3
isocp.shx
  0
STYLE
  2
KICADB
  70
0
  40
0
  41
1
  42
1
  50
0
  71
0
  3
isocp.shx
  0
STYLE
  2
KICADI
  70
0
  40
0
  41
1
  42
1
  50
15
  71
0
  3
isocp.shx
  0
STYLE
  2
KICADBI
  70
0
  40
0
  41
1
  42
1
  50
15
  71
0
  3
isocp.shx
  0
ENDTAB
  0
TABLE
  2
LAYER
  70
1
  0
LAYER
  2
BLACK
  70
0
  62
7
  6
CONTINUOUS
  0
ENDTAB
  0
ENDSEC
  0
SECTION
  2
ENTITIES
0
CIRCLE
8
BLACK
10
189.5
20
-70.
40
33.
0
CIRCLE
8
BLACK
10
204.9599999999999795
20
-75.
40
0.175
0
CIRCLE
8
BLACK
10
207.5
20
-75.
40
0.175
0
CIRCLE
8
BLACK
10
210.039999999999992
20
-75.
40
0.175
0
CIRCLE
8
BLACK
10
215.25
20
-80.5
40
0.175
0
CIRCLE
8
BLACK
10
212.75
20
-80.5
40
0.175
0
CIRCLE
8
BLACK
10
211.539999999999992
20
-53.
40
0.175
0
CIRCLE
8
BLACK
10
209.
20
-53.
40
0.175
0
CIRCLE
8
BLACK
10
206.4599999999999795
20
-53.
40
0.175
0
CIRCLE
8
BLACK
10
206.5
20
-62.1899999999999977
40
0.175
0
CIRCLE
8
BLACK
10
206.5
20
-64.730000000000004
40
0.175
0
CIRCLE
8
BLACK
10
206.5
20
-67.269999999999996
40
0.175
0
CIRCLE
8
BLACK
10
206.5
20
-69.8100000000000023
40
0.175
0
CIRCLE
8
BLACK
10
211.25
20
-86.5
40
0.175
0
CIRCLE
8
BLACK
10
208.75
20
-86.5
40
0.175
0
CIRCLE
8
BLACK
10
213.2999999999999829
20
-63.
40
0.175
0
CIRCLE
8
BLACK
10
213.2999999999999829
20
-65.5
40
0.175
0
CIRCLE
8
BLACK
10
177.4499999999999886
20
-65.5900000000000034
40
0.175
0
CIRCLE
8
BLACK
10
177.4499999999999886
20
-83.3699999999999903
40
0.175
0
CIRCLE
8
BLACK
10
200.3100000000000023
20
-83.3699999999999903
40
0.175
0
CIRCLE
8
BLACK
10
200.3100000000000023
20
-85.9099999999999966
40
0.175
0
CIRCLE
8
BLACK
10
177.4499999999999886
20
-50.3499999999999943
40
0.175
0
CIRCLE
8
BLACK
10
177.4499999999999886
20
-57.9699999999999989
40
0.175
0
CIRCLE
8
BLACK
10
177.4499999999999886
20
-60.509999999999998
40
0.175
0
CIRCLE
8
BLACK
10
177.4499999999999886
20
-63.0499999999999972
40
0.175
0
CIRCLE
8
BLACK
10
177.4499999999999886
20
-68.1299999999999955
40
0.175
0
CIRCLE
8
BLACK
10
177.4499999999999886
20
-70.6700000000000017
40
0.175
0
CIRCLE
8
BLACK
10
177.4499999999999886
20
-73.2099999999999937
40
0.175
0
CIRCLE
8
BLACK
10
177.4499999999999886
20
-75.75
40
0.175
0
CIRCLE
8
BLACK
10
177.4499999999999886
20
-78.289999999999992
40
0.175
0
CIRCLE
8
BLACK
10
177.4499999999999886
20
-80.8299999999999983
40
0.175
0
CIRCLE
8
BLACK
10
200.3100000000000023
20
-80.8299999999999983
40
0.175
0
CIRCLE
8
BLACK
10
200.3100000000000023
20
-78.289999999999992
40
0.175
0
CIRCLE
8
BLACK
10
200.3100000000000023
20
-75.75
40
0.175
0
CIRCLE
8
BLACK
10
200.3100000000000023
20
-73.2099999999999937
40
0.175
0
CIRCLE
8
BLACK
10
200.3100000000000023
20
-70.6700000000000017
40
0.175
0
CIRCLE
8
BLACK
10
200.3100000000000023
20
-68.1299999999999955
40
0.175
0
CIRCLE
8
BLACK
10
200.3100000000000023
20
-65.5900000000000034
40
0.175
0
CIRCLE
8
BLACK
10
200.3100000000000023
20
-63.0499999999999972
40
0.175
0
CIRCLE
8
BLACK
10
200.3100000000000023
20
-60.509999999999998
40
0.175
0
CIRCLE
8
BLACK
10
200.3100000000000023
20
-57.9699999999999989
40
0.175
0
CIRCLE
8
BLACK
10
200.3100000000000023
20
-55.4299999999999997
40
0.175
0
CIRCLE
8
BLACK
10
200.3100000000000023
20
-52.8900000000000006
40
0.175
0
CIRCLE
8
BLACK
10
200.3100000000000023
20
-50.3499999999999943
40
0.175
0
CIRCLE
8
BLACK
10
177.4499999999999886
20
-85.9099999999999966
40
0.175
0
CIRCLE
8
BLACK
10
177.4499999999999886
20
-55.4299999999999997
40
0.175
0
CIRCLE
8
BLACK
10
177.4499999999999886
20
-52.8900000000000006
40
0.175
0
CIRCLE
8
BLACK
10
164.5
20
-58.9600000000000009
40
0.175
0
CIRCLE
8
BLACK
10
164.5
20
-61.5
40
0.175
0
CIRCLE
8
BLACK
10
164.5
20
-64.039999999999992
40
0.175
0
CIRCLE
8
BLACK
10
164.5
20
-66.5799999999999983
40
0.175
0
CIRCLE
8
BLACK
10
164.5
20
-69.1199999999999903
40
0.175
0
CIRCLE
8
BLACK
10
164.5
20
-71.6599999999999966
40
0.175
  0
ENDSEC
  0
EOF
