  0
SECTION
  2
HEADER
  9
$ANGBASE
  50
0.0
  9
$ANGDIR
  70
1
  9
$MEASUREMENT
  70
1
  0
ENDSEC
  0
SECTION
  2
TABLES
  0
TABLE
  2
LTYPE
  70
4
  0
LTYPE
  5
40F
  2
CONTINUOUS
  70
0
  3
Solid line
  72
65
  73
0
  40
0.0
  0
LTYPE
  5
410
  2
DASHDOT
 70
0
  3
Dash Dot ____ _ ____ _
 72
65
 73
4
 40
2.0
 49
1.25
 49
-0.25
 49
0.25
 49
-0.25
  0
LTYPE
  5
411
  2
DASHED
 70
0
  3
Dashed __ __ __ __ __
 72
65
 73
2
 40
0.75
 49
0.5
 49
-0.25
  0
LTYPE
  5
43B
  2
DOTTED
 70
0
  3
Dotted .  .  .  .
 72
65
 73
2
 40
0.2
 49
0.0
 49
-0.2
  0
ENDTAB
  0
TABLE
  2
STYLE
  70
4
  0
STYLE
  2
KICAD
  70
0
  40
0
  41
1
  42
1
  50
0
  71
0
  3
isocp.shx
  0
STYLE
  2
KICADB
  70
0
  40
0
  41
1
  42
1
  50
0
  71
0
  3
isocp.shx
  0
STYLE
  2
KICADI
  70
0
  40
0
  41
1
  42
1
  50
15
  71
0
  3
isocp.shx
  0
STYLE
  2
KICADBI
  70
0
  40
0
  41
1
  42
1
  50
15
  71
0
  3
isocp.shx
  0
ENDTAB
  0
TABLE
  2
LAYER
  70
1
  0
LAYER
  2
BLACK
  70
0
  62
7
  6
CONTINUOUS
  0
ENDTAB
  0
ENDSEC
  0
SECTION
  2
ENTITIES
0
LINE
8
BLACK
6
CONTINUOUS
10
191.1908540000000016
20
-37.0183139999999966
11
192.3158999999999992
21
-37.0952690000000018
0
LINE
8
BLACK
6
CONTINUOUS
10
192.3158999999999992
20
-37.0952690000000018
11
193.4376619999999889
21
-37.2105899999999963
0
LINE
8
BLACK
6
CONTINUOUS
10
193.4376619999999889
20
-37.2105899999999963
11
194.5548339999999996
21
-37.3641409999999965
0
LINE
8
BLACK
6
CONTINUOUS
10
194.5548339999999996
20
-37.3641409999999965
11
195.6661110000000008
21
-37.5557450000000017
0
LINE
8
BLACK
6
CONTINUOUS
10
195.6661110000000008
20
-37.5557450000000017
11
196.7701999999999884
21
-37.7851769999999973
0
LINE
8
BLACK
6
CONTINUOUS
10
196.7701999999999884
20
-37.7851769999999973
11
197.8658109999999795
21
-38.0521699999999967
0
LINE
8
BLACK
6
CONTINUOUS
10
197.8658109999999795
20
-38.0521699999999967
11
198.9516679999999837
21
-38.3564129999999963
0
LINE
8
BLACK
6
CONTINUOUS
10
198.9516679999999837
20
-38.3564129999999963
11
200.026504999999986
21
-38.6975509999999971
0
LINE
8
BLACK
6
CONTINUOUS
10
200.026504999999986
20
-38.6975509999999971
11
201.089068999999995
21
-39.0751859999999951
0
LINE
8
BLACK
6
CONTINUOUS
10
201.089068999999995
20
-39.0751859999999951
11
202.1381199999999865
21
-39.4888779999999997
0
LINE
8
BLACK
6
CONTINUOUS
10
202.1381199999999865
20
-39.4888779999999997
11
203.1724360000000047
21
-39.9381449999999987
0
LINE
8
BLACK
6
CONTINUOUS
10
203.1724360000000047
20
-39.9381449999999987
11
204.1908109999999965
21
-40.4224630000000005
0
LINE
8
BLACK
6
CONTINUOUS
10
204.1908109999999965
20
-40.4224630000000005
11
205.1920559999999796
21
-40.9412659999999988
0
LINE
8
BLACK
6
CONTINUOUS
10
205.1920559999999796
20
-40.9412659999999988
11
206.1750049999999987
21
-41.4939509999999956
0
LINE
8
BLACK
6
CONTINUOUS
10
206.1750049999999987
20
-41.4939509999999956
11
207.1385119999999915
21
-42.0798729999999992
0
LINE
8
BLACK
6
CONTINUOUS
10
207.1385119999999915
20
-42.0798729999999992
11
208.0814539999999795
21
-42.6983479999999957
0
LINE
8
BLACK
6
CONTINUOUS
10
208.0814539999999795
20
-42.6983479999999957
11
209.0027299999999855
21
-43.3486559999999983
0
LINE
8
BLACK
6
CONTINUOUS
10
209.0027299999999855
20
-43.3486559999999983
11
209.90126699999999
21
-44.0300379999999976
0
LINE
8
BLACK
6
CONTINUOUS
10
209.90126699999999
20
-44.0300379999999976
11
210.776016999999996
21
-44.741698999999997
0
LINE
8
BLACK
6
CONTINUOUS
10
210.776016999999996
20
-44.741698999999997
11
211.6259589999999946
21
-45.4828109999999981
0
LINE
8
BLACK
6
CONTINUOUS
10
211.6259589999999946
20
-45.4828109999999981
11
212.4501049999999793
21
-46.2525089999999963
0
LINE
8
BLACK
6
CONTINUOUS
10
212.4501049999999793
20
-46.2525089999999963
11
213.2474909999999966
21
-47.0498949999999994
0
LINE
8
BLACK
6
CONTINUOUS
10
213.2474909999999966
20
-47.0498949999999994
11
214.0171890000000019
21
-47.8740409999999983
0
LINE
8
BLACK
6
CONTINUOUS
10
214.0171890000000019
20
-47.8740409999999983
11
214.7583009999999888
21
-48.7239829999999969
0
LINE
8
BLACK
6
CONTINUOUS
10
214.7583009999999888
20
-48.7239829999999969
11
215.4699619999999811
21
-49.5987329999999957
0
LINE
8
BLACK
6
CONTINUOUS
10
215.4699619999999811
20
-49.5987329999999957
11
216.1513439999999946
21
-50.4972700000000003
0
LINE
8
BLACK
6
CONTINUOUS
10
216.1513439999999946
20
-50.4972700000000003
11
216.80165199999999
21
-51.4185459999999992
0
LINE
8
BLACK
6
CONTINUOUS
10
216.80165199999999
20
-51.4185459999999992
11
217.4201269999999795
21
-52.3614879999999943
0
LINE
8
BLACK
6
CONTINUOUS
10
217.4201269999999795
20
-52.3614879999999943
11
218.0060489999999902
21
-53.3249949999999941
0
LINE
8
BLACK
6
CONTINUOUS
10
218.0060489999999902
20
-53.3249949999999941
11
218.558733999999987
21
-54.3079439999999991
0
LINE
8
BLACK
6
CONTINUOUS
10
218.558733999999987
20
-54.3079439999999991
11
219.0775369999999782
21
-55.3091889999999964
0
LINE
8
BLACK
6
CONTINUOUS
10
219.0775369999999782
20
-55.3091889999999964
11
219.56185499999998
21
-56.3275639999999953
0
LINE
8
BLACK
6
CONTINUOUS
10
219.56185499999998
20
-56.3275639999999953
11
220.0111220000000003
21
-57.3618799999999993
0
LINE
8
BLACK
6
CONTINUOUS
10
220.0111220000000003
20
-57.3618799999999993
11
220.4248139999999978
21
-58.4109309999999979
0
LINE
8
BLACK
6
CONTINUOUS
10
220.4248139999999978
20
-58.4109309999999979
11
220.8024489999999957
21
-59.4734949999999998
0
LINE
8
BLACK
6
CONTINUOUS
10
220.8024489999999957
20
-59.4734949999999998
11
221.1435869999999966
21
-60.5483319999999949
0
LINE
8
BLACK
6
CONTINUOUS
10
221.1435869999999966
20
-60.5483319999999949
11
221.447829999999982
21
-61.6341889999999992
0
LINE
8
BLACK
6
CONTINUOUS
10
221.447829999999982
20
-61.6341889999999992
11
221.7148229999999955
21
-62.7297999999999973
0
LINE
8
BLACK
6
CONTINUOUS
10
221.7148229999999955
20
-62.7297999999999973
11
221.9442549999999983
21
-63.8338889999999992
0
LINE
8
BLACK
6
CONTINUOUS
10
221.9442549999999983
20
-63.8338889999999992
11
222.1358589999999822
21
-64.9451660000000004
0
LINE
8
BLACK
6
CONTINUOUS
10
222.1358589999999822
20
-64.9451660000000004
11
222.2894100000000037
21
-66.0623379999999969
0
LINE
8
BLACK
6
CONTINUOUS
10
222.2894100000000037
20
-66.0623379999999969
11
222.4047309999999982
21
-67.1841000000000008
0
LINE
8
BLACK
6
CONTINUOUS
10
222.4047309999999982
20
-67.1841000000000008
11
222.4816859999999963
21
-68.3091459999999984
0
LINE
8
BLACK
6
CONTINUOUS
10
222.4816859999999963
20
-68.3091459999999984
11
222.5201859999999954
21
-69.4361629999999934
0
LINE
8
BLACK
6
CONTINUOUS
10
222.5201859999999954
20
-69.4361629999999934
11
222.5201859999999954
21
-70.5638369999999924
0
LINE
8
BLACK
6
CONTINUOUS
10
222.5201859999999954
20
-70.5638369999999924
11
222.4816859999999963
21
-71.6908540000000016
0
LINE
8
BLACK
6
CONTINUOUS
10
222.4816859999999963
20
-71.6908540000000016
11
222.4047309999999982
21
-72.8158999999999992
0
LINE
8
BLACK
6
CONTINUOUS
10
222.4047309999999982
20
-72.8158999999999992
11
222.2894100000000037
21
-73.9376620000000031
0
LINE
8
BLACK
6
CONTINUOUS
10
222.2894100000000037
20
-73.9376620000000031
11
222.1358589999999822
21
-75.0548339999999996
0
LINE
8
BLACK
6
CONTINUOUS
10
222.1358589999999822
20
-75.0548339999999996
11
221.9442549999999983
21
-76.1661110000000008
0
LINE
8
BLACK
6
CONTINUOUS
10
221.9442549999999983
20
-76.1661110000000008
11
221.7148229999999955
21
-77.2702000000000027
0
LINE
8
BLACK
6
CONTINUOUS
10
221.7148229999999955
20
-77.2702000000000027
11
221.447829999999982
21
-78.3658109999999937
0
LINE
8
BLACK
6
CONTINUOUS
10
221.447829999999982
20
-78.3658109999999937
11
221.1435869999999966
21
-79.451667999999998
0
LINE
8
BLACK
6
CONTINUOUS
10
221.1435869999999966
20
-79.451667999999998
11
220.8024489999999957
21
-80.5265050000000002
0
LINE
8
BLACK
6
CONTINUOUS
10
220.8024489999999957
20
-80.5265050000000002
11
220.4248139999999978
21
-81.589068999999995
0
LINE
8
BLACK
6
CONTINUOUS
10
220.4248139999999978
20
-81.589068999999995
11
220.0111220000000003
21
-82.6381200000000007
0
LINE
8
BLACK
6
CONTINUOUS
10
220.0111220000000003
20
-82.6381200000000007
11
219.56185499999998
21
-83.6724359999999905
0
LINE
8
BLACK
6
CONTINUOUS
10
219.56185499999998
20
-83.6724359999999905
11
219.0775369999999782
21
-84.6908109999999965
0
LINE
8
BLACK
6
CONTINUOUS
10
219.0775369999999782
20
-84.6908109999999965
11
218.558733999999987
21
-85.6920559999999938
0
LINE
8
BLACK
6
CONTINUOUS
10
218.558733999999987
20
-85.6920559999999938
11
218.0060489999999902
21
-86.6750049999999987
0
LINE
8
BLACK
6
CONTINUOUS
10
218.0060489999999902
20
-86.6750049999999987
11
217.4201269999999795
21
-87.6385119999999915
0
LINE
8
BLACK
6
CONTINUOUS
10
217.4201269999999795
20
-87.6385119999999915
11
216.80165199999999
21
-88.5814539999999937
0
LINE
8
BLACK
6
CONTINUOUS
10
216.80165199999999
20
-88.5814539999999937
11
216.1513439999999946
21
-89.5027299999999997
0
LINE
8
BLACK
6
CONTINUOUS
10
216.1513439999999946
20
-89.5027299999999997
11
215.4699619999999811
21
-90.40126699999999
0
LINE
8
BLACK
6
CONTINUOUS
10
215.4699619999999811
20
-90.40126699999999
11
214.7583009999999888
21
-91.276016999999996
0
LINE
8
BLACK
6
CONTINUOUS
10
214.7583009999999888
20
-91.276016999999996
11
214.0171890000000019
21
-92.1259589999999946
0
LINE
8
BLACK
6
CONTINUOUS
10
214.0171890000000019
20
-92.1259589999999946
11
213.2474909999999966
21
-92.9501049999999935
0
LINE
8
BLACK
6
CONTINUOUS
10
213.2474909999999966
20
-92.9501049999999935
11
212.4501049999999793
21
-93.7474909999999966
0
LINE
8
BLACK
6
CONTINUOUS
10
212.4501049999999793
20
-93.7474909999999966
11
211.6259589999999946
21
-94.5171890000000019
0
LINE
8
BLACK
6
CONTINUOUS
10
211.6259589999999946
20
-94.5171890000000019
11
210.776016999999996
21
-95.2583009999999888
0
LINE
8
BLACK
6
CONTINUOUS
10
210.776016999999996
20
-95.2583009999999888
11
209.90126699999999
21
-95.9699619999999953
0
LINE
8
BLACK
6
CONTINUOUS
10
209.90126699999999
20
-95.9699619999999953
11
209.0027299999999855
21
-96.6513439999999946
0
LINE
8
BLACK
6
CONTINUOUS
10
209.0027299999999855
20
-96.6513439999999946
11
208.0814539999999795
21
-97.30165199999999
0
LINE
8
BLACK
6
CONTINUOUS
10
208.0814539999999795
20
-97.30165199999999
11
207.1385119999999915
21
-97.9201269999999937
0
LINE
8
BLACK
6
CONTINUOUS
10
207.1385119999999915
20
-97.9201269999999937
11
206.1750049999999987
21
-98.5060489999999902
0
LINE
8
BLACK
6
CONTINUOUS
10
206.1750049999999987
20
-98.5060489999999902
11
205.1920559999999796
21
-99.0587340000000012
0
LINE
8
BLACK
6
CONTINUOUS
10
205.1920559999999796
20
-99.0587340000000012
11
204.1908109999999965
21
-99.5775369999999924
0
LINE
8
BLACK
6
CONTINUOUS
10
204.1908109999999965
20
-99.5775369999999924
11
203.1724360000000047
21
-100.0618549999999942
0
LINE
8
BLACK
6
CONTINUOUS
10
203.1724360000000047
20
-100.0618549999999942
11
202.1381199999999865
21
-100.5111220000000003
0
LINE
8
BLACK
6
CONTINUOUS
10
202.1381199999999865
20
-100.5111220000000003
11
201.089068999999995
21
-100.9248139999999978
0
LINE
8
BLACK
6
CONTINUOUS
10
201.089068999999995
20
-100.9248139999999978
11
200.026504999999986
21
-101.3024489999999957
0
LINE
8
BLACK
6
CONTINUOUS
10
200.026504999999986
20
-101.3024489999999957
11
198.9516679999999837
21
-101.6435869999999966
0
LINE
8
BLACK
6
CONTINUOUS
10
198.9516679999999837
20
-101.6435869999999966
11
197.8658109999999795
21
-101.9478299999999962
0
LINE
8
BLACK
6
CONTINUOUS
10
197.8658109999999795
20
-101.9478299999999962
11
196.7701999999999884
21
-102.2148229999999955
0
LINE
8
BLACK
6
CONTINUOUS
10
196.7701999999999884
20
-102.2148229999999955
11
195.6661110000000008
21
-102.4442549999999983
0
LINE
8
BLACK
6
CONTINUOUS
10
195.6661110000000008
20
-102.4442549999999983
11
194.5548339999999996
21
-102.6358589999999964
0
LINE
8
BLACK
6
CONTINUOUS
10
194.5548339999999996
20
-102.6358589999999964
11
193.4376619999999889
21
-102.7894099999999895
0
LINE
8
BLACK
6
CONTINUOUS
10
193.4376619999999889
20
-102.7894099999999895
11
192.3158999999999992
21
-102.9047309999999982
0
LINE
8
BLACK
6
CONTINUOUS
10
192.3158999999999992
20
-102.9047309999999982
11
191.1908540000000016
21
-102.9816859999999963
0
LINE
8
BLACK
6
CONTINUOUS
10
191.1908540000000016
20
-102.9816859999999963
11
190.0638369999999782
21
-103.0201859999999954
0
LINE
8
BLACK
6
CONTINUOUS
10
190.0638369999999782
20
-103.0201859999999954
11
188.9361629999999934
21
-103.0201859999999954
0
LINE
8
BLACK
6
CONTINUOUS
10
188.9361629999999934
20
-103.0201859999999954
11
187.8091459999999984
21
-102.9816859999999963
0
LINE
8
BLACK
6
CONTINUOUS
10
187.8091459999999984
20
-102.9816859999999963
11
186.6841000000000008
21
-102.9047309999999982
0
LINE
8
BLACK
6
CONTINUOUS
10
186.6841000000000008
20
-102.9047309999999982
11
185.5623379999999827
21
-102.7894099999999895
0
LINE
8
BLACK
6
CONTINUOUS
10
185.5623379999999827
20
-102.7894099999999895
11
184.4451660000000004
21
-102.6358589999999964
0
LINE
8
BLACK
6
CONTINUOUS
10
184.4451660000000004
20
-102.6358589999999964
11
183.3338889999999992
21
-102.4442549999999983
0
LINE
8
BLACK
6
CONTINUOUS
10
183.3338889999999992
20
-102.4442549999999983
11
182.2297999999999831
21
-102.2148229999999955
0
LINE
8
BLACK
6
CONTINUOUS
10
182.2297999999999831
20
-102.2148229999999955
11
181.1341889999999921
21
-101.9478299999999962
0
LINE
8
BLACK
6
CONTINUOUS
10
181.1341889999999921
20
-101.9478299999999962
11
180.0483319999999878
21
-101.6435869999999966
0
LINE
8
BLACK
6
CONTINUOUS
10
180.0483319999999878
20
-101.6435869999999966
11
178.9734949999999856
21
-101.3024489999999957
0
LINE
8
BLACK
6
CONTINUOUS
10
178.9734949999999856
20
-101.3024489999999957
11
177.910931000000005
21
-100.9248139999999978
0
LINE
8
BLACK
6
CONTINUOUS
10
177.910931000000005
20
-100.9248139999999978
11
176.8618799999999851
21
-100.5111220000000003
0
LINE
8
BLACK
6
CONTINUOUS
10
176.8618799999999851
20
-100.5111220000000003
11
175.8275639999999953
21
-100.0618549999999942
0
LINE
8
BLACK
6
CONTINUOUS
10
175.8275639999999953
20
-100.0618549999999942
11
174.8091890000000035
21
-99.5775369999999924
0
LINE
8
BLACK
6
CONTINUOUS
10
174.8091890000000035
20
-99.5775369999999924
11
173.807943999999992
21
-99.0587340000000012
0
LINE
8
BLACK
6
CONTINUOUS
10
173.807943999999992
20
-99.0587340000000012
11
172.8249950000000013
21
-98.5060489999999902
0
LINE
8
BLACK
6
CONTINUOUS
10
172.8249950000000013
20
-98.5060489999999902
11
171.86148799999998
21
-97.9201269999999937
0
LINE
8
BLACK
6
CONTINUOUS
10
171.86148799999998
20
-97.9201269999999937
11
170.9185459999999921
21
-97.30165199999999
0
LINE
8
BLACK
6
CONTINUOUS
10
170.9185459999999921
20
-97.30165199999999
11
169.9972699999999861
21
-96.6513439999999946
0
LINE
8
BLACK
6
CONTINUOUS
10
169.9972699999999861
20
-96.6513439999999946
11
169.0987329999999815
21
-95.9699619999999953
0
LINE
8
BLACK
6
CONTINUOUS
10
169.0987329999999815
20
-95.9699619999999953
11
168.223983000000004
21
-95.2583009999999888
0
LINE
8
BLACK
6
CONTINUOUS
10
168.223983000000004
20
-95.2583009999999888
11
167.3740410000000054
21
-94.5171890000000019
0
LINE
8
BLACK
6
CONTINUOUS
10
167.3740410000000054
20
-94.5171890000000019
11
166.5498949999999923
21
-93.7474909999999966
0
LINE
8
BLACK
6
CONTINUOUS
10
166.5498949999999923
20
-93.7474909999999966
11
165.7525090000000034
21
-92.9501049999999935
0
LINE
8
BLACK
6
CONTINUOUS
10
165.7525090000000034
20
-92.9501049999999935
11
164.9828109999999981
21
-92.1259589999999946
0
LINE
8
BLACK
6
CONTINUOUS
10
164.9828109999999981
20
-92.1259589999999946
11
164.2416989999999828
21
-91.276016999999996
0
LINE
8
BLACK
6
CONTINUOUS
10
164.2416989999999828
20
-91.276016999999996
11
163.5300379999999905
21
-90.40126699999999
0
LINE
8
BLACK
6
CONTINUOUS
10
163.5300379999999905
20
-90.40126699999999
11
162.8486560000000054
21
-89.5027299999999997
0
LINE
8
BLACK
6
CONTINUOUS
10
162.8486560000000054
20
-89.5027299999999997
11
162.1983479999999815
21
-88.5814539999999937
0
LINE
8
BLACK
6
CONTINUOUS
10
162.1983479999999815
20
-88.5814539999999937
11
161.5798729999999921
21
-87.6385119999999915
0
LINE
8
BLACK
6
CONTINUOUS
10
161.5798729999999921
20
-87.6385119999999915
11
160.9939509999999814
21
-86.6750049999999987
0
LINE
8
BLACK
6
CONTINUOUS
10
160.9939509999999814
20
-86.6750049999999987
11
160.4412659999999846
21
-85.6920559999999938
0
LINE
8
BLACK
6
CONTINUOUS
10
160.4412659999999846
20
-85.6920559999999938
11
159.9224629999999934
21
-84.6908109999999965
0
LINE
8
BLACK
6
CONTINUOUS
10
159.9224629999999934
20
-84.6908109999999965
11
159.4381449999999916
21
-83.6724359999999905
0
LINE
8
BLACK
6
CONTINUOUS
10
159.4381449999999916
20
-83.6724359999999905
11
158.9888779999999997
21
-82.6381200000000007
0
LINE
8
BLACK
6
CONTINUOUS
10
158.9888779999999997
20
-82.6381200000000007
11
158.5751860000000022
21
-81.589068999999995
0
LINE
8
BLACK
6
CONTINUOUS
10
158.5751860000000022
20
-81.589068999999995
11
158.1975510000000043
21
-80.5265050000000002
0
LINE
8
BLACK
6
CONTINUOUS
10
158.1975510000000043
20
-80.5265050000000002
11
157.8564130000000034
21
-79.451667999999998
0
LINE
8
BLACK
6
CONTINUOUS
10
157.8564130000000034
20
-79.451667999999998
11
157.5521699999999896
21
-78.3658109999999937
0
LINE
8
BLACK
6
CONTINUOUS
10
157.5521699999999896
20
-78.3658109999999937
11
157.2851770000000045
21
-77.2702000000000027
0
LINE
8
BLACK
6
CONTINUOUS
10
157.2851770000000045
20
-77.2702000000000027
11
157.0557450000000017
21
-76.1661110000000008
0
LINE
8
BLACK
6
CONTINUOUS
10
157.0557450000000017
20
-76.1661110000000008
11
156.8641409999999894
21
-75.0548339999999996
0
LINE
8
BLACK
6
CONTINUOUS
10
156.8641409999999894
20
-75.0548339999999996
11
156.7105899999999963
21
-73.9376620000000031
0
LINE
8
BLACK
6
CONTINUOUS
10
156.7105899999999963
20
-73.9376620000000031
11
156.5952690000000018
21
-72.8158999999999992
0
LINE
8
BLACK
6
CONTINUOUS
10
156.5952690000000018
20
-72.8158999999999992
11
156.5183140000000037
21
-71.6908540000000016
0
LINE
8
BLACK
6
CONTINUOUS
10
156.5183140000000037
20
-71.6908540000000016
11
156.4798140000000046
21
-70.5638369999999924
0
LINE
8
BLACK
6
CONTINUOUS
10
156.4798140000000046
20
-70.5638369999999924
11
156.4798140000000046
21
-69.4369339999999937
0
LINE
8
BLACK
6
CONTINUOUS
10
156.4798140000000046
20
-69.4369339999999937
11
156.4798140000000046
21
-69.4361629999999934
0
LINE
8
BLACK
6
CONTINUOUS
10
156.4798140000000046
20
-69.4361629999999934
11
156.5183140000000037
21
-68.3091459999999984
0
LINE
8
BLACK
6
CONTINUOUS
10
156.5183140000000037
20
-68.3091459999999984
11
156.5952690000000018
21
-67.1841000000000008
0
LINE
8
BLACK
6
CONTINUOUS
10
156.5952690000000018
20
-67.1841000000000008
11
156.7105899999999963
21
-66.0623379999999969
0
LINE
8
BLACK
6
CONTINUOUS
10
156.7105899999999963
20
-66.0623379999999969
11
156.8641409999999894
21
-64.9451660000000004
0
LINE
8
BLACK
6
CONTINUOUS
10
156.8641409999999894
20
-64.9451660000000004
11
157.0557450000000017
21
-63.8338889999999992
0
LINE
8
BLACK
6
CONTINUOUS
10
157.0557450000000017
20
-63.8338889999999992
11
157.2851770000000045
21
-62.7297999999999973
0
LINE
8
BLACK
6
CONTINUOUS
10
157.2851770000000045
20
-62.7297999999999973
11
157.5521699999999896
21
-61.6341889999999992
0
LINE
8
BLACK
6
CONTINUOUS
10
157.5521699999999896
20
-61.6341889999999992
11
157.8564130000000034
21
-60.5483319999999949
0
LINE
8
BLACK
6
CONTINUOUS
10
157.8564130000000034
20
-60.5483319999999949
11
158.1975510000000043
21
-59.4734949999999998
0
LINE
8
BLACK
6
CONTINUOUS
10
158.1975510000000043
20
-59.4734949999999998
11
158.5751860000000022
21
-58.4109309999999979
0
LINE
8
BLACK
6
CONTINUOUS
10
158.5751860000000022
20
-58.4109309999999979
11
158.9888779999999997
21
-57.3618799999999993
0
LINE
8
BLACK
6
CONTINUOUS
10
158.9888779999999997
20
-57.3618799999999993
11
159.4381449999999916
21
-56.3275639999999953
0
LINE
8
BLACK
6
CONTINUOUS
10
159.4381449999999916
20
-56.3275639999999953
11
159.9224629999999934
21
-55.3091889999999964
0
LINE
8
BLACK
6
CONTINUOUS
10
159.9224629999999934
20
-55.3091889999999964
11
160.4412659999999846
21
-54.3079439999999991
0
LINE
8
BLACK
6
CONTINUOUS
10
160.4412659999999846
20
-54.3079439999999991
11
160.9939509999999814
21
-53.3249949999999941
0
LINE
8
BLACK
6
CONTINUOUS
10
160.9939509999999814
20
-53.3249949999999941
11
161.5798729999999921
21
-52.3614879999999943
0
LINE
8
BLACK
6
CONTINUOUS
10
161.5798729999999921
20
-52.3614879999999943
11
162.1983479999999815
21
-51.4185459999999992
0
LINE
8
BLACK
6
CONTINUOUS
10
162.1983479999999815
20
-51.4185459999999992
11
162.8486560000000054
21
-50.4972700000000003
0
LINE
8
BLACK
6
CONTINUOUS
10
162.8486560000000054
20
-50.4972700000000003
11
163.5300379999999905
21
-49.5987329999999957
0
LINE
8
BLACK
6
CONTINUOUS
10
163.5300379999999905
20
-49.5987329999999957
11
164.2416989999999828
21
-48.7239829999999969
0
LINE
8
BLACK
6
CONTINUOUS
10
164.2416989999999828
20
-48.7239829999999969
11
164.9828109999999981
21
-47.8740409999999983
0
LINE
8
BLACK
6
CONTINUOUS
10
164.9828109999999981
20
-47.8740409999999983
11
165.7525090000000034
21
-47.0498949999999994
0
LINE
8
BLACK
6
CONTINUOUS
10
165.7525090000000034
20
-47.0498949999999994
11
166.5498949999999923
21
-46.2525089999999963
0
LINE
8
BLACK
6
CONTINUOUS
10
166.5498949999999923
20
-46.2525089999999963
11
167.3740410000000054
21
-45.4828109999999981
0
LINE
8
BLACK
6
CONTINUOUS
10
167.3740410000000054
20
-45.4828109999999981
11
168.223983000000004
21
-44.741698999999997
0
LINE
8
BLACK
6
CONTINUOUS
10
168.223983000000004
20
-44.741698999999997
11
169.0987329999999815
21
-44.0300379999999976
0
LINE
8
BLACK
6
CONTINUOUS
10
169.0987329999999815
20
-44.0300379999999976
11
169.9972699999999861
21
-43.3486559999999983
0
LINE
8
BLACK
6
CONTINUOUS
10
169.9972699999999861
20
-43.3486559999999983
11
170.9185459999999921
21
-42.6983479999999957
0
LINE
8
BLACK
6
CONTINUOUS
10
170.9185459999999921
20
-42.6983479999999957
11
171.86148799999998
21
-42.0798729999999992
0
LINE
8
BLACK
6
CONTINUOUS
10
171.86148799999998
20
-42.0798729999999992
11
172.8249950000000013
21
-41.4939509999999956
0
LINE
8
BLACK
6
CONTINUOUS
10
172.8249950000000013
20
-41.4939509999999956
11
173.807943999999992
21
-40.9412659999999988
0
LINE
8
BLACK
6
CONTINUOUS
10
173.807943999999992
20
-40.9412659999999988
11
174.8091890000000035
21
-40.4224630000000005
0
LINE
8
BLACK
6
CONTINUOUS
10
174.8091890000000035
20
-40.4224630000000005
11
175.8275639999999953
21
-39.9381449999999987
0
LINE
8
BLACK
6
CONTINUOUS
10
175.8275639999999953
20
-39.9381449999999987
11
176.8618799999999851
21
-39.4888779999999997
0
LINE
8
BLACK
6
CONTINUOUS
10
176.8618799999999851
20
-39.4888779999999997
11
177.910931000000005
21
-39.0751859999999951
0
LINE
8
BLACK
6
CONTINUOUS
10
177.910931000000005
20
-39.0751859999999951
11
178.9734949999999856
21
-38.6975509999999971
0
LINE
8
BLACK
6
CONTINUOUS
10
178.9734949999999856
20
-38.6975509999999971
11
180.0483319999999878
21
-38.3564129999999963
0
LINE
8
BLACK
6
CONTINUOUS
10
180.0483319999999878
20
-38.3564129999999963
11
181.1341889999999921
21
-38.0521699999999967
0
LINE
8
BLACK
6
CONTINUOUS
10
181.1341889999999921
20
-38.0521699999999967
11
182.2297999999999831
21
-37.7851769999999973
0
LINE
8
BLACK
6
CONTINUOUS
10
182.2297999999999831
20
-37.7851769999999973
11
183.3338889999999992
21
-37.5557450000000017
0
LINE
8
BLACK
6
CONTINUOUS
10
183.3338889999999992
20
-37.5557450000000017
11
184.4451660000000004
21
-37.3641409999999965
0
LINE
8
BLACK
6
CONTINUOUS
10
184.4451660000000004
20
-37.3641409999999965
11
185.5623379999999827
21
-37.2105899999999963
0
LINE
8
BLACK
6
CONTINUOUS
10
185.5623379999999827
20
-37.2105899999999963
11
186.6841000000000008
21
-37.0952690000000018
0
LINE
8
BLACK
6
CONTINUOUS
10
186.6841000000000008
20
-37.0952690000000018
11
187.8091459999999984
21
-37.0183139999999966
0
LINE
8
BLACK
6
CONTINUOUS
10
187.8091459999999984
20
-37.0183139999999966
11
188.9361629999999934
21
-36.9798139999999975
0
LINE
8
BLACK
6
CONTINUOUS
10
188.9361629999999934
20
-36.9798139999999975
11
190.0638369999999782
21
-36.9798139999999975
0
LINE
8
BLACK
6
CONTINUOUS
10
190.0638369999999782
20
-36.9798139999999975
11
191.1908540000000016
21
-37.0183139999999966
0
LINE
8
BLACK
6
CONTINUOUS
10
156.5250000000000057
20
-70.5630659999999921
11
156.5634469999999965
21
-71.6885410000000007
0
LINE
8
BLACK
6
CONTINUOUS
10
156.5634469999999965
20
-71.6885410000000007
11
156.6402970000000039
21
-72.8120469999999926
0
LINE
8
BLACK
6
CONTINUOUS
10
156.6402970000000039
20
-72.8120469999999926
11
156.7554599999999994
21
-73.9322739999999925
0
LINE
8
BLACK
6
CONTINUOUS
10
156.7554599999999994
20
-73.9322739999999925
11
156.9088019999999801
21
-75.0479169999999982
0
LINE
8
BLACK
6
CONTINUOUS
10
156.9088019999999801
20
-75.0479169999999982
11
157.1001430000000028
21
-76.1576730000000026
0
LINE
8
BLACK
6
CONTINUOUS
10
157.1001430000000028
20
-76.1576730000000026
11
157.3292610000000025
21
-77.2602509999999967
0
LINE
8
BLACK
6
CONTINUOUS
10
157.3292610000000025
20
-77.2602509999999967
11
157.5958889999999997
21
-78.3543629999999922
0
LINE
8
BLACK
6
CONTINUOUS
10
157.5958889999999997
20
-78.3543629999999922
11
157.8997159999999838
21
-79.4387339999999966
0
LINE
8
BLACK
6
CONTINUOUS
10
157.8997159999999838
20
-79.4387339999999966
11
158.2403869999999984
21
-80.5120999999999896
0
LINE
8
BLACK
6
CONTINUOUS
10
158.2403869999999984
20
-80.5120999999999896
11
158.6175049999999942
21
-81.5732100000000031
0
LINE
8
BLACK
6
CONTINUOUS
10
158.6175049999999942
20
-81.5732100000000031
11
159.0306309999999996
21
-82.6208259999999939
0
LINE
8
BLACK
6
CONTINUOUS
10
159.0306309999999996
20
-82.6208259999999939
11
159.479282999999981
21
-83.6537259999999918
0
LINE
8
BLACK
6
CONTINUOUS
10
159.479282999999981
20
-83.6537259999999918
11
159.9629379999999799
21
-84.6707069999999931
0
LINE
8
BLACK
6
CONTINUOUS
10
159.9629379999999799
20
-84.6707069999999931
11
160.481031999999999
21
-85.670581999999996
0
LINE
8
BLACK
6
CONTINUOUS
10
160.481031999999999
20
-85.670581999999996
11
161.0329600000000028
21
-86.6521869999999979
0
LINE
8
BLACK
6
CONTINUOUS
10
161.0329600000000028
20
-86.6521869999999979
11
161.618079999999992
21
-87.6143749999999955
0
LINE
8
BLACK
6
CONTINUOUS
10
161.618079999999992
20
-87.6143749999999955
11
162.2357089999999857
21
-88.5560260000000028
0
LINE
8
BLACK
6
CONTINUOUS
10
162.2357089999999857
20
-88.5560260000000028
11
162.8851269999999829
21
-89.4760409999999951
0
LINE
8
BLACK
6
CONTINUOUS
10
162.8851269999999829
20
-89.4760409999999951
11
163.565575999999993
21
-90.3733489999999904
0
LINE
8
BLACK
6
CONTINUOUS
10
163.565575999999993
20
-90.3733489999999904
11
164.2762639999999976
21
-91.246900999999994
0
LINE
8
BLACK
6
CONTINUOUS
10
164.2762639999999976
20
-91.246900999999994
11
165.0163619999999867
21
-92.095680999999999
0
LINE
8
BLACK
6
CONTINUOUS
10
165.0163619999999867
20
-92.095680999999999
11
165.7850059999999814
21
-92.9186989999999895
0
LINE
8
BLACK
6
CONTINUOUS
10
165.7850059999999814
20
-92.9186989999999895
11
166.5813009999999963
21
-93.7149939999999901
0
LINE
8
BLACK
6
CONTINUOUS
10
166.5813009999999963
20
-93.7149939999999901
11
167.4043189999999868
21
-94.4836379999999991
0
LINE
8
BLACK
6
CONTINUOUS
10
167.4043189999999868
20
-94.4836379999999991
11
168.2530989999999917
21
-95.2237360000000024
0
LINE
8
BLACK
6
CONTINUOUS
10
168.2530989999999917
20
-95.2237360000000024
11
169.1266509999999812
21
-95.9344239999999928
0
LINE
8
BLACK
6
CONTINUOUS
10
169.1266509999999812
20
-95.9344239999999928
11
170.0239589999999907
21
-96.6148729999999887
0
LINE
8
BLACK
6
CONTINUOUS
10
170.0239589999999907
20
-96.6148729999999887
11
170.9439739999999972
21
-97.2642910000000001
0
LINE
8
BLACK
6
CONTINUOUS
10
170.9439739999999972
20
-97.2642910000000001
11
171.8856250000000045
21
-97.8819199999999938
0
LINE
8
BLACK
6
CONTINUOUS
10
171.8856250000000045
20
-97.8819199999999938
11
172.8478130000000021
21
-98.4670399999999972
0
LINE
8
BLACK
6
CONTINUOUS
10
172.8478130000000021
20
-98.4670399999999972
11
173.829418000000004
21
-99.018968000000001
0
LINE
8
BLACK
6
CONTINUOUS
10
173.829418000000004
20
-99.018968000000001
11
174.8292929999999785
21
-99.5370619999999917
0
LINE
8
BLACK
6
CONTINUOUS
10
174.8292929999999785
20
-99.5370619999999917
11
175.846273999999994
21
-100.0207169999999905
0
LINE
8
BLACK
6
CONTINUOUS
10
175.846273999999994
20
-100.0207169999999905
11
176.8791740000000061
21
-100.4693690000000004
0
LINE
8
BLACK
6
CONTINUOUS
10
176.8791740000000061
20
-100.4693690000000004
11
177.9267899999999827
21
-100.8824949999999916
0
LINE
8
BLACK
6
CONTINUOUS
10
177.9267899999999827
20
-100.8824949999999916
11
178.9878999999999962
21
-101.2596130000000016
0
LINE
8
BLACK
6
CONTINUOUS
10
178.9878999999999962
20
-101.2596130000000016
11
180.0612659999999892
21
-101.600284000000002
0
LINE
8
BLACK
6
CONTINUOUS
10
180.0612659999999892
20
-101.600284000000002
11
181.1456369999999936
21
-101.9041110000000003
0
LINE
8
BLACK
6
CONTINUOUS
10
181.1456369999999936
20
-101.9041110000000003
11
182.2397489999999891
21
-102.1707389999999975
0
LINE
8
BLACK
6
CONTINUOUS
10
182.2397489999999891
20
-102.1707389999999975
11
183.3423269999999832
21
-102.3998569999999972
0
LINE
8
BLACK
6
CONTINUOUS
10
183.3423269999999832
20
-102.3998569999999972
11
184.4520829999999876
21
-102.5911979999999915
0
LINE
8
BLACK
6
CONTINUOUS
10
184.4520829999999876
20
-102.5911979999999915
11
185.5677259999999933
21
-102.7445400000000006
0
LINE
8
BLACK
6
CONTINUOUS
10
185.5677259999999933
20
-102.7445400000000006
11
186.6879529999999932
21
-102.8597029999999961
0
LINE
8
BLACK
6
CONTINUOUS
10
186.6879529999999932
20
-102.8597029999999961
11
187.8114589999999851
21
-102.9365529999999893
0
LINE
8
BLACK
6
CONTINUOUS
10
187.8114589999999851
20
-102.9365529999999893
11
188.9369339999999795
21
-102.9749999999999943
0
LINE
8
BLACK
6
CONTINUOUS
10
188.9369339999999795
20
-102.9749999999999943
11
190.0630659999999921
21
-102.9749999999999943
0
LINE
8
BLACK
6
CONTINUOUS
10
190.0630659999999921
20
-102.9749999999999943
11
191.1885409999999865
21
-102.9365529999999893
0
LINE
8
BLACK
6
CONTINUOUS
10
191.1885409999999865
20
-102.9365529999999893
11
192.3120469999999784
21
-102.8597029999999961
0
LINE
8
BLACK
6
CONTINUOUS
10
192.3120469999999784
20
-102.8597029999999961
11
193.4322739999999783
21
-102.7445400000000006
0
LINE
8
BLACK
6
CONTINUOUS
10
193.4322739999999783
20
-102.7445400000000006
11
194.547916999999984
21
-102.5911979999999915
0
LINE
8
BLACK
6
CONTINUOUS
10
194.547916999999984
20
-102.5911979999999915
11
195.6576729999999884
21
-102.3998569999999972
0
LINE
8
BLACK
6
CONTINUOUS
10
195.6576729999999884
20
-102.3998569999999972
11
196.7602509999999825
21
-102.1707389999999975
0
LINE
8
BLACK
6
CONTINUOUS
10
196.7602509999999825
20
-102.1707389999999975
11
197.854362999999978
21
-101.9041110000000003
0
LINE
8
BLACK
6
CONTINUOUS
10
197.854362999999978
20
-101.9041110000000003
11
198.9387339999999824
21
-101.600284000000002
0
LINE
8
BLACK
6
CONTINUOUS
10
198.9387339999999824
20
-101.600284000000002
11
200.0121000000000038
21
-101.2596130000000016
0
LINE
8
BLACK
6
CONTINUOUS
10
200.0121000000000038
20
-101.2596130000000016
11
201.0732099999999889
21
-100.8824949999999916
0
LINE
8
BLACK
6
CONTINUOUS
10
201.0732099999999889
20
-100.8824949999999916
11
202.1208259999999939
21
-100.4693690000000004
0
LINE
8
BLACK
6
CONTINUOUS
10
202.1208259999999939
20
-100.4693690000000004
11
203.1537259999999776
21
-100.0207169999999905
0
LINE
8
BLACK
6
CONTINUOUS
10
203.1537259999999776
20
-100.0207169999999905
11
204.1707069999999931
21
-99.5370619999999917
0
LINE
8
BLACK
6
CONTINUOUS
10
204.1707069999999931
20
-99.5370619999999917
11
205.170581999999996
21
-99.018968000000001
0
LINE
8
BLACK
6
CONTINUOUS
10
205.170581999999996
20
-99.018968000000001
11
206.1521869999999979
21
-98.4670399999999972
0
LINE
8
BLACK
6
CONTINUOUS
10
206.1521869999999979
20
-98.4670399999999972
11
207.1143749999999955
21
-97.8819199999999938
0
LINE
8
BLACK
6
CONTINUOUS
10
207.1143749999999955
20
-97.8819199999999938
11
208.0560260000000028
21
-97.2642910000000001
0
LINE
8
BLACK
6
CONTINUOUS
10
208.0560260000000028
20
-97.2642910000000001
11
208.9760409999999808
21
-96.6148729999999887
0
LINE
8
BLACK
6
CONTINUOUS
10
208.9760409999999808
20
-96.6148729999999887
11
209.8733489999999904
21
-95.9344239999999928
0
LINE
8
BLACK
6
CONTINUOUS
10
209.8733489999999904
20
-95.9344239999999928
11
210.7469009999999798
21
-95.2237360000000024
0
LINE
8
BLACK
6
CONTINUOUS
10
210.7469009999999798
20
-95.2237360000000024
11
211.5956809999999848
21
-94.4836379999999991
0
LINE
8
BLACK
6
CONTINUOUS
10
211.5956809999999848
20
-94.4836379999999991
11
212.4186990000000037
21
-93.7149939999999901
0
LINE
8
BLACK
6
CONTINUOUS
10
212.4186990000000037
20
-93.7149939999999901
11
213.2149939999999901
21
-92.9186989999999895
0
LINE
8
BLACK
6
CONTINUOUS
10
213.2149939999999901
20
-92.9186989999999895
11
213.9836379999999849
21
-92.095680999999999
0
LINE
8
BLACK
6
CONTINUOUS
10
213.9836379999999849
20
-92.095680999999999
11
214.7237360000000024
21
-91.246900999999994
0
LINE
8
BLACK
6
CONTINUOUS
10
214.7237360000000024
20
-91.246900999999994
11
215.4344239999999786
21
-90.3733489999999904
0
LINE
8
BLACK
6
CONTINUOUS
10
215.4344239999999786
20
-90.3733489999999904
11
216.1148729999999887
21
-89.4760409999999951
0
LINE
8
BLACK
6
CONTINUOUS
10
216.1148729999999887
20
-89.4760409999999951
11
216.7642909999999858
21
-88.5560260000000028
0
LINE
8
BLACK
6
CONTINUOUS
10
216.7642909999999858
20
-88.5560260000000028
11
217.3819199999999796
21
-87.6143749999999955
0
LINE
8
BLACK
6
CONTINUOUS
10
217.3819199999999796
20
-87.6143749999999955
11
217.9670399999999972
21
-86.6521869999999979
0
LINE
8
BLACK
6
CONTINUOUS
10
217.9670399999999972
20
-86.6521869999999979
11
218.518968000000001
21
-85.670581999999996
0
LINE
8
BLACK
6
CONTINUOUS
10
218.518968000000001
20
-85.670581999999996
11
219.0370619999999917
21
-84.6707069999999931
0
LINE
8
BLACK
6
CONTINUOUS
10
219.0370619999999917
20
-84.6707069999999931
11
219.5207169999999905
21
-83.6537259999999918
0
LINE
8
BLACK
6
CONTINUOUS
10
219.5207169999999905
20
-83.6537259999999918
11
219.9693690000000004
21
-82.6208259999999939
0
LINE
8
BLACK
6
CONTINUOUS
10
219.9693690000000004
20
-82.6208259999999939
11
220.3824949999999774
21
-81.5732100000000031
0
LINE
8
BLACK
6
CONTINUOUS
10
220.3824949999999774
20
-81.5732100000000031
11
220.7596130000000016
21
-80.5120999999999896
0
LINE
8
BLACK
6
CONTINUOUS
10
220.7596130000000016
20
-80.5120999999999896
11
221.1002839999999878
21
-79.4387339999999966
0
LINE
8
BLACK
6
CONTINUOUS
10
221.1002839999999878
20
-79.4387339999999966
11
221.4041110000000003
21
-78.3543629999999922
0
LINE
8
BLACK
6
CONTINUOUS
10
221.4041110000000003
20
-78.3543629999999922
11
221.6707389999999975
21
-77.2602509999999967
0
LINE
8
BLACK
6
CONTINUOUS
10
221.6707389999999975
20
-77.2602509999999967
11
221.8998569999999972
21
-76.1576730000000026
0
LINE
8
BLACK
6
CONTINUOUS
10
221.8998569999999972
20
-76.1576730000000026
11
222.0911979999999915
21
-75.0479169999999982
0
LINE
8
BLACK
6
CONTINUOUS
10
222.0911979999999915
20
-75.0479169999999982
11
222.2445400000000006
21
-73.9322739999999925
0
LINE
8
BLACK
6
CONTINUOUS
10
222.2445400000000006
20
-73.9322739999999925
11
222.3597029999999961
21
-72.8120469999999926
0
LINE
8
BLACK
6
CONTINUOUS
10
222.3597029999999961
20
-72.8120469999999926
11
222.4365530000000035
21
-71.6885410000000007
0
LINE
8
BLACK
6
CONTINUOUS
10
222.4365530000000035
20
-71.6885410000000007
11
222.4749999999999943
21
-70.5630659999999921
0
LINE
8
BLACK
6
CONTINUOUS
10
222.4749999999999943
20
-70.5630659999999921
11
222.4749999999999943
21
-69.4369339999999937
0
LINE
8
BLACK
6
CONTINUOUS
10
222.4749999999999943
20
-69.4369339999999937
11
222.4365530000000035
21
-68.3114589999999993
0
LINE
8
BLACK
6
CONTINUOUS
10
222.4365530000000035
20
-68.3114589999999993
11
222.3597029999999961
21
-67.1879529999999932
0
LINE
8
BLACK
6
CONTINUOUS
10
222.3597029999999961
20
-67.1879529999999932
11
222.2445400000000006
21
-66.0677259999999933
0
LINE
8
BLACK
6
CONTINUOUS
10
222.2445400000000006
20
-66.0677259999999933
11
222.0911979999999915
21
-64.9520830000000018
0
LINE
8
BLACK
6
CONTINUOUS
10
222.0911979999999915
20
-64.9520830000000018
11
221.8998569999999972
21
-63.8423269999999974
0
LINE
8
BLACK
6
CONTINUOUS
10
221.8998569999999972
20
-63.8423269999999974
11
221.6707389999999975
21
-62.7397489999999962
0
LINE
8
BLACK
6
CONTINUOUS
10
221.6707389999999975
20
-62.7397489999999962
11
221.4041110000000003
21
-61.6456370000000007
0
LINE
8
BLACK
6
CONTINUOUS
10
221.4041110000000003
20
-61.6456370000000007
11
221.1002839999999878
21
-60.5612659999999963
0
LINE
8
BLACK
6
CONTINUOUS
10
221.1002839999999878
20
-60.5612659999999963
11
220.7596130000000016
21
-59.4878999999999962
0
LINE
8
BLACK
6
CONTINUOUS
10
220.7596130000000016
20
-59.4878999999999962
11
220.3824949999999774
21
-58.4267899999999969
0
LINE
8
BLACK
6
CONTINUOUS
10
220.3824949999999774
20
-58.4267899999999969
11
219.9693690000000004
21
-57.379173999999999
0
LINE
8
BLACK
6
CONTINUOUS
10
219.9693690000000004
20
-57.379173999999999
11
219.5207169999999905
21
-56.346273999999994
0
LINE
8
BLACK
6
CONTINUOUS
10
219.5207169999999905
20
-56.346273999999994
11
219.0370619999999917
21
-55.3292929999999998
0
LINE
8
BLACK
6
CONTINUOUS
10
219.0370619999999917
20
-55.3292929999999998
11
218.518968000000001
21
-54.3294179999999969
0
LINE
8
BLACK
6
CONTINUOUS
10
218.518968000000001
20
-54.3294179999999969
11
217.9670399999999972
21
-53.347812999999995
0
LINE
8
BLACK
6
CONTINUOUS
10
217.9670399999999972
20
-53.347812999999995
11
217.3819199999999796
21
-52.3856249999999974
0
LINE
8
BLACK
6
CONTINUOUS
10
217.3819199999999796
20
-52.3856249999999974
11
216.7642909999999858
21
-51.4439739999999972
0
LINE
8
BLACK
6
CONTINUOUS
10
216.7642909999999858
20
-51.4439739999999972
11
216.1148729999999887
21
-50.5239589999999978
0
LINE
8
BLACK
6
CONTINUOUS
10
216.1148729999999887
20
-50.5239589999999978
11
215.4344239999999786
21
-49.6266509999999954
0
LINE
8
BLACK
6
CONTINUOUS
10
215.4344239999999786
20
-49.6266509999999954
11
214.7237360000000024
21
-48.7530989999999989
0
LINE
8
BLACK
6
CONTINUOUS
10
214.7237360000000024
20
-48.7530989999999989
11
213.9836379999999849
21
-47.904319000000001
0
LINE
8
BLACK
6
CONTINUOUS
10
213.9836379999999849
20
-47.904319000000001
11
213.2149939999999901
21
-47.0813009999999963
0
LINE
8
BLACK
6
CONTINUOUS
10
213.2149939999999901
20
-47.0813009999999963
11
212.4186990000000037
21
-46.2850059999999957
0
LINE
8
BLACK
6
CONTINUOUS
10
212.4186990000000037
20
-46.2850059999999957
11
211.5956809999999848
21
-45.5163620000000009
0
LINE
8
BLACK
6
CONTINUOUS
10
211.5956809999999848
20
-45.5163620000000009
11
210.7469009999999798
21
-44.7762639999999976
0
LINE
8
BLACK
6
CONTINUOUS
10
210.7469009999999798
20
-44.7762639999999976
11
209.8733489999999904
21
-44.0655760000000001
0
LINE
8
BLACK
6
CONTINUOUS
10
209.8733489999999904
20
-44.0655760000000001
11
208.9760409999999808
21
-43.3851269999999971
0
LINE
8
BLACK
6
CONTINUOUS
10
208.9760409999999808
20
-43.3851269999999971
11
208.0560260000000028
21
-42.7357089999999999
0
LINE
8
BLACK
6
CONTINUOUS
10
208.0560260000000028
20
-42.7357089999999999
11
207.1143749999999955
21
-42.1180799999999991
0
LINE
8
BLACK
6
CONTINUOUS
10
207.1143749999999955
20
-42.1180799999999991
11
206.1521869999999979
21
-41.5329599999999957
0
LINE
8
BLACK
6
CONTINUOUS
10
206.1521869999999979
20
-41.5329599999999957
11
205.170581999999996
21
-40.981031999999999
0
LINE
8
BLACK
6
CONTINUOUS
10
205.170581999999996
20
-40.981031999999999
11
204.1707069999999931
21
-40.4629380000000012
0
LINE
8
BLACK
6
CONTINUOUS
10
204.1707069999999931
20
-40.4629380000000012
11
203.1537259999999776
21
-39.9792829999999952
0
LINE
8
BLACK
6
CONTINUOUS
10
203.1537259999999776
20
-39.9792829999999952
11
202.1208259999999939
21
-39.5306309999999996
0
LINE
8
BLACK
6
CONTINUOUS
10
202.1208259999999939
20
-39.5306309999999996
11
201.0732099999999889
21
-39.1175050000000013
0
LINE
8
BLACK
6
CONTINUOUS
10
201.0732099999999889
20
-39.1175050000000013
11
200.0121000000000038
21
-38.7403869999999984
0
LINE
8
BLACK
6
CONTINUOUS
10
200.0121000000000038
20
-38.7403869999999984
11
198.9387339999999824
21
-38.399715999999998
0
LINE
8
BLACK
6
CONTINUOUS
10
198.9387339999999824
20
-38.399715999999998
11
197.854362999999978
21
-38.0958889999999997
0
LINE
8
BLACK
6
CONTINUOUS
10
197.854362999999978
20
-38.0958889999999997
11
196.7602509999999825
21
-37.8292609999999954
0
LINE
8
BLACK
6
CONTINUOUS
10
196.7602509999999825
20
-37.8292609999999954
11
195.6576729999999884
21
-37.6001429999999957
0
LINE
8
BLACK
6
CONTINUOUS
10
195.6576729999999884
20
-37.6001429999999957
11
194.547916999999984
21
-37.4088020000000014
0
LINE
8
BLACK
6
CONTINUOUS
10
194.547916999999984
20
-37.4088020000000014
11
193.4322739999999783
21
-37.2554599999999994
0
LINE
8
BLACK
6
CONTINUOUS
10
193.4322739999999783
20
-37.2554599999999994
11
192.3120469999999784
21
-37.1402969999999968
0
LINE
8
BLACK
6
CONTINUOUS
10
192.3120469999999784
20
-37.1402969999999968
11
191.1885409999999865
21
-37.0634469999999965
0
LINE
8
BLACK
6
CONTINUOUS
10
191.1885409999999865
20
-37.0634469999999965
11
190.0630659999999921
21
-37.0249999999999986
0
LINE
8
BLACK
6
CONTINUOUS
10
190.0630659999999921
20
-37.0249999999999986
11
188.9369339999999795
21
-37.0249999999999986
0
LINE
8
BLACK
6
CONTINUOUS
10
188.9369339999999795
20
-37.0249999999999986
11
187.8114589999999851
21
-37.0634469999999965
0
LINE
8
BLACK
6
CONTINUOUS
10
187.8114589999999851
20
-37.0634469999999965
11
186.6879529999999932
21
-37.1402969999999968
0
LINE
8
BLACK
6
CONTINUOUS
10
186.6879529999999932
20
-37.1402969999999968
11
185.5677259999999933
21
-37.2554599999999994
0
LINE
8
BLACK
6
CONTINUOUS
10
185.5677259999999933
20
-37.2554599999999994
11
184.4520829999999876
21
-37.4088020000000014
0
LINE
8
BLACK
6
CONTINUOUS
10
184.4520829999999876
20
-37.4088020000000014
11
183.3423269999999832
21
-37.6001429999999957
0
LINE
8
BLACK
6
CONTINUOUS
10
183.3423269999999832
20
-37.6001429999999957
11
182.2397489999999891
21
-37.8292609999999954
0
LINE
8
BLACK
6
CONTINUOUS
10
182.2397489999999891
20
-37.8292609999999954
11
181.1456369999999936
21
-38.0958889999999997
0
LINE
8
BLACK
6
CONTINUOUS
10
181.1456369999999936
20
-38.0958889999999997
11
180.0612659999999892
21
-38.399715999999998
0
LINE
8
BLACK
6
CONTINUOUS
10
180.0612659999999892
20
-38.399715999999998
11
178.9878999999999962
21
-38.7403869999999984
0
LINE
8
BLACK
6
CONTINUOUS
10
178.9878999999999962
20
-38.7403869999999984
11
177.9267899999999827
21
-39.1175050000000013
0
LINE
8
BLACK
6
CONTINUOUS
10
177.9267899999999827
20
-39.1175050000000013
11
176.8791740000000061
21
-39.5306309999999996
0
LINE
8
BLACK
6
CONTINUOUS
10
176.8791740000000061
20
-39.5306309999999996
11
175.846273999999994
21
-39.9792829999999952
0
LINE
8
BLACK
6
CONTINUOUS
10
175.846273999999994
20
-39.9792829999999952
11
174.8292929999999785
21
-40.4629380000000012
0
LINE
8
BLACK
6
CONTINUOUS
10
174.8292929999999785
20
-40.4629380000000012
11
173.829418000000004
21
-40.981031999999999
0
LINE
8
BLACK
6
CONTINUOUS
10
173.829418000000004
20
-40.981031999999999
11
172.8478130000000021
21
-41.5329599999999957
0
LINE
8
BLACK
6
CONTINUOUS
10
172.8478130000000021
20
-41.5329599999999957
11
171.8856250000000045
21
-42.1180799999999991
0
LINE
8
BLACK
6
CONTINUOUS
10
171.8856250000000045
20
-42.1180799999999991
11
170.9439739999999972
21
-42.7357089999999999
0
LINE
8
BLACK
6
CONTINUOUS
10
170.9439739999999972
20
-42.7357089999999999
11
170.0239589999999907
21
-43.3851269999999971
0
LINE
8
BLACK
6
CONTINUOUS
10
170.0239589999999907
20
-43.3851269999999971
11
169.1266509999999812
21
-44.0655760000000001
0
LINE
8
BLACK
6
CONTINUOUS
10
169.1266509999999812
20
-44.0655760000000001
11
168.2530989999999917
21
-44.7762639999999976
0
LINE
8
BLACK
6
CONTINUOUS
10
168.2530989999999917
20
-44.7762639999999976
11
167.4043189999999868
21
-45.5163620000000009
0
LINE
8
BLACK
6
CONTINUOUS
10
167.4043189999999868
20
-45.5163620000000009
11
166.5813009999999963
21
-46.2850059999999957
0
LINE
8
BLACK
6
CONTINUOUS
10
166.5813009999999963
20
-46.2850059999999957
11
165.7850059999999814
21
-47.0813009999999963
0
LINE
8
BLACK
6
CONTINUOUS
10
165.7850059999999814
20
-47.0813009999999963
11
165.0163619999999867
21
-47.904319000000001
0
LINE
8
BLACK
6
CONTINUOUS
10
165.0163619999999867
20
-47.904319000000001
11
164.2762639999999976
21
-48.7530989999999989
0
LINE
8
BLACK
6
CONTINUOUS
10
164.2762639999999976
20
-48.7530989999999989
11
163.565575999999993
21
-49.6266509999999954
0
LINE
8
BLACK
6
CONTINUOUS
10
163.565575999999993
20
-49.6266509999999954
11
162.8851269999999829
21
-50.5239589999999978
0
LINE
8
BLACK
6
CONTINUOUS
10
162.8851269999999829
20
-50.5239589999999978
11
162.2357089999999857
21
-51.4439739999999972
0
LINE
8
BLACK
6
CONTINUOUS
10
162.2357089999999857
20
-51.4439739999999972
11
161.618079999999992
21
-52.3856249999999974
0
LINE
8
BLACK
6
CONTINUOUS
10
161.618079999999992
20
-52.3856249999999974
11
161.0329600000000028
21
-53.347812999999995
0
LINE
8
BLACK
6
CONTINUOUS
10
161.0329600000000028
20
-53.347812999999995
11
160.481031999999999
21
-54.3294179999999969
0
LINE
8
BLACK
6
CONTINUOUS
10
160.481031999999999
20
-54.3294179999999969
11
159.9629379999999799
21
-55.3292929999999998
0
LINE
8
BLACK
6
CONTINUOUS
10
159.9629379999999799
20
-55.3292929999999998
11
159.479282999999981
21
-56.346273999999994
0
LINE
8
BLACK
6
CONTINUOUS
10
159.479282999999981
20
-56.346273999999994
11
159.0306309999999996
21
-57.379173999999999
0
LINE
8
BLACK
6
CONTINUOUS
10
159.0306309999999996
20
-57.379173999999999
11
158.6175049999999942
21
-58.4267899999999969
0
LINE
8
BLACK
6
CONTINUOUS
10
158.6175049999999942
20
-58.4267899999999969
11
158.2403869999999984
21
-59.4878999999999962
0
LINE
8
BLACK
6
CONTINUOUS
10
158.2403869999999984
20
-59.4878999999999962
11
157.8997159999999838
21
-60.5612659999999963
0
LINE
8
BLACK
6
CONTINUOUS
10
157.8997159999999838
20
-60.5612659999999963
11
157.5958889999999997
21
-61.6456370000000007
0
LINE
8
BLACK
6
CONTINUOUS
10
157.5958889999999997
20
-61.6456370000000007
11
157.3292610000000025
21
-62.7397489999999962
0
LINE
8
BLACK
6
CONTINUOUS
10
157.3292610000000025
20
-62.7397489999999962
11
157.1001430000000028
21
-63.8423269999999974
0
LINE
8
BLACK
6
CONTINUOUS
10
157.1001430000000028
20
-63.8423269999999974
11
156.9088019999999801
21
-64.9520830000000018
0
LINE
8
BLACK
6
CONTINUOUS
10
156.9088019999999801
20
-64.9520830000000018
11
156.7554599999999994
21
-66.0677259999999933
0
LINE
8
BLACK
6
CONTINUOUS
10
156.7554599999999994
20
-66.0677259999999933
11
156.6402970000000039
21
-67.1879529999999932
0
LINE
8
BLACK
6
CONTINUOUS
10
156.6402970000000039
20
-67.1879529999999932
11
156.5634469999999965
21
-68.3114589999999993
0
LINE
8
BLACK
6
CONTINUOUS
10
156.5634469999999965
20
-68.3114589999999993
11
156.5250000000000057
21
-69.4369339999999937
0
LINE
8
BLACK
6
CONTINUOUS
10
156.5250000000000057
20
-69.4369339999999937
11
156.5250000000000057
21
-70.5630659999999921
0
CIRCLE
8
BLACK
10
204.9599999999999795
20
-75.
40
0.175
0
CIRCLE
8
BLACK
10
207.5
20
-75.
40
0.175
0
CIRCLE
8
BLACK
10
210.039999999999992
20
-75.
40
0.175
0
CIRCLE
8
BLACK
10
215.25
20
-80.5
40
0.175
0
CIRCLE
8
BLACK
10
212.75
20
-80.5
40
0.175
0
CIRCLE
8
BLACK
10
211.539999999999992
20
-53.
40
0.175
0
CIRCLE
8
BLACK
10
209.
20
-53.
40
0.175
0
CIRCLE
8
BLACK
10
206.4599999999999795
20
-53.
40
0.175
0
CIRCLE
8
BLACK
10
210.
20
-69.7000000000000028
40
0.175
0
CIRCLE
8
BLACK
10
210.
20
-67.1599999999999966
40
0.175
0
CIRCLE
8
BLACK
10
210.
20
-64.6199999999999903
40
0.175
0
CIRCLE
8
BLACK
10
210.
20
-62.0799999999999983
40
0.175
0
CIRCLE
8
BLACK
10
210.
20
-59.5399999999999991
40
0.175
0
CIRCLE
8
BLACK
10
210.
20
-57.
40
0.175
0
CIRCLE
8
BLACK
10
211.25
20
-86.5
40
0.175
0
CIRCLE
8
BLACK
10
208.75
20
-86.5
40
0.175
0
CIRCLE
8
BLACK
10
215.7999999999999829
20
-71.
40
0.175
0
CIRCLE
8
BLACK
10
215.7999999999999829
20
-73.5
40
0.175
0
CIRCLE
8
BLACK
10
177.4499999999999886
20
-65.5900000000000034
40
0.175
0
CIRCLE
8
BLACK
10
177.4499999999999886
20
-83.3699999999999903
40
0.175
0
CIRCLE
8
BLACK
10
200.3100000000000023
20
-83.3699999999999903
40
0.175
0
CIRCLE
8
BLACK
10
200.3100000000000023
20
-85.9099999999999966
40
0.175
0
CIRCLE
8
BLACK
10
177.4499999999999886
20
-50.3499999999999943
40
0.175
0
CIRCLE
8
BLACK
10
177.4499999999999886
20
-57.9699999999999989
40
0.175
0
CIRCLE
8
BLACK
10
177.4499999999999886
20
-60.509999999999998
40
0.175
0
CIRCLE
8
BLACK
10
177.4499999999999886
20
-63.0499999999999972
40
0.175
0
CIRCLE
8
BLACK
10
177.4499999999999886
20
-68.1299999999999955
40
0.175
0
CIRCLE
8
BLACK
10
177.4499999999999886
20
-70.6700000000000017
40
0.175
0
CIRCLE
8
BLACK
10
177.4499999999999886
20
-73.2099999999999937
40
0.175
0
CIRCLE
8
BLACK
10
177.4499999999999886
20
-75.75
40
0.175
0
CIRCLE
8
BLACK
10
177.4499999999999886
20
-78.289999999999992
40
0.175
0
CIRCLE
8
BLACK
10
177.4499999999999886
20
-80.8299999999999983
40
0.175
0
CIRCLE
8
BLACK
10
200.3100000000000023
20
-80.8299999999999983
40
0.175
0
CIRCLE
8
BLACK
10
200.3100000000000023
20
-78.289999999999992
40
0.175
0
CIRCLE
8
BLACK
10
200.3100000000000023
20
-75.75
40
0.175
0
CIRCLE
8
BLACK
10
200.3100000000000023
20
-73.2099999999999937
40
0.175
0
CIRCLE
8
BLACK
10
200.3100000000000023
20
-70.6700000000000017
40
0.175
0
CIRCLE
8
BLACK
10
200.3100000000000023
20
-68.1299999999999955
40
0.175
0
CIRCLE
8
BLACK
10
200.3100000000000023
20
-65.5900000000000034
40
0.175
0
CIRCLE
8
BLACK
10
200.3100000000000023
20
-63.0499999999999972
40
0.175
0
CIRCLE
8
BLACK
10
200.3100000000000023
20
-60.509999999999998
40
0.175
0
CIRCLE
8
BLACK
10
200.3100000000000023
20
-57.9699999999999989
40
0.175
0
CIRCLE
8
BLACK
10
200.3100000000000023
20
-55.4299999999999997
40
0.175
0
CIRCLE
8
BLACK
10
200.3100000000000023
20
-52.8900000000000006
40
0.175
0
CIRCLE
8
BLACK
10
200.3100000000000023
20
-50.3499999999999943
40
0.175
0
CIRCLE
8
BLACK
10
177.4499999999999886
20
-85.9099999999999966
40
0.175
0
CIRCLE
8
BLACK
10
177.4499999999999886
20
-55.4299999999999997
40
0.175
0
CIRCLE
8
BLACK
10
177.4499999999999886
20
-52.8900000000000006
40
0.175
0
CIRCLE
8
BLACK
10
163.5
20
-63.8799999999999955
40
0.175
0
CIRCLE
8
BLACK
10
163.5
20
-66.4200000000000017
40
0.175
0
CIRCLE
8
BLACK
10
163.5
20
-68.9599999999999937
40
0.175
0
CIRCLE
8
BLACK
10
163.5
20
-71.5
40
0.175
0
CIRCLE
8
BLACK
10
163.5
20
-74.039999999999992
40
0.175
0
CIRCLE
8
BLACK
10
163.5
20
-76.5799999999999983
40
0.175
0
CIRCLE
8
BLACK
10
204.9599999999999795
20
-75.
40
0.175
0
CIRCLE
8
BLACK
10
207.5
20
-75.
40
0.175
0
CIRCLE
8
BLACK
10
210.039999999999992
20
-75.
40
0.175
0
CIRCLE
8
BLACK
10
215.25
20
-80.5
40
0.175
0
CIRCLE
8
BLACK
10
212.75
20
-80.5
40
0.175
0
CIRCLE
8
BLACK
10
211.539999999999992
20
-53.
40
0.175
0
CIRCLE
8
BLACK
10
209.
20
-53.
40
0.175
0
CIRCLE
8
BLACK
10
206.4599999999999795
20
-53.
40
0.175
0
CIRCLE
8
BLACK
10
210.
20
-69.7000000000000028
40
0.175
0
CIRCLE
8
BLACK
10
210.
20
-67.1599999999999966
40
0.175
0
CIRCLE
8
BLACK
10
210.
20
-64.6199999999999903
40
0.175
0
CIRCLE
8
BLACK
10
210.
20
-62.0799999999999983
40
0.175
0
CIRCLE
8
BLACK
10
210.
20
-59.5399999999999991
40
0.175
0
CIRCLE
8
BLACK
10
210.
20
-57.
40
0.175
0
CIRCLE
8
BLACK
10
211.25
20
-86.5
40
0.175
0
CIRCLE
8
BLACK
10
208.75
20
-86.5
40
0.175
0
CIRCLE
8
BLACK
10
215.7999999999999829
20
-71.
40
0.175
0
CIRCLE
8
BLACK
10
215.7999999999999829
20
-73.5
40
0.175
0
CIRCLE
8
BLACK
10
177.4499999999999886
20
-65.5900000000000034
40
0.175
0
CIRCLE
8
BLACK
10
177.4499999999999886
20
-83.3699999999999903
40
0.175
0
CIRCLE
8
BLACK
10
200.3100000000000023
20
-83.3699999999999903
40
0.175
0
CIRCLE
8
BLACK
10
200.3100000000000023
20
-85.9099999999999966
40
0.175
0
CIRCLE
8
BLACK
10
177.4499999999999886
20
-50.3499999999999943
40
0.175
0
CIRCLE
8
BLACK
10
177.4499999999999886
20
-57.9699999999999989
40
0.175
0
CIRCLE
8
BLACK
10
177.4499999999999886
20
-60.509999999999998
40
0.175
0
CIRCLE
8
BLACK
10
177.4499999999999886
20
-63.0499999999999972
40
0.175
0
CIRCLE
8
BLACK
10
177.4499999999999886
20
-68.1299999999999955
40
0.175
0
CIRCLE
8
BLACK
10
177.4499999999999886
20
-70.6700000000000017
40
0.175
0
CIRCLE
8
BLACK
10
177.4499999999999886
20
-73.2099999999999937
40
0.175
0
CIRCLE
8
BLACK
10
177.4499999999999886
20
-75.75
40
0.175
0
CIRCLE
8
BLACK
10
177.4499999999999886
20
-78.289999999999992
40
0.175
0
CIRCLE
8
BLACK
10
177.4499999999999886
20
-80.8299999999999983
40
0.175
0
CIRCLE
8
BLACK
10
200.3100000000000023
20
-80.8299999999999983
40
0.175
0
CIRCLE
8
BLACK
10
200.3100000000000023
20
-78.289999999999992
40
0.175
0
CIRCLE
8
BLACK
10
200.3100000000000023
20
-75.75
40
0.175
0
CIRCLE
8
BLACK
10
200.3100000000000023
20
-73.2099999999999937
40
0.175
0
CIRCLE
8
BLACK
10
200.3100000000000023
20
-70.6700000000000017
40
0.175
0
CIRCLE
8
BLACK
10
200.3100000000000023
20
-68.1299999999999955
40
0.175
0
CIRCLE
8
BLACK
10
200.3100000000000023
20
-65.5900000000000034
40
0.175
0
CIRCLE
8
BLACK
10
200.3100000000000023
20
-63.0499999999999972
40
0.175
0
CIRCLE
8
BLACK
10
200.3100000000000023
20
-60.509999999999998
40
0.175
0
CIRCLE
8
BLACK
10
200.3100000000000023
20
-57.9699999999999989
40
0.175
0
CIRCLE
8
BLACK
10
200.3100000000000023
20
-55.4299999999999997
40
0.175
0
CIRCLE
8
BLACK
10
200.3100000000000023
20
-52.8900000000000006
40
0.175
0
CIRCLE
8
BLACK
10
200.3100000000000023
20
-50.3499999999999943
40
0.175
0
CIRCLE
8
BLACK
10
177.4499999999999886
20
-85.9099999999999966
40
0.175
0
CIRCLE
8
BLACK
10
177.4499999999999886
20
-55.4299999999999997
40
0.175
0
CIRCLE
8
BLACK
10
177.4499999999999886
20
-52.8900000000000006
40
0.175
0
CIRCLE
8
BLACK
10
163.5
20
-63.8799999999999955
40
0.175
0
CIRCLE
8
BLACK
10
163.5
20
-66.4200000000000017
40
0.175
0
CIRCLE
8
BLACK
10
163.5
20
-68.9599999999999937
40
0.175
0
CIRCLE
8
BLACK
10
163.5
20
-71.5
40
0.175
0
CIRCLE
8
BLACK
10
163.5
20
-74.039999999999992
40
0.175
0
CIRCLE
8
BLACK
10
163.5
20
-76.5799999999999983
40
0.175
  0
ENDSEC
  0
EOF
