  0
SECTION
  2
HEADER
  9
$ANGBASE
  50
0.0
  9
$ANGDIR
  70
1
  9
$MEASUREMENT
  70
1
  0
ENDSEC
  0
SECTION
  2
TABLES
  0
TABLE
  2
LTYPE
  70
4
  0
LTYPE
  5
40F
  2
CONTINUOUS
  70
0
  3
Solid line
  72
65
  73
0
  40
0.0
  0
LTYPE
  5
410
  2
DASHDOT
 70
0
  3
Dash Dot ____ _ ____ _
 72
65
 73
4
 40
2.0
 49
1.25
 49
-0.25
 49
0.25
 49
-0.25
  0
LTYPE
  5
411
  2
DASHED
 70
0
  3
Dashed __ __ __ __ __
 72
65
 73
2
 40
0.75
 49
0.5
 49
-0.25
  0
LTYPE
  5
43B
  2
DOTTED
 70
0
  3
Dotted .  .  .  .
 72
65
 73
2
 40
0.2
 49
0.0
 49
-0.2
  0
ENDTAB
  0
TABLE
  2
STYLE
  70
4
  0
STYLE
  2
KICAD
  70
0
  40
0
  41
1
  42
1
  50
0
  71
0
  3
isocp.shx
  0
STYLE
  2
KICADB
  70
0
  40
0
  41
1
  42
1
  50
0
  71
0
  3
isocp.shx
  0
STYLE
  2
KICADI
  70
0
  40
0
  41
1
  42
1
  50
15
  71
0
  3
isocp.shx
  0
STYLE
  2
KICADBI
  70
0
  40
0
  41
1
  42
1
  50
15
  71
0
  3
isocp.shx
  0
ENDTAB
  0
TABLE
  2
LAYER
  70
1
  0
LAYER
  2
BLACK
  70
0
  62
7
  6
CONTINUOUS
  0
ENDTAB
  0
ENDSEC
  0
SECTION
  2
ENTITIES
0
CIRCLE
8
BLACK
10
189.5
20
-70.
40
33.
0
LINE
8
BLACK
6
CONTINUOUS
10
159.0827679999999873
20
-106.1398379999999975
11
159.0827679999999873
21
-104.1398379999999975
0
LINE
8
BLACK
6
CONTINUOUS
10
159.0827679999999873
20
-104.1398379999999975
11
159.5589579999999899
21
-104.1398379999999975
0
LINE
8
BLACK
6
CONTINUOUS
10
159.5589579999999899
20
-104.1398379999999975
11
159.8446730000000002
21
-104.2350759999999923
0
LINE
8
BLACK
6
CONTINUOUS
10
159.8446730000000002
20
-104.2350759999999923
11
160.0351489999999899
21
-104.4255519999999962
0
LINE
8
BLACK
6
CONTINUOUS
10
160.0351489999999899
20
-104.4255519999999962
11
160.1303869999999847
21
-104.616028
0
LINE
8
BLACK
6
CONTINUOUS
10
160.1303869999999847
20
-104.616028
11
160.2256249999999795
21
-104.9969799999999935
0
LINE
8
BLACK
6
CONTINUOUS
10
160.2256249999999795
20
-104.9969799999999935
11
160.2256249999999795
21
-105.2826949999999897
0
LINE
8
BLACK
6
CONTINUOUS
10
160.2256249999999795
20
-105.2826949999999897
11
160.1303869999999847
21
-105.6636469999999974
0
LINE
8
BLACK
6
CONTINUOUS
10
160.1303869999999847
20
-105.6636469999999974
11
160.0351489999999899
21
-105.8541230000000013
0
LINE
8
BLACK
6
CONTINUOUS
10
160.0351489999999899
20
-105.8541230000000013
11
159.8446730000000002
21
-106.0445999999999884
0
LINE
8
BLACK
6
CONTINUOUS
10
159.8446730000000002
20
-106.0445999999999884
11
159.5589579999999899
21
-106.1398379999999975
0
LINE
8
BLACK
6
CONTINUOUS
10
159.5589579999999899
20
-106.1398379999999975
11
159.0827679999999873
21
-106.1398379999999975
0
LINE
8
BLACK
6
CONTINUOUS
10
161.0827679999999873
20
-106.1398379999999975
11
161.0827679999999873
21
-104.8065039999999897
0
LINE
8
BLACK
6
CONTINUOUS
10
161.0827679999999873
20
-105.1874569999999949
11
161.1780059999999821
21
-104.9969799999999935
0
LINE
8
BLACK
6
CONTINUOUS
10
161.1780059999999821
20
-104.9969799999999935
11
161.2732440000000054
21
-104.9017419999999987
0
LINE
8
BLACK
6
CONTINUOUS
10
161.2732440000000054
20
-104.9017419999999987
11
161.463719999999995
21
-104.8065039999999897
0
LINE
8
BLACK
6
CONTINUOUS
10
161.463719999999995
20
-104.8065039999999897
11
161.6541969999999822
21
-104.8065039999999897
0
LINE
8
BLACK
6
CONTINUOUS
10
162.3208630000000028
20
-106.1398379999999975
11
162.3208630000000028
21
-104.8065039999999897
0
LINE
8
BLACK
6
CONTINUOUS
10
162.3208630000000028
20
-104.1398379999999975
11
162.2256249999999795
21
-104.2350759999999923
0
LINE
8
BLACK
6
CONTINUOUS
10
162.2256249999999795
20
-104.2350759999999923
11
162.3208630000000028
21
-104.3303140000000013
0
LINE
8
BLACK
6
CONTINUOUS
10
162.3208630000000028
20
-104.3303140000000013
11
162.4161009999999976
21
-104.2350759999999923
0
LINE
8
BLACK
6
CONTINUOUS
10
162.4161009999999976
20
-104.2350759999999923
11
162.3208630000000028
21
-104.1398379999999975
0
LINE
8
BLACK
6
CONTINUOUS
10
162.3208630000000028
20
-104.1398379999999975
11
162.3208630000000028
21
-104.3303140000000013
0
LINE
8
BLACK
6
CONTINUOUS
10
163.5589579999999899
20
-106.1398379999999975
11
163.3684820000000002
21
-106.0445999999999884
0
LINE
8
BLACK
6
CONTINUOUS
10
163.3684820000000002
20
-106.0445999999999884
11
163.2732440000000054
21
-105.8541230000000013
0
LINE
8
BLACK
6
CONTINUOUS
10
163.2732440000000054
20
-105.8541230000000013
11
163.2732440000000054
21
-104.1398379999999975
0
LINE
8
BLACK
6
CONTINUOUS
10
164.6065769999999873
20
-106.1398379999999975
11
164.4161009999999976
21
-106.0445999999999884
0
LINE
8
BLACK
6
CONTINUOUS
10
164.4161009999999976
20
-106.0445999999999884
11
164.3208630000000028
21
-105.8541230000000013
0
LINE
8
BLACK
6
CONTINUOUS
10
164.3208630000000028
20
-105.8541230000000013
11
164.3208630000000028
21
-104.1398379999999975
0
LINE
8
BLACK
6
CONTINUOUS
10
166.8922919999999976
20
-106.1398379999999975
11
166.8922919999999976
21
-104.1398379999999975
0
LINE
8
BLACK
6
CONTINUOUS
10
166.8922919999999976
20
-104.1398379999999975
11
167.5589589999999873
21
-105.5684089999999884
0
LINE
8
BLACK
6
CONTINUOUS
10
167.5589589999999873
20
-105.5684089999999884
11
168.2256249999999795
21
-104.1398379999999975
0
LINE
8
BLACK
6
CONTINUOUS
10
168.2256249999999795
20
-104.1398379999999975
11
168.2256249999999795
21
-106.1398379999999975
0
LINE
8
BLACK
6
CONTINUOUS
10
170.0351489999999899
20
-106.1398379999999975
11
170.0351489999999899
21
-105.0922190000000001
0
LINE
8
BLACK
6
CONTINUOUS
10
170.0351489999999899
20
-105.0922190000000001
11
169.9399109999999951
21
-104.9017419999999987
0
LINE
8
BLACK
6
CONTINUOUS
10
169.9399109999999951
20
-104.9017419999999987
11
169.7494350000000054
21
-104.8065039999999897
0
LINE
8
BLACK
6
CONTINUOUS
10
169.7494350000000054
20
-104.8065039999999897
11
169.3684820000000002
21
-104.8065039999999897
0
LINE
8
BLACK
6
CONTINUOUS
10
169.3684820000000002
20
-104.8065039999999897
11
169.1780059999999821
21
-104.9017419999999987
0
LINE
8
BLACK
6
CONTINUOUS
10
170.0351489999999899
20
-106.0445999999999884
11
169.8446730000000002
21
-106.1398379999999975
0
LINE
8
BLACK
6
CONTINUOUS
10
169.8446730000000002
20
-106.1398379999999975
11
169.3684820000000002
21
-106.1398379999999975
0
LINE
8
BLACK
6
CONTINUOUS
10
169.3684820000000002
20
-106.1398379999999975
11
169.1780059999999821
21
-106.0445999999999884
0
LINE
8
BLACK
6
CONTINUOUS
10
169.1780059999999821
20
-106.0445999999999884
11
169.0827679999999873
21
-105.8541230000000013
0
LINE
8
BLACK
6
CONTINUOUS
10
169.0827679999999873
20
-105.8541230000000013
11
169.0827679999999873
21
-105.6636469999999974
0
LINE
8
BLACK
6
CONTINUOUS
10
169.0827679999999873
20
-105.6636469999999974
11
169.1780059999999821
21
-105.4731709999999936
0
LINE
8
BLACK
6
CONTINUOUS
10
169.1780059999999821
20
-105.4731709999999936
11
169.3684820000000002
21
-105.3779329999999987
0
LINE
8
BLACK
6
CONTINUOUS
10
169.3684820000000002
20
-105.3779329999999987
11
169.8446730000000002
21
-105.3779329999999987
0
LINE
8
BLACK
6
CONTINUOUS
10
169.8446730000000002
20
-105.3779329999999987
11
170.0351489999999899
21
-105.2826949999999897
0
LINE
8
BLACK
6
CONTINUOUS
10
170.9875299999999925
20
-104.8065039999999897
11
170.9875299999999925
21
-106.8065039999999897
0
LINE
8
BLACK
6
CONTINUOUS
10
170.9875299999999925
20
-104.9017419999999987
11
171.1780059999999821
21
-104.8065039999999897
0
LINE
8
BLACK
6
CONTINUOUS
10
171.1780059999999821
20
-104.8065039999999897
11
171.5589589999999873
21
-104.8065039999999897
0
LINE
8
BLACK
6
CONTINUOUS
10
171.5589589999999873
20
-104.8065039999999897
11
171.7494350000000054
21
-104.9017419999999987
0
LINE
8
BLACK
6
CONTINUOUS
10
171.7494350000000054
20
-104.9017419999999987
11
171.8446730000000002
21
-104.9969799999999935
0
LINE
8
BLACK
6
CONTINUOUS
10
171.8446730000000002
20
-104.9969799999999935
11
171.9399109999999951
21
-105.1874569999999949
0
LINE
8
BLACK
6
CONTINUOUS
10
171.9399109999999951
20
-105.1874569999999949
11
171.9399109999999951
21
-105.7588849999999923
0
LINE
8
BLACK
6
CONTINUOUS
10
171.9399109999999951
20
-105.7588849999999923
11
171.8446730000000002
21
-105.9493609999999961
0
LINE
8
BLACK
6
CONTINUOUS
10
171.8446730000000002
20
-105.9493609999999961
11
171.7494350000000054
21
-106.0445999999999884
0
LINE
8
BLACK
6
CONTINUOUS
10
171.7494350000000054
20
-106.0445999999999884
11
171.5589589999999873
21
-106.1398379999999975
0
LINE
8
BLACK
6
CONTINUOUS
10
171.5589589999999873
20
-106.1398379999999975
11
171.1780059999999821
21
-106.1398379999999975
0
LINE
8
BLACK
6
CONTINUOUS
10
171.1780059999999821
20
-106.1398379999999975
11
170.9875299999999925
21
-106.0445999999999884
0
LINE
8
BLACK
6
CONTINUOUS
10
172.7970540000000028
20
-105.9493609999999961
11
172.8922919999999976
21
-106.0445999999999884
0
LINE
8
BLACK
6
CONTINUOUS
10
172.8922919999999976
20
-106.0445999999999884
11
172.7970540000000028
21
-106.1398379999999975
0
LINE
8
BLACK
6
CONTINUOUS
10
172.7970540000000028
20
-106.1398379999999975
11
172.7018159999999796
21
-106.0445999999999884
0
LINE
8
BLACK
6
CONTINUOUS
10
172.7018159999999796
20
-106.0445999999999884
11
172.7970540000000028
21
-105.9493609999999961
0
LINE
8
BLACK
6
CONTINUOUS
10
172.7970540000000028
20
-105.9493609999999961
11
172.7970540000000028
21
-106.1398379999999975
0
LINE
8
BLACK
6
CONTINUOUS
10
172.7970540000000028
20
-104.9017419999999987
11
172.8922919999999976
21
-104.9969799999999935
0
LINE
8
BLACK
6
CONTINUOUS
10
172.8922919999999976
20
-104.9969799999999935
11
172.7970540000000028
21
-105.0922190000000001
0
LINE
8
BLACK
6
CONTINUOUS
10
172.7970540000000028
20
-105.0922190000000001
11
172.7018159999999796
21
-104.9969799999999935
0
LINE
8
BLACK
6
CONTINUOUS
10
172.7018159999999796
20
-104.9969799999999935
11
172.7970540000000028
21
-104.9017419999999987
0
LINE
8
BLACK
6
CONTINUOUS
10
172.7970540000000028
20
-104.9017419999999987
11
172.7970540000000028
21
-105.0922190000000001
  0
ENDSEC
  0
EOF
