  0
SECTION
  2
HEADER
  9
$ANGBASE
  50
0.0
  9
$ANGDIR
  70
1
  9
$MEASUREMENT
  70
0
  0
ENDSEC
  0
SECTION
  2
TABLES
  0
TABLE
  2
LTYPE
  70
4
  0
LTYPE
  5
40F
  2
CONTINUOUS
  70
0
  3
Solid line
  72
65
  73
0
  40
0.0
  0
LTYPE
  5
410
  2
DASHDOT
 70
0
  3
Dash Dot ____ _ ____ _
 72
65
 73
4
 40
2.0
 49
1.25
 49
-0.25
 49
0.25
 49
-0.25
  0
LTYPE
  5
411
  2
DASHED
 70
0
  3
Dashed __ __ __ __ __
 72
65
 73
2
 40
0.75
 49
0.5
 49
-0.25
  0
LTYPE
  5
43B
  2
DOTTED
 70
0
  3
Dotted .  .  .  .
 72
65
 73
2
 40
0.2
 49
0.0
 49
-0.2
  0
ENDTAB
  0
TABLE
  2
STYLE
  70
4
  0
STYLE
  2
KICAD
  70
0
  40
0
  41
1
  42
1
  50
0
  71
0
  3
isocp.shx
  0
STYLE
  2
KICADB
  70
0
  40
0
  41
1
  42
1
  50
0
  71
0
  3
isocp.shx
  0
STYLE
  2
KICADI
  70
0
  40
0
  41
1
  42
1
  50
15
  71
0
  3
isocp.shx
  0
STYLE
  2
KICADBI
  70
0
  40
0
  41
1
  42
1
  50
15
  71
0
  3
isocp.shx
  0
ENDTAB
  0
TABLE
  2
LAYER
  70
1
  0
LAYER
  2
BLACK
  70
0
  62
7
  6
CONTINUOUS
  0
ENDTAB
  0
ENDSEC
  0
SECTION
  2
ENTITIES
0
LINE
8
BLACK
6
CONTINUOUS
10
7.527198976377953
20
-1.457413937007874
11
7.5714921259842516
21
-1.4604436614173228
0
LINE
8
BLACK
6
CONTINUOUS
10
7.5714921259842516
20
-1.4604436614173228
11
7.6156559842519682
21
-1.4649838582677166
0
LINE
8
BLACK
6
CONTINUOUS
10
7.6156559842519682
20
-1.4649838582677166
11
7.6596391338582679
21
-1.4710291732283465
0
LINE
8
BLACK
6
CONTINUOUS
10
7.6596391338582679
20
-1.4710291732283465
11
7.7033901968503935
21
-1.4785726377952755
0
LINE
8
BLACK
6
CONTINUOUS
10
7.7033901968503935
20
-1.4785726377952755
11
7.7468582677165356
21
-1.4876053937007874
0
LINE
8
BLACK
6
CONTINUOUS
10
7.7468582677165356
20
-1.4876053937007874
11
7.7899925590551176
21
-1.4981169291338583
0
LINE
8
BLACK
6
CONTINUOUS
10
7.7899925590551176
20
-1.4981169291338583
11
7.8327428346456687
21
-1.510095
0
LINE
8
BLACK
6
CONTINUOUS
10
7.8327428346456687
20
-1.510095
11
7.8750592519685041
21
-1.5235256299212598
0
LINE
8
BLACK
6
CONTINUOUS
10
7.8750592519685041
20
-1.5235256299212598
11
7.9168924803149601
21
-1.5383931496062992
0
LINE
8
BLACK
6
CONTINUOUS
10
7.9168924803149601
20
-1.5383931496062992
11
7.9581937007874011
21
-1.5546802362204724
0
LINE
8
BLACK
6
CONTINUOUS
10
7.9581937007874011
20
-1.5546802362204724
11
7.9989148031496065
21
-1.5723679133858268
0
LINE
8
BLACK
6
CONTINUOUS
10
7.9989148031496065
20
-1.5723679133858268
11
8.0390083070866147
21
-1.5914355511811022
0
LINE
8
BLACK
6
CONTINUOUS
10
8.0390083070866147
20
-1.5914355511811022
11
8.0784274015748032
21
-1.6118608661417322
0
LINE
8
BLACK
6
CONTINUOUS
10
8.0784274015748032
20
-1.6118608661417322
11
8.1171261811023623
21
-1.6336201181102361
0
LINE
8
BLACK
6
CONTINUOUS
10
8.1171261811023623
20
-1.6336201181102361
11
8.1550595275590556
21
-1.6566879133858268
0
LINE
8
BLACK
6
CONTINUOUS
10
8.1550595275590556
20
-1.6566879133858268
11
8.1921832283464564
21
-1.6810373228346456
0
LINE
8
BLACK
6
CONTINUOUS
10
8.1921832283464564
20
-1.6810373228346456
11
8.228453937007874
21
-1.7066399999999999
0
LINE
8
BLACK
6
CONTINUOUS
10
8.228453937007874
20
-1.7066399999999999
11
8.2638294094488192
21
-1.7334660629921259
0
LINE
8
BLACK
6
CONTINUOUS
10
8.2638294094488192
20
-1.7334660629921259
11
8.2982683858267716
21
-1.7614842125984251
0
LINE
8
BLACK
6
CONTINUOUS
10
8.2982683858267716
20
-1.7614842125984251
11
8.3317306692913391
21
-1.7906618503937008
0
LINE
8
BLACK
6
CONTINUOUS
10
8.3317306692913391
20
-1.7906618503937008
11
8.3641773622047246
21
-1.8209649212598424
0
LINE
8
BLACK
6
CONTINUOUS
10
8.3641773622047246
20
-1.8209649212598424
11
8.3955705118110231
21
-1.8523580708661418
0
LINE
8
BLACK
6
CONTINUOUS
10
8.3955705118110231
20
-1.8523580708661418
11
8.4258735826771645
21
-1.8848047637795275
0
LINE
8
BLACK
6
CONTINUOUS
10
8.4258735826771645
20
-1.8848047637795275
11
8.4550512204724413
21
-1.9182670472440944
0
LINE
8
BLACK
6
CONTINUOUS
10
8.4550512204724413
20
-1.9182670472440944
11
8.4830693700787396
21
-1.9527060236220473
0
LINE
8
BLACK
6
CONTINUOUS
10
8.4830693700787396
20
-1.9527060236220473
11
8.5098954330708665
21
-1.988081496062992
0
LINE
8
BLACK
6
CONTINUOUS
10
8.5098954330708665
20
-1.988081496062992
11
8.5354981102362206
21
-2.0243522047244094
0
LINE
8
BLACK
6
CONTINUOUS
10
8.5354981102362206
20
-2.0243522047244094
11
8.5598475196850394
21
-2.061475905511811
0
LINE
8
BLACK
6
CONTINUOUS
10
8.5598475196850394
20
-2.061475905511811
11
8.5829153149606299
21
-2.0994092519685039
0
LINE
8
BLACK
6
CONTINUOUS
10
8.5829153149606299
20
-2.0994092519685039
11
8.604674566929134
21
-2.138108031496063
0
LINE
8
BLACK
6
CONTINUOUS
10
8.604674566929134
20
-2.138108031496063
11
8.6250998818897635
21
-2.1775271259842519
0
LINE
8
BLACK
6
CONTINUOUS
10
8.6250998818897635
20
-2.1775271259842519
11
8.6441675196850394
21
-2.2176206299212597
0
LINE
8
BLACK
6
CONTINUOUS
10
8.6441675196850394
20
-2.2176206299212597
11
8.661855196850393
21
-2.2583417322834647
0
LINE
8
BLACK
6
CONTINUOUS
10
8.661855196850393
20
-2.2583417322834647
11
8.6781422834645667
21
-2.2996429527559052
0
LINE
8
BLACK
6
CONTINUOUS
10
8.6781422834645667
20
-2.2996429527559052
11
8.6930098031496055
21
-2.3414761811023621
0
LINE
8
BLACK
6
CONTINUOUS
10
8.6930098031496055
20
-2.3414761811023621
11
8.7064404330708651
21
-2.3837925984251966
0
LINE
8
BLACK
6
CONTINUOUS
10
8.7064404330708651
20
-2.3837925984251966
11
8.7184185039370075
21
-2.4265428740157482
0
LINE
8
BLACK
6
CONTINUOUS
10
8.7184185039370075
20
-2.4265428740157482
11
8.7289300393700788
21
-2.4696771653543306
0
LINE
8
BLACK
6
CONTINUOUS
10
8.7289300393700788
20
-2.4696771653543306
11
8.7379627952755907
21
-2.5131452362204723
0
LINE
8
BLACK
6
CONTINUOUS
10
8.7379627952755907
20
-2.5131452362204723
11
8.7455062598425197
21
-2.5568962992125983
0
LINE
8
BLACK
6
CONTINUOUS
10
8.7455062598425197
20
-2.5568962992125983
11
8.75155157480315
21
-2.6008794488188975
0
LINE
8
BLACK
6
CONTINUOUS
10
8.75155157480315
20
-2.6008794488188975
11
8.7560917716535425
21
-2.6450433070866142
0
LINE
8
BLACK
6
CONTINUOUS
10
8.7560917716535425
20
-2.6450433070866142
11
8.759121496062992
21
-2.6893364566929132
0
LINE
8
BLACK
6
CONTINUOUS
10
8.759121496062992
20
-2.6893364566929132
11
8.7606372440944877
21
-2.7337072047244093
0
LINE
8
BLACK
6
CONTINUOUS
10
8.7606372440944877
20
-2.7337072047244093
11
8.7606372440944877
21
-2.7781038188976379
0
LINE
8
BLACK
6
CONTINUOUS
10
8.7606372440944877
20
-2.7781038188976379
11
8.759121496062992
21
-2.822474566929134
0
LINE
8
BLACK
6
CONTINUOUS
10
8.759121496062992
20
-2.822474566929134
11
8.7560917716535425
21
-2.8667677165354331
0
LINE
8
BLACK
6
CONTINUOUS
10
8.7560917716535425
20
-2.8667677165354331
11
8.75155157480315
21
-2.9109315748031497
0
LINE
8
BLACK
6
CONTINUOUS
10
8.75155157480315
20
-2.9109315748031497
11
8.7455062598425197
21
-2.9549147244094489
0
LINE
8
BLACK
6
CONTINUOUS
10
8.7455062598425197
20
-2.9549147244094489
11
8.7379627952755907
21
-2.9986657874015745
0
LINE
8
BLACK
6
CONTINUOUS
10
8.7379627952755907
20
-2.9986657874015745
11
8.7289300393700788
21
-3.0421338582677167
0
LINE
8
BLACK
6
CONTINUOUS
10
8.7289300393700788
20
-3.0421338582677167
11
8.7184185039370075
21
-3.085268149606299
0
LINE
8
BLACK
6
CONTINUOUS
10
8.7184185039370075
20
-3.085268149606299
11
8.7064404330708651
21
-3.1280184251968501
0
LINE
8
BLACK
6
CONTINUOUS
10
8.7064404330708651
20
-3.1280184251968501
11
8.6930098031496055
21
-3.1703348425196851
0
LINE
8
BLACK
6
CONTINUOUS
10
8.6930098031496055
20
-3.1703348425196851
11
8.6781422834645667
21
-3.2121680708661415
0
LINE
8
BLACK
6
CONTINUOUS
10
8.6781422834645667
20
-3.2121680708661415
11
8.661855196850393
21
-3.2534692913385825
0
LINE
8
BLACK
6
CONTINUOUS
10
8.661855196850393
20
-3.2534692913385825
11
8.6441675196850394
21
-3.2941903937007875
0
LINE
8
BLACK
6
CONTINUOUS
10
8.6441675196850394
20
-3.2941903937007875
11
8.6250998818897635
21
-3.3342838976377953
0
LINE
8
BLACK
6
CONTINUOUS
10
8.6250998818897635
20
-3.3342838976377953
11
8.604674566929134
21
-3.3737029921259842
0
LINE
8
BLACK
6
CONTINUOUS
10
8.604674566929134
20
-3.3737029921259842
11
8.5829153149606299
21
-3.4124017716535433
0
LINE
8
BLACK
6
CONTINUOUS
10
8.5829153149606299
20
-3.4124017716535433
11
8.5598475196850394
21
-3.4503351181102362
0
LINE
8
BLACK
6
CONTINUOUS
10
8.5598475196850394
20
-3.4503351181102362
11
8.5354981102362206
21
-3.4874588188976379
0
LINE
8
BLACK
6
CONTINUOUS
10
8.5354981102362206
20
-3.4874588188976379
11
8.5098954330708665
21
-3.523729527559055
0
LINE
8
BLACK
6
CONTINUOUS
10
8.5098954330708665
20
-3.523729527559055
11
8.4830693700787396
21
-3.5591049999999997
0
LINE
8
BLACK
6
CONTINUOUS
10
8.4830693700787396
20
-3.5591049999999997
11
8.4550512204724413
21
-3.5935439763779526
0
LINE
8
BLACK
6
CONTINUOUS
10
8.4550512204724413
20
-3.5935439763779526
11
8.4258735826771645
21
-3.6270062598425197
0
LINE
8
BLACK
6
CONTINUOUS
10
8.4258735826771645
20
-3.6270062598425197
11
8.3955705118110231
21
-3.6594529527559052
0
LINE
8
BLACK
6
CONTINUOUS
10
8.3955705118110231
20
-3.6594529527559052
11
8.3641773622047246
21
-3.6908461023622046
0
LINE
8
BLACK
6
CONTINUOUS
10
8.3641773622047246
20
-3.6908461023622046
11
8.3317306692913391
21
-3.7211491732283464
0
LINE
8
BLACK
6
CONTINUOUS
10
8.3317306692913391
20
-3.7211491732283464
11
8.2982683858267716
21
-3.7503268110236219
0
LINE
8
BLACK
6
CONTINUOUS
10
8.2982683858267716
20
-3.7503268110236219
11
8.2638294094488192
21
-3.7783449606299211
0
LINE
8
BLACK
6
CONTINUOUS
10
8.2638294094488192
20
-3.7783449606299211
11
8.228453937007874
21
-3.8051710236220471
0
LINE
8
BLACK
6
CONTINUOUS
10
8.228453937007874
20
-3.8051710236220471
11
8.1921832283464564
21
-3.8307737007874016
0
LINE
8
BLACK
6
CONTINUOUS
10
8.1921832283464564
20
-3.8307737007874016
11
8.1550595275590556
21
-3.8551231102362205
0
LINE
8
BLACK
6
CONTINUOUS
10
8.1550595275590556
20
-3.8551231102362205
11
8.1171261811023623
21
-3.8781909055118109
0
LINE
8
BLACK
6
CONTINUOUS
10
8.1171261811023623
20
-3.8781909055118109
11
8.0784274015748032
21
-3.899950157480315
0
LINE
8
BLACK
6
CONTINUOUS
10
8.0784274015748032
20
-3.899950157480315
11
8.0390083070866147
21
-3.920375472440945
0
LINE
8
BLACK
6
CONTINUOUS
10
8.0390083070866147
20
-3.920375472440945
11
7.9989148031496065
21
-3.9394431102362204
0
LINE
8
BLACK
6
CONTINUOUS
10
7.9989148031496065
20
-3.9394431102362204
11
7.9581937007874011
21
-3.9571307874015749
0
LINE
8
BLACK
6
CONTINUOUS
10
7.9581937007874011
20
-3.9571307874015749
11
7.9168924803149601
21
-3.9734178740157478
0
LINE
8
BLACK
6
CONTINUOUS
10
7.9168924803149601
20
-3.9734178740157478
11
7.8750592519685041
21
-3.9882853937007874
0
LINE
8
BLACK
6
CONTINUOUS
10
7.8750592519685041
20
-3.9882853937007874
11
7.8327428346456687
21
-4.0017160236220475
0
LINE
8
BLACK
6
CONTINUOUS
10
7.8327428346456687
20
-4.0017160236220475
11
7.7899925590551176
21
-4.0136940944881889
0
LINE
8
BLACK
6
CONTINUOUS
10
7.7899925590551176
20
-4.0136940944881889
11
7.7468582677165356
21
-4.0242056299212594
0
LINE
8
BLACK
6
CONTINUOUS
10
7.7468582677165356
20
-4.0242056299212594
11
7.7033901968503935
21
-4.0332383858267713
0
LINE
8
BLACK
6
CONTINUOUS
10
7.7033901968503935
20
-4.0332383858267713
11
7.6596391338582679
21
-4.0407818503937003
0
LINE
8
BLACK
6
CONTINUOUS
10
7.6596391338582679
20
-4.0407818503937003
11
7.6156559842519682
21
-4.0468271653543306
0
LINE
8
BLACK
6
CONTINUOUS
10
7.6156559842519682
20
-4.0468271653543306
11
7.5714921259842516
21
-4.0513673622047239
0
LINE
8
BLACK
6
CONTINUOUS
10
7.5714921259842516
20
-4.0513673622047239
11
7.527198976377953
21
-4.0543970866141734
0
LINE
8
BLACK
6
CONTINUOUS
10
7.527198976377953
20
-4.0543970866141734
11
7.4828282283464569
21
-4.0559128346456692
0
LINE
8
BLACK
6
CONTINUOUS
10
7.4828282283464569
20
-4.0559128346456692
11
7.4384316141732283
21
-4.0559128346456692
0
LINE
8
BLACK
6
CONTINUOUS
10
7.4384316141732283
20
-4.0559128346456692
11
7.3940608661417322
21
-4.0543970866141734
0
LINE
8
BLACK
6
CONTINUOUS
10
7.3940608661417322
20
-4.0543970866141734
11
7.3497677165354327
21
-4.0513673622047239
0
LINE
8
BLACK
6
CONTINUOUS
10
7.3497677165354327
20
-4.0513673622047239
11
7.3056038582677161
21
-4.0468271653543306
0
LINE
8
BLACK
6
CONTINUOUS
10
7.3056038582677161
20
-4.0468271653543306
11
7.2616207086614173
21
-4.0407818503937003
0
LINE
8
BLACK
6
CONTINUOUS
10
7.2616207086614173
20
-4.0407818503937003
11
7.2178696456692908
21
-4.0332383858267713
0
LINE
8
BLACK
6
CONTINUOUS
10
7.2178696456692908
20
-4.0332383858267713
11
7.1744015748031496
21
-4.0242056299212594
0
LINE
8
BLACK
6
CONTINUOUS
10
7.1744015748031496
20
-4.0242056299212594
11
7.1312672834645667
21
-4.0136940944881889
0
LINE
8
BLACK
6
CONTINUOUS
10
7.1312672834645667
20
-4.0136940944881889
11
7.0885170078740156
21
-4.0017160236220475
0
LINE
8
BLACK
6
CONTINUOUS
10
7.0885170078740156
20
-4.0017160236220475
11
7.0462005905511811
21
-3.9882853937007874
0
LINE
8
BLACK
6
CONTINUOUS
10
7.0462005905511811
20
-3.9882853937007874
11
7.0043673622047242
21
-3.9734178740157478
0
LINE
8
BLACK
6
CONTINUOUS
10
7.0043673622047242
20
-3.9734178740157478
11
6.9630661417322832
21
-3.9571307874015749
0
LINE
8
BLACK
6
CONTINUOUS
10
6.9630661417322832
20
-3.9571307874015749
11
6.9223450393700787
21
-3.9394431102362204
0
LINE
8
BLACK
6
CONTINUOUS
10
6.9223450393700787
20
-3.9394431102362204
11
6.8822515354330704
21
-3.920375472440945
0
LINE
8
BLACK
6
CONTINUOUS
10
6.8822515354330704
20
-3.920375472440945
11
6.842832440944882
21
-3.899950157480315
0
LINE
8
BLACK
6
CONTINUOUS
10
6.842832440944882
20
-3.899950157480315
11
6.8041336614173229
21
-3.8781909055118109
0
LINE
8
BLACK
6
CONTINUOUS
10
6.8041336614173229
20
-3.8781909055118109
11
6.7662003149606296
21
-3.8551231102362205
0
LINE
8
BLACK
6
CONTINUOUS
10
6.7662003149606296
20
-3.8551231102362205
11
6.7290766141732279
21
-3.8307737007874016
0
LINE
8
BLACK
6
CONTINUOUS
10
6.7290766141732279
20
-3.8307737007874016
11
6.6928059055118112
21
-3.8051710236220471
0
LINE
8
BLACK
6
CONTINUOUS
10
6.6928059055118112
20
-3.8051710236220471
11
6.657430433070866
21
-3.7783449606299211
0
LINE
8
BLACK
6
CONTINUOUS
10
6.657430433070866
20
-3.7783449606299211
11
6.6229914566929136
21
-3.7503268110236219
0
LINE
8
BLACK
6
CONTINUOUS
10
6.6229914566929136
20
-3.7503268110236219
11
6.5895291732283461
21
-3.7211491732283464
0
LINE
8
BLACK
6
CONTINUOUS
10
6.5895291732283461
20
-3.7211491732283464
11
6.5570824803149605
21
-3.6908461023622046
0
LINE
8
BLACK
6
CONTINUOUS
10
6.5570824803149605
20
-3.6908461023622046
11
6.5256893307086612
21
-3.6594529527559052
0
LINE
8
BLACK
6
CONTINUOUS
10
6.5256893307086612
20
-3.6594529527559052
11
6.4953862598425198
21
-3.6270062598425197
0
LINE
8
BLACK
6
CONTINUOUS
10
6.4953862598425198
20
-3.6270062598425197
11
6.4662086220472439
21
-3.5935439763779526
0
LINE
8
BLACK
6
CONTINUOUS
10
6.4662086220472439
20
-3.5935439763779526
11
6.4381904724409447
21
-3.5591049999999997
0
LINE
8
BLACK
6
CONTINUOUS
10
6.4381904724409447
20
-3.5591049999999997
11
6.4113644094488187
21
-3.523729527559055
0
LINE
8
BLACK
6
CONTINUOUS
10
6.4113644094488187
20
-3.523729527559055
11
6.3857617322834646
21
-3.4874588188976379
0
LINE
8
BLACK
6
CONTINUOUS
10
6.3857617322834646
20
-3.4874588188976379
11
6.3614123228346457
21
-3.4503351181102362
0
LINE
8
BLACK
6
CONTINUOUS
10
6.3614123228346457
20
-3.4503351181102362
11
6.3383445275590553
21
-3.4124017716535433
0
LINE
8
BLACK
6
CONTINUOUS
10
6.3383445275590553
20
-3.4124017716535433
11
6.3165852755905512
21
-3.3737029921259842
0
LINE
8
BLACK
6
CONTINUOUS
10
6.3165852755905512
20
-3.3737029921259842
11
6.2961599606299208
21
-3.3342838976377953
0
LINE
8
BLACK
6
CONTINUOUS
10
6.2961599606299208
20
-3.3342838976377953
11
6.2770923228346458
21
-3.2941903937007875
0
LINE
8
BLACK
6
CONTINUOUS
10
6.2770923228346458
20
-3.2941903937007875
11
6.2594046456692913
21
-3.2534692913385825
0
LINE
8
BLACK
6
CONTINUOUS
10
6.2594046456692913
20
-3.2534692913385825
11
6.2431175590551176
21
-3.2121680708661415
0
LINE
8
BLACK
6
CONTINUOUS
10
6.2431175590551176
20
-3.2121680708661415
11
6.2282500393700788
21
-3.1703348425196851
0
LINE
8
BLACK
6
CONTINUOUS
10
6.2282500393700788
20
-3.1703348425196851
11
6.2148194094488192
21
-3.1280184251968501
0
LINE
8
BLACK
6
CONTINUOUS
10
6.2148194094488192
20
-3.1280184251968501
11
6.2028413385826768
21
-3.085268149606299
0
LINE
8
BLACK
6
CONTINUOUS
10
6.2028413385826768
20
-3.085268149606299
11
6.1923298031496063
21
-3.0421338582677167
0
LINE
8
BLACK
6
CONTINUOUS
10
6.1923298031496063
20
-3.0421338582677167
11
6.1832970472440945
21
-2.9986657874015745
0
LINE
8
BLACK
6
CONTINUOUS
10
6.1832970472440945
20
-2.9986657874015745
11
6.1757535826771655
21
-2.9549147244094489
0
LINE
8
BLACK
6
CONTINUOUS
10
6.1757535826771655
20
-2.9549147244094489
11
6.1697082677165351
21
-2.9109315748031497
0
LINE
8
BLACK
6
CONTINUOUS
10
6.1697082677165351
20
-2.9109315748031497
11
6.1651680708661418
21
-2.8667677165354331
0
LINE
8
BLACK
6
CONTINUOUS
10
6.1651680708661418
20
-2.8667677165354331
11
6.1621383464566923
21
-2.822474566929134
0
LINE
8
BLACK
6
CONTINUOUS
10
6.1621383464566923
20
-2.822474566929134
11
6.1606225984251965
21
-2.7781038188976379
0
LINE
8
BLACK
6
CONTINUOUS
10
6.1606225984251965
20
-2.7781038188976379
11
6.1606225984251965
21
-2.7337375590551178
0
LINE
8
BLACK
6
CONTINUOUS
10
6.1606225984251965
20
-2.7337375590551178
11
6.1606225984251965
21
-2.7337072047244093
0
LINE
8
BLACK
6
CONTINUOUS
10
6.1606225984251965
20
-2.7337072047244093
11
6.1621383464566923
21
-2.6893364566929132
0
LINE
8
BLACK
6
CONTINUOUS
10
6.1621383464566923
20
-2.6893364566929132
11
6.1651680708661418
21
-2.6450433070866142
0
LINE
8
BLACK
6
CONTINUOUS
10
6.1651680708661418
20
-2.6450433070866142
11
6.1697082677165351
21
-2.6008794488188975
0
LINE
8
BLACK
6
CONTINUOUS
10
6.1697082677165351
20
-2.6008794488188975
11
6.1757535826771655
21
-2.5568962992125983
0
LINE
8
BLACK
6
CONTINUOUS
10
6.1757535826771655
20
-2.5568962992125983
11
6.1832970472440945
21
-2.5131452362204723
0
LINE
8
BLACK
6
CONTINUOUS
10
6.1832970472440945
20
-2.5131452362204723
11
6.1923298031496063
21
-2.4696771653543306
0
LINE
8
BLACK
6
CONTINUOUS
10
6.1923298031496063
20
-2.4696771653543306
11
6.2028413385826768
21
-2.4265428740157482
0
LINE
8
BLACK
6
CONTINUOUS
10
6.2028413385826768
20
-2.4265428740157482
11
6.2148194094488192
21
-2.3837925984251966
0
LINE
8
BLACK
6
CONTINUOUS
10
6.2148194094488192
20
-2.3837925984251966
11
6.2282500393700788
21
-2.3414761811023621
0
LINE
8
BLACK
6
CONTINUOUS
10
6.2282500393700788
20
-2.3414761811023621
11
6.2431175590551176
21
-2.2996429527559052
0
LINE
8
BLACK
6
CONTINUOUS
10
6.2431175590551176
20
-2.2996429527559052
11
6.2594046456692913
21
-2.2583417322834647
0
LINE
8
BLACK
6
CONTINUOUS
10
6.2594046456692913
20
-2.2583417322834647
11
6.2770923228346458
21
-2.2176206299212597
0
LINE
8
BLACK
6
CONTINUOUS
10
6.2770923228346458
20
-2.2176206299212597
11
6.2961599606299208
21
-2.1775271259842519
0
LINE
8
BLACK
6
CONTINUOUS
10
6.2961599606299208
20
-2.1775271259842519
11
6.3165852755905512
21
-2.138108031496063
0
LINE
8
BLACK
6
CONTINUOUS
10
6.3165852755905512
20
-2.138108031496063
11
6.3383445275590553
21
-2.0994092519685039
0
LINE
8
BLACK
6
CONTINUOUS
10
6.3383445275590553
20
-2.0994092519685039
11
6.3614123228346457
21
-2.061475905511811
0
LINE
8
BLACK
6
CONTINUOUS
10
6.3614123228346457
20
-2.061475905511811
11
6.3857617322834646
21
-2.0243522047244094
0
LINE
8
BLACK
6
CONTINUOUS
10
6.3857617322834646
20
-2.0243522047244094
11
6.4113644094488187
21
-1.988081496062992
0
LINE
8
BLACK
6
CONTINUOUS
10
6.4113644094488187
20
-1.988081496062992
11
6.4381904724409447
21
-1.9527060236220473
0
LINE
8
BLACK
6
CONTINUOUS
10
6.4381904724409447
20
-1.9527060236220473
11
6.4662086220472439
21
-1.9182670472440944
0
LINE
8
BLACK
6
CONTINUOUS
10
6.4662086220472439
20
-1.9182670472440944
11
6.4953862598425198
21
-1.8848047637795275
0
LINE
8
BLACK
6
CONTINUOUS
10
6.4953862598425198
20
-1.8848047637795275
11
6.5256893307086612
21
-1.8523580708661418
0
LINE
8
BLACK
6
CONTINUOUS
10
6.5256893307086612
20
-1.8523580708661418
11
6.5570824803149605
21
-1.8209649212598424
0
LINE
8
BLACK
6
CONTINUOUS
10
6.5570824803149605
20
-1.8209649212598424
11
6.5895291732283461
21
-1.7906618503937008
0
LINE
8
BLACK
6
CONTINUOUS
10
6.5895291732283461
20
-1.7906618503937008
11
6.6229914566929136
21
-1.7614842125984251
0
LINE
8
BLACK
6
CONTINUOUS
10
6.6229914566929136
20
-1.7614842125984251
11
6.657430433070866
21
-1.7334660629921259
0
LINE
8
BLACK
6
CONTINUOUS
10
6.657430433070866
20
-1.7334660629921259
11
6.6928059055118112
21
-1.7066399999999999
0
LINE
8
BLACK
6
CONTINUOUS
10
6.6928059055118112
20
-1.7066399999999999
11
6.7290766141732279
21
-1.6810373228346456
0
LINE
8
BLACK
6
CONTINUOUS
10
6.7290766141732279
20
-1.6810373228346456
11
6.7662003149606296
21
-1.6566879133858268
0
LINE
8
BLACK
6
CONTINUOUS
10
6.7662003149606296
20
-1.6566879133858268
11
6.8041336614173229
21
-1.6336201181102361
0
LINE
8
BLACK
6
CONTINUOUS
10
6.8041336614173229
20
-1.6336201181102361
11
6.842832440944882
21
-1.6118608661417322
0
LINE
8
BLACK
6
CONTINUOUS
10
6.842832440944882
20
-1.6118608661417322
11
6.8822515354330704
21
-1.5914355511811022
0
LINE
8
BLACK
6
CONTINUOUS
10
6.8822515354330704
20
-1.5914355511811022
11
6.9223450393700787
21
-1.5723679133858268
0
LINE
8
BLACK
6
CONTINUOUS
10
6.9223450393700787
20
-1.5723679133858268
11
6.9630661417322832
21
-1.5546802362204724
0
LINE
8
BLACK
6
CONTINUOUS
10
6.9630661417322832
20
-1.5546802362204724
11
7.0043673622047242
21
-1.5383931496062992
0
LINE
8
BLACK
6
CONTINUOUS
10
7.0043673622047242
20
-1.5383931496062992
11
7.0462005905511811
21
-1.5235256299212598
0
LINE
8
BLACK
6
CONTINUOUS
10
7.0462005905511811
20
-1.5235256299212598
11
7.0885170078740156
21
-1.510095
0
LINE
8
BLACK
6
CONTINUOUS
10
7.0885170078740156
20
-1.510095
11
7.1312672834645667
21
-1.4981169291338583
0
LINE
8
BLACK
6
CONTINUOUS
10
7.1312672834645667
20
-1.4981169291338583
11
7.1744015748031496
21
-1.4876053937007874
0
LINE
8
BLACK
6
CONTINUOUS
10
7.1744015748031496
20
-1.4876053937007874
11
7.2178696456692908
21
-1.4785726377952755
0
LINE
8
BLACK
6
CONTINUOUS
10
7.2178696456692908
20
-1.4785726377952755
11
7.2616207086614173
21
-1.4710291732283465
0
LINE
8
BLACK
6
CONTINUOUS
10
7.2616207086614173
20
-1.4710291732283465
11
7.3056038582677161
21
-1.4649838582677166
0
LINE
8
BLACK
6
CONTINUOUS
10
7.3056038582677161
20
-1.4649838582677166
11
7.3497677165354327
21
-1.4604436614173228
0
LINE
8
BLACK
6
CONTINUOUS
10
7.3497677165354327
20
-1.4604436614173228
11
7.3940608661417322
21
-1.457413937007874
0
LINE
8
BLACK
6
CONTINUOUS
10
7.3940608661417322
20
-1.457413937007874
11
7.4384316141732283
21
-1.455898188976378
0
LINE
8
BLACK
6
CONTINUOUS
10
7.4384316141732283
20
-1.455898188976378
11
7.4828282283464569
21
-1.455898188976378
0
LINE
8
BLACK
6
CONTINUOUS
10
7.4828282283464569
20
-1.455898188976378
11
7.527198976377953
21
-1.457413937007874
0
LINE
8
BLACK
6
CONTINUOUS
10
6.1624015748031491
20
-2.7780734645669289
11
6.1639152362204719
21
-2.822383503937008
0
LINE
8
BLACK
6
CONTINUOUS
10
6.1639152362204719
20
-2.822383503937008
11
6.1669408267716532
21
-2.866616023622047
0
LINE
8
BLACK
6
CONTINUOUS
10
6.1669408267716532
20
-2.866616023622047
11
6.1714748031496063
21
-2.9107194488188974
0
LINE
8
BLACK
6
CONTINUOUS
10
6.1714748031496063
20
-2.9107194488188974
11
6.1775118897637791
21
-2.954642401574803
0
LINE
8
BLACK
6
CONTINUOUS
10
6.1775118897637791
20
-2.954642401574803
11
6.1850449999999997
21
-2.9983335826771653
0
LINE
8
BLACK
6
CONTINUOUS
10
6.1850449999999997
20
-2.9983335826771653
11
6.1940653937007877
21
-3.0417421653543308
0
LINE
8
BLACK
6
CONTINUOUS
10
6.1940653937007877
20
-3.0417421653543308
11
6.2045625590551179
21
-3.0848174409448816
0
LINE
8
BLACK
6
CONTINUOUS
10
6.2045625590551179
20
-3.0848174409448816
11
6.2165242519685036
21
-3.127509212598425
0
LINE
8
BLACK
6
CONTINUOUS
10
6.2165242519685036
20
-3.127509212598425
11
6.2299364960629919
21
-3.169767716535433
0
LINE
8
BLACK
6
CONTINUOUS
10
6.2299364960629919
20
-3.169767716535433
11
6.2447836614173227
21
-3.2115437007874017
0
LINE
8
BLACK
6
CONTINUOUS
10
6.2447836614173227
20
-3.2115437007874017
11
6.2610484645669287
21
-3.2527884251968504
0
LINE
8
BLACK
6
CONTINUOUS
10
6.2610484645669287
20
-3.2527884251968504
11
6.2787119291338582
21
-3.2934537795275589
0
LINE
8
BLACK
6
CONTINUOUS
10
6.2787119291338582
20
-3.2934537795275589
11
6.2977534645669291
21
-3.3334924015748029
0
LINE
8
BLACK
6
CONTINUOUS
10
6.2977534645669291
20
-3.3334924015748029
11
6.3181508661417318
21
-3.372857559055118
0
LINE
8
BLACK
6
CONTINUOUS
10
6.3181508661417318
20
-3.372857559055118
11
6.33988031496063
21
-3.4115034251968503
0
LINE
8
BLACK
6
CONTINUOUS
10
6.33988031496063
20
-3.4115034251968503
11
6.3629165354330706
21
-3.4493848425196849
0
LINE
8
BLACK
6
CONTINUOUS
10
6.3629165354330706
20
-3.4493848425196849
11
6.3872326377952753
21
-3.4864577165354329
0
LINE
8
BLACK
6
CONTINUOUS
10
6.3872326377952753
20
-3.4864577165354329
11
6.4128002755905511
21
-3.5226787795275589
0
LINE
8
BLACK
6
CONTINUOUS
10
6.4128002755905511
20
-3.5226787795275589
11
6.4395896062992124
21
-3.5580058661417322
0
LINE
8
BLACK
6
CONTINUOUS
10
6.4395896062992124
20
-3.5580058661417322
11
6.4675694488188977
21
-3.5923976771653541
0
LINE
8
BLACK
6
CONTINUOUS
10
6.4675694488188977
20
-3.5923976771653541
11
6.4967071653543309
21
-3.6258142125984252
0
LINE
8
BLACK
6
CONTINUOUS
10
6.4967071653543309
20
-3.6258142125984252
11
6.5269687401574803
21
-3.6582164960629919
0
LINE
8
BLACK
6
CONTINUOUS
10
6.5269687401574803
20
-3.6582164960629919
11
6.5583189370078738
21
-3.6895666929133859
0
LINE
8
BLACK
6
CONTINUOUS
10
6.5583189370078738
20
-3.6895666929133859
11
6.5907212204724406
21
-3.7198282677165353
0
LINE
8
BLACK
6
CONTINUOUS
10
6.5907212204724406
20
-3.7198282677165353
11
6.6241377559055117
21
-3.7489659842519685
0
LINE
8
BLACK
6
CONTINUOUS
10
6.6241377559055117
20
-3.7489659842519685
11
6.6585295669291336
21
-3.7769458267716534
0
LINE
8
BLACK
6
CONTINUOUS
10
6.6585295669291336
20
-3.7769458267716534
11
6.6938566535433068
21
-3.8037351574803147
0
LINE
8
BLACK
6
CONTINUOUS
10
6.6938566535433068
20
-3.8037351574803147
11
6.7300777165354333
21
-3.8293027952755905
0
LINE
8
BLACK
6
CONTINUOUS
10
6.7300777165354333
20
-3.8293027952755905
11
6.7671505905511813
21
-3.8536188976377952
0
LINE
8
BLACK
6
CONTINUOUS
10
6.7671505905511813
20
-3.8536188976377952
11
6.8050320078740159
21
-3.8766551181102362
0
LINE
8
BLACK
6
CONTINUOUS
10
6.8050320078740159
20
-3.8766551181102362
11
6.8436778740157482
21
-3.8983845669291339
0
LINE
8
BLACK
6
CONTINUOUS
10
6.8436778740157482
20
-3.8983845669291339
11
6.8830430314960624
21
-3.9187819685039371
0
LINE
8
BLACK
6
CONTINUOUS
10
6.8830430314960624
20
-3.9187819685039371
11
6.9230816535433073
21
-3.937823503937008
0
LINE
8
BLACK
6
CONTINUOUS
10
6.9230816535433073
20
-3.937823503937008
11
6.9637470078740158
21
-3.9554869685039371
0
LINE
8
BLACK
6
CONTINUOUS
10
6.9637470078740158
20
-3.9554869685039371
11
7.0049917322834645
21
-3.9717517716535431
0
LINE
8
BLACK
6
CONTINUOUS
10
7.0049917322834645
20
-3.9717517716535431
11
7.0467677165354328
21
-3.9865989370078738
0
LINE
8
BLACK
6
CONTINUOUS
10
7.0467677165354328
20
-3.9865989370078738
11
7.0890262204724408
21
-4.0000111811023622
0
LINE
8
BLACK
6
CONTINUOUS
10
7.0890262204724408
20
-4.0000111811023622
11
7.1317179921259841
21
-4.0119728740157479
0
LINE
8
BLACK
6
CONTINUOUS
10
7.1317179921259841
20
-4.0119728740157479
11
7.1747932677165354
21
-4.022470039370079
0
LINE
8
BLACK
6
CONTINUOUS
10
7.1747932677165354
20
-4.022470039370079
11
7.2182018503937009
21
-4.0314904330708661
0
LINE
8
BLACK
6
CONTINUOUS
10
7.2182018503937009
20
-4.0314904330708661
11
7.2618930314960632
21
-4.0390235433070867
0
LINE
8
BLACK
6
CONTINUOUS
10
7.2618930314960632
20
-4.0390235433070867
11
7.3058159842519688
21
-4.0450606299212595
0
LINE
8
BLACK
6
CONTINUOUS
10
7.3058159842519688
20
-4.0450606299212595
11
7.3499194094488187
21
-4.0495946062992125
0
LINE
8
BLACK
6
CONTINUOUS
10
7.3499194094488187
20
-4.0495946062992125
11
7.3941519291338578
21
-4.0526201968503939
0
LINE
8
BLACK
6
CONTINUOUS
10
7.3941519291338578
20
-4.0526201968503939
11
7.4384619685039368
21
-4.0541338582677167
0
LINE
8
BLACK
6
CONTINUOUS
10
7.4384619685039368
20
-4.0541338582677167
11
7.4827978740157475
21
-4.0541338582677167
0
LINE
8
BLACK
6
CONTINUOUS
10
7.4827978740157475
20
-4.0541338582677167
11
7.5271079133858265
21
-4.0526201968503939
0
LINE
8
BLACK
6
CONTINUOUS
10
7.5271079133858265
20
-4.0526201968503939
11
7.5713404330708656
21
-4.0495946062992125
0
LINE
8
BLACK
6
CONTINUOUS
10
7.5713404330708656
20
-4.0495946062992125
11
7.6154438582677164
21
-4.0450606299212595
0
LINE
8
BLACK
6
CONTINUOUS
10
7.6154438582677164
20
-4.0450606299212595
11
7.6593668110236219
21
-4.0390235433070867
0
LINE
8
BLACK
6
CONTINUOUS
10
7.6593668110236219
20
-4.0390235433070867
11
7.7030579921259843
21
-4.0314904330708661
0
LINE
8
BLACK
6
CONTINUOUS
10
7.7030579921259843
20
-4.0314904330708661
11
7.7464665748031498
21
-4.022470039370079
0
LINE
8
BLACK
6
CONTINUOUS
10
7.7464665748031498
20
-4.022470039370079
11
7.7895418503937002
21
-4.0119728740157479
0
LINE
8
BLACK
6
CONTINUOUS
10
7.7895418503937002
20
-4.0119728740157479
11
7.8322336220472435
21
-4.0000111811023622
0
LINE
8
BLACK
6
CONTINUOUS
10
7.8322336220472435
20
-4.0000111811023622
11
7.8744921259842515
21
-3.9865989370078738
0
LINE
8
BLACK
6
CONTINUOUS
10
7.8744921259842515
20
-3.9865989370078738
11
7.9162681102362207
21
-3.9717517716535431
0
LINE
8
BLACK
6
CONTINUOUS
10
7.9162681102362207
20
-3.9717517716535431
11
7.9575128346456694
21
-3.9554869685039371
0
LINE
8
BLACK
6
CONTINUOUS
10
7.9575128346456694
20
-3.9554869685039371
11
7.9981781889763779
21
-3.937823503937008
0
LINE
8
BLACK
6
CONTINUOUS
10
7.9981781889763779
20
-3.937823503937008
11
8.0382168110236218
21
-3.9187819685039371
0
LINE
8
BLACK
6
CONTINUOUS
10
8.0382168110236218
20
-3.9187819685039371
11
8.0775819685039369
21
-3.8983845669291339
0
LINE
8
BLACK
6
CONTINUOUS
10
8.0775819685039369
20
-3.8983845669291339
11
8.1162278346456684
21
-3.8766551181102362
0
LINE
8
BLACK
6
CONTINUOUS
10
8.1162278346456684
20
-3.8766551181102362
11
8.154109251968503
21
-3.8536188976377952
0
LINE
8
BLACK
6
CONTINUOUS
10
8.154109251968503
20
-3.8536188976377952
11
8.1911821259842519
21
-3.8293027952755905
0
LINE
8
BLACK
6
CONTINUOUS
10
8.1911821259842519
20
-3.8293027952755905
11
8.2274031889763783
21
-3.8037351574803147
0
LINE
8
BLACK
6
CONTINUOUS
10
8.2274031889763783
20
-3.8037351574803147
11
8.2627302755905507
21
-3.7769458267716534
0
LINE
8
BLACK
6
CONTINUOUS
10
8.2627302755905507
20
-3.7769458267716534
11
8.2971220866141735
21
-3.7489659842519685
0
LINE
8
BLACK
6
CONTINUOUS
10
8.2971220866141735
20
-3.7489659842519685
11
8.3305386220472446
21
-3.7198282677165353
0
LINE
8
BLACK
6
CONTINUOUS
10
8.3305386220472446
20
-3.7198282677165353
11
8.3629409055118114
21
-3.6895666929133859
0
LINE
8
BLACK
6
CONTINUOUS
10
8.3629409055118114
20
-3.6895666929133859
11
8.3942911023622049
21
-3.6582164960629919
0
LINE
8
BLACK
6
CONTINUOUS
10
8.3942911023622049
20
-3.6582164960629919
11
8.4245526771653534
21
-3.6258142125984252
0
LINE
8
BLACK
6
CONTINUOUS
10
8.4245526771653534
20
-3.6258142125984252
11
8.4536903937007875
21
-3.5923976771653541
0
LINE
8
BLACK
6
CONTINUOUS
10
8.4536903937007875
20
-3.5923976771653541
11
8.4816702362204719
21
-3.5580058661417322
0
LINE
8
BLACK
6
CONTINUOUS
10
8.4816702362204719
20
-3.5580058661417322
11
8.5084595669291332
21
-3.5226787795275589
0
LINE
8
BLACK
6
CONTINUOUS
10
8.5084595669291332
20
-3.5226787795275589
11
8.5340272047244099
21
-3.4864577165354329
0
LINE
8
BLACK
6
CONTINUOUS
10
8.5340272047244099
20
-3.4864577165354329
11
8.5583433070866146
21
-3.4493848425196849
0
LINE
8
BLACK
6
CONTINUOUS
10
8.5583433070866146
20
-3.4493848425196849
11
8.5813795275590543
21
-3.4115034251968503
0
LINE
8
BLACK
6
CONTINUOUS
10
8.5813795275590543
20
-3.4115034251968503
11
8.6031089763779534
21
-3.372857559055118
0
LINE
8
BLACK
6
CONTINUOUS
10
8.6031089763779534
20
-3.372857559055118
11
8.6235063779527561
21
-3.3334924015748029
0
LINE
8
BLACK
6
CONTINUOUS
10
8.6235063779527561
20
-3.3334924015748029
11
8.6425479133858261
21
-3.2934537795275589
0
LINE
8
BLACK
6
CONTINUOUS
10
8.6425479133858261
20
-3.2934537795275589
11
8.6602113779527556
21
-3.2527884251968504
0
LINE
8
BLACK
6
CONTINUOUS
10
8.6602113779527556
20
-3.2527884251968504
11
8.6764761811023625
21
-3.2115437007874017
0
LINE
8
BLACK
6
CONTINUOUS
10
8.6764761811023625
20
-3.2115437007874017
11
8.6913233464566932
21
-3.169767716535433
0
LINE
8
BLACK
6
CONTINUOUS
10
8.6913233464566932
20
-3.169767716535433
11
8.7047355905511807
21
-3.127509212598425
0
LINE
8
BLACK
6
CONTINUOUS
10
8.7047355905511807
20
-3.127509212598425
11
8.7166972834645673
21
-3.0848174409448816
0
LINE
8
BLACK
6
CONTINUOUS
10
8.7166972834645673
20
-3.0848174409448816
11
8.7271944488188975
21
-3.0417421653543308
0
LINE
8
BLACK
6
CONTINUOUS
10
8.7271944488188975
20
-3.0417421653543308
11
8.7362148425196846
21
-2.9983335826771653
0
LINE
8
BLACK
6
CONTINUOUS
10
8.7362148425196846
20
-2.9983335826771653
11
8.7437479527559052
21
-2.954642401574803
0
LINE
8
BLACK
6
CONTINUOUS
10
8.7437479527559052
20
-2.954642401574803
11
8.749785039370078
21
-2.9107194488188974
0
LINE
8
BLACK
6
CONTINUOUS
10
8.749785039370078
20
-2.9107194488188974
11
8.7543190157480311
21
-2.866616023622047
0
LINE
8
BLACK
6
CONTINUOUS
10
8.7543190157480311
20
-2.866616023622047
11
8.7573446062992115
21
-2.822383503937008
0
LINE
8
BLACK
6
CONTINUOUS
10
8.7573446062992115
20
-2.822383503937008
11
8.7588582677165352
21
-2.7780734645669289
0
LINE
8
BLACK
6
CONTINUOUS
10
8.7588582677165352
20
-2.7780734645669289
11
8.7588582677165352
21
-2.7337375590551178
0
LINE
8
BLACK
6
CONTINUOUS
10
8.7588582677165352
20
-2.7337375590551178
11
8.7573446062992115
21
-2.6894275196850392
0
LINE
8
BLACK
6
CONTINUOUS
10
8.7573446062992115
20
-2.6894275196850392
11
8.7543190157480311
21
-2.6451949999999997
0
LINE
8
BLACK
6
CONTINUOUS
10
8.7543190157480311
20
-2.6451949999999997
11
8.749785039370078
21
-2.6010915748031493
0
LINE
8
BLACK
6
CONTINUOUS
10
8.749785039370078
20
-2.6010915748031493
11
8.7437479527559052
21
-2.5571686220472438
0
LINE
8
BLACK
6
CONTINUOUS
10
8.7437479527559052
20
-2.5571686220472438
11
8.7362148425196846
21
-2.5134774409448819
0
LINE
8
BLACK
6
CONTINUOUS
10
8.7362148425196846
20
-2.5134774409448819
11
8.7271944488188975
21
-2.4700688582677164
0
LINE
8
BLACK
6
CONTINUOUS
10
8.7271944488188975
20
-2.4700688582677164
11
8.7166972834645673
21
-2.4269935826771651
0
LINE
8
BLACK
6
CONTINUOUS
10
8.7166972834645673
20
-2.4269935826771651
11
8.7047355905511807
21
-2.3843018110236218
0
LINE
8
BLACK
6
CONTINUOUS
10
8.7047355905511807
20
-2.3843018110236218
11
8.6913233464566932
21
-2.3420433070866142
0
LINE
8
BLACK
6
CONTINUOUS
10
8.6913233464566932
20
-2.3420433070866142
11
8.6764761811023625
21
-2.3002673228346455
0
LINE
8
BLACK
6
CONTINUOUS
10
8.6764761811023625
20
-2.3002673228346455
11
8.6602113779527556
21
-2.2590225984251968
0
LINE
8
BLACK
6
CONTINUOUS
10
8.6602113779527556
20
-2.2590225984251968
11
8.6425479133858261
21
-2.2183572440944883
0
LINE
8
BLACK
6
CONTINUOUS
10
8.6425479133858261
20
-2.2183572440944883
11
8.6235063779527561
21
-2.1783186220472439
0
LINE
8
BLACK
6
CONTINUOUS
10
8.6235063779527561
20
-2.1783186220472439
11
8.6031089763779534
21
-2.1389534645669293
0
LINE
8
BLACK
6
CONTINUOUS
10
8.6031089763779534
20
-2.1389534645669293
11
8.5813795275590543
21
-2.1003075984251969
0
LINE
8
BLACK
6
CONTINUOUS
10
8.5813795275590543
20
-2.1003075984251969
11
8.5583433070866146
21
-2.0624261811023623
0
LINE
8
BLACK
6
CONTINUOUS
10
8.5583433070866146
20
-2.0624261811023623
11
8.5340272047244099
21
-2.0253533070866143
0
LINE
8
BLACK
6
CONTINUOUS
10
8.5340272047244099
20
-2.0253533070866143
11
8.5084595669291332
21
-1.9891322440944881
0
LINE
8
BLACK
6
CONTINUOUS
10
8.5084595669291332
20
-1.9891322440944881
11
8.4816702362204719
21
-1.953805157480315
0
LINE
8
BLACK
6
CONTINUOUS
10
8.4816702362204719
20
-1.953805157480315
11
8.4536903937007875
21
-1.9194133464566929
0
LINE
8
BLACK
6
CONTINUOUS
10
8.4536903937007875
20
-1.9194133464566929
11
8.4245526771653534
21
-1.885996811023622
0
LINE
8
BLACK
6
CONTINUOUS
10
8.4245526771653534
20
-1.885996811023622
11
8.3942911023622049
21
-1.8535945275590551
0
LINE
8
BLACK
6
CONTINUOUS
10
8.3942911023622049
20
-1.8535945275590551
11
8.3629409055118114
21
-1.8222443307086613
0
LINE
8
BLACK
6
CONTINUOUS
10
8.3629409055118114
20
-1.8222443307086613
11
8.3305386220472446
21
-1.7919827559055117
0
LINE
8
BLACK
6
CONTINUOUS
10
8.3305386220472446
20
-1.7919827559055117
11
8.2971220866141735
21
-1.7628450393700787
0
LINE
8
BLACK
6
CONTINUOUS
10
8.2971220866141735
20
-1.7628450393700787
11
8.2627302755905507
21
-1.7348651968503936
0
LINE
8
BLACK
6
CONTINUOUS
10
8.2627302755905507
20
-1.7348651968503936
11
8.2274031889763783
21
-1.7080758661417323
0
LINE
8
BLACK
6
CONTINUOUS
10
8.2274031889763783
20
-1.7080758661417323
11
8.1911821259842519
21
-1.6825082283464567
0
LINE
8
BLACK
6
CONTINUOUS
10
8.1911821259842519
20
-1.6825082283464567
11
8.154109251968503
21
-1.658192125984252
0
LINE
8
BLACK
6
CONTINUOUS
10
8.154109251968503
20
-1.658192125984252
11
8.1162278346456684
21
-1.635155905511811
0
LINE
8
BLACK
6
CONTINUOUS
10
8.1162278346456684
20
-1.635155905511811
11
8.0775819685039369
21
-1.6134264566929133
0
LINE
8
BLACK
6
CONTINUOUS
10
8.0775819685039369
20
-1.6134264566929133
11
8.0382168110236218
21
-1.5930290551181101
0
LINE
8
BLACK
6
CONTINUOUS
10
8.0382168110236218
20
-1.5930290551181101
11
7.9981781889763779
21
-1.5739875196850392
0
LINE
8
BLACK
6
CONTINUOUS
10
7.9981781889763779
20
-1.5739875196850392
11
7.9575128346456694
21
-1.5563240551181101
0
LINE
8
BLACK
6
CONTINUOUS
10
7.9575128346456694
20
-1.5563240551181101
11
7.9162681102362207
21
-1.5400592519685039
0
LINE
8
BLACK
6
CONTINUOUS
10
7.9162681102362207
20
-1.5400592519685039
11
7.8744921259842515
21
-1.5252120866141732
0
LINE
8
BLACK
6
CONTINUOUS
10
7.8744921259842515
20
-1.5252120866141732
11
7.8322336220472435
21
-1.511799842519685
0
LINE
8
BLACK
6
CONTINUOUS
10
7.8322336220472435
20
-1.511799842519685
11
7.7895418503937002
21
-1.4998381496062991
0
LINE
8
BLACK
6
CONTINUOUS
10
7.7895418503937002
20
-1.4998381496062991
11
7.7464665748031498
21
-1.4893409842519685
0
LINE
8
BLACK
6
CONTINUOUS
10
7.7464665748031498
20
-1.4893409842519685
11
7.7030579921259843
21
-1.4803205905511811
0
LINE
8
BLACK
6
CONTINUOUS
10
7.7030579921259843
20
-1.4803205905511811
11
7.6593668110236219
21
-1.4727874803149605
0
LINE
8
BLACK
6
CONTINUOUS
10
7.6593668110236219
20
-1.4727874803149605
11
7.6154438582677164
21
-1.4667503937007873
0
LINE
8
BLACK
6
CONTINUOUS
10
7.6154438582677164
20
-1.4667503937007873
11
7.5713404330708656
21
-1.4622164173228347
0
LINE
8
BLACK
6
CONTINUOUS
10
7.5713404330708656
20
-1.4622164173228347
11
7.5271079133858265
21
-1.4591908267716536
0
LINE
8
BLACK
6
CONTINUOUS
10
7.5271079133858265
20
-1.4591908267716536
11
7.4827978740157475
21
-1.4576771653543308
0
LINE
8
BLACK
6
CONTINUOUS
10
7.4827978740157475
20
-1.4576771653543308
11
7.4384619685039368
21
-1.4576771653543308
0
LINE
8
BLACK
6
CONTINUOUS
10
7.4384619685039368
20
-1.4576771653543308
11
7.3941519291338578
21
-1.4591908267716536
0
LINE
8
BLACK
6
CONTINUOUS
10
7.3941519291338578
20
-1.4591908267716536
11
7.3499194094488187
21
-1.4622164173228347
0
LINE
8
BLACK
6
CONTINUOUS
10
7.3499194094488187
20
-1.4622164173228347
11
7.3058159842519688
21
-1.4667503937007873
0
LINE
8
BLACK
6
CONTINUOUS
10
7.3058159842519688
20
-1.4667503937007873
11
7.2618930314960632
21
-1.4727874803149605
0
LINE
8
BLACK
6
CONTINUOUS
10
7.2618930314960632
20
-1.4727874803149605
11
7.2182018503937009
21
-1.4803205905511811
0
LINE
8
BLACK
6
CONTINUOUS
10
7.2182018503937009
20
-1.4803205905511811
11
7.1747932677165354
21
-1.4893409842519685
0
LINE
8
BLACK
6
CONTINUOUS
10
7.1747932677165354
20
-1.4893409842519685
11
7.1317179921259841
21
-1.4998381496062991
0
LINE
8
BLACK
6
CONTINUOUS
10
7.1317179921259841
20
-1.4998381496062991
11
7.0890262204724408
21
-1.511799842519685
0
LINE
8
BLACK
6
CONTINUOUS
10
7.0890262204724408
20
-1.511799842519685
11
7.0467677165354328
21
-1.5252120866141732
0
LINE
8
BLACK
6
CONTINUOUS
10
7.0467677165354328
20
-1.5252120866141732
11
7.0049917322834645
21
-1.5400592519685039
0
LINE
8
BLACK
6
CONTINUOUS
10
7.0049917322834645
20
-1.5400592519685039
11
6.9637470078740158
21
-1.5563240551181101
0
LINE
8
BLACK
6
CONTINUOUS
10
6.9637470078740158
20
-1.5563240551181101
11
6.9230816535433073
21
-1.5739875196850392
0
LINE
8
BLACK
6
CONTINUOUS
10
6.9230816535433073
20
-1.5739875196850392
11
6.8830430314960624
21
-1.5930290551181101
0
LINE
8
BLACK
6
CONTINUOUS
10
6.8830430314960624
20
-1.5930290551181101
11
6.8436778740157482
21
-1.6134264566929133
0
LINE
8
BLACK
6
CONTINUOUS
10
6.8436778740157482
20
-1.6134264566929133
11
6.8050320078740159
21
-1.635155905511811
0
LINE
8
BLACK
6
CONTINUOUS
10
6.8050320078740159
20
-1.635155905511811
11
6.7671505905511813
21
-1.658192125984252
0
LINE
8
BLACK
6
CONTINUOUS
10
6.7671505905511813
20
-1.658192125984252
11
6.7300777165354333
21
-1.6825082283464567
0
LINE
8
BLACK
6
CONTINUOUS
10
6.7300777165354333
20
-1.6825082283464567
11
6.6938566535433068
21
-1.7080758661417323
0
LINE
8
BLACK
6
CONTINUOUS
10
6.6938566535433068
20
-1.7080758661417323
11
6.6585295669291336
21
-1.7348651968503936
0
LINE
8
BLACK
6
CONTINUOUS
10
6.6585295669291336
20
-1.7348651968503936
11
6.6241377559055117
21
-1.7628450393700787
0
LINE
8
BLACK
6
CONTINUOUS
10
6.6241377559055117
20
-1.7628450393700787
11
6.5907212204724406
21
-1.7919827559055117
0
LINE
8
BLACK
6
CONTINUOUS
10
6.5907212204724406
20
-1.7919827559055117
11
6.5583189370078738
21
-1.8222443307086613
0
LINE
8
BLACK
6
CONTINUOUS
10
6.5583189370078738
20
-1.8222443307086613
11
6.5269687401574803
21
-1.8535945275590551
0
LINE
8
BLACK
6
CONTINUOUS
10
6.5269687401574803
20
-1.8535945275590551
11
6.4967071653543309
21
-1.885996811023622
0
LINE
8
BLACK
6
CONTINUOUS
10
6.4967071653543309
20
-1.885996811023622
11
6.4675694488188977
21
-1.9194133464566929
0
LINE
8
BLACK
6
CONTINUOUS
10
6.4675694488188977
20
-1.9194133464566929
11
6.4395896062992124
21
-1.953805157480315
0
LINE
8
BLACK
6
CONTINUOUS
10
6.4395896062992124
20
-1.953805157480315
11
6.4128002755905511
21
-1.9891322440944881
0
LINE
8
BLACK
6
CONTINUOUS
10
6.4128002755905511
20
-1.9891322440944881
11
6.3872326377952753
21
-2.0253533070866143
0
LINE
8
BLACK
6
CONTINUOUS
10
6.3872326377952753
20
-2.0253533070866143
11
6.3629165354330706
21
-2.0624261811023623
0
LINE
8
BLACK
6
CONTINUOUS
10
6.3629165354330706
20
-2.0624261811023623
11
6.33988031496063
21
-2.1003075984251969
0
LINE
8
BLACK
6
CONTINUOUS
10
6.33988031496063
20
-2.1003075984251969
11
6.3181508661417318
21
-2.1389534645669293
0
LINE
8
BLACK
6
CONTINUOUS
10
6.3181508661417318
20
-2.1389534645669293
11
6.2977534645669291
21
-2.1783186220472439
0
LINE
8
BLACK
6
CONTINUOUS
10
6.2977534645669291
20
-2.1783186220472439
11
6.2787119291338582
21
-2.2183572440944883
0
LINE
8
BLACK
6
CONTINUOUS
10
6.2787119291338582
20
-2.2183572440944883
11
6.2610484645669287
21
-2.2590225984251968
0
LINE
8
BLACK
6
CONTINUOUS
10
6.2610484645669287
20
-2.2590225984251968
11
6.2447836614173227
21
-2.3002673228346455
0
LINE
8
BLACK
6
CONTINUOUS
10
6.2447836614173227
20
-2.3002673228346455
11
6.2299364960629919
21
-2.3420433070866142
0
LINE
8
BLACK
6
CONTINUOUS
10
6.2299364960629919
20
-2.3420433070866142
11
6.2165242519685036
21
-2.3843018110236218
0
LINE
8
BLACK
6
CONTINUOUS
10
6.2165242519685036
20
-2.3843018110236218
11
6.2045625590551179
21
-2.4269935826771651
0
LINE
8
BLACK
6
CONTINUOUS
10
6.2045625590551179
20
-2.4269935826771651
11
6.1940653937007877
21
-2.4700688582677164
0
LINE
8
BLACK
6
CONTINUOUS
10
6.1940653937007877
20
-2.4700688582677164
11
6.1850449999999997
21
-2.5134774409448819
0
LINE
8
BLACK
6
CONTINUOUS
10
6.1850449999999997
20
-2.5134774409448819
11
6.1775118897637791
21
-2.5571686220472438
0
LINE
8
BLACK
6
CONTINUOUS
10
6.1775118897637791
20
-2.5571686220472438
11
6.1714748031496063
21
-2.6010915748031493
0
LINE
8
BLACK
6
CONTINUOUS
10
6.1714748031496063
20
-2.6010915748031493
11
6.1669408267716532
21
-2.6451949999999997
0
LINE
8
BLACK
6
CONTINUOUS
10
6.1669408267716532
20
-2.6451949999999997
11
6.1639152362204719
21
-2.6894275196850392
0
LINE
8
BLACK
6
CONTINUOUS
10
6.1639152362204719
20
-2.6894275196850392
11
6.1624015748031491
21
-2.7337375590551178
0
LINE
8
BLACK
6
CONTINUOUS
10
6.1624015748031491
20
-2.7337375590551178
11
6.1624015748031491
21
-2.7780734645669289
0
CIRCLE
8
BLACK
10
8.2692913385826774
20
-2.9527559055118111
40
0.0068897637795276
0
CIRCLE
8
BLACK
10
8.1692913385826778
20
-2.9527559055118111
40
0.0068897637795276
0
CIRCLE
8
BLACK
10
8.0692913385826763
20
-2.9527559055118111
40
0.0068897637795276
0
CIRCLE
8
BLACK
10
8.4858267716535423
20
-2.5787401574803148
40
0.0068897637795276
0
CIRCLE
8
BLACK
10
8.3858267716535426
20
-2.5787401574803148
40
0.0068897637795276
0
CIRCLE
8
BLACK
10
8.285826771653543
20
-2.5787401574803148
40
0.0068897637795276
0
CIRCLE
8
BLACK
10
8.1858267716535433
20
-2.5787401574803148
40
0.0068897637795276
0
CIRCLE
8
BLACK
10
8.4744094488188981
20
-3.1692913385826773
40
0.0068897637795276
0
CIRCLE
8
BLACK
10
8.3759842519685037
20
-3.1692913385826773
40
0.0068897637795276
0
CIRCLE
8
BLACK
10
8.3283464566929126
20
-2.0866141732283463
40
0.0068897637795276
0
CIRCLE
8
BLACK
10
8.228346456692913
20
-2.0866141732283463
40
0.0068897637795276
0
CIRCLE
8
BLACK
10
8.1283464566929133
20
-2.0866141732283463
40
0.0068897637795276
0
CIRCLE
8
BLACK
10
8.3169291338582667
20
-3.4055118110236218
40
0.0068897637795276
0
CIRCLE
8
BLACK
10
8.2185039370078741
20
-3.4055118110236218
40
0.0068897637795276
0
CIRCLE
8
BLACK
10
6.8110236220472435
20
-1.889763779527559
40
0.0068897637795276
0
CIRCLE
8
BLACK
10
6.8110236220472435
20
-2.0866141732283463
40
0.0068897637795276
0
CIRCLE
8
BLACK
10
8.4960629921259834
20
-2.795275590551181
40
0.0068897637795276
0
CIRCLE
8
BLACK
10
8.4960629921259834
20
-2.8937007874015745
40
0.0068897637795276
0
CIRCLE
8
BLACK
10
6.9862204724409445
20
-2.5822834645669293
40
0.0068897637795276
0
CIRCLE
8
BLACK
10
6.9862204724409445
20
-3.282283464566929
40
0.0068897637795276
0
CIRCLE
8
BLACK
10
7.8862204724409448
20
-3.282283464566929
40
0.0068897637795276
0
CIRCLE
8
BLACK
10
7.8862204724409448
20
-3.3822834645669291
40
0.0068897637795276
0
CIRCLE
8
BLACK
10
6.9862204724409445
20
-1.9822834645669292
40
0.0068897637795276
0
CIRCLE
8
BLACK
10
6.9862204724409445
20
-2.282283464566929
40
0.0068897637795276
0
CIRCLE
8
BLACK
10
6.9862204724409445
20
-2.3822834645669291
40
0.0068897637795276
0
CIRCLE
8
BLACK
10
6.9862204724409445
20
-2.4822834645669292
40
0.0068897637795276
0
CIRCLE
8
BLACK
10
6.9862204724409445
20
-2.6822834645669289
40
0.0068897637795276
0
CIRCLE
8
BLACK
10
6.9862204724409445
20
-2.782283464566929
40
0.0068897637795276
0
CIRCLE
8
BLACK
10
6.9862204724409445
20
-2.8822834645669291
40
0.0068897637795276
0
CIRCLE
8
BLACK
10
6.9862204724409445
20
-2.9822834645669292
40
0.0068897637795276
0
CIRCLE
8
BLACK
10
6.9862204724409445
20
-3.0822834645669293
40
0.0068897637795276
0
CIRCLE
8
BLACK
10
6.9862204724409445
20
-3.1822834645669289
40
0.0068897637795276
0
CIRCLE
8
BLACK
10
7.8862204724409448
20
-3.1822834645669289
40
0.0068897637795276
0
CIRCLE
8
BLACK
10
7.8862204724409448
20
-3.0822834645669293
40
0.0068897637795276
0
CIRCLE
8
BLACK
10
7.8862204724409448
20
-2.9822834645669292
40
0.0068897637795276
0
CIRCLE
8
BLACK
10
7.8862204724409448
20
-2.8822834645669291
40
0.0068897637795276
0
CIRCLE
8
BLACK
10
7.8862204724409448
20
-2.782283464566929
40
0.0068897637795276
0
CIRCLE
8
BLACK
10
7.8862204724409448
20
-2.6822834645669289
40
0.0068897637795276
0
CIRCLE
8
BLACK
10
7.8862204724409448
20
-2.5822834645669293
40
0.0068897637795276
0
CIRCLE
8
BLACK
10
7.8862204724409448
20
-2.4822834645669292
40
0.0068897637795276
0
CIRCLE
8
BLACK
10
7.8862204724409448
20
-2.3822834645669291
40
0.0068897637795276
0
CIRCLE
8
BLACK
10
7.8862204724409448
20
-2.282283464566929
40
0.0068897637795276
0
CIRCLE
8
BLACK
10
7.8862204724409448
20
-2.1822834645669289
40
0.0068897637795276
0
CIRCLE
8
BLACK
10
7.8862204724409448
20
-2.0822834645669293
40
0.0068897637795276
0
CIRCLE
8
BLACK
10
7.8862204724409448
20
-1.9822834645669292
40
0.0068897637795276
0
CIRCLE
8
BLACK
10
6.9862204724409445
20
-3.3822834645669291
40
0.0068897637795276
0
CIRCLE
8
BLACK
10
6.9862204724409445
20
-2.1822834645669289
40
0.0068897637795276
0
CIRCLE
8
BLACK
10
6.9862204724409445
20
-2.0822834645669293
40
0.0068897637795276
0
CIRCLE
8
BLACK
10
7.1741141732283467
20
-3.6555118110236218
40
0.0068897637795276
0
CIRCLE
8
BLACK
10
7.1741141732283467
20
-3.5555118110236221
40
0.0068897637795276
0
CIRCLE
8
BLACK
10
7.1741141732283467
20
-3.455511811023622
40
0.0068897637795276
0
CIRCLE
8
BLACK
10
7.1741141732283467
20
-3.3555118110236219
40
0.0068897637795276
0
CIRCLE
8
BLACK
10
7.1741141732283467
20
-3.2555118110236219
40
0.0068897637795276
0
CIRCLE
8
BLACK
10
7.1741141732283467
20
-3.1555118110236218
40
0.0068897637795276
0
CIRCLE
8
BLACK
10
7.1802165354330709
20
-2.9803149606299213
40
0.0068897637795276
0
CIRCLE
8
BLACK
10
7.1802165354330709
20
-2.8803149606299212
40
0.0068897637795276
0
CIRCLE
8
BLACK
10
7.1802165354330709
20
-2.7803149606299211
40
0.0068897637795276
0
CIRCLE
8
BLACK
10
7.1802165354330709
20
-2.680314960629921
40
0.0068897637795276
0
CIRCLE
8
BLACK
10
7.1802165354330709
20
-2.5803149606299214
40
0.0068897637795276
0
CIRCLE
8
BLACK
10
7.1802165354330709
20
-2.4803149606299213
40
0.0068897637795276
0
CIRCLE
8
BLACK
10
7.1802165354330709
20
-2.3803149606299212
40
0.0068897637795276
0
CIRCLE
8
BLACK
10
7.1802165354330709
20
-2.2803149606299211
40
0.0068897637795276
0
CIRCLE
8
BLACK
10
7.1802165354330709
20
-2.180314960629921
40
0.0068897637795276
0
CIRCLE
8
BLACK
10
7.1802165354330709
20
-2.0803149606299214
40
0.0068897637795276
0
CIRCLE
8
BLACK
10
7.1802165354330709
20
-1.9803149606299213
40
0.0068897637795276
0
CIRCLE
8
BLACK
10
8.2692913385826774
20
-2.9527559055118111
40
0.0068897637795276
0
CIRCLE
8
BLACK
10
8.1692913385826778
20
-2.9527559055118111
40
0.0068897637795276
0
CIRCLE
8
BLACK
10
8.0692913385826763
20
-2.9527559055118111
40
0.0068897637795276
0
CIRCLE
8
BLACK
10
8.4858267716535423
20
-2.5787401574803148
40
0.0068897637795276
0
CIRCLE
8
BLACK
10
8.3858267716535426
20
-2.5787401574803148
40
0.0068897637795276
0
CIRCLE
8
BLACK
10
8.285826771653543
20
-2.5787401574803148
40
0.0068897637795276
0
CIRCLE
8
BLACK
10
8.1858267716535433
20
-2.5787401574803148
40
0.0068897637795276
0
CIRCLE
8
BLACK
10
8.4744094488188981
20
-3.1692913385826773
40
0.0068897637795276
0
CIRCLE
8
BLACK
10
8.3759842519685037
20
-3.1692913385826773
40
0.0068897637795276
0
CIRCLE
8
BLACK
10
8.3283464566929126
20
-2.0866141732283463
40
0.0068897637795276
0
CIRCLE
8
BLACK
10
8.228346456692913
20
-2.0866141732283463
40
0.0068897637795276
0
CIRCLE
8
BLACK
10
8.1283464566929133
20
-2.0866141732283463
40
0.0068897637795276
0
CIRCLE
8
BLACK
10
8.3169291338582667
20
-3.4055118110236218
40
0.0068897637795276
0
CIRCLE
8
BLACK
10
8.2185039370078741
20
-3.4055118110236218
40
0.0068897637795276
0
CIRCLE
8
BLACK
10
6.8110236220472435
20
-1.889763779527559
40
0.0068897637795276
0
CIRCLE
8
BLACK
10
6.8110236220472435
20
-2.0866141732283463
40
0.0068897637795276
0
CIRCLE
8
BLACK
10
8.4960629921259834
20
-2.795275590551181
40
0.0068897637795276
0
CIRCLE
8
BLACK
10
8.4960629921259834
20
-2.8937007874015745
40
0.0068897637795276
0
CIRCLE
8
BLACK
10
6.9862204724409445
20
-2.5822834645669293
40
0.0068897637795276
0
CIRCLE
8
BLACK
10
6.9862204724409445
20
-3.282283464566929
40
0.0068897637795276
0
CIRCLE
8
BLACK
10
7.8862204724409448
20
-3.282283464566929
40
0.0068897637795276
0
CIRCLE
8
BLACK
10
7.8862204724409448
20
-3.3822834645669291
40
0.0068897637795276
0
CIRCLE
8
BLACK
10
6.9862204724409445
20
-1.9822834645669292
40
0.0068897637795276
0
CIRCLE
8
BLACK
10
6.9862204724409445
20
-2.282283464566929
40
0.0068897637795276
0
CIRCLE
8
BLACK
10
6.9862204724409445
20
-2.3822834645669291
40
0.0068897637795276
0
CIRCLE
8
BLACK
10
6.9862204724409445
20
-2.4822834645669292
40
0.0068897637795276
0
CIRCLE
8
BLACK
10
6.9862204724409445
20
-2.6822834645669289
40
0.0068897637795276
0
CIRCLE
8
BLACK
10
6.9862204724409445
20
-2.782283464566929
40
0.0068897637795276
0
CIRCLE
8
BLACK
10
6.9862204724409445
20
-2.8822834645669291
40
0.0068897637795276
0
CIRCLE
8
BLACK
10
6.9862204724409445
20
-2.9822834645669292
40
0.0068897637795276
0
CIRCLE
8
BLACK
10
6.9862204724409445
20
-3.0822834645669293
40
0.0068897637795276
0
CIRCLE
8
BLACK
10
6.9862204724409445
20
-3.1822834645669289
40
0.0068897637795276
0
CIRCLE
8
BLACK
10
7.8862204724409448
20
-3.1822834645669289
40
0.0068897637795276
0
CIRCLE
8
BLACK
10
7.8862204724409448
20
-3.0822834645669293
40
0.0068897637795276
0
CIRCLE
8
BLACK
10
7.8862204724409448
20
-2.9822834645669292
40
0.0068897637795276
0
CIRCLE
8
BLACK
10
7.8862204724409448
20
-2.8822834645669291
40
0.0068897637795276
0
CIRCLE
8
BLACK
10
7.8862204724409448
20
-2.782283464566929
40
0.0068897637795276
0
CIRCLE
8
BLACK
10
7.8862204724409448
20
-2.6822834645669289
40
0.0068897637795276
0
CIRCLE
8
BLACK
10
7.8862204724409448
20
-2.5822834645669293
40
0.0068897637795276
0
CIRCLE
8
BLACK
10
7.8862204724409448
20
-2.4822834645669292
40
0.0068897637795276
0
CIRCLE
8
BLACK
10
7.8862204724409448
20
-2.3822834645669291
40
0.0068897637795276
0
CIRCLE
8
BLACK
10
7.8862204724409448
20
-2.282283464566929
40
0.0068897637795276
0
CIRCLE
8
BLACK
10
7.8862204724409448
20
-2.1822834645669289
40
0.0068897637795276
0
CIRCLE
8
BLACK
10
7.8862204724409448
20
-2.0822834645669293
40
0.0068897637795276
0
CIRCLE
8
BLACK
10
7.8862204724409448
20
-1.9822834645669292
40
0.0068897637795276
0
CIRCLE
8
BLACK
10
6.9862204724409445
20
-3.3822834645669291
40
0.0068897637795276
0
CIRCLE
8
BLACK
10
6.9862204724409445
20
-2.1822834645669289
40
0.0068897637795276
0
CIRCLE
8
BLACK
10
6.9862204724409445
20
-2.0822834645669293
40
0.0068897637795276
0
CIRCLE
8
BLACK
10
7.1741141732283467
20
-3.6555118110236218
40
0.0068897637795276
0
CIRCLE
8
BLACK
10
7.1741141732283467
20
-3.5555118110236221
40
0.0068897637795276
0
CIRCLE
8
BLACK
10
7.1741141732283467
20
-3.455511811023622
40
0.0068897637795276
0
CIRCLE
8
BLACK
10
7.1741141732283467
20
-3.3555118110236219
40
0.0068897637795276
0
CIRCLE
8
BLACK
10
7.1741141732283467
20
-3.2555118110236219
40
0.0068897637795276
0
CIRCLE
8
BLACK
10
7.1741141732283467
20
-3.1555118110236218
40
0.0068897637795276
0
CIRCLE
8
BLACK
10
7.1802165354330709
20
-2.9803149606299213
40
0.0068897637795276
0
CIRCLE
8
BLACK
10
7.1802165354330709
20
-2.8803149606299212
40
0.0068897637795276
0
CIRCLE
8
BLACK
10
7.1802165354330709
20
-2.7803149606299211
40
0.0068897637795276
0
CIRCLE
8
BLACK
10
7.1802165354330709
20
-2.680314960629921
40
0.0068897637795276
0
CIRCLE
8
BLACK
10
7.1802165354330709
20
-2.5803149606299214
40
0.0068897637795276
0
CIRCLE
8
BLACK
10
7.1802165354330709
20
-2.4803149606299213
40
0.0068897637795276
0
CIRCLE
8
BLACK
10
7.1802165354330709
20
-2.3803149606299212
40
0.0068897637795276
0
CIRCLE
8
BLACK
10
7.1802165354330709
20
-2.2803149606299211
40
0.0068897637795276
0
CIRCLE
8
BLACK
10
7.1802165354330709
20
-2.180314960629921
40
0.0068897637795276
0
CIRCLE
8
BLACK
10
7.1802165354330709
20
-2.0803149606299214
40
0.0068897637795276
0
CIRCLE
8
BLACK
10
7.1802165354330709
20
-1.9803149606299213
40
0.0068897637795276
  0
ENDSEC
  0
EOF
