<?xml version="1.0" standalone="no"?>
 <!DOCTYPE svg PUBLIC "-//W3C//DTD SVG 1.1//EN" 
 "http://www.w3.org/Graphics/SVG/1.1/DTD/svg11.dtd"> 
<svg
  xmlns:svg="http://www.w3.org/2000/svg"
  xmlns="http://www.w3.org/2000/svg"
  xmlns:xlink="http://www.w3.org/1999/xlink"
  version="1.1"
  width="297.0022mm" height="210.0072mm" viewBox="0.0000 0.0000 297.0022 210.0072">
<title>SVG Image created as CanSat_2026-B_Cu.svg date 2026/04/21 12:09:52 </title>
  <desc>Image generated by PCBNEW </desc>
<g style="fill:#000000; fill-opacity:1.0000;stroke:#000000; stroke-opacity:1.0000;
stroke-linecap:round; stroke-linejoin:round;"
 transform="translate(0 0) scale(1 1)">
</g>
<g style="fill:none; 
stroke:#000000; stroke-width:2.0000; stroke-opacity:1; 
stroke-linecap:round; stroke-linejoin:round;">
<circle cx="189.5000" cy="70.0000" r="31.5000" /> 
<path style="fill:#000000; fill-opacity:1.0000; 
stroke:#000000; stroke-width:0.2000; stroke-opacity:1; 
stroke-linecap:round; stroke-linejoin:round;fill-rule:evenodd;"
d="M 220.5000,76.0000
218.0000,83.5000
215.5000,88.0000
212.5000,91.5000
209.0000,94.5000
200.5000,99.5000
189.5000,101.5000
181.5000,101.0000
168.5000,93.5000
200.0000,93.5000
203.5000,90.0000
210.5000,89.0000
210.5000,86.5000
212.5000,86.0000
215.0000,84.5000
215.0000,81.0000
216.0000,80.0000
216.0000,73.5000
221.0000,73.5000
Z" /> 
</g>
<g style="fill:none; 
stroke:#000000; stroke-width:33.0000; stroke-opacity:1; 
stroke-linecap:round; stroke-linejoin:round;">
<circle cx="189.5000" cy="70.0000" r="50.0000" /> 
<path style="fill:#000000; fill-opacity:1.0000; stroke:none;fill-rule:evenodd;"
d="M 204.0075,76.0000
204.0075,74.0000
205.9125,74.0000
205.9125,76.0000
Z" /> 
</g>
<g style="fill:none; 
stroke:#000000; stroke-width:1.9050; stroke-opacity:1; 
stroke-linecap:round; stroke-linejoin:round;">
<path d="M207.5000 74.9525
L207.5000 75.0475
" />
<path d="M210.0400 74.9525
L210.0400 75.0475
" />
</g>
<g style="fill:#000000; fill-opacity:1.0000; stroke:none;">
<circle cx="215.2500" cy="80.5000" r="0.8000" /> 
</g>
<g style="fill:#000000; fill-opacity:1.0000; stroke:none;">
<circle cx="212.7500" cy="80.5000" r="0.8000" /> 
<path style="fill:#000000; fill-opacity:1.0000; stroke:none;fill-rule:evenodd;"
d="M 210.6900,52.1500
212.3900,52.1500
212.3900,53.8500
210.6900,53.8500
Z" /> 
</g>
<g style="fill:#000000; fill-opacity:1.0000; stroke:none;">
<circle cx="209.0000" cy="53.0000" r="0.8500" /> 
</g>
<g style="fill:#000000; fill-opacity:1.0000; stroke:none;">
<circle cx="206.4600" cy="53.0000" r="0.8500" /> 
<path style="fill:#000000; fill-opacity:1.0000; stroke:none;fill-rule:evenodd;"
d="M 205.6500,63.0400
205.6500,61.3400
207.3500,61.3400
207.3500,63.0400
Z" /> 
</g>
<g style="fill:#000000; fill-opacity:1.0000; stroke:none;">
<circle cx="206.5000" cy="64.7300" r="0.8500" /> 
</g>
<g style="fill:#000000; fill-opacity:1.0000; stroke:none;">
<circle cx="206.5000" cy="67.2700" r="0.8500" /> 
</g>
<g style="fill:#000000; fill-opacity:1.0000; stroke:none;">
<circle cx="206.5000" cy="69.8100" r="0.8500" /> 
</g>
<g style="fill:#000000; fill-opacity:1.0000; stroke:none;">
<circle cx="211.2500" cy="86.5000" r="0.8000" /> 
</g>
<g style="fill:#000000; fill-opacity:1.0000; stroke:none;">
<circle cx="208.7500" cy="86.5000" r="0.8000" /> 
<path style="fill:#000000; fill-opacity:1.0000; stroke:none;fill-rule:evenodd;"
d="M 214.0500,62.1500
214.1457,62.1690
214.2268,62.2232
214.2810,62.3043
214.3000,62.4000
214.3000,63.6000
214.2810,63.6957
214.2268,63.7768
214.1457,63.8310
214.0500,63.8500
212.5500,63.8500
212.4543,63.8310
212.3732,63.7768
212.3190,63.6957
212.3000,63.6000
212.3000,62.4000
212.3190,62.3043
212.3732,62.2232
212.4543,62.1690
212.5500,62.1500
Z" /> 
</g>
<g style="fill:none; 
stroke:#000000; stroke-width:1.7000; stroke-opacity:1; 
stroke-linecap:round; stroke-linejoin:round;">
<path d="M213.4500 65.5000
L213.1500 65.5000
" />
</g>
<g style="fill:#000000; fill-opacity:1.0000; stroke:none;">
<circle cx="177.4500" cy="65.5900" r="0.7500" /> 
</g>
<g style="fill:#000000; fill-opacity:1.0000; stroke:none;">
<circle cx="177.4500" cy="83.3700" r="0.7500" /> 
</g>
<g style="fill:#000000; fill-opacity:1.0000; stroke:none;">
<circle cx="200.3100" cy="83.3700" r="0.7500" /> 
</g>
<g style="fill:#000000; fill-opacity:1.0000; stroke:none;">
<circle cx="200.3100" cy="85.9100" r="0.7500" /> 
<path style="fill:#000000; fill-opacity:1.0000; stroke:none;fill-rule:evenodd;"
d="M 176.7000,51.1000
176.7000,49.6000
178.2000,49.6000
178.2000,51.1000
Z" /> 
</g>
<g style="fill:#000000; fill-opacity:1.0000; stroke:none;">
<circle cx="177.4500" cy="57.9700" r="0.7500" /> 
</g>
<g style="fill:#000000; fill-opacity:1.0000; stroke:none;">
<circle cx="177.4500" cy="60.5100" r="0.7500" /> 
</g>
<g style="fill:#000000; fill-opacity:1.0000; stroke:none;">
<circle cx="177.4500" cy="63.0500" r="0.7500" /> 
</g>
<g style="fill:#000000; fill-opacity:1.0000; stroke:none;">
<circle cx="177.4500" cy="68.1300" r="0.7500" /> 
</g>
<g style="fill:#000000; fill-opacity:1.0000; stroke:none;">
<circle cx="177.4500" cy="70.6700" r="0.7500" /> 
</g>
<g style="fill:#000000; fill-opacity:1.0000; stroke:none;">
<circle cx="177.4500" cy="73.2100" r="0.7500" /> 
</g>
<g style="fill:#000000; fill-opacity:1.0000; stroke:none;">
<circle cx="177.4500" cy="75.7500" r="0.7500" /> 
</g>
<g style="fill:#000000; fill-opacity:1.0000; stroke:none;">
<circle cx="177.4500" cy="78.2900" r="0.7500" /> 
</g>
<g style="fill:#000000; fill-opacity:1.0000; stroke:none;">
<circle cx="177.4500" cy="80.8300" r="0.7500" /> 
</g>
<g style="fill:#000000; fill-opacity:1.0000; stroke:none;">
<circle cx="200.3100" cy="80.8300" r="0.7500" /> 
</g>
<g style="fill:#000000; fill-opacity:1.0000; stroke:none;">
<circle cx="200.3100" cy="78.2900" r="0.7500" /> 
</g>
<g style="fill:#000000; fill-opacity:1.0000; stroke:none;">
<circle cx="200.3100" cy="75.7500" r="0.7500" /> 
</g>
<g style="fill:#000000; fill-opacity:1.0000; stroke:none;">
<circle cx="200.3100" cy="73.2100" r="0.7500" /> 
</g>
<g style="fill:#000000; fill-opacity:1.0000; stroke:none;">
<circle cx="200.3100" cy="70.6700" r="0.7500" /> 
</g>
<g style="fill:#000000; fill-opacity:1.0000; stroke:none;">
<circle cx="200.3100" cy="68.1300" r="0.7500" /> 
</g>
<g style="fill:#000000; fill-opacity:1.0000; stroke:none;">
<circle cx="200.3100" cy="65.5900" r="0.7500" /> 
</g>
<g style="fill:#000000; fill-opacity:1.0000; stroke:none;">
<circle cx="200.3100" cy="63.0500" r="0.7500" /> 
</g>
<g style="fill:#000000; fill-opacity:1.0000; stroke:none;">
<circle cx="200.3100" cy="60.5100" r="0.7500" /> 
</g>
<g style="fill:#000000; fill-opacity:1.0000; stroke:none;">
<circle cx="200.3100" cy="57.9700" r="0.7500" /> 
</g>
<g style="fill:#000000; fill-opacity:1.0000; stroke:none;">
<circle cx="200.3100" cy="55.4300" r="0.7500" /> 
</g>
<g style="fill:#000000; fill-opacity:1.0000; stroke:none;">
<circle cx="200.3100" cy="52.8900" r="0.7500" /> 
</g>
<g style="fill:#000000; fill-opacity:1.0000; stroke:none;">
<circle cx="200.3100" cy="50.3500" r="0.7500" /> 
</g>
<g style="fill:#000000; fill-opacity:1.0000; stroke:none;">
<circle cx="177.4500" cy="85.9100" r="0.7500" /> 
</g>
<g style="fill:#000000; fill-opacity:1.0000; stroke:none;">
<circle cx="177.4500" cy="55.4300" r="0.7500" /> 
</g>
<g style="fill:#000000; fill-opacity:1.0000; stroke:none;">
<circle cx="177.4500" cy="52.8900" r="0.7500" /> 
<path style="fill:#000000; fill-opacity:1.0000; stroke:none;fill-rule:evenodd;"
d="M 165.3500,58.1100
165.3500,59.8100
163.6500,59.8100
163.6500,58.1100
Z" /> 
</g>
<g style="fill:#000000; fill-opacity:1.0000; stroke:none;">
<circle cx="164.5000" cy="61.5000" r="0.8500" /> 
</g>
<g style="fill:#000000; fill-opacity:1.0000; stroke:none;">
<circle cx="164.5000" cy="64.0400" r="0.8500" /> 
</g>
<g style="fill:#000000; fill-opacity:1.0000; stroke:none;">
<circle cx="164.5000" cy="66.5800" r="0.8500" /> 
</g>
<g style="fill:#000000; fill-opacity:1.0000; stroke:none;">
<circle cx="164.5000" cy="69.1200" r="0.8500" /> 
</g>
<g style="fill:#000000; fill-opacity:1.0000; stroke:none;">
<circle cx="164.5000" cy="71.6600" r="0.8500" /> 
</g>
<g style="fill:#000000; fill-opacity:1.0000; stroke:none;">
<circle cx="216.0000" cy="53.5000" r="0.3000" /> 
</g>
<g style="fill:#000000; fill-opacity:1.0000; stroke:none;">
<circle cx="182.0000" cy="95.5000" r="1.0000" /> 
</g>
<g style="fill:#000000; fill-opacity:1.0000; stroke:none;">
<circle cx="197.0000" cy="95.5000" r="1.0000" /> 
</g>
<g style="fill:#000000; fill-opacity:1.0000; stroke:none;">
<circle cx="218.5500" cy="70.0000" r="1.5500" /> 
</g>
<g style="fill:#000000; fill-opacity:1.0000; stroke:none;">
<circle cx="160.5000" cy="70.0000" r="1.5500" /> 
</g>
<g style="fill:#000000; fill-opacity:1.0000; stroke:none;">
<circle cx="192.0000" cy="40.0000" r="0.3000" /> 
</g>
<g style="fill:#000000; fill-opacity:1.0000; stroke:none;">
<circle cx="169.4600" cy="82.5400" r="1.2500" /> 
</g>
<g style="fill:#000000; fill-opacity:1.0000; stroke:none;">
<circle cx="202.0000" cy="48.0000" r="1.0000" /> 
</g>
<g style="fill:#000000; fill-opacity:1.0000; stroke:none;">
<circle cx="205.0000" cy="46.0000" r="1.0000" /> 
</g>
<g style="fill:none; 
stroke:#000000; stroke-width:2.0000; stroke-opacity:1; 
stroke-linecap:round; stroke-linejoin:round;">
<path d="M215.8000 73.5000
L215.8000 79.9500
" />
<path d="M204.9600 71.3500
L204.9600 75.0000
" />
<path d="M213.3000 65.5000
L213.3000 67.2000
" />
</g>
<g style="fill:none; 
stroke:#000000; stroke-width:1.0000; stroke-opacity:1; 
stroke-linecap:round; stroke-linejoin:round;">
<path d="M200.3100 83.3700
L200.1800 83.5000
" />
</g>
<g style="fill:none; 
stroke:#000000; stroke-width:2.0000; stroke-opacity:1; 
stroke-linecap:round; stroke-linejoin:round;">
<path d="M210.6900 69.8100
L206.5000 69.8100
" />
</g>
<g style="fill:none; 
stroke:#000000; stroke-width:4.0000; stroke-opacity:1; 
stroke-linecap:round; stroke-linejoin:round;">
<path d="M195.5000 82.5000
L195.5000 44.2500
" />
</g>
<g style="fill:none; 
stroke:#000000; stroke-width:2.0000; stroke-opacity:1; 
stroke-linecap:round; stroke-linejoin:round;">
<path d="M195.5000 82.5000
L185.2400 82.5000
" />
</g>
<g style="fill:none; 
stroke:#000000; stroke-width:1.0000; stroke-opacity:1; 
stroke-linecap:round; stroke-linejoin:round;">
<path d="M215.5000 53.0000
L216.0000 53.5000
" />
</g>
<g style="fill:none; 
stroke:#000000; stroke-width:2.0000; stroke-opacity:1; 
stroke-linecap:round; stroke-linejoin:round;">
<path d="M191.1250 39.8750
L189.8750 38.6250
" />
<path d="M204.9600 79.5000
L204.9600 75.0000
" />
</g>
<g style="fill:none; 
stroke:#000000; stroke-width:1.5000; stroke-opacity:1; 
stroke-linecap:round; stroke-linejoin:round;">
<path d="M215.8000 79.9500
L215.2500 80.5000
" />
</g>
<g style="fill:none; 
stroke:#000000; stroke-width:2.0000; stroke-opacity:1; 
stroke-linecap:round; stroke-linejoin:round;">
<path d="M185.2400 82.5000
L184.3700 83.3700
" />
</g>
<g style="fill:none; 
stroke:#000000; stroke-width:1.5000; stroke-opacity:1; 
stroke-linecap:round; stroke-linejoin:round;">
<path d="M196.5000 83.5000
L195.5000 82.5000
" />
</g>
<g style="fill:none; 
stroke:#000000; stroke-width:1.6000; stroke-opacity:1; 
stroke-linecap:round; stroke-linejoin:round;">
<path d="M215.2500 84.2500
L216.7500 85.7500
" />
</g>
<g style="fill:none; 
stroke:#000000; stroke-width:4.0000; stroke-opacity:1; 
stroke-linecap:round; stroke-linejoin:round;">
<path d="M195.5000 44.2500
L191.1250 39.8750
" />
</g>
<g style="fill:none; 
stroke:#000000; stroke-width:1.6000; stroke-opacity:1; 
stroke-linecap:round; stroke-linejoin:round;">
<path d="M213.0000 86.5000
L215.2500 84.2500
" />
</g>
<g style="fill:none; 
stroke:#000000; stroke-width:1.7000; stroke-opacity:1; 
stroke-linecap:round; stroke-linejoin:round;">
<path d="M212.5000 53.0000
L215.5000 53.0000
" />
</g>
<g style="fill:none; 
stroke:#000000; stroke-width:1.6000; stroke-opacity:1; 
stroke-linecap:round; stroke-linejoin:round;">
<path d="M211.2500 86.5000
L213.0000 86.5000
" />
</g>
<g style="fill:none; 
stroke:#000000; stroke-width:2.0000; stroke-opacity:1; 
stroke-linecap:round; stroke-linejoin:round;">
<path d="M184.3700 83.3700
L177.4500 83.3700
" />
<path d="M213.3000 67.2000
L210.6900 69.8100
" />
</g>
<g style="fill:none; 
stroke:#000000; stroke-width:1.5000; stroke-opacity:1; 
stroke-linecap:round; stroke-linejoin:round;">
<path d="M189.8750 38.6250
L189.5000 38.2500
" />
</g>
<g style="fill:none; 
stroke:#000000; stroke-width:2.0000; stroke-opacity:1; 
stroke-linecap:round; stroke-linejoin:round;">
<path d="M204.9600 79.5000
L200.9600 83.5000
" />
<path d="M206.5000 69.8100
L204.9600 71.3500
" />
<path d="M200.1800 83.5000
L196.5000 83.5000
" />
<path d="M215.2500 84.2500
L215.2500 80.5000
" />
<path d="M200.9600 83.5000
L200.4400 83.5000
" />
<path d="M215.8000 73.5000
L220.5000 73.5000
" />
<path d="M204.0000 86.5000
L203.4100 85.9100
" />
<path d="M204.0000 86.5000
L208.7500 86.5000
" />
<path d="M169.4600 82.5400
L171.0000 84.0800
" />
<path d="M208.7500 83.2500
L208.7500 86.5000
" />
<path d="M172.5000 91.0000
L197.5000 91.0000
" />
<path d="M203.4100 85.9100
L200.3100 85.9100
" />
<path d="M171.0000 84.0800
L171.0000 89.5000
" />
<path d="M207.5000 82.0000
L208.7500 83.2500
" />
</g>
<g style="fill:none; 
stroke:#000000; stroke-width:1.5000; stroke-opacity:1; 
stroke-linecap:round; stroke-linejoin:round;">
<path d="M200.4000 86.0000
L200.3100 85.9100
" />
</g>
<g style="fill:none; 
stroke:#000000; stroke-width:2.0000; stroke-opacity:1; 
stroke-linecap:round; stroke-linejoin:round;">
<path d="M207.5000 75.0000
L207.5000 82.0000
" />
<path d="M200.3100 88.1900
L200.3100 85.9100
" />
<path d="M171.0000 89.5000
L172.5000 91.0000
" />
<path d="M197.5000 91.0000
L200.3100 88.1900
" />
<path d="M202.5000 48.5000
L202.5000 50.2000
" />
<path d="M202.0000 48.0000
L202.5000 48.5000
" />
</g>
<g style="fill:none; 
stroke:#000000; stroke-width:1.4000; stroke-opacity:1; 
stroke-linecap:round; stroke-linejoin:round;">
<path d="M202.5000 50.2000
L202.5000 50.7000
" />
<path d="M202.5000 50.7000
L200.3100 52.8900
" />
<path d="M200.9500 63.0500
L200.3100 63.0500
" />
<path d="M206.4600 57.5400
L200.9500 63.0500
" />
</g>
<g style="fill:none; 
stroke:#000000; stroke-width:1.5000; stroke-opacity:1; 
stroke-linecap:round; stroke-linejoin:round;">
<path d="M206.2300 67.0000
L206.5000 67.2700
" />
<path d="M202.0000 67.0000
L206.2300 67.0000
" />
<path d="M200.8700 68.1300
L202.0000 67.0000
" />
<path d="M200.3100 68.1300
L200.8700 68.1300
" />
</g>
<g style="fill:none; 
stroke:#000000; stroke-width:1.4000; stroke-opacity:1; 
stroke-linecap:round; stroke-linejoin:round;">
<path d="M206.4600 53.0000
L206.4600 57.5400
" />
</g>
<g style="fill:none; 
stroke:#000000; stroke-width:1.3000; stroke-opacity:1; 
stroke-linecap:round; stroke-linejoin:round;">
<path d="M205.0000 50.5000
L204.5000 51.0000
" />
<path d="M204.5000 51.0000
L204.5000 56.5000
" />
<path d="M204.5000 56.5000
L202.6800 58.3200
" />
<path d="M202.6800 58.3200
L202.5000 58.3200
" />
</g>
<g style="fill:none; 
stroke:#000000; stroke-width:2.0000; stroke-opacity:1; 
stroke-linecap:round; stroke-linejoin:round;">
<path d="M205.0000 46.0000
L205.0000 50.5000
" />
</g>
<g style="fill:none; 
stroke:#000000; stroke-width:1.3000; stroke-opacity:1; 
stroke-linecap:round; stroke-linejoin:round;">
<path d="M202.5000 58.3200
L200.3100 60.5100
" />
</g>
<g style="fill:none; 
stroke:#000000; stroke-width:0.2000; stroke-opacity:1; 
stroke-linecap:round; stroke-linejoin:round;">
<path d="M200.3100 60.4400
L200.3100 60.5100
" />
</g>
<g style="fill:none; 
stroke:#000000; stroke-width:2.0000; stroke-opacity:1; 
stroke-linecap:round; stroke-linejoin:round;">
<path d="M209.5000 57.0000
L212.6000 57.0000
" />
<path d="M215.5000 63.0000
L213.3000 63.0000
" />
<path d="M213.3000 57.7000
L213.3000 63.0000
" />
<path d="M216.5000 67.5000
L216.5000 64.0000
" />
<path d="M212.7500 72.7500
L212.7500 80.5000
" />
<path d="M215.5000 68.5000
L216.5000 67.5000
" />
<path d="M209.0000 53.0000
L209.0000 56.5000
" />
<path d="M210.0400 74.9600
L215.5000 69.5000
" />
</g>
<g style="fill:none; 
stroke:#000000; stroke-width:1.0000; stroke-opacity:1; 
stroke-linecap:round; stroke-linejoin:round;">
<path d="M210.0400 75.0000
L210.0400 74.9600
" />
</g>
<g style="fill:none; 
stroke:#000000; stroke-width:2.0000; stroke-opacity:1; 
stroke-linecap:round; stroke-linejoin:round;">
<path d="M209.0000 56.5000
L209.5000 57.0000
" />
<path d="M212.6000 57.0000
L213.3000 57.7000
" />
<path d="M216.5000 64.0000
L215.5000 63.0000
" />
<path d="M209.5000 59.1900
L206.5000 62.1900
" />
<path d="M209.5000 57.0000
L209.5000 59.1900
" />
<path d="M215.5000 69.5000
L215.5000 68.5000
" />
</g>
<g style="fill:none; 
stroke:#000000; stroke-width:1.4000; stroke-opacity:1; 
stroke-linecap:round; stroke-linejoin:round;">
<path d="M200.3100 65.5900
L200.8200 65.5900
" />
<path d="M206.2300 65.0000
L206.5000 64.7300
" />
<path d="M200.8200 65.5900
L201.4100 65.0000
" />
<path d="M201.4100 65.0000
L206.2300 65.0000
" />
</g>
<g style="fill:#FFFFFF; fill-opacity:1.0000; stroke:none;">
<circle cx="216.0000" cy="53.5000" r="0.2500" /> 
</g>
<g style="fill:#FFFFFF; fill-opacity:1.0000; stroke:none;">
<circle cx="182.0000" cy="95.5000" r="0.3000" /> 
</g>
<g style="fill:#FFFFFF; fill-opacity:1.0000; stroke:none;">
<circle cx="197.0000" cy="95.5000" r="0.2500" /> 
</g>
<g style="fill:#FFFFFF; fill-opacity:1.0000; stroke:none;">
<circle cx="218.5500" cy="70.0000" r="0.2500" /> 
</g>
<g style="fill:#FFFFFF; fill-opacity:1.0000; stroke:none;">
<circle cx="160.5000" cy="70.0000" r="0.2500" /> 
</g>
<g style="fill:#FFFFFF; fill-opacity:1.0000; stroke:none;">
<circle cx="192.0000" cy="40.0000" r="0.2500" /> 
</g>
<g style="fill:#FFFFFF; fill-opacity:1.0000; stroke:none;">
<circle cx="169.4600" cy="82.5400" r="0.2500" /> 
</g>
<g style="fill:#FFFFFF; fill-opacity:1.0000; stroke:none;">
<circle cx="202.0000" cy="48.0000" r="0.2500" /> 
</g>
<g style="fill:#FFFFFF; fill-opacity:1.0000; stroke:none;">
<circle cx="205.0000" cy="46.0000" r="0.2500" /> 
</g>
<g style="fill:#FFFFFF; fill-opacity:1.0000; stroke:none;">
<circle cx="204.9600" cy="75.0000" r="0.2500" /> 
</g>
<g style="fill:#FFFFFF; fill-opacity:1.0000; stroke:none;">
<circle cx="207.5000" cy="75.0000" r="0.2500" /> 
</g>
<g style="fill:#FFFFFF; fill-opacity:1.0000; stroke:none;">
<circle cx="210.0400" cy="75.0000" r="0.2500" /> 
</g>
<g style="fill:#FFFFFF; fill-opacity:1.0000; stroke:none;">
<circle cx="215.2500" cy="80.5000" r="0.2500" /> 
</g>
<g style="fill:#FFFFFF; fill-opacity:1.0000; stroke:none;">
<circle cx="212.7500" cy="80.5000" r="0.2500" /> 
</g>
<g style="fill:#FFFFFF; fill-opacity:1.0000; stroke:none;">
<circle cx="211.5400" cy="53.0000" r="0.2500" /> 
</g>
<g style="fill:#FFFFFF; fill-opacity:1.0000; stroke:none;">
<circle cx="209.0000" cy="53.0000" r="0.2500" /> 
</g>
<g style="fill:#FFFFFF; fill-opacity:1.0000; stroke:none;">
<circle cx="206.4600" cy="53.0000" r="0.2500" /> 
</g>
<g style="fill:#FFFFFF; fill-opacity:1.0000; stroke:none;">
<circle cx="206.5000" cy="62.1900" r="0.2500" /> 
</g>
<g style="fill:#FFFFFF; fill-opacity:1.0000; stroke:none;">
<circle cx="206.5000" cy="64.7300" r="0.2500" /> 
</g>
<g style="fill:#FFFFFF; fill-opacity:1.0000; stroke:none;">
<circle cx="206.5000" cy="67.2700" r="0.2500" /> 
</g>
<g style="fill:#FFFFFF; fill-opacity:1.0000; stroke:none;">
<circle cx="206.5000" cy="69.8100" r="0.2500" /> 
</g>
<g style="fill:#FFFFFF; fill-opacity:1.0000; stroke:none;">
<circle cx="211.2500" cy="86.5000" r="0.2500" /> 
</g>
<g style="fill:#FFFFFF; fill-opacity:1.0000; stroke:none;">
<circle cx="208.7500" cy="86.5000" r="0.2500" /> 
</g>
<g style="fill:#FFFFFF; fill-opacity:1.0000; stroke:none;">
<circle cx="213.3000" cy="63.0000" r="0.2500" /> 
</g>
<g style="fill:#FFFFFF; fill-opacity:1.0000; stroke:none;">
<circle cx="213.3000" cy="65.5000" r="0.2500" /> 
</g>
<g style="fill:#FFFFFF; fill-opacity:1.0000; stroke:none;">
<circle cx="177.4500" cy="65.5900" r="0.2500" /> 
</g>
<g style="fill:#FFFFFF; fill-opacity:1.0000; stroke:none;">
<circle cx="177.4500" cy="83.3700" r="0.2500" /> 
</g>
<g style="fill:#FFFFFF; fill-opacity:1.0000; stroke:none;">
<circle cx="200.3100" cy="83.3700" r="0.2500" /> 
</g>
<g style="fill:#FFFFFF; fill-opacity:1.0000; stroke:none;">
<circle cx="200.3100" cy="85.9100" r="0.2500" /> 
</g>
<g style="fill:#FFFFFF; fill-opacity:1.0000; stroke:none;">
<circle cx="177.4500" cy="50.3500" r="0.2500" /> 
</g>
<g style="fill:#FFFFFF; fill-opacity:1.0000; stroke:none;">
<circle cx="177.4500" cy="57.9700" r="0.2500" /> 
</g>
<g style="fill:#FFFFFF; fill-opacity:1.0000; stroke:none;">
<circle cx="177.4500" cy="60.5100" r="0.2500" /> 
</g>
<g style="fill:#FFFFFF; fill-opacity:1.0000; stroke:none;">
<circle cx="177.4500" cy="63.0500" r="0.2500" /> 
</g>
<g style="fill:#FFFFFF; fill-opacity:1.0000; stroke:none;">
<circle cx="177.4500" cy="68.1300" r="0.2500" /> 
</g>
<g style="fill:#FFFFFF; fill-opacity:1.0000; stroke:none;">
<circle cx="177.4500" cy="70.6700" r="0.2500" /> 
</g>
<g style="fill:#FFFFFF; fill-opacity:1.0000; stroke:none;">
<circle cx="177.4500" cy="73.2100" r="0.2500" /> 
</g>
<g style="fill:#FFFFFF; fill-opacity:1.0000; stroke:none;">
<circle cx="177.4500" cy="75.7500" r="0.2500" /> 
</g>
<g style="fill:#FFFFFF; fill-opacity:1.0000; stroke:none;">
<circle cx="177.4500" cy="78.2900" r="0.2500" /> 
</g>
<g style="fill:#FFFFFF; fill-opacity:1.0000; stroke:none;">
<circle cx="177.4500" cy="80.8300" r="0.2500" /> 
</g>
<g style="fill:#FFFFFF; fill-opacity:1.0000; stroke:none;">
<circle cx="200.3100" cy="80.8300" r="0.2500" /> 
</g>
<g style="fill:#FFFFFF; fill-opacity:1.0000; stroke:none;">
<circle cx="200.3100" cy="78.2900" r="0.2500" /> 
</g>
<g style="fill:#FFFFFF; fill-opacity:1.0000; stroke:none;">
<circle cx="200.3100" cy="75.7500" r="0.2500" /> 
</g>
<g style="fill:#FFFFFF; fill-opacity:1.0000; stroke:none;">
<circle cx="200.3100" cy="73.2100" r="0.2500" /> 
</g>
<g style="fill:#FFFFFF; fill-opacity:1.0000; stroke:none;">
<circle cx="200.3100" cy="70.6700" r="0.2500" /> 
</g>
<g style="fill:#FFFFFF; fill-opacity:1.0000; stroke:none;">
<circle cx="200.3100" cy="68.1300" r="0.2500" /> 
</g>
<g style="fill:#FFFFFF; fill-opacity:1.0000; stroke:none;">
<circle cx="200.3100" cy="65.5900" r="0.2500" /> 
</g>
<g style="fill:#FFFFFF; fill-opacity:1.0000; stroke:none;">
<circle cx="200.3100" cy="63.0500" r="0.2500" /> 
</g>
<g style="fill:#FFFFFF; fill-opacity:1.0000; stroke:none;">
<circle cx="200.3100" cy="60.5100" r="0.2500" /> 
</g>
<g style="fill:#FFFFFF; fill-opacity:1.0000; stroke:none;">
<circle cx="200.3100" cy="57.9700" r="0.2500" /> 
</g>
<g style="fill:#FFFFFF; fill-opacity:1.0000; stroke:none;">
<circle cx="200.3100" cy="55.4300" r="0.2500" /> 
</g>
<g style="fill:#FFFFFF; fill-opacity:1.0000; stroke:none;">
<circle cx="200.3100" cy="52.8900" r="0.2500" /> 
</g>
<g style="fill:#FFFFFF; fill-opacity:1.0000; stroke:none;">
<circle cx="200.3100" cy="50.3500" r="0.2500" /> 
</g>
<g style="fill:#FFFFFF; fill-opacity:1.0000; stroke:none;">
<circle cx="177.4500" cy="85.9100" r="0.2500" /> 
</g>
<g style="fill:#FFFFFF; fill-opacity:1.0000; stroke:none;">
<circle cx="177.4500" cy="55.4300" r="0.2500" /> 
</g>
<g style="fill:#FFFFFF; fill-opacity:1.0000; stroke:none;">
<circle cx="177.4500" cy="52.8900" r="0.2500" /> 
</g>
<g style="fill:#FFFFFF; fill-opacity:1.0000; stroke:none;">
<circle cx="164.5000" cy="58.9600" r="0.2500" /> 
</g>
<g style="fill:#FFFFFF; fill-opacity:1.0000; stroke:none;">
<circle cx="164.5000" cy="61.5000" r="0.2500" /> 
</g>
<g style="fill:#FFFFFF; fill-opacity:1.0000; stroke:none;">
<circle cx="164.5000" cy="64.0400" r="0.2500" /> 
</g>
<g style="fill:#FFFFFF; fill-opacity:1.0000; stroke:none;">
<circle cx="164.5000" cy="66.5800" r="0.2500" /> 
</g>
<g style="fill:#FFFFFF; fill-opacity:1.0000; stroke:none;">
<circle cx="164.5000" cy="69.1200" r="0.2500" /> 
</g>
<g style="fill:#FFFFFF; fill-opacity:1.0000; stroke:none;">
<circle cx="164.5000" cy="71.6600" r="0.2500" /> 
</g> 
</svg>
