  0
SECTION
  2
HEADER
  9
$ANGBASE
  50
0.0
  9
$ANGDIR
  70
1
  9
$MEASUREMENT
  70
0
  0
ENDSEC
  0
SECTION
  2
TABLES
  0
TABLE
  2
LTYPE
  70
4
  0
LTYPE
  5
40F
  2
CONTINUOUS
  70
0
  3
Solid line
  72
65
  73
0
  40
0.0
  0
LTYPE
  5
410
  2
DASHDOT
 70
0
  3
Dash Dot ____ _ ____ _
 72
65
 73
4
 40
2.0
 49
1.25
 49
-0.25
 49
0.25
 49
-0.25
  0
LTYPE
  5
411
  2
DASHED
 70
0
  3
Dashed __ __ __ __ __
 72
65
 73
2
 40
0.75
 49
0.5
 49
-0.25
  0
LTYPE
  5
43B
  2
DOTTED
 70
0
  3
Dotted .  .  .  .
 72
65
 73
2
 40
0.2
 49
0.0
 49
-0.2
  0
ENDTAB
  0
TABLE
  2
STYLE
  70
4
  0
STYLE
  2
KICAD
  70
0
  40
0
  41
1
  42
1
  50
0
  71
0
  3
isocp.shx
  0
STYLE
  2
KICADB
  70
0
  40
0
  41
1
  42
1
  50
0
  71
0
  3
isocp.shx
  0
STYLE
  2
KICADI
  70
0
  40
0
  41
1
  42
1
  50
15
  71
0
  3
isocp.shx
  0
STYLE
  2
KICADBI
  70
0
  40
0
  41
1
  42
1
  50
15
  71
0
  3
isocp.shx
  0
ENDTAB
  0
TABLE
  2
LAYER
  70
1
  0
LAYER
  2
BLACK
  70
0
  62
7
  6
CONTINUOUS
  0
ENDTAB
  0
ENDSEC
  0
SECTION
  2
ENTITIES
0
LINE
8
BLACK
6
CONTINUOUS
10
8.1801770078740148
20
-2.9150005511811021
11
8.1869687007874017
21
-2.9178137795275592
0
LINE
8
BLACK
6
CONTINUOUS
10
8.1869687007874017
20
-2.9178137795275592
11
8.1930811023622052
21
-2.9218979527559052
0
LINE
8
BLACK
6
CONTINUOUS
10
8.1930811023622052
20
-2.9218979527559052
11
8.1982792125984254
21
-2.9270960629921259
0
LINE
8
BLACK
6
CONTINUOUS
10
8.1982792125984254
20
-2.9270960629921259
11
8.2023633858267715
21
-2.933208464566929
0
LINE
8
BLACK
6
CONTINUOUS
10
8.2023633858267715
20
-2.933208464566929
11
8.2051766141732276
21
-2.940000157480315
0
LINE
8
BLACK
6
CONTINUOUS
10
8.2051766141732276
20
-2.940000157480315
11
8.2066107480314958
21
-2.9472101968503934
0
LINE
8
BLACK
6
CONTINUOUS
10
8.2066107480314958
20
-2.9472101968503934
11
8.2067913385826774
21
-2.9508858267716533
0
LINE
8
BLACK
6
CONTINUOUS
10
8.2067913385826774
20
-2.9508858267716533
11
8.2067913385826774
21
-2.9546259842519684
0
LINE
8
BLACK
6
CONTINUOUS
10
8.2067913385826774
20
-2.9546259842519684
11
8.2066107480314958
21
-2.9583016141732283
0
LINE
8
BLACK
6
CONTINUOUS
10
8.2066107480314958
20
-2.9583016141732283
11
8.2051766141732276
21
-2.9655116535433068
0
LINE
8
BLACK
6
CONTINUOUS
10
8.2051766141732276
20
-2.9655116535433068
11
8.2023633858267715
21
-2.9723033464566928
0
LINE
8
BLACK
6
CONTINUOUS
10
8.2023633858267715
20
-2.9723033464566928
11
8.1988188976377945
21
-2.9776080314960631
0
LINE
8
BLACK
6
CONTINUOUS
10
8.1988188976377945
20
-2.9776080314960631
11
8.1988188976377945
21
-3.2161157480314961
0
LINE
8
BLACK
6
CONTINUOUS
10
8.1988188976377945
20
-3.2161157480314961
11
8.2393830708661415
21
-3.2566799212598423
0
LINE
8
BLACK
6
CONTINUOUS
10
8.2393830708661415
20
-3.2566799212598423
11
8.2413290551181095
21
-3.258826968503937
0
LINE
8
BLACK
6
CONTINUOUS
10
8.2413290551181095
20
-3.258826968503937
11
8.244544921259843
21
-3.2636398425196851
0
LINE
8
BLACK
6
CONTINUOUS
10
8.244544921259843
20
-3.2636398425196851
11
8.244544921259843
21
-3.2636398818897638
0
LINE
8
BLACK
6
CONTINUOUS
10
8.244544921259843
20
-3.2636398818897638
11
8.2467600787401576
21
-3.2689876771653541
0
LINE
8
BLACK
6
CONTINUOUS
10
8.2467600787401576
20
-3.2689876771653541
11
8.2476540944881886
21
-3.2734821653543307
0
LINE
8
BLACK
6
CONTINUOUS
10
8.2476540944881886
20
-3.2734821653543307
11
8.2478893307086611
21
-3.2746648425196851
0
LINE
8
BLACK
6
CONTINUOUS
10
8.2478893307086611
20
-3.2746648425196851
11
8.2480314960629926
21
-3.2775590551181102
0
LINE
8
BLACK
6
CONTINUOUS
10
8.2480314960629926
20
-3.2775590551181102
11
8.2480314960629926
21
-3.3948907874015748
0
LINE
8
BLACK
6
CONTINUOUS
10
8.2480314960629926
20
-3.3948907874015748
11
8.2486437795275585
21
-3.3963689763779525
0
LINE
8
BLACK
6
CONTINUOUS
10
8.2486437795275585
20
-3.3963689763779525
11
8.2498483464566927
21
-3.4024246456692913
0
LINE
8
BLACK
6
CONTINUOUS
10
8.2498483464566927
20
-3.4024246456692913
11
8.2498483464566927
21
-3.4085989763779527
0
LINE
8
BLACK
6
CONTINUOUS
10
8.2498483464566927
20
-3.4085989763779527
11
8.2486437795275585
21
-3.4146546456692914
0
LINE
8
BLACK
6
CONTINUOUS
10
8.2486437795275585
20
-3.4146546456692914
11
8.2462809842519675
21
-3.4203589370078737
0
LINE
8
BLACK
6
CONTINUOUS
10
8.2462809842519675
20
-3.4203589370078737
11
8.2428507086614164
21
-3.425492716535433
0
LINE
8
BLACK
6
CONTINUOUS
10
8.2428507086614164
20
-3.425492716535433
11
8.2384848425196857
21
-3.4298585826771655
0
LINE
8
BLACK
6
CONTINUOUS
10
8.2384848425196857
20
-3.4298585826771655
11
8.233351062992126
21
-3.4332888582677166
0
LINE
8
BLACK
6
CONTINUOUS
10
8.233351062992126
20
-3.4332888582677166
11
8.2276467716535429
21
-3.435651653543307
0
LINE
8
BLACK
6
CONTINUOUS
10
8.2276467716535429
20
-3.435651653543307
11
8.2215911023622041
21
-3.4368562204724409
0
LINE
8
BLACK
6
CONTINUOUS
10
8.2215911023622041
20
-3.4368562204724409
11
8.215416771653544
21
-3.4368562204724409
0
LINE
8
BLACK
6
CONTINUOUS
10
8.215416771653544
20
-3.4368562204724409
11
8.2093611023622053
21
-3.435651653543307
0
LINE
8
BLACK
6
CONTINUOUS
10
8.2093611023622053
20
-3.435651653543307
11
8.2036568110236221
21
-3.4332888582677166
0
LINE
8
BLACK
6
CONTINUOUS
10
8.2036568110236221
20
-3.4332888582677166
11
8.1985230314960624
21
-3.4298585826771655
0
LINE
8
BLACK
6
CONTINUOUS
10
8.1985230314960624
20
-3.4298585826771655
11
8.1941571653543299
21
-3.425492716535433
0
LINE
8
BLACK
6
CONTINUOUS
10
8.1941571653543299
20
-3.425492716535433
11
8.1907268897637788
21
-3.4203589370078737
0
LINE
8
BLACK
6
CONTINUOUS
10
8.1907268897637788
20
-3.4203589370078737
11
8.1883640944881879
21
-3.4146546456692914
0
LINE
8
BLACK
6
CONTINUOUS
10
8.1883640944881879
20
-3.4146546456692914
11
8.1871595275590554
21
-3.4085989763779527
0
LINE
8
BLACK
6
CONTINUOUS
10
8.1871595275590554
20
-3.4085989763779527
11
8.1871595275590554
21
-3.4024246456692913
0
LINE
8
BLACK
6
CONTINUOUS
10
8.1871595275590554
20
-3.4024246456692913
11
8.1883640944881879
21
-3.3963689763779525
0
LINE
8
BLACK
6
CONTINUOUS
10
8.1883640944881879
20
-3.3963689763779525
11
8.1889763779527556
21
-3.3948907874015748
0
LINE
8
BLACK
6
CONTINUOUS
10
8.1889763779527556
20
-3.3948907874015748
11
8.1889763779527556
21
-3.2897897637795275
0
LINE
8
BLACK
6
CONTINUOUS
10
8.1889763779527556
20
-3.2897897637795275
11
8.1692913385826778
21
-3.2701047244094488
0
LINE
8
BLACK
6
CONTINUOUS
10
8.1692913385826778
20
-3.2701047244094488
11
8.0326901574803156
21
-3.406705905511811
0
LINE
8
BLACK
6
CONTINUOUS
10
8.0326901574803156
20
-3.406705905511811
11
8.0305431102362199
21
-3.4086518897637794
0
LINE
8
BLACK
6
CONTINUOUS
10
8.0305431102362199
20
-3.4086518897637794
11
8.0257302362204719
21
-3.4118677559055119
0
LINE
8
BLACK
6
CONTINUOUS
10
8.0257302362204719
20
-3.4118677559055119
11
8.0235150787401572
21
-3.4127852755905512
0
LINE
8
BLACK
6
CONTINUOUS
10
8.0235150787401572
20
-3.4127852755905512
11
8.0203824015748033
21
-3.4140829133858266
0
LINE
8
BLACK
6
CONTINUOUS
10
8.0203824015748033
20
-3.4140829133858266
11
8.0147052362204718
21
-3.4152121653543306
0
LINE
8
BLACK
6
CONTINUOUS
10
8.0147052362204718
20
-3.4152121653543306
11
8.0118110236220463
21
-3.4153543307086611
0
LINE
8
BLACK
6
CONTINUOUS
10
8.0118110236220463
20
-3.4153543307086611
11
7.8897637795275593
21
-3.4153543307086611
0
LINE
8
BLACK
6
CONTINUOUS
10
7.8897637795275593
20
-3.4153543307086611
11
7.8868695669291338
21
-3.4152121653543306
0
LINE
8
BLACK
6
CONTINUOUS
10
7.8868695669291338
20
-3.4152121653543306
11
7.8811923622047244
21
-3.4140828740157478
0
LINE
8
BLACK
6
CONTINUOUS
10
7.8811923622047244
20
-3.4140828740157478
11
7.8758445669291337
21
-3.4118677559055119
0
LINE
8
BLACK
6
CONTINUOUS
10
7.8758445669291337
20
-3.4118677559055119
11
7.8757596456692909
21
-3.4118110236220471
0
LINE
8
BLACK
6
CONTINUOUS
10
7.8757596456692909
20
-3.4118110236220471
11
7.6539370078740152
21
-3.4118110236220471
0
LINE
8
BLACK
6
CONTINUOUS
10
7.6539370078740152
20
-3.4118110236220471
11
7.6510427952755906
21
-3.4116688582677166
0
LINE
8
BLACK
6
CONTINUOUS
10
7.6510427952755906
20
-3.4116688582677166
11
7.64536562992126
21
-3.4105396062992126
0
LINE
8
BLACK
6
CONTINUOUS
10
7.64536562992126
20
-3.4105396062992126
11
7.6422329527559052
21
-3.4092419685039368
0
LINE
8
BLACK
6
CONTINUOUS
10
7.6422329527559052
20
-3.4092419685039368
11
7.6400177952755906
21
-3.4083244488188975
0
LINE
8
BLACK
6
CONTINUOUS
10
7.6400177952755906
20
-3.4083244488188975
11
7.6352049212598425
21
-3.4051085826771654
0
LINE
8
BLACK
6
CONTINUOUS
10
7.6352049212598425
20
-3.4051085826771654
11
7.6330578740157478
21
-3.403162598425197
0
LINE
8
BLACK
6
CONTINUOUS
10
7.6330578740157478
20
-3.403162598425197
11
7.5775460629921261
21
-3.3476507874015748
0
LINE
8
BLACK
6
CONTINUOUS
10
7.5775460629921261
20
-3.3476507874015748
11
7.5756000787401572
21
-3.3455037401574801
0
LINE
8
BLACK
6
CONTINUOUS
10
7.5756000787401572
20
-3.3455037401574801
11
7.5750671653543309
21
-3.344706181102362
0
LINE
8
BLACK
6
CONTINUOUS
10
7.5750671653543309
20
-3.344706181102362
11
7.5723842125984246
21
-3.3406908661417321
0
LINE
8
BLACK
6
CONTINUOUS
10
7.5723842125984246
20
-3.3406908661417321
11
7.570818149606299
21
-3.3369100393700788
0
LINE
8
BLACK
6
CONTINUOUS
10
7.570818149606299
20
-3.3369100393700788
11
7.57016905511811
21
-3.335343031496063
0
LINE
8
BLACK
6
CONTINUOUS
10
7.57016905511811
20
-3.335343031496063
11
7.5690398031496064
21
-3.329665866141732
0
LINE
8
BLACK
6
CONTINUOUS
10
7.5690398031496064
20
-3.329665866141732
11
7.568897637795275
21
-3.326771653543307
0
LINE
8
BLACK
6
CONTINUOUS
10
7.568897637795275
20
-3.326771653543307
11
7.568897637795275
21
-3.0708661417322833
0
LINE
8
BLACK
6
CONTINUOUS
10
7.568897637795275
20
-3.0708661417322833
11
7.5690398031496064
21
-3.0679719291338583
0
LINE
8
BLACK
6
CONTINUOUS
10
7.5690398031496064
20
-3.0679719291338583
11
7.5701690944881888
21
-3.0622947244094489
0
LINE
8
BLACK
6
CONTINUOUS
10
7.5701690944881888
20
-3.0622947244094489
11
7.5723842125984246
21
-3.0569469291338582
0
LINE
8
BLACK
6
CONTINUOUS
10
7.5723842125984246
20
-3.0569469291338582
11
7.5756000787401572
21
-3.0521340551181102
0
LINE
8
BLACK
6
CONTINUOUS
10
7.5756000787401572
20
-3.0521340551181102
11
7.5796931102362199
21
-3.048041023622047
0
LINE
8
BLACK
6
CONTINUOUS
10
7.5796931102362199
20
-3.048041023622047
11
7.584505984251968
21
-3.0448251574803149
0
LINE
8
BLACK
6
CONTINUOUS
10
7.584505984251968
20
-3.0448251574803149
11
7.5898537795275587
21
-3.0426100393700786
0
LINE
8
BLACK
6
CONTINUOUS
10
7.5898537795275587
20
-3.0426100393700786
11
7.595530984251968
21
-3.0414807480314958
0
LINE
8
BLACK
6
CONTINUOUS
10
7.595530984251968
20
-3.0414807480314958
11
7.601319409448819
21
-3.0414807480314958
0
LINE
8
BLACK
6
CONTINUOUS
10
7.601319409448819
20
-3.0414807480314958
11
7.6069966141732284
21
-3.0426100393700786
0
LINE
8
BLACK
6
CONTINUOUS
10
7.6069966141732284
20
-3.0426100393700786
11
7.6123444094488191
21
-3.0448251574803149
0
LINE
8
BLACK
6
CONTINUOUS
10
7.6123444094488191
20
-3.0448251574803149
11
7.6171572834645671
21
-3.048041023622047
0
LINE
8
BLACK
6
CONTINUOUS
10
7.6171572834645671
20
-3.048041023622047
11
7.6212503149606299
21
-3.0521340551181102
0
LINE
8
BLACK
6
CONTINUOUS
10
7.6212503149606299
20
-3.0521340551181102
11
7.6244661811023624
21
-3.0569469291338582
0
LINE
8
BLACK
6
CONTINUOUS
10
7.6244661811023624
20
-3.0569469291338582
11
7.6266812992125983
21
-3.0622947244094489
0
LINE
8
BLACK
6
CONTINUOUS
10
7.6266812992125983
20
-3.0622947244094489
11
7.6278105905511806
21
-3.0679719291338583
0
LINE
8
BLACK
6
CONTINUOUS
10
7.6278105905511806
20
-3.0679719291338583
11
7.627952755905512
21
-3.0708661417322833
0
LINE
8
BLACK
6
CONTINUOUS
10
7.627952755905512
20
-3.0708661417322833
11
7.627952755905512
21
-3.3145409448818897
0
LINE
8
BLACK
6
CONTINUOUS
10
7.627952755905512
20
-3.3145409448818897
11
7.6661677165354325
21
-3.352755905511811
0
LINE
8
BLACK
6
CONTINUOUS
10
7.6661677165354325
20
-3.352755905511811
11
7.8862204724409448
21
-3.352755905511811
0
LINE
8
BLACK
6
CONTINUOUS
10
7.8862204724409448
20
-3.352755905511811
11
7.8891146850393703
21
-3.3528980708661416
0
LINE
8
BLACK
6
CONTINUOUS
10
7.8891146850393703
20
-3.3528980708661416
11
7.8947918503937009
21
-3.3540273228346456
0
LINE
8
BLACK
6
CONTINUOUS
10
7.8947918503937009
20
-3.3540273228346456
11
7.8979245275590548
21
-3.3553249212598426
0
LINE
8
BLACK
6
CONTINUOUS
10
7.8979245275590548
20
-3.3553249212598426
11
7.9001396850393695
21
-3.3562424803149606
0
LINE
8
BLACK
6
CONTINUOUS
10
7.9001396850393695
20
-3.3562424803149606
11
7.9002246062992123
21
-3.356299212598425
0
LINE
8
BLACK
6
CONTINUOUS
10
7.9002246062992123
20
-3.356299212598425
11
7.9995803149606299
21
-3.356299212598425
0
LINE
8
BLACK
6
CONTINUOUS
10
7.9995803149606299
20
-3.356299212598425
11
8.1397637795275593
21
-3.2161157480314961
0
LINE
8
BLACK
6
CONTINUOUS
10
8.1397637795275593
20
-3.2161157480314961
11
8.1397637795275593
21
-2.9776080314960631
0
LINE
8
BLACK
6
CONTINUOUS
10
8.1397637795275593
20
-2.9776080314960631
11
8.1362192913385822
21
-2.9723033464566928
0
LINE
8
BLACK
6
CONTINUOUS
10
8.1362192913385822
20
-2.9723033464566928
11
8.1334060629921261
21
-2.9655116535433068
0
LINE
8
BLACK
6
CONTINUOUS
10
8.1334060629921261
20
-2.9655116535433068
11
8.1319719291338579
21
-2.9583016141732283
0
LINE
8
BLACK
6
CONTINUOUS
10
8.1319719291338579
20
-2.9583016141732283
11
8.1317913385826763
21
-2.9546259842519684
0
LINE
8
BLACK
6
CONTINUOUS
10
8.1317913385826763
20
-2.9546259842519684
11
8.1317913385826763
21
-2.9508858267716533
0
LINE
8
BLACK
6
CONTINUOUS
10
8.1317913385826763
20
-2.9508858267716533
11
8.1319719291338579
21
-2.9472101968503934
0
LINE
8
BLACK
6
CONTINUOUS
10
8.1319719291338579
20
-2.9472101968503934
11
8.1334060629921261
21
-2.940000157480315
0
LINE
8
BLACK
6
CONTINUOUS
10
8.1334060629921261
20
-2.940000157480315
11
8.1362192913385822
21
-2.933208464566929
0
LINE
8
BLACK
6
CONTINUOUS
10
8.1362192913385822
20
-2.933208464566929
11
8.1403034645669283
21
-2.9270960629921259
0
LINE
8
BLACK
6
CONTINUOUS
10
8.1403034645669283
20
-2.9270960629921259
11
8.1455015748031503
21
-2.9218979527559052
0
LINE
8
BLACK
6
CONTINUOUS
10
8.1455015748031503
20
-2.9218979527559052
11
8.151613976377952
21
-2.9178137795275592
0
LINE
8
BLACK
6
CONTINUOUS
10
8.151613976377952
20
-2.9178137795275592
11
8.1584056692913389
21
-2.9150005511811021
0
LINE
8
BLACK
6
CONTINUOUS
10
8.1584056692913389
20
-2.9150005511811021
11
8.1656157086614165
21
-2.9135664173228344
0
LINE
8
BLACK
6
CONTINUOUS
10
8.1656157086614165
20
-2.9135664173228344
11
8.1729669685039372
21
-2.9135664173228344
0
LINE
8
BLACK
6
CONTINUOUS
10
8.1729669685039372
20
-2.9135664173228344
11
8.1801770078740148
21
-2.9150005511811021
0
LINE
8
BLACK
6
CONTINUOUS
10
8.2397749999999998
20
-2.0489393700787399
11
8.2469053937007875
21
-2.0518928740157478
0
LINE
8
BLACK
6
CONTINUOUS
10
8.2469053937007875
20
-2.0518928740157478
11
8.2533225590551176
21
-2.0561807086614174
0
LINE
8
BLACK
6
CONTINUOUS
10
8.2533225590551176
20
-2.0561807086614174
11
8.2587799212598423
21
-2.0616380708661417
0
LINE
8
BLACK
6
CONTINUOUS
10
8.2587799212598423
20
-2.0616380708661417
11
8.2630677559055119
21
-2.0680552362204723
0
LINE
8
BLACK
6
CONTINUOUS
10
8.2630677559055119
20
-2.0680552362204723
11
8.2660212598425193
21
-2.0751856299212599
0
LINE
8
BLACK
6
CONTINUOUS
10
8.2660212598425193
20
-2.0751856299212599
11
8.2675269685039368
21
-2.0827552362204722
0
LINE
8
BLACK
6
CONTINUOUS
10
8.2675269685039368
20
-2.0827552362204722
11
8.2677165354330704
21
-2.0866141732283463
0
LINE
8
BLACK
6
CONTINUOUS
10
8.2677165354330704
20
-2.0866141732283463
11
8.2677165354330704
21
-2.204724409448819
0
LINE
8
BLACK
6
CONTINUOUS
10
8.2677165354330704
20
-2.204724409448819
11
8.4251968503937
21
-2.204724409448819
0
LINE
8
BLACK
6
CONTINUOUS
10
8.4251968503937
20
-2.204724409448819
11
8.429055787401575
21
-2.2049139763779526
0
LINE
8
BLACK
6
CONTINUOUS
10
8.429055787401575
20
-2.2049139763779526
11
8.4366253937007869
21
-2.20641968503937
0
LINE
8
BLACK
6
CONTINUOUS
10
8.4366253937007869
20
-2.20641968503937
11
8.4437557874015745
21
-2.2093731889763779
0
LINE
8
BLACK
6
CONTINUOUS
10
8.4437557874015745
20
-2.2093731889763779
11
8.4443928346456687
21
-2.2097988582677166
0
LINE
8
BLACK
6
CONTINUOUS
10
8.4443928346456687
20
-2.2097988582677166
11
8.4501729921259834
21
-2.2136609842519683
0
LINE
8
BLACK
6
CONTINUOUS
10
8.4501729921259834
20
-2.2136609842519683
11
8.4530357086614174
21
-2.2162556299212599
0
LINE
8
BLACK
6
CONTINUOUS
10
8.4530357086614174
20
-2.2162556299212599
11
8.5120908267716526
21
-2.275310748031496
0
LINE
8
BLACK
6
CONTINUOUS
10
8.5120908267716526
20
-2.275310748031496
11
8.5146854330708663
21
-2.2781734645669292
0
LINE
8
BLACK
6
CONTINUOUS
10
8.5146854330708663
20
-2.2781734645669292
11
8.5159152362204722
21
-2.2800140157480313
0
LINE
8
BLACK
6
CONTINUOUS
10
8.5159152362204722
20
-2.2800140157480313
11
8.518973267716536
21
-2.2845906692913385
0
LINE
8
BLACK
6
CONTINUOUS
10
8.518973267716536
20
-2.2845906692913385
11
8.5219267716535434
21
-2.2917210629921261
0
LINE
8
BLACK
6
CONTINUOUS
10
8.5219267716535434
20
-2.2917210629921261
11
8.5234324803149608
21
-2.2992906692913384
0
LINE
8
BLACK
6
CONTINUOUS
10
8.5234324803149608
20
-2.2992906692913384
11
8.5236220472440944
21
-2.3031496062992125
0
LINE
8
BLACK
6
CONTINUOUS
10
8.5236220472440944
20
-2.3031496062992125
11
8.5236220472440944
21
-2.3726414960629922
0
LINE
8
BLACK
6
CONTINUOUS
10
8.5236220472440944
20
-2.3726414960629922
11
8.525007283464566
21
-2.3796056299212598
0
LINE
8
BLACK
6
CONTINUOUS
10
8.525007283464566
20
-2.3796056299212598
11
8.525007283464566
21
-2.387323503937008
0
LINE
8
BLACK
6
CONTINUOUS
10
8.525007283464566
20
-2.387323503937008
11
8.5235016141732274
21
-2.3948931102362203
0
LINE
8
BLACK
6
CONTINUOUS
10
8.5235016141732274
20
-2.3948931102362203
11
8.5205481102362199
21
-2.4020235039370079
0
LINE
8
BLACK
6
CONTINUOUS
10
8.5205481102362199
20
-2.4020235039370079
11
8.5192913385826774
21
-2.4039043700787399
0
LINE
8
BLACK
6
CONTINUOUS
10
8.5192913385826774
20
-2.4039043700787399
11
8.5192913385826774
21
-2.545275590551181
0
LINE
8
BLACK
6
CONTINUOUS
10
8.5192913385826774
20
-2.545275590551181
11
8.5192913385826774
21
-2.5648786614173229
0
LINE
8
BLACK
6
CONTINUOUS
10
8.5192913385826774
20
-2.5648786614173229
11
8.5197260236220469
21
-2.5653133858267716
0
LINE
8
BLACK
6
CONTINUOUS
10
8.5197260236220469
20
-2.5653133858267716
11
8.5219314960629919
21
-2.5677466929133859
0
LINE
8
BLACK
6
CONTINUOUS
10
8.5219314960629919
20
-2.5677466929133859
11
8.5243134645669283
21
-2.5713116141732284
0
LINE
8
BLACK
6
CONTINUOUS
10
8.5243134645669283
20
-2.5713116141732284
11
8.525576102362205
21
-2.5732012992125983
0
LINE
8
BLACK
6
CONTINUOUS
10
8.525576102362205
20
-2.5732012992125983
11
8.5280865748031491
21
-2.5792621259842519
0
LINE
8
BLACK
6
CONTINUOUS
10
8.5280865748031491
20
-2.5792621259842519
11
8.5293664173228336
21
-2.5856962598425195
0
LINE
8
BLACK
6
CONTINUOUS
10
8.5293664173228336
20
-2.5856962598425195
11
8.5295275590551185
21
-2.5889763779527559
0
LINE
8
BLACK
6
CONTINUOUS
10
8.5295275590551185
20
-2.5889763779527559
11
8.5295275590551185
21
-2.7626740944881889
0
LINE
8
BLACK
6
CONTINUOUS
10
8.5295275590551185
20
-2.7626740944881889
11
8.5325502755905518
21
-2.7646938188976375
0
LINE
8
BLACK
6
CONTINUOUS
10
8.5325502755905518
20
-2.7646938188976375
11
8.5346838582677158
21
-2.7678869685039369
0
LINE
8
BLACK
6
CONTINUOUS
10
8.5346838582677158
20
-2.7678869685039369
11
8.5354330708661408
21
-2.7716535433070866
0
LINE
8
BLACK
6
CONTINUOUS
10
8.5354330708661408
20
-2.7716535433070866
11
8.5354330708661408
21
-2.8188976377952755
0
LINE
8
BLACK
6
CONTINUOUS
10
8.5354330708661408
20
-2.8188976377952755
11
8.5346838582677158
21
-2.8226642125984251
0
LINE
8
BLACK
6
CONTINUOUS
10
8.5346838582677158
20
-2.8226642125984251
11
8.5325502755905518
21
-2.8258573622047245
0
LINE
8
BLACK
6
CONTINUOUS
10
8.5325502755905518
20
-2.8258573622047245
11
8.5293571259842516
21
-2.8279909448818898
0
LINE
8
BLACK
6
CONTINUOUS
10
8.5293571259842516
20
-2.8279909448818898
11
8.5255905511811019
21
-2.8287401574803148
0
LINE
8
BLACK
6
CONTINUOUS
10
8.5255905511811019
20
-2.8287401574803148
11
8.4665354330708666
21
-2.8287401574803148
0
LINE
8
BLACK
6
CONTINUOUS
10
8.4665354330708666
20
-2.8287401574803148
11
8.462768858267717
21
-2.8279909448818898
0
LINE
8
BLACK
6
CONTINUOUS
10
8.462768858267717
20
-2.8279909448818898
11
8.4595757086614167
21
-2.8258573622047245
0
LINE
8
BLACK
6
CONTINUOUS
10
8.4595757086614167
20
-2.8258573622047245
11
8.4588712992125981
21
-2.8248031496062991
0
LINE
8
BLACK
6
CONTINUOUS
10
8.4588712992125981
20
-2.8248031496062991
11
8.4374275590551182
21
-2.8248031496062991
0
LINE
8
BLACK
6
CONTINUOUS
10
8.4374275590551182
20
-2.8248031496062991
11
8.4053222047244098
21
-2.8569085039370079
0
LINE
8
BLACK
6
CONTINUOUS
10
8.4053222047244098
20
-2.8569085039370079
11
8.4053222047244098
21
-2.8581896456692912
0
LINE
8
BLACK
6
CONTINUOUS
10
8.4053222047244098
20
-2.8581896456692912
11
8.405038661417322
21
-2.8596150787401573
0
LINE
8
BLACK
6
CONTINUOUS
10
8.405038661417322
20
-2.8596150787401573
11
8.4053696456692908
21
-2.8612790157480315
0
LINE
8
BLACK
6
CONTINUOUS
10
8.4053696456692908
20
-2.8612790157480315
11
8.4055118110236222
21
-2.8641732283464565
0
LINE
8
BLACK
6
CONTINUOUS
10
8.4055118110236222
20
-2.8641732283464565
11
8.4055118110236222
21
-3.1586703149606299
0
LINE
8
BLACK
6
CONTINUOUS
10
8.4055118110236222
20
-3.1586703149606299
11
8.4061240944881881
21
-3.1601485039370076
0
LINE
8
BLACK
6
CONTINUOUS
10
8.4061240944881881
20
-3.1601485039370076
11
8.4073286614173224
21
-3.1662041732283464
0
LINE
8
BLACK
6
CONTINUOUS
10
8.4073286614173224
20
-3.1662041732283464
11
8.4073286614173224
21
-3.1723785039370078
0
LINE
8
BLACK
6
CONTINUOUS
10
8.4073286614173224
20
-3.1723785039370078
11
8.4061240944881881
21
-3.1784341732283465
0
LINE
8
BLACK
6
CONTINUOUS
10
8.4061240944881881
20
-3.1784341732283465
11
8.403761299212599
21
-3.1841384645669293
0
LINE
8
BLACK
6
CONTINUOUS
10
8.403761299212599
20
-3.1841384645669293
11
8.4003310236220479
21
-3.1892722440944881
0
LINE
8
BLACK
6
CONTINUOUS
10
8.4003310236220479
20
-3.1892722440944881
11
8.3959651574803154
21
-3.1936381102362206
0
LINE
8
BLACK
6
CONTINUOUS
10
8.3959651574803154
20
-3.1936381102362206
11
8.3908313779527557
21
-3.1970683858267717
0
LINE
8
BLACK
6
CONTINUOUS
10
8.3908313779527557
20
-3.1970683858267717
11
8.3851270866141725
21
-3.1994311811023621
0
LINE
8
BLACK
6
CONTINUOUS
10
8.3851270866141725
20
-3.1994311811023621
11
8.3790714173228338
21
-3.200635748031496
0
LINE
8
BLACK
6
CONTINUOUS
10
8.3790714173228338
20
-3.200635748031496
11
8.3728970866141736
21
-3.200635748031496
0
LINE
8
BLACK
6
CONTINUOUS
10
8.3728970866141736
20
-3.200635748031496
11
8.3668414173228349
21
-3.1994311811023621
0
LINE
8
BLACK
6
CONTINUOUS
10
8.3668414173228349
20
-3.1994311811023621
11
8.3611371259842517
21
-3.1970683858267717
0
LINE
8
BLACK
6
CONTINUOUS
10
8.3611371259842517
20
-3.1970683858267717
11
8.3560033464566921
21
-3.1936381102362206
0
LINE
8
BLACK
6
CONTINUOUS
10
8.3560033464566921
20
-3.1936381102362206
11
8.3516374803149596
21
-3.1892722440944881
0
LINE
8
BLACK
6
CONTINUOUS
10
8.3516374803149596
20
-3.1892722440944881
11
8.3482072047244085
21
-3.1841384645669293
0
LINE
8
BLACK
6
CONTINUOUS
10
8.3482072047244085
20
-3.1841384645669293
11
8.3458444094488193
21
-3.1784341732283465
0
LINE
8
BLACK
6
CONTINUOUS
10
8.3458444094488193
20
-3.1784341732283465
11
8.344639842519685
21
-3.1723785039370078
0
LINE
8
BLACK
6
CONTINUOUS
10
8.344639842519685
20
-3.1723785039370078
11
8.344639842519685
21
-3.1662041732283464
0
LINE
8
BLACK
6
CONTINUOUS
10
8.344639842519685
20
-3.1662041732283464
11
8.3458444094488193
21
-3.1601485039370076
0
LINE
8
BLACK
6
CONTINUOUS
10
8.3458444094488193
20
-3.1601485039370076
11
8.3464566929133852
21
-3.1586703149606299
0
LINE
8
BLACK
6
CONTINUOUS
10
8.3464566929133852
20
-3.1586703149606299
11
8.3464566929133852
21
-2.9296934645669293
0
LINE
8
BLACK
6
CONTINUOUS
10
8.3464566929133852
20
-2.9296934645669293
11
8.2993762598425196
21
-2.9767738582677166
0
LINE
8
BLACK
6
CONTINUOUS
10
8.2993762598425196
20
-2.9767738582677166
11
8.298279212598425
21
-2.9784157480314959
0
LINE
8
BLACK
6
CONTINUOUS
10
8.298279212598425
20
-2.9784157480314959
11
8.2930811023622049
21
-2.9836138582677165
0
LINE
8
BLACK
6
CONTINUOUS
10
8.2930811023622049
20
-2.9836138582677165
11
8.2869687007874013
21
-2.9876980314960631
0
LINE
8
BLACK
6
CONTINUOUS
10
8.2869687007874013
20
-2.9876980314960631
11
8.2801770078740162
21
-2.9905112598425196
0
LINE
8
BLACK
6
CONTINUOUS
10
8.2801770078740162
20
-2.9905112598425196
11
8.2729669685039369
21
-2.9919453937007874
0
LINE
8
BLACK
6
CONTINUOUS
10
8.2729669685039369
20
-2.9919453937007874
11
8.2656157086614179
21
-2.9919453937007874
0
LINE
8
BLACK
6
CONTINUOUS
10
8.2656157086614179
20
-2.9919453937007874
11
8.2584056692913386
21
-2.9905112598425196
0
LINE
8
BLACK
6
CONTINUOUS
10
8.2584056692913386
20
-2.9905112598425196
11
8.2516139763779517
21
-2.9876980314960631
0
LINE
8
BLACK
6
CONTINUOUS
10
8.2516139763779517
20
-2.9876980314960631
11
8.2455015748031499
21
-2.9836138582677165
0
LINE
8
BLACK
6
CONTINUOUS
10
8.2455015748031499
20
-2.9836138582677165
11
8.2403034645669297
21
-2.9784157480314959
0
LINE
8
BLACK
6
CONTINUOUS
10
8.2403034645669297
20
-2.9784157480314959
11
8.2362192913385819
21
-2.9723033464566928
0
LINE
8
BLACK
6
CONTINUOUS
10
8.2362192913385819
20
-2.9723033464566928
11
8.2361157086614174
21
-2.9720533070866142
0
LINE
8
BLACK
6
CONTINUOUS
10
8.2361157086614174
20
-2.9720533070866142
11
8.2345700393700785
21
-2.9697399999999998
0
LINE
8
BLACK
6
CONTINUOUS
10
8.2345700393700785
20
-2.9697399999999998
11
8.231616535433071
21
-2.9626096062992127
0
LINE
8
BLACK
6
CONTINUOUS
10
8.231616535433071
20
-2.9626096062992127
11
8.2301108661417324
21
-2.9550400393700786
0
LINE
8
BLACK
6
CONTINUOUS
10
8.2301108661417324
20
-2.9550400393700786
11
8.2301108661417324
21
-2.9473221653543304
0
LINE
8
BLACK
6
CONTINUOUS
10
8.2301108661417324
20
-2.9473221653543304
11
8.231616535433071
21
-2.9397525984251969
0
LINE
8
BLACK
6
CONTINUOUS
10
8.231616535433071
20
-2.9397525984251969
11
8.2345700393700785
21
-2.9326222047244093
0
LINE
8
BLACK
6
CONTINUOUS
10
8.2345700393700785
20
-2.9326222047244093
11
8.2388578346456693
21
-2.9262049606299212
0
LINE
8
BLACK
6
CONTINUOUS
10
8.2388578346456693
20
-2.9262049606299212
11
8.24145248031496
21
-2.9233422440944881
0
LINE
8
BLACK
6
CONTINUOUS
10
8.24145248031496
20
-2.9233422440944881
11
8.3383028740157474
21
-2.8264918503937007
0
LINE
8
BLACK
6
CONTINUOUS
10
8.3383028740157474
20
-2.8264918503937007
11
8.3411655905511815
21
-2.8238972440944883
0
LINE
8
BLACK
6
CONTINUOUS
10
8.3411655905511815
20
-2.8238972440944883
11
8.3475827952755903
21
-2.8196094094488187
0
LINE
8
BLACK
6
CONTINUOUS
10
8.3475827952755903
20
-2.8196094094488187
11
8.3547131889763779
21
-2.8166559055118108
0
LINE
8
BLACK
6
CONTINUOUS
10
8.3547131889763779
20
-2.8166559055118108
11
8.3622827952755898
21
-2.8151502362204726
0
LINE
8
BLACK
6
CONTINUOUS
10
8.3622827952755898
20
-2.8151502362204726
11
8.3635639370078732
21
-2.8151502362204726
0
LINE
8
BLACK
6
CONTINUOUS
10
8.3635639370078732
20
-2.8151502362204726
11
8.4043177165354326
21
-2.7743964566929131
0
LINE
8
BLACK
6
CONTINUOUS
10
8.4043177165354326
20
-2.7743964566929131
11
8.4064647637795282
21
-2.7724504724409447
0
LINE
8
BLACK
6
CONTINUOUS
10
8.4064647637795282
20
-2.7724504724409447
11
8.407657440944881
21
-2.7716535433070866
0
LINE
8
BLACK
6
CONTINUOUS
10
8.407657440944881
20
-2.7716535433070866
11
8.4112776377952763
21
-2.7692346062992126
0
LINE
8
BLACK
6
CONTINUOUS
10
8.4112776377952763
20
-2.7692346062992126
11
8.4166254330708661
21
-2.7670194881889763
0
LINE
8
BLACK
6
CONTINUOUS
10
8.4166254330708661
20
-2.7670194881889763
11
8.4223026377952745
21
-2.7658901968503935
0
LINE
8
BLACK
6
CONTINUOUS
10
8.4223026377952745
20
-2.7658901968503935
11
8.4251968503937
21
-2.765748031496063
0
LINE
8
BLACK
6
CONTINUOUS
10
8.4251968503937
20
-2.765748031496063
11
8.4588712992125981
21
-2.765748031496063
0
LINE
8
BLACK
6
CONTINUOUS
10
8.4588712992125981
20
-2.765748031496063
11
8.4595757086614167
21
-2.7646938188976375
0
LINE
8
BLACK
6
CONTINUOUS
10
8.4595757086614167
20
-2.7646938188976375
11
8.46259842519685
21
-2.7626740944881889
0
LINE
8
BLACK
6
CONTINUOUS
10
8.46259842519685
20
-2.7626740944881889
11
8.46259842519685
21
-2.6122047244094486
0
LINE
8
BLACK
6
CONTINUOUS
10
8.46259842519685
20
-2.6122047244094486
11
8.4523622047244089
21
-2.6122047244094486
0
LINE
8
BLACK
6
CONTINUOUS
10
8.4523622047244089
20
-2.6122047244094486
11
8.4523622047244089
21
-2.545275590551181
0
LINE
8
BLACK
6
CONTINUOUS
10
8.4523622047244089
20
-2.545275590551181
11
8.4523622047244089
21
-2.4046864173228344
0
LINE
8
BLACK
6
CONTINUOUS
10
8.4523622047244089
20
-2.4046864173228344
11
8.4503477559055113
21
-2.4016715354330707
0
LINE
8
BLACK
6
CONTINUOUS
10
8.4503477559055113
20
-2.4016715354330707
11
8.4495306692913381
21
-2.4004487007874014
0
LINE
8
BLACK
6
CONTINUOUS
10
8.4495306692913381
20
-2.4004487007874014
11
8.4465771653543307
21
-2.3933183070866142
0
LINE
8
BLACK
6
CONTINUOUS
10
8.4465771653543307
20
-2.3933183070866142
11
8.4450714566929133
21
-2.3857487007874014
0
LINE
8
BLACK
6
CONTINUOUS
10
8.4450714566929133
20
-2.3857487007874014
11
8.4448818897637796
21
-2.3818897637795273
0
LINE
8
BLACK
6
CONTINUOUS
10
8.4448818897637796
20
-2.3818897637795273
11
8.4448818897637796
21
-2.3194572440944881
0
LINE
8
BLACK
6
CONTINUOUS
10
8.4448818897637796
20
-2.3194572440944881
11
8.4088892125984245
21
-2.2834645669291338
0
LINE
8
BLACK
6
CONTINUOUS
10
8.4088892125984245
20
-2.2834645669291338
11
8.2480314960629926
21
-2.2834645669291338
0
LINE
8
BLACK
6
CONTINUOUS
10
8.2480314960629926
20
-2.2834645669291338
11
8.2441725590551176
21
-2.2832750000000002
0
LINE
8
BLACK
6
CONTINUOUS
10
8.2441725590551176
20
-2.2832750000000002
11
8.2366029527559057
21
-2.2817692913385828
0
LINE
8
BLACK
6
CONTINUOUS
10
8.2366029527559057
20
-2.2817692913385828
11
8.2294725590551181
21
-2.2788157874015749
0
LINE
8
BLACK
6
CONTINUOUS
10
8.2294725590551181
20
-2.2788157874015749
11
8.2262864566929128
21
-2.2766868897637793
0
LINE
8
BLACK
6
CONTINUOUS
10
8.2262864566929128
20
-2.2766868897637793
11
8.223055393700788
21
-2.274527992125984
0
LINE
8
BLACK
6
CONTINUOUS
10
8.223055393700788
20
-2.274527992125984
11
8.2201926377952752
21
-2.2719333464566929
0
LINE
8
BLACK
6
CONTINUOUS
10
8.2201926377952752
20
-2.2719333464566929
11
8.2005075984251974
21
-2.2522483070866142
0
LINE
8
BLACK
6
CONTINUOUS
10
8.2005075984251974
20
-2.2522483070866142
11
8.1979129527559049
21
-2.249385590551181
0
LINE
8
BLACK
6
CONTINUOUS
10
8.1979129527559049
20
-2.249385590551181
11
8.194851417322834
21
-2.244803622047244
0
LINE
8
BLACK
6
CONTINUOUS
10
8.194851417322834
20
-2.244803622047244
11
8.1936251574803141
21
-2.2429683858267717
0
LINE
8
BLACK
6
CONTINUOUS
10
8.1936251574803141
20
-2.2429683858267717
11
8.1906716535433066
21
-2.2358379921259841
0
LINE
8
BLACK
6
CONTINUOUS
10
8.1906716535433066
20
-2.2358379921259841
11
8.1891659448818892
21
-2.2282683858267718
0
LINE
8
BLACK
6
CONTINUOUS
10
8.1891659448818892
20
-2.2282683858267718
11
8.1889763779527556
21
-2.2244094488188977
0
LINE
8
BLACK
6
CONTINUOUS
10
8.1889763779527556
20
-2.2244094488188977
11
8.1889763779527556
21
-2.0866141732283463
0
LINE
8
BLACK
6
CONTINUOUS
10
8.1889763779527556
20
-2.0866141732283463
11
8.1891659448818892
21
-2.0827552362204722
0
LINE
8
BLACK
6
CONTINUOUS
10
8.1891659448818892
20
-2.0827552362204722
11
8.1906716535433066
21
-2.0751856299212599
0
LINE
8
BLACK
6
CONTINUOUS
10
8.1906716535433066
20
-2.0751856299212599
11
8.1936251574803141
21
-2.0680552362204723
0
LINE
8
BLACK
6
CONTINUOUS
10
8.1936251574803141
20
-2.0680552362204723
11
8.1979129921259837
21
-2.0616380708661417
0
LINE
8
BLACK
6
CONTINUOUS
10
8.1979129921259837
20
-2.0616380708661417
11
8.2033703543307084
21
-2.0561807086614174
0
LINE
8
BLACK
6
CONTINUOUS
10
8.2033703543307084
20
-2.0561807086614174
11
8.2097875196850385
21
-2.0518928740157478
0
LINE
8
BLACK
6
CONTINUOUS
10
8.2097875196850385
20
-2.0518928740157478
11
8.2169179133858261
21
-2.0489393700787399
0
LINE
8
BLACK
6
CONTINUOUS
10
8.2169179133858261
20
-2.0489393700787399
11
8.2244875196850398
21
-2.047433661417323
0
LINE
8
BLACK
6
CONTINUOUS
10
8.2244875196850398
20
-2.047433661417323
11
8.232205393700788
21
-2.047433661417323
0
LINE
8
BLACK
6
CONTINUOUS
10
8.232205393700788
20
-2.047433661417323
11
8.2397749999999998
21
-2.0489393700787399
0
LINE
8
BLACK
6
CONTINUOUS
10
8.2310477165354321
20
-2.4528886220472441
11
8.2363464173228351
21
-2.4539425590551183
0
LINE
8
BLACK
6
CONTINUOUS
10
8.2363464173228351
20
-2.4539425590551183
11
8.2413377165354333
21
-2.4560100393700788
0
LINE
8
BLACK
6
CONTINUOUS
10
8.2413377165354333
20
-2.4560100393700788
11
8.2458297244094485
21
-2.4590115354330706
0
LINE
8
BLACK
6
CONTINUOUS
10
8.2458297244094485
20
-2.4590115354330706
11
8.2478336614173227
21
-2.4608277559055116
0
LINE
8
BLACK
6
CONTINUOUS
10
8.2478336614173227
20
-2.4608277559055116
11
8.3068887795275597
21
-2.5198828740157482
0
LINE
8
BLACK
6
CONTINUOUS
10
8.3068887795275597
20
-2.5198828740157482
11
8.3087049999999998
21
-2.5218868110236219
0
LINE
8
BLACK
6
CONTINUOUS
10
8.3087049999999998
20
-2.5218868110236219
11
8.3117064960629925
21
-2.5263788188976379
0
LINE
8
BLACK
6
CONTINUOUS
10
8.3117064960629925
20
-2.5263788188976379
11
8.3137739370078734
21
-2.5313701181102362
0
LINE
8
BLACK
6
CONTINUOUS
10
8.3137739370078734
20
-2.5313701181102362
11
8.3148279133858267
21
-2.5366688188976378
0
LINE
8
BLACK
6
CONTINUOUS
10
8.3148279133858267
20
-2.5366688188976378
11
8.3149606299212593
21
-2.5393700787401574
0
LINE
8
BLACK
6
CONTINUOUS
10
8.3149606299212593
20
-2.5393700787401574
11
8.3149606299212593
21
-2.5623974803149605
0
LINE
8
BLACK
6
CONTINUOUS
10
8.3149606299212593
20
-2.5623974803149605
11
8.3153398818897628
21
-2.5629650787401572
0
LINE
8
BLACK
6
CONTINUOUS
10
8.3153398818897628
20
-2.5629650787401572
11
8.3178503543307087
21
-2.5690259055118108
0
LINE
8
BLACK
6
CONTINUOUS
10
8.3178503543307087
20
-2.5690259055118108
11
8.3191301968503932
21
-2.5754600393700788
0
LINE
8
BLACK
6
CONTINUOUS
10
8.3191301968503932
20
-2.5754600393700788
11
8.3191301968503932
21
-2.5820202755905513
0
LINE
8
BLACK
6
CONTINUOUS
10
8.3191301968503932
20
-2.5820202755905513
11
8.3178503543307087
21
-2.5884544094488189
0
LINE
8
BLACK
6
CONTINUOUS
10
8.3178503543307087
20
-2.5884544094488189
11
8.3153398818897628
21
-2.5945152362204724
0
LINE
8
BLACK
6
CONTINUOUS
10
8.3153398818897628
20
-2.5945152362204724
11
8.3116952362204728
21
-2.5999698425196849
0
LINE
8
BLACK
6
CONTINUOUS
10
8.3116952362204728
20
-2.5999698425196849
11
8.3070564566929139
21
-2.6046086220472442
0
LINE
8
BLACK
6
CONTINUOUS
10
8.3070564566929139
20
-2.6046086220472442
11
8.3016018503937001
21
-2.6082532677165355
0
LINE
8
BLACK
6
CONTINUOUS
10
8.3016018503937001
20
-2.6082532677165355
11
8.2955410236220466
21
-2.6107637401574801
0
LINE
8
BLACK
6
CONTINUOUS
10
8.2955410236220466
20
-2.6107637401574801
11
8.2891068897637794
21
-2.6120435826771651
0
LINE
8
BLACK
6
CONTINUOUS
10
8.2891068897637794
20
-2.6120435826771651
11
8.2825466535433065
21
-2.6120435826771651
0
LINE
8
BLACK
6
CONTINUOUS
10
8.2825466535433065
20
-2.6120435826771651
11
8.2761125196850394
21
-2.6107637401574801
0
LINE
8
BLACK
6
CONTINUOUS
10
8.2761125196850394
20
-2.6107637401574801
11
8.2700516929133858
21
-2.6082532677165355
0
LINE
8
BLACK
6
CONTINUOUS
10
8.2700516929133858
20
-2.6082532677165355
11
8.2645970866141738
21
-2.6046086220472442
0
LINE
8
BLACK
6
CONTINUOUS
10
8.2645970866141738
20
-2.6046086220472442
11
8.2599583070866132
21
-2.5999698425196849
0
LINE
8
BLACK
6
CONTINUOUS
10
8.2599583070866132
20
-2.5999698425196849
11
8.2563136614173231
21
-2.5945152362204724
0
LINE
8
BLACK
6
CONTINUOUS
10
8.2563136614173231
20
-2.5945152362204724
11
8.2538031889763772
21
-2.5884544094488189
0
LINE
8
BLACK
6
CONTINUOUS
10
8.2538031889763772
20
-2.5884544094488189
11
8.2525233464566927
21
-2.5820202755905513
0
LINE
8
BLACK
6
CONTINUOUS
10
8.2525233464566927
20
-2.5820202755905513
11
8.2525233464566927
21
-2.5754600393700788
0
LINE
8
BLACK
6
CONTINUOUS
10
8.2525233464566927
20
-2.5754600393700788
11
8.2538031889763772
21
-2.5690259055118108
0
LINE
8
BLACK
6
CONTINUOUS
10
8.2538031889763772
20
-2.5690259055118108
11
8.2563136614173231
21
-2.5629650787401572
0
LINE
8
BLACK
6
CONTINUOUS
10
8.2563136614173231
20
-2.5629650787401572
11
8.2598425196850389
21
-2.5576837401574801
0
LINE
8
BLACK
6
CONTINUOUS
10
8.2598425196850389
20
-2.5576837401574801
11
8.2598425196850389
21
-2.5507854330708661
0
LINE
8
BLACK
6
CONTINUOUS
10
8.2598425196850389
20
-2.5507854330708661
11
8.2169311023622047
21
-2.5078740157480315
0
LINE
8
BLACK
6
CONTINUOUS
10
8.2169311023622047
20
-2.5078740157480315
11
8.1511791338582675
21
-2.5078740157480315
0
LINE
8
BLACK
6
CONTINUOUS
10
8.1511791338582675
20
-2.5078740157480315
11
8.1181102362204722
21
-2.5409429133858268
0
LINE
8
BLACK
6
CONTINUOUS
10
8.1181102362204722
20
-2.5409429133858268
11
8.1181102362204722
21
-2.6377952755905509
0
LINE
8
BLACK
6
CONTINUOUS
10
8.1181102362204722
20
-2.6377952755905509
11
8.1179775196850397
21
-2.6404965354330709
0
LINE
8
BLACK
6
CONTINUOUS
10
8.1179775196850397
20
-2.6404965354330709
11
8.1169235826771651
21
-2.6457952362204722
0
LINE
8
BLACK
6
CONTINUOUS
10
8.1169235826771651
20
-2.6457952362204722
11
8.1156538188976377
21
-2.6488606692913383
0
LINE
8
BLACK
6
CONTINUOUS
10
8.1156538188976377
20
-2.6488606692913383
11
8.1148561023622037
21
-2.6507865354330709
0
LINE
8
BLACK
6
CONTINUOUS
10
8.1148561023622037
20
-2.6507865354330709
11
8.1148517716535427
21
-2.6507929921259841
0
LINE
8
BLACK
6
CONTINUOUS
10
8.1148517716535427
20
-2.6507929921259841
11
8.1118546062992127
21
-2.6552785433070865
0
LINE
8
BLACK
6
CONTINUOUS
10
8.1118546062992127
20
-2.6552785433070865
11
8.1100383858267708
21
-2.6572824409448819
0
LINE
8
BLACK
6
CONTINUOUS
10
8.1100383858267708
20
-2.6572824409448819
11
8.0706683070866134
21
-2.696652559055118
0
LINE
8
BLACK
6
CONTINUOUS
10
8.0706683070866134
20
-2.696652559055118
11
8.0686643700787393
21
-2.698468779527559
0
LINE
8
BLACK
6
CONTINUOUS
10
8.0686643700787393
20
-2.698468779527559
11
8.0641723622047241
21
-2.7014702755905513
0
LINE
8
BLACK
6
CONTINUOUS
10
8.0641723622047241
20
-2.7014702755905513
11
8.0591810629921259
21
-2.7035377559055118
0
LINE
8
BLACK
6
CONTINUOUS
10
8.0591810629921259
20
-2.7035377559055118
11
8.0538823622047246
21
-2.704591692913386
0
LINE
8
BLACK
6
CONTINUOUS
10
8.0538823622047246
20
-2.704591692913386
11
8.0511811023622037
21
-2.704724409448819
0
LINE
8
BLACK
6
CONTINUOUS
10
8.0511811023622037
20
-2.704724409448819
11
7.9535761417322837
21
-2.704724409448819
0
LINE
8
BLACK
6
CONTINUOUS
10
7.9535761417322837
20
-2.704724409448819
11
7.9507865354330711
21
-2.7065883858267714
0
LINE
8
BLACK
6
CONTINUOUS
10
7.9507865354330711
20
-2.7065883858267714
11
7.945795236220472
21
-2.7086558661417324
0
LINE
8
BLACK
6
CONTINUOUS
10
7.945795236220472
20
-2.7086558661417324
11
7.9404965354330708
21
-2.7097098031496061
0
LINE
8
BLACK
6
CONTINUOUS
10
7.9404965354330708
20
-2.7097098031496061
11
7.9377952755905508
21
-2.7098425196850395
0
LINE
8
BLACK
6
CONTINUOUS
10
7.9377952755905508
20
-2.7098425196850395
11
7.8964747244094484
21
-2.7098425196850395
0
LINE
8
BLACK
6
CONTINUOUS
10
7.8964747244094484
20
-2.7098425196850395
11
7.8947918897637797
21
-2.7105395669291337
0
LINE
8
BLACK
6
CONTINUOUS
10
7.8947918897637797
20
-2.7105395669291337
11
7.8891146850393703
21
-2.7116688582677164
0
LINE
8
BLACK
6
CONTINUOUS
10
7.8891146850393703
20
-2.7116688582677164
11
7.8833262598425193
21
-2.7116688582677164
0
LINE
8
BLACK
6
CONTINUOUS
10
7.8833262598425193
20
-2.7116688582677164
11
7.87764905511811
21
-2.7105395669291337
0
LINE
8
BLACK
6
CONTINUOUS
10
7.87764905511811
20
-2.7105395669291337
11
7.8723012598425193
21
-2.7083244488188978
0
LINE
8
BLACK
6
CONTINUOUS
10
7.8723012598425193
20
-2.7083244488188978
11
7.8674883858267712
21
-2.7051085826771653
0
LINE
8
BLACK
6
CONTINUOUS
10
7.8674883858267712
20
-2.7051085826771653
11
7.8633953543307085
21
-2.7010155511811025
0
LINE
8
BLACK
6
CONTINUOUS
10
7.8633953543307085
20
-2.7010155511811025
11
7.8601794881889759
21
-2.6962026771653544
0
LINE
8
BLACK
6
CONTINUOUS
10
7.8601794881889759
20
-2.6962026771653544
11
7.85796437007874
21
-2.6908548818897637
0
LINE
8
BLACK
6
CONTINUOUS
10
7.85796437007874
20
-2.6908548818897637
11
7.8568350787401577
21
-2.6851776771653544
0
LINE
8
BLACK
6
CONTINUOUS
10
7.8568350787401577
20
-2.6851776771653544
11
7.8568350787401577
21
-2.6793892519685039
0
LINE
8
BLACK
6
CONTINUOUS
10
7.8568350787401577
20
-2.6793892519685039
11
7.85796437007874
21
-2.6737120472440945
0
LINE
8
BLACK
6
CONTINUOUS
10
7.85796437007874
20
-2.6737120472440945
11
7.8601794881889759
21
-2.6683642519685038
0
LINE
8
BLACK
6
CONTINUOUS
10
7.8601794881889759
20
-2.6683642519685038
11
7.8633953543307085
21
-2.6635513779527558
0
LINE
8
BLACK
6
CONTINUOUS
10
7.8633953543307085
20
-2.6635513779527558
11
7.8674883858267712
21
-2.659458346456693
0
LINE
8
BLACK
6
CONTINUOUS
10
7.8674883858267712
20
-2.659458346456693
11
7.8723012598425193
21
-2.6562424803149605
0
LINE
8
BLACK
6
CONTINUOUS
10
7.8723012598425193
20
-2.6562424803149605
11
7.87764905511811
21
-2.6540273622047241
0
LINE
8
BLACK
6
CONTINUOUS
10
7.87764905511811
20
-2.6540273622047241
11
7.8833262598425193
21
-2.6528980708661418
0
LINE
8
BLACK
6
CONTINUOUS
10
7.8833262598425193
20
-2.6528980708661418
11
7.8891146850393703
21
-2.6528980708661418
0
LINE
8
BLACK
6
CONTINUOUS
10
7.8891146850393703
20
-2.6528980708661418
11
7.8947918897637797
21
-2.6540273622047241
0
LINE
8
BLACK
6
CONTINUOUS
10
7.8947918897637797
20
-2.6540273622047241
11
7.8964747244094484
21
-2.6547244094488187
0
LINE
8
BLACK
6
CONTINUOUS
10
7.8964747244094484
20
-2.6547244094488187
11
7.9271325196850393
21
-2.6547244094488187
0
LINE
8
BLACK
6
CONTINUOUS
10
7.9271325196850393
20
-2.6547244094488187
11
7.9299221259842518
21
-2.6528604330708663
0
LINE
8
BLACK
6
CONTINUOUS
10
7.9299221259842518
20
-2.6528604330708663
11
7.9349134251968501
21
-2.6507929527559053
0
LINE
8
BLACK
6
CONTINUOUS
10
7.9349134251968501
20
-2.6507929527559053
11
7.9402121259842522
21
-2.6497390157480316
0
LINE
8
BLACK
6
CONTINUOUS
10
7.9402121259842522
20
-2.6497390157480316
11
7.9429133858267713
21
-2.6496062992125982
0
LINE
8
BLACK
6
CONTINUOUS
10
7.9429133858267713
20
-2.6496062992125982
11
8.0397657480314955
21
-2.6496062992125982
0
LINE
8
BLACK
6
CONTINUOUS
10
8.0397657480314955
20
-2.6496062992125982
11
8.0629921259842519
21
-2.6263799212598427
0
LINE
8
BLACK
6
CONTINUOUS
10
8.0629921259842519
20
-2.6263799212598427
11
8.0629921259842519
21
-2.5295275590551181
0
LINE
8
BLACK
6
CONTINUOUS
10
8.0629921259842519
20
-2.5295275590551181
11
8.0631248425196844
21
-2.5268262992125985
0
LINE
8
BLACK
6
CONTINUOUS
10
8.0631248425196844
20
-2.5268262992125985
11
8.0633951574803149
21
-2.5254673228346456
0
LINE
8
BLACK
6
CONTINUOUS
10
8.0633951574803149
20
-2.5254673228346456
11
8.064178779527559
21
-2.5215275984251968
0
LINE
8
BLACK
6
CONTINUOUS
10
8.064178779527559
20
-2.5215275984251968
11
8.0662462598425186
21
-2.5165362992125986
0
LINE
8
BLACK
6
CONTINUOUS
10
8.0662462598425186
20
-2.5165362992125986
11
8.0692477559055114
21
-2.5120442913385825
0
LINE
8
BLACK
6
CONTINUOUS
10
8.0692477559055114
20
-2.5120442913385825
11
8.0710639763779533
21
-2.5100403543307088
0
LINE
8
BLACK
6
CONTINUOUS
10
8.0710639763779533
20
-2.5100403543307088
11
8.1202765748031496
21
-2.4608277559055116
0
LINE
8
BLACK
6
CONTINUOUS
10
8.1202765748031496
20
-2.4608277559055116
11
8.1222805118110237
21
-2.4590115354330706
0
LINE
8
BLACK
6
CONTINUOUS
10
8.1222805118110237
20
-2.4590115354330706
11
8.1267725196850389
21
-2.4560100393700788
0
LINE
8
BLACK
6
CONTINUOUS
10
8.1267725196850389
20
-2.4560100393700788
11
8.1317638188976371
21
-2.4539425590551183
0
LINE
8
BLACK
6
CONTINUOUS
10
8.1317638188976371
20
-2.4539425590551183
11
8.1370625196850384
21
-2.4528886220472441
0
LINE
8
BLACK
6
CONTINUOUS
10
8.1370625196850384
20
-2.4528886220472441
11
8.1397637795275593
21
-2.4527559055118111
0
LINE
8
BLACK
6
CONTINUOUS
10
8.1397637795275593
20
-2.4527559055118111
11
8.228346456692913
21
-2.4527559055118111
0
LINE
8
BLACK
6
CONTINUOUS
10
8.228346456692913
20
-2.4527559055118111
11
8.2310477165354321
21
-2.4528886220472441
0
LINE
8
BLACK
6
CONTINUOUS
10
8.2899098818897627
20
-2.3564224409448817
11
8.2948301181102355
21
-2.3574011417322835
0
LINE
8
BLACK
6
CONTINUOUS
10
8.2948301181102355
20
-2.3574011417322835
11
8.2994648818897634
21
-2.3593209055118112
0
LINE
8
BLACK
6
CONTINUOUS
10
8.2994648818897634
20
-2.3593209055118112
11
8.3036360629921262
21
-2.362107992125984
0
LINE
8
BLACK
6
CONTINUOUS
10
8.3036360629921262
20
-2.362107992125984
11
8.3054968110236214
21
-2.3637945275590551
0
LINE
8
BLACK
6
CONTINUOUS
10
8.3054968110236214
20
-2.3637945275590551
11
8.4039220078740158
21
-2.4622197244094486
0
LINE
8
BLACK
6
CONTINUOUS
10
8.4039220078740158
20
-2.4622197244094486
11
8.4056085433070873
21
-2.4640804724409446
0
LINE
8
BLACK
6
CONTINUOUS
10
8.4056085433070873
20
-2.4640804724409446
11
8.4083956299212588
21
-2.468251653543307
0
LINE
8
BLACK
6
CONTINUOUS
10
8.4083956299212588
20
-2.468251653543307
11
8.4103153937007864
21
-2.4728864173228344
0
LINE
8
BLACK
6
CONTINUOUS
10
8.4103153937007864
20
-2.4728864173228344
11
8.4112941338582683
21
-2.4778066535433072
0
LINE
8
BLACK
6
CONTINUOUS
10
8.4112941338582683
20
-2.4778066535433072
11
8.4112941338582683
21
-2.4778074409448818
0
LINE
8
BLACK
6
CONTINUOUS
10
8.4112941338582683
20
-2.4778074409448818
11
8.4114173228346463
21
-2.4803149606299213
0
LINE
8
BLACK
6
CONTINUOUS
10
8.4114173228346463
20
-2.4803149606299213
11
8.4114173228346463
21
-2.5572325590551181
0
LINE
8
BLACK
6
CONTINUOUS
10
8.4114173228346463
20
-2.5572325590551181
11
8.4116952362204724
21
-2.5575104724409448
0
LINE
8
BLACK
6
CONTINUOUS
10
8.4116952362204724
20
-2.5575104724409448
11
8.4153398818897642
21
-2.5629650787401572
0
LINE
8
BLACK
6
CONTINUOUS
10
8.4153398818897642
20
-2.5629650787401572
11
8.4178503543307084
21
-2.5690259055118108
0
LINE
8
BLACK
6
CONTINUOUS
10
8.4178503543307084
20
-2.5690259055118108
11
8.4191301968503929
21
-2.5754600393700788
0
LINE
8
BLACK
6
CONTINUOUS
10
8.4191301968503929
20
-2.5754600393700788
11
8.4191301968503929
21
-2.5820202755905513
0
LINE
8
BLACK
6
CONTINUOUS
10
8.4191301968503929
20
-2.5820202755905513
11
8.4178503543307084
21
-2.5884544094488189
0
LINE
8
BLACK
6
CONTINUOUS
10
8.4178503543307084
20
-2.5884544094488189
11
8.4153398818897642
21
-2.5945152362204724
0
LINE
8
BLACK
6
CONTINUOUS
10
8.4153398818897642
20
-2.5945152362204724
11
8.4116952362204724
21
-2.5999698425196849
0
LINE
8
BLACK
6
CONTINUOUS
10
8.4116952362204724
20
-2.5999698425196849
11
8.4070564566929136
21
-2.6046086220472442
0
LINE
8
BLACK
6
CONTINUOUS
10
8.4070564566929136
20
-2.6046086220472442
11
8.4016018503936998
21
-2.6082532677165355
0
LINE
8
BLACK
6
CONTINUOUS
10
8.4016018503936998
20
-2.6082532677165355
11
8.3955410236220462
21
-2.6107637401574801
0
LINE
8
BLACK
6
CONTINUOUS
10
8.3955410236220462
20
-2.6107637401574801
11
8.3891068897637791
21
-2.6120435826771651
0
LINE
8
BLACK
6
CONTINUOUS
10
8.3891068897637791
20
-2.6120435826771651
11
8.3825466535433062
21
-2.6120435826771651
0
LINE
8
BLACK
6
CONTINUOUS
10
8.3825466535433062
20
-2.6120435826771651
11
8.376112519685039
21
-2.6107637401574801
0
LINE
8
BLACK
6
CONTINUOUS
10
8.376112519685039
20
-2.6107637401574801
11
8.3700516929133855
21
-2.6082532677165355
0
LINE
8
BLACK
6
CONTINUOUS
10
8.3700516929133855
20
-2.6082532677165355
11
8.3645970866141734
21
-2.6046086220472442
0
LINE
8
BLACK
6
CONTINUOUS
10
8.3645970866141734
20
-2.6046086220472442
11
8.3599583070866146
21
-2.5999698425196849
0
LINE
8
BLACK
6
CONTINUOUS
10
8.3599583070866146
20
-2.5999698425196849
11
8.3563136614173228
21
-2.5945152362204724
0
LINE
8
BLACK
6
CONTINUOUS
10
8.3563136614173228
20
-2.5945152362204724
11
8.3538031889763786
21
-2.5884544094488189
0
LINE
8
BLACK
6
CONTINUOUS
10
8.3538031889763786
20
-2.5884544094488189
11
8.3525233464566924
21
-2.5820202755905513
0
LINE
8
BLACK
6
CONTINUOUS
10
8.3525233464566924
20
-2.5820202755905513
11
8.3525233464566924
21
-2.5754600393700788
0
LINE
8
BLACK
6
CONTINUOUS
10
8.3525233464566924
20
-2.5754600393700788
11
8.3538031889763786
21
-2.5690259055118108
0
LINE
8
BLACK
6
CONTINUOUS
10
8.3538031889763786
20
-2.5690259055118108
11
8.3563136614173228
21
-2.5629650787401572
0
LINE
8
BLACK
6
CONTINUOUS
10
8.3563136614173228
20
-2.5629650787401572
11
8.3599583070866146
21
-2.5575104724409448
0
LINE
8
BLACK
6
CONTINUOUS
10
8.3599583070866146
20
-2.5575104724409448
11
8.3602362204724407
21
-2.5572325590551181
0
LINE
8
BLACK
6
CONTINUOUS
10
8.3602362204724407
20
-2.5572325590551181
11
8.3602362204724407
21
-2.4909148818897635
0
LINE
8
BLACK
6
CONTINUOUS
10
8.3602362204724407
20
-2.4909148818897635
11
8.2768016535433073
21
-2.4074803149606301
0
LINE
8
BLACK
6
CONTINUOUS
10
8.2768016535433073
20
-2.4074803149606301
11
8.14052122047244
21
-2.4074803149606301
0
LINE
8
BLACK
6
CONTINUOUS
10
8.14052122047244
20
-2.4074803149606301
11
8.03740157480315
21
-2.5105999212598427
0
LINE
8
BLACK
6
CONTINUOUS
10
8.03740157480315
20
-2.5105999212598427
11
8.03740157480315
21
-2.5590551181102361
0
LINE
8
BLACK
6
CONTINUOUS
10
8.03740157480315
20
-2.5590551181102361
11
8.037278385826772
21
-2.5615625984251968
0
LINE
8
BLACK
6
CONTINUOUS
10
8.037278385826772
20
-2.5615625984251968
11
8.037278385826772
21
-2.5615634251968502
0
LINE
8
BLACK
6
CONTINUOUS
10
8.037278385826772
20
-2.5615634251968502
11
8.0362996850393706
21
-2.566483661417323
0
LINE
8
BLACK
6
CONTINUOUS
10
8.0362996850393706
20
-2.566483661417323
11
8.0343798818897643
21
-2.5711184251968504
0
LINE
8
BLACK
6
CONTINUOUS
10
8.0343798818897643
20
-2.5711184251968504
11
8.031592795275591
21
-2.5752896062992123
0
LINE
8
BLACK
6
CONTINUOUS
10
8.031592795275591
20
-2.5752896062992123
11
8.0299062992125982
21
-2.5771503543307084
0
LINE
8
BLACK
6
CONTINUOUS
10
8.0299062992125982
20
-2.5771503543307084
11
8.0102212204724399
21
-2.5968353937007875
0
LINE
8
BLACK
6
CONTINUOUS
10
8.0102212204724399
20
-2.5968353937007875
11
8.0083604724409447
21
-2.5985219291338582
0
LINE
8
BLACK
6
CONTINUOUS
10
8.0083604724409447
20
-2.5985219291338582
11
8.0041892913385819
21
-2.6013090157480314
0
LINE
8
BLACK
6
CONTINUOUS
10
8.0041892913385819
20
-2.6013090157480314
11
7.9995545275590549
21
-2.603228779527559
0
LINE
8
BLACK
6
CONTINUOUS
10
7.9995545275590549
20
-2.603228779527559
11
7.9946342913385822
21
-2.6042074803149604
0
LINE
8
BLACK
6
CONTINUOUS
10
7.9946342913385822
20
-2.6042074803149604
11
7.9921259842519685
21
-2.6043307086614171
0
LINE
8
BLACK
6
CONTINUOUS
10
7.9921259842519685
20
-2.6043307086614171
11
7.9423715354330708
21
-2.6043307086614171
0
LINE
8
BLACK
6
CONTINUOUS
10
7.9423715354330708
20
-2.6043307086614171
11
7.9415908661417323
21
-2.6048523228346454
0
LINE
8
BLACK
6
CONTINUOUS
10
7.9415908661417323
20
-2.6048523228346454
11
7.9369561023622044
21
-2.606772086614173
0
LINE
8
BLACK
6
CONTINUOUS
10
7.9369561023622044
20
-2.606772086614173
11
7.9320358661417325
21
-2.6077507874015748
0
LINE
8
BLACK
6
CONTINUOUS
10
7.9320358661417325
20
-2.6077507874015748
11
7.929527559055118
21
-2.6078740157480316
0
LINE
8
BLACK
6
CONTINUOUS
10
7.929527559055118
20
-2.6078740157480316
11
7.900813818897638
21
-2.6078740157480316
0
LINE
8
BLACK
6
CONTINUOUS
10
7.900813818897638
20
-2.6078740157480316
11
7.9001396850393695
21
-2.6083244488188977
0
LINE
8
BLACK
6
CONTINUOUS
10
7.9001396850393695
20
-2.6083244488188977
11
7.8947918897637797
21
-2.6105395669291336
0
LINE
8
BLACK
6
CONTINUOUS
10
7.8947918897637797
20
-2.6105395669291336
11
7.8891146850393703
21
-2.6116688582677163
0
LINE
8
BLACK
6
CONTINUOUS
10
7.8891146850393703
20
-2.6116688582677163
11
7.8833262598425193
21
-2.6116688582677163
0
LINE
8
BLACK
6
CONTINUOUS
10
7.8833262598425193
20
-2.6116688582677163
11
7.87764905511811
21
-2.6105395669291336
0
LINE
8
BLACK
6
CONTINUOUS
10
7.87764905511811
20
-2.6105395669291336
11
7.8723012598425193
21
-2.6083244488188977
0
LINE
8
BLACK
6
CONTINUOUS
10
7.8723012598425193
20
-2.6083244488188977
11
7.8674883858267712
21
-2.6051085826771652
0
LINE
8
BLACK
6
CONTINUOUS
10
7.8674883858267712
20
-2.6051085826771652
11
7.8633953543307085
21
-2.6010155511811024
0
LINE
8
BLACK
6
CONTINUOUS
10
7.8633953543307085
20
-2.6010155511811024
11
7.8601794881889759
21
-2.5962026771653544
0
LINE
8
BLACK
6
CONTINUOUS
10
7.8601794881889759
20
-2.5962026771653544
11
7.85796437007874
21
-2.5908548818897637
0
LINE
8
BLACK
6
CONTINUOUS
10
7.85796437007874
20
-2.5908548818897637
11
7.8568350787401577
21
-2.5851776771653543
0
LINE
8
BLACK
6
CONTINUOUS
10
7.8568350787401577
20
-2.5851776771653543
11
7.8568350787401577
21
-2.5793892519685038
0
LINE
8
BLACK
6
CONTINUOUS
10
7.8568350787401577
20
-2.5793892519685038
11
7.85796437007874
21
-2.5737120472440944
0
LINE
8
BLACK
6
CONTINUOUS
10
7.85796437007874
20
-2.5737120472440944
11
7.8601794881889759
21
-2.5683642519685037
0
LINE
8
BLACK
6
CONTINUOUS
10
7.8601794881889759
20
-2.5683642519685037
11
7.8633953543307085
21
-2.5635513779527557
0
LINE
8
BLACK
6
CONTINUOUS
10
7.8633953543307085
20
-2.5635513779527557
11
7.8674883858267712
21
-2.5594583464566929
0
LINE
8
BLACK
6
CONTINUOUS
10
7.8674883858267712
20
-2.5594583464566929
11
7.8723012598425193
21
-2.5562424803149604
0
LINE
8
BLACK
6
CONTINUOUS
10
7.8723012598425193
20
-2.5562424803149604
11
7.87764905511811
21
-2.5540273622047245
0
LINE
8
BLACK
6
CONTINUOUS
10
7.87764905511811
20
-2.5540273622047245
11
7.8833262598425193
21
-2.5528980708661417
0
LINE
8
BLACK
6
CONTINUOUS
10
7.8833262598425193
20
-2.5528980708661417
11
7.8891146850393703
21
-2.5528980708661417
0
LINE
8
BLACK
6
CONTINUOUS
10
7.8891146850393703
20
-2.5528980708661417
11
7.8947918897637797
21
-2.5540273622047245
0
LINE
8
BLACK
6
CONTINUOUS
10
7.8947918897637797
20
-2.5540273622047245
11
7.9001396850393695
21
-2.5562424803149604
0
LINE
8
BLACK
6
CONTINUOUS
10
7.9001396850393695
20
-2.5562424803149604
11
7.900813818897638
21
-2.5566929133858265
0
LINE
8
BLACK
6
CONTINUOUS
10
7.900813818897638
20
-2.5566929133858265
11
7.9202268897637795
21
-2.5566929133858265
0
LINE
8
BLACK
6
CONTINUOUS
10
7.9202268897637795
20
-2.5566929133858265
11
7.9210075590551181
21
-2.5561712992125982
0
LINE
8
BLACK
6
CONTINUOUS
10
7.9210075590551181
20
-2.5561712992125982
11
7.9256423228346451
21
-2.5542515354330706
0
LINE
8
BLACK
6
CONTINUOUS
10
7.9256423228346451
20
-2.5542515354330706
11
7.9305625590551179
21
-2.5532728346456692
0
LINE
8
BLACK
6
CONTINUOUS
10
7.9305625590551179
20
-2.5532728346456692
11
7.9330708661417324
21
-2.5531496062992125
0
LINE
8
BLACK
6
CONTINUOUS
10
7.9330708661417324
20
-2.5531496062992125
11
7.9815260629921259
21
-2.5531496062992125
0
LINE
8
BLACK
6
CONTINUOUS
10
7.9815260629921259
20
-2.5531496062992125
11
7.9862204724409445
21
-2.5484551574803147
0
LINE
8
BLACK
6
CONTINUOUS
10
7.9862204724409445
20
-2.5484551574803147
11
7.9862204724409445
21
-2.5
0
LINE
8
BLACK
6
CONTINUOUS
10
7.9862204724409445
20
-2.5
11
7.9863437007874012
21
-2.4974916929133859
0
LINE
8
BLACK
6
CONTINUOUS
10
7.9863437007874012
20
-2.4974916929133859
11
7.9873224015748026
21
-2.4925714566929131
0
LINE
8
BLACK
6
CONTINUOUS
10
7.9873224015748026
20
-2.4925714566929131
11
7.9892421653543302
21
-2.4879366929133857
0
LINE
8
BLACK
6
CONTINUOUS
10
7.9892421653543302
20
-2.4879366929133857
11
7.9920292519685034
21
-2.4837655118110238
0
LINE
8
BLACK
6
CONTINUOUS
10
7.9920292519685034
20
-2.4837655118110238
11
7.993715787401575
21
-2.4819047637795273
0
LINE
8
BLACK
6
CONTINUOUS
10
7.993715787401575
20
-2.4819047637795273
11
8.1118260236220472
21
-2.3637944881889763
0
LINE
8
BLACK
6
CONTINUOUS
10
8.1118260236220472
20
-2.3637944881889763
11
8.1136863779527566
21
-2.3621083464566928
0
LINE
8
BLACK
6
CONTINUOUS
10
8.1136863779527566
20
-2.3621083464566928
11
8.1136867716535424
21
-2.362107992125984
0
LINE
8
BLACK
6
CONTINUOUS
10
8.1136867716535424
20
-2.362107992125984
11
8.1178579527559052
21
-2.3593209055118112
0
LINE
8
BLACK
6
CONTINUOUS
10
8.1178579527559052
20
-2.3593209055118112
11
8.122492716535433
21
-2.3574011023622048
0
LINE
8
BLACK
6
CONTINUOUS
10
8.122492716535433
20
-2.3574011023622048
11
8.1274129527559058
21
-2.356422401574803
0
LINE
8
BLACK
6
CONTINUOUS
10
8.1274129527559058
20
-2.356422401574803
11
8.1274137401574809
21
-2.356422401574803
0
LINE
8
BLACK
6
CONTINUOUS
10
8.1274137401574809
20
-2.356422401574803
11
8.1299212598425203
21
-2.356299212598425
0
LINE
8
BLACK
6
CONTINUOUS
10
8.1299212598425203
20
-2.356299212598425
11
8.28740157480315
21
-2.356299212598425
0
LINE
8
BLACK
6
CONTINUOUS
10
8.28740157480315
20
-2.356299212598425
11
8.2899098818897627
21
-2.3564224409448817
0
LINE
8
BLACK
6
CONTINUOUS
10
8.138060708661417
20
-2.054590590551181
11
8.1441215354330705
21
-2.057101062992126
0
LINE
8
BLACK
6
CONTINUOUS
10
8.1441215354330705
20
-2.057101062992126
11
8.1495761417322825
21
-2.0607457086614174
0
LINE
8
BLACK
6
CONTINUOUS
10
8.1495761417322825
20
-2.0607457086614174
11
8.1542149212598432
21
-2.0653844881889762
0
LINE
8
BLACK
6
CONTINUOUS
10
8.1542149212598432
20
-2.0653844881889762
11
8.1578595669291332
21
-2.0708390944881891
0
LINE
8
BLACK
6
CONTINUOUS
10
8.1578595669291332
20
-2.0708390944881891
11
8.1603700393700791
21
-2.0768999212598427
0
LINE
8
BLACK
6
CONTINUOUS
10
8.1603700393700791
20
-2.0768999212598427
11
8.1616498818897636
21
-2.0833340551181103
0
LINE
8
BLACK
6
CONTINUOUS
10
8.1616498818897636
20
-2.0833340551181103
11
8.1616498818897636
21
-2.0898942913385827
0
LINE
8
BLACK
6
CONTINUOUS
10
8.1616498818897636
20
-2.0898942913385827
11
8.1603700393700791
21
-2.0963284251968504
0
LINE
8
BLACK
6
CONTINUOUS
10
8.1603700393700791
20
-2.0963284251968504
11
8.1578595669291332
21
-2.1023892519685039
0
LINE
8
BLACK
6
CONTINUOUS
10
8.1578595669291332
20
-2.1023892519685039
11
8.1559055118110226
21
-2.1053137007874017
0
LINE
8
BLACK
6
CONTINUOUS
10
8.1559055118110226
20
-2.1053137007874017
11
8.1559055118110226
21
-2.2653543307086612
0
LINE
8
BLACK
6
CONTINUOUS
10
8.1559055118110226
20
-2.2653543307086612
11
8.1557727952755901
21
-2.2680555905511812
0
LINE
8
BLACK
6
CONTINUOUS
10
8.1557727952755901
20
-2.2680555905511812
11
8.1547188582677155
21
-2.2733542913385825
0
LINE
8
BLACK
6
CONTINUOUS
10
8.1547188582677155
20
-2.2733542913385825
11
8.1526513779527559
21
-2.2783455905511811
0
LINE
8
BLACK
6
CONTINUOUS
10
8.1526513779527559
20
-2.2783455905511811
11
8.1496498818897631
21
-2.2828375984251967
0
LINE
8
BLACK
6
CONTINUOUS
10
8.1496498818897631
20
-2.2828375984251967
11
8.147833661417323
21
-2.2848415354330709
0
LINE
8
BLACK
6
CONTINUOUS
10
8.147833661417323
20
-2.2848415354330709
11
7.9309045275590551
21
-2.5017706692913384
0
LINE
8
BLACK
6
CONTINUOUS
10
7.9309045275590551
20
-2.5017706692913384
11
7.9289005905511809
21
-2.5035868897637794
0
LINE
8
BLACK
6
CONTINUOUS
10
7.9289005905511809
20
-2.5035868897637794
11
7.9244085826771649
21
-2.5065883858267717
0
LINE
8
BLACK
6
CONTINUOUS
10
7.9244085826771649
20
-2.5065883858267717
11
7.9194172834645666
21
-2.5086558661417322
0
LINE
8
BLACK
6
CONTINUOUS
10
7.9194172834645666
20
-2.5086558661417322
11
7.9141185826771654
21
-2.5097098031496063
0
LINE
8
BLACK
6
CONTINUOUS
10
7.9141185826771654
20
-2.5097098031496063
11
7.9114173228346454
21
-2.5098425196850394
0
LINE
8
BLACK
6
CONTINUOUS
10
7.9114173228346454
20
-2.5098425196850394
11
7.8964747244094484
21
-2.5098425196850394
0
LINE
8
BLACK
6
CONTINUOUS
10
7.8964747244094484
20
-2.5098425196850394
11
7.8947918897637797
21
-2.5105395669291339
0
LINE
8
BLACK
6
CONTINUOUS
10
7.8947918897637797
20
-2.5105395669291339
11
7.8891146850393703
21
-2.5116688582677167
0
LINE
8
BLACK
6
CONTINUOUS
10
7.8891146850393703
20
-2.5116688582677167
11
7.8833262598425193
21
-2.5116688582677167
0
LINE
8
BLACK
6
CONTINUOUS
10
7.8833262598425193
20
-2.5116688582677167
11
7.87764905511811
21
-2.5105395669291339
0
LINE
8
BLACK
6
CONTINUOUS
10
7.87764905511811
20
-2.5105395669291339
11
7.8723012598425193
21
-2.5083244488188976
0
LINE
8
BLACK
6
CONTINUOUS
10
7.8723012598425193
20
-2.5083244488188976
11
7.8674883858267712
21
-2.5051085826771655
0
LINE
8
BLACK
6
CONTINUOUS
10
7.8674883858267712
20
-2.5051085826771655
11
7.8633953543307085
21
-2.5010155511811023
0
LINE
8
BLACK
6
CONTINUOUS
10
7.8633953543307085
20
-2.5010155511811023
11
7.8601794881889759
21
-2.4962026771653543
0
LINE
8
BLACK
6
CONTINUOUS
10
7.8601794881889759
20
-2.4962026771653543
11
7.85796437007874
21
-2.4908548818897636
0
LINE
8
BLACK
6
CONTINUOUS
10
7.85796437007874
20
-2.4908548818897636
11
7.8568350787401577
21
-2.4851776771653542
0
LINE
8
BLACK
6
CONTINUOUS
10
7.8568350787401577
20
-2.4851776771653542
11
7.8568350787401577
21
-2.4793892519685037
0
LINE
8
BLACK
6
CONTINUOUS
10
7.8568350787401577
20
-2.4793892519685037
11
7.85796437007874
21
-2.4737120472440943
0
LINE
8
BLACK
6
CONTINUOUS
10
7.85796437007874
20
-2.4737120472440943
11
7.8601794881889759
21
-2.4683642519685041
0
LINE
8
BLACK
6
CONTINUOUS
10
7.8601794881889759
20
-2.4683642519685041
11
7.8633953543307085
21
-2.463551377952756
0
LINE
8
BLACK
6
CONTINUOUS
10
7.8633953543307085
20
-2.463551377952756
11
7.8674883858267712
21
-2.4594583464566928
0
LINE
8
BLACK
6
CONTINUOUS
10
7.8674883858267712
20
-2.4594583464566928
11
7.8723012598425193
21
-2.4562424803149607
0
LINE
8
BLACK
6
CONTINUOUS
10
7.8723012598425193
20
-2.4562424803149607
11
7.87764905511811
21
-2.4540273622047244
0
LINE
8
BLACK
6
CONTINUOUS
10
7.87764905511811
20
-2.4540273622047244
11
7.8833262598425193
21
-2.4528980708661416
0
LINE
8
BLACK
6
CONTINUOUS
10
7.8833262598425193
20
-2.4528980708661416
11
7.8891146850393703
21
-2.4528980708661416
0
LINE
8
BLACK
6
CONTINUOUS
10
7.8891146850393703
20
-2.4528980708661416
11
7.8947918897637797
21
-2.4540273622047244
0
LINE
8
BLACK
6
CONTINUOUS
10
7.8947918897637797
20
-2.4540273622047244
11
7.8964747244094484
21
-2.454724409448819
0
LINE
8
BLACK
6
CONTINUOUS
10
7.8964747244094484
20
-2.454724409448819
11
7.9000019685039371
21
-2.454724409448819
0
LINE
8
BLACK
6
CONTINUOUS
10
7.9000019685039371
20
-2.454724409448819
11
8.1007874015748023
21
-2.2539389763779525
0
LINE
8
BLACK
6
CONTINUOUS
10
8.1007874015748023
20
-2.2539389763779525
11
8.1007874015748023
21
-2.1053137007874017
0
LINE
8
BLACK
6
CONTINUOUS
10
8.1007874015748023
20
-2.1053137007874017
11
8.0988333464566935
21
-2.1023892519685039
0
LINE
8
BLACK
6
CONTINUOUS
10
8.0988333464566935
20
-2.1023892519685039
11
8.0963228740157476
21
-2.0963284251968504
0
LINE
8
BLACK
6
CONTINUOUS
10
8.0963228740157476
20
-2.0963284251968504
11
8.0950430314960631
21
-2.0898942913385827
0
LINE
8
BLACK
6
CONTINUOUS
10
8.0950430314960631
20
-2.0898942913385827
11
8.0950430314960631
21
-2.0833340551181103
0
LINE
8
BLACK
6
CONTINUOUS
10
8.0950430314960631
20
-2.0833340551181103
11
8.0963228740157476
21
-2.0768999212598427
0
LINE
8
BLACK
6
CONTINUOUS
10
8.0963228740157476
20
-2.0768999212598427
11
8.0988333464566935
21
-2.0708390944881891
0
LINE
8
BLACK
6
CONTINUOUS
10
8.0988333464566935
20
-2.0708390944881891
11
8.1024779921259835
21
-2.0653844881889762
0
LINE
8
BLACK
6
CONTINUOUS
10
8.1024779921259835
20
-2.0653844881889762
11
8.1071167716535424
21
-2.0607457086614174
0
LINE
8
BLACK
6
CONTINUOUS
10
8.1071167716535424
20
-2.0607457086614174
11
8.1125713779527562
21
-2.057101062992126
0
LINE
8
BLACK
6
CONTINUOUS
10
8.1125713779527562
20
-2.057101062992126
11
8.1186322047244097
21
-2.054590590551181
0
LINE
8
BLACK
6
CONTINUOUS
10
8.1186322047244097
20
-2.054590590551181
11
8.1250663385826769
21
-2.053310748031496
0
LINE
8
BLACK
6
CONTINUOUS
10
8.1250663385826769
20
-2.053310748031496
11
8.1316265748031498
21
-2.053310748031496
0
LINE
8
BLACK
6
CONTINUOUS
10
8.1316265748031498
20
-2.053310748031496
11
8.138060708661417
21
-2.054590590551181
0
LINE
8
BLACK
6
CONTINUOUS
10
8.0794375590551173
20
-1.7827675196850394
11
8.0847853543307089
21
-1.7849826377952756
0
LINE
8
BLACK
6
CONTINUOUS
10
8.0847853543307089
20
-1.7849826377952756
11
8.0895982283464569
21
-1.7881985039370079
0
LINE
8
BLACK
6
CONTINUOUS
10
8.0895982283464569
20
-1.7881985039370079
11
8.0936912598425188
21
-1.7922915354330708
0
LINE
8
BLACK
6
CONTINUOUS
10
8.0936912598425188
20
-1.7922915354330708
11
8.0969071259842522
21
-1.7971044094488189
0
LINE
8
BLACK
6
CONTINUOUS
10
8.0969071259842522
20
-1.7971044094488189
11
8.0991222440944881
21
-1.8024522047244094
0
LINE
8
BLACK
6
CONTINUOUS
10
8.0991222440944881
20
-1.8024522047244094
11
8.1002515354330704
21
-1.8081294094488189
0
LINE
8
BLACK
6
CONTINUOUS
10
8.1002515354330704
20
-1.8081294094488189
11
8.1002515354330704
21
-1.8139178346456692
0
LINE
8
BLACK
6
CONTINUOUS
10
8.1002515354330704
20
-1.8139178346456692
11
8.0991222440944881
21
-1.8195950393700786
0
LINE
8
BLACK
6
CONTINUOUS
10
8.0991222440944881
20
-1.8195950393700786
11
8.0969071259842522
21
-1.8249428346456693
0
LINE
8
BLACK
6
CONTINUOUS
10
8.0969071259842522
20
-1.8249428346456693
11
8.0964566929133852
21
-1.8256169291338582
0
LINE
8
BLACK
6
CONTINUOUS
10
8.0964566929133852
20
-1.8256169291338582
11
8.0964566929133852
21
-1.9881889763779528
0
LINE
8
BLACK
6
CONTINUOUS
10
8.0964566929133852
20
-1.9881889763779528
11
8.0963334645669285
21
-1.9906972834645669
0
LINE
8
BLACK
6
CONTINUOUS
10
8.0963334645669285
20
-1.9906972834645669
11
8.0953547637795271
21
-1.9956175196850394
0
LINE
8
BLACK
6
CONTINUOUS
10
8.0953547637795271
20
-1.9956175196850394
11
8.0934349999999995
21
-2.0002522834645671
0
LINE
8
BLACK
6
CONTINUOUS
10
8.0934349999999995
20
-2.0002522834645671
11
8.0906479133858262
21
-2.004423464566929
0
LINE
8
BLACK
6
CONTINUOUS
10
8.0906479133858262
20
-2.004423464566929
11
8.0906474803149599
21
-2.0044238582677165
0
LINE
8
BLACK
6
CONTINUOUS
10
8.0906474803149599
20
-2.0044238582677165
11
8.0889613779527565
21
-2.0062842519685038
0
LINE
8
BLACK
6
CONTINUOUS
10
8.0889613779527565
20
-2.0062842519685038
11
8.03740157480315
21
-2.0578440157480316
0
LINE
8
BLACK
6
CONTINUOUS
10
8.03740157480315
20
-2.0578440157480316
11
8.03740157480315
21
-2.2637795275590551
0
LINE
8
BLACK
6
CONTINUOUS
10
8.03740157480315
20
-2.2637795275590551
11
8.0372783464566933
21
-2.2662878346456692
0
LINE
8
BLACK
6
CONTINUOUS
10
8.0372783464566933
20
-2.2662878346456692
11
8.0362996456692919
21
-2.2712080708661415
0
LINE
8
BLACK
6
CONTINUOUS
10
8.0362996456692919
20
-2.2712080708661415
11
8.0343798818897643
21
-2.2758428346456694
0
LINE
8
BLACK
6
CONTINUOUS
10
8.0343798818897643
20
-2.2758428346456694
11
8.031592795275591
21
-2.2800140157480313
0
LINE
8
BLACK
6
CONTINUOUS
10
8.031592795275591
20
-2.2800140157480313
11
8.0299062598425195
21
-2.2818747637795274
0
LINE
8
BLACK
6
CONTINUOUS
10
8.0299062598425195
20
-2.2818747637795274
11
7.9976227952755901
21
-2.3141582283464568
0
LINE
8
BLACK
6
CONTINUOUS
10
7.9976227952755901
20
-2.3141582283464568
11
7.995762047244094
21
-2.3158447637795274
0
LINE
8
BLACK
6
CONTINUOUS
10
7.995762047244094
20
-2.3158447637795274
11
7.9915908661417321
21
-2.3186318503937007
0
LINE
8
BLACK
6
CONTINUOUS
10
7.9915908661417321
20
-2.3186318503937007
11
7.9869561023622042
21
-2.3205516141732283
0
LINE
8
BLACK
6
CONTINUOUS
10
7.9869561023622042
20
-2.3205516141732283
11
7.9834442519685034
21
-2.321250157480315
0
LINE
8
BLACK
6
CONTINUOUS
10
7.9834442519685034
20
-2.321250157480315
11
7.9146347244094484
21
-2.3900596456692913
0
LINE
8
BLACK
6
CONTINUOUS
10
7.9146347244094484
20
-2.3900596456692913
11
7.9144765748031496
21
-2.3908548818897639
0
LINE
8
BLACK
6
CONTINUOUS
10
7.9144765748031496
20
-2.3908548818897639
11
7.9122614566929128
21
-2.3962026771653542
0
LINE
8
BLACK
6
CONTINUOUS
10
7.9122614566929128
20
-2.3962026771653542
11
7.9090455905511812
21
-2.4010155511811022
0
LINE
8
BLACK
6
CONTINUOUS
10
7.9090455905511812
20
-2.4010155511811022
11
7.9049525590551175
21
-2.4051085826771654
0
LINE
8
BLACK
6
CONTINUOUS
10
7.9049525590551175
20
-2.4051085826771654
11
7.9001396850393695
21
-2.4083244488188975
0
LINE
8
BLACK
6
CONTINUOUS
10
7.9001396850393695
20
-2.4083244488188975
11
7.8947918897637797
21
-2.4105395669291338
0
LINE
8
BLACK
6
CONTINUOUS
10
7.8947918897637797
20
-2.4105395669291338
11
7.8891146850393703
21
-2.4116688582677166
0
LINE
8
BLACK
6
CONTINUOUS
10
7.8891146850393703
20
-2.4116688582677166
11
7.8833262598425193
21
-2.4116688582677166
0
LINE
8
BLACK
6
CONTINUOUS
10
7.8833262598425193
20
-2.4116688582677166
11
7.87764905511811
21
-2.4105395669291338
0
LINE
8
BLACK
6
CONTINUOUS
10
7.87764905511811
20
-2.4105395669291338
11
7.8723012598425193
21
-2.4083244488188975
0
LINE
8
BLACK
6
CONTINUOUS
10
7.8723012598425193
20
-2.4083244488188975
11
7.8674883858267712
21
-2.4051085826771654
0
LINE
8
BLACK
6
CONTINUOUS
10
7.8674883858267712
20
-2.4051085826771654
11
7.8633953543307085
21
-2.4010155511811022
0
LINE
8
BLACK
6
CONTINUOUS
10
7.8633953543307085
20
-2.4010155511811022
11
7.8601794881889759
21
-2.3962026771653542
0
LINE
8
BLACK
6
CONTINUOUS
10
7.8601794881889759
20
-2.3962026771653542
11
7.85796437007874
21
-2.3908548818897639
0
LINE
8
BLACK
6
CONTINUOUS
10
7.85796437007874
20
-2.3908548818897639
11
7.8568350787401577
21
-2.3851776771653541
0
LINE
8
BLACK
6
CONTINUOUS
10
7.8568350787401577
20
-2.3851776771653541
11
7.8568350787401577
21
-2.379389251968504
0
LINE
8
BLACK
6
CONTINUOUS
10
7.8568350787401577
20
-2.379389251968504
11
7.85796437007874
21
-2.3737120472440942
0
LINE
8
BLACK
6
CONTINUOUS
10
7.85796437007874
20
-2.3737120472440942
11
7.8601794881889759
21
-2.368364251968504
0
LINE
8
BLACK
6
CONTINUOUS
10
7.8601794881889759
20
-2.368364251968504
11
7.8633953543307085
21
-2.3635513779527559
0
LINE
8
BLACK
6
CONTINUOUS
10
7.8633953543307085
20
-2.3635513779527559
11
7.8674883858267712
21
-2.3594583464566927
0
LINE
8
BLACK
6
CONTINUOUS
10
7.8674883858267712
20
-2.3594583464566927
11
7.8723012598425193
21
-2.3562424803149606
0
LINE
8
BLACK
6
CONTINUOUS
10
7.8723012598425193
20
-2.3562424803149606
11
7.87764905511811
21
-2.3540273622047243
0
LINE
8
BLACK
6
CONTINUOUS
10
7.87764905511811
20
-2.3540273622047243
11
7.8784442519685038
21
-2.3538691732283463
0
LINE
8
BLACK
6
CONTINUOUS
10
7.8784442519685038
20
-2.3538691732283463
11
7.9543457086614175
21
-2.2779677165354331
0
LINE
8
BLACK
6
CONTINUOUS
10
7.9543457086614175
20
-2.2779677165354331
11
7.9562060629921261
21
-2.2762815748031495
0
LINE
8
BLACK
6
CONTINUOUS
10
7.9562060629921261
20
-2.2762815748031495
11
7.9562064566929136
21
-2.2762812204724407
0
LINE
8
BLACK
6
CONTINUOUS
10
7.9562064566929136
20
-2.2762812204724407
11
7.9603776377952755
21
-2.2734941338582675
0
LINE
8
BLACK
6
CONTINUOUS
10
7.9603776377952755
20
-2.2734941338582675
11
7.9607152362204721
21
-2.2733542913385825
0
LINE
8
BLACK
6
CONTINUOUS
10
7.9607152362204721
20
-2.2733542913385825
11
7.9650124015748034
21
-2.2715743307086615
0
LINE
8
BLACK
6
CONTINUOUS
10
7.9650124015748034
20
-2.2715743307086615
11
7.9685242913385821
21
-2.2708757480314961
0
LINE
8
BLACK
6
CONTINUOUS
10
7.9685242913385821
20
-2.2708757480314961
11
7.9862204724409445
21
-2.2531796062992124
0
LINE
8
BLACK
6
CONTINUOUS
10
7.9862204724409445
20
-2.2531796062992124
11
7.9862204724409445
21
-2.0472440944881889
0
LINE
8
BLACK
6
CONTINUOUS
10
7.9862204724409445
20
-2.0472440944881889
11
7.9863437007874012
21
-2.0447357874015748
0
LINE
8
BLACK
6
CONTINUOUS
10
7.9863437007874012
20
-2.0447357874015748
11
7.9873224015748026
21
-2.0398155511811025
0
LINE
8
BLACK
6
CONTINUOUS
10
7.9873224015748026
20
-2.0398155511811025
11
7.9892421653543302
21
-2.0351807874015746
0
LINE
8
BLACK
6
CONTINUOUS
10
7.9892421653543302
20
-2.0351807874015746
11
7.9920292519685034
21
-2.0310096062992127
0
LINE
8
BLACK
6
CONTINUOUS
10
7.9920292519685034
20
-2.0310096062992127
11
7.993715787401575
21
-2.0291488582677166
0
LINE
8
BLACK
6
CONTINUOUS
10
7.993715787401575
20
-2.0291488582677166
11
8.0452755905511815
21
-1.9775890157480314
0
LINE
8
BLACK
6
CONTINUOUS
10
8.0452755905511815
20
-1.9775890157480314
11
8.0452755905511815
21
-1.8256169291338582
0
LINE
8
BLACK
6
CONTINUOUS
10
8.0452755905511815
20
-1.8256169291338582
11
8.0448251574803145
21
-1.8249428346456693
0
LINE
8
BLACK
6
CONTINUOUS
10
8.0448251574803145
20
-1.8249428346456693
11
8.0426100393700786
21
-1.8195950393700786
0
LINE
8
BLACK
6
CONTINUOUS
10
8.0426100393700786
20
-1.8195950393700786
11
8.0414807480314963
21
-1.8139178346456692
0
LINE
8
BLACK
6
CONTINUOUS
10
8.0414807480314963
20
-1.8139178346456692
11
8.0414807480314963
21
-1.8081294094488189
0
LINE
8
BLACK
6
CONTINUOUS
10
8.0414807480314963
20
-1.8081294094488189
11
8.0426100393700786
21
-1.8024522047244094
0
LINE
8
BLACK
6
CONTINUOUS
10
8.0426100393700786
20
-1.8024522047244094
11
8.0448251574803145
21
-1.7971044094488189
0
LINE
8
BLACK
6
CONTINUOUS
10
8.0448251574803145
20
-1.7971044094488189
11
8.0480410236220479
21
-1.7922915354330708
0
LINE
8
BLACK
6
CONTINUOUS
10
8.0480410236220479
20
-1.7922915354330708
11
8.0521340551181098
21
-1.7881985039370079
0
LINE
8
BLACK
6
CONTINUOUS
10
8.0521340551181098
20
-1.7881985039370079
11
8.0569469291338578
21
-1.7849826377952756
0
LINE
8
BLACK
6
CONTINUOUS
10
8.0569469291338578
20
-1.7849826377952756
11
8.0622947244094494
21
-1.7827675196850394
0
LINE
8
BLACK
6
CONTINUOUS
10
8.0622947244094494
20
-1.7827675196850394
11
8.0679719291338579
21
-1.7816382283464567
0
LINE
8
BLACK
6
CONTINUOUS
10
8.0679719291338579
20
-1.7816382283464567
11
8.0737603543307088
21
-1.7816382283464567
0
LINE
8
BLACK
6
CONTINUOUS
10
8.0737603543307088
20
-1.7816382283464567
11
8.0794375590551173
21
-1.7827675196850394
0
LINE
8
BLACK
6
CONTINUOUS
10
8.0006974015748025
20
-1.8418226377952756
11
8.0060451968503941
21
-1.8440377559055117
0
LINE
8
BLACK
6
CONTINUOUS
10
8.0060451968503941
20
-1.8440377559055117
11
8.0108580708661421
21
-1.847253622047244
0
LINE
8
BLACK
6
CONTINUOUS
10
8.0108580708661421
20
-1.847253622047244
11
8.014951102362204
21
-1.851346653543307
0
LINE
8
BLACK
6
CONTINUOUS
10
8.014951102362204
20
-1.851346653543307
11
8.0181669685039374
21
-1.856159527559055
0
LINE
8
BLACK
6
CONTINUOUS
10
8.0181669685039374
20
-1.856159527559055
11
8.0203820866141733
21
-1.8615073228346457
0
LINE
8
BLACK
6
CONTINUOUS
10
8.0203820866141733
20
-1.8615073228346457
11
8.0215113779527556
21
-1.8671845275590551
0
LINE
8
BLACK
6
CONTINUOUS
10
8.0215113779527556
20
-1.8671845275590551
11
8.0215113779527556
21
-1.8729729527559054
0
LINE
8
BLACK
6
CONTINUOUS
10
8.0215113779527556
20
-1.8729729527559054
11
8.0203820866141733
21
-1.8786501574803149
0
LINE
8
BLACK
6
CONTINUOUS
10
8.0203820866141733
20
-1.8786501574803149
11
8.0181669685039374
21
-1.8839979527559054
0
LINE
8
BLACK
6
CONTINUOUS
10
8.0181669685039374
20
-1.8839979527559054
11
8.014951102362204
21
-1.8888108267716535
0
LINE
8
BLACK
6
CONTINUOUS
10
8.014951102362204
20
-1.8888108267716535
11
8.0118110236220463
21
-1.8919509055118109
0
LINE
8
BLACK
6
CONTINUOUS
10
8.0118110236220463
20
-1.8919509055118109
11
8.0118110236220463
21
-1.9763779527559056
0
LINE
8
BLACK
6
CONTINUOUS
10
8.0118110236220463
20
-1.9763779527559056
11
8.0116426377952745
21
-1.9789467322834646
0
LINE
8
BLACK
6
CONTINUOUS
10
8.0116426377952745
20
-1.9789467322834646
11
8.0116426377952745
21
-1.9789473622047244
0
LINE
8
BLACK
6
CONTINUOUS
10
8.0116426377952745
20
-1.9789473622047244
11
8.0111568110236213
21
-1.9807604330708661
0
LINE
8
BLACK
6
CONTINUOUS
10
8.0111568110236213
20
-1.9807604330708661
11
8.0103125984251964
21
-1.9839111023622047
0
LINE
8
BLACK
6
CONTINUOUS
10
8.0103125984251964
20
-1.9839111023622047
11
8.0077431889763773
21
-1.9883614566929133
0
LINE
8
BLACK
6
CONTINUOUS
10
8.0077431889763773
20
-1.9883614566929133
11
8.0077428346456685
21
-1.9883617716535433
0
LINE
8
BLACK
6
CONTINUOUS
10
8.0077428346456685
20
-1.9883617716535433
11
8.0060453937007878
21
-1.9902974015748032
0
LINE
8
BLACK
6
CONTINUOUS
10
8.0060453937007878
20
-1.9902974015748032
11
7.9156058661417319
21
-2.0807368897637795
0
LINE
8
BLACK
6
CONTINUOUS
10
7.9156058661417319
20
-2.0807368897637795
11
7.9156058661417319
21
-2.0851776771653543
0
LINE
8
BLACK
6
CONTINUOUS
10
7.9156058661417319
20
-2.0851776771653543
11
7.9144765748031496
21
-2.0908548818897637
0
LINE
8
BLACK
6
CONTINUOUS
10
7.9144765748031496
20
-2.0908548818897637
11
7.9122614566929128
21
-2.0962026771653544
0
LINE
8
BLACK
6
CONTINUOUS
10
7.9122614566929128
20
-2.0962026771653544
11
7.9090455905511812
21
-2.1010155511811024
0
LINE
8
BLACK
6
CONTINUOUS
10
7.9090455905511812
20
-2.1010155511811024
11
7.9049525590551175
21
-2.1051085826771652
0
LINE
8
BLACK
6
CONTINUOUS
10
7.9049525590551175
20
-2.1051085826771652
11
7.9001396850393695
21
-2.1083244488188977
0
LINE
8
BLACK
6
CONTINUOUS
10
7.9001396850393695
20
-2.1083244488188977
11
7.8947918897637797
21
-2.110539566929134
0
LINE
8
BLACK
6
CONTINUOUS
10
7.8947918897637797
20
-2.110539566929134
11
7.8891146850393703
21
-2.1116688582677163
0
LINE
8
BLACK
6
CONTINUOUS
10
7.8891146850393703
20
-2.1116688582677163
11
7.8833262598425193
21
-2.1116688582677163
0
LINE
8
BLACK
6
CONTINUOUS
10
7.8833262598425193
20
-2.1116688582677163
11
7.87764905511811
21
-2.110539566929134
0
LINE
8
BLACK
6
CONTINUOUS
10
7.87764905511811
20
-2.110539566929134
11
7.8723012598425193
21
-2.1083244488188977
0
LINE
8
BLACK
6
CONTINUOUS
10
7.8723012598425193
20
-2.1083244488188977
11
7.8674883858267712
21
-2.1051085826771652
0
LINE
8
BLACK
6
CONTINUOUS
10
7.8674883858267712
20
-2.1051085826771652
11
7.8633953543307085
21
-2.1010155511811024
0
LINE
8
BLACK
6
CONTINUOUS
10
7.8633953543307085
20
-2.1010155511811024
11
7.8601794881889759
21
-2.0962026771653544
0
LINE
8
BLACK
6
CONTINUOUS
10
7.8601794881889759
20
-2.0962026771653544
11
7.85796437007874
21
-2.0908548818897637
0
LINE
8
BLACK
6
CONTINUOUS
10
7.85796437007874
20
-2.0908548818897637
11
7.8568350787401577
21
-2.0851776771653543
0
LINE
8
BLACK
6
CONTINUOUS
10
7.8568350787401577
20
-2.0851776771653543
11
7.8568350787401577
21
-2.0793892519685038
0
LINE
8
BLACK
6
CONTINUOUS
10
7.8568350787401577
20
-2.0793892519685038
11
7.85796437007874
21
-2.0737120472440944
0
LINE
8
BLACK
6
CONTINUOUS
10
7.85796437007874
20
-2.0737120472440944
11
7.8601794881889759
21
-2.0683642519685037
0
LINE
8
BLACK
6
CONTINUOUS
10
7.8601794881889759
20
-2.0683642519685037
11
7.8633953543307085
21
-2.0635513779527557
0
LINE
8
BLACK
6
CONTINUOUS
10
7.8633953543307085
20
-2.0635513779527557
11
7.8674883858267712
21
-2.0594583464566929
0
LINE
8
BLACK
6
CONTINUOUS
10
7.8674883858267712
20
-2.0594583464566929
11
7.8723012598425193
21
-2.0562424803149604
0
LINE
8
BLACK
6
CONTINUOUS
10
7.8723012598425193
20
-2.0562424803149604
11
7.87764905511811
21
-2.0540273622047245
0
LINE
8
BLACK
6
CONTINUOUS
10
7.87764905511811
20
-2.0540273622047245
11
7.8833262598425193
21
-2.0528980708661417
0
LINE
8
BLACK
6
CONTINUOUS
10
7.8833262598425193
20
-2.0528980708661417
11
7.8877670472440942
21
-2.0528980708661417
0
LINE
8
BLACK
6
CONTINUOUS
10
7.8877670472440942
20
-2.0528980708661417
11
7.9724409448818898
21
-1.9682241338582678
0
LINE
8
BLACK
6
CONTINUOUS
10
7.9724409448818898
20
-1.9682241338582678
11
7.9724409448818898
21
-1.8919509055118109
0
LINE
8
BLACK
6
CONTINUOUS
10
7.9724409448818898
20
-1.8919509055118109
11
7.9693008661417322
21
-1.8888108267716535
0
LINE
8
BLACK
6
CONTINUOUS
10
7.9693008661417322
20
-1.8888108267716535
11
7.9660849999999996
21
-1.8839979527559054
0
LINE
8
BLACK
6
CONTINUOUS
10
7.9660849999999996
20
-1.8839979527559054
11
7.9638698818897637
21
-1.8786501574803149
0
LINE
8
BLACK
6
CONTINUOUS
10
7.9638698818897637
20
-1.8786501574803149
11
7.9627405905511806
21
-1.8729729527559054
0
LINE
8
BLACK
6
CONTINUOUS
10
7.9627405905511806
20
-1.8729729527559054
11
7.9627405905511806
21
-1.8671845275590551
0
LINE
8
BLACK
6
CONTINUOUS
10
7.9627405905511806
20
-1.8671845275590551
11
7.9638698818897637
21
-1.8615073228346457
0
LINE
8
BLACK
6
CONTINUOUS
10
7.9638698818897637
20
-1.8615073228346457
11
7.9660849999999996
21
-1.856159527559055
0
LINE
8
BLACK
6
CONTINUOUS
10
7.9660849999999996
20
-1.856159527559055
11
7.9693008661417322
21
-1.851346653543307
0
LINE
8
BLACK
6
CONTINUOUS
10
7.9693008661417322
20
-1.851346653543307
11
7.9733938976377949
21
-1.847253622047244
0
LINE
8
BLACK
6
CONTINUOUS
10
7.9733938976377949
20
-1.847253622047244
11
7.978206771653543
21
-1.8440377559055117
0
LINE
8
BLACK
6
CONTINUOUS
10
7.978206771653543
20
-1.8440377559055117
11
7.9835545669291337
21
-1.8418226377952756
0
LINE
8
BLACK
6
CONTINUOUS
10
7.9835545669291337
20
-1.8418226377952756
11
7.989231771653543
21
-1.8406933464566928
0
LINE
8
BLACK
6
CONTINUOUS
10
7.989231771653543
20
-1.8406933464566928
11
7.9950201968503931
21
-1.8406933464566928
0
LINE
8
BLACK
6
CONTINUOUS
10
7.9950201968503931
20
-1.8406933464566928
11
8.0006974015748025
21
-1.8418226377952756
0
LINE
8
BLACK
6
CONTINUOUS
10
7.4637470078740158
20
-1.4765644488188976
11
7.4824753543307088
21
-1.4765644488188976
0
LINE
8
BLACK
6
CONTINUOUS
10
7.4824753543307088
20
-1.4765644488188976
11
7.5261407480314961
21
-1.4780561023622047
0
LINE
8
BLACK
6
CONTINUOUS
10
7.5261407480314961
20
-1.4780561023622047
11
7.5697297637795273
21
-1.4810376771653544
0
LINE
8
BLACK
6
CONTINUOUS
10
7.5697297637795273
20
-1.4810376771653544
11
7.6131915354330708
21
-1.4855056692913386
0
LINE
8
BLACK
6
CONTINUOUS
10
7.6131915354330708
20
-1.4855056692913386
11
7.6564754724409445
21
-1.4914549212598425
0
LINE
8
BLACK
6
CONTINUOUS
10
7.6564754724409445
20
-1.4914549212598425
11
7.6995310236220469
21
-1.4988784645669291
0
LINE
8
BLACK
6
CONTINUOUS
10
7.6995310236220469
20
-1.4988784645669291
11
7.7423080708661418
21
-1.5077676377952756
0
LINE
8
BLACK
6
CONTINUOUS
10
7.7423080708661418
20
-1.5077676377952756
11
7.7847566535433073
21
-1.5181120472440945
0
LINE
8
BLACK
6
CONTINUOUS
10
7.7847566535433073
20
-1.5181120472440945
11
7.8268273622047246
21
-1.5298997244094488
0
LINE
8
BLACK
6
CONTINUOUS
10
7.8268273622047246
20
-1.5298997244094488
11
7.8684710629921257
21
-1.5431168503937007
0
LINE
8
BLACK
6
CONTINUOUS
10
7.8684710629921257
20
-1.5431168503937007
11
7.9096392519685041
21
-1.557748031496063
0
LINE
8
BLACK
6
CONTINUOUS
10
7.9096392519685041
20
-1.557748031496063
11
7.9502839370078737
21
-1.5737761811023621
0
LINE
8
BLACK
6
CONTINUOUS
10
7.9502839370078737
20
-1.5737761811023621
11
7.9903576771653544
21
-1.5911826771653543
0
LINE
8
BLACK
6
CONTINUOUS
10
7.9903576771653544
20
-1.5911826771653543
11
8.0298137795275597
21
-1.6099471653543307
0
LINE
8
BLACK
6
CONTINUOUS
10
8.0298137795275597
20
-1.6099471653543307
11
8.0686062598425199
21
-1.6300477952755905
0
LINE
8
BLACK
6
CONTINUOUS
10
8.0686062598425199
20
-1.6300477952755905
11
8.1066898425196854
21
-1.6514611417322835
0
LINE
8
BLACK
6
CONTINUOUS
10
8.1066898425196854
20
-1.6514611417322835
11
8.1440201574803144
21
-1.6741622047244094
0
LINE
8
BLACK
6
CONTINUOUS
10
8.1440201574803144
20
-1.6741622047244094
11
8.1805536614173224
21
-1.6981245669291338
0
LINE
8
BLACK
6
CONTINUOUS
10
8.1805536614173224
20
-1.6981245669291338
11
8.2162477952755903
21
-1.7233201968503937
0
LINE
8
BLACK
6
CONTINUOUS
10
8.2162477952755903
20
-1.7233201968503937
11
8.2510609055118103
21
-1.7497198031496062
0
LINE
8
BLACK
6
CONTINUOUS
10
8.2510609055118103
20
-1.7497198031496062
11
8.2849524015748024
21
-1.7772925984251968
0
LINE
8
BLACK
6
CONTINUOUS
10
8.2849524015748024
20
-1.7772925984251968
11
8.3178827559055115
21
-1.8060063779527558
0
LINE
8
BLACK
6
CONTINUOUS
10
8.3178827559055115
20
-1.8060063779527558
11
8.3498136220472432
21
-1.8358277165354331
0
LINE
8
BLACK
6
CONTINUOUS
10
8.3498136220472432
20
-1.8358277165354331
11
8.3807077165354329
21
-1.8667218110236221
0
LINE
8
BLACK
6
CONTINUOUS
10
8.3807077165354329
20
-1.8667218110236221
11
8.4105290551181096
21
-1.8986526771653542
0
LINE
8
BLACK
6
CONTINUOUS
10
8.4105290551181096
20
-1.8986526771653542
11
8.4392428346456683
21
-1.9315830314960629
0
LINE
8
BLACK
6
CONTINUOUS
10
8.4392428346456683
20
-1.9315830314960629
11
8.4668156299212605
21
-1.9654745275590551
0
LINE
8
BLACK
6
CONTINUOUS
10
8.4668156299212605
20
-1.9654745275590551
11
8.4932152362204718
21
-2.0002876377952754
0
LINE
8
BLACK
6
CONTINUOUS
10
8.4932152362204718
20
-2.0002876377952754
11
8.5184108661417319
21
-2.0359817716535433
0
LINE
8
BLACK
6
CONTINUOUS
10
8.5184108661417319
20
-2.0359817716535433
11
8.542373228346456
21
-2.0725152755905509
0
LINE
8
BLACK
6
CONTINUOUS
10
8.542373228346456
20
-2.0725152755905509
11
8.5650742913385827
21
-2.1098455905511813
0
LINE
8
BLACK
6
CONTINUOUS
10
8.5650742913385827
20
-2.1098455905511813
11
8.5864876377952761
21
-2.1479291732283463
0
LINE
8
BLACK
6
CONTINUOUS
10
8.5864876377952761
20
-2.1479291732283463
11
8.6065882677165355
21
-2.1867216535433069
0
LINE
8
BLACK
6
CONTINUOUS
10
8.6065882677165355
20
-2.1867216535433069
11
8.6253527559055119
21
-2.2261777559055118
0
LINE
8
BLACK
6
CONTINUOUS
10
8.6253527559055119
20
-2.2261777559055118
11
8.6427592519685046
21
-2.266251496062992
0
LINE
8
BLACK
6
CONTINUOUS
10
8.6427592519685046
20
-2.266251496062992
11
8.6587874015748021
21
-2.3068961811023621
0
LINE
8
BLACK
6
CONTINUOUS
10
8.6587874015748021
20
-2.3068961811023621
11
8.673418582677165
21
-2.34806437007874
0
LINE
8
BLACK
6
CONTINUOUS
10
8.673418582677165
20
-2.34806437007874
11
8.6866357086614165
21
-2.3897080708661416
0
LINE
8
BLACK
6
CONTINUOUS
10
8.6866357086614165
20
-2.3897080708661416
11
8.6984233858267714
21
-2.4317787795275589
0
LINE
8
BLACK
6
CONTINUOUS
10
8.6984233858267714
20
-2.4317787795275589
11
8.7087677952755911
21
-2.4742273622047244
0
LINE
8
BLACK
6
CONTINUOUS
10
8.7087677952755911
20
-2.4742273622047244
11
8.7176569685039365
21
-2.5170044094488189
0
LINE
8
BLACK
6
CONTINUOUS
10
8.7176569685039365
20
-2.5170044094488189
11
8.725080511811024
21
-2.5600599606299212
0
LINE
8
BLACK
6
CONTINUOUS
10
8.725080511811024
20
-2.5600599606299212
11
8.731029763779528
21
-2.6033438976377954
0
LINE
8
BLACK
6
CONTINUOUS
10
8.731029763779528
20
-2.6033438976377954
11
8.7354977559055111
21
-2.6468056692913384
0
LINE
8
BLACK
6
CONTINUOUS
10
8.7354977559055111
20
-2.6468056692913384
11
8.7384793307086603
21
-2.6903946850393701
0
LINE
8
BLACK
6
CONTINUOUS
10
8.7384793307086603
20
-2.6903946850393701
11
8.7399709842519684
21
-2.7340600787401574
0
LINE
8
BLACK
6
CONTINUOUS
10
8.7399709842519684
20
-2.7340600787401574
11
8.7399709842519684
21
-2.7777509448818898
0
LINE
8
BLACK
6
CONTINUOUS
10
8.7399709842519684
20
-2.7777509448818898
11
8.7384793307086603
21
-2.8214163385826772
0
LINE
8
BLACK
6
CONTINUOUS
10
8.7384793307086603
20
-2.8214163385826772
11
8.7354977559055111
21
-2.8650053543307088
0
LINE
8
BLACK
6
CONTINUOUS
10
8.7354977559055111
20
-2.8650053543307088
11
8.731029763779528
21
-2.9084671259842518
0
LINE
8
BLACK
6
CONTINUOUS
10
8.731029763779528
20
-2.9084671259842518
11
8.725080511811024
21
-2.951751062992126
0
LINE
8
BLACK
6
CONTINUOUS
10
8.725080511811024
20
-2.951751062992126
11
8.7176569685039365
21
-2.9948066141732284
0
LINE
8
BLACK
6
CONTINUOUS
10
8.7176569685039365
20
-2.9948066141732284
11
8.7087677952755911
21
-3.0375836614173228
0
LINE
8
BLACK
6
CONTINUOUS
10
8.7087677952755911
20
-3.0375836614173228
11
8.6984233858267714
21
-3.0800322440944883
0
LINE
8
BLACK
6
CONTINUOUS
10
8.6984233858267714
20
-3.0800322440944883
11
8.6866357086614165
21
-3.1221029527559057
0
LINE
8
BLACK
6
CONTINUOUS
10
8.6866357086614165
20
-3.1221029527559057
11
8.673418582677165
21
-3.1637466535433072
0
LINE
8
BLACK
6
CONTINUOUS
10
8.673418582677165
20
-3.1637466535433072
11
8.6587874015748021
21
-3.2049148425196852
0
LINE
8
BLACK
6
CONTINUOUS
10
8.6587874015748021
20
-3.2049148425196852
11
8.6427592519685046
21
-3.2455595275590552
0
LINE
8
BLACK
6
CONTINUOUS
10
8.6427592519685046
20
-3.2455595275590552
11
8.6253527559055119
21
-3.2856332677165354
0
LINE
8
BLACK
6
CONTINUOUS
10
8.6253527559055119
20
-3.2856332677165354
11
8.6065882677165355
21
-3.3250893700787403
0
LINE
8
BLACK
6
CONTINUOUS
10
8.6065882677165355
20
-3.3250893700787403
11
8.5864876377952761
21
-3.3638818503937009
0
LINE
8
BLACK
6
CONTINUOUS
10
8.5864876377952761
20
-3.3638818503937009
11
8.5650742913385827
21
-3.401965433070866
0
LINE
8
BLACK
6
CONTINUOUS
10
8.5650742913385827
20
-3.401965433070866
11
8.542373228346456
21
-3.4392957480314958
0
LINE
8
BLACK
6
CONTINUOUS
10
8.542373228346456
20
-3.4392957480314958
11
8.5184108661417319
21
-3.4758292519685039
0
LINE
8
BLACK
6
CONTINUOUS
10
8.5184108661417319
20
-3.4758292519685039
11
8.4932152362204718
21
-3.5115233858267714
0
LINE
8
BLACK
6
CONTINUOUS
10
8.4932152362204718
20
-3.5115233858267714
11
8.4668156299212605
21
-3.5463364960629922
0
LINE
8
BLACK
6
CONTINUOUS
10
8.4668156299212605
20
-3.5463364960629922
11
8.4392428346456683
21
-3.5802279921259843
0
LINE
8
BLACK
6
CONTINUOUS
10
8.4392428346456683
20
-3.5802279921259843
11
8.4105290551181096
21
-3.613158346456693
0
LINE
8
BLACK
6
CONTINUOUS
10
8.4105290551181096
20
-3.613158346456693
11
8.3807077165354329
21
-3.6450892125984251
0
LINE
8
BLACK
6
CONTINUOUS
10
8.3807077165354329
20
-3.6450892125984251
11
8.3498136220472432
21
-3.6759833070866139
0
LINE
8
BLACK
6
CONTINUOUS
10
8.3498136220472432
20
-3.6759833070866139
11
8.3178827559055115
21
-3.7058046456692915
0
LINE
8
BLACK
6
CONTINUOUS
10
8.3178827559055115
20
-3.7058046456692915
11
8.2849524015748024
21
-3.7345184251968502
0
LINE
8
BLACK
6
CONTINUOUS
10
8.2849524015748024
20
-3.7345184251968502
11
8.2510609055118103
21
-3.762091220472441
0
LINE
8
BLACK
6
CONTINUOUS
10
8.2510609055118103
20
-3.762091220472441
11
8.2162477952755903
21
-3.7884908267716533
0
LINE
8
BLACK
6
CONTINUOUS
10
8.2162477952755903
20
-3.7884908267716533
11
8.1805536614173224
21
-3.8136864566929134
0
LINE
8
BLACK
6
CONTINUOUS
10
8.1805536614173224
20
-3.8136864566929134
11
8.1440201574803144
21
-3.8376488188976379
0
LINE
8
BLACK
6
CONTINUOUS
10
8.1440201574803144
20
-3.8376488188976379
11
8.1066898425196854
21
-3.8603498818897637
0
LINE
8
BLACK
6
CONTINUOUS
10
8.1066898425196854
20
-3.8603498818897637
11
8.0686062598425199
21
-3.8817632283464567
0
LINE
8
BLACK
6
CONTINUOUS
10
8.0686062598425199
20
-3.8817632283464567
11
8.0298137795275597
21
-3.9018638582677165
0
LINE
8
BLACK
6
CONTINUOUS
10
8.0298137795275597
20
-3.9018638582677165
11
7.9903576771653544
21
-3.9206283464566929
0
LINE
8
BLACK
6
CONTINUOUS
10
7.9903576771653544
20
-3.9206283464566929
11
7.9502839370078737
21
-3.9380348425196852
0
LINE
8
BLACK
6
CONTINUOUS
10
7.9502839370078737
20
-3.9380348425196852
11
7.9096392519685041
21
-3.954062992125984
0
LINE
8
BLACK
6
CONTINUOUS
10
7.9096392519685041
20
-3.954062992125984
11
7.8684710629921257
21
-3.9686941732283465
0
LINE
8
BLACK
6
CONTINUOUS
10
7.8684710629921257
20
-3.9686941732283465
11
7.8268273622047246
21
-3.9819112992125985
0
LINE
8
BLACK
6
CONTINUOUS
10
7.8268273622047246
20
-3.9819112992125985
11
7.7847566535433073
21
-3.9936989763779525
0
LINE
8
BLACK
6
CONTINUOUS
10
7.7847566535433073
20
-3.9936989763779525
11
7.7423080708661418
21
-4.0040433858267717
0
LINE
8
BLACK
6
CONTINUOUS
10
7.7423080708661418
20
-4.0040433858267717
11
7.6995310236220469
21
-4.0129325590551179
0
LINE
8
BLACK
6
CONTINUOUS
10
7.6995310236220469
20
-4.0129325590551179
11
7.6564754724409445
21
-4.0203561023622045
0
LINE
8
BLACK
6
CONTINUOUS
10
7.6564754724409445
20
-4.0203561023622045
11
7.6131915354330708
21
-4.0263053543307086
0
LINE
8
BLACK
6
CONTINUOUS
10
7.6131915354330708
20
-4.0263053543307086
11
7.5697297637795273
21
-4.0307733464566926
0
LINE
8
BLACK
6
CONTINUOUS
10
7.5697297637795273
20
-4.0307733464566926
11
7.5261407480314961
21
-4.0337549212598427
0
LINE
8
BLACK
6
CONTINUOUS
10
7.5261407480314961
20
-4.0337549212598427
11
7.4824753543307088
21
-4.0352465748031499
0
LINE
8
BLACK
6
CONTINUOUS
10
7.4824753543307088
20
-4.0352465748031499
11
7.4387844881889764
21
-4.0352465748031499
0
LINE
8
BLACK
6
CONTINUOUS
10
7.4387844881889764
20
-4.0352465748031499
11
7.395119094488189
21
-4.0337549212598427
0
LINE
8
BLACK
6
CONTINUOUS
10
7.395119094488189
20
-4.0337549212598427
11
7.351530078740157
21
-4.0307733464566926
0
LINE
8
BLACK
6
CONTINUOUS
10
7.351530078740157
20
-4.0307733464566926
11
7.3080683070866144
21
-4.0263053543307086
0
LINE
8
BLACK
6
CONTINUOUS
10
7.3080683070866144
20
-4.0263053543307086
11
7.2647843700787398
21
-4.0203561023622045
0
LINE
8
BLACK
6
CONTINUOUS
10
7.2647843700787398
20
-4.0203561023622045
11
7.2217288188976374
21
-4.0129325590551179
0
LINE
8
BLACK
6
CONTINUOUS
10
7.2217288188976374
20
-4.0129325590551179
11
7.1789517716535434
21
-4.0040433858267717
0
LINE
8
BLACK
6
CONTINUOUS
10
7.1789517716535434
20
-4.0040433858267717
11
7.1365031889763779
21
-3.9936989763779525
0
LINE
8
BLACK
6
CONTINUOUS
10
7.1365031889763779
20
-3.9936989763779525
11
7.0944324803149605
21
-3.9819112992125985
0
LINE
8
BLACK
6
CONTINUOUS
10
7.0944324803149605
20
-3.9819112992125985
11
7.0527887795275586
21
-3.9686941732283465
0
LINE
8
BLACK
6
CONTINUOUS
10
7.0527887795275586
20
-3.9686941732283465
11
7.011620590551181
21
-3.954062992125984
0
LINE
8
BLACK
6
CONTINUOUS
10
7.011620590551181
20
-3.954062992125984
11
6.9709759055118106
21
-3.9380348425196852
0
LINE
8
BLACK
6
CONTINUOUS
10
6.9709759055118106
20
-3.9380348425196852
11
6.9309021653543308
21
-3.9206283464566929
0
LINE
8
BLACK
6
CONTINUOUS
10
6.9309021653543308
20
-3.9206283464566929
11
6.8914460629921255
21
-3.9018638582677165
0
LINE
8
BLACK
6
CONTINUOUS
10
6.8914460629921255
20
-3.9018638582677165
11
6.8526535826771653
21
-3.8817632283464567
0
LINE
8
BLACK
6
CONTINUOUS
10
6.8526535826771653
20
-3.8817632283464567
11
6.8145699999999998
21
-3.8603498818897637
0
LINE
8
BLACK
6
CONTINUOUS
10
6.8145699999999998
20
-3.8603498818897637
11
6.7772396850393699
21
-3.8376488188976379
0
LINE
8
BLACK
6
CONTINUOUS
10
6.7772396850393699
20
-3.8376488188976379
11
6.7407061811023619
21
-3.8136864566929134
0
LINE
8
BLACK
6
CONTINUOUS
10
6.7407061811023619
20
-3.8136864566929134
11
6.7050120472440939
21
-3.7884908267716533
0
LINE
8
BLACK
6
CONTINUOUS
10
6.7050120472440939
20
-3.7884908267716533
11
6.670198937007874
21
-3.762091220472441
0
LINE
8
BLACK
6
CONTINUOUS
10
6.670198937007874
20
-3.762091220472441
11
6.6363074409448819
21
-3.7345184251968502
0
LINE
8
BLACK
6
CONTINUOUS
10
6.6363074409448819
20
-3.7345184251968502
11
6.6033770866141728
21
-3.7058046456692915
0
LINE
8
BLACK
6
CONTINUOUS
10
6.6033770866141728
20
-3.7058046456692915
11
6.5714462204724411
21
-3.6759833070866139
0
LINE
8
BLACK
6
CONTINUOUS
10
6.5714462204724411
20
-3.6759833070866139
11
6.5405521259842514
21
-3.6450892125984251
0
LINE
8
BLACK
6
CONTINUOUS
10
6.5405521259842514
20
-3.6450892125984251
11
6.5107307874015747
21
-3.613158346456693
0
LINE
8
BLACK
6
CONTINUOUS
10
6.5107307874015747
20
-3.613158346456693
11
6.482017007874016
21
-3.5802279921259843
0
LINE
8
BLACK
6
CONTINUOUS
10
6.482017007874016
20
-3.5802279921259843
11
6.4544442125984247
21
-3.5463364960629922
0
LINE
8
BLACK
6
CONTINUOUS
10
6.4544442125984247
20
-3.5463364960629922
11
6.4280446062992125
21
-3.5115233858267714
0
LINE
8
BLACK
6
CONTINUOUS
10
6.4280446062992125
20
-3.5115233858267714
11
6.4028489763779524
21
-3.4758292519685039
0
LINE
8
BLACK
6
CONTINUOUS
10
6.4028489763779524
20
-3.4758292519685039
11
6.3788866141732283
21
-3.4392957480314958
0
LINE
8
BLACK
6
CONTINUOUS
10
6.3788866141732283
20
-3.4392957480314958
11
6.3561855511811025
21
-3.401965433070866
0
LINE
8
BLACK
6
CONTINUOUS
10
6.3561855511811025
20
-3.401965433070866
11
6.3347722047244091
21
-3.3638818503937009
0
LINE
8
BLACK
6
CONTINUOUS
10
6.3347722047244091
20
-3.3638818503937009
11
6.3146715748031497
21
-3.3250893700787403
0
LINE
8
BLACK
6
CONTINUOUS
10
6.3146715748031497
20
-3.3250893700787403
11
6.2959070866141733
21
-3.2856332677165354
0
LINE
8
BLACK
6
CONTINUOUS
10
6.2959070866141733
20
-3.2856332677165354
11
6.2785005905511806
21
-3.2455595275590552
0
LINE
8
BLACK
6
CONTINUOUS
10
6.2785005905511806
20
-3.2455595275590552
11
6.2624724409448813
21
-3.2049148425196852
0
LINE
8
BLACK
6
CONTINUOUS
10
6.2624724409448813
20
-3.2049148425196852
11
6.2478412598425193
21
-3.1637466535433072
0
LINE
8
BLACK
6
CONTINUOUS
10
6.2478412598425193
20
-3.1637466535433072
11
6.2346241338582677
21
-3.1221029527559057
0
LINE
8
BLACK
6
CONTINUOUS
10
6.2346241338582677
20
-3.1221029527559057
11
6.2228364566929129
21
-3.0800322440944883
0
LINE
8
BLACK
6
CONTINUOUS
10
6.2228364566929129
20
-3.0800322440944883
11
6.2124920472440941
21
-3.0375836614173228
0
LINE
8
BLACK
6
CONTINUOUS
10
6.2124920472440941
20
-3.0375836614173228
11
6.2036028740157478
21
-2.9948066141732284
0
LINE
8
BLACK
6
CONTINUOUS
10
6.2036028740157478
20
-2.9948066141732284
11
6.1961793307086612
21
-2.951751062992126
0
LINE
8
BLACK
6
CONTINUOUS
10
6.1961793307086612
20
-2.951751062992126
11
6.1902300787401572
21
-2.9084671259842518
0
LINE
8
BLACK
6
CONTINUOUS
10
6.1902300787401572
20
-2.9084671259842518
11
6.1857620866141731
21
-2.8650053543307088
0
LINE
8
BLACK
6
CONTINUOUS
10
6.1857620866141731
20
-2.8650053543307088
11
6.1827805118110231
21
-2.8214163385826772
0
LINE
8
BLACK
6
CONTINUOUS
10
6.1827805118110231
20
-2.8214163385826772
11
6.1812888582677168
21
-2.7777509448818898
0
LINE
8
BLACK
6
CONTINUOUS
10
6.1812888582677168
20
-2.7777509448818898
11
6.1812888582677168
21
-2.7344692125984253
0
LINE
8
BLACK
6
CONTINUOUS
10
6.1812888582677168
20
-2.7344692125984253
11
6.1812888582677168
21
-2.7340600787401574
0
LINE
8
BLACK
6
CONTINUOUS
10
6.1812888582677168
20
-2.7340600787401574
11
6.1827805118110231
21
-2.6903946850393701
0
LINE
8
BLACK
6
CONTINUOUS
10
6.1827805118110231
20
-2.6903946850393701
11
6.1857620866141731
21
-2.6468056692913384
0
LINE
8
BLACK
6
CONTINUOUS
10
6.1857620866141731
20
-2.6468056692913384
11
6.1902300787401572
21
-2.6033438976377954
0
LINE
8
BLACK
6
CONTINUOUS
10
6.1902300787401572
20
-2.6033438976377954
11
6.1961793307086612
21
-2.5600599606299212
0
LINE
8
BLACK
6
CONTINUOUS
10
6.1961793307086612
20
-2.5600599606299212
11
6.2036028740157478
21
-2.5170044094488189
0
LINE
8
BLACK
6
CONTINUOUS
10
6.2036028740157478
20
-2.5170044094488189
11
6.2124920472440941
21
-2.4742273622047244
0
LINE
8
BLACK
6
CONTINUOUS
10
6.2124920472440941
20
-2.4742273622047244
11
6.2228364566929129
21
-2.4317787795275589
0
LINE
8
BLACK
6
CONTINUOUS
10
6.2228364566929129
20
-2.4317787795275589
11
6.2346241338582677
21
-2.3897080708661416
0
LINE
8
BLACK
6
CONTINUOUS
10
6.2346241338582677
20
-2.3897080708661416
11
6.2478412598425193
21
-2.34806437007874
0
LINE
8
BLACK
6
CONTINUOUS
10
6.2478412598425193
20
-2.34806437007874
11
6.2624724409448813
21
-2.3068961811023621
0
LINE
8
BLACK
6
CONTINUOUS
10
6.2624724409448813
20
-2.3068961811023621
11
6.2785005905511806
21
-2.266251496062992
0
LINE
8
BLACK
6
CONTINUOUS
10
6.2785005905511806
20
-2.266251496062992
11
6.2959070866141733
21
-2.2261777559055118
0
LINE
8
BLACK
6
CONTINUOUS
10
6.2959070866141733
20
-2.2261777559055118
11
6.3146715748031497
21
-2.1867216535433069
0
LINE
8
BLACK
6
CONTINUOUS
10
6.3146715748031497
20
-2.1867216535433069
11
6.3347722047244091
21
-2.1479291732283463
0
LINE
8
BLACK
6
CONTINUOUS
10
6.3347722047244091
20
-2.1479291732283463
11
6.3561855511811025
21
-2.1098455905511813
0
LINE
8
BLACK
6
CONTINUOUS
10
6.3561855511811025
20
-2.1098455905511813
11
6.3788866141732283
21
-2.0725152755905509
0
LINE
8
BLACK
6
CONTINUOUS
10
6.3788866141732283
20
-2.0725152755905509
11
6.4028489763779524
21
-2.0359817716535433
0
LINE
8
BLACK
6
CONTINUOUS
10
6.4028489763779524
20
-2.0359817716535433
11
6.4280446062992125
21
-2.0002876377952754
0
LINE
8
BLACK
6
CONTINUOUS
10
6.4280446062992125
20
-2.0002876377952754
11
6.4544442125984247
21
-1.9654745275590551
0
LINE
8
BLACK
6
CONTINUOUS
10
6.4544442125984247
20
-1.9654745275590551
11
6.482017007874016
21
-1.9315830314960629
0
LINE
8
BLACK
6
CONTINUOUS
10
6.482017007874016
20
-1.9315830314960629
11
6.5107307874015747
21
-1.8986526771653542
0
LINE
8
BLACK
6
CONTINUOUS
10
6.5107307874015747
20
-1.8986526771653542
11
6.5405521259842514
21
-1.8667218110236221
0
LINE
8
BLACK
6
CONTINUOUS
10
6.5405521259842514
20
-1.8667218110236221
11
6.5714462204724411
21
-1.8358277165354331
0
LINE
8
BLACK
6
CONTINUOUS
10
6.5714462204724411
20
-1.8358277165354331
11
6.6033770866141728
21
-1.8060063779527558
0
LINE
8
BLACK
6
CONTINUOUS
10
6.6033770866141728
20
-1.8060063779527558
11
6.6363074409448819
21
-1.7772925984251968
0
LINE
8
BLACK
6
CONTINUOUS
10
6.6363074409448819
20
-1.7772925984251968
11
6.670198937007874
21
-1.7497198031496062
0
LINE
8
BLACK
6
CONTINUOUS
10
6.670198937007874
20
-1.7497198031496062
11
6.7050120472440939
21
-1.7233201968503937
0
LINE
8
BLACK
6
CONTINUOUS
10
6.7050120472440939
20
-1.7233201968503937
11
6.7407061811023619
21
-1.6981245669291338
0
LINE
8
BLACK
6
CONTINUOUS
10
6.7407061811023619
20
-1.6981245669291338
11
6.7772396850393699
21
-1.6741622047244094
0
LINE
8
BLACK
6
CONTINUOUS
10
6.7772396850393699
20
-1.6741622047244094
11
6.8145699999999998
21
-1.6514611417322835
0
LINE
8
BLACK
6
CONTINUOUS
10
6.8145699999999998
20
-1.6514611417322835
11
6.8526535826771653
21
-1.6300477952755905
0
LINE
8
BLACK
6
CONTINUOUS
10
6.8526535826771653
20
-1.6300477952755905
11
6.8914460629921255
21
-1.6099471653543307
0
LINE
8
BLACK
6
CONTINUOUS
10
6.8914460629921255
20
-1.6099471653543307
11
6.9309021653543308
21
-1.5911826771653543
0
LINE
8
BLACK
6
CONTINUOUS
10
6.9309021653543308
20
-1.5911826771653543
11
6.9709759055118106
21
-1.5737761811023621
0
LINE
8
BLACK
6
CONTINUOUS
10
6.9709759055118106
20
-1.5737761811023621
11
7.011620590551181
21
-1.557748031496063
0
LINE
8
BLACK
6
CONTINUOUS
10
7.011620590551181
20
-1.557748031496063
11
7.0527887795275586
21
-1.5431168503937007
0
LINE
8
BLACK
6
CONTINUOUS
10
7.0527887795275586
20
-1.5431168503937007
11
7.0944324803149605
21
-1.5298997244094488
0
LINE
8
BLACK
6
CONTINUOUS
10
7.0944324803149605
20
-1.5298997244094488
11
7.1365031889763779
21
-1.5181120472440945
0
LINE
8
BLACK
6
CONTINUOUS
10
7.1365031889763779
20
-1.5181120472440945
11
7.1789517716535434
21
-1.5077676377952756
0
LINE
8
BLACK
6
CONTINUOUS
10
7.1789517716535434
20
-1.5077676377952756
11
7.2217288188976374
21
-1.4988784645669291
0
LINE
8
BLACK
6
CONTINUOUS
10
7.2217288188976374
20
-1.4988784645669291
11
7.2647843700787398
21
-1.4914549212598425
0
LINE
8
BLACK
6
CONTINUOUS
10
7.2647843700787398
20
-1.4914549212598425
11
7.3080683070866144
21
-1.4855056692913386
0
LINE
8
BLACK
6
CONTINUOUS
10
7.3080683070866144
20
-1.4855056692913386
11
7.351530078740157
21
-1.4810376771653544
0
LINE
8
BLACK
6
CONTINUOUS
10
7.351530078740157
20
-1.4810376771653544
11
7.395119094488189
21
-1.4780561023622047
0
LINE
8
BLACK
6
CONTINUOUS
10
7.395119094488189
20
-1.4780561023622047
11
7.4387844881889764
21
-1.4765644488188976
0
LINE
8
BLACK
6
CONTINUOUS
10
7.4387844881889764
20
-1.4765644488188976
11
7.4575128346456694
21
-1.4765644488188976
0
LINE
8
BLACK
6
CONTINUOUS
10
7.4575128346456694
20
-1.4765644488188976
11
7.4577357086614171
21
-1.4765201181102361
0
LINE
8
BLACK
6
CONTINUOUS
10
7.4577357086614171
20
-1.4765201181102361
11
7.4635241338582672
21
-1.4765201181102361
0
LINE
8
BLACK
6
CONTINUOUS
10
7.4635241338582672
20
-1.4765201181102361
11
7.4637470078740158
21
-1.4765644488188976
0
LINE
8
BLACK
6
CONTINUOUS
10
7.3963483858267711
20
-1.5566483070866142
11
7.3535850787401573
21
-1.5597068110236221
0
LINE
8
BLACK
6
CONTINUOUS
10
7.3535850787401573
20
-1.5597068110236221
11
7.3109581496062992
21
-1.5642896850393699
0
LINE
8
BLACK
6
CONTINUOUS
10
7.3109581496062992
20
-1.5642896850393699
11
7.2685219685039373
21
-1.5703910629921261
0
LINE
8
BLACK
6
CONTINUOUS
10
7.2685219685039373
20
-1.5703910629921261
11
7.2263305905511812
21
-1.5780032283464567
0
LINE
8
BLACK
6
CONTINUOUS
10
7.2263305905511812
20
-1.5780032283464567
11
7.1844377952755902
21
-1.5871164566929135
0
LINE
8
BLACK
6
CONTINUOUS
10
7.1844377952755902
20
-1.5871164566929135
11
7.142896968503937
21
-1.5977191338582677
0
LINE
8
BLACK
6
CONTINUOUS
10
7.142896968503937
20
-1.5977191338582677
11
7.101761062992126
21
-1.6097977165354331
0
LINE
8
BLACK
6
CONTINUOUS
10
7.101761062992126
20
-1.6097977165354331
11
7.0610824409448814
21
-1.6233368503937007
0
LINE
8
BLACK
6
CONTINUOUS
10
7.0610824409448814
20
-1.6233368503937007
11
7.0209130314960628
21
-1.6383192913385827
0
LINE
8
BLACK
6
CONTINUOUS
10
7.0209130314960628
20
-1.6383192913385827
11
6.9813039370078736
21
-1.6547259055118111
0
LINE
8
BLACK
6
CONTINUOUS
10
6.9813039370078736
20
-1.6547259055118111
11
6.9423056692913381
21
-1.6725358267716535
0
LINE
8
BLACK
6
CONTINUOUS
10
6.9423056692913381
20
-1.6725358267716535
11
6.903967952755905
21
-1.6917262992125983
0
LINE
8
BLACK
6
CONTINUOUS
10
6.903967952755905
20
-1.6917262992125983
11
6.8663396062992126
21
-1.7122729527559055
0
LINE
8
BLACK
6
CONTINUOUS
10
6.8663396062992126
20
-1.7122729527559055
11
6.8294685826771655
21
-1.734149527559055
0
LINE
8
BLACK
6
CONTINUOUS
10
6.8294685826771655
20
-1.734149527559055
11
6.7934018897637793
21
-1.7573281889763779
0
LINE
8
BLACK
6
CONTINUOUS
10
6.7934018897637793
20
-1.7573281889763779
11
6.7581854724409451
21
-1.7817793700787401
0
LINE
8
BLACK
6
CONTINUOUS
10
6.7581854724409451
20
-1.7817793700787401
11
6.7238642125984249
21
-1.8074719291338581
0
LINE
8
BLACK
6
CONTINUOUS
10
6.7238642125984249
20
-1.8074719291338581
11
6.6904818503937005
21
-1.8343731496062992
0
LINE
8
BLACK
6
CONTINUOUS
10
6.6904818503937005
20
-1.8343731496062992
11
6.6580809448818892
21
-1.8624487007874015
0
LINE
8
BLACK
6
CONTINUOUS
10
6.6580809448818892
20
-1.8624487007874015
11
6.6267027559055114
21
-1.8916628346456692
0
LINE
8
BLACK
6
CONTINUOUS
10
6.6267027559055114
20
-1.8916628346456692
11
6.5963872440944877
21
-1.9219783464566929
0
LINE
8
BLACK
6
CONTINUOUS
10
6.5963872440944877
20
-1.9219783464566929
11
6.5671731102362205
21
-1.9533565354330709
0
LINE
8
BLACK
6
CONTINUOUS
10
6.5671731102362205
20
-1.9533565354330709
11
6.5390975590551177
21
-1.9857574409448819
0
LINE
8
BLACK
6
CONTINUOUS
10
6.5390975590551177
20
-1.9857574409448819
11
6.5345506299212595
21
-1.9913998031496063
0
LINE
8
BLACK
6
CONTINUOUS
10
6.5345506299212595
20
-1.9913998031496063
11
6.8117491732283462
21
-2.0433745275590551
0
LINE
8
BLACK
6
CONTINUOUS
10
6.8117491732283462
20
-2.0433745275590551
11
6.8119785039370075
21
-2.0434246456692913
0
LINE
8
BLACK
6
CONTINUOUS
10
6.8119785039370075
20
-2.0434246456692913
11
6.8907186614173224
21
-2.06310968503937
0
LINE
8
BLACK
6
CONTINUOUS
10
6.8907186614173224
20
-2.06310968503937
11
6.8927812992125981
21
-2.0644003937007875
0
LINE
8
BLACK
6
CONTINUOUS
10
6.8927812992125981
20
-2.0644003937007875
11
6.8936913779527558
21
-2.0666569685039371
0
LINE
8
BLACK
6
CONTINUOUS
10
6.8936913779527558
20
-2.0666569685039371
11
6.8937005511811025
21
-2.066972874015748
0
LINE
8
BLACK
6
CONTINUOUS
10
6.8937005511811025
20
-2.066972874015748
11
6.8744009055118109
21
-3.8039398818897636
0
LINE
8
BLACK
6
CONTINUOUS
10
6.8744009055118109
20
-3.8039398818897636
11
6.903967952755905
21
-3.8200847244094489
0
LINE
8
BLACK
6
CONTINUOUS
10
6.903967952755905
20
-3.8200847244094489
11
6.9423056692913381
21
-3.8392751968503935
0
LINE
8
BLACK
6
CONTINUOUS
10
6.9423056692913381
20
-3.8392751968503935
11
6.9813039370078736
21
-3.8570851181102364
0
LINE
8
BLACK
6
CONTINUOUS
10
6.9813039370078736
20
-3.8570851181102364
11
7.0209130314960628
21
-3.8734917322834646
0
LINE
8
BLACK
6
CONTINUOUS
10
7.0209130314960628
20
-3.8734917322834646
11
7.0610824409448814
21
-3.8884741732283463
0
LINE
8
BLACK
6
CONTINUOUS
10
7.0610824409448814
20
-3.8884741732283463
11
7.101761062992126
21
-3.9020133070866141
0
LINE
8
BLACK
6
CONTINUOUS
10
7.101761062992126
20
-3.9020133070866141
11
7.142896968503937
21
-3.9140918897637795
0
LINE
8
BLACK
6
CONTINUOUS
10
7.142896968503937
20
-3.9140918897637795
11
7.1844377952755902
21
-3.924694566929134
0
LINE
8
BLACK
6
CONTINUOUS
10
7.1844377952755902
20
-3.924694566929134
11
7.2263305905511812
21
-3.9338077952755905
0
LINE
8
BLACK
6
CONTINUOUS
10
7.2263305905511812
20
-3.9338077952755905
11
7.2685219685039373
21
-3.9414199606299212
0
LINE
8
BLACK
6
CONTINUOUS
10
7.2685219685039373
20
-3.9414199606299212
11
7.3109581496062992
21
-3.9475213385826771
0
LINE
8
BLACK
6
CONTINUOUS
10
7.3109581496062992
20
-3.9475213385826771
11
7.3535850787401573
21
-3.9521042125984249
0
LINE
8
BLACK
6
CONTINUOUS
10
7.3535850787401573
20
-3.9521042125984249
11
7.3963483858267711
21
-3.9551627165354328
0
LINE
8
BLACK
6
CONTINUOUS
10
7.3963483858267711
20
-3.9551627165354328
11
7.4391936220472443
21
-3.9566929133858268
0
LINE
8
BLACK
6
CONTINUOUS
10
7.4391936220472443
20
-3.9566929133858268
11
7.4820662204724409
21
-3.9566929133858268
0
LINE
8
BLACK
6
CONTINUOUS
10
7.4820662204724409
20
-3.9566929133858268
11
7.5249114566929132
21
-3.9551627165354328
0
LINE
8
BLACK
6
CONTINUOUS
10
7.5249114566929132
20
-3.9551627165354328
11
7.567674763779527
21
-3.9521042125984249
0
LINE
8
BLACK
6
CONTINUOUS
10
7.567674763779527
20
-3.9521042125984249
11
7.610301692913386
21
-3.9475213385826771
0
LINE
8
BLACK
6
CONTINUOUS
10
7.610301692913386
20
-3.9475213385826771
11
7.6527378740157479
21
-3.9414199606299212
0
LINE
8
BLACK
6
CONTINUOUS
10
7.6527378740157479
20
-3.9414199606299212
11
7.694929251968504
21
-3.9338077952755905
0
LINE
8
BLACK
6
CONTINUOUS
10
7.694929251968504
20
-3.9338077952755905
11
7.7368220472440941
21
-3.924694566929134
0
LINE
8
BLACK
6
CONTINUOUS
10
7.7368220472440941
20
-3.924694566929134
11
7.7783628740157482
21
-3.9140918897637795
0
LINE
8
BLACK
6
CONTINUOUS
10
7.7783628740157482
20
-3.9140918897637795
11
7.8194987795275592
21
-3.9020133070866141
0
LINE
8
BLACK
6
CONTINUOUS
10
7.8194987795275592
20
-3.9020133070866141
11
7.8474451181102358
21
-3.8927118503937006
0
LINE
8
BLACK
6
CONTINUOUS
10
7.8474451181102358
20
-3.8927118503937006
11
8.1466065354330706
21
-3.5407572834645666
0
LINE
8
BLACK
6
CONTINUOUS
10
8.1466065354330706
20
-3.5407572834645666
11
8.1478456299212603
21
-3.5397857086614173
0
LINE
8
BLACK
6
CONTINUOUS
10
8.1478456299212603
20
-3.5397857086614173
11
8.2643265748031496
21
-3.4815451968503934
0
LINE
8
BLACK
6
CONTINUOUS
10
8.2643265748031496
20
-3.4815451968503934
11
8.2831992913385832
21
-3.4045742519685041
0
LINE
8
BLACK
6
CONTINUOUS
10
8.2831992913385832
20
-3.4045742519685041
11
8.2844806299212603
21
-3.4025057874015747
0
LINE
8
BLACK
6
CONTINUOUS
10
8.2844806299212603
20
-3.4025057874015747
11
8.2856918503937003
21
-3.4018860236220472
0
LINE
8
BLACK
6
CONTINUOUS
10
8.2856918503937003
20
-3.4018860236220472
11
8.2867892913385823
21
-3.3963689763779525
0
LINE
8
BLACK
6
CONTINUOUS
10
8.2867892913385823
20
-3.3963689763779525
11
8.2891520866141732
21
-3.3906646850393698
0
LINE
8
BLACK
6
CONTINUOUS
10
8.2891520866141732
20
-3.3906646850393698
11
8.2925823622047243
21
-3.385530905511811
0
LINE
8
BLACK
6
CONTINUOUS
10
8.2925823622047243
20
-3.385530905511811
11
8.2969482283464568
21
-3.3811650393700785
0
LINE
8
BLACK
6
CONTINUOUS
10
8.2969482283464568
20
-3.3811650393700785
11
8.3020820078740147
21
-3.3777347637795274
0
LINE
8
BLACK
6
CONTINUOUS
10
8.3020820078740147
20
-3.3777347637795274
11
8.3077862992125979
21
-3.3753719685039369
0
LINE
8
BLACK
6
CONTINUOUS
10
8.3077862992125979
20
-3.3753719685039369
11
8.3138419685039366
21
-3.3741674015748031
0
LINE
8
BLACK
6
CONTINUOUS
10
8.3138419685039366
20
-3.3741674015748031
11
8.3169291338582667
21
-3.3740157480314958
0
LINE
8
BLACK
6
CONTINUOUS
10
8.3169291338582667
20
-3.3740157480314958
11
8.3727807086614163
21
-3.3740157480314958
0
LINE
8
BLACK
6
CONTINUOUS
10
8.3727807086614163
20
-3.3740157480314958
11
8.4429133858267722
21
-3.303883031496063
0
LINE
8
BLACK
6
CONTINUOUS
10
8.4429133858267722
20
-3.303883031496063
11
8.4429133858267722
21
-3.1692913385826773
0
LINE
8
BLACK
6
CONTINUOUS
10
8.4429133858267722
20
-3.1692913385826773
11
8.4430650393700777
21
-3.1662041732283464
0
LINE
8
BLACK
6
CONTINUOUS
10
8.4430650393700777
20
-3.1662041732283464
11
8.444269606299212
21
-3.1601485039370076
0
LINE
8
BLACK
6
CONTINUOUS
10
8.444269606299212
20
-3.1601485039370076
11
8.4466324015748029
21
-3.1544442125984253
0
LINE
8
BLACK
6
CONTINUOUS
10
8.4466324015748029
20
-3.1544442125984253
11
8.450062677165354
21
-3.1493104330708661
0
LINE
8
BLACK
6
CONTINUOUS
10
8.450062677165354
20
-3.1493104330708661
11
8.4544285433070865
21
-3.1449445669291336
0
LINE
8
BLACK
6
CONTINUOUS
10
8.4544285433070865
20
-3.1449445669291336
11
8.4595623228346462
21
-3.1415142913385825
0
LINE
8
BLACK
6
CONTINUOUS
10
8.4595623228346462
20
-3.1415142913385825
11
8.4610405118110226
21
-3.140901968503937
0
LINE
8
BLACK
6
CONTINUOUS
10
8.4610405118110226
20
-3.140901968503937
11
8.4665354330708666
21
-3.135407086614173
0
LINE
8
BLACK
6
CONTINUOUS
10
8.4665354330708666
20
-3.135407086614173
11
8.4665354330708666
21
-2.9171768897637795
0
LINE
8
BLACK
6
CONTINUOUS
10
8.4665354330708666
20
-2.9171768897637795
11
8.4642890157480313
21
-2.9149304724409446
0
LINE
8
BLACK
6
CONTINUOUS
10
8.4642890157480313
20
-2.9149304724409446
11
8.4606443700787395
21
-2.9094758661417321
0
LINE
8
BLACK
6
CONTINUOUS
10
8.4606443700787395
20
-2.9094758661417321
11
8.4581338976377953
21
-2.9034150393700786
0
LINE
8
BLACK
6
CONTINUOUS
10
8.4581338976377953
20
-2.9034150393700786
11
8.4568540551181108
21
-2.896980905511811
0
LINE
8
BLACK
6
CONTINUOUS
10
8.4568540551181108
20
-2.896980905511811
11
8.4568540551181108
21
-2.8904206692913386
0
LINE
8
BLACK
6
CONTINUOUS
10
8.4568540551181108
20
-2.8904206692913386
11
8.4581338976377953
21
-2.8839865354330709
0
LINE
8
BLACK
6
CONTINUOUS
10
8.4581338976377953
20
-2.8839865354330709
11
8.4606443700787395
21
-2.8779257086614174
0
LINE
8
BLACK
6
CONTINUOUS
10
8.4606443700787395
20
-2.8779257086614174
11
8.4642890157480313
21
-2.8724711023622045
0
LINE
8
BLACK
6
CONTINUOUS
10
8.4642890157480313
20
-2.8724711023622045
11
8.4689277952755901
21
-2.8678323228346456
0
LINE
8
BLACK
6
CONTINUOUS
10
8.4689277952755901
20
-2.8678323228346456
11
8.4743824015748022
21
-2.8641876771653543
0
LINE
8
BLACK
6
CONTINUOUS
10
8.4743824015748022
20
-2.8641876771653543
11
8.4804432283464557
21
-2.8616772047244092
0
LINE
8
BLACK
6
CONTINUOUS
10
8.4804432283464557
20
-2.8616772047244092
11
8.4868773622047247
21
-2.8603973622047243
0
LINE
8
BLACK
6
CONTINUOUS
10
8.4868773622047247
20
-2.8603973622047243
11
8.4901574803149611
21
-2.8602362204724407
0
LINE
8
BLACK
6
CONTINUOUS
10
8.4901574803149611
20
-2.8602362204724407
11
8.5019685039370074
21
-2.8602362204724407
0
LINE
8
BLACK
6
CONTINUOUS
10
8.5019685039370074
20
-2.8602362204724407
11
8.5052486220472439
21
-2.8603973622047243
0
LINE
8
BLACK
6
CONTINUOUS
10
8.5052486220472439
20
-2.8603973622047243
11
8.511682755905511
21
-2.8616772047244092
0
LINE
8
BLACK
6
CONTINUOUS
10
8.511682755905511
20
-2.8616772047244092
11
8.5177087007874022
21
-2.8641732283464565
0
LINE
8
BLACK
6
CONTINUOUS
10
8.5177087007874022
20
-2.8641732283464565
11
8.6566971653543305
21
-2.8641732283464565
0
LINE
8
BLACK
6
CONTINUOUS
10
8.6566971653543305
20
-2.8641732283464565
11
8.656828622047243
21
-2.8629503543307084
0
LINE
8
BLACK
6
CONTINUOUS
10
8.656828622047243
20
-2.8629503543307084
11
8.6598871259842518
21
-2.8201870472440946
0
LINE
8
BLACK
6
CONTINUOUS
10
8.6598871259842518
20
-2.8201870472440946
11
8.6614173228346463
21
-2.7773418110236219
0
LINE
8
BLACK
6
CONTINUOUS
10
8.6614173228346463
20
-2.7773418110236219
11
8.6614173228346463
21
-2.7344692125984253
0
LINE
8
BLACK
6
CONTINUOUS
10
8.6614173228346463
20
-2.7344692125984253
11
8.6598871259842518
21
-2.6916239763779526
0
LINE
8
BLACK
6
CONTINUOUS
10
8.6598871259842518
20
-2.6916239763779526
11
8.656828622047243
21
-2.6488606692913383
0
LINE
8
BLACK
6
CONTINUOUS
10
8.656828622047243
20
-2.6488606692913383
11
8.6522457480314952
21
-2.6062337401574802
0
LINE
8
BLACK
6
CONTINUOUS
10
8.6522457480314952
20
-2.6062337401574802
11
8.6461443700787406
21
-2.5637975590551179
0
LINE
8
BLACK
6
CONTINUOUS
10
8.6461443700787406
20
-2.5637975590551179
11
8.6385322047244095
21
-2.5216061811023622
0
LINE
8
BLACK
6
CONTINUOUS
10
8.6385322047244095
20
-2.5216061811023622
11
8.6294189763779521
21
-2.4797133858267717
0
LINE
8
BLACK
6
CONTINUOUS
10
8.6294189763779521
20
-2.4797133858267717
11
8.6188162992125985
21
-2.438172559055118
0
LINE
8
BLACK
6
CONTINUOUS
10
8.6188162992125985
20
-2.438172559055118
11
8.6067377165354326
21
-2.397036653543307
0
LINE
8
BLACK
6
CONTINUOUS
10
8.6067377165354326
20
-2.397036653543307
11
8.5931985826771644
21
-2.3563580314960628
0
LINE
8
BLACK
6
CONTINUOUS
10
8.5931985826771644
20
-2.3563580314960628
11
8.578216141732284
21
-2.3161886220472439
0
LINE
8
BLACK
6
CONTINUOUS
10
8.578216141732284
20
-2.3161886220472439
11
8.5618095275590544
21
-2.276579527559055
0
LINE
8
BLACK
6
CONTINUOUS
10
8.5618095275590544
20
-2.276579527559055
11
8.543999606299213
21
-2.2375812598425195
0
LINE
8
BLACK
6
CONTINUOUS
10
8.543999606299213
20
-2.2375812598425195
11
8.5248091338582679
21
-2.1992435433070865
0
LINE
8
BLACK
6
CONTINUOUS
10
8.5248091338582679
20
-2.1992435433070865
11
8.50426248031496
21
-2.1616151968503936
0
LINE
8
BLACK
6
CONTINUOUS
10
8.50426248031496
20
-2.1616151968503936
11
8.4823859055118103
21
-2.1247441732283465
0
LINE
8
BLACK
6
CONTINUOUS
10
8.4823859055118103
20
-2.1247441732283465
11
8.4793875984251965
21
-2.1200787401574801
0
LINE
8
BLACK
6
CONTINUOUS
10
8.4793875984251965
20
-2.1200787401574801
11
8.3661417322834648
21
-2.1200787401574801
0
LINE
8
BLACK
6
CONTINUOUS
10
8.3661417322834648
20
-2.1200787401574801
11
8.3628616141732284
21
-2.119917598425197
0
LINE
8
BLACK
6
CONTINUOUS
10
8.3628616141732284
20
-2.119917598425197
11
8.3618110236220478
21
-2.1197085826771653
0
LINE
8
BLACK
6
CONTINUOUS
10
8.3618110236220478
20
-2.1197085826771653
11
8.3618110236220478
21
-2.1200787401574801
0
LINE
8
BLACK
6
CONTINUOUS
10
8.3618110236220478
20
-2.1200787401574801
11
8.2948818897637793
21
-2.1200787401574801
0
LINE
8
BLACK
6
CONTINUOUS
10
8.2948818897637793
20
-2.1200787401574801
11
8.2948818897637793
21
-2.0531496062992125
0
LINE
8
BLACK
6
CONTINUOUS
10
8.2948818897637793
20
-2.0531496062992125
11
8.3618110236220478
21
-2.0531496062992125
0
LINE
8
BLACK
6
CONTINUOUS
10
8.3618110236220478
20
-2.0531496062992125
11
8.3618110236220478
21
-2.053519724409449
0
LINE
8
BLACK
6
CONTINUOUS
10
8.3618110236220478
20
-2.053519724409449
11
8.3628616141732284
21
-2.053310748031496
0
LINE
8
BLACK
6
CONTINUOUS
10
8.3628616141732284
20
-2.053310748031496
11
8.3661417322834648
21
-2.0531496062992125
0
LINE
8
BLACK
6
CONTINUOUS
10
8.3661417322834648
20
-2.0531496062992125
11
8.4345229133858268
21
-2.0531496062992125
0
LINE
8
BLACK
6
CONTINUOUS
10
8.4345229133858268
20
-2.0531496062992125
11
8.4090635039370074
21
-2.0191398031496064
0
LINE
8
BLACK
6
CONTINUOUS
10
8.4090635039370074
20
-2.0191398031496064
11
8.3821622834645666
21
-1.9857574409448819
0
LINE
8
BLACK
6
CONTINUOUS
10
8.3821622834645666
20
-1.9857574409448819
11
8.3540867322834647
21
-1.9533565354330709
0
LINE
8
BLACK
6
CONTINUOUS
10
8.3540867322834647
20
-1.9533565354330709
11
8.3248725984251966
21
-1.9219783464566929
0
LINE
8
BLACK
6
CONTINUOUS
10
8.3248725984251966
20
-1.9219783464566929
11
8.2945570866141729
21
-1.8916628346456692
0
LINE
8
BLACK
6
CONTINUOUS
10
8.2945570866141729
20
-1.8916628346456692
11
8.2631788976377951
21
-1.8624487007874015
0
LINE
8
BLACK
6
CONTINUOUS
10
8.2631788976377951
20
-1.8624487007874015
11
8.2307779921259847
21
-1.8343731496062992
0
LINE
8
BLACK
6
CONTINUOUS
10
8.2307779921259847
20
-1.8343731496062992
11
8.1973956299212603
21
-1.8074719291338581
0
LINE
8
BLACK
6
CONTINUOUS
10
8.1973956299212603
20
-1.8074719291338581
11
8.1630743700787392
21
-1.7817793700787401
0
LINE
8
BLACK
6
CONTINUOUS
10
8.1630743700787392
20
-1.7817793700787401
11
8.1278579527559049
21
-1.7573281889763779
0
LINE
8
BLACK
6
CONTINUOUS
10
8.1278579527559049
20
-1.7573281889763779
11
8.0917912598425197
21
-1.734149527559055
0
LINE
8
BLACK
6
CONTINUOUS
10
8.0917912598425197
20
-1.734149527559055
11
8.0549202362204717
21
-1.7122729527559055
0
LINE
8
BLACK
6
CONTINUOUS
10
8.0549202362204717
20
-1.7122729527559055
11
8.0172918897637793
21
-1.6917262992125983
0
LINE
8
BLACK
6
CONTINUOUS
10
8.0172918897637793
20
-1.6917262992125983
11
7.9789541732283462
21
-1.6725358267716535
0
LINE
8
BLACK
6
CONTINUOUS
10
7.9789541732283462
20
-1.6725358267716535
11
7.9399559055118107
21
-1.6547259055118111
0
LINE
8
BLACK
6
CONTINUOUS
10
7.9399559055118107
20
-1.6547259055118111
11
7.9003468110236215
21
-1.6383192913385827
0
LINE
8
BLACK
6
CONTINUOUS
10
7.9003468110236215
20
-1.6383192913385827
11
7.8601774015748029
21
-1.6233368503937007
0
LINE
8
BLACK
6
CONTINUOUS
10
7.8601774015748029
20
-1.6233368503937007
11
7.8194987795275592
21
-1.6097977165354331
0
LINE
8
BLACK
6
CONTINUOUS
10
7.8194987795275592
20
-1.6097977165354331
11
7.7783628740157482
21
-1.5977191338582677
0
LINE
8
BLACK
6
CONTINUOUS
10
7.7783628740157482
20
-1.5977191338582677
11
7.7368220472440941
21
-1.5871164566929135
0
LINE
8
BLACK
6
CONTINUOUS
10
7.7368220472440941
20
-1.5871164566929135
11
7.694929251968504
21
-1.5780032283464567
0
LINE
8
BLACK
6
CONTINUOUS
10
7.694929251968504
20
-1.5780032283464567
11
7.6527378740157479
21
-1.5703910629921261
0
LINE
8
BLACK
6
CONTINUOUS
10
7.6527378740157479
20
-1.5703910629921261
11
7.610301692913386
21
-1.5642896850393699
0
LINE
8
BLACK
6
CONTINUOUS
10
7.610301692913386
20
-1.5642896850393699
11
7.567674763779527
21
-1.5597068110236221
0
LINE
8
BLACK
6
CONTINUOUS
10
7.567674763779527
20
-1.5597068110236221
11
7.5553047637795272
21
-1.5588220866141731
0
LINE
8
BLACK
6
CONTINUOUS
10
7.5553047637795272
20
-1.5588220866141731
11
7.7177295275590545
21
-1.7212468503937008
0
LINE
8
BLACK
6
CONTINUOUS
10
7.7177295275590545
20
-1.7212468503937008
11
7.7196755118110234
21
-1.7233938976377952
0
LINE
8
BLACK
6
CONTINUOUS
10
7.7196755118110234
20
-1.7233938976377952
11
7.7228913779527559
21
-1.7282067716535432
0
LINE
8
BLACK
6
CONTINUOUS
10
7.7228913779527559
20
-1.7282067716535432
11
7.7251064960629918
21
-1.7335545669291339
0
LINE
8
BLACK
6
CONTINUOUS
10
7.7251064960629918
20
-1.7335545669291339
11
7.726235787401575
21
-1.7392317716535433
0
LINE
8
BLACK
6
CONTINUOUS
10
7.726235787401575
20
-1.7392317716535433
11
7.7263779527559056
21
-1.7421259842519685
0
LINE
8
BLACK
6
CONTINUOUS
10
7.7263779527559056
20
-1.7421259842519685
11
7.7263779527559056
21
-3.2358007874015748
0
LINE
8
BLACK
6
CONTINUOUS
10
7.7263779527559056
20
-3.2358007874015748
11
7.7484511811023618
21
-3.2578740157480315
0
LINE
8
BLACK
6
CONTINUOUS
10
7.7484511811023618
20
-3.2578740157480315
11
7.8698594881889763
21
-3.2578740157480315
0
LINE
8
BLACK
6
CONTINUOUS
10
7.8698594881889763
20
-3.2578740157480315
11
7.8723012598425193
21
-3.2562424803149606
0
LINE
8
BLACK
6
CONTINUOUS
10
7.8723012598425193
20
-3.2562424803149606
11
7.8745164173228348
21
-3.2553249212598425
0
LINE
8
BLACK
6
CONTINUOUS
10
7.8745164173228348
20
-3.2553249212598425
11
7.8776490944881887
21
-3.2540273228346455
0
LINE
8
BLACK
6
CONTINUOUS
10
7.8776490944881887
20
-3.2540273228346455
11
7.8833262598425193
21
-3.2528980708661415
0
LINE
8
BLACK
6
CONTINUOUS
10
7.8833262598425193
20
-3.2528980708661415
11
7.8891146850393703
21
-3.2528980708661415
0
LINE
8
BLACK
6
CONTINUOUS
10
7.8891146850393703
20
-3.2528980708661415
11
7.8947918503937009
21
-3.2540273228346455
0
LINE
8
BLACK
6
CONTINUOUS
10
7.8947918503937009
20
-3.2540273228346455
11
7.8979245275590548
21
-3.2553249212598425
0
LINE
8
BLACK
6
CONTINUOUS
10
7.8979245275590548
20
-3.2553249212598425
11
7.9001396850393695
21
-3.2562424803149606
0
LINE
8
BLACK
6
CONTINUOUS
10
7.9001396850393695
20
-3.2562424803149606
11
7.9025814566929133
21
-3.2578740157480315
0
LINE
8
BLACK
6
CONTINUOUS
10
7.9025814566929133
20
-3.2578740157480315
11
7.9602102362204725
21
-3.2578740157480315
0
LINE
8
BLACK
6
CONTINUOUS
10
7.9602102362204725
20
-3.2578740157480315
11
8.0397637795275596
21
-3.1783204724409448
0
LINE
8
BLACK
6
CONTINUOUS
10
8.0397637795275596
20
-3.1783204724409448
11
8.0397637795275596
21
-2.9921259842519685
0
LINE
8
BLACK
6
CONTINUOUS
10
8.0397637795275596
20
-2.9921259842519685
11
8.0317913385826767
21
-2.9921259842519685
0
LINE
8
BLACK
6
CONTINUOUS
10
8.0317913385826767
20
-2.9921259842519685
11
8.0317913385826767
21
-2.9133858267716537
0
LINE
8
BLACK
6
CONTINUOUS
10
8.0317913385826767
20
-2.9133858267716537
11
8.0397637795275596
21
-2.9133858267716537
0
LINE
8
BLACK
6
CONTINUOUS
10
8.0397637795275596
20
-2.9133858267716537
11
8.0397637795275596
21
-2.8952755905511811
0
LINE
8
BLACK
6
CONTINUOUS
10
8.0397637795275596
20
-2.8952755905511811
11
8.0399059448818893
21
-2.8923813779527556
0
LINE
8
BLACK
6
CONTINUOUS
10
8.0399059448818893
20
-2.8923813779527556
11
8.0401038188976379
21
-2.8913866535433068
0
LINE
8
BLACK
6
CONTINUOUS
10
8.0401038188976379
20
-2.8913866535433068
11
8.0410351968503928
21
-2.886704212598425
0
LINE
8
BLACK
6
CONTINUOUS
10
8.0410351968503928
20
-2.886704212598425
11
8.042740669291339
21
-2.8825868503937007
0
LINE
8
BLACK
6
CONTINUOUS
10
8.042740669291339
20
-2.8825868503937007
11
8.0432503543307092
21
-2.881356377952756
0
LINE
8
BLACK
6
CONTINUOUS
10
8.0432503543307092
20
-2.881356377952756
11
8.0464662204724409
21
-2.876543503937008
0
LINE
8
BLACK
6
CONTINUOUS
10
8.0464662204724409
20
-2.876543503937008
11
8.0484122047244089
21
-2.8743964566929132
0
LINE
8
BLACK
6
CONTINUOUS
10
8.0484122047244089
20
-2.8743964566929132
11
8.1466398031496059
21
-2.7761688188976379
0
LINE
8
BLACK
6
CONTINUOUS
10
8.1466398031496059
20
-2.7761688188976379
11
8.1464566929133859
21
-2.7724409448818896
0
LINE
8
BLACK
6
CONTINUOUS
10
8.1464566929133859
20
-2.7724409448818896
11
8.1464566929133859
21
-2.5787401574803148
0
LINE
8
BLACK
6
CONTINUOUS
10
8.1464566929133859
20
-2.5787401574803148
11
8.1466462598425196
21
-2.5748812204724407
0
LINE
8
BLACK
6
CONTINUOUS
10
8.1466462598425196
20
-2.5748812204724407
11
8.148151968503937
21
-2.5673116141732284
0
LINE
8
BLACK
6
CONTINUOUS
10
8.148151968503937
20
-2.5673116141732284
11
8.1511054724409444
21
-2.5601812204724408
0
LINE
8
BLACK
6
CONTINUOUS
10
8.1511054724409444
20
-2.5601812204724408
11
8.155393307086614
21
-2.5537640551181102
0
LINE
8
BLACK
6
CONTINUOUS
10
8.155393307086614
20
-2.5537640551181102
11
8.1608506692913387
21
-2.548306692913386
0
LINE
8
BLACK
6
CONTINUOUS
10
8.1608506692913387
20
-2.548306692913386
11
8.1672678346456689
21
-2.5440188582677163
0
LINE
8
BLACK
6
CONTINUOUS
10
8.1672678346456689
20
-2.5440188582677163
11
8.1743982283464565
21
-2.5410653543307085
0
LINE
8
BLACK
6
CONTINUOUS
10
8.1743982283464565
20
-2.5410653543307085
11
8.1819678346456683
21
-2.5395596456692915
0
LINE
8
BLACK
6
CONTINUOUS
10
8.1819678346456683
20
-2.5395596456692915
11
8.1896857086614165
21
-2.5395596456692915
0
LINE
8
BLACK
6
CONTINUOUS
10
8.1896857086614165
20
-2.5395596456692915
11
8.1972553149606302
21
-2.5410653543307085
0
LINE
8
BLACK
6
CONTINUOUS
10
8.1972553149606302
20
-2.5410653543307085
11
8.2043857086614178
21
-2.5440188582677163
0
LINE
8
BLACK
6
CONTINUOUS
10
8.2043857086614178
20
-2.5440188582677163
11
8.2108028740157479
21
-2.548306692913386
0
LINE
8
BLACK
6
CONTINUOUS
10
8.2108028740157479
20
-2.548306692913386
11
8.2162602362204726
21
-2.5537640551181102
0
LINE
8
BLACK
6
CONTINUOUS
10
8.2162602362204726
20
-2.5537640551181102
11
8.2205480708661423
21
-2.5601812204724408
0
LINE
8
BLACK
6
CONTINUOUS
10
8.2205480708661423
20
-2.5601812204724408
11
8.2235015748031497
21
-2.5673116141732284
0
LINE
8
BLACK
6
CONTINUOUS
10
8.2235015748031497
20
-2.5673116141732284
11
8.2250072834645671
21
-2.5748812204724407
0
LINE
8
BLACK
6
CONTINUOUS
10
8.2250072834645671
20
-2.5748812204724407
11
8.2251968503937007
21
-2.5787401574803148
0
LINE
8
BLACK
6
CONTINUOUS
10
8.2251968503937007
20
-2.5787401574803148
11
8.2251968503937007
21
-2.7724409448818896
0
LINE
8
BLACK
6
CONTINUOUS
10
8.2251968503937007
20
-2.7724409448818896
11
8.2250072834645671
21
-2.7762998818897637
0
LINE
8
BLACK
6
CONTINUOUS
10
8.2250072834645671
20
-2.7762998818897637
11
8.2235015748031497
21
-2.7838694881889765
0
LINE
8
BLACK
6
CONTINUOUS
10
8.2235015748031497
20
-2.7838694881889765
11
8.2205480708661423
21
-2.7909998818897637
0
LINE
8
BLACK
6
CONTINUOUS
10
8.2205480708661423
20
-2.7909998818897637
11
8.2162602362204726
21
-2.7974170472440942
0
LINE
8
BLACK
6
CONTINUOUS
10
8.2162602362204726
20
-2.7974170472440942
11
8.2108028740157479
21
-2.8028744094488189
0
LINE
8
BLACK
6
CONTINUOUS
10
8.2108028740157479
20
-2.8028744094488189
11
8.2043857086614178
21
-2.8071622440944881
0
LINE
8
BLACK
6
CONTINUOUS
10
8.2043857086614178
20
-2.8071622440944881
11
8.1972553149606302
21
-2.810115748031496
0
LINE
8
BLACK
6
CONTINUOUS
10
8.1972553149606302
20
-2.810115748031496
11
8.1959497244094486
21
-2.8103754330708659
0
LINE
8
BLACK
6
CONTINUOUS
10
8.1959497244094486
20
-2.8103754330708659
11
8.0988188976377948
21
-2.9075062992125984
0
LINE
8
BLACK
6
CONTINUOUS
10
8.0988188976377948
20
-2.9075062992125984
11
8.0988188976377948
21
-2.9133858267716537
0
LINE
8
BLACK
6
CONTINUOUS
10
8.0988188976377948
20
-2.9133858267716537
11
8.1067913385826778
21
-2.9133858267716537
0
LINE
8
BLACK
6
CONTINUOUS
10
8.1067913385826778
20
-2.9133858267716537
11
8.1067913385826778
21
-2.9921259842519685
0
LINE
8
BLACK
6
CONTINUOUS
10
8.1067913385826778
20
-2.9921259842519685
11
8.0988188976377948
21
-2.9921259842519685
0
LINE
8
BLACK
6
CONTINUOUS
10
8.0988188976377948
20
-2.9921259842519685
11
8.0988188976377948
21
-3.1905511811023621
0
LINE
8
BLACK
6
CONTINUOUS
10
8.0988188976377948
20
-3.1905511811023621
11
8.0986767322834652
21
-3.1934453937007872
0
LINE
8
BLACK
6
CONTINUOUS
10
8.0986767322834652
20
-3.1934453937007872
11
8.0975474409448811
21
-3.199122598425197
0
LINE
8
BLACK
6
CONTINUOUS
10
8.0975474409448811
20
-3.199122598425197
11
8.0953323228346452
21
-3.2044703937007872
0
LINE
8
BLACK
6
CONTINUOUS
10
8.0953323228346452
20
-3.2044703937007872
11
8.0933298425196849
21
-3.2074673228346455
0
LINE
8
BLACK
6
CONTINUOUS
10
8.0933298425196849
20
-3.2074673228346455
11
8.0921164566929136
21
-3.2092832677165353
0
LINE
8
BLACK
6
CONTINUOUS
10
8.0921164566929136
20
-3.2092832677165353
11
8.0901704724409456
21
-3.21143031496063
0
LINE
8
BLACK
6
CONTINUOUS
10
8.0901704724409456
20
-3.21143031496063
11
7.9933200787401573
21
-3.3082807086614174
0
LINE
8
BLACK
6
CONTINUOUS
10
7.9933200787401573
20
-3.3082807086614174
11
7.9911730314960625
21
-3.3102266929133859
0
LINE
8
BLACK
6
CONTINUOUS
10
7.9911730314960625
20
-3.3102266929133859
11
7.9863601574803145
21
-3.313442559055118
0
LINE
8
BLACK
6
CONTINUOUS
10
7.9863601574803145
20
-3.313442559055118
11
7.9853957874015746
21
-3.3138420078740158
0
LINE
8
BLACK
6
CONTINUOUS
10
7.9853957874015746
20
-3.3138420078740158
11
7.9810123228346459
21
-3.3156577165354331
0
LINE
8
BLACK
6
CONTINUOUS
10
7.9810123228346459
20
-3.3156577165354331
11
7.9753351574803144
21
-3.3167869685039371
0
LINE
8
BLACK
6
CONTINUOUS
10
7.9753351574803144
20
-3.3167869685039371
11
7.9724409448818898
21
-3.3169291338582676
0
LINE
8
BLACK
6
CONTINUOUS
10
7.9724409448818898
20
-3.3169291338582676
11
7.8913385826771654
21
-3.3169291338582676
0
LINE
8
BLACK
6
CONTINUOUS
10
7.8913385826771654
20
-3.3169291338582676
11
7.8884443700787399
21
-3.3167869685039371
0
LINE
8
BLACK
6
CONTINUOUS
10
7.8884443700787399
20
-3.3167869685039371
11
7.8862204330708661
21
-3.3163445669291338
0
LINE
8
BLACK
6
CONTINUOUS
10
7.8862204330708661
20
-3.3163445669291338
11
7.8839965748031497
21
-3.3167869685039371
0
LINE
8
BLACK
6
CONTINUOUS
10
7.8839965748031497
20
-3.3167869685039371
11
7.8811023622047243
21
-3.3169291338582676
0
LINE
8
BLACK
6
CONTINUOUS
10
7.8811023622047243
20
-3.3169291338582676
11
7.7362204724409445
21
-3.3169291338582676
0
LINE
8
BLACK
6
CONTINUOUS
10
7.7362204724409445
20
-3.3169291338582676
11
7.7333262598425199
21
-3.3167869685039371
0
LINE
8
BLACK
6
CONTINUOUS
10
7.7333262598425199
20
-3.3167869685039371
11
7.7276490944881884
21
-3.3156577165354331
0
LINE
8
BLACK
6
CONTINUOUS
10
7.7276490944881884
20
-3.3156577165354331
11
7.7232656299212596
21
-3.3138420078740158
0
LINE
8
BLACK
6
CONTINUOUS
10
7.7232656299212596
20
-3.3138420078740158
11
7.7223012598425198
21
-3.313442559055118
0
LINE
8
BLACK
6
CONTINUOUS
10
7.7223012598425198
20
-3.313442559055118
11
7.7196467322834641
21
-3.3116688582677165
0
LINE
8
BLACK
6
CONTINUOUS
10
7.7196467322834641
20
-3.3116688582677165
11
7.7174883858267718
21
-3.3102267322834646
0
LINE
8
BLACK
6
CONTINUOUS
10
7.7174883858267718
20
-3.3102267322834646
11
7.715341338582677
21
-3.3082807086614174
0
LINE
8
BLACK
6
CONTINUOUS
10
7.715341338582677
20
-3.3082807086614174
11
7.6759712598425196
21
-3.2689106299212596
0
LINE
8
BLACK
6
CONTINUOUS
10
7.6759712598425196
20
-3.2689106299212596
11
7.6740252755905507
21
-3.2667635826771653
0
LINE
8
BLACK
6
CONTINUOUS
10
7.6740252755905507
20
-3.2667635826771653
11
7.6722434251968501
21
-3.2640968503937007
0
LINE
8
BLACK
6
CONTINUOUS
10
7.6722434251968501
20
-3.2640968503937007
11
7.6708094094488191
21
-3.2619507086614172
0
LINE
8
BLACK
6
CONTINUOUS
10
7.6708094094488191
20
-3.2619507086614172
11
7.6691207874015745
21
-3.2578740157480315
0
LINE
8
BLACK
6
CONTINUOUS
10
7.6691207874015745
20
-3.2578740157480315
11
7.6685942519685035
21
-3.2566028740157478
0
LINE
8
BLACK
6
CONTINUOUS
10
7.6685942519685035
20
-3.2566028740157478
11
7.667465
21
-3.2509257086614172
0
LINE
8
BLACK
6
CONTINUOUS
10
7.667465
20
-3.2509257086614172
11
7.6673228346456694
21
-3.2480314960629921
0
LINE
8
BLACK
6
CONTINUOUS
10
7.6673228346456694
20
-3.2480314960629921
11
7.6673228346456694
21
-1.7543566929133858
0
LINE
8
BLACK
6
CONTINUOUS
10
7.6673228346456694
20
-1.7543566929133858
11
7.468084251968504
21
-1.5551181102362204
0
LINE
8
BLACK
6
CONTINUOUS
10
7.468084251968504
20
-1.5551181102362204
11
7.4391936220472443
21
-1.5551181102362204
0
LINE
8
BLACK
6
CONTINUOUS
10
7.4391936220472443
20
-1.5551181102362204
11
7.3963483858267711
21
-1.5566483070866142
0
LINE
8
BLACK
6
CONTINUOUS
10
7.556995275590551
20
-0.1395693307086614
11
7.62117437007874
21
-0.1427222440944882
0
LINE
8
BLACK
6
CONTINUOUS
10
7.62117437007874
20
-0.1427222440944882
11
7.685256732283464
21
-0.1474492519685039
0
LINE
8
BLACK
6
CONTINUOUS
10
7.685256732283464
20
-0.1474492519685039
11
7.7492038188976373
21
-0.1537474803149606
0
LINE
8
BLACK
6
CONTINUOUS
10
7.7492038188976373
20
-0.1537474803149606
11
7.812977047244094
21
-0.1616131889763779
0
LINE
8
BLACK
6
CONTINUOUS
10
7.812977047244094
20
-0.1616131889763779
11
7.8765380708661414
21
-0.1710415748031496
0
LINE
8
BLACK
6
CONTINUOUS
10
7.8765380708661414
20
-0.1710415748031496
11
7.939848543307086
21
-0.182026968503937
0
LINE
8
BLACK
6
CONTINUOUS
10
7.939848543307086
20
-0.182026968503937
11
8.0028703543307085
21
-0.1945627952755905
0
LINE
8
BLACK
6
CONTINUOUS
10
8.0028703543307085
20
-0.1945627952755905
11
8.0655655118110232
21
-0.2086414566929134
0
LINE
8
BLACK
6
CONTINUOUS
10
8.0655655118110232
20
-0.2086414566929134
11
8.1278962992125976
21
-0.2242545275590551
0
LINE
8
BLACK
6
CONTINUOUS
10
8.1278962992125976
20
-0.2242545275590551
11
8.189825157480314
21
-0.2413925196850394
0
LINE
8
BLACK
6
CONTINUOUS
10
8.189825157480314
20
-0.2413925196850394
11
8.2513148031496062
21
-0.2600451968503937
0
LINE
8
BLACK
6
CONTINUOUS
10
8.2513148031496062
20
-0.2600451968503937
11
8.312328110236221
21
-0.2802012992125984
0
LINE
8
BLACK
6
CONTINUOUS
10
8.312328110236221
20
-0.2802012992125984
11
8.3728284251968503
21
-0.3018486614173228
0
LINE
8
BLACK
6
CONTINUOUS
10
8.3728284251968503
20
-0.3018486614173228
11
8.432779251968503
21
-0.3249742519685039
0
LINE
8
BLACK
6
CONTINUOUS
10
8.432779251968503
20
-0.3249742519685039
11
8.4921445275590557
21
-0.3495641338582677
0
LINE
8
BLACK
6
CONTINUOUS
10
8.4921445275590557
20
-0.3495641338582677
11
8.5508884251968507
21
-0.3756035039370079
0
LINE
8
BLACK
6
CONTINUOUS
10
8.5508884251968507
20
-0.3756035039370079
11
8.6089755905511804
21
-0.4030766929133858
0
LINE
8
BLACK
6
CONTINUOUS
10
8.6089755905511804
20
-0.4030766929133858
11
8.6663710236220464
21
-0.431967125984252
0
LINE
8
BLACK
6
CONTINUOUS
10
8.6663710236220464
20
-0.431967125984252
11
8.723040196850393
21
-0.4622574409448819
0
LINE
8
BLACK
6
CONTINUOUS
10
8.723040196850393
20
-0.4622574409448819
11
8.7789489370078737
21
-0.4939293307086614
0
LINE
8
BLACK
6
CONTINUOUS
10
8.7789489370078737
20
-0.4939293307086614
11
8.8340635433070869
21
-0.526963779527559
0
LINE
8
BLACK
6
CONTINUOUS
10
8.8340635433070869
20
-0.526963779527559
11
8.8883508661417316
21
-0.5613408267716535
0
LINE
8
BLACK
6
CONTINUOUS
10
8.8883508661417316
20
-0.5613408267716535
11
8.9417781496062982
21
-0.5970398031496063
0
LINE
8
BLACK
6
CONTINUOUS
10
8.9417781496062982
20
-0.5970398031496063
11
8.9943133070866139
21
-0.6340392125984252
0
LINE
8
BLACK
6
CONTINUOUS
10
8.9943133070866139
20
-0.6340392125984252
11
9.0459245669291342
21
-0.6723167716535433
0
LINE
8
BLACK
6
CONTINUOUS
10
9.0459245669291342
20
-0.6723167716535433
11
9.0965809448818895
21
-0.7118493700787402
0
LINE
8
BLACK
6
CONTINUOUS
10
9.0965809448818895
20
-0.7118493700787402
11
9.1462518897637786
21
-0.7526132677165354
0
LINE
8
BLACK
6
CONTINUOUS
10
9.1462518897637786
20
-0.7526132677165354
11
9.1949074409448812
21
-0.7945838582677165
0
LINE
8
BLACK
6
CONTINUOUS
10
9.1949074409448812
20
-0.7945838582677165
11
9.2425183464566931
21
-0.8377358661417322
0
LINE
8
BLACK
6
CONTINUOUS
10
9.2425183464566931
20
-0.8377358661417322
11
9.2890559448818895
21
-0.8820433070866142
0
LINE
8
BLACK
6
CONTINUOUS
10
9.2890559448818895
20
-0.8820433070866142
11
9.3344921259842515
21
-0.9274794881889764
0
LINE
8
BLACK
6
CONTINUOUS
10
9.3344921259842515
20
-0.9274794881889764
11
9.3787995669291337
21
-0.9740170866141732
0
LINE
8
BLACK
6
CONTINUOUS
10
9.3787995669291337
20
-0.9740170866141732
11
9.421951574803149
21
-1.0216279921259843
0
LINE
8
BLACK
6
CONTINUOUS
10
9.421951574803149
20
-1.0216279921259843
11
9.4639221653543313
21
-1.0702835433070865
0
LINE
8
BLACK
6
CONTINUOUS
10
9.4639221653543313
20
-1.0702835433070865
11
9.5046860629921266
21
-1.1199544881889762
0
LINE
8
BLACK
6
CONTINUOUS
10
9.5046860629921266
20
-1.1199544881889762
11
9.5442186614173234
21
-1.1706108661417323
0
LINE
8
BLACK
6
CONTINUOUS
10
9.5442186614173234
20
-1.1706108661417323
11
9.5824962204724411
21
-1.2222221259842518
0
LINE
8
BLACK
6
CONTINUOUS
10
9.5824962204724411
20
-1.2222221259842518
11
9.6194956299212588
21
-1.2747572834645668
0
LINE
8
BLACK
6
CONTINUOUS
10
9.6194956299212588
20
-1.2747572834645668
11
9.6551946062992116
21
-1.3281845669291339
0
LINE
8
BLACK
6
CONTINUOUS
10
9.6551946062992116
20
-1.3281845669291339
11
9.6895716535433074
21
-1.3824718897637795
0
LINE
8
BLACK
6
CONTINUOUS
10
9.6895716535433074
20
-1.3824718897637795
11
9.7226061023622048
21
-1.437586496062992
0
LINE
8
BLACK
6
CONTINUOUS
10
9.7226061023622048
20
-1.437586496062992
11
9.7542779921259832
21
-1.4934952362204723
0
LINE
8
BLACK
6
CONTINUOUS
10
9.7542779921259832
20
-1.4934952362204723
11
9.7845683070866141
21
-1.5501644094488189
0
LINE
8
BLACK
6
CONTINUOUS
10
9.7845683070866141
20
-1.5501644094488189
11
9.8134587401574809
21
-1.6075598425196851
0
LINE
8
BLACK
6
CONTINUOUS
10
9.8134587401574809
20
-1.6075598425196851
11
9.8409319291338573
21
-1.6656470078740158
0
LINE
8
BLACK
6
CONTINUOUS
10
9.8409319291338573
20
-1.6656470078740158
11
9.8669712992125991
21
-1.724390905511811
0
LINE
8
BLACK
6
CONTINUOUS
10
9.8669712992125991
20
-1.724390905511811
11
9.8915611811023627
21
-1.7837561811023621
0
LINE
8
BLACK
6
CONTINUOUS
10
9.8915611811023627
20
-1.7837561811023621
11
9.9146867716535425
21
-1.8437070078740156
0
LINE
8
BLACK
6
CONTINUOUS
10
9.9146867716535425
20
-1.8437070078740156
11
9.9363341338582671
21
-1.9042073228346457
0
LINE
8
BLACK
6
CONTINUOUS
10
9.9363341338582671
20
-1.9042073228346457
11
9.956490236220473
21
-1.9652206299212598
0
LINE
8
BLACK
6
CONTINUOUS
10
9.956490236220473
20
-1.9652206299212598
11
9.9751429133858274
21
-2.0267102755905513
0
LINE
8
BLACK
6
CONTINUOUS
10
9.9751429133858274
20
-2.0267102755905513
11
9.9922809055118105
21
-2.0886391338582677
0
LINE
8
BLACK
6
CONTINUOUS
10
9.9922809055118105
20
-2.0886391338582677
11
10.007893976377952
21
-2.1509699212598425
0
LINE
8
BLACK
6
CONTINUOUS
10
10.007893976377952
20
-2.1509699212598425
11
10.021972637795276
21
-2.2136650787401573
0
LINE
8
BLACK
6
CONTINUOUS
10
10.021972637795276
20
-2.2136650787401573
11
10.0345084645669296
21
-2.2766868897637793
0
LINE
8
BLACK
6
CONTINUOUS
10
10.0345084645669296
20
-2.2766868897637793
11
10.0454938582677169
21
-2.3399973622047243
0
LINE
8
BLACK
6
CONTINUOUS
10
10.0454938582677169
20
-2.3399973622047243
11
10.0549222440944881
21
-2.4035583858267717
0
LINE
8
BLACK
6
CONTINUOUS
10
10.0549222440944881
20
-2.4035583858267717
11
10.0627879527559045
21
-2.4673316141732284
0
LINE
8
BLACK
6
CONTINUOUS
10
10.0627879527559045
20
-2.4673316141732284
11
10.069086181102362
21
-2.5312787007874014
0
LINE
8
BLACK
6
CONTINUOUS
10
10.069086181102362
20
-2.5312787007874014
11
10.0738131889763771
21
-2.5953610629921258
0
LINE
8
BLACK
6
CONTINUOUS
10
10.0738131889763771
20
-2.5953610629921258
11
10.0769661023622046
21
-2.6595401574803148
0
LINE
8
BLACK
6
CONTINUOUS
10
10.0769661023622046
20
-2.6595401574803148
11
10.0785430314960625
21
-2.723777283464567
0
LINE
8
BLACK
6
CONTINUOUS
10
10.0785430314960625
20
-2.723777283464567
11
10.0785430314960625
21
-2.7880337401574802
0
LINE
8
BLACK
6
CONTINUOUS
10
10.0785430314960625
20
-2.7880337401574802
11
10.0769661023622046
21
-2.8522708661417324
0
LINE
8
BLACK
6
CONTINUOUS
10
10.0769661023622046
20
-2.8522708661417324
11
10.0738131889763771
21
-2.916449960629921
0
LINE
8
BLACK
6
CONTINUOUS
10
10.0738131889763771
20
-2.916449960629921
11
10.069086181102362
21
-2.9805323228346454
0
LINE
8
BLACK
6
CONTINUOUS
10
10.069086181102362
20
-2.9805323228346454
11
10.0627879527559045
21
-3.0444794094488188
0
LINE
8
BLACK
6
CONTINUOUS
10
10.0627879527559045
20
-3.0444794094488188
11
10.0549222440944881
21
-3.1082526377952755
0
LINE
8
BLACK
6
CONTINUOUS
10
10.0549222440944881
20
-3.1082526377952755
11
10.0454938582677169
21
-3.1718136614173229
0
LINE
8
BLACK
6
CONTINUOUS
10
10.0454938582677169
20
-3.1718136614173229
11
10.0345084645669296
21
-3.2351241338582675
0
LINE
8
BLACK
6
CONTINUOUS
10
10.0345084645669296
20
-3.2351241338582675
11
10.021972637795276
21
-3.2981459448818895
0
LINE
8
BLACK
6
CONTINUOUS
10
10.021972637795276
20
-3.2981459448818895
11
10.007893976377952
21
-3.3608411023622047
0
LINE
8
BLACK
6
CONTINUOUS
10
10.007893976377952
20
-3.3608411023622047
11
9.9922809055118105
21
-3.4231718897637795
0
LINE
8
BLACK
6
CONTINUOUS
10
9.9922809055118105
20
-3.4231718897637795
11
9.9751429133858274
21
-3.4851007480314959
0
LINE
8
BLACK
6
CONTINUOUS
10
9.9751429133858274
20
-3.4851007480314959
11
9.956490236220473
21
-3.5465903937007872
0
LINE
8
BLACK
6
CONTINUOUS
10
9.956490236220473
20
-3.5465903937007872
11
9.9363341338582671
21
-3.6076037007874016
0
LINE
8
BLACK
6
CONTINUOUS
10
9.9363341338582671
20
-3.6076037007874016
11
9.9146867716535425
21
-3.6681040157480314
0
LINE
8
BLACK
6
CONTINUOUS
10
9.9146867716535425
20
-3.6681040157480314
11
9.8915611811023627
21
-3.7280548425196849
0
LINE
8
BLACK
6
CONTINUOUS
10
9.8915611811023627
20
-3.7280548425196849
11
9.8669712992125991
21
-3.7874201181102363
0
LINE
8
BLACK
6
CONTINUOUS
10
9.8669712992125991
20
-3.7874201181102363
11
9.8409319291338573
21
-3.8461640157480312
0
LINE
8
BLACK
6
CONTINUOUS
10
9.8409319291338573
20
-3.8461640157480312
11
9.8134587401574809
21
-3.9042511811023619
0
LINE
8
BLACK
6
CONTINUOUS
10
9.8134587401574809
20
-3.9042511811023619
11
9.7845683070866141
21
-3.9616466141732283
0
LINE
8
BLACK
6
CONTINUOUS
10
9.7845683070866141
20
-3.9616466141732283
11
9.7542779921259832
21
-4.0183157874015745
0
LINE
8
BLACK
6
CONTINUOUS
10
9.7542779921259832
20
-4.0183157874015745
11
9.7226061023622048
21
-4.0742245275590552
0
LINE
8
BLACK
6
CONTINUOUS
10
9.7226061023622048
20
-4.0742245275590552
11
9.6895716535433074
21
-4.1293391338582675
0
LINE
8
BLACK
6
CONTINUOUS
10
9.6895716535433074
20
-4.1293391338582675
11
9.6551946062992116
21
-4.1836264566929131
0
LINE
8
BLACK
6
CONTINUOUS
10
9.6551946062992116
20
-4.1836264566929131
11
9.6194956299212588
21
-4.2370537401574806
0
LINE
8
BLACK
6
CONTINUOUS
10
9.6194956299212588
20
-4.2370537401574806
11
9.5824962204724411
21
-4.2895888976377954
0
LINE
8
BLACK
6
CONTINUOUS
10
9.5824962204724411
20
-4.2895888976377954
11
9.5442186614173234
21
-4.3412001574803147
0
LINE
8
BLACK
6
CONTINUOUS
10
9.5442186614173234
20
-4.3412001574803147
11
9.5046860629921266
21
-4.391856535433071
0
LINE
8
BLACK
6
CONTINUOUS
10
9.5046860629921266
20
-4.391856535433071
11
9.4639221653543313
21
-4.4415274803149609
0
LINE
8
BLACK
6
CONTINUOUS
10
9.4639221653543313
20
-4.4415274803149609
11
9.421951574803149
21
-4.4901830314960627
0
LINE
8
BLACK
6
CONTINUOUS
10
9.421951574803149
20
-4.4901830314960627
11
9.3787995669291337
21
-4.5377939370078737
0
LINE
8
BLACK
6
CONTINUOUS
10
9.3787995669291337
20
-4.5377939370078737
11
9.3344921259842515
21
-4.5843315354330709
0
LINE
8
BLACK
6
CONTINUOUS
10
9.3344921259842515
20
-4.5843315354330709
11
9.2890559448818895
21
-4.629767716535433
0
LINE
8
BLACK
6
CONTINUOUS
10
9.2890559448818895
20
-4.629767716535433
11
9.2425183464566931
21
-4.6740751574803152
0
LINE
8
BLACK
6
CONTINUOUS
10
9.2425183464566931
20
-4.6740751574803152
11
9.1949074409448812
21
-4.7172271653543305
0
LINE
8
BLACK
6
CONTINUOUS
10
9.1949074409448812
20
-4.7172271653543305
11
9.1462518897637786
21
-4.7591977559055119
0
LINE
8
BLACK
6
CONTINUOUS
10
9.1462518897637786
20
-4.7591977559055119
11
9.0965809448818895
21
-4.7999616535433072
0
LINE
8
BLACK
6
CONTINUOUS
10
9.0965809448818895
20
-4.7999616535433072
11
9.0459245669291342
21
-4.839494251968504
0
LINE
8
BLACK
6
CONTINUOUS
10
9.0459245669291342
20
-4.839494251968504
11
8.9943133070866139
21
-4.8777718110236217
0
LINE
8
BLACK
6
CONTINUOUS
10
8.9943133070866139
20
-4.8777718110236217
11
8.9417781496062982
21
-4.9147712204724412
0
LINE
8
BLACK
6
CONTINUOUS
10
8.9417781496062982
20
-4.9147712204724412
11
8.8883508661417316
21
-4.9504701968503939
0
LINE
8
BLACK
6
CONTINUOUS
10
8.8883508661417316
20
-4.9504701968503939
11
8.8340635433070869
21
-4.984847244094488
0
LINE
8
BLACK
6
CONTINUOUS
10
8.8340635433070869
20
-4.984847244094488
11
8.7789489370078737
21
-5.0178816929133854
0
LINE
8
BLACK
6
CONTINUOUS
10
8.7789489370078737
20
-5.0178816929133854
11
8.723040196850393
21
-5.0495535826771656
0
LINE
8
BLACK
6
CONTINUOUS
10
8.723040196850393
20
-5.0495535826771656
11
8.6663710236220464
21
-5.0798438976377955
0
LINE
8
BLACK
6
CONTINUOUS
10
8.6663710236220464
20
-5.0798438976377955
11
8.6089755905511804
21
-5.1087343307086615
0
LINE
8
BLACK
6
CONTINUOUS
10
8.6089755905511804
20
-5.1087343307086615
11
8.5508884251968507
21
-5.1362075196850396
0
LINE
8
BLACK
6
CONTINUOUS
10
8.5508884251968507
20
-5.1362075196850396
11
8.4921445275590557
21
-5.1622468897637797
0
LINE
8
BLACK
6
CONTINUOUS
10
8.4921445275590557
20
-5.1622468897637797
11
8.432779251968503
21
-5.1868367716535433
0
LINE
8
BLACK
6
CONTINUOUS
10
8.432779251968503
20
-5.1868367716535433
11
8.3728284251968503
21
-5.209962362204724
0
LINE
8
BLACK
6
CONTINUOUS
10
8.3728284251968503
20
-5.209962362204724
11
8.312328110236221
21
-5.2316097244094486
0
LINE
8
BLACK
6
CONTINUOUS
10
8.312328110236221
20
-5.2316097244094486
11
8.2513148031496062
21
-5.2517658267716536
0
LINE
8
BLACK
6
CONTINUOUS
10
8.2513148031496062
20
-5.2517658267716536
11
8.189825157480314
21
-5.2704185039370079
0
LINE
8
BLACK
6
CONTINUOUS
10
8.189825157480314
20
-5.2704185039370079
11
8.1278962992125976
21
-5.2875564960629919
0
LINE
8
BLACK
6
CONTINUOUS
10
8.1278962992125976
20
-5.2875564960629919
11
8.0655655118110232
21
-5.3031695669291334
0
LINE
8
BLACK
6
CONTINUOUS
10
8.0655655118110232
20
-5.3031695669291334
11
8.0028703543307085
21
-5.3172482283464566
0
LINE
8
BLACK
6
CONTINUOUS
10
8.0028703543307085
20
-5.3172482283464566
11
7.939848543307086
21
-5.3297840551181102
0
LINE
8
BLACK
6
CONTINUOUS
10
7.939848543307086
20
-5.3297840551181102
11
7.8765380708661414
21
-5.3407694488188975
0
LINE
8
BLACK
6
CONTINUOUS
10
7.8765380708661414
20
-5.3407694488188975
11
7.812977047244094
21
-5.3501978346456696
0
LINE
8
BLACK
6
CONTINUOUS
10
7.812977047244094
20
-5.3501978346456696
11
7.7492038188976373
21
-5.3580635433070869
0
LINE
8
BLACK
6
CONTINUOUS
10
7.7492038188976373
20
-5.3580635433070869
11
7.685256732283464
21
-5.3643617716535434
0
LINE
8
BLACK
6
CONTINUOUS
10
7.685256732283464
20
-5.3643617716535434
11
7.62117437007874
21
-5.3690887795275586
0
LINE
8
BLACK
6
CONTINUOUS
10
7.62117437007874
20
-5.3690887795275586
11
7.556995275590551
21
-5.372241692913386
0
LINE
8
BLACK
6
CONTINUOUS
10
7.556995275590551
20
-5.372241692913386
11
7.4927581496062992
21
-5.3738186220472439
0
LINE
8
BLACK
6
CONTINUOUS
10
7.4927581496062992
20
-5.3738186220472439
11
7.428501692913386
21
-5.3738186220472439
0
LINE
8
BLACK
6
CONTINUOUS
10
7.428501692913386
20
-5.3738186220472439
11
7.3642645669291333
21
-5.372241692913386
0
LINE
8
BLACK
6
CONTINUOUS
10
7.3642645669291333
20
-5.372241692913386
11
7.3000854724409443
21
-5.3690887795275586
0
LINE
8
BLACK
6
CONTINUOUS
10
7.3000854724409443
20
-5.3690887795275586
11
7.2360031102362203
21
-5.3643617716535434
0
LINE
8
BLACK
6
CONTINUOUS
10
7.2360031102362203
20
-5.3643617716535434
11
7.172056023622047
21
-5.3580635433070869
0
LINE
8
BLACK
6
CONTINUOUS
10
7.172056023622047
20
-5.3580635433070869
11
7.1082827952755903
21
-5.3501978346456696
0
LINE
8
BLACK
6
CONTINUOUS
10
7.1082827952755903
20
-5.3501978346456696
11
7.0447217716535429
21
-5.3407694488188975
0
LINE
8
BLACK
6
CONTINUOUS
10
7.0447217716535429
20
-5.3407694488188975
11
6.9814112992125983
21
-5.3297840551181102
0
LINE
8
BLACK
6
CONTINUOUS
10
6.9814112992125983
20
-5.3297840551181102
11
6.9183894881889758
21
-5.3172482283464566
0
LINE
8
BLACK
6
CONTINUOUS
10
6.9183894881889758
20
-5.3172482283464566
11
6.8556943307086611
21
-5.3031695669291334
0
LINE
8
BLACK
6
CONTINUOUS
10
6.8556943307086611
20
-5.3031695669291334
11
6.7933635433070867
21
-5.2875564960629919
0
LINE
8
BLACK
6
CONTINUOUS
10
6.7933635433070867
20
-5.2875564960629919
11
6.7314346850393703
21
-5.2704185039370079
0
LINE
8
BLACK
6
CONTINUOUS
10
6.7314346850393703
20
-5.2704185039370079
11
6.669945039370079
21
-5.2517658267716536
0
LINE
8
BLACK
6
CONTINUOUS
10
6.669945039370079
20
-5.2517658267716536
11
6.6089317322834642
21
-5.2316097244094486
0
LINE
8
BLACK
6
CONTINUOUS
10
6.6089317322834642
20
-5.2316097244094486
11
6.5484314173228348
21
-5.209962362204724
0
LINE
8
BLACK
6
CONTINUOUS
10
6.5484314173228348
20
-5.209962362204724
11
6.4884805905511813
21
-5.1868367716535433
0
LINE
8
BLACK
6
CONTINUOUS
10
6.4884805905511813
20
-5.1868367716535433
11
6.4291153149606295
21
-5.1622468897637797
0
LINE
8
BLACK
6
CONTINUOUS
10
6.4291153149606295
20
-5.1622468897637797
11
6.3703714173228345
21
-5.1362075196850396
0
LINE
8
BLACK
6
CONTINUOUS
10
6.3703714173228345
20
-5.1362075196850396
11
6.3122842519685038
21
-5.1087343307086615
0
LINE
8
BLACK
6
CONTINUOUS
10
6.3122842519685038
20
-5.1087343307086615
11
6.2548888188976379
21
-5.0798438976377955
0
LINE
8
BLACK
6
CONTINUOUS
10
6.2548888188976379
20
-5.0798438976377955
11
6.1982196456692913
21
-5.0495535826771656
0
LINE
8
BLACK
6
CONTINUOUS
10
6.1982196456692913
20
-5.0495535826771656
11
6.1423109055118106
21
-5.0178816929133854
0
LINE
8
BLACK
6
CONTINUOUS
10
6.1423109055118106
20
-5.0178816929133854
11
6.0871962992125983
21
-4.984847244094488
0
LINE
8
BLACK
6
CONTINUOUS
10
6.0871962992125983
20
-4.984847244094488
11
6.0329089763779526
21
-4.9504701968503939
0
LINE
8
BLACK
6
CONTINUOUS
10
6.0329089763779526
20
-4.9504701968503939
11
5.979481692913386
21
-4.9147712204724412
0
LINE
8
BLACK
6
CONTINUOUS
10
5.979481692913386
20
-4.9147712204724412
11
5.9269465354330704
21
-4.8777718110236217
0
LINE
8
BLACK
6
CONTINUOUS
10
5.9269465354330704
20
-4.8777718110236217
11
5.875335275590551
21
-4.839494251968504
0
LINE
8
BLACK
6
CONTINUOUS
10
5.875335275590551
20
-4.839494251968504
11
5.8246788976377948
21
-4.7999616535433072
0
LINE
8
BLACK
6
CONTINUOUS
10
5.8246788976377948
20
-4.7999616535433072
11
5.7750079527559057
21
-4.7591977559055119
0
LINE
8
BLACK
6
CONTINUOUS
10
5.7750079527559057
20
-4.7591977559055119
11
5.7263524015748031
21
-4.7172271653543305
0
LINE
8
BLACK
6
CONTINUOUS
10
5.7263524015748031
20
-4.7172271653543305
11
5.6787414960629921
21
-4.6740751574803152
0
LINE
8
BLACK
6
CONTINUOUS
10
5.6787414960629921
20
-4.6740751574803152
11
5.6322038976377948
21
-4.629767716535433
0
LINE
8
BLACK
6
CONTINUOUS
10
5.6322038976377948
20
-4.629767716535433
11
5.5867677165354328
21
-4.5843315354330709
0
LINE
8
BLACK
6
CONTINUOUS
10
5.5867677165354328
20
-4.5843315354330709
11
5.5424602755905514
21
-4.5377939370078737
0
LINE
8
BLACK
6
CONTINUOUS
10
5.5424602755905514
20
-4.5377939370078737
11
5.4993082677165352
21
-4.4901830314960627
0
LINE
8
BLACK
6
CONTINUOUS
10
5.4993082677165352
20
-4.4901830314960627
11
5.4573376771653539
21
-4.4415274803149609
0
LINE
8
BLACK
6
CONTINUOUS
10
5.4573376771653539
20
-4.4415274803149609
11
5.4165737795275586
21
-4.391856535433071
0
LINE
8
BLACK
6
CONTINUOUS
10
5.4165737795275586
20
-4.391856535433071
11
5.3770411811023617
21
-4.3412001574803147
0
LINE
8
BLACK
6
CONTINUOUS
10
5.3770411811023617
20
-4.3412001574803147
11
5.3387636220472441
21
-4.2895888976377954
0
LINE
8
BLACK
6
CONTINUOUS
10
5.3387636220472441
20
-4.2895888976377954
11
5.3017642125984255
21
-4.2370537401574806
0
LINE
8
BLACK
6
CONTINUOUS
10
5.3017642125984255
20
-4.2370537401574806
11
5.2660652362204727
21
-4.1836264566929131
0
LINE
8
BLACK
6
CONTINUOUS
10
5.2660652362204727
20
-4.1836264566929131
11
5.2316881889763778
21
-4.1293391338582675
0
LINE
8
BLACK
6
CONTINUOUS
10
5.2316881889763778
20
-4.1293391338582675
11
5.1986537401574804
21
-4.0742245275590552
0
LINE
8
BLACK
6
CONTINUOUS
10
5.1986537401574804
20
-4.0742245275590552
11
5.1669818503937011
21
-4.0183157874015745
0
LINE
8
BLACK
6
CONTINUOUS
10
5.1669818503937011
20
-4.0183157874015745
11
5.1366915354330711
21
-3.9616466141732283
0
LINE
8
BLACK
6
CONTINUOUS
10
5.1366915354330711
20
-3.9616466141732283
11
5.1078011023622043
21
-3.9042511811023619
0
LINE
8
BLACK
6
CONTINUOUS
10
5.1078011023622043
20
-3.9042511811023619
11
5.080327913385827
21
-3.8461640157480312
0
LINE
8
BLACK
6
CONTINUOUS
10
5.080327913385827
20
-3.8461640157480312
11
5.0542885433070861
21
-3.7874201181102363
0
LINE
8
BLACK
6
CONTINUOUS
10
5.0542885433070861
20
-3.7874201181102363
11
5.0296986614173225
21
-3.7280548425196849
0
LINE
8
BLACK
6
CONTINUOUS
10
5.0296986614173225
20
-3.7280548425196849
11
5.0065730708661418
21
-3.6681040157480314
0
LINE
8
BLACK
6
CONTINUOUS
10
5.0065730708661418
20
-3.6681040157480314
11
4.9849257086614172
21
-3.6076037007874016
0
LINE
8
BLACK
6
CONTINUOUS
10
4.9849257086614172
20
-3.6076037007874016
11
4.9647696062992122
21
-3.5465903937007872
0
LINE
8
BLACK
6
CONTINUOUS
10
4.9647696062992122
20
-3.5465903937007872
11
4.9461169291338578
21
-3.4851007480314959
0
LINE
8
BLACK
6
CONTINUOUS
10
4.9461169291338578
20
-3.4851007480314959
11
4.9289789370078738
21
-3.4231718897637795
0
LINE
8
BLACK
6
CONTINUOUS
10
4.9289789370078738
20
-3.4231718897637795
11
4.9133658661417323
21
-3.3608411023622047
0
LINE
8
BLACK
6
CONTINUOUS
10
4.9133658661417323
20
-3.3608411023622047
11
4.8992872047244092
21
-3.2981459448818895
0
LINE
8
BLACK
6
CONTINUOUS
10
4.8992872047244092
20
-3.2981459448818895
11
4.8867513779527556
21
-3.2351241338582675
0
LINE
8
BLACK
6
CONTINUOUS
10
4.8867513779527556
20
-3.2351241338582675
11
4.8757659842519683
21
-3.1718136614173229
0
LINE
8
BLACK
6
CONTINUOUS
10
4.8757659842519683
20
-3.1718136614173229
11
4.8663375984251971
21
-3.1082526377952755
0
LINE
8
BLACK
6
CONTINUOUS
10
4.8663375984251971
20
-3.1082526377952755
11
4.8584718897637797
21
-3.0444794094488188
0
LINE
8
BLACK
6
CONTINUOUS
10
4.8584718897637797
20
-3.0444794094488188
11
4.8521736614173223
21
-2.9805323228346454
0
LINE
8
BLACK
6
CONTINUOUS
10
4.8521736614173223
20
-2.9805323228346454
11
4.8474466535433072
21
-2.916449960629921
0
LINE
8
BLACK
6
CONTINUOUS
10
4.8474466535433072
20
-2.916449960629921
11
4.8442937401574806
21
-2.8522708661417324
0
LINE
8
BLACK
6
CONTINUOUS
10
4.8442937401574806
20
-2.8522708661417324
11
4.8427168110236218
21
-2.7880337401574802
0
LINE
8
BLACK
6
CONTINUOUS
10
4.8427168110236218
20
-2.7880337401574802
11
4.8427168110236218
21
-2.7333846456692914
0
LINE
8
BLACK
6
CONTINUOUS
10
4.8427168110236218
20
-2.7333846456692914
11
4.8427168110236218
21
-2.723777283464567
0
LINE
8
BLACK
6
CONTINUOUS
10
4.8427168110236218
20
-2.723777283464567
11
4.8442937401574806
21
-2.6595401574803148
0
LINE
8
BLACK
6
CONTINUOUS
10
4.8442937401574806
20
-2.6595401574803148
11
4.8474466535433072
21
-2.5953610629921258
0
LINE
8
BLACK
6
CONTINUOUS
10
4.8474466535433072
20
-2.5953610629921258
11
4.8521736614173223
21
-2.5312787007874014
0
LINE
8
BLACK
6
CONTINUOUS
10
4.8521736614173223
20
-2.5312787007874014
11
4.8584718897637797
21
-2.4673316141732284
0
LINE
8
BLACK
6
CONTINUOUS
10
4.8584718897637797
20
-2.4673316141732284
11
4.8663375984251971
21
-2.4035583858267717
0
LINE
8
BLACK
6
CONTINUOUS
10
4.8663375984251971
20
-2.4035583858267717
11
4.8757659842519683
21
-2.3399973622047243
0
LINE
8
BLACK
6
CONTINUOUS
10
4.8757659842519683
20
-2.3399973622047243
11
4.8867513779527556
21
-2.2766868897637793
0
LINE
8
BLACK
6
CONTINUOUS
10
4.8867513779527556
20
-2.2766868897637793
11
4.8992872047244092
21
-2.2136650787401573
0
LINE
8
BLACK
6
CONTINUOUS
10
4.8992872047244092
20
-2.2136650787401573
11
4.9133658661417323
21
-2.1509699212598425
0
LINE
8
BLACK
6
CONTINUOUS
10
4.9133658661417323
20
-2.1509699212598425
11
4.9289789370078738
21
-2.0886391338582677
0
LINE
8
BLACK
6
CONTINUOUS
10
4.9289789370078738
20
-2.0886391338582677
11
4.9461169291338578
21
-2.0267102755905513
0
LINE
8
BLACK
6
CONTINUOUS
10
4.9461169291338578
20
-2.0267102755905513
11
4.9647696062992122
21
-1.9652206299212598
0
LINE
8
BLACK
6
CONTINUOUS
10
4.9647696062992122
20
-1.9652206299212598
11
4.9849257086614172
21
-1.9042073228346457
0
LINE
8
BLACK
6
CONTINUOUS
10
4.9849257086614172
20
-1.9042073228346457
11
5.0065730708661418
21
-1.8437070078740156
0
LINE
8
BLACK
6
CONTINUOUS
10
5.0065730708661418
20
-1.8437070078740156
11
5.0296986614173225
21
-1.7837561811023621
0
LINE
8
BLACK
6
CONTINUOUS
10
5.0296986614173225
20
-1.7837561811023621
11
5.0542885433070861
21
-1.724390905511811
0
LINE
8
BLACK
6
CONTINUOUS
10
5.0542885433070861
20
-1.724390905511811
11
5.080327913385827
21
-1.6656470078740158
0
LINE
8
BLACK
6
CONTINUOUS
10
5.080327913385827
20
-1.6656470078740158
11
5.1078011023622043
21
-1.6075598425196851
0
LINE
8
BLACK
6
CONTINUOUS
10
5.1078011023622043
20
-1.6075598425196851
11
5.1366915354330711
21
-1.5501644094488189
0
LINE
8
BLACK
6
CONTINUOUS
10
5.1366915354330711
20
-1.5501644094488189
11
5.1669818503937011
21
-1.4934952362204723
0
LINE
8
BLACK
6
CONTINUOUS
10
5.1669818503937011
20
-1.4934952362204723
11
5.1986537401574804
21
-1.437586496062992
0
LINE
8
BLACK
6
CONTINUOUS
10
5.1986537401574804
20
-1.437586496062992
11
5.2316881889763778
21
-1.3824718897637795
0
LINE
8
BLACK
6
CONTINUOUS
10
5.2316881889763778
20
-1.3824718897637795
11
5.2660652362204727
21
-1.3281845669291339
0
LINE
8
BLACK
6
CONTINUOUS
10
5.2660652362204727
20
-1.3281845669291339
11
5.3017642125984255
21
-1.2747572834645668
0
LINE
8
BLACK
6
CONTINUOUS
10
5.3017642125984255
20
-1.2747572834645668
11
5.3387636220472441
21
-1.2222221259842518
0
LINE
8
BLACK
6
CONTINUOUS
10
5.3387636220472441
20
-1.2222221259842518
11
5.3770411811023617
21
-1.1706108661417323
0
LINE
8
BLACK
6
CONTINUOUS
10
5.3770411811023617
20
-1.1706108661417323
11
5.4165737795275586
21
-1.1199544881889762
0
LINE
8
BLACK
6
CONTINUOUS
10
5.4165737795275586
20
-1.1199544881889762
11
5.4573376771653539
21
-1.0702835433070865
0
LINE
8
BLACK
6
CONTINUOUS
10
5.4573376771653539
20
-1.0702835433070865
11
5.4993082677165352
21
-1.0216279921259843
0
LINE
8
BLACK
6
CONTINUOUS
10
5.4993082677165352
20
-1.0216279921259843
11
5.5424602755905514
21
-0.9740170866141732
0
LINE
8
BLACK
6
CONTINUOUS
10
5.5424602755905514
20
-0.9740170866141732
11
5.5867677165354328
21
-0.9274794881889764
0
LINE
8
BLACK
6
CONTINUOUS
10
5.5867677165354328
20
-0.9274794881889764
11
5.6322038976377948
21
-0.8820433070866142
0
LINE
8
BLACK
6
CONTINUOUS
10
5.6322038976377948
20
-0.8820433070866142
11
5.6787414960629921
21
-0.8377358661417322
0
LINE
8
BLACK
6
CONTINUOUS
10
5.6787414960629921
20
-0.8377358661417322
11
5.7263524015748031
21
-0.7945838582677165
0
LINE
8
BLACK
6
CONTINUOUS
10
5.7263524015748031
20
-0.7945838582677165
11
5.7750079527559057
21
-0.7526132677165354
0
LINE
8
BLACK
6
CONTINUOUS
10
5.7750079527559057
20
-0.7526132677165354
11
5.8246788976377948
21
-0.7118493700787402
0
LINE
8
BLACK
6
CONTINUOUS
10
5.8246788976377948
20
-0.7118493700787402
11
5.875335275590551
21
-0.6723167716535433
0
LINE
8
BLACK
6
CONTINUOUS
10
5.875335275590551
20
-0.6723167716535433
11
5.9269465354330704
21
-0.6340392125984252
0
LINE
8
BLACK
6
CONTINUOUS
10
5.9269465354330704
20
-0.6340392125984252
11
5.979481692913386
21
-0.5970398031496063
0
LINE
8
BLACK
6
CONTINUOUS
10
5.979481692913386
20
-0.5970398031496063
11
6.0329089763779526
21
-0.5613408267716535
0
LINE
8
BLACK
6
CONTINUOUS
10
6.0329089763779526
20
-0.5613408267716535
11
6.0871962992125983
21
-0.526963779527559
0
LINE
8
BLACK
6
CONTINUOUS
10
6.0871962992125983
20
-0.526963779527559
11
6.1423109055118106
21
-0.4939293307086614
0
LINE
8
BLACK
6
CONTINUOUS
10
6.1423109055118106
20
-0.4939293307086614
11
6.1982196456692913
21
-0.4622574409448819
0
LINE
8
BLACK
6
CONTINUOUS
10
6.1982196456692913
20
-0.4622574409448819
11
6.2548888188976379
21
-0.431967125984252
0
LINE
8
BLACK
6
CONTINUOUS
10
6.2548888188976379
20
-0.431967125984252
11
6.3122842519685038
21
-0.4030766929133858
0
LINE
8
BLACK
6
CONTINUOUS
10
6.3122842519685038
20
-0.4030766929133858
11
6.3703714173228345
21
-0.3756035039370079
0
LINE
8
BLACK
6
CONTINUOUS
10
6.3703714173228345
20
-0.3756035039370079
11
6.4291153149606295
21
-0.3495641338582677
0
LINE
8
BLACK
6
CONTINUOUS
10
6.4291153149606295
20
-0.3495641338582677
11
6.4884805905511813
21
-0.3249742519685039
0
LINE
8
BLACK
6
CONTINUOUS
10
6.4884805905511813
20
-0.3249742519685039
11
6.5484314173228348
21
-0.3018486614173228
0
LINE
8
BLACK
6
CONTINUOUS
10
6.5484314173228348
20
-0.3018486614173228
11
6.6089317322834642
21
-0.2802012992125984
0
LINE
8
BLACK
6
CONTINUOUS
10
6.6089317322834642
20
-0.2802012992125984
11
6.669945039370079
21
-0.2600451968503937
0
LINE
8
BLACK
6
CONTINUOUS
10
6.669945039370079
20
-0.2600451968503937
11
6.7314346850393703
21
-0.2413925196850394
0
LINE
8
BLACK
6
CONTINUOUS
10
6.7314346850393703
20
-0.2413925196850394
11
6.7933635433070867
21
-0.2242545275590551
0
LINE
8
BLACK
6
CONTINUOUS
10
6.7933635433070867
20
-0.2242545275590551
11
6.8556943307086611
21
-0.2086414566929134
0
LINE
8
BLACK
6
CONTINUOUS
10
6.8556943307086611
20
-0.2086414566929134
11
6.9183894881889758
21
-0.1945627952755905
0
LINE
8
BLACK
6
CONTINUOUS
10
6.9183894881889758
20
-0.1945627952755905
11
6.9814112992125983
21
-0.182026968503937
0
LINE
8
BLACK
6
CONTINUOUS
10
6.9814112992125983
20
-0.182026968503937
11
7.0447217716535429
21
-0.1710415748031496
0
LINE
8
BLACK
6
CONTINUOUS
10
7.0447217716535429
20
-0.1710415748031496
11
7.1082827952755903
21
-0.1616131889763779
0
LINE
8
BLACK
6
CONTINUOUS
10
7.1082827952755903
20
-0.1616131889763779
11
7.172056023622047
21
-0.1537474803149606
0
LINE
8
BLACK
6
CONTINUOUS
10
7.172056023622047
20
-0.1537474803149606
11
7.2360031102362203
21
-0.1474492519685039
0
LINE
8
BLACK
6
CONTINUOUS
10
7.2360031102362203
20
-0.1474492519685039
11
7.3000854724409443
21
-0.1427222440944882
0
LINE
8
BLACK
6
CONTINUOUS
10
7.3000854724409443
20
-0.1427222440944882
11
7.3642645669291333
21
-0.1395693307086614
0
LINE
8
BLACK
6
CONTINUOUS
10
7.3642645669291333
20
-0.1395693307086614
11
7.428501692913386
21
-0.1379924015748031
0
LINE
8
BLACK
6
CONTINUOUS
10
7.428501692913386
20
-0.1379924015748031
11
7.4927581496062992
21
-0.1379924015748031
0
LINE
8
BLACK
6
CONTINUOUS
10
7.4927581496062992
20
-0.1379924015748031
11
7.556995275590551
21
-0.1395693307086614
0
LINE
8
BLACK
6
CONTINUOUS
10
6.1417322834645667
20
-2.7784263779527558
11
6.143270039370079
21
-2.8234418897637794
0
LINE
8
BLACK
6
CONTINUOUS
10
6.143270039370079
20
-2.8234418897637794
11
6.1463437795275588
21
-2.8683786614173226
0
LINE
8
BLACK
6
CONTINUOUS
10
6.1463437795275588
20
-2.8683786614173226
11
6.1509499606299212
21
-2.9131842519685041
0
LINE
8
BLACK
6
CONTINUOUS
10
6.1509499606299212
20
-2.9131842519685041
11
6.157083149606299
21
-2.9578064960629922
0
LINE
8
BLACK
6
CONTINUOUS
10
6.157083149606299
20
-2.9578064960629922
11
6.1647362204724407
21
-3.0021933464566928
0
LINE
8
BLACK
6
CONTINUOUS
10
6.1647362204724407
20
-3.0021933464566928
11
6.1739002362204722
21
-3.0462929921259843
0
LINE
8
BLACK
6
CONTINUOUS
10
6.1739002362204722
20
-3.0462929921259843
11
6.1845644881889763
21
-3.0900540944881887
0
LINE
8
BLACK
6
CONTINUOUS
10
6.1845644881889763
20
-3.0900540944881887
11
6.1967166141732282
21
-3.1334255905511812
0
LINE
8
BLACK
6
CONTINUOUS
10
6.1967166141732282
20
-3.1334255905511812
11
6.2103424015748034
21
-3.1763568897637793
0
LINE
8
BLACK
6
CONTINUOUS
10
6.2103424015748034
20
-3.1763568897637793
11
6.2254259842519684
21
-3.2187979921259844
0
LINE
8
BLACK
6
CONTINUOUS
10
6.2254259842519684
20
-3.2187979921259844
11
6.2419497244094488
21
-3.2606993700787399
0
LINE
8
BLACK
6
CONTINUOUS
10
6.2419497244094488
20
-3.2606993700787399
11
6.2598944094488189
21
-3.3020121653543306
0
LINE
8
BLACK
6
CONTINUOUS
10
6.2598944094488189
20
-3.3020121653543306
11
6.2792391338582672
21
-3.3426882677165355
0
LINE
8
BLACK
6
CONTINUOUS
10
6.2792391338582672
20
-3.3426882677165355
11
6.2999612598425196
21
-3.3826801574803147
0
LINE
8
BLACK
6
CONTINUOUS
10
6.2999612598425196
20
-3.3826801574803147
11
6.322036692913386
21
-3.4219412992125982
0
LINE
8
BLACK
6
CONTINUOUS
10
6.322036692913386
20
-3.4219412992125982
11
6.3454396456692912
21
-3.4604258267716537
0
LINE
8
BLACK
6
CONTINUOUS
10
6.3454396456692912
20
-3.4604258267716537
11
6.3701429133858269
21
-3.4980889763779528
0
LINE
8
BLACK
6
CONTINUOUS
10
6.3701429133858269
20
-3.4980889763779528
11
6.3961175984251968
21
-3.5348867322834643
0
LINE
8
BLACK
6
CONTINUOUS
10
6.3961175984251968
20
-3.5348867322834643
11
6.4233334645669293
21
-3.5707762204724407
0
LINE
8
BLACK
6
CONTINUOUS
10
6.4233334645669293
20
-3.5707762204724407
11
6.4517587795275588
21
-3.6057156299212596
0
LINE
8
BLACK
6
CONTINUOUS
10
6.4517587795275588
20
-3.6057156299212596
11
6.4813603937007871
21
-3.6396641732283466
0
LINE
8
BLACK
6
CONTINUOUS
10
6.4813603937007871
20
-3.6396641732283466
11
6.5121037795275587
21
-3.6725823228346455
0
LINE
8
BLACK
6
CONTINUOUS
10
6.5121037795275587
20
-3.6725823228346455
11
6.5439531102362203
21
-3.7044316535433071
0
LINE
8
BLACK
6
CONTINUOUS
10
6.5439531102362203
20
-3.7044316535433071
11
6.5768712598425196
21
-3.7351750393700787
0
LINE
8
BLACK
6
CONTINUOUS
10
6.5768712598425196
20
-3.7351750393700787
11
6.6108198031496057
21
-3.7647766535433069
0
LINE
8
BLACK
6
CONTINUOUS
10
6.6108198031496057
20
-3.7647766535433069
11
6.6457592125984251
21
-3.7932019685039369
0
LINE
8
BLACK
6
CONTINUOUS
10
6.6457592125984251
20
-3.7932019685039369
11
6.6816487007874015
21
-3.8204178346456694
0
LINE
8
BLACK
6
CONTINUOUS
10
6.6816487007874015
20
-3.8204178346456694
11
6.718446456692913
21
-3.8463925196850393
0
LINE
8
BLACK
6
CONTINUOUS
10
6.718446456692913
20
-3.8463925196850393
11
6.7561096062992121
21
-3.8710957874015746
0
LINE
8
BLACK
6
CONTINUOUS
10
6.7561096062992121
20
-3.8710957874015746
11
6.7945941338582676
21
-3.8944987401574802
0
LINE
8
BLACK
6
CONTINUOUS
10
6.7945941338582676
20
-3.8944987401574802
11
6.8338552755905511
21
-3.9165741732283466
0
LINE
8
BLACK
6
CONTINUOUS
10
6.8338552755905511
20
-3.9165741732283466
11
6.8738471653543307
21
-3.9372962992125982
0
LINE
8
BLACK
6
CONTINUOUS
10
6.8738471653543307
20
-3.9372962992125982
11
6.9145232677165351
21
-3.9566410236220473
0
LINE
8
BLACK
6
CONTINUOUS
10
6.9145232677165351
20
-3.9566410236220473
11
6.9558360629921259
21
-3.9745857086614174
0
LINE
8
BLACK
6
CONTINUOUS
10
6.9558360629921259
20
-3.9745857086614174
11
6.9977374409448814
21
-3.9911094488188974
0
LINE
8
BLACK
6
CONTINUOUS
10
6.9977374409448814
20
-3.9911094488188974
11
7.0401785433070865
21
-4.0061930314960632
0
LINE
8
BLACK
6
CONTINUOUS
10
7.0401785433070865
20
-4.0061930314960632
11
7.0831098425196846
21
-4.0198188188976376
0
LINE
8
BLACK
6
CONTINUOUS
10
7.0831098425196846
20
-4.0198188188976376
11
7.1264813385826766
21
-4.0319709448818895
0
LINE
8
BLACK
6
CONTINUOUS
10
7.1264813385826766
20
-4.0319709448818895
11
7.1702424409448815
21
-4.0426351968503935
0
LINE
8
BLACK
6
CONTINUOUS
10
7.1702424409448815
20
-4.0426351968503935
11
7.214342086614173
21
-4.051799212598425
0
LINE
8
BLACK
6
CONTINUOUS
10
7.214342086614173
20
-4.051799212598425
11
7.2587289370078736
21
-4.0594522834645668
0
LINE
8
BLACK
6
CONTINUOUS
10
7.2587289370078736
20
-4.0594522834645668
11
7.3033511811023617
21
-4.0655854724409446
0
LINE
8
BLACK
6
CONTINUOUS
10
7.3033511811023617
20
-4.0655854724409446
11
7.3481567716535432
21
-4.0701916535433069
0
LINE
8
BLACK
6
CONTINUOUS
10
7.3481567716535432
20
-4.0701916535433069
11
7.3930935433070868
21
-4.0732653937007877
0
LINE
8
BLACK
6
CONTINUOUS
10
7.3930935433070868
20
-4.0732653937007877
11
7.4381090551181099
21
-4.0748031496062991
0
LINE
8
BLACK
6
CONTINUOUS
10
7.4381090551181099
20
-4.0748031496062991
11
7.4831507874015744
21
-4.0748031496062991
0
LINE
8
BLACK
6
CONTINUOUS
10
7.4831507874015744
20
-4.0748031496062991
11
7.5281662992125984
21
-4.0732653937007877
0
LINE
8
BLACK
6
CONTINUOUS
10
7.5281662992125984
20
-4.0732653937007877
11
7.573103070866142
21
-4.0701916535433069
0
LINE
8
BLACK
6
CONTINUOUS
10
7.573103070866142
20
-4.0701916535433069
11
7.6179086614173226
21
-4.0655854724409446
0
LINE
8
BLACK
6
CONTINUOUS
10
7.6179086614173226
20
-4.0655854724409446
11
7.6625309055118107
21
-4.0594522834645668
0
LINE
8
BLACK
6
CONTINUOUS
10
7.6625309055118107
20
-4.0594522834645668
11
7.7069177559055113
21
-4.051799212598425
0
LINE
8
BLACK
6
CONTINUOUS
10
7.7069177559055113
20
-4.051799212598425
11
7.7510174015748028
21
-4.0426351968503935
0
LINE
8
BLACK
6
CONTINUOUS
10
7.7510174015748028
20
-4.0426351968503935
11
7.7947785039370077
21
-4.0319709448818895
0
LINE
8
BLACK
6
CONTINUOUS
10
7.7947785039370077
20
-4.0319709448818895
11
7.8381499999999997
21
-4.0198188188976376
0
LINE
8
BLACK
6
CONTINUOUS
10
7.8381499999999997
20
-4.0198188188976376
11
7.8810812992125978
21
-4.0061930314960632
0
LINE
8
BLACK
6
CONTINUOUS
10
7.8810812992125978
20
-4.0061930314960632
11
7.9235224015748029
21
-3.9911094488188974
0
LINE
8
BLACK
6
CONTINUOUS
10
7.9235224015748029
20
-3.9911094488188974
11
7.9654237795275593
21
-3.9745857086614174
0
LINE
8
BLACK
6
CONTINUOUS
10
7.9654237795275593
20
-3.9745857086614174
11
8.0067365748031492
21
-3.9566410236220473
0
LINE
8
BLACK
6
CONTINUOUS
10
8.0067365748031492
20
-3.9566410236220473
11
8.0474126771653545
21
-3.9372962992125982
0
LINE
8
BLACK
6
CONTINUOUS
10
8.0474126771653545
20
-3.9372962992125982
11
8.0874045669291341
21
-3.9165741732283466
0
LINE
8
BLACK
6
CONTINUOUS
10
8.0874045669291341
20
-3.9165741732283466
11
8.1266657086614167
21
-3.8944987401574802
0
LINE
8
BLACK
6
CONTINUOUS
10
8.1266657086614167
20
-3.8944987401574802
11
8.1651502362204731
21
-3.8710957874015746
0
LINE
8
BLACK
6
CONTINUOUS
10
8.1651502362204731
20
-3.8710957874015746
11
8.2028133858267722
21
-3.8463925196850393
0
LINE
8
BLACK
6
CONTINUOUS
10
8.2028133858267722
20
-3.8463925196850393
11
8.2396111417322828
21
-3.8204178346456694
0
LINE
8
BLACK
6
CONTINUOUS
10
8.2396111417322828
20
-3.8204178346456694
11
8.2755006299212592
21
-3.7932019685039369
0
LINE
8
BLACK
6
CONTINUOUS
10
8.2755006299212592
20
-3.7932019685039369
11
8.3104400393700786
21
-3.7647766535433069
0
LINE
8
BLACK
6
CONTINUOUS
10
8.3104400393700786
20
-3.7647766535433069
11
8.3443885826771655
21
-3.7351750393700787
0
LINE
8
BLACK
6
CONTINUOUS
10
8.3443885826771655
20
-3.7351750393700787
11
8.3773067322834649
21
-3.7044316535433071
0
LINE
8
BLACK
6
CONTINUOUS
10
8.3773067322834649
20
-3.7044316535433071
11
8.4091560629921265
21
-3.6725823228346455
0
LINE
8
BLACK
6
CONTINUOUS
10
8.4091560629921265
20
-3.6725823228346455
11
8.4398994488188972
21
-3.6396641732283466
0
LINE
8
BLACK
6
CONTINUOUS
10
8.4398994488188972
20
-3.6396641732283466
11
8.4695010629921264
21
-3.6057156299212596
0
LINE
8
BLACK
6
CONTINUOUS
10
8.4695010629921264
20
-3.6057156299212596
11
8.497926377952755
21
-3.5707762204724407
0
LINE
8
BLACK
6
CONTINUOUS
10
8.497926377952755
20
-3.5707762204724407
11
8.5251422440944875
21
-3.5348867322834643
0
LINE
8
BLACK
6
CONTINUOUS
10
8.5251422440944875
20
-3.5348867322834643
11
8.5511169291338582
21
-3.4980889763779528
0
LINE
8
BLACK
6
CONTINUOUS
10
8.5511169291338582
20
-3.4980889763779528
11
8.575820196850394
21
-3.4604258267716537
0
LINE
8
BLACK
6
CONTINUOUS
10
8.575820196850394
20
-3.4604258267716537
11
8.5992231496062992
21
-3.4219412992125982
0
LINE
8
BLACK
6
CONTINUOUS
10
8.5992231496062992
20
-3.4219412992125982
11
8.6212985826771646
21
-3.3826801574803147
0
LINE
8
BLACK
6
CONTINUOUS
10
8.6212985826771646
20
-3.3826801574803147
11
8.6420207086614163
21
-3.3426882677165355
0
LINE
8
BLACK
6
CONTINUOUS
10
8.6420207086614163
20
-3.3426882677165355
11
8.6613654330708663
21
-3.3020121653543306
0
LINE
8
BLACK
6
CONTINUOUS
10
8.6613654330708663
20
-3.3020121653543306
11
8.6793101181102355
21
-3.2606993700787399
0
LINE
8
BLACK
6
CONTINUOUS
10
8.6793101181102355
20
-3.2606993700787399
11
8.6958338582677168
21
-3.2187979921259844
0
LINE
8
BLACK
6
CONTINUOUS
10
8.6958338582677168
20
-3.2187979921259844
11
8.7109174409448809
21
-3.1763568897637793
0
LINE
8
BLACK
6
CONTINUOUS
10
8.7109174409448809
20
-3.1763568897637793
11
8.724543228346457
21
-3.1334255905511812
0
LINE
8
BLACK
6
CONTINUOUS
10
8.724543228346457
20
-3.1334255905511812
11
8.736695354330708
21
-3.0900540944881887
0
LINE
8
BLACK
6
CONTINUOUS
10
8.736695354330708
20
-3.0900540944881887
11
8.7473596062992129
21
-3.0462929921259843
0
LINE
8
BLACK
6
CONTINUOUS
10
8.7473596062992129
20
-3.0462929921259843
11
8.7565236220472435
21
-3.0021933464566928
0
LINE
8
BLACK
6
CONTINUOUS
10
8.7565236220472435
20
-3.0021933464566928
11
8.7641766929133862
21
-2.9578064960629922
0
LINE
8
BLACK
6
CONTINUOUS
10
8.7641766929133862
20
-2.9578064960629922
11
8.770309881889764
21
-2.9131842519685041
0
LINE
8
BLACK
6
CONTINUOUS
10
8.770309881889764
20
-2.9131842519685041
11
8.7749160629921263
21
-2.8683786614173226
0
LINE
8
BLACK
6
CONTINUOUS
10
8.7749160629921263
20
-2.8683786614173226
11
8.7779898031496053
21
-2.8234418897637794
0
LINE
8
BLACK
6
CONTINUOUS
10
8.7779898031496053
20
-2.8234418897637794
11
8.7795275590551185
21
-2.7784263779527558
0
LINE
8
BLACK
6
CONTINUOUS
10
8.7795275590551185
20
-2.7784263779527558
11
8.7795275590551185
21
-2.7333846456692914
0
LINE
8
BLACK
6
CONTINUOUS
10
8.7795275590551185
20
-2.7333846456692914
11
8.7779898031496053
21
-2.6883691338582678
0
LINE
8
BLACK
6
CONTINUOUS
10
8.7779898031496053
20
-2.6883691338582678
11
8.7749160629921263
21
-2.6434323622047242
0
LINE
8
BLACK
6
CONTINUOUS
10
8.7749160629921263
20
-2.6434323622047242
11
8.770309881889764
21
-2.5986267716535432
0
LINE
8
BLACK
6
CONTINUOUS
10
8.770309881889764
20
-2.5986267716535432
11
8.7641766929133862
21
-2.554004527559055
0
LINE
8
BLACK
6
CONTINUOUS
10
8.7641766929133862
20
-2.554004527559055
11
8.7565236220472435
21
-2.5096176771653544
0
LINE
8
BLACK
6
CONTINUOUS
10
8.7565236220472435
20
-2.5096176771653544
11
8.7473596062992129
21
-2.465518031496063
0
LINE
8
BLACK
6
CONTINUOUS
10
8.7473596062992129
20
-2.465518031496063
11
8.736695354330708
21
-2.4217569291338581
0
LINE
8
BLACK
6
CONTINUOUS
10
8.736695354330708
20
-2.4217569291338581
11
8.724543228346457
21
-2.378385433070866
0
LINE
8
BLACK
6
CONTINUOUS
10
8.724543228346457
20
-2.378385433070866
11
8.7109174409448809
21
-2.3354541338582675
0
LINE
8
BLACK
6
CONTINUOUS
10
8.7109174409448809
20
-2.3354541338582675
11
8.6958338582677168
21
-2.2930130314960628
0
LINE
8
BLACK
6
CONTINUOUS
10
8.6958338582677168
20
-2.2930130314960628
11
8.6793101181102355
21
-2.2511116535433069
0
LINE
8
BLACK
6
CONTINUOUS
10
8.6793101181102355
20
-2.2511116535433069
11
8.6613654330708663
21
-2.2097988582677166
0
LINE
8
BLACK
6
CONTINUOUS
10
8.6613654330708663
20
-2.2097988582677166
11
8.6420207086614163
21
-2.1691227559055117
0
LINE
8
BLACK
6
CONTINUOUS
10
8.6420207086614163
20
-2.1691227559055117
11
8.6212985826771646
21
-2.1291308661417321
0
LINE
8
BLACK
6
CONTINUOUS
10
8.6212985826771646
20
-2.1291308661417321
11
8.5992231496062992
21
-2.0898697244094486
0
LINE
8
BLACK
6
CONTINUOUS
10
8.5992231496062992
20
-2.0898697244094486
11
8.575820196850394
21
-2.0513851968503936
0
LINE
8
BLACK
6
CONTINUOUS
10
8.575820196850394
20
-2.0513851968503936
11
8.5511169291338582
21
-2.0137220472440944
0
LINE
8
BLACK
6
CONTINUOUS
10
8.5511169291338582
20
-2.0137220472440944
11
8.5251422440944875
21
-1.9769242913385827
0
LINE
8
BLACK
6
CONTINUOUS
10
8.5251422440944875
20
-1.9769242913385827
11
8.497926377952755
21
-1.9410348031496063
0
LINE
8
BLACK
6
CONTINUOUS
10
8.497926377952755
20
-1.9410348031496063
11
8.4695010629921264
21
-1.9060953937007874
0
LINE
8
BLACK
6
CONTINUOUS
10
8.4695010629921264
20
-1.9060953937007874
11
8.4398994488188972
21
-1.8721468503937007
0
LINE
8
BLACK
6
CONTINUOUS
10
8.4398994488188972
20
-1.8721468503937007
11
8.4091560629921265
21
-1.8392287007874015
0
LINE
8
BLACK
6
CONTINUOUS
10
8.4091560629921265
20
-1.8392287007874015
11
8.3773067322834649
21
-1.8073793700787402
0
LINE
8
BLACK
6
CONTINUOUS
10
8.3773067322834649
20
-1.8073793700787402
11
8.3443885826771655
21
-1.7766359842519686
0
LINE
8
BLACK
6
CONTINUOUS
10
8.3443885826771655
20
-1.7766359842519686
11
8.3104400393700786
21
-1.7470343700787401
0
LINE
8
BLACK
6
CONTINUOUS
10
8.3104400393700786
20
-1.7470343700787401
11
8.2755006299212592
21
-1.7186090551181101
0
LINE
8
BLACK
6
CONTINUOUS
10
8.2755006299212592
20
-1.7186090551181101
11
8.2396111417322828
21
-1.6913931889763778
0
LINE
8
BLACK
6
CONTINUOUS
10
8.2396111417322828
20
-1.6913931889763778
11
8.2028133858267722
21
-1.6654185039370077
0
LINE
8
BLACK
6
CONTINUOUS
10
8.2028133858267722
20
-1.6654185039370077
11
8.1651502362204731
21
-1.6407152362204724
0
LINE
8
BLACK
6
CONTINUOUS
10
8.1651502362204731
20
-1.6407152362204724
11
8.1266657086614167
21
-1.6173122834645668
0
LINE
8
BLACK
6
CONTINUOUS
10
8.1266657086614167
20
-1.6173122834645668
11
8.0874045669291341
21
-1.5952368503937007
0
LINE
8
BLACK
6
CONTINUOUS
10
8.0874045669291341
20
-1.5952368503937007
11
8.0474126771653545
21
-1.5745147244094488
0
LINE
8
BLACK
6
CONTINUOUS
10
8.0474126771653545
20
-1.5745147244094488
11
8.0067365748031492
21
-1.5551699999999999
0
LINE
8
BLACK
6
CONTINUOUS
10
8.0067365748031492
20
-1.5551699999999999
11
7.9654237795275593
21
-1.5372253149606299
0
LINE
8
BLACK
6
CONTINUOUS
10
7.9654237795275593
20
-1.5372253149606299
11
7.9235224015748029
21
-1.5207015748031496
0
LINE
8
BLACK
6
CONTINUOUS
10
7.9235224015748029
20
-1.5207015748031496
11
7.8810812992125978
21
-1.5056179921259842
0
LINE
8
BLACK
6
CONTINUOUS
10
7.8810812992125978
20
-1.5056179921259842
11
7.8381499999999997
21
-1.4919922047244094
0
LINE
8
BLACK
6
CONTINUOUS
10
7.8381499999999997
20
-1.4919922047244094
11
7.7947785039370077
21
-1.4798400787401575
0
LINE
8
BLACK
6
CONTINUOUS
10
7.7947785039370077
20
-1.4798400787401575
11
7.7510174015748028
21
-1.4691758267716535
0
LINE
8
BLACK
6
CONTINUOUS
10
7.7510174015748028
20
-1.4691758267716535
11
7.7069177559055113
21
-1.460011811023622
0
LINE
8
BLACK
6
CONTINUOUS
10
7.7069177559055113
20
-1.460011811023622
11
7.6625309055118107
21
-1.4523587401574802
0
LINE
8
BLACK
6
CONTINUOUS
10
7.6625309055118107
20
-1.4523587401574802
11
7.6179086614173226
21
-1.4462255511811024
0
LINE
8
BLACK
6
CONTINUOUS
10
7.6179086614173226
20
-1.4462255511811024
11
7.573103070866142
21
-1.4416193700787401
0
LINE
8
BLACK
6
CONTINUOUS
10
7.573103070866142
20
-1.4416193700787401
11
7.5281662992125984
21
-1.4385456299212598
0
LINE
8
BLACK
6
CONTINUOUS
10
7.5281662992125984
20
-1.4385456299212598
11
7.4831507874015744
21
-1.4370078740157479
0
LINE
8
BLACK
6
CONTINUOUS
10
7.4831507874015744
20
-1.4370078740157479
11
7.4381090551181099
21
-1.4370078740157479
0
LINE
8
BLACK
6
CONTINUOUS
10
7.4381090551181099
20
-1.4370078740157479
11
7.3930935433070868
21
-1.4385456299212598
0
LINE
8
BLACK
6
CONTINUOUS
10
7.3930935433070868
20
-1.4385456299212598
11
7.3481567716535432
21
-1.4416193700787401
0
LINE
8
BLACK
6
CONTINUOUS
10
7.3481567716535432
20
-1.4416193700787401
11
7.3033511811023617
21
-1.4462255511811024
0
LINE
8
BLACK
6
CONTINUOUS
10
7.3033511811023617
20
-1.4462255511811024
11
7.2587289370078736
21
-1.4523587401574802
0
LINE
8
BLACK
6
CONTINUOUS
10
7.2587289370078736
20
-1.4523587401574802
11
7.214342086614173
21
-1.460011811023622
0
LINE
8
BLACK
6
CONTINUOUS
10
7.214342086614173
20
-1.460011811023622
11
7.1702424409448815
21
-1.4691758267716535
0
LINE
8
BLACK
6
CONTINUOUS
10
7.1702424409448815
20
-1.4691758267716535
11
7.1264813385826766
21
-1.4798400787401575
0
LINE
8
BLACK
6
CONTINUOUS
10
7.1264813385826766
20
-1.4798400787401575
11
7.0831098425196846
21
-1.4919922047244094
0
LINE
8
BLACK
6
CONTINUOUS
10
7.0831098425196846
20
-1.4919922047244094
11
7.0401785433070865
21
-1.5056179921259842
0
LINE
8
BLACK
6
CONTINUOUS
10
7.0401785433070865
20
-1.5056179921259842
11
6.9977374409448814
21
-1.5207015748031496
0
LINE
8
BLACK
6
CONTINUOUS
10
6.9977374409448814
20
-1.5207015748031496
11
6.9558360629921259
21
-1.5372253149606299
0
LINE
8
BLACK
6
CONTINUOUS
10
6.9558360629921259
20
-1.5372253149606299
11
6.9145232677165351
21
-1.5551699999999999
0
LINE
8
BLACK
6
CONTINUOUS
10
6.9145232677165351
20
-1.5551699999999999
11
6.8738471653543307
21
-1.5745147244094488
0
LINE
8
BLACK
6
CONTINUOUS
10
6.8738471653543307
20
-1.5745147244094488
11
6.8338552755905511
21
-1.5952368503937007
0
LINE
8
BLACK
6
CONTINUOUS
10
6.8338552755905511
20
-1.5952368503937007
11
6.7945941338582676
21
-1.6173122834645668
0
LINE
8
BLACK
6
CONTINUOUS
10
6.7945941338582676
20
-1.6173122834645668
11
6.7561096062992121
21
-1.6407152362204724
0
LINE
8
BLACK
6
CONTINUOUS
10
6.7561096062992121
20
-1.6407152362204724
11
6.718446456692913
21
-1.6654185039370077
0
LINE
8
BLACK
6
CONTINUOUS
10
6.718446456692913
20
-1.6654185039370077
11
6.6816487007874015
21
-1.6913931889763778
0
LINE
8
BLACK
6
CONTINUOUS
10
6.6816487007874015
20
-1.6913931889763778
11
6.6457592125984251
21
-1.7186090551181101
0
LINE
8
BLACK
6
CONTINUOUS
10
6.6457592125984251
20
-1.7186090551181101
11
6.6108198031496057
21
-1.7470343700787401
0
LINE
8
BLACK
6
CONTINUOUS
10
6.6108198031496057
20
-1.7470343700787401
11
6.5768712598425196
21
-1.7766359842519686
0
LINE
8
BLACK
6
CONTINUOUS
10
6.5768712598425196
20
-1.7766359842519686
11
6.5439531102362203
21
-1.8073793700787402
0
LINE
8
BLACK
6
CONTINUOUS
10
6.5439531102362203
20
-1.8073793700787402
11
6.5121037795275587
21
-1.8392287007874015
0
LINE
8
BLACK
6
CONTINUOUS
10
6.5121037795275587
20
-1.8392287007874015
11
6.4813603937007871
21
-1.8721468503937007
0
LINE
8
BLACK
6
CONTINUOUS
10
6.4813603937007871
20
-1.8721468503937007
11
6.4517587795275588
21
-1.9060953937007874
0
LINE
8
BLACK
6
CONTINUOUS
10
6.4517587795275588
20
-1.9060953937007874
11
6.4233334645669293
21
-1.9410348031496063
0
LINE
8
BLACK
6
CONTINUOUS
10
6.4233334645669293
20
-1.9410348031496063
11
6.3961175984251968
21
-1.9769242913385827
0
LINE
8
BLACK
6
CONTINUOUS
10
6.3961175984251968
20
-1.9769242913385827
11
6.3701429133858269
21
-2.0137220472440944
0
LINE
8
BLACK
6
CONTINUOUS
10
6.3701429133858269
20
-2.0137220472440944
11
6.3454396456692912
21
-2.0513851968503936
0
LINE
8
BLACK
6
CONTINUOUS
10
6.3454396456692912
20
-2.0513851968503936
11
6.322036692913386
21
-2.0898697244094486
0
LINE
8
BLACK
6
CONTINUOUS
10
6.322036692913386
20
-2.0898697244094486
11
6.2999612598425196
21
-2.1291308661417321
0
LINE
8
BLACK
6
CONTINUOUS
10
6.2999612598425196
20
-2.1291308661417321
11
6.2792391338582672
21
-2.1691227559055117
0
LINE
8
BLACK
6
CONTINUOUS
10
6.2792391338582672
20
-2.1691227559055117
11
6.2598944094488189
21
-2.2097988582677166
0
LINE
8
BLACK
6
CONTINUOUS
10
6.2598944094488189
20
-2.2097988582677166
11
6.2419497244094488
21
-2.2511116535433069
0
LINE
8
BLACK
6
CONTINUOUS
10
6.2419497244094488
20
-2.2511116535433069
11
6.2254259842519684
21
-2.2930130314960628
0
LINE
8
BLACK
6
CONTINUOUS
10
6.2254259842519684
20
-2.2930130314960628
11
6.2103424015748034
21
-2.3354541338582675
0
LINE
8
BLACK
6
CONTINUOUS
10
6.2103424015748034
20
-2.3354541338582675
11
6.1967166141732282
21
-2.378385433070866
0
LINE
8
BLACK
6
CONTINUOUS
10
6.1967166141732282
20
-2.378385433070866
11
6.1845644881889763
21
-2.4217569291338581
0
LINE
8
BLACK
6
CONTINUOUS
10
6.1845644881889763
20
-2.4217569291338581
11
6.1739002362204722
21
-2.465518031496063
0
LINE
8
BLACK
6
CONTINUOUS
10
6.1739002362204722
20
-2.465518031496063
11
6.1647362204724407
21
-2.5096176771653544
0
LINE
8
BLACK
6
CONTINUOUS
10
6.1647362204724407
20
-2.5096176771653544
11
6.157083149606299
21
-2.554004527559055
0
LINE
8
BLACK
6
CONTINUOUS
10
6.157083149606299
20
-2.554004527559055
11
6.1509499606299212
21
-2.5986267716535432
0
LINE
8
BLACK
6
CONTINUOUS
10
6.1509499606299212
20
-2.5986267716535432
11
6.1463437795275588
21
-2.6434323622047242
0
LINE
8
BLACK
6
CONTINUOUS
10
6.1463437795275588
20
-2.6434323622047242
11
6.143270039370079
21
-2.6883691338582678
0
LINE
8
BLACK
6
CONTINUOUS
10
6.143270039370079
20
-2.6883691338582678
11
6.1417322834645667
21
-2.7333846456692914
0
LINE
8
BLACK
6
CONTINUOUS
10
6.1417322834645667
20
-2.7333846456692914
11
6.1417322834645667
21
-2.7784263779527558
0
CIRCLE
8
BLACK
10
8.2692913385826774
20
-2.9527559055118111
40
0.0068897637795276
0
CIRCLE
8
BLACK
10
8.1692913385826778
20
-2.9527559055118111
40
0.0068897637795276
0
CIRCLE
8
BLACK
10
8.0692913385826763
20
-2.9527559055118111
40
0.0068897637795276
0
CIRCLE
8
BLACK
10
8.4858267716535423
20
-2.5787401574803148
40
0.0068897637795276
0
CIRCLE
8
BLACK
10
8.3858267716535426
20
-2.5787401574803148
40
0.0068897637795276
0
CIRCLE
8
BLACK
10
8.285826771653543
20
-2.5787401574803148
40
0.0068897637795276
0
CIRCLE
8
BLACK
10
8.1858267716535433
20
-2.5787401574803148
40
0.0068897637795276
0
CIRCLE
8
BLACK
10
8.4744094488188981
20
-3.1692913385826773
40
0.0068897637795276
0
CIRCLE
8
BLACK
10
8.3759842519685037
20
-3.1692913385826773
40
0.0068897637795276
0
CIRCLE
8
BLACK
10
8.3283464566929126
20
-2.0866141732283463
40
0.0068897637795276
0
CIRCLE
8
BLACK
10
8.228346456692913
20
-2.0866141732283463
40
0.0068897637795276
0
CIRCLE
8
BLACK
10
8.1283464566929133
20
-2.0866141732283463
40
0.0068897637795276
0
CIRCLE
8
BLACK
10
8.3169291338582667
20
-3.4055118110236218
40
0.0068897637795276
0
CIRCLE
8
BLACK
10
8.2185039370078741
20
-3.4055118110236218
40
0.0068897637795276
0
CIRCLE
8
BLACK
10
6.8110236220472435
20
-1.889763779527559
40
0.0068897637795276
0
CIRCLE
8
BLACK
10
6.8110236220472435
20
-2.0866141732283463
40
0.0068897637795276
0
CIRCLE
8
BLACK
10
8.4960629921259834
20
-2.795275590551181
40
0.0068897637795276
0
CIRCLE
8
BLACK
10
8.4960629921259834
20
-2.8937007874015745
40
0.0068897637795276
0
CIRCLE
8
BLACK
10
6.9862204724409445
20
-2.5822834645669293
40
0.0068897637795276
0
CIRCLE
8
BLACK
10
6.9862204724409445
20
-3.282283464566929
40
0.0068897637795276
0
CIRCLE
8
BLACK
10
7.8862204724409448
20
-3.282283464566929
40
0.0068897637795276
0
CIRCLE
8
BLACK
10
7.8862204724409448
20
-3.3822834645669291
40
0.0068897637795276
0
CIRCLE
8
BLACK
10
6.9862204724409445
20
-1.9822834645669292
40
0.0068897637795276
0
CIRCLE
8
BLACK
10
6.9862204724409445
20
-2.282283464566929
40
0.0068897637795276
0
CIRCLE
8
BLACK
10
6.9862204724409445
20
-2.3822834645669291
40
0.0068897637795276
0
CIRCLE
8
BLACK
10
6.9862204724409445
20
-2.4822834645669292
40
0.0068897637795276
0
CIRCLE
8
BLACK
10
6.9862204724409445
20
-2.6822834645669289
40
0.0068897637795276
0
CIRCLE
8
BLACK
10
6.9862204724409445
20
-2.782283464566929
40
0.0068897637795276
0
CIRCLE
8
BLACK
10
6.9862204724409445
20
-2.8822834645669291
40
0.0068897637795276
0
CIRCLE
8
BLACK
10
6.9862204724409445
20
-2.9822834645669292
40
0.0068897637795276
0
CIRCLE
8
BLACK
10
6.9862204724409445
20
-3.0822834645669293
40
0.0068897637795276
0
CIRCLE
8
BLACK
10
6.9862204724409445
20
-3.1822834645669289
40
0.0068897637795276
0
CIRCLE
8
BLACK
10
7.8862204724409448
20
-3.1822834645669289
40
0.0068897637795276
0
CIRCLE
8
BLACK
10
7.8862204724409448
20
-3.0822834645669293
40
0.0068897637795276
0
CIRCLE
8
BLACK
10
7.8862204724409448
20
-2.9822834645669292
40
0.0068897637795276
0
CIRCLE
8
BLACK
10
7.8862204724409448
20
-2.8822834645669291
40
0.0068897637795276
0
CIRCLE
8
BLACK
10
7.8862204724409448
20
-2.782283464566929
40
0.0068897637795276
0
CIRCLE
8
BLACK
10
7.8862204724409448
20
-2.6822834645669289
40
0.0068897637795276
0
CIRCLE
8
BLACK
10
7.8862204724409448
20
-2.5822834645669293
40
0.0068897637795276
0
CIRCLE
8
BLACK
10
7.8862204724409448
20
-2.4822834645669292
40
0.0068897637795276
0
CIRCLE
8
BLACK
10
7.8862204724409448
20
-2.3822834645669291
40
0.0068897637795276
0
CIRCLE
8
BLACK
10
7.8862204724409448
20
-2.282283464566929
40
0.0068897637795276
0
CIRCLE
8
BLACK
10
7.8862204724409448
20
-2.1822834645669289
40
0.0068897637795276
0
CIRCLE
8
BLACK
10
7.8862204724409448
20
-2.0822834645669293
40
0.0068897637795276
0
CIRCLE
8
BLACK
10
7.8862204724409448
20
-1.9822834645669292
40
0.0068897637795276
0
CIRCLE
8
BLACK
10
6.9862204724409445
20
-3.3822834645669291
40
0.0068897637795276
0
CIRCLE
8
BLACK
10
6.9862204724409445
20
-2.1822834645669289
40
0.0068897637795276
0
CIRCLE
8
BLACK
10
6.9862204724409445
20
-2.0822834645669293
40
0.0068897637795276
0
CIRCLE
8
BLACK
10
7.1741141732283467
20
-3.6555118110236218
40
0.0068897637795276
0
CIRCLE
8
BLACK
10
7.1741141732283467
20
-3.5555118110236221
40
0.0068897637795276
0
CIRCLE
8
BLACK
10
7.1741141732283467
20
-3.455511811023622
40
0.0068897637795276
0
CIRCLE
8
BLACK
10
7.1741141732283467
20
-3.3555118110236219
40
0.0068897637795276
0
CIRCLE
8
BLACK
10
7.1741141732283467
20
-3.2555118110236219
40
0.0068897637795276
0
CIRCLE
8
BLACK
10
7.1741141732283467
20
-3.1555118110236218
40
0.0068897637795276
0
CIRCLE
8
BLACK
10
7.1802165354330709
20
-2.9803149606299213
40
0.0068897637795276
0
CIRCLE
8
BLACK
10
7.1802165354330709
20
-2.8803149606299212
40
0.0068897637795276
0
CIRCLE
8
BLACK
10
7.1802165354330709
20
-2.7803149606299211
40
0.0068897637795276
0
CIRCLE
8
BLACK
10
7.1802165354330709
20
-2.680314960629921
40
0.0068897637795276
0
CIRCLE
8
BLACK
10
7.1802165354330709
20
-2.5803149606299214
40
0.0068897637795276
0
CIRCLE
8
BLACK
10
7.1802165354330709
20
-2.4803149606299213
40
0.0068897637795276
0
CIRCLE
8
BLACK
10
7.1802165354330709
20
-2.3803149606299212
40
0.0068897637795276
0
CIRCLE
8
BLACK
10
7.1802165354330709
20
-2.2803149606299211
40
0.0068897637795276
0
CIRCLE
8
BLACK
10
7.1802165354330709
20
-2.180314960629921
40
0.0068897637795276
0
CIRCLE
8
BLACK
10
7.1802165354330709
20
-2.0803149606299214
40
0.0068897637795276
0
CIRCLE
8
BLACK
10
7.1802165354330709
20
-1.9803149606299213
40
0.0068897637795276
0
CIRCLE
8
BLACK
10
6.5944881889763778
20
-2.9527559055118111
40
0.015748031496063
0
CIRCLE
8
BLACK
10
6.6141732283464565
20
-2.3228346456692912
40
0.015748031496063
0
CIRCLE
8
BLACK
10
7.4753937007874018
20
-1.5206692913385826
40
0.0059055118110236
0
CIRCLE
8
BLACK
10
8.5039370078740149
20
-2.106299212598425
40
0.0059055118110236
0
CIRCLE
8
BLACK
10
7.5984251968503935
20
-3.0708661417322833
40
0.015748031496063
0
CIRCLE
8
BLACK
10
7.9921259842519685
20
-1.8700787401574803
40
0.015748031496063
0
CIRCLE
8
BLACK
10
8.0708661417322833
20
-1.811023622047244
40
0.015748031496063
0
CIRCLE
8
WHITE
10
6.5944881889763778
20
-2.9527559055118111
40
0.0068897637795276
0
CIRCLE
8
WHITE
10
6.6141732283464565
20
-2.3228346456692912
40
0.0068897637795276
0
CIRCLE
8
WHITE
10
7.4753937007874018
20
-1.5206692913385826
40
0.0059055118110236
0
CIRCLE
8
WHITE
10
8.5039370078740149
20
-2.106299212598425
40
0.0059055118110236
0
CIRCLE
8
WHITE
10
7.5984251968503935
20
-3.0708661417322833
40
0.0068897637795276
0
CIRCLE
8
WHITE
10
7.9921259842519685
20
-1.8700787401574803
40
0.0068897637795276
0
CIRCLE
8
WHITE
10
8.0708661417322833
20
-1.811023622047244
40
0.0068897637795276
0
CIRCLE
8
WHITE
10
8.2692913385826774
20
-2.9527559055118111
40
0.0068897637795276
0
CIRCLE
8
WHITE
10
8.1692913385826778
20
-2.9527559055118111
40
0.0068897637795276
0
CIRCLE
8
WHITE
10
8.0692913385826763
20
-2.9527559055118111
40
0.0068897637795276
0
CIRCLE
8
WHITE
10
8.4858267716535423
20
-2.5787401574803148
40
0.0068897637795276
0
CIRCLE
8
WHITE
10
8.3858267716535426
20
-2.5787401574803148
40
0.0068897637795276
0
CIRCLE
8
WHITE
10
8.285826771653543
20
-2.5787401574803148
40
0.0068897637795276
0
CIRCLE
8
WHITE
10
8.1858267716535433
20
-2.5787401574803148
40
0.0068897637795276
0
CIRCLE
8
WHITE
10
8.4744094488188981
20
-3.1692913385826773
40
0.0068897637795276
0
CIRCLE
8
WHITE
10
8.3759842519685037
20
-3.1692913385826773
40
0.0068897637795276
0
CIRCLE
8
WHITE
10
8.3283464566929126
20
-2.0866141732283463
40
0.0068897637795276
0
CIRCLE
8
WHITE
10
8.228346456692913
20
-2.0866141732283463
40
0.0068897637795276
0
CIRCLE
8
WHITE
10
8.1283464566929133
20
-2.0866141732283463
40
0.0068897637795276
0
CIRCLE
8
WHITE
10
8.3169291338582667
20
-3.4055118110236218
40
0.0068897637795276
0
CIRCLE
8
WHITE
10
8.2185039370078741
20
-3.4055118110236218
40
0.0068897637795276
0
CIRCLE
8
WHITE
10
6.8110236220472435
20
-1.889763779527559
40
0.0068897637795276
0
CIRCLE
8
WHITE
10
6.8110236220472435
20
-2.0866141732283463
40
0.0068897637795276
0
CIRCLE
8
WHITE
10
8.4960629921259834
20
-2.795275590551181
40
0.0068897637795276
0
CIRCLE
8
WHITE
10
8.4960629921259834
20
-2.8937007874015745
40
0.0068897637795276
0
CIRCLE
8
WHITE
10
6.9862204724409445
20
-2.5822834645669293
40
0.0068897637795276
0
CIRCLE
8
WHITE
10
6.9862204724409445
20
-3.282283464566929
40
0.0068897637795276
0
CIRCLE
8
WHITE
10
7.8862204724409448
20
-3.282283464566929
40
0.0068897637795276
0
CIRCLE
8
WHITE
10
7.8862204724409448
20
-3.3822834645669291
40
0.0068897637795276
0
CIRCLE
8
WHITE
10
6.9862204724409445
20
-1.9822834645669292
40
0.0068897637795276
0
CIRCLE
8
WHITE
10
6.9862204724409445
20
-2.282283464566929
40
0.0068897637795276
0
CIRCLE
8
WHITE
10
6.9862204724409445
20
-2.3822834645669291
40
0.0068897637795276
0
CIRCLE
8
WHITE
10
6.9862204724409445
20
-2.4822834645669292
40
0.0068897637795276
0
CIRCLE
8
WHITE
10
6.9862204724409445
20
-2.6822834645669289
40
0.0068897637795276
0
CIRCLE
8
WHITE
10
6.9862204724409445
20
-2.782283464566929
40
0.0068897637795276
0
CIRCLE
8
WHITE
10
6.9862204724409445
20
-2.8822834645669291
40
0.0068897637795276
0
CIRCLE
8
WHITE
10
6.9862204724409445
20
-2.9822834645669292
40
0.0068897637795276
0
CIRCLE
8
WHITE
10
6.9862204724409445
20
-3.0822834645669293
40
0.0068897637795276
0
CIRCLE
8
WHITE
10
6.9862204724409445
20
-3.1822834645669289
40
0.0068897637795276
0
CIRCLE
8
WHITE
10
7.8862204724409448
20
-3.1822834645669289
40
0.0068897637795276
0
CIRCLE
8
WHITE
10
7.8862204724409448
20
-3.0822834645669293
40
0.0068897637795276
0
CIRCLE
8
WHITE
10
7.8862204724409448
20
-2.9822834645669292
40
0.0068897637795276
0
CIRCLE
8
WHITE
10
7.8862204724409448
20
-2.8822834645669291
40
0.0068897637795276
0
CIRCLE
8
WHITE
10
7.8862204724409448
20
-2.782283464566929
40
0.0068897637795276
0
CIRCLE
8
WHITE
10
7.8862204724409448
20
-2.6822834645669289
40
0.0068897637795276
0
CIRCLE
8
WHITE
10
7.8862204724409448
20
-2.5822834645669293
40
0.0068897637795276
0
CIRCLE
8
WHITE
10
7.8862204724409448
20
-2.4822834645669292
40
0.0068897637795276
0
CIRCLE
8
WHITE
10
7.8862204724409448
20
-2.3822834645669291
40
0.0068897637795276
0
CIRCLE
8
WHITE
10
7.8862204724409448
20
-2.282283464566929
40
0.0068897637795276
0
CIRCLE
8
WHITE
10
7.8862204724409448
20
-2.1822834645669289
40
0.0068897637795276
0
CIRCLE
8
WHITE
10
7.8862204724409448
20
-2.0822834645669293
40
0.0068897637795276
0
CIRCLE
8
WHITE
10
7.8862204724409448
20
-1.9822834645669292
40
0.0068897637795276
0
CIRCLE
8
WHITE
10
6.9862204724409445
20
-3.3822834645669291
40
0.0068897637795276
0
CIRCLE
8
WHITE
10
6.9862204724409445
20
-2.1822834645669289
40
0.0068897637795276
0
CIRCLE
8
WHITE
10
6.9862204724409445
20
-2.0822834645669293
40
0.0068897637795276
0
CIRCLE
8
WHITE
10
7.1741141732283467
20
-3.6555118110236218
40
0.0068897637795276
0
CIRCLE
8
WHITE
10
7.1741141732283467
20
-3.5555118110236221
40
0.0068897637795276
0
CIRCLE
8
WHITE
10
7.1741141732283467
20
-3.455511811023622
40
0.0068897637795276
0
CIRCLE
8
WHITE
10
7.1741141732283467
20
-3.3555118110236219
40
0.0068897637795276
0
CIRCLE
8
WHITE
10
7.1741141732283467
20
-3.2555118110236219
40
0.0068897637795276
0
CIRCLE
8
WHITE
10
7.1741141732283467
20
-3.1555118110236218
40
0.0068897637795276
0
CIRCLE
8
WHITE
10
7.1802165354330709
20
-2.9803149606299213
40
0.0068897637795276
0
CIRCLE
8
WHITE
10
7.1802165354330709
20
-2.8803149606299212
40
0.0068897637795276
0
CIRCLE
8
WHITE
10
7.1802165354330709
20
-2.7803149606299211
40
0.0068897637795276
0
CIRCLE
8
WHITE
10
7.1802165354330709
20
-2.680314960629921
40
0.0068897637795276
0
CIRCLE
8
WHITE
10
7.1802165354330709
20
-2.5803149606299214
40
0.0068897637795276
0
CIRCLE
8
WHITE
10
7.1802165354330709
20
-2.4803149606299213
40
0.0068897637795276
0
CIRCLE
8
WHITE
10
7.1802165354330709
20
-2.3803149606299212
40
0.0068897637795276
0
CIRCLE
8
WHITE
10
7.1802165354330709
20
-2.2803149606299211
40
0.0068897637795276
0
CIRCLE
8
WHITE
10
7.1802165354330709
20
-2.180314960629921
40
0.0068897637795276
0
CIRCLE
8
WHITE
10
7.1802165354330709
20
-2.0803149606299214
40
0.0068897637795276
0
CIRCLE
8
WHITE
10
7.1802165354330709
20
-1.9803149606299213
40
0.0068897637795276
  0
ENDSEC
  0
EOF
